<?xml version="1.0" encoding="utf-8"?>
<!-- Generator: Adobe Illustrator 21.1.0, SVG Export Plug-In . SVG Version: 6.00 Build 0)  -->
<svg version="1.1" xmlns="http://www.w3.org/2000/svg" xmlns:xlink="http://www.w3.org/1999/xlink" x="0px" y="0px"
	 viewBox="0 0 1200 9" style="enable-background:new 0 0 1200 9;" xml:space="preserve">
<style type="text/css">
	.st0{fill:#FFF1B3;}
	.st1{fill:#8740E8;}
	.st2{fill:none;stroke:#110D26;stroke-width:1.4755;stroke-linecap:round;stroke-linejoin:round;stroke-miterlimit:10;}
	.st3{clip-path:url(#SVGID_2_);fill:#FFEFDE;}
	.st4{clip-path:url(#SVGID_2_);fill:#A68AFF;}
	.st5{clip-path:url(#SVGID_2_);fill:#FF7E5F;}
	.st6{clip-path:url(#SVGID_2_);fill:#110D26;}
	.st7{clip-path:url(#SVGID_2_);}
	.st8{fill:none;stroke:#FF7E5F;stroke-width:4.4266;stroke-linecap:round;stroke-linejoin:round;stroke-miterlimit:10;}
	
		.st9{clip-path:url(#SVGID_2_);fill:none;stroke:#110D26;stroke-width:1.4755;stroke-linecap:round;stroke-linejoin:round;stroke-miterlimit:10;}
	.st10{opacity:0.35;clip-path:url(#SVGID_2_);}
	.st11{fill:#FFFFFF;}
	.st12{clip-path:url(#SVGID_2_);fill:#FFC4AF;}
	.st13{clip-path:url(#SVGID_2_);fill:#DF947F;}
	.st14{fill:#FFC4AF;}
	.st15{fill:#FF7E5F;}
	.st16{opacity:0.5;fill:#FFFFFF;}
	.st17{fill:#263238;}
	.st18{opacity:0.2;enable-background:new    ;}
	.st19{fill:url(#SVGID_3_);}
	.st20{fill:url(#SVGID_4_);}
	.st21{fill:url(#SVGID_5_);}
	.st22{fill:url(#SVGID_6_);}
	.st23{fill:url(#SVGID_7_);}
	.st24{fill:none;stroke:#FFFFFF;stroke-linecap:round;stroke-linejoin:round;}
	.st25{fill:url(#SVGID_8_);}
	.st26{fill:url(#SVGID_9_);}
	.st27{fill:url(#SVGID_10_);}
	.st28{opacity:0.5;fill:#FFFFFF;enable-background:new    ;}
	.st29{fill:#DF947F;}
	.st30{fill:none;stroke:#263238;stroke-width:0.5;stroke-linecap:round;stroke-linejoin:round;}
	.st31{fill:url(#SVGID_11_);}
	.st32{opacity:0.6;fill:#FFFFFF;enable-background:new    ;}
	.st33{fill:url(#SVGID_12_);}
	.st34{fill:url(#SVGID_13_);}
	.st35{fill:url(#SVGID_14_);}
	.st36{fill:none;stroke:#263238;stroke-linecap:round;stroke-linejoin:round;}
	.st37{fill:url(#SVGID_15_);}
	.st38{opacity:0.2;fill:#FFFFFF;enable-background:new    ;}
	.st39{opacity:0.3;fill:#FFFFFF;enable-background:new    ;}
	.st40{fill:url(#SVGID_16_);}
	.st41{fill:url(#SVGID_17_);}
	.st42{fill:none;stroke:#263238;stroke-width:0.708;stroke-linecap:round;stroke-linejoin:round;}
	.st43{fill:#DE5753;}
	.st44{clip-path:url(#SVGID_2_);fill:#FFFFFF;}
	.st45{clip-path:url(#SVGID_19_);}
	.st46{fill:#FEECE9;}
	.st47{fill:#110D26;}
	.st48{fill:url(#SVGID_20_);}
	.st49{fill:none;stroke:#110D26;stroke-width:1.0414;stroke-linecap:round;stroke-linejoin:round;stroke-miterlimit:10;}
	.st50{fill:#EBEBEB;}
	.st51{fill:#C7C7C7;}
	.st52{fill:url(#SVGID_21_);}
	.st53{fill:url(#SVGID_22_);}
	.st54{fill:url(#SVGID_23_);}
	.st55{fill:url(#SVGID_24_);}
	.st56{opacity:0.1;enable-background:new    ;}
	.st57{fill:url(#SVGID_25_);}
	.st58{fill:#A6A6A6;}
	.st59{fill:#DBDBDB;}
	.st60{fill:#455A64;}
	.st61{fill:url(#SVGID_26_);}
	.st62{fill:none;}
	.st63{fill:#FF99BA;}
	.st64{fill:#37474F;}
	.st65{opacity:0.2;}
	.st66{fill:url(#SVGID_27_);}
	.st67{fill:url(#SVGID_28_);}
	.st68{fill:url(#SVGID_29_);}
	.st69{fill:#FF9BBC;}
	.st70{fill:url(#SVGID_30_);}
	.st71{clip-path:url(#SVGID_32_);fill:#FFEFDE;}
	.st72{clip-path:url(#SVGID_32_);}
	.st73{opacity:0.6;}
	.st74{fill:#E0E0E0;}
	.st75{fill:#FAFAFA;}
	.st76{fill:#AA6550;}
	.st77{fill:url(#SVGID_33_);}
	.st78{opacity:0.3;}
	.st79{fill:#684B46;}
	.st80{fill:url(#SVGID_34_);}
	.st81{fill:url(#SVGID_35_);}
	.st82{fill:url(#SVGID_36_);}
	.st83{fill:url(#SVGID_37_);}
	.st84{fill:url(#SVGID_38_);}
	.st85{opacity:0.4;}
	.st86{clip-path:url(#SVGID_32_);fill:#8740E8;}
	.st87{clip-path:url(#SVGID_32_);fill:url(#SVGID_39_);}
	.st88{clip-path:url(#SVGID_32_);fill:#FFFFFF;}
	.st89{clip-path:url(#SVGID_32_);fill:#110D26;}
	
		.st90{clip-path:url(#SVGID_32_);fill:none;stroke:#110D26;stroke-width:1.4755;stroke-linecap:round;stroke-linejoin:round;stroke-miterlimit:10;}
	.st91{fill:#F5F5F5;}
	.st92{fill:url(#SVGID_40_);}
	.st93{fill:url(#SVGID_41_);}
	.st94{fill:url(#SVGID_42_);}
	.st95{fill:url(#SVGID_43_);}
	.st96{fill:url(#SVGID_44_);}
	.st97{fill:#F6957F;}
	.st98{fill:url(#SVGID_45_);}
	.st99{fill:url(#SVGID_46_);}
	.st100{fill:url(#SVGID_47_);}
	.st101{fill:url(#SVGID_48_);}
	.st102{fill:url(#SVGID_49_);}
	.st103{fill:url(#SVGID_50_);}
	.st104{fill:url(#SVGID_51_);}
	.st105{fill:#FFC5B0;}
	.st106{fill:url(#SVGID_52_);}
	.st107{fill:url(#SVGID_53_);}
	.st108{fill:url(#SVGID_54_);}
	.st109{fill:#CCCCCC;}
	.st110{fill:#FFDBD0;}
	.st111{fill:#FF8B57;}
	.st112{fill-rule:evenodd;clip-rule:evenodd;}
	.st113{fill:#E0F9FF;}
	.st114{fill:#FFEFDE;}
	.st115{fill:#E5F9E5;}
	.st116{display:none;}
	.st117{display:inline;}
	.st118{fill:#FDFDFD;}
	.st119{fill:#E5E9EB;}
	.st120{fill:#F7F8F9;}
	.st121{fill:#201E22;}
	.st122{fill:#CEE8D6;}
	.st123{fill:#8C8488;}
	.st124{fill:#DCDFE4;}
	.st125{fill:#1E1D1D;}
	.st126{fill:#242328;}
	.st127{fill:#EEF1F1;}
	.st128{fill:#F8F9FA;}
	.st129{fill:#9CC0F8;}
	.st130{fill:#F5F6F7;}
	.st131{fill:#DFE1E4;}
	.st132{fill:#707173;}
	.st133{fill:#8B858A;}
	.st134{fill:#F6F7F8;}
	.st135{fill:#525155;}
	.st136{fill:#F0F0F0;stroke:#CCCCCC;stroke-miterlimit:10;}
	.st137{fill:#FFAF00;}
	.st138{fill:#FFFFFF;stroke:#FFFFFF;stroke-width:5;stroke-miterlimit:10;}
	.st139{fill:none;stroke:#FFFFFF;stroke-width:2;stroke-miterlimit:10;}
</style>
<g id="banner3">
</g>
<g id="banner2">
</g>
<g id="banner1">
</g>
<g id="老人圖">
</g>
<g id="照相機">
</g>
<g id="圖層_8" class="st116">
</g>
<g id="地圖">
</g>
<g id="裝飾線">
	<g>
		<path class="st137" d="M1200,0C802.7,0.1,397.3,0.1,0,0v5c9.5,2.7,20,2.5,29.6,0.3c3-0.7,6.4-0.7,9.5-0.1
			c12.1,2.1,24.3,0,36.4,1.8c4.3,0.7,8.7,0.1,12.9-0.8c5.5-1.2,10.9-1.4,16.3,0.3c3.4,1.1,6.6,0,9.7-1.2c2.2-0.8,4.5-1.5,6.8-0.6
			c9.4,3.6,18.9,2.5,28.6,1.3c12.7-1.6,25.5-0.7,38.3-1.1c3.6-0.1,7.3,0.4,11-0.2c1-0.2,2-0.5,3-0.3c15.7,2.8,31.5-1.3,47.4,1.7
			c14,2.6,28.5,2.2,42.7-0.8c4.5-0.9,8.9-1,13.3,0.3c1.9,0.6,4,0.9,5.9,0.7c18.2-1.4,36.5,2.6,54.6-2c3.6-0.9,7.7-0.5,11.4,0.5
			c5.6,1.6,11.1,2.3,16.6,0c0.6-0.2,1.4-0.4,2-0.2c12.4,4.3,25.3-0.9,38,2.2C444.8,9.5,456,7.2,467,6.7c14.1-0.6,28.2-0.8,42.4-1.2
			c23.1-0.6,46.3,0.6,69.4-0.7c10-0.6,20-0.5,30-0.6c1.9,0,4,0.4,5.8,1.1c4.1,1.6,8.2,1.6,12.2,0.1c3.6-1.3,7.2-1.5,10.8-0.2
			c4.3,1.4,8.5,1.3,12.7-0.2c3.8-1.3,7.6-1.3,11.2,0.3c5.1,2.2,10.4,2.3,15.7,1.2c10.9-2.3,21.7-2.3,32.8-0.8c7.2,1,14.7,1,22,0.4
			c15.3-1.1,30.6-0.7,45.9-1.5c3-0.2,6.1,0.1,8.9,1.2c7.2,2.8,14.4,2.4,21.6,0.3c5.4-1.5,10.9-1.6,16.3-0.4c6.6,1.5,13.2,0.7,19.8,1
			c12.1,0.6,23.9,1.1,36.1-0.9c5.7-1,12.2,0.5,18.6-0.6c3-0.5,6,0.2,8.8,1c2.9,0.9,5.7,2,8.7,2.5c1.6,0.3,3.3,0.3,4.9,0.2
			c1.6-0.1,3.2-0.4,4.8-0.6c3.3-0.6,6.6-1.1,9.9-1.7c1.8-0.4,3.6-0.8,5.4-1.3c1.1-0.3,2.5-0.5,3.5-0.1c6.8,2.8,13.2,0.8,19.9-1.1
			c8-2.2,16.3-1.2,24.2,1.2c5.4,1.7,10.8,2.2,16.2,0.6c5.7-1.7,11.3-1.3,17.2-0.2c16.3,3,32.8,2.8,49.2-0.1
			c6.3-1.1,12.5-1.9,18.7,0.6c1.2,0.5,2.7,0.8,3.9,0.6c10.5-1.8,20.9,1.2,31.4,0.4c3.6-0.3,7.4-0.3,10.9-1.2
			c9.9-2.3,19.6-1.2,29.6-0.8c3.4,0.1,6.8,0.4,10.1,0.7c3.4,0.3,6.8,0.6,10.2,0.6c3.4,0.1,6.8-0.1,10.1-0.6c1.2-0.2,2.3-0.5,3.3-1
			C1200,5,1200,0,1200,0z"/>
	</g>
</g>
<g id="圖層_1" class="st116">
</g>
</svg>
