<?xml version="1.0" encoding="utf-8"?>
<!-- Generator: Adobe Illustrator 21.1.0, SVG Export Plug-In . SVG Version: 6.00 Build 0)  -->
<svg version="1.1" xmlns="http://www.w3.org/2000/svg" xmlns:xlink="http://www.w3.org/1999/xlink" x="0px" y="0px"
	 viewBox="0 0 1200 461" style="enable-background:new 0 0 1200 461;" xml:space="preserve">
<style type="text/css">
	.st0{display:none;}
	.st1{display:inline;}
	.st2{clip-path:url(#SVGID_2_);fill:#FFEFDE;}
	
		.st3{clip-path:url(#SVGID_2_);fill:none;stroke:#110D26;stroke-width:1.4755;stroke-linecap:round;stroke-linejoin:round;stroke-miterlimit:10;}
	.st4{clip-path:url(#SVGID_2_);fill:#A68AFF;}
	.st5{clip-path:url(#SVGID_2_);fill:#FF7E5F;}
	.st6{clip-path:url(#SVGID_2_);fill:#110D26;}
	.st7{clip-path:url(#SVGID_2_);}
	.st8{fill:#FF7E5F;}
	.st9{opacity:0.35;}
	.st10{fill:#FFFFFF;}
	.st11{fill:#FFC4AF;}
	.st12{fill:#DF947F;}
	.st13{opacity:0.5;fill:#FFFFFF;}
	.st14{fill:#263238;}
	.st15{clip-path:url(#SVGID_2_);fill:#FFFFFF;}
	.st16{clip-path:url(#SVGID_4_);fill:#FEECE9;}
	.st17{clip-path:url(#SVGID_4_);}
	.st18{fill:#110D26;}
	.st19{clip-path:url(#SVGID_4_);fill:#110D26;}
	.st20{clip-path:url(#SVGID_4_);fill:#8740E8;}
	.st21{clip-path:url(#SVGID_4_);fill:#FF7E5F;}
	.st22{clip-path:url(#SVGID_4_);fill:url(#SVGID_5_);}
	
		.st23{clip-path:url(#SVGID_4_);fill:none;stroke:#110D26;stroke-width:1.4755;stroke-linecap:round;stroke-linejoin:round;stroke-miterlimit:10;}
	
		.st24{clip-path:url(#SVGID_4_);fill:none;stroke:#110D26;stroke-width:1.0414;stroke-linecap:round;stroke-linejoin:round;stroke-miterlimit:10;}
	.st25{clip-path:url(#SVGID_4_);fill:#FFFFFF;}
	.st26{fill:#EBEBEB;}
	.st27{fill:#C7C7C7;}
	.st28{fill:url(#SVGID_6_);}
	.st29{fill:url(#SVGID_7_);}
	.st30{fill:url(#SVGID_8_);}
	.st31{fill:url(#SVGID_9_);}
	.st32{opacity:0.1;enable-background:new    ;}
	.st33{fill:url(#SVGID_10_);}
	.st34{fill:#A6A6A6;}
	.st35{fill:#DBDBDB;}
	.st36{fill:#455A64;}
	.st37{fill:url(#SVGID_11_);}
	.st38{fill:none;}
	.st39{fill:#FF99BA;}
	.st40{fill:#37474F;}
	.st41{opacity:0.2;}
	.st42{clip-path:url(#SVGID_13_);fill:#FFEFDE;}
	.st43{clip-path:url(#SVGID_13_);}
	.st44{opacity:0.6;}
	.st45{fill:#E0E0E0;}
	.st46{fill:#FAFAFA;}
	.st47{fill:#AA6550;}
	.st48{fill:url(#SVGID_14_);}
	.st49{opacity:0.3;}
	.st50{fill:#684B46;}
	.st51{fill:url(#SVGID_15_);}
	.st52{fill:url(#SVGID_16_);}
	.st53{fill:url(#SVGID_17_);}
	.st54{fill:url(#SVGID_18_);}
	.st55{fill:url(#SVGID_19_);}
	.st56{opacity:0.4;}
	.st57{clip-path:url(#SVGID_13_);fill:#8740E8;}
	.st58{clip-path:url(#SVGID_13_);fill:url(#SVGID_20_);}
	.st59{clip-path:url(#SVGID_13_);fill:#FFFFFF;}
	.st60{clip-path:url(#SVGID_13_);fill:#110D26;}
	
		.st61{clip-path:url(#SVGID_13_);fill:none;stroke:#110D26;stroke-width:1.4755;stroke-linecap:round;stroke-linejoin:round;stroke-miterlimit:10;}
	.st62{display:inline;fill:#FFEFDE;}
	.st63{display:inline;fill:#FEECE9;}
	.st64{fill:url(#SVGID_21_);}
	.st65{fill:url(#SVGID_22_);}
	.st66{fill:url(#SVGID_23_);}
	.st67{fill:#FF9BBC;}
	.st68{fill:url(#SVGID_24_);}
	.st69{opacity:0.2;enable-background:new    ;}
	.st70{fill:url(#SVGID_25_);}
	.st71{fill:url(#SVGID_26_);}
	.st72{fill:url(#SVGID_27_);}
	.st73{fill:url(#SVGID_28_);}
	.st74{fill:url(#SVGID_29_);}
	.st75{fill:none;stroke:#FFFFFF;stroke-linecap:round;stroke-linejoin:round;}
	.st76{fill:url(#SVGID_30_);}
	.st77{fill:url(#SVGID_31_);}
	.st78{fill:url(#SVGID_32_);}
	.st79{opacity:0.5;fill:#FFFFFF;enable-background:new    ;}
	.st80{fill:none;stroke:#263238;stroke-width:0.5;stroke-linecap:round;stroke-linejoin:round;}
	.st81{fill:url(#SVGID_33_);}
	.st82{opacity:0.6;fill:#FFFFFF;enable-background:new    ;}
	.st83{fill:url(#SVGID_34_);}
	.st84{fill:url(#SVGID_35_);}
	.st85{fill:url(#SVGID_36_);}
	.st86{fill:none;stroke:#263238;stroke-linecap:round;stroke-linejoin:round;}
	.st87{fill:url(#SVGID_37_);}
	.st88{opacity:0.2;fill:#FFFFFF;enable-background:new    ;}
	.st89{opacity:0.3;fill:#FFFFFF;enable-background:new    ;}
	.st90{fill:url(#SVGID_38_);}
	.st91{fill:url(#SVGID_39_);}
	.st92{fill:none;stroke:#263238;stroke-width:0.708;stroke-linecap:round;stroke-linejoin:round;}
	.st93{fill:#DE5753;}
	.st94{fill:#F5F5F5;}
	.st95{fill:url(#SVGID_40_);}
	.st96{fill:url(#SVGID_41_);}
	.st97{fill:url(#SVGID_42_);}
	.st98{fill:url(#SVGID_43_);}
	.st99{fill:url(#SVGID_44_);}
	.st100{fill:#F6957F;}
	.st101{fill:url(#SVGID_45_);}
	.st102{fill:url(#SVGID_46_);}
	.st103{fill:url(#SVGID_47_);}
	.st104{fill:url(#SVGID_48_);}
	.st105{fill:url(#SVGID_49_);}
	.st106{fill:url(#SVGID_50_);}
	.st107{fill:url(#SVGID_51_);}
	.st108{fill:#FFC5B0;}
	.st109{fill:url(#SVGID_52_);}
	.st110{fill:url(#SVGID_53_);}
	.st111{fill:url(#SVGID_54_);}
	.st112{display:inline;fill:#FF8B57;}
	.st113{display:inline;fill-rule:evenodd;clip-rule:evenodd;}
	.st114{display:inline;fill:#CCCCCC;}
	.st115{display:inline;fill:#FFDBD0;}
	.st116{fill:#FDFDFD;}
	.st117{fill:#E5E9EB;}
	.st118{fill:#F7F8F9;}
	.st119{fill:#201E22;}
	.st120{fill:#CEE8D6;}
	.st121{fill:#8C8488;}
	.st122{fill:#DCDFE4;}
	.st123{fill:#1E1D1D;}
	.st124{fill:#242328;}
	.st125{fill:#EEF1F1;}
	.st126{fill:#F8F9FA;}
	.st127{fill:#9CC0F8;}
	.st128{fill:#F5F6F7;}
	.st129{fill:#DFE1E4;}
	.st130{fill:#707173;}
	.st131{fill:#8B858A;}
	.st132{fill:#F6F7F8;}
	.st133{fill:#525155;}
	.st134{fill:#F0F0F0;stroke:#CCCCCC;stroke-miterlimit:10;}
	.st135{fill:#FFAF00;}
	.st136{fill:#FFFFFF;stroke:#FFFFFF;stroke-width:5;stroke-miterlimit:10;}
	.st137{fill:none;stroke:#FFFFFF;stroke-width:2;stroke-miterlimit:10;}
</style>
<g id="banner3" class="st0">
</g>
<g id="banner2">
	<g>
		<defs>
			<rect id="SVGID_3_" width="1200" height="461"/>
		</defs>
		<clipPath id="SVGID_2_">
			<use xlink:href="#SVGID_3_"  style="overflow:visible;"/>
		</clipPath>
		<path style="clip-path:url(#SVGID_2_);fill:#FEECE9;" d="M1184,230c-21.4-4.6-42.8-2.8-64.5-1.9c-20,0.8-39.5-1.4-56.7-12.5
			c-11.5-7.4-19.5-18.6-21.3-32.4c-2.1-16.4,3.5-33.6,9.9-48.5c8.2-19.2,20.9-36,28.9-55.2c4.1-9.9,6.8-20.5,6.7-31.3
			c-0.1-11.3-3.2-22.4-7.4-32.8c-2.1-5.3-4.6-10.4-7.3-15.4H895.2c-40.8,32.4-74.8,74.8-95.5,122.5c-11.7,27-19,56.2-19,85.7
			c0,46.9,18.7,93.3,57.3,121.1c33.8,24.5,75.4,32.4,106.7,61c17.2,15.7,30.2,36.5,29.7,60.4c-0.1,3.4-0.4,6.8-0.9,10.2H1200V234.7
			C1194.8,232.7,1189.5,231.2,1184,230z"/>
		<g class="st7">
			<circle class="st18" cx="1114.6" cy="111.1" r="14.2"/>
			<path class="st8" d="M1114.6,96.9c-0.3,0-0.6,0-0.9,0v28.2c0.3,0,0.6,0,0.9,0c7.8,0,14.2-6.3,14.2-14.2S1122.4,96.9,1114.6,96.9z
				"/>
		</g>
		<circle class="st6" cx="1110.2" cy="400.7" r="5.3"/>
		<circle class="st6" cx="896.9" cy="102.2" r="4.4"/>
		<polygon style="clip-path:url(#SVGID_2_);fill:#8740E8;" points="808.8,162.4 796.8,141.7 784.8,121 808.8,121 832.7,121 
			820.7,141.7 		"/>
		<polygon class="st5" points="687.5,97.5 702.2,89 716.9,80.5 716.9,97.5 716.9,114.5 702.2,106 		"/>
		<linearGradient id="SVGID_4_" gradientUnits="userSpaceOnUse" x1="659.2352" y1="148.4466" x2="690.0033" y2="148.4466">
			<stop  offset="0" style="stop-color:#FFDB00"/>
			<stop  offset="1" style="stop-color:#FFAE08"/>
		</linearGradient>
		<circle style="clip-path:url(#SVGID_2_);fill:url(#SVGID_4_);" cx="674.6" cy="148.4" r="15.4"/>
		<circle class="st3" cx="423.7" cy="428.8" r="7.1"/>
		<circle class="st3" cx="634.6" cy="96.1" r="7.6"/>
		
			<path style="clip-path:url(#SVGID_2_);fill:none;stroke:#110D26;stroke-width:1.0414;stroke-linecap:round;stroke-linejoin:round;stroke-miterlimit:10;" d="
			M161.8,465.3c21.8-6.5,40.4-22.2,62.8-26.6c18-3.5,37.5,1.1,52,12.3c13.9-12.3,31.8-22.9,50.1-26.2c14.8-2.6,30.5,0.2,43.5,7.9
			s23,20.1,27.8,34.3"/>
		<path class="st3" d="M1218.3,308c-20,12.4-37.3,29-50.5,48.4c-5.3,7.8-10.1,16.6-10,26.1c0.2,9.5,7,19.4,16.4,19.8
			c20.9,1,8.4-40.1-10.7-5.2c-4.3,7.9-5.8,16.9-8.2,25.6c-14.7,53.9-68.2,94.6-124.1,94.3"/>
		<polygon class="st15" points="1011.5,429.2 1012.6,432.4 1015.7,430.9 1014.2,434 1017.4,435.1 1014.2,436.3 1015.7,439.3 
			1012.6,437.9 1011.5,441.1 1010.4,437.9 1007.3,439.3 1008.7,436.3 1005.6,435.1 1008.7,434 1007.3,430.9 1010.4,432.4 		"/>
		<polygon class="st15" points="1061.4,45.4 1063.9,52.6 1070.8,49.3 1067.5,56.2 1074.7,58.8 1067.5,61.3 1070.8,68.2 1063.9,64.9 
			1061.4,72.1 1058.8,64.9 1051.9,68.2 1055.2,61.3 1048,58.8 1055.2,56.2 1051.9,49.3 1058.8,52.6 		"/>
		<g class="st7">
			<g id="freepik--character-2--inject-55">
				<path class="st11" d="M927.9,383.4c-2.2,0.7-65.2-1.4-67.6-3c-0.9-0.6-1.1-9.8-1.1-20.9v-0.3c0-2.3,5.2-40.7,5.2-40.7l44.1,1.3
					L900,360v0.7c0,0,23.8,11.6,26.2,13.6C928.5,376.3,930.1,382.7,927.9,383.4z"/>
				<path class="st26" d="M927.9,383.4c-2.2,0.7-65.2-1.4-67.6-3c-0.9-0.6-1.1-9.8-1.1-20.9v-0.4c0-0.6,0.4-4,1-8.5l41.4,1.6
					l-1.7,7.7v0.7c0,0,23.8,11.6,26.2,13.6S930.1,382.7,927.9,383.4z"/>
				<path class="st27" d="M928.4,383.7c-2.2,0.7-65.9-1.4-68.2-3.1c-0.9-0.6-1.1-9.9-1.1-21.1l41,1.2c0,0,24,11.7,26.4,13.8
					C928.9,376.5,930.6,383,928.4,383.7z"/>
				<path class="st14" d="M927.6,381.1c-10.7-0.6-53.7-2.1-64.3-1.9c-0.1,0-0.1,0.1,0,0.1c10.5,0.8,53.6,2,64.3,2
					C927.8,381.3,927.8,381.1,927.6,381.1z"/>
				<path class="st14" d="M922.5,372.1c-2.4-0.1-4.7,0.7-6.5,2.4c-1.5,1.5-2.5,3.5-2.6,5.6c0,0.1,0.1,0.1,0.1,0
					c0.9-4.3,4.5-7.5,8.9-7.9C922.5,372.2,922.5,372.1,922.5,372.1C922.5,372.1,922.5,372.1,922.5,372.1z"/>
				<path class="st14" d="M904.2,361.9c-4.3-0.2-9.3,1.1-12,4.5c-0.1,0.1,0.1,0.3,0.2,0.2c3.8-1.8,7.8-3.2,11.9-4.2
					c0.1,0,0.2-0.2,0.2-0.3C904.4,362,904.3,361.9,904.2,361.9z"/>
				<path class="st14" d="M907.4,363.3c-4.3-0.2-9.3,1.1-12,4.5c-0.1,0.1,0.1,0.3,0.2,0.2c3.8-1.8,7.8-3.3,11.9-4.3
					c0.1-0.1,0.2-0.2,0.1-0.4C907.5,363.4,907.5,363.3,907.4,363.3z"/>
				<path class="st14" d="M910.7,364.7c-4.3-0.2-9.3,1.2-12,4.5c-0.1,0.1,0.1,0.3,0.2,0.2c3.8-1.8,7.8-3.3,11.9-4.2
					c0.1-0.1,0.2-0.2,0.2-0.4C910.8,364.8,910.8,364.7,910.7,364.7z"/>
				<path class="st14" d="M913.9,366.1c-4.3-0.2-9.3,1.1-12,4.5c-0.1,0.1,0.1,0.3,0.2,0.2c3.8-1.8,7.8-3.2,11.9-4.2
					c0.1,0,0.2-0.2,0.2-0.3C914.1,366.2,914,366.1,913.9,366.1z"/>
				<path class="st14" d="M866.3,369.2c-4.8-0.2-5,7.3-0.2,7.4S871.1,369.3,866.3,369.2z"/>
				<path class="st14" d="M909.2,350.7c-2.2-1.9-4.9-0.2-6.3,1.6c-2.3,3.2-3.8,6.9-4.2,10.8c0,0.1,0,0.1,0.1,0.1
					c0,0.3,0.3,0.5,0.6,0.4c0.1,0,0.1,0,0.2-0.1c3.1-2,6.7-3.8,9.1-6.6C910,355.2,911.1,352.5,909.2,350.7z M903.6,359.6
					c-1.5,1-3.1,2-4.5,3c0.8-2.1,1.6-4.2,2.6-6.2c0.5-1,1-1.9,1.7-2.8c1-1.4,5.3-4.8,5.5-0.2C909.1,356,905.4,358.4,903.6,359.6
					L903.6,359.6z"/>
				<path class="st14" d="M888,364.3c3.7,0.7,7.5-0.2,11.2-0.7c0.3-0.1,0.5-0.3,0.4-0.6c0-0.1,0-0.1-0.1-0.2c0.1,0,0.1-0.1,0-0.2
					c0,0,0,0,0,0c-2.8-2.7-6.3-4.7-10.1-5.6c-2.2-0.5-5.4,0-5.9,2.8C883.1,362.6,885.8,363.9,888,364.3z M885.5,361.8
					c-2.8-3.8,2.7-3.9,4.4-3.4c1,0.3,2.1,0.6,3.1,1.1c2.1,0.9,4.1,2,6,3.1c-1.8,0.1-3.6,0.4-5.4,0.5
					C891.4,363.4,887,363.9,885.5,361.8L885.5,361.8z"/>
				<linearGradient id="SVGID_5_" gradientUnits="userSpaceOnUse" x1="790.9811" y1="287.716" x2="917.6925" y2="287.716">
					<stop  offset="0" style="stop-color:#FFDB00"/>
					<stop  offset="1" style="stop-color:#FFAE08"/>
				</linearGradient>
				<path style="fill:url(#SVGID_5_);" d="M908.4,359.2l-53.8-4.5c0,0,16.3-64.9,13.4-69.3c-1.3-1.9-50.6,7.2-69.4-13.1
					c-17.1-18.6,0-56,0-56h46.2c0,0-0.5,16.3,2.3,22.2c1.2,2.6,56.9-2.3,66.1,14.5C925.5,275.4,908.4,359.2,908.4,359.2z"/>
				<path class="st14" d="M861,344.3c5.9,0.3,11.9,0.5,17.8,1s11.9,1,17.8,1.7l5,0.6c0.8,0.1,1.6,0.2,2.4,0.3
					c0.8,0.1,1.6,0.2,2.4,0.4c0.1,0,0.1,0.1,0,0.1c-1.5,0.1-3,0-4.5-0.1l-4.3-0.2c-3-0.2-5.9-0.4-8.8-0.6
					c-5.9-0.4-11.8-1.1-17.7-1.7c-3.3-0.4-6.7-0.7-10-1.1C860.8,344.6,860.8,344.3,861,344.3z"/>
				<path class="st14" d="M803.8,225.7c0.2-1.6,0.3-3.1,0.4-4.7c0-0.1,0.1-0.1,0.1-0.1c0,0,0,0,0.1,0.1c0,11.8-4.1,23.8-0.9,35.6
					c1.4,5.1,4.5,9.7,8.8,12.7c4.6,3.1,9.8,5,15.3,5.7c6.2,0.9,12.5,0.7,18.8,0.7l19.5-0.1h4.8c1.5-0.1,3-0.1,4.5,0
					c1.1,0,2.1,0.8,2.3,1.9c0.2,1.4,0.2,2.8,0.1,4.2c-0.2,6.3-0.6,12.5-1.3,18.7c-1.4,12.4-3.8,24.7-7.2,36.7
					c-0.4,1.5-0.9,3-1.3,4.4c0,0.1-0.1,0.1-0.2,0.1c0,0-0.1-0.1-0.1-0.1c3.4-12.1,5.9-24.4,7.5-36.9c0.8-6.2,1.3-12.4,1.7-18.7
					c0.1-1.5,0.2-3.1,0.2-4.6c0-0.8,0.1-1.5,0.1-2.3c0.1-0.6,0-1.3-0.3-1.9c-0.5-0.6-1.2-0.9-1.9-0.8c-0.8,0-1.7,0-2.5,0h-4.8
					l-19.5,0.1c-6.2,0-12.5,0.2-18.7-0.5c-5.4-0.5-10.7-2.1-15.4-4.8c-4.4-2.5-7.9-6.5-9.9-11.2C799.1,248.9,802.6,237,803.8,225.7z
					"/>
				<path class="st11" d="M703.4,380.7c0.2-2.3,26.8-59.5,29.2-61c0.9-0.6,9.5,2.8,19.7,7.2l0.3,0.1c2.2,0.9,41,11.4,41,11.4
					l-17.2,37.4l-40.5-11.7l-0.6-0.3c0,0-19.9,17.3-22.8,18.8C709.7,383.9,703.1,383,703.4,380.7z"/>
				<path class="st26" d="M760,329.2l-17.7,36.7l-6.4-1.8l-0.6-0.3c0,0-19.9,17.3-22.8,18.8c-2.8,1.4-9.4,0.5-9.1-1.8
					s26.8-59.5,29.2-61c0.9-0.6,9.5,2.8,19.7,7.2l0.3,0.1C753.1,327.3,755.9,328,760,329.2z"/>
				<path class="st27" d="M703.1,381c0.2-2.3,26.9-60.2,29.2-61.7c0.9-0.6,9.6,2.8,19.9,7.2l-17,37.4c0,0-20.1,17.6-22.9,19
					C709.5,384.3,702.9,383.3,703.1,381z"/>
				<path class="st14" d="M705.8,381.2c4.7-9.6,22.7-48.7,26.6-58.5c0-0.1,0-0.1-0.1,0c-4.9,9.4-22.6,48.6-26.7,58.5
					C705.6,381.4,705.7,381.4,705.8,381.2z"/>
				<path class="st14" d="M716.1,380c1.1-2.2,1.2-4.7,0.3-6.9c-0.8-2-2.3-3.6-4.2-4.5c-0.1,0-0.1,0.1-0.1,0.1
					c3.6,2.5,5.2,7.1,3.8,11.2C716,380,716.1,380.1,716.1,380z"/>
				<path class="st14" d="M732.5,367c1.8-3.8,2.5-9,0.5-12.8c-0.1-0.2-0.3,0-0.3,0.1c0.2,4.2,0,8.4-0.7,12.6c0,0.1,0.1,0.3,0.2,0.3
					C732.4,367.2,732.5,367.1,732.5,367z"/>
				<path class="st14" d="M730,369.5c1.8-3.9,2.5-9,0.5-12.9c-0.1-0.2-0.3,0-0.3,0.1c0.2,4.2,0,8.4-0.7,12.6c-0.1,0.1,0,0.3,0.2,0.4
					C729.8,369.8,730,369.7,730,369.5z"/>
				<path class="st14" d="M727.5,372c1.8-3.8,2.5-9,0.5-12.9c-0.1-0.2-0.3,0-0.3,0.1c0.2,4.2,0,8.4-0.7,12.6c-0.1,0.1,0,0.3,0.2,0.4
					C727.2,372.2,727.4,372.1,727.5,372z"/>
				<path class="st14" d="M724.9,374.5c1.8-3.9,2.5-9,0.5-12.8c-0.1-0.2-0.3,0-0.3,0.1c0.2,4.2,0,8.4-0.7,12.6
					c0,0.1,0.1,0.3,0.2,0.3C724.8,374.6,724.9,374.5,724.9,374.5z"/>
				<path class="st14" d="M740.5,329.4c2-4.4-4.8-7.5-6.8-3.1C731.8,330.7,738.6,333.8,740.5,329.4z"/>
				<path class="st14" d="M741,376c2.5-1.2,2.1-4.4,0.9-6.5c-2-3.4-4.9-6.2-8.3-8.1c-0.1,0-0.1,0-0.2,0c0,0,0,0,0,0
					c-0.3-0.1-0.6,0.1-0.6,0.4c0,0.1,0,0.1,0,0.2c0.6,3.6,0.9,7.6,2.6,10.9C736.4,375.1,738.6,377.2,741,376z M734.9,367.4
					c-0.4-1.8-0.6-3.6-1.1-5.4c1.7,1.5,3.2,3.1,4.7,4.8c0.7,0.8,1.4,1.7,2,2.6c0.9,1.4,2.4,6.7-2,5.2
					C736.1,373.9,735.3,369.6,734.9,367.4L734.9,367.4z"/>
				<path class="st14" d="M736.6,351.2c-2.1,3.1-2.7,7.1-3.7,10.6c-0.1,0.4,0.3,0.6,0.6,0.6c0,0.1,0.1,0.1,0.1,0.1c0,0,0,0,0,0
					c3.6-1.6,6.7-4,9.1-7.2c1.3-1.9,2.2-5-0.3-6.5C740,347.5,737.8,349.4,736.6,351.2z M739.9,349.9c4.5-1.1,2.5,4,1.5,5.4
					c-0.7,0.9-1.4,1.7-2.2,2.4c-1.6,1.6-3.5,2.9-5.2,4.3c0.6-1.7,1.1-3.5,1.6-5.2C736.2,354.7,737.4,350.5,739.9,349.9z"/>
				<linearGradient id="SVGID_6_" gradientUnits="userSpaceOnUse" x1="742.2205" y1="297.1053" x2="862.0634" y2="297.1053">
					<stop  offset="0" style="stop-color:#FFDB00"/>
					<stop  offset="1" style="stop-color:#FFAE08"/>
				</linearGradient>
				<path class="st28" d="M844.6,216.3c0,0-0.7,22.4-4.1,33.4c0,0-3.7,1.9-4.8,2.6c0,0,27.8,66.7,26.3,92.3
					c-0.5,8.4-10,22.2-19.7,28.2c-17,10.6-100.1,1.3-100.1,1.3l12.1-50c0,0,52.5,2.9,53.9,0.1c1.7-3.6-8.8-31.6-17.1-54.4
					c-0.8-2.3-9.2-10.8-8.3-26.1c0.7-9.5,3.2-18.8,7.2-27.4L844.6,216.3z"/>
				<path class="st14" d="M835.8,244.5c0.1-1.6,0.2-3.2,0.4-4.8c0.3-3.6,0.7-7.2,1.3-10.8c0.1-0.3,0.5-0.2,0.4,0.1
					c-0.2,2.8-0.6,5.6-0.8,8.4s-0.6,5.6-0.6,8.4c0,0.8,0,2.3,1.1,2.5c1.4,0.3,2-1.5,2.4-2.5c0.8-2.5,1.4-5.1,1.7-7.7
					c0.5-2.9,0.7-5.9,1-8.9c0-0.1,0.1-0.1,0.1-0.1c0,0,0,0,0.1,0.1c0,5.9-0.1,12.1-2.3,17.6c-0.3,1.2-1.3,2.1-2.4,2.3h-0.1
					c0,0,0,0.1,0,0.1c0,0.2-0.1,0.3-0.1,0.5c0,0.2-0.1,0.3-0.1,0.4c0,0.1-0.1,0.6-0.2,0.8c0,0.1-0.1,0.2-0.2,0.2
					c-0.1,0-0.2-0.1-0.2-0.2c-0.1,0-0.1-0.1-0.1-0.2c0-0.6,0.2-1.1,0.4-1.7c-0.7-0.2-1.2-0.6-1.5-1.3
					C835.7,246.8,835.6,245.6,835.8,244.5z"/>
				<path class="st14" d="M763.9,329.8c11.5-0.2,20.8,0.8,32.3,0.8h13c1,0,2-0.1,3-0.3c0.9-0.2,1.7-0.6,2.3-1.4
					c0.8-1.1,0.3-2.6,0.1-3.8c-0.6-2.7-1.2-5.4-1.9-8c-2.9-10.8-6.7-21.4-10.2-32l-5.5-16.4c-0.5-1.3-0.9-2.7-1.5-4
					c-0.5-1.2-1.1-2.3-1.8-3.4c-1.3-2.1-2.3-4.4-3.1-6.8c-3.1-10.2-0.1-20.7,3.5-30.4c0.5-1.3,1-2.6,1.5-3.8c0,0,0-0.1,0.1-0.1
					s0.1,0,0.1,0.1c-3.3,10.1-7.2,20.7-5,31.5c0.5,2.5,1.4,5,2.6,7.3c0.6,1.2,1.3,2.3,2,3.5c0.6,1.2,1.1,2.4,1.6,3.7
					c1.9,5.4,3.7,10.8,5.5,16.3c3.6,10.8,7.4,21.5,10.5,32.5c0.7,2.7,1.4,5.5,2.1,8.2c0.5,2,1.5,4.8-0.3,6.5
					c-1.3,1.2-3.4,1.4-5.1,1.4c-2.9,0-5.7,0-8.6,0c-11.6,0-35.6-1-37.1-1.1C763.7,330,763.8,329.8,763.9,329.8
					C763.8,329.8,763.9,329.8,763.9,329.8z"/>
				<path class="st14" d="M751,371.9c1.1-5.8,2.2-11.7,3.5-17.5s2.7-11.6,4.2-17.4c0.4-1.6,0.9-3.2,1.3-4.9c0.2-0.8,0.4-1.5,0.6-2.3
					c0.2-0.8,0.4-1.6,0.7-2.3c0-0.1,0.1,0,0.1,0c-0.2,1.5-0.4,3-0.8,4.5c-0.3,1.4-0.6,2.8-0.8,4.2c-0.6,2.9-1.2,5.8-1.8,8.7
					c-1.3,5.8-2.7,11.5-4.2,17.3c-0.8,3.3-1.7,6.5-2.5,9.8C751.3,372.1,751,372,751,371.9z"/>
				<path class="st14" d="M862.2,336.3c-0.3-2.4-0.7-4.7-1.4-7c0-0.1-0.2-0.1-0.1,0c0.2,2.3,0.7,4.6,0.9,7c0.2,2.2,0.2,4.5,0.1,6.7
					c-0.1,2.1-0.5,4.1-1.1,6.1c-0.6,2-1.4,4-2.4,6c0,0.1,0.1,0.2,0.1,0.1c2.8-3.1,3.8-7.7,4.1-11.7
					C862.6,341.1,862.5,338.7,862.2,336.3z"/>
				<path class="st14" d="M846.3,235.9l-3.2,0.3h-0.4l-0.8,0.1l-4.7,0.4h-0.5h-0.2l-23.3,1.9l-6,0.5l-4.6,0.4l-0.7,0.1l-10.2,0.8
					l-1.4,0.1l-0.8,0.1l-6.6,0.5c1-8.6,3.4-16.9,7-24.7h54.8C844.8,216.2,844.5,228.8,846.3,235.9z"/>
				<path class="st14" d="M830.9,115c-14.2,9.5-20.5,29.3-10.5,49.5c9.1,18.4,31.8,27.4,44.6,22c13.5-5.8,16.8-21.2,10.1-30
					c-6.5-8.5-16.6-10.5-19.8-18.4c-1.5-3.8-0.5-10.6-2.5-16.2C850.6,115.6,840,108.9,830.9,115z"/>
				<path class="st14" d="M851.1,188.7c-6.9-1-13.5-3.8-19.1-8c-5.6-4.3-10.1-9.8-13.2-16.1c-3.2-6.3-4.7-13.4-4.3-20.4
					c0.5-7,2.9-13.8,7-19.5c-3.7,5.9-5.9,12.6-6.4,19.5c-0.2,3.4,0.1,6.9,0.9,10.3c0.8,3.4,2,6.6,3.5,9.7c1.5,3.1,3.4,6,5.5,8.7
					c4.3,5.4,9.9,9.7,16.2,12.6C844.4,186.9,847.7,188,851.1,188.7z"/>
				<path class="st14" d="M877.3,158.5c-1-1.9-2.2-3.7-3.7-5.2c-1.5-1.5-3.1-2.9-4.9-4.1c-1.8-1.2-3.6-2.4-5.4-3.7
					c-1.8-1.3-3.4-2.7-4.9-4.4c-0.7-0.8-1.4-1.7-1.9-2.7c-0.5-1-0.9-2-1.2-3.1c-0.4-2.1-0.7-4.3-0.9-6.5c-0.2-2.1-0.7-4.2-1.4-6.2
					c-0.8-2-1.9-3.9-3.3-5.5c1.6,1.5,2.8,3.3,3.7,5.3c0.8,2,1.4,4.1,1.7,6.3c0.3,2.2,0.5,4.3,1.1,6.3c0.2,1,0.6,2,1.1,2.9
					c0.5,0.9,1.2,1.8,1.9,2.5c2.7,3.2,6.5,5.6,9.9,8c1.8,1.2,3.4,2.7,4.9,4.3C875.3,154.6,876.5,156.4,877.3,158.5z"/>
				<path class="st11" d="M831.8,165.7c11.7,10.7,32.9,26,45.8,28.4c10.3,1.9,37.4-7.2,49.1-14.8c4.1-2.7-9-17.6-14.1-19
					c-3.1-0.9-30.1,12.3-34.7,11.7c-7-1-24.9-9.8-39.5-14.9C830.7,154.4,824.5,159.1,831.8,165.7z"/>
				<path class="st11" d="M903.7,163.5c0,0,4.3-6.1,6.8-8.4c2.5-2.3,14.8-7.4,16.1-4.8c1.6,3.4-4.9,7.7-8.4,9.4
					c0,0,3.8,7.8-0.3,11.9C913.8,175.8,903.7,163.5,903.7,163.5z"/>
				<path class="st11" d="M922.5,181.5c2.6-1.2,14.2-7.6,17-10.1c2.8-2.5,10.4-10.3,8.6-12.7c-1.8-2.3-4.1-0.2-4.1-0.2
					s2.7-3.8,0.7-6s-5.5,1.2-5.5,1.2s2.5-4.1,0.4-6.2c-2.1-2.1-5.2,2-5.2,2s2.4-3.6,0-4.6c-2.9-1.2-6.6,6.1-9.9,8.6
					c-0.8,0.6-16.1,10.6-16.1,10.6L922.5,181.5z"/>
				<path class="st14" d="M934.7,149.2c-2.7,5.3-4.9,7.1-9.9,10.1c-0.1,0,0,0.2,0.1,0.2c5.2-2.5,8.2-4.4,10.1-10.2
					C935.1,149,934.9,148.9,934.7,149.2z"/>
				<path class="st14" d="M939.4,153.3c-3.3,5.3-5.6,7.3-10.7,10.8c-0.1,0,0,0.2,0.1,0.1c5.3-3,8.2-5,10.8-10.8
					C939.8,153.2,939.6,153.1,939.4,153.3z"/>
				<path class="st14" d="M943.8,158.7c-3.6,4.9-6,7.2-11.4,10c-0.1,0-0.1,0.1-0.1,0.1c0,0.1,0.1,0.1,0.1,0.1l0,0
					c5-1.7,9.1-5.3,11.4-10.1C944.1,158.5,944,158.4,943.8,158.7z"/>
				<path class="st14" d="M926.6,151.4c-0.7,4.1-5.5,6.1-8.7,8c-0.2,0.1-0.2,0.3-0.2,0.4c0,0,0.1,0.1,0.1,0.1
					c1.4,3.4,2.3,8.5,0.2,11.7c0,0,0,0.1,0,0.1c0,0,0.1,0,0.1,0c2.7-3.1,2.2-8.3,0.5-11.8C922,158,926.7,155.9,926.6,151.4
					C926.7,151.3,926.6,151.3,926.6,151.4z"/>
				<linearGradient id="SVGID_7_" gradientUnits="userSpaceOnUse" x1="827.5562" y1="169.8331" x2="865.1811" y2="169.8331">
					<stop  offset="0" style="stop-color:#FFDB00"/>
					<stop  offset="1" style="stop-color:#FFAE08"/>
				</linearGradient>
				<path class="st29" d="M865.2,165.1l-12.9,19.2c0,0-14-10.8-20.4-17.4s-6.8-14.1,7-11C850.5,158.6,865.2,165.1,865.2,165.1z"/>
				<path class="st14" d="M860.1,163.7c-1,1.3-2,2.6-2.8,4c-0.9,1.3-1.8,2.7-2.7,4.1c-1.8,2.8-3.5,5.5-5.2,8.4
					c0,0.1,0.1,0.2,0.1,0.1c2-2.7,3.8-5.4,5.6-8.2c0.9-1.4,1.8-2.8,2.6-4.1C858.7,166.6,859.5,165.2,860.1,163.7
					C860.3,163.7,860.2,163.6,860.1,163.7z"/>
				<linearGradient id="SVGID_8_" gradientUnits="userSpaceOnUse" x1="784.4545" y1="194.1326" x2="855.4456" y2="194.1326">
					<stop  offset="0" style="stop-color:#FFDB00"/>
					<stop  offset="1" style="stop-color:#FFAE08"/>
				</linearGradient>
				<path class="st30" d="M849.9,207.3l-0.6,26.5c0,0-52.1-1.9-64.8-5c0,0,20.5-57.7,36.9-70.4c8.2-6.3,16.2-4.4,20.5,1.7
					c1.1,1.5,13.2,24.8,13.5,33C855.7,200.4,849.9,207.3,849.9,207.3z"/>
				<polygon class="st32" points="827.7,182.6 839.5,181.6 840.5,190.8 835.7,194.7 828.6,192.3 				"/>
				<path class="st11" d="M829.3,155.9c0.1,1.1,6.2,11.2,10.9,11.2c1.1,0,0.5-10.8,0.5-10.8l0.2-0.6l3-8.4l-9.4-7.7l-1.4-1.1
					c0,0-0.7,2.4-1.5,5.3c0,0.1-0.1,0.3-0.1,0.4c0,0.2-0.1,0.3-0.1,0.5c-0.1,0.4-0.2,0.9-0.4,1.3c-0.1,0.5-0.2,0.7-0.3,1.1l-0.3,1.1
					C830,150.7,829.6,153.2,829.3,155.9z"/>
				<path class="st14" d="M831.8,143.8c1.2,5.1,4.5,9.5,9.2,11.9l3-8.4l-9.4-7.7l-1.4-1.1C833.2,138.4,832.6,140.8,831.8,143.8z"/>
				<path class="st11" d="M857.8,133.7c2.2,15.5-6.8,18.6-10.2,19c-3,0.4-13.4,1.5-17.2-13.7c-3.8-15.2,2.7-21.1,9.6-22.5
					C846.9,115.3,855.7,118.2,857.8,133.7z"/>
				<path class="st14" d="M854.4,130.5c-0.4,0-0.7,0-1.1-0.1c-0.4,0-0.8-0.1-1.1-0.3c-0.2-0.2-0.2-0.4-0.1-0.7
					c0.3-0.4,0.8-0.6,1.3-0.5c0.5,0,1,0.2,1.4,0.5c0.2,0.2,0.2,0.6,0,0.8C854.7,130.4,854.5,130.5,854.4,130.5z"/>
				<path class="st14" d="M844.2,132c0.3-0.1,0.7-0.2,1-0.4c0.4-0.1,0.7-0.3,1-0.6c0.1-0.2,0.1-0.5-0.1-0.7
					c-0.4-0.3-0.9-0.3-1.4-0.1c-0.5,0.1-0.9,0.5-1.2,0.9c-0.2,0.3-0.1,0.6,0.2,0.8C843.9,132,844,132,844.2,132z"/>
				<path class="st14" d="M847.1,135.6c0,0-0.1,0.1-0.1,0.1c0.2,1.1,0.3,2.3-0.6,2.8c0,0,0,0.1,0,0.1
					C847.5,138.2,847.4,136.5,847.1,135.6z"/>
				<path class="st14" d="M846,134.6c-1.7,0.2-1.3,3.6,0.3,3.4C847.9,137.9,847.4,134.5,846,134.6z"/>
				<path class="st14" d="M845.3,134.9c-0.3,0.2-0.5,0.6-0.9,0.7c-0.4,0.1-0.8-0.2-1.1-0.5l0,0c0.1,0.7,0.4,1.3,1.1,1.3
					s1.1-0.6,1.1-1.3C845.5,135,845.4,134.8,845.3,134.9z"/>
				<path class="st14" d="M852.9,134.6C852.9,134.6,853,134.6,852.9,134.6c0.2,1.2,0.5,2.3,1.5,2.6v0.1
					C853.1,137.2,852.8,135.6,852.9,134.6z"/>
				<path class="st14" d="M853.7,133.4c1.7-0.3,2.2,3.1,0.7,3.4C852.8,137.1,852.3,133.7,853.7,133.4z"/>
				<path class="st14" d="M854.4,133.5c0.3,0.1,0.6,0.4,0.9,0.4s0.6-0.4,0.8-0.8c0,0,0,0,0.1,0c0.1,0.7,0,1.4-0.6,1.6
					s-1.1-0.3-1.3-0.9C854.2,133.7,854.3,133.5,854.4,133.5z"/>
				<path class="st14" d="M848.2,144.1c0.3,0.2,0.6,0.5,0.9,0.5c0.4,0,0.7-0.2,1.1-0.4c0,0,0.1,0,0.1,0.1c-0.3,0.5-0.8,0.7-1.3,0.7
					c-0.5-0.1-0.8-0.4-0.9-0.9C848.1,144.1,848.1,144,848.2,144.1z"/>
				<path class="st14" d="M852.1,139.6c0.2,0.8,0.4,1.5,0.5,2.3c0,0.1-0.2,0.1-0.4,0.2l0,0c-1.3,0.4-2.7,0.1-3.6-0.8
					c-0.1-0.1,0-0.2,0.1-0.1c1,0.5,2.2,0.7,3.4,0.5c0-0.2-0.8-2.6-0.7-2.6c0.6,0,1.2,0,1.7,0.2c-0.8-3.2-2.2-6.3-2.9-9.6
					c0-0.1,0-0.1,0.1-0.1c0,0,0.1,0,0.1,0c1.5,3.3,2.7,6.7,3.6,10.2C854,140.1,852.4,139.7,852.1,139.6z"/>
				<path class="st14" d="M831.6,140.3c1.7-0.5,5.2-6.1,3.7-14.4c0,0,0.9,7.5,0.5,8.8s2-3.2,0.8-9.9c2.4,1.1,5,1.8,7.6,2.2
					c3.3,0.2,5.3-0.2,5.4-0.4c0.2-0.3-4.8-0.8-6.3-2c0,0,9.2,2.2,13.1,1.7c0.5-0.1-0.9-9.4-7.6-12.1c-6.8-2.7-15.4,3.4-17.5,6.4
					c0,0-2.9,1.1-5.3,6.1S829.8,140.8,831.6,140.3z"/>
				<path class="st11" d="M834.3,139.1c0,0-3.5-4.9-5.7-3.6c-2.2,1.2,0.4,8.3,3,9.2c1.3,0.6,2.9,0,3.5-1.3c0,0,0-0.1,0-0.1
					L834.3,139.1z"/>
				<path class="st14" d="M829.5,137.5C829.5,137.5,829.4,137.5,829.5,137.5c1.7,0.9,3,2.4,3.5,4.2c-0.4-0.7-1.3-0.9-2-0.5
					c0,0-0.1,0.1-0.1,0.1c0,0,0,0.1,0.1,0.1c0.7-0.2,1.4,0,1.8,0.6c0.3,0.4,0.6,0.9,0.9,1.4c0.1,0.2,0.4,0.1,0.3-0.1l0,0
					C833.8,141,832,137.7,829.5,137.5z"/>
				<path class="st11" d="M816.1,168c-6.5,14.4-17.6,44.8-14,55.9c4.8,14.6,27,31.9,36.7,32.7c3.4,0.3,7.5-31,4-29.9
					c-2.4,0.7-15.1-6.6-16.5-9c-1.5-2.4,1.2-32.7,2.2-46C829.8,154.9,821.6,155.9,816.1,168z"/>
				<linearGradient id="SVGID_9_" gradientUnits="userSpaceOnUse" x1="805.7437" y1="175.7005" x2="829.622" y2="175.7005">
					<stop  offset="0" style="stop-color:#FFDB00"/>
					<stop  offset="1" style="stop-color:#FFAE08"/>
				</linearGradient>
				<path class="st31" d="M805.7,190.6l23,3.2c0,0,1.4-17.6,0.8-26.8c-0.6-9.2-6-14.5-12.9-2.2C810.7,175.3,805.7,190.6,805.7,190.6
					z"/>
				<path class="st14" d="M827.8,189.1c-1.6-0.4-3.2-0.7-4.8-0.9c-1.6-0.3-3.2-0.5-4.8-0.8c-3.2-0.5-6.5-0.9-9.8-1.2
					c-0.1,0-0.2,0.2,0,0.2c3.2,0.7,6.5,1.2,9.8,1.7c1.6,0.2,3.2,0.5,4.9,0.7c1.6,0.3,3.2,0.4,4.8,0.5
					C827.8,189.2,827.8,189.1,827.8,189.1z"/>
				<path class="st14" d="M830.3,177c-0.2,1.1-0.4,2.2-0.5,3.2c0.1-2.6,0-5.2-0.2-7.7l0,0c-0.3,3.6-0.4,7.1-0.5,10.7
					s-0.4,7-0.5,10.6c-0.1,0-1.5-0.2-1.7-0.2c0,0-0.1,0-0.1,0.1s0,0.1,0.1,0.1c0.1,0,1.9,0.3,1.9,0.3c0-0.1,0.7-7.2,0.9-10.8
					c0-0.5,0-0.9,0-1.4c0.3-1.6,0.6-3.2,0.7-4.9C830.4,177,830.4,177,830.3,177C830.3,177,830.3,177,830.3,177z"/>
				<path class="st14" d="M811.7,174.4c0-0.1-0.1-0.1-0.1,0c-0.5,1.2-1.1,2.4-1.5,3.6c0-0.1,0-0.2,0-0.3c0.1-0.6,0.3-1.2,0.4-1.8
					c0-0.1-0.1-0.1-0.1,0c-0.2,0.6-0.4,1.2-0.5,1.8c-0.1,0.4-0.1,0.8-0.2,1.2c-0.4,1.1-0.9,2.2-1.3,3.3c-1,2.7-2.8,8.3-2.7,8.3
					c0,0.1,1.6,0.2,1.6,0.2c0,0,0-0.1,0-0.1c0,0-1.2-0.3-1.3-0.3c1.1-2.6,1.9-5.2,2.8-7.9C809.7,180,810.7,177.2,811.7,174.4z"/>
				<path class="st11" d="M838.1,228.2c0,0,10.7-3.4,17.7-5.3c3.9-1.1,10.9-2.3,14.1-1.7c4.9,0.8,24.7,7.3,23.2,12.2
					c-1.3,4.4-17.7-3.4-17.7-3.4s17.2,6.4,14.6,11.4c-2.6,5-19.9-6.2-19.9-6.2s17.5,6.9,14,11.7c-2.6,3.6-18.9-5.7-18.9-5.7
					s15.1,6.1,12.5,9.9c-2.8,4.2-18.3-3.5-18.3-3.5c-8.1,8.5-15.4,9.3-20.7,9.2C837.6,256.6,838.1,228.2,838.1,228.2z"/>
				<path class="st14" d="M869.8,227.4c2,0.7,4.1,1.4,6.1,2.2c2,0.8,3.9,1.8,5.8,2.8c2.5,1.3,4.8,2.9,7,4.7c-4-3-11.1-6.2-13-7
					C873.6,229.3,871.7,228.3,869.8,227.4C869.6,227.4,869.7,227.4,869.8,227.4z"/>
				<path class="st14" d="M866.5,234.5c2.6,1,5.2,1.8,7.7,2.9c2.5,1.1,4.8,2.3,7.3,3.6c0.2,0.1,0.1,0.2-0.1,0.1
					c-2.5-1.2-4.9-2-7.4-3.2S869,235.5,866.5,234.5C866.5,234.5,866.5,234.4,866.5,234.5z"/>
				<path class="st14" d="M862.7,240c4,1.4,7.8,3.2,11.4,5.4c0.2,0.1,0,0.2-0.2,0.1C870.2,243.6,867.2,242.1,862.7,240
					C862.6,240.2,862.6,240,862.7,240z"/>
			</g>
			<g id="freepik--character-3--inject-55">
				<path class="st14" d="M976.6,395.9c-33.7,0-61.1-34.2-61.1-76.2s27.4-76.2,61.1-76.2s61.1,34.2,61.1,76.2
					S1010.3,395.9,976.6,395.9z M976.6,249.6c-30.3,0-55,31.4-55,70.1s24.6,70.1,55,70.1c30.3,0,55-31.4,55-70.1
					S1006.9,249.6,976.6,249.6z"/>
				<path class="st27" d="M981.5,387.2c-29.8,0-54-30.3-54-67.6s24.2-67.6,54-67.6s54,30.3,54,67.6S1011.3,387.2,981.5,387.2z
					 M981.5,256.5c-27.4,0-49.7,28.4-49.7,63.2s22.3,63.2,49.7,63.2s49.7-28.4,49.7-63.1S1008.9,256.5,981.5,256.5z"/>
				<rect x="892" y="229.1" class="st34" width="90.2" height="34.8"/>
				<path class="st27" d="M967.6,347.7H892v-4.4h75.6c6.8,0,12.4-5.6,12.4-12.4V162c0-9.3,7.5-16.8,16.8-16.8h10.2v4.4h-10.2
					c-6.9,0-12.4,5.6-12.4,12.4v169C984.3,340.2,976.8,347.7,967.6,347.7z"/>
				<path class="st27" d="M894.1,371.3h-4.4V227.3c0-8.3,6.8-15,15.1-15.1h77.3v4.3h-77.2c-5.9,0-10.8,4.8-10.8,10.8L894.1,371.3z"
					/>
				<ellipse class="st27" cx="979.4" cy="319.7" rx="8.8" ry="11"/>
				<path class="st35" d="M990.9,319.7c0,6.1-3.9,11-8.8,11s-8.8-4.9-8.8-11s3.9-11.1,8.8-11.1S990.9,313.6,990.9,319.7z"/>
				<rect x="982.2" y="317.5" class="st27" width="79.3" height="4.4"/>
				<ellipse class="st27" cx="890.3" cy="383.6" rx="11.4" ry="14.4"/>
				<ellipse class="st35" cx="894" cy="383.6" rx="11.4" ry="14.4"/>
				<rect x="993.4" y="142.9" class="st14" width="27" height="8.7"/>
				<rect x="984.4" y="162.9" class="st36" width="77.1" height="83.6"/>
				<rect x="872.2" y="376" class="st14" width="101.3" height="13.1"/>
				<path class="st27" d="M931.8,343.8c0,0,0,8.5,0,8.5c0,7.9-0.1,14.9-0.5,18.5c0,0,0,0,0,0.1c-0.1,0.8-0.3,1.7-0.6,2.5v0.1
					c-2.4,1.6-65.8,3.8-68,3.1c-2.2-0.7-0.5-7.1,1.9-9.1c2.4-2,26.3-13.7,26.3-13.7l-0.1-8.7L931.8,343.8z"/>
				<path class="st36" d="M862.7,376.5c2.2,0.7,65.7-1.5,68-3.1c0.9-0.6,1.1-9.9,1.1-21.1V352l-40.9,0.9v0.7
					c0,0-23.9,11.7-26.3,13.7C862.1,369.4,860.4,375.9,862.7,376.5z"/>
				<path class="st14" d="M863.3,374.1c10.7-0.6,53.8-2.2,64.4-2c0.1,0,0.1,0.1,0,0.1c-10.6,0.9-53.8,2-64.4,2.1
					C863.1,374.2,863.1,374.1,863.3,374.1z"/>
				<path class="st14" d="M887.4,353.9c4.2-0.9,9.4-0.5,12.7,2.4c0.1,0.1,0,0.3-0.2,0.3c-4.1-1.2-8.2-1.9-12.5-2.2
					c-0.1,0-0.3-0.1-0.3-0.3C887.2,354,887.3,353.9,887.4,353.9z"/>
				<path class="st14" d="M884.5,355.8c4.2-0.9,9.4-0.5,12.7,2.4c0.1,0.1,0,0.3-0.2,0.3c-4.1-1.2-8.2-1.9-12.5-2.2
					c-0.1,0-0.3-0.1-0.3-0.2C884.2,356,884.3,355.8,884.5,355.8z"/>
				<path class="st14" d="M881.5,357.8c4.2-0.9,9.3-0.5,12.7,2.4c0.1,0.1,0,0.3-0.2,0.3c-4.1-1.2-8.2-1.9-12.5-2.2
					c-0.1,0-0.3-0.1-0.3-0.3C881.2,357.9,881.3,357.8,881.5,357.8z"/>
				<path class="st14" d="M1024.5,189h-24.4l-6.7,8.8c0,0-70.6,11.6-85.6,31c-17.2,22.2-21.9,124-21.9,124h49.5
					c0,0,5.9-91.7,11-98.4c5.1-6.6,74.9-7.9,88.4-17.9c13.5-10.1,3.1-47.5,3.1-47.5L1024.5,189z"/>
				<path class="st36" d="M933.3,343.8c-1.5-0.2-2.9-0.3-4.4-0.3c-1.4,0-2.9-0.1-4.3-0.1c-3-0.1-5.9-0.1-8.9-0.1
					c-5.9,0-11.9-0.1-17.8,0c-1.7,0-3.3,0-5,0.1s-3.4,0.1-5,0.3c-0.1,0-0.1,0.1,0,0.1c2.9,0.3,5.8,0.4,8.7,0.4
					c3,0.1,5.9,0.1,8.9,0.2c5.9,0.1,11.9,0.1,17.8,0.1c1.7,0,3.3,0,5-0.1c1.7,0,3.3-0.1,5-0.2C933.4,344.1,933.5,343.8,933.3,343.8z
					"/>
				<path class="st36" d="M1031,230.1c-10.2,4.2-21.1,6.7-32,8.5s-22,3-33,4.5c-5.6,0.6-11.1,1.5-16.5,2.9c-2.4,0.6-4.7,1.6-6.7,3
					c-1.8,1.7-3,3.9-3.4,6.3c-1.3,5.7-2.2,11.5-3.2,17.2c-1,5.7-1.9,11.7-2.8,17.6c-1.8,11.8-4,33.4-5.5,45.3
					c-0.2,1.4-0.3,2.9-0.5,4.3c0,0.1,0.2,0.2,0.2,0c1.7-11.7,4-33.1,5.7-44.8s3.6-23.3,5.8-34.9c0.5-2.6,0.8-5.4,1.9-7.8
					c1.2-2.2,3.2-3.9,5.6-4.7c5.2-2,10.8-2.7,16.3-3.5c10.9-1.5,21.8-2.7,32.6-4.5c10.8-1.7,21.4-4.3,31.7-8
					C1028.5,231.2,1029.8,230.7,1031,230.1C1031.1,230.2,1031.1,230.1,1031,230.1z"/>
				<path class="st27" d="M969,346v8.5c0,7.9-0.1,14.9-0.5,18.5l0,0c-0.1,0.8-0.3,1.7-0.6,2.5c0,0,0,0,0,0.1
					c-2.4,1.6-65.8,3.8-68,3.1c-2.2-0.7-0.5-7.1,1.9-9.2c2.4-2,26.3-13.7,26.3-13.7l-0.1-8.6L969,346z"/>
				<path class="st36" d="M899.9,378.7c2.2,0.7,65.7-1.5,68-3.1c0.9-0.6,1.1-9.9,1.1-21.1c0-0.1,0-0.2,0-0.3l-40.9,0.9v0.7
					c0,0-23.9,11.7-26.3,13.7C899.4,371.6,897.7,378,899.9,378.7z"/>
				<path class="st14" d="M900.5,376.2c10.7-0.6,53.8-2.2,64.4-2c0.1,0,0.1,0.1,0,0.1c-10.6,0.9-53.8,2-64.4,2.1
					C900.3,376.4,900.3,376.2,900.5,376.2z"/>
				<path class="st14" d="M924.7,356c4.2-0.9,9.4-0.5,12.7,2.4c0.1,0.1,0,0.3-0.2,0.3c-4.1-1.2-8.2-1.9-12.5-2.2
					c-0.1,0-0.3-0.1-0.3-0.2C924.4,356.2,924.5,356,924.7,356z"/>
				<path class="st14" d="M921.7,358c4.2-0.9,9.3-0.5,12.7,2.4c0.1,0.1,0,0.3-0.2,0.3c-4.1-1.2-8.2-1.9-12.5-2.2
					c-0.1,0-0.3-0.1-0.3-0.3C921.5,358.1,921.6,358,921.7,358z"/>
				<path class="st14" d="M918.7,359.9c4.2-0.9,9.4-0.5,12.7,2.4c0.1,0.1,0,0.3-0.2,0.3c-4.1-1.2-8.2-1.9-12.5-2.2
					c-0.1,0-0.3-0.1-0.3-0.3C918.5,360,918.6,359.9,918.7,359.9z"/>
				<path class="st14" d="M923.2,355h50.3c0,0-5.7-91.4,3.1-97.9c11.2-8.3,45.9-7,65.6-20.6c16-11.1,4.8-47.4,4.8-47.4h-44.5
					c0,0-5.6,6.8-6.6,10.8c0,0-50.2,14.7-63,30.9C915.7,252.5,923.2,355,923.2,355z"/>
				<path class="st36" d="M994,200.9c-11,3-21.9,6.7-32.4,11.1c-5.2,2.2-10.2,4.7-15.1,7.7c-4.7,2.9-9.5,6.1-13.1,10.4
					c-3.2,4.2-5.5,9-6.8,14.1c-1.4,5.6-2.4,11.2-3,16.9c-1.5,12.4-2.3,24.9-2.4,37.4c-0.1,6.3,0,12.5,0.1,18.8s1.1,32.7,1.2,34.2
					c0,0.1,0.1,0.1,0.1,0c0.1-12.4-0.4-35.4-0.4-47.8c0-12.4,0.5-24.7,1.7-37.1c0.6-5.9,1.4-11.8,2.5-17.7
					c0.9-5.2,2.7-10.3,5.3-14.9c2.9-4.8,7.2-8.3,11.8-11.3c4.7-3.1,9.6-5.8,14.7-8.2c10.2-4.7,20.8-8.6,31.6-11.9
					c1.3-0.4,2.7-0.9,4-1.3c0.1,0,0.1-0.1,0.1-0.2C994.2,200.9,994.1,200.9,994,200.9z"/>
				<path class="st14" d="M1001,200.9c-0.7-0.2-1.4-0.4-2.1-0.6c-0.7-0.1-1.4-0.2-2.2-0.3c-1.4-0.2-2.8-0.3-4.2-0.5
					c-2.8-0.3-5.7-0.3-8.6-0.5c-0.1,0-0.1,0.1,0,0.1c2.9,0.2,5.7,0.7,8.6,1.1c1.4,0.2,2.8,0.4,4.1,0.6c0.7,0.1,1.4,0.2,2.2,0.3
					s1.4,0.1,2,0.1C1001.2,201.5,1001.3,201,1001,200.9z"/>
				<path class="st14" d="M1005,189.7c-1,1.4-1.8,2.8-2.8,4.2l-1.4,2.1c-0.4,0.6-0.8,1.2-1.3,1.8c-0.8,1-2.7,1.6-3.2-0.1
					c-0.1-0.7,0-1.4,0.3-2c0.3-0.7,0.6-1.4,1-2c0.8-1.6,1.7-3,2.6-4.5c0-0.1-0.1-0.2-0.1-0.1c-1.2,1.3-2.3,2.8-3.1,4.3
					c-0.8,1.3-1.9,3-1.5,4.6c0.3,1.2,1.5,2,2.7,1.7c0.2,0,0.4-0.1,0.6-0.2c1.5-0.7,2.2-2.5,3-3.8c1.1-1.9,2.3-3.8,3.4-5.8
					c0-0.1,0-0.1,0-0.2S1005.1,189.7,1005,189.7z"/>
				<path class="st14" d="M1039.2,211.4c-1-0.3-2.1-0.3-3.1-0.5c-1-0.2-2.1-0.4-3.1-0.6c-2-0.5-3.9-1.1-5.7-1.9
					c-1.6-0.6-3.1-1.6-4.4-2.8c-1.3-1.4-2.1-3.1-2.4-5c-0.2-1.1-0.4-2.2-0.5-3.2c-0.2-1.1-0.1-2.2,0.2-3.3l0,0l0.1-0.2
					c0-0.1-0.1-0.1-0.2,0c-0.5,0.8-0.8,1.7-0.8,2.7c0,1.1,0,2.1,0.1,3.2c0.1,2.1,0.6,4.1,1.7,5.8c2.3,3.4,6.6,4.8,10.5,5.7
					c1.2,0.3,2.5,0.5,3.8,0.6c0.6,0.1,1.3,0.1,1.9,0.1c0.6,0.1,1.3,0.1,1.9,0C1039.4,211.8,1039.4,211.5,1039.2,211.4z"/>
				<path class="st36" d="M1044.7,197.2c-0.4-1.6-0.7-3.3-1.1-4.9c0-0.1-0.1,0-0.1,0c2.4,11.9,4.9,26.1-2.8,36.6
					c-3.6,4.8-8.9,7.3-14.4,8.9c-6.1,1.8-12.3,3.1-18.5,4.5c-6.2,1.4-12.6,3-18.7,5c-5.3,1.7-11,3.6-15.4,7.3
					c-2.1,1.7-3.7,3.9-4.8,6.3c-1.1,2.6-1.7,5.4-1.9,8.2c-0.3,3.1-0.4,6.2-0.6,9.3c-0.2,3.5-0.3,7.1-0.4,10.6
					c-0.4,14.1-0.3,28.1,0.2,42.2c0.1,1.7,0.4,9.5,0.5,11.2c0,0.1,0.1,0.2,0.3,0.2c0.1,0,0.2-0.1,0.2-0.2
					c-0.5-14.1-0.9-34.3-0.7-48.4c0.1-7,0.3-14,0.7-20.9c0.3-5.9,1.1-12.2,5.2-16.7c4-4.3,9.8-6.3,15.1-8.1c6.1-2,12.4-3.8,18.7-5.2
					c6.3-1.5,12.6-2.8,18.8-4.5c5.4-1.4,10.8-3.4,14.7-7.6C1048,222.1,1047,208.5,1044.7,197.2z"/>
				<path class="st36" d="M970,345.5c-1.5-0.1-2.9-0.2-4.4-0.2h-4.3c-3,0-5.9,0-8.9,0.1c-5.9,0.1-11.9,0.2-17.8,0.4
					c-1.7,0.1-3.3,0.1-5,0.2s-3.3,0.1-5,0.4c-0.1,0-0.1,0.1,0,0.1c2.9,0.2,5.8,0.3,8.7,0.2c3,0,5.9,0,8.9,0
					c5.9-0.1,11.9-0.2,17.8-0.3c1.7,0,3.3-0.1,5-0.2c1.7,0,3.3-0.1,5-0.3C970.1,345.7,970.2,345.5,970,345.5z"/>
				<path class="st11" d="M1001.6,132.2c-4.3,20.5-13,42.1-15.7,46.5c-7.2,11.7-31.2,24.9-38.7,27.1c-3.2,0.9-13.3-19.6-11.6-22.8
					c1.8-3.2,31.7-18.1,33-19.9c0.9-1.2,14.3-19.1,21.8-30.4C1000,118,1002.7,126.8,1001.6,132.2z"/>
				<path class="st11" d="M949.9,204.8c-2.8,2-16.7,10-21,11.3c-4.3,1.3-17,4.2-18.4,1.1c-1.4-3.2,2.3-4.3,2.3-4.3s-5.6,0.4-6.6-3
					c-1.1-3.3,4.7-5,4.7-5s-5.7,0-6.6-3.4s5.2-4.1,5.2-4.1s-5.2,0.2-4.8-2.9c0.6-3.7,10.3-3.1,15-4.9c1.1-0.4,20.8-9.9,20.8-9.9
					L949.9,204.8z"/>
				<path class="st14" d="M909,197.5c7.2,0.5,10.4-0.5,16.6-3.9c0.1-0.1,0.2,0.1,0.1,0.2c-5.8,3.8-9.6,5.7-16.7,4.1
					C908.6,197.7,908.7,197.5,909,197.5z"/>
				<path class="st14" d="M910.3,204.9c7.5-0.2,11-1.2,17.7-4.3c0.1,0,0.2,0.1,0.1,0.2c-6.4,3.5-10.3,5.3-17.7,4.5
					C910,205.2,909.9,204.9,910.3,204.9z"/>
				<path class="st14" d="M913.1,212.7c7.2-0.7,11.1-1.7,17.3-5.5c0.1,0,0.1,0,0.2,0c0,0.1,0,0.1,0,0.2l0,0
					c-5.9,4.5-10.8,5.8-17.4,5.5C912.7,212.9,912.7,212.7,913.1,212.7z"/>
				<path class="st11" d="M944.5,177.5c0,0-8.7-2.3-12.7-2.4c-4-0.1-19.3,4.8-18.4,8.2c1.2,4.3,10.5,3.2,15.1,2c0,0,2.7,10,9.5,10.7
					C944.9,196.6,944.5,177.5,944.5,177.5z"/>
				<path class="st14" d="M914.1,184.4c3.9,3.2,9.7,1.3,14.2,0.5c0.2-0.1,0.4,0.1,0.5,0.3c0,0.1,0,0.1,0,0.2c1.4,4.1,4.6,9.5,9,10.8
					c0.1,0,0.1,0,0.1,0.1c0,0.1,0,0.1-0.1,0.1c-4.9-0.7-8.5-5.8-9.7-10.4C923.5,186.9,917.6,188.5,914.1,184.4
					C914,184.4,914.1,184.4,914.1,184.4z"/>
				<path class="st26" d="M944.6,176.3l14.2,25.2c0,0,24-12.8,27.4-21.1c1.1-2.5,12.5-28.8,14.9-43.8c2.4-15-1.5-16-10.8-4.9
					c-9.3,11-21.4,29.3-22.6,30.7S944.6,176.3,944.6,176.3z"/>
				<linearGradient id="SVGID_10_" gradientUnits="userSpaceOnUse" x1="982.5282" y1="163.5661" x2="1051.3081" y2="163.5661">
					<stop  offset="0" style="stop-color:#FFDB00"/>
					<stop  offset="1" style="stop-color:#FFAE08"/>
				</linearGradient>
				<path class="st33" d="M1050,202.8l-62,4.1c-0.3-0.3-6.1-3.6-5.5-12.7c1.4-20.8,7.4-58.5,11.7-66.4c3.4-6.7,11.5-9.3,18.2-5.9
					c0.1,0,0.1,0.1,0.2,0.1c3.7,2.3,7.2,5.3,11.6,11.6c10.8,15.6,22.5,43.3,26.4,58.5C1052.3,198.2,1050.2,202.6,1050,202.8z"/>
				<path class="st11" d="M1001.1,135.2c1.1-0.3,6.5-7.8,7.5-12.7c0.1-0.3-1.3-3.2-2.8-6.8c-0.9-2.2-1.9-4.6-2.6-6.9
					c-0.1-0.5-1.5,0.9-1.5,0.9l-2.7,1.7l-9.1,5.5c1.7,2.6,3.1,5.4,4.2,8.4c0.1,0.3,0.2,0.6,0.2,1v0.2
					C994.6,128.2,999.4,135.8,1001.1,135.2z"/>
				<path class="st14" d="M994.3,126.2v0.2c0.5-0.1,1-0.2,1.5-0.4c9.6-3.2,6.9-15.9,6.9-15.9l-3.8,1.4l-9.1,5.5
					c1.7,2.6,3.1,5.4,4.2,8.4C994.1,125.5,994.2,125.9,994.3,126.2z"/>
				<path class="st11" d="M1000.5,95.2c2.5,5,2.5,20.6-0.6,24.7c-4.5,5.9-13.3,8-18.7,2.2c-5.2-5.5-4.8-25.9-1.2-29.8
					C985.4,86.6,996.7,87.8,1000.5,95.2z"/>
				<path class="st14" d="M987.3,106.9C987.3,106.9,987.4,106.9,987.3,106.9c0.1,1.2,0.2,2.4,1.2,2.7c0,0,0,0.1,0,0.1
					C987.3,109.5,987.1,107.9,987.3,106.9z"/>
				<path class="st14" d="M988.3,105.8c1.7-0.1,1.8,3.2,0.3,3.4S986.8,105.9,988.3,105.8z"/>
				<path class="st14" d="M981.2,107.4C981.2,107.4,981.2,107.4,981.2,107.4c0,1.2-0.1,2.4-1,2.8c0,0,0,0.1,0,0
					C981.4,110,981.5,108.3,981.2,107.4z"/>
				<path class="st14" d="M980.2,106.3c-1.7-0.1-1.7,3.4-0.1,3.4C981.7,109.8,981.7,106.3,980.2,106.3z"/>
				<path class="st27" d="M989.6,104.2c-0.5-0.1-0.9-0.3-1.3-0.4c-0.5-0.1-0.9-0.3-1.3-0.7c-0.2-0.3-0.1-0.6,0.1-0.9
					c0.5-0.4,1.2-0.5,1.8-0.3c0.6,0.2,1.2,0.5,1.6,1.1c0.2,0.4,0.1,0.8-0.3,1.1C989.9,104.2,989.7,104.2,989.6,104.2z"/>
				<path class="st27" d="M978.9,104.7c0.5-0.1,0.9-0.3,1.3-0.4c0.5-0.1,0.9-0.3,1.3-0.7c0.2-0.3,0.2-0.6-0.1-0.9
					c-0.5-0.4-1.2-0.5-1.8-0.3c-0.6,0.1-1.2,0.5-1.6,1.1c-0.2,0.4-0.1,0.8,0.3,1.1C978.5,104.7,978.7,104.7,978.9,104.7z"/>
				<path class="st14" d="M988.7,116.7c-0.2,0.3-0.5,0.6-0.9,0.7c-0.4,0-0.8-0.1-1.2-0.2c0,0-0.1,0,0,0.1c0.3,0.4,0.9,0.6,1.4,0.5
					c0.4-0.1,0.7-0.5,0.8-1C988.8,116.7,988.8,116.6,988.7,116.7z"/>
				<path class="st14" d="M987.5,113.6c-0.5,0.9-1.3,1.5-2.3,1.7c-0.4,0.1-0.9,0.1-1.3,0.1c-0.1,0-0.2,0-0.2,0h-0.2
					c-0.1,0-0.2-0.1-0.2-0.2l0,0c0,0,0-0.1,0-0.1l0,0V115c-0.1-0.8,0-2.1,0-2.1c-0.3,0.2-1.8,0.9-1.8,0.5c-0.1-3.7,0.3-7.3,0.9-10.9
					c0-0.1,0-0.1,0.1-0.1c0.1,0,0.1,0,0.1,0.1c0.1,3.4-0.4,6.8-0.4,10.2c0.5-0.3,1.1-0.5,1.7-0.6c0.1,0-0.1,2.4,0,2.8l0,0
					C985.1,114.9,986.4,114.4,987.5,113.6C987.5,113.4,987.5,113.5,987.5,113.6z"/>
				<path class="st14" d="M984.3,115c0.5,0.6,1.1,1,1.8,1.2c0.4,0.1,0.8,0.1,1.2,0c0.8-0.3,0.8-1.1,0.6-1.7c-0.1-0.3-0.2-0.7-0.4-1
					C986.6,114.3,985.5,114.8,984.3,115z"/>
				<path class="st39" d="M986.1,116.2c0.4,0.1,0.8,0.1,1.2,0c0.8-0.3,0.8-1.1,0.6-1.7C987,114.6,986.2,115.3,986.1,116.2z"/>
				<path class="st27" d="M978,97.5c0.5-1.4,0.9-4,2.3-4.5c1-0.4,1.5,1.6,3.4,1.6c2.5,0.1,3.9-2.2,7.4-2.6c5-0.6,6.6,5,7,12
					c0.4,6.3,4.2,6.7,4.2,6.7s1.7-14-2.4-18.4c-4.1-4.4-13.2-6.1-19-1.4C978.6,92.6,978,97.5,978,97.5z"/>
				<path class="st40" d="M1001.4,86.6c0,0.8-0.6,1.5-1.5,1.5c-0.8,0-1.5-0.6-1.5-1.5c0-0.8,0.6-1.5,1.5-1.5c0,0,0,0,0,0
					C1000.7,85.1,1001.4,85.8,1001.4,86.6C1001.4,86.6,1001.4,86.6,1001.4,86.6z"/>
				<path class="st36" d="M1002.1,100.2c-0.6-0.6-9.6-6.6-11.8-7c-3.6-0.3-7.1-0.4-10.7-0.2c-1.4,0.2-3.9-2-3.2-3.5
					c0.8-1.7,5.4-2,8.3-2.6c2.9-0.6,11.2-2.1,15.9,0.5c3.5,2,7.8,6.1,7,9.2C1006.8,99.6,1002.1,100.2,1002.1,100.2z"/>
				<g class="st41">
					<path d="M985.2,99.1c-0.6,0.1-1.1,0.2-1.7,0.2c-0.6,0-1.2-0.1-1.8-0.1c-1.1,0.1-2.2,0.4-3.2,0.8c-0.1,0-0.1,0.1,0,0.1
						c1.1-0.4,2.2-0.7,3.4-0.6c1,0.1,1.9,0.1,2.9-0.1c2.1-0.5,4.3-0.4,6.4,0.4l0,0C989.2,99,987.2,98.8,985.2,99.1z"/>
					<path d="M985.1,97.6c-0.5,0.1-1.1,0.2-1.6,0.2c-0.6,0-1.1-0.1-1.7-0.1c-1,0.1-2.1,0.3-3,0.8c-0.1,0-0.1,0.1,0,0.1
						c1-0.4,2.1-0.6,3.2-0.6c0.9,0.1,1.8,0.1,2.7-0.1c2-0.5,4.1-0.4,6.1,0.4l0,0C989,97.5,987,97.3,985.1,97.6z"/>
				</g>
				<path class="st36" d="M978.7,114c-1.8,0-3.2-2.2-3.2-4.8c0-2.7,1.4-4.8,3.2-4.8s3.2,2.2,3.2,4.8
					C981.9,111.8,980.5,114,978.7,114z M978.7,105c-1.4,0-2.5,1.9-2.5,4.2c0,2.3,1.1,4.2,2.5,4.2s2.5-1.9,2.5-4.2
					S980.1,105,978.7,105L978.7,105z"/>
				<path class="st36" d="M989.5,114c-2.7,0.2-5-1.8-5.1-4.5c-0.2-2.7,1.8-5,4.5-5.1c2.7-0.2,5,1.8,5.1,4.5c0,0.1,0,0.2,0,0.3
					C994.1,111.7,992.1,113.9,989.5,114z M989.5,105c-2.3-0.2-4.3,1.5-4.5,3.8c-0.2,2.3,1.5,4.3,3.8,4.5c2.3,0.2,4.3-1.5,4.5-3.8
					c0-0.1,0-0.2,0-0.3C993.5,107,991.7,105.1,989.5,105L989.5,105z"/>
				<path class="st36" d="M985.2,108.7c-2.4-0.8-3.5-0.1-3.5-0.1l-0.4-0.5c0,0,1.3-1.1,4.1,0L985.2,108.7z"/>
				<path class="st36" d="M993.7,108.7l-0.1-0.6c0.4-0.1,7.5-1.4,8.5-1.5c1.1-0.1,3.8,1.4,4.1,1.6l-0.3,0.6
					c-1.1-0.7-2.4-1.2-3.6-1.5l0,0C1001.3,107.3,997.2,108.1,993.7,108.7z"/>
				<path class="st11" d="M999.6,108.2c0,0,2.6-5.5,5.1-4.6c2.4,0.9,1,8.4-1.5,9.8c-1.2,0.8-2.9,0.5-3.7-0.7c0,0,0-0.1-0.1-0.1
					L999.6,108.2z"/>
				<path class="st14" d="M1004.2,105.8c-1.6,1.1-2.6,2.9-2.8,4.8c0.3-0.8,1.1-1.2,1.9-0.9c0.1,0,0.2,0.1,0.2,0.1c0.1,0,0,0.1,0,0.1
					c-0.7-0.1-1.4,0.2-1.7,0.9c-0.3,0.5-0.5,1-0.6,1.6c-0.1,0.2-0.4,0.1-0.3-0.1l0,0C1000.4,110,1001.7,106.4,1004.2,105.8z"/>
				<path class="st26" d="M994.4,126.6l5.9,7.6l7.6-13.8l4,2.6c0,0-5.6,20.1-5.9,19.4l-5.6-6.4l-3.7,6.6l-3.2-13L994.4,126.6z"/>
				<path class="st14" d="M994.7,136.2c-0.5-2.2-1-4.3-1.3-6.5c0,0,0-0.1,0-0.1c0,0,0.1,0,0.1,0c1,1.9,2.7,10.2,3.2,12.2l0,0
					c0.2-0.3,3.5-5.8,3.5-5.8c1.1,1,5.2,5.6,5.5,6.1c0.9-3.2,4.4-14.9,5.6-18c0-0.1,0.2-0.1,0.2,0c-0.6,3.3-5.2,19-5.4,19
					c-2.1-2.2-4-4.4-5.9-6.8c-0.5,1.2-3.7,7.3-3.8,7C995.8,140.9,995.2,138.6,994.7,136.2z"/>
				<path class="st11" d="M999.6,181.9c0,0-12.3,2.8-20,3.6c-4.3,0.4-11.6,1.8-14.6,3.6c-4.5,2.6-21.6,16.5-18.4,20.7
					c3,3.8,16.1-9.9,16.1-9.9s-14.6,12.7-10.1,16.7s17.3-13.6,17.3-13.6s-14.7,13.4-9.5,16.8c3.9,2.5,16.5-12.7,16.5-12.7
					s-12.5,11.6-8.6,14.4c4.3,3.1,16.8-10.2,16.8-10.2c11.2,5.4,20.8,0.9,26-1.1C1012.4,209.4,999.6,181.9,999.6,181.9z"/>
				<path class="st14" d="M966.8,195.8c-6.6,5.3-12.1,12.1-13.8,15.2c-0.2,0.4-0.4,0.7-0.4,0.7C955.6,208.2,965.2,197.4,966.8,195.8
					C966.9,195.8,966.8,195.7,966.8,195.8z"/>
				<path class="st14" d="M973.4,200.8c-5.6,3.2-10.4,9.9-12.3,12c-0.2,0.2,0,0.2,0.1,0C963.3,210.8,971.4,202.8,973.4,200.8
					C973.5,200.8,973.5,200.8,973.4,200.8z"/>
				<path class="st14" d="M978.8,205.4c-3.5,2.4-6.5,5.5-8.7,9.1c-0.1,0.2,0,0.2,0.2,0C973.3,211.2,975.1,209.2,978.8,205.4
					C978.9,205.4,978.9,205.4,978.8,205.4C978.8,205.4,978.8,205.4,978.8,205.4z"/>
				<path class="st11" d="M1013.7,135.4c0.8,8.2,11.9,37.5,11.7,39c-0.2,1.6-29.4,7.8-35.3,10.3c-4,1.7,6.3,30.2,14.1,27.7
					c12-4,46.2-14.5,49.4-25.7c3.2-11.2-25.1-49.6-30.7-56.5C1017.3,123.3,1012.4,122,1013.7,135.4z"/>
				<path class="st26" d="M990.4,182.3l19.8,32c0,0,39.1-14.4,44.2-26.2c4.7-10.8-26.9-54.1-32-59.7c-5.1-5.6-10.8-7.2-8.6,9.3
					c2.2,16.5,11.7,35.1,10.8,36.2C1023.7,175.1,990.4,182.3,990.4,182.3z"/>
				<rect x="971.3" y="229.1" class="st34" width="90.4" height="34.8"/>
				<path class="st27" d="M1046.9,347.7h-75.6v-4.4h75.6c6.8,0,12.4-5.6,12.4-12.4V162c0-9.2,7.5-16.7,16.7-16.8h10.2v4.4h-10.2
					c-6.8,0-12.4,5.6-12.4,12.4v169C1063.7,340.2,1056.2,347.7,1046.9,347.7z"/>
				<path class="st27" d="M973.5,371.3h-4.4V227.3c0-8.3,6.8-15,15.1-15.1h77.3v4.3h-77.2c-5.9,0-10.8,4.8-10.8,10.8L973.5,371.3z"
					/>
				<rect x="1072.8" y="142.9" class="st14" width="27" height="8.7"/>
				<path class="st14" d="M1056.9,395.9c-33.7,0-61.1-34.2-61.1-76.2s27.4-76.2,61.1-76.2c33.7,0,61.1,34.2,61.1,76.2
					S1090.5,395.9,1056.9,395.9z M1056.9,249.6c-30.3,0-55,31.5-55,70.2s24.7,70.1,55,70.1c30.3,0,55-31.4,55-70.1
					S1087.2,249.6,1056.9,249.6z"/>
				<path class="st27" d="M1061.7,387.2c-29.8,0-54-30.3-54-67.6s24.2-67.6,54-67.6c29.8,0,54,30.3,54,67.6
					S1091.5,387.2,1061.7,387.2z M1061.7,256.5c-27.4,0-49.7,28.4-49.7,63.2s22.3,63.2,49.7,63.2c27.4,0,49.7-28.4,49.7-63.2
					S1089.1,256.5,1061.7,256.5z"/>
				<ellipse class="st27" cx="1059.6" cy="319.7" rx="8.8" ry="11"/>
				<ellipse class="st35" cx="1062.4" cy="319.7" rx="8.8" ry="11"/>
				<ellipse class="st27" cx="972.5" cy="383.6" rx="11.4" ry="14.4"/>
				<ellipse class="st35" cx="976.2" cy="383.6" rx="11.4" ry="14.4"/>
			</g>
		</g>
	</g>
</g>
<g id="banner1" class="st0">
</g>
<g id="圖層_11" class="st0">
	<path class="st63" d="M113.7,223.9c12.4-15.5,15.3-39.1,6.6-57.1c-8-16.6-24.3-27.4-40.7-34.7c-18.8-8.3-39.4-12.9-59.7-15.5
		c-6.6-0.8-13.2-1.5-19.9-1.9v174.4c17.2-9.3,35.4-16.6,53.1-24.8C74.6,254.3,98.6,242.9,113.7,223.9z"/>
	<g id="freepik--character-1--inject-55" class="st1">
		<path class="st11" d="M637.5,211.2c-5.2-3.3-13-14.3-13.9-17.6s16.5-15.8,19.9-14.9s20.8,11.8,22.8,17.8
			C668.2,202.4,642.8,214.6,637.5,211.2z"/>
		<path class="st27" d="M705,387c-0.1-1.5-13.8-145.8-15-153.7c-2.3-16.9-8.8-28.1-32.8-28.1c-25.4,0-32.3,5.5-35.1,28.1
			c-3,23.7-14.8,152.5-15,153.8l-7-0.6c0.1-1.3,12-130.2,15-154c3.3-26.2,13.1-34.2,42.1-34.2c31,0,37.5,18.2,39.7,34.1
			c1.1,8.1,14.4,148.1,15,154L705,387z"/>
		<rect x="610.3" y="312.9" class="st27" width="91.5" height="7"/>
		<polygon class="st34" points="609.5,393.9 597.9,393.9 598.8,379.7 608.6,379.7 		"/>
		<polygon class="st34" points="714.2,393.9 702.7,393.9 703.6,379.7 713.3,379.7 		"/>
		<path class="st11" d="M586.9,144.7c2.2,14.6,9.5,33.8,14.3,38.9c6.1,6.5,20.7,15.3,27.4,18.1c3,1.2,24-19.9,20.7-21.1
			c-4.5-1.8-29.8-12.7-32.1-13.8c-2.3-1.1-12.7-14.4-18.6-25.4C591.1,127.5,585.1,132.4,586.9,144.7z"/>
		<path class="st11" d="M661.3,187.9c-3.3-0.1-1.5,3.8-1.5,3.8s-3.9-5-7.3-3.8c-3.4,1.2-1,5.8-0.8,6.1c-0.2-0.3-3.9-4.8-7.2-3.2
			s-0.3,5.9-0.1,6.1c-0.3-0.2-3.9-2.6-6.1-0.8c-3.8,3,5.3,9.4,5.9,13.3c0,0-6.5,1.6-6.7,1.7c0,0,8.6,6.3,13.8,5.3
			c1.6-0.3,2.7-1.6,2.8-3.2c0,0,2.6,2.3,5.2,1.2c1.3-0.6,1.6-3.3,1.6-3.3c1.2,1,2.9,1.3,4.4,0.6c1.8-0.9,1.8-3.5,1.8-3.5
			s2.8,0.8,4.4-0.8C674.5,204.4,668.3,188.1,661.3,187.9z"/>
		<path class="st14" d="M667.1,207.9C667.1,207.9,667.2,207.9,667.1,207.9c-0.7-6.1-3.3-11.8-7.4-16.4c-0.1-0.1-0.4,0-0.3,0.2
			C662.8,196.7,665.3,202.1,667.1,207.9z"/>
		<path class="st14" d="M660.9,211.2c0,0.1,0.1,0,0.1,0c-0.9-6.7-4.2-12.9-9.3-17.4c-0.2-0.1-0.5-0.1-0.3,0.1
			C654.8,197.1,659.4,205.8,660.9,211.2z"/>
		<path class="st14" d="M644,196.8c4.9,4.4,7.9,10,10.1,16.2c0,0.1,0.1,0,0.1,0c-0.3-3.3-2.1-7.1-3.8-9.9c-1.5-2.6-3.7-4.9-6.3-6.4
			C644,196.6,643.8,196.7,644,196.8z"/>
		<path class="st14" d="M659.8,191.7c-0.8-0.9-1.7-1.7-2.7-2.4c-0.9-0.7-2-1.2-3.2-1.4c-0.5,0-1.1,0.1-1.5,0.4
			c-0.4,0.3-0.8,0.8-1,1.3c-0.4,1-0.3,2.2,0.3,3.1l1.2,2.4l-2-1.8c-0.9-0.8-1.9-1.5-2.9-2c-1-0.5-2.1-0.6-3.2-0.2
			c-1,0.4-1.6,1.4-1.4,2.4c0.2,1.1,0.7,2.2,1.4,3.1l1.9,2.5l-2.6-1.7c-0.7-0.5-1.5-0.9-2.4-1.2c-0.8-0.3-1.6-0.4-2.4-0.2
			c-0.7,0.2-1.3,0.8-1.5,1.5c0,0.8,0.1,1.7,0.6,2.4c0.9,1.6,1.9,3.1,3,4.6c0.5,0.8,1.1,1.5,1.6,2.3c0.5,0.8,0.9,1.6,1.1,2.5
			c-0.3-0.9-0.7-1.7-1.3-2.4c-0.6-0.7-1.2-1.4-1.7-2.1c-1.2-1.4-2.3-2.9-3.3-4.5c-0.5-0.9-0.8-1.9-0.8-2.9c0.2-1.1,1-2,2.1-2.4
			c1-0.2,2-0.2,3,0.1c0.9,0.3,1.8,0.7,2.6,1.3l-0.7,0.8c-0.9-1-1.5-2.3-1.7-3.6c-0.1-0.7,0-1.5,0.4-2.1c0.4-0.6,1-1.1,1.6-1.4
			c1.3-0.5,2.8-0.4,4,0.3c1.2,0.6,2.3,1.3,3.2,2.2l-0.8,0.6c-0.6-1.2-0.7-2.7-0.2-3.9c0.3-0.6,0.7-1.1,1.3-1.5
			c0.6-0.4,1.3-0.6,2-0.5c1.2,0.3,2.4,0.8,3.3,1.7C658.2,189.8,659.1,190.7,659.8,191.7z"/>
		<path class="st11" d="M646.5,179.6c0,0,25.9,3.1,19.7,12.6c-1.8,2.8-12.7,12.3-14.7,10.1c-2.5-2.8,1.3-7.6,4.2-10.2
			c0,0-9,0.2-11-6C644.1,183.8,644.8,181.3,646.5,179.6z"/>
		<path class="st14" d="M666.7,191.4c-0.6,1.2-1.3,2.3-2.3,3.3c-0.9,1-1.8,1.9-2.8,2.8c-2,1.8-4.1,3.4-6.4,4.8
			c-0.6,0.4-1.3,0.7-1.9,0.9c-0.4,0.1-0.8,0.1-1.2,0c-0.2,0-0.4-0.1-0.6-0.2c-0.2-0.1-0.4-0.3-0.5-0.4c-0.5-0.6-0.8-1.4-0.8-2.2
			c0-0.7,0.1-1.5,0.4-2.1c0.5-1.3,1.2-2.5,2.1-3.5c0.9-1,1.8-2,2.8-2.9l0.3,0.8c-1,0-2-0.1-3-0.3c-1-0.2-2-0.5-2.9-0.9
			c-0.9-0.4-1.8-0.9-2.6-1.6c-0.8-0.6-1.4-1.4-1.9-2.3c0.6,0.8,1.3,1.5,2.1,2.1c0.8,0.5,1.7,1,2.6,1.3c0.9,0.3,1.9,0.6,2.8,0.7
			c1,0.1,1.9,0.2,2.9,0.2l1.2-0.1l-0.9,0.9c-0.9,0.9-1.8,1.9-2.6,2.9c-0.8,1-1.5,2.1-1.9,3.2c-0.4,1.1-0.5,2.4,0.2,3.2
			c0.7,0.7,1.9,0.2,3-0.4c1.1-0.6,2.2-1.3,3.3-2.1c1.1-0.7,2.1-1.5,3.2-2.3C663.3,195.4,665.2,193.5,666.7,191.4z"/>
		<linearGradient id="SVGID_11_" gradientUnits="userSpaceOnUse" x1="586.0386" y1="167.267" x2="639.45" y2="167.267">
			<stop  offset="0" style="stop-color:#FFDB00"/>
			<stop  offset="1" style="stop-color:#FFAE08"/>
		</linearGradient>
		<path class="st37" d="M622.9,202.1l16.5-26.5c0,0-20.5-8.3-22.6-10.1s-14.7-20-19.8-28s-12.1-7.2-10.9,5.9
			c1.2,13.1,10.2,35.5,13.6,39.7S622.9,202.1,622.9,202.1z"/>
		<path class="st10" d="M604.2,153.4c0.2-0.5,0.6-1,0.9-1.4c-0.1,0.5-0.3,1.1-0.6,1.6c-0.2,0.5-0.5,1-0.9,1.4
			C603.8,154.5,603.9,153.9,604.2,153.4z M627.2,175.4c0.4-0.4,0.7-0.9,0.9-1.4c0.3-0.5,0.4-1,0.6-1.6c-0.4,0.4-0.7,0.9-0.9,1.4
			C627.5,174.3,627.3,174.8,627.2,175.4L627.2,175.4z M605.1,177.7c0.4-0.4,0.7-0.9,0.9-1.4c0.3-0.5,0.4-1,0.6-1.6
			c-0.4,0.4-0.7,0.9-0.9,1.4C605.4,176.6,605.2,177.1,605.1,177.7L605.1,177.7z M626,191.4c0.4-0.4,0.7-0.9,0.9-1.4
			c0.3-0.5,0.4-1,0.6-1.6c-0.4,0.4-0.7,0.9-0.9,1.4C626.3,190.4,626.1,190.9,626,191.4z M619.3,170c-0.4-0.4-0.9-0.7-1.4-0.9
			c-0.5-0.3-1-0.4-1.6-0.6c0.4,0.4,0.9,0.7,1.4,0.9C618.3,169.7,618.8,169.9,619.3,170z M599.3,160c-0.4-0.4-0.9-0.7-1.4-0.9
			c-0.5-0.3-1-0.4-1.6-0.6c0.4,0.4,0.9,0.7,1.4,0.9C598.2,159.7,598.7,159.9,599.3,160L599.3,160z M591.2,138.3
			c-0.4-0.4-0.9-0.7-1.4-0.9c-0.5-0.3-1-0.4-1.6-0.6c0.4,0.4,0.9,0.7,1.4,0.9C590.1,138,590.6,138.2,591.2,138.3L591.2,138.3z
			 M618.8,192.9c-0.4-0.4-0.9-0.7-1.4-0.9c-0.5-0.3-1-0.4-1.6-0.6c0.4,0.4,0.9,0.7,1.4,0.9C617.7,192.6,618.3,192.8,618.8,192.9
			L618.8,192.9z M597.2,170.3c0.6,0,1.1-0.1,1.6-0.3c0.5-0.2,1-0.4,1.5-0.7c-0.6,0-1.1,0.1-1.6,0.3
			C598.1,169.7,597.6,170,597.2,170.3L597.2,170.3z M624.3,183.2c0.6,0,1.1-0.2,1.6-0.3c0.5-0.2,1-0.4,1.5-0.7
			c-0.6,0-1.1,0.2-1.6,0.3C625.2,182.7,624.7,182.9,624.3,183.2L624.3,183.2z M607.7,187.1c0.6,0,1.1-0.1,1.6-0.3
			c0.5-0.2,1-0.4,1.5-0.7C609.7,186.1,608.6,186.5,607.7,187.1z M590.7,151.7c0.6,0,1.1-0.2,1.6-0.3c0.5-0.2,1-0.4,1.5-0.7
			c-0.6,0-1.1,0.2-1.6,0.3C591.7,151.2,591.2,151.4,590.7,151.7L590.7,151.7z M607.5,162.7c0,0.6,0.1,1.1,0.3,1.6
			c0.2,0.5,0.4,1,0.7,1.5c0-0.6-0.2-1.1-0.3-1.6C608.1,163.7,607.9,163.2,607.5,162.7L607.5,162.7z M615.3,177
			c0,0.6,0.2,1.1,0.3,1.6c0.2,0.5,0.4,1,0.7,1.5c0-0.6-0.2-1.1-0.3-1.6C615.8,178,615.6,177.5,615.3,177L615.3,177z M635.5,175.5
			c0,0.6,0.2,1.1,0.3,1.6c0.2,0.5,0.4,1,0.7,1.5c0-0.6-0.2-1.1-0.3-1.6C636,176.4,635.8,175.9,635.5,175.5L635.5,175.5z M596.6,142
			c0,0.6,0.1,1.1,0.3,1.6c0.2,0.5,0.4,1,0.7,1.5c0-0.6-0.1-1.1-0.3-1.6C597.2,143,596.9,142.5,596.6,142L596.6,142z"/>
		<path class="st14" d="M634,174.5c-1.4,1.9-2.6,3.8-3.9,5.7c-1.3,1.9-2.6,3.9-3.9,5.9c-1.3,2-2.5,3.9-3.7,5.9s-2.3,4-3.5,6
			c0,0.1,0.1,0.1,0.1,0.1c1.3-1.9,2.7-3.7,4-5.7c1.3-1.9,2.5-4,3.8-6c1.3-2,2.4-3.9,3.6-5.8c1.2-1.9,2.5-4,3.6-6
			C634.2,174.5,634,174.4,634,174.5z"/>
		<path class="st11" d="M637.5,403.5c-2.1,0.7-60.8,0.8-63.1-0.6c-0.9-0.5-1.4-9.1-1.7-19.5c-0.1-2.2,1.4-38.3,1.4-38.3l37.4-0.2
			l-0.8,31.4l-0.2,6.9c0,0,22.5,10,24.8,11.8C637.7,396.9,639.5,402.8,637.5,403.5z"/>
		<path class="st14" d="M572.9,388.1c0.3,8.2,0.8,14.4,1.5,14.8c2.2,1.4,61,1.3,63.1,0.6c2.1-0.7,0.2-6.6-2.1-8.4
			c-1-0.8-5.9-3.2-11.1-5.6l0,0c0,0,5.1,4.1,3.2,4.7C617.6,397.3,583.7,390.4,572.9,388.1z"/>
		<path class="st11" d="M568.9,205v2.6c0,0,5.4,55.7,5.9,76.2c0.6,24.1-2,92.6-2,92.6h37.9c0,0,3-72.3,2.1-96.4
			c-0.8-21-11-74.8-11-74.8l-0.1-2.4l-2.2-21.2h-30.3L568.9,205z"/>
		<path class="st11" d="M584.4,408.3c-2.1,0.5-60.6-5.1-62.7-6.7c-0.8-0.6-0.5-9.2,0.2-19.5c0.2-2.2,5.3-38.6,5.3-38.6l37.7,5
			l-5.3,37.1c0,0,21.5,12.2,23.6,14.2S586.5,407.8,584.4,408.3z"/>
		<path class="st14" d="M521.5,386.6c-0.5,8.2-0.6,14.4,0.1,14.9c2.1,1.6,60.6,7.2,62.7,6.7s0.9-6.5-1.2-8.6
			c-0.9-0.9-5.6-3.7-10.5-6.6l0,0c0,0,4.7,4.6,2.8,5C565.2,400.2,532.1,390,521.5,386.6z"/>
		<path class="st11" d="M597.8,181.5L597.8,181.5c-0.1,0.7,0.1,12-2.4,21.8c-1.8,7.1-3.7,13.3-4.8,14c-1.1,0.7-7.2,3.4-9.2,4.2
			l-9.2,78.7l-12.4,81.3l-37.2-5.4l10.9-77.2l12.4-85.8c-1.6-20.2,7-31.5,7-31.5L597.8,181.5z"/>
		<path class="st14" d="M551.8,181.5h48.6c0,0,1.5,21.5,1.7,23.3c0.2,1.8,11.3,58.3,11.5,73.4s0,29,0,29s-22.2,7.4-44.8,5.6
			C546.4,311,531,302,531,302s14.6-88.8,14.6-89S541.2,198.7,551.8,181.5z"/>
		<linearGradient id="SVGID_13_" gradientUnits="userSpaceOnUse" x1="548.53" y1="159.4515" x2="604.3756" y2="159.4515">
			<stop  offset="0" style="stop-color:#FFDB00"/>
			<stop  offset="1" style="stop-color:#FFAE08"/>
		</linearGradient>
		<path style="fill:url(#SVGID_13_);" d="M602.3,188.5c0,0-18.8,3.4-53.8-1.5c0,0,16.1-43.2,27.8-54.4c5.3-5.1,10.2-4,14.2-0.4
			c1,0.9,13,18,13.8,23.8c0.7,5.1-3.7,10.5-3.7,10.5L602.3,188.5z"/>
		<linearGradient id="SVGID_14_" gradientUnits="userSpaceOnUse" x1="548.54" y1="159.4715" x2="604.3836" y2="159.4715">
			<stop  offset="0" style="stop-color:#FFDB00"/>
			<stop  offset="1" style="stop-color:#FFAE08"/>
		</linearGradient>
		<path class="st48" d="M600.6,166.6l1.7,22c0,0-18.8,3.4-53.8-1.5c0,0,16-43.1,27.7-54.4c5.3-5.1,10.2-4,14.2-0.4
			c0.9,0.8,11,15.1,13.4,22c0,0.1,0.1,0.2,0.1,0.4c0.2,0.5,0.3,1,0.4,1.4C605,161.2,600.6,166.6,600.6,166.6z"/>
		<path class="st10" d="M568.1,168.2c0.2-0.5,0.6-1,0.9-1.4c-0.1,0.5-0.3,1.1-0.6,1.6c-0.2,0.5-0.6,1-0.9,1.4
			C567.7,169.2,567.8,168.7,568.1,168.2z M583.7,148.5c0.4-0.4,0.7-0.9,0.9-1.4c0.3-0.5,0.4-1,0.6-1.6c-0.4,0.4-0.7,0.9-0.9,1.4
			C584,147.5,583.8,148,583.7,148.5z M554.2,185.6c0.4-0.4,0.7-0.9,0.9-1.4c0.3-0.5,0.4-1,0.6-1.6c-0.4,0.4-0.7,0.9-0.9,1.4
			C554.5,184.5,554.3,185,554.2,185.6L554.2,185.6z M589,175.4c0.4-0.4,0.7-0.9,0.9-1.4c0.3-0.5,0.4-1,0.6-1.6
			c-0.4,0.4-0.7,0.9-0.9,1.4C589.3,174.3,589.1,174.8,589,175.4z M580.2,133.7c0.4-0.4,0.7-0.9,0.9-1.4c0.3-0.5,0.4-1,0.6-1.6
			c-0.4,0.4-0.7,0.9-0.9,1.4C580.5,132.6,580.3,133.1,580.2,133.7L580.2,133.7z M581.2,168c-0.4-0.4-0.9-0.7-1.4-0.9
			c-0.5-0.3-1-0.4-1.6-0.6c0.4,0.4,0.9,0.7,1.4,0.9C580.1,167.7,580.6,167.9,581.2,168L581.2,168z M599.3,160.1
			c-0.4-0.4-0.9-0.7-1.4-0.9c-0.5-0.3-1-0.4-1.6-0.6c0.4,0.4,0.9,0.7,1.4,0.9C598.2,159.8,598.7,160,599.3,160.1L599.3,160.1z
			 M591.2,138.4c-0.4-0.4-0.9-0.7-1.4-0.9c-0.5-0.3-1-0.4-1.6-0.6c0.4,0.4,0.9,0.7,1.4,0.9C590.1,138.1,590.7,138.2,591.2,138.4
			L591.2,138.4z M586.6,185.6c-0.4-0.4-0.9-0.7-1.4-0.9c-0.5-0.3-1-0.4-1.6-0.6c0.4,0.4,0.9,0.7,1.4,0.9
			C585.5,185.3,586.1,185.5,586.6,185.6L586.6,185.6z M570.5,147.1c-0.4-0.4-0.9-0.7-1.4-0.9c-0.5-0.3-1-0.4-1.6-0.6
			c0.4,0.4,0.9,0.7,1.4,0.9C569.4,146.7,569.9,146.9,570.5,147.1L570.5,147.1z M565.6,180.4c-0.4-0.4-0.9-0.7-1.4-0.9
			c-0.5-0.3-1-0.4-1.6-0.6c0.4,0.4,0.9,0.7,1.4,0.9C564.5,180.1,565,180.3,565.6,180.4L565.6,180.4z M574.5,176.7
			c0.6,0,1.1-0.1,1.6-0.3c0.5-0.2,1-0.4,1.5-0.7c-0.6,0-1.1,0.1-1.7,0.3C575.5,176.2,575,176.4,574.5,176.7L574.5,176.7z
			 M597.2,170.3c0.6,0,1.1-0.1,1.6-0.3c0.5-0.2,1-0.4,1.5-0.7c-0.6,0-1.1,0.1-1.6,0.3C598.2,169.8,597.6,170,597.2,170.3
			L597.2,170.3z M574,156.3c0.6,0,1.1-0.2,1.6-0.3c0.5-0.2,1-0.4,1.5-0.7c-0.6,0-1.1,0.1-1.6,0.3C575,155.7,574.5,155.9,574,156.3z
			 M590.7,151.7c0.6,0,1.1-0.2,1.6-0.3c0.5-0.2,1-0.4,1.5-0.7c-0.6,0-1.1,0.2-1.6,0.3C591.7,151.2,591.2,151.4,590.7,151.7
			L590.7,151.7z M556.1,172c0.6,0,1.1-0.1,1.6-0.3c0.5-0.2,1-0.4,1.5-0.7c-0.6,0-1.1,0.1-1.6,0.3C557.1,171.5,556.6,171.7,556.1,172
			z M563,156.5c0,0.6,0.2,1.1,0.3,1.6c0.2,0.5,0.4,1,0.7,1.5c0-0.6-0.2-1.1-0.3-1.6C563.6,157.5,563.3,156.9,563,156.5z
			 M587.8,160.1c0,0.6,0.2,1.1,0.3,1.6c0.2,0.5,0.4,1,0.7,1.5c0-0.6-0.2-1.1-0.3-1.6C588.4,161.1,588.1,160.6,587.8,160.1
			L587.8,160.1z M596,182.2c0,0.6,0.2,1.1,0.3,1.6c0.2,0.5,0.4,1,0.7,1.5c0-0.6-0.2-1.1-0.3-1.6C596.6,183.2,596.3,182.7,596,182.2z
			 M571.8,184.5c0,0.6,0.1,1.1,0.3,1.6c0.2,0.5,0.4,1,0.7,1.5c0-0.6-0.1-1.1-0.3-1.6C572.3,185.5,572.1,184.9,571.8,184.5
			L571.8,184.5z M576.6,139.3c0,0.6,0.2,1.1,0.4,1.7c0.2,0.5,0.4,1,0.7,1.5c0-0.6-0.2-1.1-0.3-1.6
			C577.2,140.3,577,139.8,576.6,139.3L576.6,139.3z M596.6,142.1c0,0.6,0.1,1.1,0.3,1.6c0.2,0.5,0.4,1,0.7,1.5
			c0-0.6-0.1-1.1-0.3-1.6C597.2,143,596.9,142.5,596.6,142.1L596.6,142.1z"/>
		<path class="st14" d="M600,146.1L600,146.1c-0.7-1.3-1.5-2.7-2.3-4c0,0-0.1,0-0.1,0c1.1,2.3,2.4,4.5,3.6,6.8c1.2,1.9,2,4,2.5,6.1
			c0.7,4-0.8,9-3.4,11.2c0,0,0.6,6.5,0.9,9.7c0.1,1.6,0.2,3.1,0.4,4.7c0.2,1.6,0.4,3.2,0.5,4.8c0,0.1,0.2,0.1,0.2,0
			c-0.1-1.6,0-3.1-0.1-4.7c-0.1-1.6-0.2-3.2-0.4-4.8c-0.3-3.2-0.9-9.4-1-9.4c2.3-1.9,3.4-5.2,3.6-8.3c0.1-1.6-0.1-3.1-0.6-4.6
			c-0.7-1.8-1.5-3.4-2.5-5c-0.2-0.3-0.4-0.6-0.6-1l-0.2-0.4"/>
		<path class="st11" d="M583.5,133.6c0,1,3,8,7.2,8.8c1.4,0.3,3.2-7.3,3.2-7.3l0.3-0.5l3.6-7.3l-7.7-8l-1.1-1.1c0,0-0.9,2.1-1.9,4.7
			l-0.2,0.4c-0.1,0.1-0.1,0.3-0.2,0.4c-0.2,0.4-0.3,0.8-0.5,1.2s-0.2,0.6-0.3,0.9l-0.3,0.9C584.7,128.9,584,131.2,583.5,133.6z"/>
		<path class="st14" d="M587,122.8c0.5,4.8,3.1,9.1,7.1,11.8l3.6-7.3l-7.7-8l-1.1-1.1C588.9,118.2,588,120.2,587,122.8z"/>
		<path class="st11" d="M612.4,117.4c-0.2,14.4-8.8,15.9-11.9,15.8c-2.8,0-12.4-0.5-13.7-14.8c-1.3-14.3,5.4-18.7,11.9-19
			C605.1,99.1,612.5,103,612.4,117.4z"/>
		<path class="st34" d="M610.2,114.7c-0.3-0.1-0.7-0.1-1-0.2c-0.4,0-0.7-0.2-0.9-0.4c-0.1-0.2-0.1-0.4,0-0.6
			c0.3-0.3,0.8-0.4,1.3-0.3c0.5,0.1,0.9,0.3,1.1,0.7c0.2,0.2,0.1,0.6-0.1,0.7C610.4,114.6,610.3,114.7,610.2,114.7z"/>
		<path class="st34" d="M600.9,114.6c0.3,0,0.6-0.1,1-0.2c0.4,0,0.7-0.1,1-0.4c0.1-0.2,0.1-0.4,0-0.6c-0.3-0.3-0.8-0.5-1.2-0.3
			c-0.5,0.1-0.9,0.3-1.2,0.6c-0.2,0.2-0.2,0.6,0.1,0.8C600.7,114.5,600.8,114.6,600.9,114.6z"/>
		<path class="st14" d="M602.9,117.8C602.9,117.8,602.8,117.8,602.9,117.8c-0.1,1.1-0.2,2.2-1.1,2.5v0.1
			C602.9,120.2,603.1,118.7,602.9,117.8z"/>
		<path class="st14" d="M602.1,116.8c-1.6-0.1-1.7,3-0.3,3.1C603.3,120,603.4,116.9,602.1,116.8z"/>
		<path class="st14" d="M601.4,116.9c-0.3,0.2-0.6,0.5-0.9,0.5c-0.3,0-0.7-0.3-0.9-0.7h-0.1c0,0.6,0.2,1.2,0.8,1.4
			c0.6,0.1,1-0.4,1.2-1C601.6,117,601.5,116.8,601.4,116.9z"/>
		<path class="st14" d="M607.9,118C607.9,118,608,118.1,607.9,118c0,1.1,0.1,2.2,0.9,2.6c0,0,0,0.1,0,0.1
			C607.8,120.4,607.7,118.9,607.9,118z"/>
		<path class="st14" d="M608.8,117c1.6,0,1.5,3.1,0.1,3.1C607.5,120.2,607.5,117,608.8,117z"/>
		<path class="st14" d="M609.5,117.2c0.2,0.2,0.5,0.5,0.8,0.5s0.6-0.3,0.8-0.6l0,0c0,0.6-0.2,1.2-0.8,1.3c-0.6,0.1-0.9-0.4-1-1
			C609.3,117.3,609.4,117.1,609.5,117.2z"/>
		<path class="st14" d="M602.4,125.9c0.2,0.3,0.4,0.6,0.8,0.6c0.4,0,0.7,0,1.1-0.1c0,0,0.1,0,0,0.1c-0.3,0.4-0.8,0.5-1.3,0.4
			c-0.4-0.1-0.7-0.5-0.7-0.9C602.3,125.9,602.4,125.9,602.4,125.9z"/>
		<path class="st14" d="M606.6,122.5c0.1,0.7,0.1,1.4,0.1,2.2c0,0.1-0.2,0.1-0.4,0.1l0,0c-1.2,0.2-2.4-0.3-3.1-1.4
			c0-0.1,0-0.1,0.1-0.1c0.8,0.6,1.9,1,3,1c0.1-0.2-0.3-2.5-0.2-2.5c0.5,0.1,1.1,0.2,1.5,0.4c-0.2-3.1-0.9-6.1-1.1-9.1
			c0,0,0-0.1,0.1-0.1c0,0,0.1,0,0.1,0.1c0.9,3.2,1.4,6.5,1.6,9.8C608.3,123.2,606.9,122.7,606.6,122.5z"/>
		<path class="st14" d="M606.2,124.4c-0.4,0.6-0.9,1-1.5,1.3c-0.3,0.1-0.7,0.2-1.1,0.1c-0.8-0.2-0.8-0.9-0.7-1.5
			c0.1-0.3,0.2-0.6,0.3-0.9C604.1,124,605.1,124.4,606.2,124.4z"/>
		<path class="st67" d="M604.7,125.7c-0.3,0.1-0.7,0.2-1.1,0.1c-0.8-0.2-0.8-0.9-0.7-1.5C603.7,124.3,604.5,124.9,604.7,125.7z"/>
		<g class="st41">
			<path d="M604.5,111.7c0.5,0,1.1,0,1.6,0c0.5,0,1.1-0.2,1.6-0.2c1,0,2,0.2,3,0.5c0.1,0,0.1,0.1,0,0.1c-1-0.3-2.1-0.4-3.2-0.3
				c-0.9,0.2-1.8,0.2-2.7,0.2c-2-0.3-4.1,0-5.9,0.9l0,0C600.7,111.9,602.6,111.5,604.5,111.7z"/>
			<path d="M604.4,110.3c0.5,0,1,0,1.5,0c0.5,0,1-0.2,1.5-0.2c1,0,1.9,0.1,2.9,0.5c0.1,0,0.1,0.1,0,0c-1-0.3-2-0.4-3-0.3
				c-0.8,0.2-1.7,0.2-2.5,0.2c-1.9-0.3-3.8,0-5.6,0.9l0,0C600.9,110.4,602.7,110.1,604.4,110.3z"/>
		</g>
		<path class="st34" d="M587.3,119.4c1.9-0.7,3.3-2.4,3.7-4.4c12.1-2.1,15-10.3,15-10.3c3.3,6,5.5,6.8,6,7.7c0,0,0.2-5.7-2.3-9.6
			c-2.8-4.5-8.3-6.6-13.4-5c-3.6,1-6.3,4.7-6.3,4.7s-4,1-5.1,4.5C583,112.9,587.3,119.4,587.3,119.4z"/>
		<path class="st34" d="M606.2,104.2c-0.2,1.6-0.8,3.2-1.8,4.6c-1,1.4-2.2,2.5-3.6,3.4l-1.1,0.6c-0.4,0.2-0.8,0.3-1.1,0.5
			c-0.8,0.3-1.6,0.6-2.4,0.8c-0.8,0.2-1.6,0.3-2.4,0.4s-1.6,0.1-2.5,0.1c0.8-0.1,1.6-0.3,2.4-0.4s1.6-0.4,2.4-0.6
			c1.6-0.4,3-1.1,4.4-1.9c1.4-0.8,2.6-1.9,3.6-3.2C605.1,107.3,605.8,105.8,606.2,104.2z"/>
		<path class="st11" d="M586.7,123.7c0.2,0.1,0.4,0.2,0.6,0.2c0.2,0.1,0.5,0.1,0.7,0.1c0.3,0,0.6-0.1,0.8-0.2
			c0.2-0.1,0.4-0.2,0.6-0.4c0.2-0.2,0.5-0.5,0.6-0.8l-0.4-3.9c0,0-2.7-4.8-4.8-3.9S584.4,122.6,586.7,123.7z"/>
		<path class="st14" d="M585.4,116.8c1.5,0.9,2.5,2.4,2.8,4.1c-0.3-0.7-1.1-1-1.8-0.7c-0.1,0-0.2,0.1-0.2,0.1c-0.1,0,0,0.1,0,0.1
			c0.6-0.1,1.3,0.1,1.6,0.7c0.3,0.4,0.5,0.9,0.7,1.4c0.1,0.2,0.3,0.1,0.3-0.1l0,0C589,120.4,587.6,117.3,585.4,116.8z"/>
		<path class="st10" d="M586.8,122.9c0,0.4,0.4,0.6,0.7,0.6c0.4,0,0.6-0.4,0.6-0.7s-0.4-0.6-0.7-0.6c0,0,0,0,0,0
			C587.1,122.2,586.8,122.5,586.8,122.9z"/>
		<path class="st34" d="M590.2,102.4c1.3-0.5,2.6-8-2.3-11.5c-4.9-3.5-11.2,0.5-8.5,6.6C581,101.3,587.4,103.4,590.2,102.4z"/>
		<path class="st34" d="M581,90.4c-1.4,1.2-2.4,2.9-2.8,4.7c-0.4,1.8,0.2,3.6,1.5,4.8c1.4,1.2,3.1,2,4.9,2.4
			c0.9,0.2,1.9,0.3,2.8,0.4c1,0.1,1.9,0,2.8-0.3c-1.2,0.6-1.8,0.8-2.8,0.8c-1,0.1-2,0.1-3-0.1c-2-0.2-3.9-1.1-5.5-2.4
			c-0.8-0.7-1.3-1.6-1.6-2.7c-0.3-1-0.2-2.1,0.1-3.1C577.9,93,579.3,91.4,581,90.4z"/>
		
			<rect x="656.4" y="257.7" transform="matrix(0.9341 -0.3569 0.3569 0.9341 -48.6404 258.7249)" class="st27" width="40.7" height="7"/>
		
			<rect x="663.8" y="320.1" transform="matrix(0.9341 -0.3569 0.3569 0.9341 -70.4487 265.4784)" class="st27" width="40.7" height="7"/>
		<path class="st35" d="M667,401.5c-0.1-1.5-13.8-145.8-14.9-153.7c-2.4-16.9-8.8-28.1-32.8-28.1c-25.4,0-32.3,5.5-35.1,28.1
			c-3,23.7-14.8,152.5-15,153.8l-7-0.6c0.1-1.3,12-130.2,15-154c3.3-26.2,13.1-34.2,42.1-34.2c31,0,37.5,18.2,39.7,34.1
			c1.1,8.1,14.4,148.1,15,154L667,401.5z"/>
		<rect x="572.3" y="327.4" class="st35" width="91.5" height="7"/>
		<polygon class="st34" points="571.5,408.4 560,408.4 560.9,394.2 570.6,394.2 		"/>
		<polygon class="st34" points="676.3,408.4 664.7,408.4 665.6,394.2 675.4,394.2 		"/>
		<path class="st11" d="M581.1,141.8c-1.8,7.4-15.6,33.1-15.6,34.5s26.8,12.3,32,15.3c3.5,2.1-9.6,27.1-16.4,23.8
			c-10.6-5.2-41.5-20.6-43-31.3s29.3-42.6,35.3-48.3S584.1,129.6,581.1,141.8z"/>
		<path class="st11" d="M626.6,216.5c-0.6,1.8-2.3,3-4.2,3c0.4,1.5,0.2,3.1-0.5,4.6c-1.3,2.4-5.7,1.4-5.7,1.4
			c0.1,1.7-0.4,3.3-1.3,4.7c-1.5,2.2-6.1,1.8-6.1,1.8c-0.8,1.6-2.1,2.8-3.7,3.5c-4.4,1.6-10-2.8-13.6-5.5
			c-3.6-2.7-11.3-13.9-13-15.9l17.4-23.4c0,0,19.7,7.7,23.5,11.5C622.6,205.5,627.7,213.1,626.6,216.5z"/>
		<path class="st14" d="M622.5,219c-2.6-4.2-6.3-7.5-9.8-11c0,0-0.1,0-0.1,0c0,0,0,0.1,0,0.1c3.5,3.4,6.3,7.4,9.7,11
			C622.4,219.2,622.5,219.1,622.5,219z"/>
		<path class="st14" d="M616.3,225.1c-0.7-0.9-1.5-1.7-2.4-2.4c-0.9-0.8-1.8-1.6-2.7-2.4c-1.8-1.5-3.7-3-5.6-4.5
			c-0.1-0.1-0.2,0-0.1,0.1c1.8,1.5,3.7,3.1,5.4,4.7c0.9,0.8,1.8,1.6,2.6,2.4c0.8,0.8,1.6,1.6,2.6,2.2c0.1,0.1,0.2,0,0.2,0
			C616.4,225.3,616.4,225.2,616.3,225.1z"/>
		<path class="st14" d="M608.8,232c-0.6-0.8-1.4-1.5-2.2-2.1l-2.5-2.1c-1.7-1.4-3.4-2.8-5-4.2c0,0-0.1,0-0.1,0c0,0,0,0.1,0,0.1
			c1.7,1.5,3.3,3,5,4.4l2.5,2.1C607,231,607.9,231.6,608.8,232C608.7,232.1,608.8,232,608.8,232z"/>
		<linearGradient id="SVGID_15_" gradientUnits="userSpaceOnUse" x1="536.9286" y1="172.9425" x2="596.8" y2="172.9425">
			<stop  offset="0" style="stop-color:#FFDB00"/>
			<stop  offset="1" style="stop-color:#FFAE08"/>
		</linearGradient>
		<path class="st51" d="M596.8,187.9L574.6,215c0,0-34.3-18.1-37.5-29.6c-3-10.6,32.1-47.6,37.6-52.1c5.4-4.5,11-3.5,6.1,10.7
			c-5,14.7-15.1,30.9-14.4,32C567.1,177.1,596.8,187.9,596.8,187.9z"/>
		<path class="st10" d="M568.1,168.2c0.2-0.5,0.6-1,0.9-1.4c-0.1,0.5-0.3,1.1-0.6,1.6c-0.2,0.5-0.6,1-0.9,1.4
			C567.7,169.2,567.8,168.7,568.1,168.2z M544.1,171.3c0.4-0.4,0.7-0.9,0.9-1.4c0.3-0.5,0.4-1,0.5-1.6c-0.4,0.4-0.7,0.9-0.9,1.4
			C544.4,170.2,544.2,170.8,544.1,171.3L544.1,171.3z M579.3,195.3c0.4-0.4,0.7-0.9,0.9-1.4c0.3-0.5,0.4-1,0.6-1.6
			c-0.4,0.4-0.7,0.9-0.9,1.4C579.6,194.2,579.4,194.7,579.3,195.3L579.3,195.3z M565.6,208.3c0.4-0.4,0.7-0.9,0.9-1.4
			c0.3-0.5,0.4-1,0.5-1.6c-0.4,0.4-0.7,0.9-0.9,1.4C565.9,207.2,565.7,207.7,565.6,208.3L565.6,208.3z M554.2,185.6
			c0.4-0.4,0.7-0.9,0.9-1.4c0.3-0.5,0.4-1,0.6-1.6c-0.4,0.4-0.7,0.9-0.9,1.4C554.5,184.5,554.3,185,554.2,185.6L554.2,185.6z
			 M581.2,131.3c-0.2,0.2-0.3,0.5-0.4,0.8c-0.3,0.5-0.4,1-0.6,1.6c0.4-0.4,0.7-0.9,0.9-1.4c0.1-0.2,0.2-0.5,0.3-0.7L581.2,131.3z
			 M572.2,199.6c-0.4-0.4-0.9-0.7-1.4-0.9c-0.5-0.3-1-0.4-1.6-0.6c0.4,0.4,0.9,0.7,1.4,0.9C571.1,199.2,571.6,199.4,572.2,199.6
			L572.2,199.6z M586.7,185.6c-0.4-0.4-0.9-0.7-1.4-0.9c-0.5-0.3-1-0.4-1.6-0.6c0.4,0.4,0.9,0.7,1.4,0.9
			C585.6,185.3,586.1,185.4,586.7,185.6L586.7,185.6z M570.5,147c-0.4-0.4-0.9-0.7-1.4-0.9c-0.5-0.3-1-0.4-1.6-0.6
			c0.4,0.4,0.9,0.7,1.4,0.9C569.4,146.7,569.9,146.9,570.5,147L570.5,147z M565.6,180.4c-0.4-0.4-0.9-0.7-1.4-0.9
			c-0.5-0.3-1-0.4-1.6-0.6c0.4,0.4,0.9,0.7,1.4,0.9C564.6,180.1,565.1,180.3,565.6,180.4L565.6,180.4z M550,193.8
			c-0.4-0.4-0.9-0.7-1.4-0.9c-0.5-0.3-1-0.4-1.6-0.6c0.4,0.4,0.9,0.7,1.4,0.9C548.9,193.5,549.5,193.7,550,193.8z M554.2,164.2
			c-0.4-0.4-0.9-0.7-1.4-0.9c-0.5-0.3-1-0.4-1.6-0.6c0.4,0.4,0.9,0.7,1.4,0.9C553.1,163.9,553.7,164.1,554.2,164.2L554.2,164.2z
			 M540.5,186.1c0.6,0,1.1-0.1,1.6-0.3c0.5-0.2,1-0.4,1.5-0.7c-0.6,0-1.1,0.1-1.6,0.3C541.4,185.6,540.9,185.8,540.5,186.1
			L540.5,186.1z M561.4,192.5c0.6,0,1.1-0.2,1.6-0.3c0.5-0.2,1-0.4,1.5-0.7c-0.6,0-1.1,0.2-1.6,0.3
			C562.4,192,561.9,192.2,561.4,192.5L561.4,192.5z M587.8,194.3c0.6,0,1.1-0.2,1.6-0.3c0.5-0.2,1-0.4,1.5-0.7
			c-0.6,0-1.1,0.2-1.6,0.3C588.7,193.8,588.2,194,587.8,194.3L587.8,194.3z M577.6,204.5c0.6,0,1.1-0.1,1.6-0.3
			c0.5-0.2,1-0.4,1.5-0.7c-0.6,0-1.1,0.1-1.6,0.3C578.6,203.9,578.1,204.2,577.6,204.5L577.6,204.5z M576,155.8l-0.3,0.1
			c-0.5,0.2-1.1,0.3-1.6,0.3c0.5-0.3,1-0.6,1.5-0.7c0.2-0.1,0.4-0.1,0.6-0.2L576,155.8z M556.1,172c0.6,0,1.1-0.1,1.6-0.3
			c0.5-0.2,1-0.4,1.5-0.7c-0.6,0-1.1,0.1-1.6,0.3C557.1,171.5,556.6,171.7,556.1,172z M563,156.5c0,0.6,0.2,1.1,0.3,1.6
			c0.2,0.5,0.4,1,0.7,1.5c0-0.6-0.2-1.1-0.3-1.6C563.6,157.5,563.3,156.9,563,156.5z M571.8,184.5c0,0.6,0.1,1.1,0.3,1.6
			c0.2,0.5,0.4,1,0.7,1.5c0-0.6-0.1-1.1-0.3-1.6C572.4,185.5,572.1,184.9,571.8,184.5L571.8,184.5z M546.8,176.1
			c0,0.6,0.2,1.1,0.3,1.6c0.2,0.5,0.4,1,0.7,1.5c0-0.6-0.2-1.1-0.3-1.6C547.4,177.1,547.1,176.6,546.8,176.1L546.8,176.1z
			 M556.6,197.6c0.1,1.1,0.4,2.2,1.1,3.1C557.6,199.6,557.2,198.5,556.6,197.6z M576.7,139.3c0,0.6,0.1,1.1,0.3,1.7
			c0.2,0.5,0.4,1,0.7,1.5c0-0.6-0.2-1.1-0.3-1.6C577.2,140.3,577,139.8,576.7,139.3L576.7,139.3z"/>
		<path class="st14" d="M589.5,186.7c-1.7,1.8-3.3,3.7-4.9,5.6s-3.3,3.8-4.9,5.8c-1.6,1.9-3.2,3.8-4.8,5.7c-1.6,1.9-3,3.9-4.5,5.9
			c0,0.1,0.1,0.2,0.1,0.1c1.6-1.9,3.4-3.6,5-5.5s3.2-3.9,4.8-5.8c1.6-2,3-3.8,4.6-5.7s3.2-3.9,4.7-5.9
			C589.7,186.7,589.6,186.6,589.5,186.7z"/>
		<path class="st14" d="M575.1,157.8c0.9-2,1.7-4,2.6-6c0-0.1,0-0.1-0.1,0c-2.1,4-4,8-5.9,12c-1,2-5.5,12.4-5.5,12.4
			c3.9,1.7,7.8,3.4,11.7,5s17.5,6.7,18.7,7c-0.1,0.2-0.8,1-0.9,1.1s0.1,0,0.2,0s1.3-1.3,1.3-1.3c-1.9-0.9-20.2-7.8-24.2-9.4
			c-2.2-0.9-4-1.7-6.2-2.5c0.5-1,2.3-4.9,2.7-5.9c1-2,1.9-4,2.8-6.1c0.8-1.7,1.5-3.4,2.3-5.1"/>
	</g>
</g>
<g id="老人圖" class="st0">
</g>
<g id="照相機" class="st0">
</g>
<g id="圖層_10" class="st0">
</g>
<g id="圖層_8" class="st0">
</g>
<g id="地圖" class="st0">
</g>
<g id="裝飾線" class="st0">
</g>
<g id="圖層_1" class="st0">
</g>
</svg>
