<?xml version="1.0" encoding="utf-8"?>
<!-- Generator: Adobe Illustrator 21.1.0, SVG Export Plug-In . SVG Version: 6.00 Build 0)  -->
<svg version="1.1" xmlns="http://www.w3.org/2000/svg" xmlns:xlink="http://www.w3.org/1999/xlink" x="0px" y="0px"
	 viewBox="0 0 1200 461" style="enable-background:new 0 0 1200 461;" xml:space="preserve">
<style type="text/css">
	.st0{clip-path:url(#SVGID_2_);fill:#FFEFDE;}
	
		.st1{clip-path:url(#SVGID_2_);fill:none;stroke:#110D26;stroke-width:1.4755;stroke-linecap:round;stroke-linejoin:round;stroke-miterlimit:10;}
	.st2{clip-path:url(#SVGID_2_);fill:#A68AFF;}
	.st3{clip-path:url(#SVGID_2_);fill:#FF7E5F;}
	.st4{clip-path:url(#SVGID_2_);fill:#110D26;}
	.st5{clip-path:url(#SVGID_2_);}
	.st6{fill:#FF7E5F;}
	.st7{opacity:0.35;}
	.st8{fill:#FFFFFF;}
	.st9{fill:#FFC4AF;}
	.st10{fill:#DF947F;}
	.st11{opacity:0.5;fill:#FFFFFF;}
	.st12{fill:#263238;}
	.st13{clip-path:url(#SVGID_2_);fill:#FFFFFF;}
	.st14{display:none;}
	.st15{display:inline;}
	.st16{clip-path:url(#SVGID_4_);fill:#FEECE9;}
	.st17{clip-path:url(#SVGID_4_);}
	.st18{fill:#110D26;}
	.st19{clip-path:url(#SVGID_4_);fill:#110D26;}
	.st20{clip-path:url(#SVGID_4_);fill:#8740E8;}
	.st21{clip-path:url(#SVGID_4_);fill:#FF7E5F;}
	.st22{clip-path:url(#SVGID_4_);fill:url(#SVGID_5_);}
	
		.st23{clip-path:url(#SVGID_4_);fill:none;stroke:#110D26;stroke-width:1.4755;stroke-linecap:round;stroke-linejoin:round;stroke-miterlimit:10;}
	
		.st24{clip-path:url(#SVGID_4_);fill:none;stroke:#110D26;stroke-width:1.0414;stroke-linecap:round;stroke-linejoin:round;stroke-miterlimit:10;}
	.st25{clip-path:url(#SVGID_4_);fill:#FFFFFF;}
	.st26{fill:#EBEBEB;}
	.st27{fill:#C7C7C7;}
	.st28{fill:url(#SVGID_6_);}
	.st29{fill:url(#SVGID_7_);}
	.st30{fill:url(#SVGID_8_);}
	.st31{fill:url(#SVGID_9_);}
	.st32{opacity:0.1;enable-background:new    ;}
	.st33{fill:url(#SVGID_10_);}
	.st34{fill:#A6A6A6;}
	.st35{fill:#DBDBDB;}
	.st36{fill:#455A64;}
	.st37{fill:url(#SVGID_11_);}
	.st38{fill:none;}
	.st39{fill:#FF99BA;}
	.st40{fill:#37474F;}
	.st41{opacity:0.2;}
	.st42{clip-path:url(#SVGID_13_);fill:#FFEFDE;}
	.st43{clip-path:url(#SVGID_13_);}
	.st44{opacity:0.6;}
	.st45{fill:#E0E0E0;}
	.st46{fill:#FAFAFA;}
	.st47{fill:#AA6550;}
	.st48{fill:url(#SVGID_14_);}
	.st49{opacity:0.3;}
	.st50{fill:#684B46;}
	.st51{fill:url(#SVGID_15_);}
	.st52{fill:url(#SVGID_16_);}
	.st53{fill:url(#SVGID_17_);}
	.st54{fill:url(#SVGID_18_);}
	.st55{fill:url(#SVGID_19_);}
	.st56{opacity:0.4;}
	.st57{clip-path:url(#SVGID_13_);fill:#8740E8;}
	.st58{clip-path:url(#SVGID_13_);fill:url(#SVGID_20_);}
	.st59{clip-path:url(#SVGID_13_);fill:#FFFFFF;}
	.st60{clip-path:url(#SVGID_13_);fill:#110D26;}
	
		.st61{clip-path:url(#SVGID_13_);fill:none;stroke:#110D26;stroke-width:1.4755;stroke-linecap:round;stroke-linejoin:round;stroke-miterlimit:10;}
	.st62{display:inline;fill:#FFEFDE;}
	.st63{display:inline;fill:#FEECE9;}
	.st64{fill:url(#SVGID_21_);}
	.st65{fill:url(#SVGID_22_);}
	.st66{fill:url(#SVGID_23_);}
	.st67{fill:#FF9BBC;}
	.st68{fill:url(#SVGID_24_);}
	.st69{opacity:0.2;enable-background:new    ;}
	.st70{fill:url(#SVGID_25_);}
	.st71{fill:url(#SVGID_26_);}
	.st72{fill:url(#SVGID_27_);}
	.st73{fill:url(#SVGID_28_);}
	.st74{fill:url(#SVGID_29_);}
	.st75{fill:none;stroke:#FFFFFF;stroke-linecap:round;stroke-linejoin:round;}
	.st76{fill:url(#SVGID_30_);}
	.st77{fill:url(#SVGID_31_);}
	.st78{fill:url(#SVGID_32_);}
	.st79{opacity:0.5;fill:#FFFFFF;enable-background:new    ;}
	.st80{fill:none;stroke:#263238;stroke-width:0.5;stroke-linecap:round;stroke-linejoin:round;}
	.st81{fill:url(#SVGID_33_);}
	.st82{opacity:0.6;fill:#FFFFFF;enable-background:new    ;}
	.st83{fill:url(#SVGID_34_);}
	.st84{fill:url(#SVGID_35_);}
	.st85{fill:url(#SVGID_36_);}
	.st86{fill:none;stroke:#263238;stroke-linecap:round;stroke-linejoin:round;}
	.st87{fill:url(#SVGID_37_);}
	.st88{opacity:0.2;fill:#FFFFFF;enable-background:new    ;}
	.st89{opacity:0.3;fill:#FFFFFF;enable-background:new    ;}
	.st90{fill:url(#SVGID_38_);}
	.st91{fill:url(#SVGID_39_);}
	.st92{fill:none;stroke:#263238;stroke-width:0.708;stroke-linecap:round;stroke-linejoin:round;}
	.st93{fill:#DE5753;}
	.st94{fill:#F5F5F5;}
	.st95{fill:url(#SVGID_40_);}
	.st96{fill:url(#SVGID_41_);}
	.st97{fill:url(#SVGID_42_);}
	.st98{fill:url(#SVGID_43_);}
	.st99{fill:url(#SVGID_44_);}
	.st100{fill:#F6957F;}
	.st101{fill:url(#SVGID_45_);}
	.st102{fill:url(#SVGID_46_);}
	.st103{fill:url(#SVGID_47_);}
	.st104{fill:url(#SVGID_48_);}
	.st105{fill:url(#SVGID_49_);}
	.st106{fill:url(#SVGID_50_);}
	.st107{fill:url(#SVGID_51_);}
	.st108{fill:#FFC5B0;}
	.st109{fill:url(#SVGID_52_);}
	.st110{fill:url(#SVGID_53_);}
	.st111{fill:url(#SVGID_54_);}
	.st112{display:inline;fill:#FF8B57;}
	.st113{display:inline;fill-rule:evenodd;clip-rule:evenodd;}
	.st114{display:inline;fill:#CCCCCC;}
	.st115{display:inline;fill:#FFDBD0;}
	.st116{fill:#FDFDFD;}
	.st117{fill:#E5E9EB;}
	.st118{fill:#F7F8F9;}
	.st119{fill:#201E22;}
	.st120{fill:#CEE8D6;}
	.st121{fill:#8C8488;}
	.st122{fill:#DCDFE4;}
	.st123{fill:#1E1D1D;}
	.st124{fill:#242328;}
	.st125{fill:#EEF1F1;}
	.st126{fill:#F8F9FA;}
	.st127{fill:#9CC0F8;}
	.st128{fill:#F5F6F7;}
	.st129{fill:#DFE1E4;}
	.st130{fill:#707173;}
	.st131{fill:#8B858A;}
	.st132{fill:#F6F7F8;}
	.st133{fill:#525155;}
	.st134{fill:#F0F0F0;stroke:#CCCCCC;stroke-miterlimit:10;}
	.st135{fill:#FFAF00;}
	.st136{fill:#FFFFFF;stroke:#FFFFFF;stroke-width:5;stroke-miterlimit:10;}
	.st137{fill:none;stroke:#FFFFFF;stroke-width:2;stroke-miterlimit:10;}
</style>
<g id="banner3">
	<g>
		<defs>
			<rect id="SVGID_1_" width="1200" height="461"/>
		</defs>
		<clipPath id="SVGID_2_">
			<use xlink:href="#SVGID_1_"  style="overflow:visible;"/>
		</clipPath>
		<path class="st0" d="M1200,461l0-432.7c-8-8.9-20-15.6-35.5-10.7c-10.3,3.2-18.3,11.8-28,20.9c-23.8,22.3-69,46.8-200.4,62.6
			c-320.3,38.4-127.3,260.1-360.2,295.9c-198,30.5-170.5-39.4-333.4-54.4c-130.1-12-195.4,21.9-242.5,53V461H1200z"/>
		<circle class="st1" cx="698.5" cy="125" r="7.1"/>
		<circle class="st2" cx="490.7" cy="396.4" r="22.6"/>
		<path class="st3" d="M513.2,398.1c0-0.6,0.1-1.1,0.1-1.7c0-12.5-10.1-22.6-22.6-22.6c-12.5,0-22.6,10.1-22.6,22.6
			c0,0.6,0,1.1,0.1,1.7H513.2z"/>
		<circle class="st4" cx="492.9" cy="346.8" r="6.6"/>
		<path class="st1" d="M348.2,473.7c8.2-17,11.1-37.1,5-54.9c-11.2-32.7-46.5-43.3-73.8-21.7c-14.1,11.2-4.4,30.2,8.1,16.9
			c4.2-4.5,4.1-12.3-0.2-16.6c-5.2-5.3-13.9-4.7-21.1-2.8c-47,12.2-79.1,58.8-126.2,70.7"/>
		<g class="st5">
			<path class="st6" d="M1009.5,85.1c-47.1-64.6-113.9,11-113.9,11s-62.3-79.3-113.1-17.6c-50.8,61.8,108.1,188.1,108.1,188.1
				S1056.5,149.8,1009.5,85.1z"/>
			<g class="st7">
				<path class="st8" d="M991.1,108.6c-5,1.6-10.4-0.3-13.2-4.8c-3-4.7-7.9-10.2-14.9-11.8c-4.8-1.1-7.7-5.8-6.6-10.6
					c1.1-4.8,5.8-7.7,10.6-6.6c15.3,3.5,24.1,15.6,28.3,23.7C997.2,102.5,995.2,107.3,991.1,108.6L991.1,108.6z"/>
			</g>
			<g class="st7">
				<path class="st8" d="M878.3,241.9c-8.8-8.5-32.6-34.9-32.6-34.9c-3.9-3.7-9.4-12.6-5.7-16.5c3.7-3.9,14.5,5.9,18.4,9.7
					c0,0,17.3,21.1,27,28.1c10.6,7.7,15,13.7,11.2,17.6C894.7,247.7,886.1,249.3,878.3,241.9z"/>
			</g>
			<path class="st9" d="M737.7,228.5c1.5,6.4,4.3,18.8,15.1,33.8c7.8,10.8,22.7,26.8,37.2,47.6c10.5,15,16.6,23.9,19.9,28.9
				c2.4,3.5,4,7.4,4.8,11.5l-25.2,75.6l59.8,5.2c0,0,22.5-78.7,22.6-111.7c0,0,0,0,0,0c0-3.8,0-7.9,0.1-12.3
				c0.4-20.2,6.3-36.1-52.1-36.7c-0.2,0-0.5-0.2-0.7-0.3c-2.3-0.9-5.8-2.5-10.9-6.6c-0.9-0.7-1.8-1.5-2.7-2.3
				c-5.7-5-11.1-9-16.2-12.1C763,232.6,736.4,222.6,737.7,228.5z"/>
			<path class="st9" d="M733.5,190.1c0.9-9.5,7.9-39.4,7.9-39.4s6.9,1.6,9.5,6c7.4,13,5,38.5,4.6,38.7c0,0,12.1,23.2,14.1,38.1
				c0,0,0,0,0,0s32,17.4,38.8,29.8c0.4,0.8,0.7,1.5,1,2.2c0.9,2.8,1.3,6.6,1.3,10.9c-0.2,15.1-6.2,35.5-15.1,34
				c-2.2-0.4-53.7-58-55.9-68.1C739.2,240,733.1,195.2,733.5,190.1z"/>
			<path class="st9" d="M816.8,254.8c0,0,1.5,14.7-13.7,1.8l-1.2,16.8l21.1,11.3l7.2-12.4L816.8,254.8z"/>
			<path class="st9" d="M743,165.5c0.3-0.6,0.5-1.2,0.6-1.8c0,0,0.8-5.8,1.4-10c0.4-2.8-1.5-5.1-2.6-5.5c-0.7-0.3-4.8,10.6-5,20.8
				C739.8,169.1,741.9,167.5,743,165.5z"/>
			<path class="st10" d="M769.7,233.6c6.9,2.3,49,30.9,51.3,31.8c5.3,6.6,6.2,16.5,3.6,17.6c-3.5,1.5-11.2-1.5-16.4-6.2
				c-6.9-6.3-8.9-14.7-11-19.4c-0.9-2.1-7.1-5.1-9.4-8.2C781.7,241.2,770.4,234.2,769.7,233.6z"/>
			<g>
				<path class="st9" d="M850.2,261c0,0-54.8-44.1-60.9-55.4c0,0-9.6,3.5-5.8,18.1c3.8,14.6,30.8,40.9,32.4,51.3
					c6,39,28.2,51,28.2,51S904.2,304.6,850.2,261z"/>
				<path class="st9" d="M792.9,221.9c-0.5-0.4-0.9-0.9-1.3-1.4c0,0-3.2-5-5.6-8.6c-1.6-2.4-1.1-5.5,1.2-7.4
					c0.6-0.5,0.9-0.7,0.9-0.7c2.7,2.3,9.5,6.6,14.1,15.9C799.6,221.5,794.7,223.4,792.9,221.9z"/>
			</g>
			<g>
				<path class="st6" d="M870.3,369.1c0,0-0.3,7.3-0.7,18.8c0,0.3,0,0.6,0,0.9c-0.6,15.8-1.9,48.6-3,72.1c-34.7,0-73.5,0-106.2,0
					c9.6-19.3,30.8-60.2,40.8-79.1c4.7-9,8-15.1,8.4-15.9c0-0.1,0-0.1,0-0.1c0.6-0.8,1.2-1.5,1.8-2.2c0.9-0.9,1.9-1.7,3.1-2.3
					c9.2-5.4,24.5-2.8,36.7,0.7c5.6,1.6,10.6,3.5,14.1,4.9c2.4,0.9,4,1.7,4.6,2C870.2,369.1,870.3,369.1,870.3,369.1z"/>
				<path class="st11" d="M869.5,388.9c0,0-24.2,6.5-38.2,6.7l-5.2-9.6l-4.5,8.1c0,0-17.7-5.4-21.3-10.6l12.3-22.2l57.3,1.1
					L869.5,388.9z"/>
				<path class="st12" d="M868.5,350.3c0,0,7.5,17.3,9,37.8c0,0-29.1,3.2-43,1.5l-6.1-24.1l-8.8,20.9c0,0-16.1-2.1-21.6-6.4
					c0,0,10.4-17.8,16.9-29.6C814.9,350.5,841.9,358.6,868.5,350.3z"/>
				<path class="st6" d="M850.9,383.4c0.7-1.3,0.2-3-1.2-3.6c-1.4-0.7-3.1-0.2-3.9,1.2c-0.7,1.3-0.2,3,1.2,3.6
					C848.5,385.3,850.2,384.8,850.9,383.4z"/>
			</g>
			<path class="st9" d="M1043.5,228.5c-1.5,6.4-4.3,18.8-15.1,33.8c-7.8,10.8-22.7,26.8-37.2,47.6c-10.5,15-16.6,23.9-19.9,28.9
				c-2.4,3.5-4,7.4-4.8,11.5l25.2,75.6l-59.8,5.2c0,0-22.5-78.7-22.6-111.7c0,0,0,0,0,0c0-3.8,0-7.9-0.1-12.3
				c-0.4-20.2-6.3-36.1,52.1-36.7c0.2,0,0.5-0.2,0.7-0.3c2.3-0.9,5.8-2.5,10.9-6.6c0.9-0.7,1.8-1.5,2.7-2.3c5.7-5,11.1-9,16.2-12.1
				C1018.2,232.6,1044.8,222.6,1043.5,228.5z"/>
			<path class="st9" d="M1047.6,190.1c-0.9-9.5-7.9-39.4-7.9-39.4s-6.9,1.6-9.5,6c-7.4,13-5,38.5-4.6,38.7c0,0-12.1,23.2-14.1,38.1
				c0,0,0,0,0,0s-32,17.4-38.8,29.8c-0.4,0.8-0.7,1.5-1,2.2c-0.9,2.8-1.3,6.6-1.3,10.9c0.2,15.1,6.2,35.5,15.1,34
				c2.2-0.4,53.7-58,55.9-68.1C1042,240,1048.1,195.2,1047.6,190.1z"/>
			<path class="st9" d="M964.4,254.8c0,0-1.5,14.7,13.7,1.8l1.2,16.8l-21.1,11.3l-7.2-12.4L964.4,254.8z"/>
			<path class="st9" d="M1038.2,165.5c-0.3-0.6-0.5-1.2-0.6-1.8c0,0-0.8-5.8-1.4-10c-0.4-2.8,1.5-5.1,2.6-5.5
				c0.7-0.3,4.8,10.6,5,20.8C1041.3,169.1,1039.2,167.5,1038.2,165.5z"/>
			<path class="st10" d="M1011.5,233.6c-6.9,2.3-49,30.9-51.3,31.8c-5.3,6.6-6.2,16.5-3.6,17.6c3.5,1.5,11.2-1.5,16.4-6.2
				c6.9-6.3,8.9-14.7,11-19.4c0.9-2.1,7.1-5.1,9.4-8.2C999.5,241.2,1010.7,234.2,1011.5,233.6z"/>
			<g>
				<path class="st9" d="M930.9,261c0,0,54.8-44.1,60.9-55.4c0,0,9.6,3.5,5.8,18.1c-3.8,14.6-30.8,40.9-32.4,51.3
					c-6,39-28.2,51-28.2,51S876.9,304.6,930.9,261z"/>
				<path class="st9" d="M988.3,221.9c0.5-0.4,0.9-0.9,1.3-1.4c0,0,3.2-5,5.6-8.6c1.6-2.4,1.1-5.5-1.2-7.4c-0.6-0.5-0.9-0.7-0.9-0.7
					c-2.7,2.3-9.9,7-14.5,16.2C980.8,221,986.5,223.4,988.3,221.9z"/>
			</g>
			<g>
				<path class="st6" d="M1021.1,461c-32.4,0-71.2,0-106.2,0c-1-23.5-2.6-56.3-3.2-72.1c0-0.3,0-0.6,0-0.9
					c-0.4-11.5-0.7-18.8-0.7-18.8s0.1-0.1,0.3-0.1c0.7-0.3,2.3-1,4.6-2c3.5-1.4,8.5-3.2,14.1-4.9c12.2-3.6,27.5-6.1,36.7-0.7
					c1.1,0.6,2.1,1.4,3.1,2.3c0.7,0.7,1.3,1.4,1.8,2.2c0,0,0,0,0,0.1c0.4,0.7,3.7,6.9,8.4,15.9C990,400.8,1011.4,441.7,1021.1,461z"
					/>
				<path class="st11" d="M911.6,388.9c0,0,24.2,6.5,38.2,6.7l5.2-9.6l4.5,8.1c0,0,17.7-5.4,21.3-10.6l-12.3-22.2l-57.3,1.1
					L911.6,388.9z"/>
				<path class="st12" d="M912.6,350.3c0,0-7.5,17.3-9,37.8c0,0,29.1,3.2,43,1.5l6.1-24.1l8.8,20.9c0,0,16.1-2.1,21.6-6.4
					c0,0-10.4-17.8-16.9-29.6C966.2,350.5,939.2,358.6,912.6,350.3z"/>
				<path class="st6" d="M930.2,383.4c-0.7-1.3-0.2-3,1.2-3.6c1.4-0.7,3.1-0.2,3.9,1.2s0.2,3-1.2,3.6
					C932.7,385.3,931,384.8,930.2,383.4z"/>
			</g>
		</g>
		<polygon class="st13" points="1124.1,146.7 1126.4,153.1 1132.5,150.1 1129.6,156.3 1136,158.6 1129.6,160.9 1132.5,167 
			1126.4,164.1 1124.1,170.5 1121.8,164.1 1115.7,167 1118.6,160.9 1112.2,158.6 1118.6,156.3 1115.7,150.1 1121.8,153.1 		"/>
		<circle class="st4" cx="1181.6" cy="397.1" r="12.1"/>
		<path class="st3" d="M1181.6,385c-0.3,0-0.5,0-0.8,0v24.2c0.3,0,0.5,0,0.8,0c6.7,0,12.1-5.4,12.1-12.1
			C1193.7,390.4,1188.3,385,1181.6,385z"/>
		<circle class="st4" cx="1033.9" cy="334.2" r="4.4"/>
		<path class="st1" d="M1207.5,334.5c5.4-22.9,5.9-46.8,1.5-69.9c-1.8-9.3-4.6-18.9-11.4-25.5c-6.8-6.6-18.6-8.8-25.6-2.4
			c-15.5,14.1,22.4,34.3,11.2-3.9c-2.5-8.6-7.9-16.1-12.3-23.9c-27.7-48.5-15.4-131.4,31.6-168.4"/>
		<polygon class="st13" points="704.5,394.2 705.6,397.4 708.7,395.9 707.2,399 710.4,400.1 707.2,401.3 708.7,404.3 705.6,402.9 
			704.5,406.1 703.4,402.9 700.3,404.3 701.7,401.3 698.6,400.1 701.7,399 700.3,395.9 703.4,397.4 		"/>
	</g>
</g>
<g id="banner2" class="st14">
	<g class="st15">
		<defs>
			<rect id="SVGID_3_" y="-505" width="1200" height="461"/>
		</defs>
		<clipPath id="SVGID_4_">
			<use xlink:href="#SVGID_3_"  style="overflow:visible;"/>
		</clipPath>
		<path class="st23" d="M1218.3-197c-20,12.4-37.3,29-50.5,48.4c-5.3,7.8-10.1,16.6-10,26.1c0.2,9.5,7,19.4,16.4,19.8
			c20.9,1,8.4-40.1-10.7-5.2c-4.3,7.9-5.8,16.9-8.2,25.6c-14.7,53.9-68.2,94.6-124.1,94.3"/>
	</g>
</g>
<g id="banner1" class="st14">
</g>
<g id="圖層_11" class="st14">
	<g id="freepik--group--inject-3" class="st15">
		<polygon class="st9" points="1138.6,392.6 1127,393.2 1131.3,412.6 1140.4,412.2 		"/>
		<polygon class="st69" points="1138.6,392.6 1127,393.2 1129.5,404.4 1139.6,404 		"/>
		<polygon class="st9" points="1056.5,413.6 1065.3,413.2 1069.8,392.8 1057.3,393.3 		"/>
		<polygon class="st69" points="1057.3,393.3 1069.8,392.8 1067.1,405.1 1056.8,405.5 		"/>
		<path class="st12" d="M1141.6,412h-10.7c-0.4,0-0.7,0.3-0.7,0.6l-1.7,7.8c-0.1,0.7,0.3,1.4,1,1.5c0.1,0,0.2,0,0.3,0
			c3.5-0.1,6-0.3,10.3-0.3c2.7,0,10.7,0.3,14.4,0.3s4.2-3.6,2.7-4c-6.8-1.5-11.9-3.5-14.1-5.4C1142.7,412.2,1142.2,412,1141.6,412z"
			/>
		<linearGradient id="SVGID_5_" gradientUnits="userSpaceOnUse" x1="1142.0793" y1="412.4026" x2="1146.6818" y2="412.4026">
			<stop  offset="0" style="stop-color:#FFDB00"/>
			<stop  offset="1" style="stop-color:#FFAE08"/>
		</linearGradient>
		<path style="fill:url(#SVGID_5_);" d="M1142.2,413.2c-0.1,0-0.2-0.1-0.2-0.2c0-0.1,0-0.2,0.1-0.2c0.3-0.2,3.2-2,4.1-1.4
			c0.2,0.1,0.4,0.3,0.4,0.6c0,0.4-0.1,0.8-0.4,1.1c-0.5,0.3-1.1,0.5-1.7,0.5C1143.8,413.5,1143,413.4,1142.2,413.2z M1142.8,412.9
			c1,0.3,2.2,0.3,3.1-0.2c0.2-0.2,0.3-0.5,0.3-0.7c0-0.2-0.1-0.2-0.1-0.2c-0.1,0-0.2-0.1-0.3-0.1
			C1144.8,411.9,1143.8,412.3,1142.8,412.9L1142.8,412.9z"/>
		<linearGradient id="SVGID_6_" gradientUnits="userSpaceOnUse" x1="1142.0811" y1="411.2783" x2="1144.8955" y2="411.2783">
			<stop  offset="0" style="stop-color:#FFDB00"/>
			<stop  offset="1" style="stop-color:#FFAE08"/>
		</linearGradient>
		<path class="st28" d="M1142.2,413.3c-0.1,0-0.1-0.1-0.1-0.2c0-0.1,0.2-2.6,1.2-3.5c0.2-0.2,0.6-0.3,0.9-0.3c0.3,0,0.6,0.2,0.7,0.5
			c0.2,0.9-1.6,2.9-2.5,3.4h-0.1C1142.3,413.2,1142.2,413.3,1142.2,413.3z M1143.6,409.8c-0.6,0.8-1,1.7-1.1,2.8
			c0.9-0.7,2-2.2,1.9-2.7c0,0,0-0.2-0.3-0.2h-0.1C1143.9,409.7,1143.7,409.7,1143.6,409.8L1143.6,409.8z"/>
		<path class="st12" d="M1067.6,411.7h-10.7c-0.4,0-0.7,0.3-0.7,0.6l-1.7,7.8c-0.1,0.7,0.3,1.4,1,1.5c0.1,0,0.2,0,0.3,0
			c3.5-0.1,6-0.3,10.3-0.3c2.7,0,10.7,0.3,14.4,0.3s4.2-3.7,2.7-4c-6.8-1.5-11.9-3.5-14.1-5.4
			C1068.6,411.9,1068.1,411.7,1067.6,411.7z"/>
		<linearGradient id="SVGID_7_" gradientUnits="userSpaceOnUse" x1="1068.012" y1="412.1158" x2="1072.6058" y2="412.1158">
			<stop  offset="0" style="stop-color:#FFDB00"/>
			<stop  offset="1" style="stop-color:#FFAE08"/>
		</linearGradient>
		<path class="st29" d="M1068.2,412.9c-0.1,0-0.1-0.1-0.2-0.2c0-0.1,0-0.2,0.1-0.2c0.3-0.2,3.2-2,4.1-1.4c0.2,0.1,0.4,0.3,0.4,0.6
			c0,0.4-0.1,0.8-0.4,1.1c-0.5,0.3-1.1,0.5-1.7,0.4C1069.7,413.2,1068.9,413.1,1068.2,412.9z M1068.8,412.6c1,0.3,2.1,0.3,3.1-0.2
			c0.2-0.2,0.3-0.5,0.3-0.7c0-0.2-0.1-0.2-0.1-0.2c-0.1,0-0.2,0-0.3,0C1070.7,411.7,1069.7,412.1,1068.8,412.6L1068.8,412.6z"/>
		<linearGradient id="SVGID_8_" gradientUnits="userSpaceOnUse" x1="1068.0144" y1="410.9967" x2="1070.8197" y2="410.9967">
			<stop  offset="0" style="stop-color:#FFDB00"/>
			<stop  offset="1" style="stop-color:#FFAE08"/>
		</linearGradient>
		<path class="st30" d="M1068.1,413c-0.1,0-0.1-0.1-0.1-0.2c0-0.1,0.2-2.6,1.2-3.5c0.2-0.2,0.6-0.3,0.9-0.3c0.3,0,0.6,0.2,0.7,0.5
			c0.2,0.9-1.6,2.9-2.5,3.4h-0.1C1068.2,413,1068.2,413,1068.1,413z M1069.5,409.5c-0.6,0.8-1,1.7-1.1,2.8c0.9-0.7,2-2.2,1.9-2.7
			c0-0.1,0-0.2-0.3-0.2h-0.1C1069.8,409.4,1069.6,409.4,1069.5,409.5L1069.5,409.5z"/>
		<path class="st12" d="M1140.8,386.1c0,2.6-1.9,4.9-4.5,5.2l-7.4,1.1c-2.8,0.4-5.4-1.5-5.8-4.3c-2.4-13.8-9.5-53.7-18.9-89.2
			c-4.8-18.1-10.2-35.1-15.9-46.8c-2.1,46.4-7.2,92.6-15.1,138.3c-0.4,2.5-2.6,4.3-5.1,4.3h-7.5c-2.9,0-5.2-2.3-5.2-5.2
			c0,0,0-0.1,0-0.1c0.5-22.8,2-113.7-2.2-165.5l48.5-27.9C1101.7,196.1,1137.4,243,1140.8,386.1z"/>
		<linearGradient id="SVGID_9_" gradientUnits="userSpaceOnUse" x1="1126.3496" y1="392.8873" x2="1139.5188" y2="392.8873">
			<stop  offset="0" style="stop-color:#FFDB00"/>
			<stop  offset="1" style="stop-color:#FFAE08"/>
		</linearGradient>
		<polygon class="st31" points="1126.3,392.1 1127.1,395.8 1139.5,393.9 1139.1,390 		"/>
		<path class="st75" d="M1078.7,229.8c0,0,2.4-9.3,1.6-15.3c0,0-4,11.7-6.5,8.9c-3.4-3.6,6.5-8.9,6.5-8.9s6.1-3.7,8.5-1.5
			c5.7,5.4-8.5,1.5-8.5,1.5s3.9,8.4,7,11.6"/>
		<path class="st8" d="M1059.8,394.2c0,0-0.1,0-0.1,0c-4.2-1.1-4-6.1-3.3-20.9c0.4-8.4,1-20,1.1-35.8c0.3-88.1-3.7-116.3-3.7-116.6
			c0-0.3,0.2-0.6,0.5-0.6c0.3,0,0.6,0.2,0.6,0.5c0,0.3,4,28.5,3.7,116.8c-0.1,15.9-0.6,27.5-1.1,35.9c-0.7,14.1-1,18.9,2.4,19.8
			c0.3,0.1,0.5,0.4,0.4,0.7c0,0,0,0,0,0C1060.2,394.1,1060,394.2,1059.8,394.2z"/>
		<path class="st69" d="M1104.1,298.9c-4.8-18.1-10.2-35.1-15.9-46.8c4.3-3,7.4-7.5,8.7-12.6
			C1096.9,239.5,1106.7,275.2,1104.1,298.9z"/>
		<linearGradient id="SVGID_10_" gradientUnits="userSpaceOnUse" x1="1056.3015" y1="394.9936" x2="1070.8171" y2="394.9936">
			<stop  offset="0" style="stop-color:#FFDB00"/>
			<stop  offset="1" style="stop-color:#FFAE08"/>
		</linearGradient>
		<polygon class="st33" points="1056.3,392.1 1056.3,396.7 1069.8,397.8 1070.8,393.9 		"/>
		<path class="st9" d="M1030.5,108.9l-13.7,4.7c0,0-1.4-2.4-8.9,4.9c-7.5,7.3-7.9,9.5-3.9,10.6c4.1,1.1,6.7,2,8.8,1.3
			c2.1-0.7,8.8-7.8,8.5-8.4c-0.2-0.7-0.2-1.5,0-2.2l12.1-4.2L1030.5,108.9z"/>
		<linearGradient id="SVGID_11_" gradientUnits="userSpaceOnUse" x1="1022.1461" y1="134.345" x2="1069.5729" y2="134.345">
			<stop  offset="0" style="stop-color:#FFDB00"/>
			<stop  offset="1" style="stop-color:#FFAE08"/>
		</linearGradient>
		<path class="st37" d="M1068.5,160.4l-6.8-3.2l-12.4-5.8c1.8-18.5,0.4-26.1-6.5-28.6c-5.5-1.9-11.2-2.9-17-3.1l-3.6-9.2
			c0,0,18.5-5,31,0c9.5,3.8,14.8,18.6,16.1,32.4l0,0C1069.9,148.8,1069.6,154.7,1068.5,160.4z"/>
		<path class="st69" d="M1068.5,160.4l-6.8-3.2c3.5-4,6-9.9,7.5-14.3C1069.9,148.7,1069.6,154.6,1068.5,160.4z"/>
		<linearGradient id="SVGID_13_" gradientUnits="userSpaceOnUse" x1="1021.7661" y1="189.8379" x2="1101.6395" y2="189.8379">
			<stop  offset="0" style="stop-color:#FFDB00"/>
			<stop  offset="1" style="stop-color:#FFAE08"/>
		</linearGradient>
		<path style="fill:url(#SVGID_13_);" d="M1101.6,196.1c0,0-17.7,13.2-48.2,32.1c0,0-3.9-7.1-9.3-16c-4-6.7-8.9-14.3-13.5-20.6
			c-2.6-3.8-5.6-7.3-8.8-10.6c0,0,24.3-13.2,27.6-29.5C1049.3,151.4,1073.1,153.4,1101.6,196.1z"/>
		<path class="st9" d="M1048.2,168c-2.6,3.7-9.4,8.9-15.9,9c0.3-2.1-0.1-4.2-1.1-6c-2.5-4.9-8.2-9.7-12.2-12.4l18-4.8
			c0.3,0.6,0.9,3.1,1.4,4.4c0.1,0.2,0.2,0.4,0.3,0.6c0.7,1.3,1.8,2.4,3.1,3.3c2.2,1.3,4.3-0.1,7.5-2.8
			C1051.9,160,1049.5,166.2,1048.2,168z"/>
		<path class="st69" d="M1038.4,158.3c0.2,5.3-2.6,10.2-7.2,12.8c-2.5-4.9-8.2-9.7-12.2-12.4l18-4.8
			C1037.3,154.5,1038,157,1038.4,158.3z"/>
		<path class="st12" d="M1015,138.6c-3.7,1.1-5.8,5-4.7,8.8c0,0,0,0,0,0.1c1.1,3.4,3,7,6.4,8.6c7.2,3.3,2.9-18.8,2.9-18.8
			L1015,138.6z"/>
		<path class="st79" d="M1015,138.6c-3.7,1.1-5.8,5-4.7,8.8c0,0,0,0,0,0.1c1.1,3.4,3,7,6.4,8.6c7.2,3.3,2.9-18.8,2.9-18.8
			L1015,138.6z"/>
		<path class="st9" d="M1036.9,161.9c-1.9,4.6-6.7,7.3-11.6,6.6c-3.5-0.4-6.7-2.3-8.8-5.3c-4.5-6.7-8-19.2-1.2-25.5
			c4.8-4.5,14-6.4,18.5-1.6c1.3,1.4,0.5,5.1,1.1,6.9C1037.6,151.4,1039.5,156.2,1036.9,161.9z"/>
		<path class="st12" d="M1023.4,150.1c0.3,0.6,0.1,1.3-0.3,1.5s-1-0.2-1.2-0.9c-0.2-0.7-0.1-1.3,0.3-1.5
			C1022.6,149,1023.2,149.4,1023.4,150.1z"/>
		<path class="st12" d="M1015.9,152.9c0.3,0.5,0.2,1.2-0.3,1.5c-0.4,0.2-1-0.2-1.2-0.9s-0.1-1.3,0.3-1.5S1015.7,152.3,1015.9,152.9z
			"/>
		<path class="st10" d="M1018.4,152.3c0,2.3-0.4,4.6-1,6.9c1.2,0.3,2.4,0.1,3.4-0.6L1018.4,152.3z"/>
		<path class="st12" d="M1011.9,150.8c0.2,0,0.3,0,0.4-0.2c0.6-0.9,1.6-1.4,2.7-1.4c0.2,0,0.4-0.2,0.4-0.4c0-0.2-0.2-0.4-0.4-0.4
			c0,0,0,0,0,0l0,0c-1.3,0-2.6,0.6-3.4,1.7c-0.1,0.2-0.1,0.4,0.1,0.6c0,0,0,0,0,0l0,0C1011.8,150.7,1011.9,150.7,1011.9,150.8z"/>
		<path class="st12" d="M1023.8,146.5c0.1,0,0.1-0.1,0.2-0.2c0.1-0.2,0-0.5-0.2-0.5l0,0c-1.3-0.5-2.7-0.3-3.8,0.4
			c-0.2,0.1-0.2,0.4-0.1,0.6l0,0c0.1,0.2,0.4,0.2,0.6,0.1l0,0c0.9-0.6,2-0.7,3-0.3C1023.6,146.6,1023.7,146.6,1023.8,146.5z"/>
		<path class="st12" d="M1030.8,134.1c-2.7-0.2-4.1,3.3-3,5.8c0.3,0.6,0.5,1.4,0.6,2.1c-0.2,3.5,3.1,7.7,6.1,8.8
			c0,0-0.4-1.4,0.9-1.4c1.2-0.1,3.2,7,2,11c0,0,2.3-4.1,1.9-11.9c0-3.1-0.5-6.2-1.4-9.2C1036.9,136.4,1032.9,134.3,1030.8,134.1z"/>
		<path class="st79" d="M1030.8,134.1c-2.7-0.2-4.1,3.3-3,5.8c0.3,0.6,0.5,1.4,0.6,2.1c-0.2,3.5,3.1,7.7,6.1,8.8
			c0,0-0.4-1.4,0.9-1.4c1.2-0.1,3.2,7,2,11c0,0,2.3-4.1,1.9-11.9c0-3.1-0.5-6.2-1.4-9.2C1036.9,136.4,1032.9,134.3,1030.8,134.1z"/>
		<path class="st9" d="M1041,148.5c-0.2,2.2-1.3,4.2-3,5.6c-2.3,1.8-4.5,0.1-4.9-2.6c-0.3-2.4,0.5-6.4,3.3-7.2
			C1039.2,143.5,1041.3,145.8,1041,148.5z"/>
		<path class="st12" d="M1031.5,147.7c0,0,0.3,4-1.9,6.8s-5.6,1-9.4,5.3c-1.1,0-2.3,0.3-3.3,0.9c-1.4,0.9-3.3-2.3-4-4.9
			c0,0-0.5,17.6,12.6,14.2c13.1-3.4,13.3-9.8,7.6-20.5L1031.5,147.7z"/>
		<path class="st79" d="M1031.5,147.7c0,0,0.3,4-1.9,6.8s-5.6,1-9.4,5.3c-1.1,0-2.3,0.3-3.3,0.9c-1.4,0.9-3.3-2.3-4-4.9
			c0,0-0.5,17.6,12.6,14.2c13.1-3.4,13.3-9.8,7.6-20.5L1031.5,147.7z"/>
		<path class="st80" d="M1026.1,158.1c-0.3,1.7-1.2,3.2-2.6,4.2"/>
		<path class="st10" d="M1021.7,151.6c0.7,1,2,1.5,3.1,1.1"/>
		<path class="st10" d="M1016.6,153.8c0,0-0.5,2.1-2.1,2"/>
		<path class="st10" d="M1012.9,145.3c0,0,3.3-3.7,9.7-2.7"/>
		<path class="st10" d="M1013.5,142.4c2.3-1.9,5.4-2.8,8.4-2.3"/>
		<path class="st69" d="M1044.1,212.2c-4-6.7-8.9-14.3-13.5-20.6l1.2-1.7C1031.7,189.9,1045.8,194.5,1044.1,212.2z"/>
		<path class="st9" d="M1041.1,229.8l9.2,2.6c0,0,0.5-0.9,3.4-1.3c3-0.4,1.7,4.8,1.9,10.6s-1.1,8-3.6,7.4c-2.6-0.6-3.6-8.7-3.6-8.7
			l-10.2-1.5L1041.1,229.8z"/>
		<linearGradient id="SVGID_14_" gradientUnits="userSpaceOnUse" x1="1007.0673" y1="210.5147" x2="1046.2157" y2="210.5147">
			<stop  offset="0" style="stop-color:#FFDB00"/>
			<stop  offset="1" style="stop-color:#FFAE08"/>
		</linearGradient>
		<path class="st48" d="M1021.8,180.9c-7.9,7.6-20.2,31-11.9,44.1c8.3,13.2,33.3,15.4,33.3,15.4l3.1-10.7c0,0-19.5-6.4-21.4-11.7
			s9.9-20.4,9.9-20.4s2.6-6.7-0.4-12.6S1021.8,180.9,1021.8,180.9z"/>
		<path class="st82" d="M1058.2,176.6l3.2-2l-0.3-2.3c0-0.1,0-0.2,0.1-0.3c0.1-0.1,0.2-0.1,0.3,0l3.8,2.7l-1-3.3
			c0-0.1,0-0.3,0.2-0.3c0.1,0,0.2,0,0.3,0.1l1.8,1.7V171c0-0.1,0-0.2,0.1-0.2l2.8-2.2c-0.5-1.3-1.5-2.2-2.8-2.7
			c-2.9-1.1-4.7,1.7-4.7,4.3c-2.5-0.6-5.6,0.5-5.2,3.6C1057,174.8,1057.5,175.8,1058.2,176.6z"/>
		<path class="st82" d="M1067.2,171.2v2.2c0,0.1-0.1,0.2-0.2,0.2c-0.1,0.1-0.2,0.1-0.3,0l-1.6-1.4l0.9,3.1c0,0.1,0,0.2-0.1,0.3
			c-0.1,0.1-0.2,0.1-0.3,0l-3.9-2.8l0.2,1.9c0,0.1,0,0.2-0.1,0.3l-3.2,2c2.4,1.9,6.7,1.7,9,1.4l0.9-0.1l0.3-0.8
			c0.7-1.9,1.7-5.4,1-8.2L1067.2,171.2z"/>
	</g>
	<g class="st15">
		<path class="st9" d="M574.2,135.7l-9.4-0.9c0,0-3.1-2.2-12.8,0.8c-0.9,0.3-0.2,3,2,7.4c0.2,0.4,2.8,0.2,5.5-0.1
			c5.1-0.6,5.2-1.1,5.3-2.2h7.8L574.2,135.7z"/>
		<polygon class="st9" points="590.5,412.9 583.6,411.4 584.5,401.6 585.4,392.6 593.8,393 592.1,403.5 		"/>
		<path class="st12" d="M582,411.7c0-0.8,9.5-0.2,9.5-0.2s5.8,5.9,11.5,7.3c5.7,1.3,2.5,4.7-3.8,4.7h-15.7
			C579,423.5,581.8,419.7,582,411.7z"/>
		<polygon class="st69" points="592,403.7 584.5,401.8 585.4,392.7 593.8,393.1 		"/>
		<polygon class="st9" points="654.6,412.1 647.6,412.1 646.4,402.3 645.4,393.4 653.7,392 654.2,402.7 		"/>
		<path class="st12" d="M646.1,411.7c0-0.8,9.5-0.2,9.5-0.2s5.8,5.9,11.5,7.3c5.7,1.3,2.5,4.7-3.8,4.7h-15.7
			C643.1,423.5,645.9,419.7,646.1,411.7z"/>
		<polygon class="st69" points="654.2,402.9 646.4,402.5 645.4,393.5 653.7,392.1 		"/>
		<linearGradient id="SVGID_15_" gradientUnits="userSpaceOnUse" x1="592.4711" y1="411.7007" x2="597.7314" y2="411.7007">
			<stop  offset="0" style="stop-color:#FFDB00"/>
			<stop  offset="1" style="stop-color:#FFAE08"/>
		</linearGradient>
		<path class="st51" d="M596.5,413.9c-1.4-0.2-2.7-0.6-3.9-1.2c0,0-0.1,0-0.1-0.1l0,0l0,0c0-0.1,0-0.1,0-0.2c0-0.1,0.8-2.3,2.1-2.8
			c0.4-0.2,0.8-0.2,1.2,0c0.4,0.2,0.6,0.5,0.6,0.8c0,0.5-0.7,1-1.5,1.4c0.7-0.1,1.5,0,2.2,0.2c0.3,0.1,0.4,0.4,0.5,0.6
			c0.1,0.4,0.1,0.8-0.2,1C597.2,413.9,596.8,414,596.5,413.9z M593.4,412.6c1.4,0.6,3.1,1.1,3.6,0.7c0,0,0.2-0.1,0.1-0.5
			c0-0.1-0.1-0.3-0.3-0.3C596.1,412.1,594.5,412.3,593.4,412.6z M595.1,409.9c-0.1,0-0.3,0-0.4,0.1c-0.7,0.5-1.3,1.2-1.6,2
			c1.4-0.5,2.8-1.3,2.8-1.7c0-0.1-0.2-0.3-0.3-0.3C595.4,410,595.3,409.9,595.1,409.9L595.1,409.9z"/>
		<linearGradient id="SVGID_16_" gradientUnits="userSpaceOnUse" x1="656.5261" y1="411.7007" x2="661.7865" y2="411.7007">
			<stop  offset="0" style="stop-color:#FFDB00"/>
			<stop  offset="1" style="stop-color:#FFAE08"/>
		</linearGradient>
		<path class="st52" d="M660.6,413.9c-1.4-0.2-2.7-0.6-3.9-1.2c0,0-0.1,0-0.1-0.1l0,0l0,0c0-0.1,0-0.1,0-0.2c0-0.1,0.8-2.3,2.1-2.8
			c0.4-0.2,0.8-0.2,1.2,0c0.4,0.2,0.6,0.5,0.6,0.8c0,0.5-0.7,1-1.5,1.4c0.7-0.1,1.5,0,2.2,0.2c0.3,0.1,0.4,0.4,0.5,0.6
			c0.1,0.4,0.1,0.8-0.2,1C661.2,413.9,660.9,414,660.6,413.9z M657.5,412.6c1.4,0.6,3.1,1.1,3.6,0.7c0,0,0.2-0.1,0.1-0.5
			c0-0.1-0.1-0.3-0.3-0.3C660.2,412.1,658.6,412.3,657.5,412.6z M659.2,409.9c-0.1,0-0.3,0-0.4,0.1c-0.7,0.5-1.3,1.2-1.6,2
			c1.4-0.5,2.8-1.3,2.8-1.7c0-0.1-0.2-0.3-0.3-0.3C659.5,410,659.3,409.9,659.2,409.9L659.2,409.9z"/>
		<linearGradient id="SVGID_17_" gradientUnits="userSpaceOnUse" x1="583.6606" y1="306.3768" x2="656.488" y2="306.3768">
			<stop  offset="0" style="stop-color:#FFDB00"/>
			<stop  offset="1" style="stop-color:#FFAE08"/>
		</linearGradient>
		<path class="st53" d="M617.6,215.5c0,0,38.9,33.1,38.9,178.8l-11.5,2.2c0,0-15.7-77.4-28.6-104.6c0,0-8.4,60.2-20.8,105.3
			l-11.9-2.2c0,0,2.4-70.3,1.7-104.7c-0.8-41-0.6-57.1-0.6-57.1L617.6,215.5z"/>
		<path class="st82" d="M656.5,394.3l-11.5,2.2c0,0-6.9-34.2-15.4-65.1c-4.2-15.6-8.9-30.4-13.2-39.5c0,0-8.4,60.2-20.8,105.3
			l-10-1.8l-1.1-0.2l-0.8-0.2c0,0,2.4-70.3,1.7-104.7c-0.8-41-0.6-57.1-0.6-57.1l1.4-0.9l1.1-0.7l30.3-16.2
			C617.5,215.5,656.5,248.6,656.5,394.3z"/>
		<path class="st69" d="M629.6,331.4c-4.2-15.6-8.9-30.4-13.2-39.5c0,0,1.5-13.7,1.9-28.1C618.4,263.9,636.2,295.8,629.6,331.4z"/>
		<path class="st86" d="M603.8,238.5c0,0,2-7.7,1.3-12.6c0,0-3.3,9.7-5.4,7.4c-2.8-3,5.4-7.4,5.4-7.4s5.1-3.1,7-1.2
			c4.7,4.5-7,1.2-7,1.2s3.2,6.9,5.8,9.6"/>
		<linearGradient id="SVGID_18_" gradientUnits="userSpaceOnUse" x1="584.4532" y1="313.5857" x2="587.2" y2="313.5857">
			<stop  offset="0" style="stop-color:#FFDB00"/>
			<stop  offset="1" style="stop-color:#FFAE08"/>
		</linearGradient>
		<path class="st54" d="M587.1,280.2c0.2,18.7,0.2,75.2-1.6,115.3l-1.1-0.2c1.7-40,1.7-96.4,1.5-115.1c-0.2-22.7-0.4-40,0.1-47.8
			l1.1-0.7C586.8,239,586.9,256.7,587.1,280.2z"/>
		<path class="st12" d="M602,171c-0.8,4.4-1.8,8.8-3.1,13.2l-4.2-3.1l-8.9-6.7c0,0,5.3-18.7,3-23.8c-2.3-5.1-19-9.5-19-9.5l0.2-6.7
			c0,0,19.7-1.5,29,9.2C604.3,149.5,603.6,161.6,602,171z"/>
		<path class="st88" d="M602,171c-0.8,4.4-1.8,8.8-3.1,13.2l-4.2-3.1l-8.9-6.7c0,0,5.3-18.7,3-23.8c-2.3-5.1-19-9.5-19-9.5l0.2-6.7
			c0,0,19.7-1.5,29,9.2C604.3,149.5,603.6,161.6,602,171z"/>
		<path class="st69" d="M602,171c-0.8,4.4-1.8,8.8-3.1,13.2l-4.2-3.1C597.7,178.1,600.1,174.7,602,171z"/>
		<path class="st12" d="M617.6,215.5c0,0-17.4,14.8-32.9,17.8c-2.2-3.3-4.8-6.3-7.8-8.8c-2.6-2.3-5.3-4.4-8.1-6.3
			c-0.7-0.4-1.5-1-2.3-1.7c-4-3.2-9-8.7-9-14.4c0-0.5,21-12,28.4-27.8C585.9,174.4,619.7,187.6,617.6,215.5z"/>
		<path class="st89" d="M617.6,215.5c0,0-17.4,14.8-32.9,17.8c-2.2-3.3-4.8-6.3-7.8-8.8c-2.6-2.3-5.3-4.4-8.1-6.3
			c-0.7-0.4-1.5-1-2.3-1.7c-4-3.2-9-8.7-9-14.4c0-0.5,21-12,28.4-27.8C585.9,174.4,619.7,187.6,617.6,215.5z"/>
		<linearGradient id="SVGID_19_" gradientUnits="userSpaceOnUse" x1="574.9426" y1="197.5864" x2="602.7143" y2="197.5864">
			<stop  offset="0" style="stop-color:#FFDB00"/>
			<stop  offset="1" style="stop-color:#FFAE08"/>
		</linearGradient>
		<path class="st55" d="M574.9,187.1c0,0,3.2-4.3,6.1-5.4c2.9-1.1,13.3,7.1,17.2,14.9c3.9,7.8,4.5,12.6,4.5,12.6s-1.8,3.1-4.1,1.9
			c-2.3-1.2-4.6,2.6-4.6,2.6S588.9,187.2,574.9,187.1z"/>
		<path class="st9" d="M581.2,193.6c-9.3,4.6-13.7,3.2-13.7,3.2c0.6-3.6-1.5-8-3.3-11c-0.8-1.2-1.6-2.4-2.5-3.6l11.3-3.1
			c0.5,1.4,1,2.7,1.7,4c2.7,4.8,5.3,3.9,5.8,3.7l0.1-0.1C584.1,188.5,581.2,193.6,581.2,193.6z"/>
		<path class="st69" d="M580.5,186.8c-1.6,2.2-4.2,4.5-8,3.7c-2.9-0.6-5.9-2.6-8.4-4.7c-0.8-1.2-1.6-2.4-2.5-3.6l11.3-3.1
			c0.5,1.4,1,2.7,1.7,4C577.4,187.9,580,187,580.5,186.8z"/>
		<linearGradient id="SVGID_20_" gradientUnits="userSpaceOnUse" x1="563.9826" y1="192.7662" x2="586.27" y2="192.7662">
			<stop  offset="0" style="stop-color:#FFDB00"/>
			<stop  offset="1" style="stop-color:#FFAE08"/>
		</linearGradient>
		<path style="fill:url(#SVGID_20_);" d="M566.5,190.7c0,0,6.2,3.9,10.7,1.6c5.9-3,2.4-10.2,2.4-10.2s4.3,1.5,6.4,9.2
			s-7,14.6-15.5,11.2s-6.2-5.5-6.2-5.5S564.3,190.7,566.5,190.7z"/>
		<path class="st88" d="M566.5,190.7c0,0,6.2,3.9,10.7,1.6c5.9-3,2.4-10.2,2.4-10.2s4.3,1.5,6.4,9.2s-7,14.6-15.5,11.2
			s-6.2-5.5-6.2-5.5S564.3,190.7,566.5,190.7z"/>
		<path class="st12" d="M561.5,152.6l-6.6,4.6c-0.9-0.1-1.7-0.4-2.5-0.8c-6.3-3.1-5.1-12.8,2.5-12.6c5.6,0.2,6.7,3.9,6.8,6.5
			C561.6,151.1,561.6,151.9,561.5,152.6z"/>
		<path class="st79" d="M561.6,150.3c-2-0.3-4.1,0-6,0.7c-2.3,0.7-3.7,3-3.3,5.4c-6.3-3.1-5.1-12.8,2.5-12.6
			C560.4,144,561.5,147.9,561.6,150.3z"/>
		<path class="st12" d="M558.7,151.9c-13.9,6.2-10.8,31.5,7.7,30.8c13.5-0.5,18.1-14.4,13.7-24C576.5,150.8,567.9,147.8,558.7,151.9
			z"/>
		<path class="st79" d="M558.7,151.9c-13.9,6.2-10.8,31.5,7.7,30.8c13.5-0.5,18.1-14.4,13.7-24C576.5,150.8,567.9,147.8,558.7,151.9
			z"/>
		<path class="st9" d="M568.8,157.3c8.6-0.6,11.7,3.8,13,12.6c1.6,11-0.3,19.1-11.2,17.5C555.7,185.3,554.5,158.3,568.8,157.3z"/>
		<path class="st10" d="M576.1,169.8c0.8,1.2,1.7,2.4,2.8,3.4c-0.5,0.8-1.3,1.2-2.2,1.1L576.1,169.8z"/>
		<path class="st92" d="M570.4,163.6c-1.4-0.1-2.7,0.5-3.6,1.6"/>
		<path class="st92" d="M576.5,162.8c1.2-0.4,2.5-0.2,3.5,0.5"/>
		<path class="st12" d="M560.4,172.5c0,0,3.5-7.4,2.5-12.8c0,0,16.6-8.2,18.7,9.1c0,0,0.6-15.5-14.3-14.8s-13.2,22.4-5.1,28.2
			C562.2,182.3,558.2,177.1,560.4,172.5z"/>
		<path class="st12" d="M577.2,177.2c-0.4,1-0.7,2-1,3.1c-0.2,0-0.4,0-0.6-0.1c-2.6-0.2-3.7-1.2-4.1-2.2c-0.2-0.5-0.3-1-0.3-1.6
			c0-0.3,0.1-0.6,0.2-0.9c1.5,0.9,3.2,1.4,5,1.5C576.9,177.2,577.2,177.2,577.2,177.2z"/>
		<path class="st93" d="M575.6,180.2c-2.6-0.2-3.7-1.2-4.1-2.2c1,0.1,1.9,0.4,2.8,0.8C574.9,179.2,575.3,179.6,575.6,180.2z"/>
		<path class="st79" d="M560.4,172.5c0,0,3.5-7.4,2.5-12.8c0,0,16.6-8.2,18.7,9.1c0,0,0.6-15.5-14.3-14.8s-13.2,22.4-5.1,28.2
			C562.2,182.3,558.2,177.1,560.4,172.5z"/>
		<path class="st9" d="M561.9,174.2c-0.3-2.1-2.2-3.5-4.3-3.2c0,0,0,0,0,0c-2.6,0.5-3.5,6,3.3,6.9
			C561.8,178.1,562.3,177.1,561.9,174.2z"/>
		<path class="st10" d="M572.5,174.4c0,0-2.4,1.4-2.5,3.6"/>
		<path class="st10" d="M578.9,174.5c0.5,1.1,0.8,2.2,0.7,3.4"/>
		<path class="st10" d="M570.8,169.9c0,0-0.1,2.2-2,1.8"/>
		<path class="st10" d="M577.9,169.1c0,0,0.7,1.9,2.2,1.2"/>
		<path class="st12" d="M570.8,169.6c0.1,0.7-0.3,1.3-0.7,1.4c-0.5,0-0.9-0.5-1-1.2s0.3-1.3,0.7-1.4
			C570.3,168.3,570.8,168.8,570.8,169.6z"/>
		<path class="st12" d="M569.7,168.4l1.5-0.7C571.1,167.6,570.5,169,569.7,168.4z"/>
		<path class="st12" d="M579.6,168.5c0.1,0.7-0.3,1.3-0.7,1.4s-0.9-0.5-1-1.2c-0.1-0.7,0.3-1.3,0.7-1.4
			C579.1,167.3,579.5,167.8,579.6,168.5z"/>
		<path class="st12" d="M578.4,167.4l1.5-0.7C579.9,166.6,579.3,168,578.4,167.4z"/>
		<path class="st10" d="M567.4,161.5c0,0,6.4-1.7,9.9-0.9"/>
		<path class="st10" d="M566.9,159.1c2.6-0.7,5.4-0.7,8.1,0"/>
		<path class="st69" d="M577,224.5c-2.6-2.3-5.3-4.4-8.1-6.3c-0.7-0.4-1.5-1-2.3-1.7l3.9-4.5C570.4,212,576.5,217.3,577,224.5z"/>
		<path class="st9" d="M578.9,246.7l7.4,1.9c0,0,4.1-0.2,4.1,3s-2.6,13-5.9,12.2c-3.3-0.8-7.5-2.9-6.4-4.3s4.2-5.4,4.2-5.4l-5-1.7
			L578.9,246.7z"/>
		<path class="st12" d="M557.5,202.1c-5.6,5.7-11.9,36.7-5.3,41.8c6.6,5.2,28.2,10.4,28.2,10.4l1.7-7.7c0,0-18.1-7.3-20.6-10.7
			c-2.5-3.4,10.4-22.8,10.4-22.8c-1-3.7-3.1-7-6.1-9.4C560.8,199.9,557.5,202.1,557.5,202.1z"/>
		<path class="st88" d="M557.5,202.1c-5.6,5.7-11.9,36.7-5.3,41.8c6.6,5.2,28.2,10.4,28.2,10.4l1.7-7.7c0,0-18.1-7.3-20.6-10.7
			c-2.5-3.4,10.4-22.8,10.4-22.8c-1-3.7-3.1-7-6.1-9.4C560.8,199.9,557.5,202.1,557.5,202.1z"/>
	</g>
</g>
<g id="老人圖" class="st14">
</g>
<g id="照相機" class="st14">
</g>
<g id="圖層_10" class="st14">
</g>
<g id="圖層_8" class="st14">
</g>
<g id="地圖" class="st14">
</g>
<g id="裝飾線" class="st14">
</g>
<g id="圖層_1" class="st14">
</g>
</svg>
