<?xml version="1.0" encoding="utf-8"?>
<!-- Generator: Adobe Illustrator 21.1.0, SVG Export Plug-In . SVG Version: 6.00 Build 0)  -->
<svg version="1.1" xmlns="http://www.w3.org/2000/svg" xmlns:xlink="http://www.w3.org/1999/xlink" x="0px" y="0px"
	 viewBox="0 0 1200 461" style="enable-background:new 0 0 1200 461;" xml:space="preserve">
<style type="text/css">
	.st0{clip-path:url(#SVGID_2_);fill:#FFF1B3;}
	.st1{clip-path:url(#SVGID_2_);}
	.st2{fill:#FFF1B3;}
	
		.st3{clip-path:url(#SVGID_2_);fill:none;stroke:#110D26;stroke-width:1.4755;stroke-linecap:round;stroke-linejoin:round;stroke-miterlimit:10;}
	.st4{clip-path:url(#SVGID_2_);fill:#FFEFDE;}
	.st5{clip-path:url(#SVGID_2_);fill:#A68AFF;}
	.st6{clip-path:url(#SVGID_2_);fill:#FF7E5F;}
	.st7{clip-path:url(#SVGID_2_);fill:#110D26;}
	.st8{opacity:0.35;clip-path:url(#SVGID_2_);}
	.st9{fill:#FFFFFF;}
	.st10{clip-path:url(#SVGID_2_);fill:#FFC4AF;}
	.st11{clip-path:url(#SVGID_2_);fill:#DF947F;}
	.st12{fill:#FFC4AF;}
	.st13{fill:#FF7E5F;}
	.st14{opacity:0.5;fill:#FFFFFF;}
	.st15{fill:#263238;}
	.st16{opacity:0.2;enable-background:new    ;}
	.st17{fill:url(#SVGID_3_);}
	.st18{fill:url(#SVGID_4_);}
	.st19{fill:url(#SVGID_5_);}
	.st20{fill:url(#SVGID_6_);}
	.st21{fill:url(#SVGID_7_);}
	.st22{fill:none;stroke:#FFFFFF;stroke-linecap:round;stroke-linejoin:round;}
	.st23{fill:url(#SVGID_8_);}
	.st24{fill:url(#SVGID_9_);}
	.st25{fill:url(#SVGID_10_);}
	.st26{opacity:0.5;fill:#FFFFFF;enable-background:new    ;}
	.st27{fill:#DF947F;}
	.st28{fill:none;stroke:#263238;stroke-width:0.5;stroke-linecap:round;stroke-linejoin:round;}
	.st29{fill:url(#SVGID_11_);}
	.st30{opacity:0.6;fill:#FFFFFF;enable-background:new    ;}
	.st31{fill:url(#SVGID_12_);}
	.st32{fill:url(#SVGID_13_);}
	.st33{fill:url(#SVGID_14_);}
	.st34{fill:none;stroke:#263238;stroke-linecap:round;stroke-linejoin:round;}
	.st35{fill:url(#SVGID_15_);}
	.st36{opacity:0.2;fill:#FFFFFF;enable-background:new    ;}
	.st37{opacity:0.3;fill:#FFFFFF;enable-background:new    ;}
	.st38{fill:url(#SVGID_16_);}
	.st39{fill:url(#SVGID_17_);}
	.st40{fill:none;stroke:#263238;stroke-width:0.708;stroke-linecap:round;stroke-linejoin:round;}
	.st41{fill:#DE5753;}
	.st42{clip-path:url(#SVGID_2_);fill:#FFFFFF;}
	.st43{clip-path:url(#SVGID_19_);}
	.st44{fill:#FEECE9;}
	.st45{fill:#110D26;}
	.st46{fill:#8740E8;}
	.st47{fill:url(#SVGID_20_);}
	.st48{fill:none;stroke:#110D26;stroke-width:1.4755;stroke-linecap:round;stroke-linejoin:round;stroke-miterlimit:10;}
	.st49{fill:none;stroke:#110D26;stroke-width:1.0414;stroke-linecap:round;stroke-linejoin:round;stroke-miterlimit:10;}
	.st50{fill:#EBEBEB;}
	.st51{fill:#C7C7C7;}
	.st52{fill:url(#SVGID_21_);}
	.st53{fill:url(#SVGID_22_);}
	.st54{fill:url(#SVGID_23_);}
	.st55{fill:url(#SVGID_24_);}
	.st56{opacity:0.1;enable-background:new    ;}
	.st57{fill:url(#SVGID_25_);}
	.st58{fill:#A6A6A6;}
	.st59{fill:#DBDBDB;}
	.st60{fill:#455A64;}
	.st61{fill:url(#SVGID_26_);}
	.st62{fill:none;}
	.st63{fill:#FF99BA;}
	.st64{fill:#37474F;}
	.st65{opacity:0.2;}
	.st66{fill:url(#SVGID_27_);}
	.st67{fill:url(#SVGID_28_);}
	.st68{fill:url(#SVGID_29_);}
	.st69{fill:#FF9BBC;}
	.st70{fill:url(#SVGID_30_);}
	.st71{clip-path:url(#SVGID_32_);fill:#FFEFDE;}
	.st72{clip-path:url(#SVGID_32_);}
	.st73{opacity:0.6;}
	.st74{fill:#E0E0E0;}
	.st75{fill:#FAFAFA;}
	.st76{fill:#AA6550;}
	.st77{fill:url(#SVGID_33_);}
	.st78{opacity:0.3;}
	.st79{fill:#684B46;}
	.st80{fill:url(#SVGID_34_);}
	.st81{fill:url(#SVGID_35_);}
	.st82{fill:url(#SVGID_36_);}
	.st83{fill:url(#SVGID_37_);}
	.st84{fill:url(#SVGID_38_);}
	.st85{opacity:0.4;}
	.st86{clip-path:url(#SVGID_32_);fill:#8740E8;}
	.st87{clip-path:url(#SVGID_32_);fill:url(#SVGID_39_);}
	.st88{clip-path:url(#SVGID_32_);fill:#FFFFFF;}
	.st89{clip-path:url(#SVGID_32_);fill:#110D26;}
	
		.st90{clip-path:url(#SVGID_32_);fill:none;stroke:#110D26;stroke-width:1.4755;stroke-linecap:round;stroke-linejoin:round;stroke-miterlimit:10;}
	.st91{display:none;}
	.st92{display:inline;fill:#FFEFDE;}
	.st93{display:inline;fill:#FEECE9;}
	.st94{display:inline;}
	.st95{fill:#F5F5F5;}
	.st96{fill:url(#SVGID_40_);}
	.st97{fill:url(#SVGID_41_);}
	.st98{fill:url(#SVGID_42_);}
	.st99{fill:url(#SVGID_43_);}
	.st100{fill:url(#SVGID_44_);}
	.st101{fill:#F6957F;}
	.st102{fill:url(#SVGID_45_);}
	.st103{fill:url(#SVGID_46_);}
	.st104{fill:url(#SVGID_47_);}
	.st105{fill:url(#SVGID_48_);}
	.st106{fill:url(#SVGID_49_);}
	.st107{fill:url(#SVGID_50_);}
	.st108{fill:url(#SVGID_51_);}
	.st109{fill:#FFC5B0;}
	.st110{fill:url(#SVGID_52_);}
	.st111{fill:url(#SVGID_53_);}
	.st112{fill:url(#SVGID_54_);}
	.st113{display:inline;fill:#FF8B57;}
	.st114{display:inline;fill-rule:evenodd;clip-rule:evenodd;}
	.st115{display:inline;fill:#CCCCCC;}
	.st116{display:inline;fill:#FFDBD0;}
	.st117{fill:#FDFDFD;}
	.st118{fill:#E5E9EB;}
	.st119{fill:#F7F8F9;}
	.st120{fill:#201E22;}
	.st121{fill:#CEE8D6;}
	.st122{fill:#8C8488;}
	.st123{fill:#DCDFE4;}
	.st124{fill:#1E1D1D;}
	.st125{fill:#242328;}
	.st126{fill:#EEF1F1;}
	.st127{fill:#F8F9FA;}
	.st128{fill:#9CC0F8;}
	.st129{fill:#F5F6F7;}
	.st130{fill:#DFE1E4;}
	.st131{fill:#707173;}
	.st132{fill:#8B858A;}
	.st133{fill:#F6F7F8;}
	.st134{fill:#525155;}
	.st135{fill:#F0F0F0;stroke:#CCCCCC;stroke-miterlimit:10;}
	.st136{fill:#FFAF00;}
	.st137{fill:#FFFFFF;stroke:#FFFFFF;stroke-width:5;stroke-miterlimit:10;}
	.st138{fill:none;stroke:#FFFFFF;stroke-width:2;stroke-miterlimit:10;}
</style>
<g id="banner3">
</g>
<g id="banner2">
</g>
<g id="banner1">
	<g>
		<defs>
			<rect id="SVGID_31_" width="1200" height="461"/>
		</defs>
		<clipPath id="SVGID_2_">
			<use xlink:href="#SVGID_31_"  style="overflow:visible;"/>
		</clipPath>
		<path class="st4" d="M746,0c0,0-25.9,65.7,20,116c42,46,53.4,57.3,25,97c-48,67,5.2,153.7,97,132c72-17,70.6,3.6,80,42
			c11,45,52,80,90,43c29.5-28.7-38-114,2-151c56.5-52.2,140-45,140-45V0H746z"/>
		<g class="st1">
			<g id="freepik--Sofa--inject-50">
				<rect x="1044.9" y="396" class="st15" width="15.1" height="19.9"/>
				<path class="st60" d="M1238.9,335.5L1238.9,335.5l-1.5-29.6c-0.9-15.9-5.2-24.7-15.5-25.6l0,0c-7.1,0-13.4,2.3-17.7,8.6
					c1.8-55.6-22.7-78-49.1-78h-35.9c-26.8,0-57.3,21.4-47.9,79.3V301c0-11-8.5-19.9-19-19.9h-1.4c-7.1,0-14.4,12.4-14.4,19.8v34.6
					c-4.1,3.2-6.4,8-6.4,13.2v21.2c-0.1,4.1,3.2,7.6,7.3,7.7h-0.9v25.5h204.9v-24.7c4.1-1.3,6.9-5.1,6.8-9.4v-17.6
					C1248.3,344.8,1244.7,338.7,1238.9,335.5z"/>
				<path class="st15" d="M1074.1,315.1c-0.1,0-0.2,0-0.2-0.1s0.1-0.1,0.2-0.1c0.1,0,0.2,0,0.2,0.1
					C1074.3,315.1,1074.2,315.1,1074.1,315.1z"/>
				<path class="st15" d="M1241.5,378.6c0,0.1-45.7,0.2-102.1,0.2c-56.4,0-102.1-0.1-102.1-0.2s45.7-0.2,102.1-0.2
					S1241.5,378.5,1241.5,378.6z"/>
				<path class="st15" d="M1071,331.1c-0.1,0-0.2,0-0.4,0l-1-0.1c-0.4-0.1-1-0.1-1.6-0.2c-0.6,0-1.4-0.1-2.2-0.2
					c-1.6-0.1-3.6-0.1-5.7-0.1c-4.6,0.2-9.3,0.8-13.7,2c-2.1,0.6-3.9,1.1-5.4,1.7c-0.8,0.3-1.5,0.6-2.1,0.8
					c-0.6,0.2-1.1,0.4-1.5,0.6l-1,0.4c-0.1,0.1-0.2,0.1-0.3,0.1c0.1-0.1,0.2-0.1,0.3-0.2l0.9-0.5c0.4-0.2,0.9-0.4,1.5-0.7
					s1.3-0.6,2-0.8c1.8-0.7,3.6-1.3,5.5-1.8c2.3-0.6,4.5-1.1,6.9-1.5c2.3-0.3,4.6-0.5,7-0.6c1.9,0,3.8,0,5.7,0.1
					c0.8,0,1.5,0.2,2.2,0.2c0.6,0.1,1.2,0.2,1.6,0.2l1,0.2C1070.7,331.1,1070.8,331.1,1071,331.1z"/>
				<path class="st15" d="M1143.4,352.8c-0.1,0,0.3-1.4,0.3-3.7c0-2.9-0.6-5.8-1.9-8.5c-1.3-2.6-3.1-4.9-5.4-6.7
					c-1.7-1.3-3-1.9-3-1.9c0.3,0.1,0.6,0.2,0.9,0.4c0.8,0.4,1.5,0.8,2.2,1.4c2.4,1.7,4.3,4,5.6,6.7c1.3,2.7,1.9,5.7,1.8,8.7
					c0,0.9-0.1,1.8-0.3,2.7C1143.6,352.2,1143.5,352.5,1143.4,352.8z"/>
				<path class="st15" d="M1185.5,344.6c0,0-0.1-0.5-0.4-1.5c-0.9-3.3-2.5-6.3-4.8-8.8c-1.6-1.8-3.6-3.2-5.8-4.3
					c-2.2-1-4.5-1.5-6.9-1.6c-1.9-0.1-3.9,0.2-5.8,0.7c-1.3,0.4-2.5,0.9-3.7,1.5c-0.4,0.3-0.8,0.5-1.3,0.7c0.1-0.1,0.2-0.2,0.3-0.2
					c0.2-0.1,0.5-0.4,0.9-0.6c1.2-0.7,2.4-1.2,3.7-1.6c1.9-0.6,3.9-0.9,5.8-0.8c2.4,0.1,4.8,0.6,7,1.6c2.2,1.1,4.2,2.5,5.9,4.4
					c1.4,1.5,2.5,3.2,3.4,5.1c0.6,1.3,1,2.6,1.3,3.9c0.1,0.4,0.2,0.7,0.2,1.1C1185.5,344.3,1185.5,344.4,1185.5,344.6z"/>
				<path class="st15" d="M1188.1,328.1c0,0.1-4.2,0.2-9.4,0.2c-5.2,0-9.4-0.1-9.4-0.2c0-0.1,4.2-0.2,9.4-0.2
					C1183.9,327.9,1188.1,328,1188.1,328.1z"/>
				<path class="st15" d="M1237.7,336.5c-0.1-0.1-0.3-0.1-0.4-0.2l-1.2-0.7c-0.5-0.3-1.2-0.7-1.9-1.1c-0.8-0.4-1.6-0.9-2.6-1.3
					c-1-0.4-2-1-3.2-1.5s-2.4-1-3.7-1.5c-5.8-2.1-11.8-3.4-17.9-3.8c-1.4-0.1-2.7-0.2-4-0.2s-2.4,0-3.5,0c-1.1,0-2,0.1-2.9,0.2
					c-0.8,0.1-1.6,0.1-2.2,0.2l-1.4,0.1c-0.2,0-0.3,0-0.5,0c0.2,0,0.3-0.1,0.5-0.1l1.4-0.2c0.6-0.1,1.3-0.2,2.2-0.3
					c0.8-0.1,1.8-0.2,2.9-0.2c1.1,0,2.2-0.1,3.5-0.1c1.3,0,2.6,0.1,4,0.1c6.1,0.4,12.2,1.7,18,3.8c1.3,0.5,2.6,1,3.7,1.5
					c1.1,0.5,2.2,1,3.2,1.5c1,0.5,1.8,1,2.6,1.4c0.8,0.4,1.4,0.8,1.9,1.1l1.2,0.8C1237.4,336.3,1237.5,336.4,1237.7,336.5z"/>
				<path class="st15" d="M1206,286.7c-0.1,0.1-0.2,0.2-0.3,0.3c-0.2,0.2-0.5,0.5-0.8,1c-1,1.2-1.9,2.4-2.8,3.7
					c-1.3,1.9-2.4,3.9-3.4,6c-1.1,2.4-2.2,5.1-3.2,7.9c-1.8,4.9-3,10-3.6,15.2c-0.2,2-0.3,3.6-0.4,4.7c0,0.5,0,0.9-0.1,1.3
					c0,0.2,0,0.3,0,0.5c0-0.2,0-0.3,0-0.5c0-0.3,0-0.7,0-1.3c0-1.1,0.1-2.8,0.3-4.8c0.5-5.2,1.7-10.3,3.4-15.3c1-2.7,2-5.4,3.3-7.9
					c1-2.1,2.1-4.1,3.5-6.1c0.9-1.3,1.9-2.5,2.9-3.6c0.4-0.4,0.7-0.7,0.9-0.9C1205.8,286.9,1205.9,286.8,1206,286.7z"/>
				<path class="st15" d="M1111.5,274.9c0,0,0-0.1,0.1-0.2c0.1-0.2,0.3-0.3,0.5-0.4c0.7-0.4,1.5-0.6,2.2-0.5
					c0.5,0.1,1.1,0.2,1.5,0.5c0.5,0.4,1,0.9,1.2,1.5c0.6,1.4,0.4,3-0.6,4.2c-1,1.1-2.6,1.4-4,0.9c-0.6-0.2-1.1-0.6-1.5-1.2
					c-0.3-0.5-0.5-1-0.6-1.6c-0.1-0.8,0-1.6,0.3-2.4c0.1-0.2,0.2-0.4,0.3-0.5c0.1-0.1,0.1-0.2,0.2-0.2c0,0-0.2,0.3-0.4,0.8
					c-0.3,0.7-0.3,1.5-0.2,2.2c0.2,1.1,0.9,2,2,2.4c1.3,0.5,2.7,0.2,3.6-0.8c0.9-1.1,1.1-2.5,0.5-3.8c-0.4-1-1.3-1.7-2.4-1.9
					c-0.7-0.1-1.5,0-2.1,0.3C1111.7,274.8,1111.5,275,1111.5,274.9z"/>
				<path class="st15" d="M1113.7,263.9c0,0.1-0.5,0.4-1.1,1.2c-1.7,2.1-1.8,5.1-0.3,7.3c0.6,0.8,1.1,1.2,1,1.3
					c-0.5-0.2-0.9-0.6-1.2-1.1c-0.8-1.1-1.3-2.5-1.2-3.9c0.1-1.4,0.6-2.7,1.5-3.8C1112.7,264.4,1113.2,264.1,1113.7,263.9z"/>
				<path class="st15" d="M1115,282.3c-0.4-0.1-0.8-0.3-1.2-0.5c-1-0.4-2-0.6-3-0.6c-1,0-2.1,0.2-3.1,0.5c-0.4,0.2-0.8,0.4-1.2,0.5
					c0.3-0.3,0.7-0.6,1.1-0.7c1-0.5,2.1-0.7,3.2-0.7c1.1,0,2.2,0.3,3.2,0.7C1114.3,281.7,1114.7,282,1115,282.3z"/>
				<path class="st15" d="M1050.5,329.9c0.2-0.3,0.4-0.5,0.7-0.7c0.7-0.6,1.4-1.2,2.1-1.6c5.1-3.3,11.5-3.6,16.9-0.9
					c0.8,0.4,1.6,0.9,2.3,1.4c0.3,0.2,0.5,0.4,0.8,0.7c-1-0.7-2.1-1.3-3.2-1.8c-5.3-2.5-11.6-2.2-16.6,0.9
					C1052.4,328.5,1051.5,329.2,1050.5,329.9z"/>
				<path class="st15" d="M1067.2,325.4c-0.1,0-0.3-4-0.5-8.9s-0.2-8.9-0.1-8.9c0.1,0,0.3,4,0.5,8.9
					C1067.3,321.4,1067.4,325.4,1067.2,325.4z"/>
			</g>
			<g id="freepik--caracter-4--inject-50">
				<path class="st51" d="M1171.5,383.1l-3.9,22.1l1.9,18.3c0.1,1.3-0.8,2.4-2,2.5c-0.1,0-0.1,0-0.2,0l0,0c-0.7,0-1.5-0.3-1.9-0.9
					c-2.9-3.8-13.4-17.7-13-19.3c0.4-1.9,2.6-23.5,2.6-23.5L1171.5,383.1z"/>
				<g class="st73">
					<path class="st9" d="M1167.2,426l-14.7-21.7l-0.1,0.9c-0.1,0.8,0,1.6,0.5,2.3c1.2,1.9,4.5,7,12.4,17.5
						C1165.7,425.7,1166.5,426.1,1167.2,426L1167.2,426z"/>
				</g>
				<g class="st73">
					<path class="st9" d="M1158.2,397.9c0.5,0.5,0.5,1.3,0.1,1.9c-0.5,0.5-1.3,0.5-1.8,0.1c-0.5-0.5-0.6-1.4-0.1-2
						c0.6-0.5,1.4-0.5,1.9,0.1"/>
				</g>
				<path class="st15" d="M1163.7,415.6c0.6-0.6,1.4-1.1,2.2-1.4c0.9-0.2,1.8-0.2,2.6-0.1c0,0-0.2-0.3-0.7-0.4c-0.7-0.2-1.4-0.2-2,0
					c-0.7,0.2-1.2,0.6-1.7,1.1C1163.7,415.2,1163.6,415.5,1163.7,415.6z"/>
				<path class="st15" d="M1164.8,418.8c0.7-0.3,1.4-0.5,2.1-0.7c0.7,0,1.5,0,2.2,0.1c-0.6-0.5-1.5-0.7-2.3-0.5
					C1165.5,417.8,1164.7,418.7,1164.8,418.8z"/>
				<path class="st15" d="M1161.3,411.3c1-0.5,2.1-0.9,3.2-1.2c1.1-0.2,2.3-0.3,3.4-0.3c-1.1-0.5-2.4-0.6-3.5-0.2
					C1163.2,409.8,1162.1,410.4,1161.3,411.3z"/>
				<path class="st15" d="M1162,404.5c0,0.1,1.3-0.2,2.9,0c1.6,0.2,2.8,0.8,2.9,0.6C1166.1,403.9,1163.9,403.6,1162,404.5
					L1162,404.5z"/>
				<path class="st15" d="M1163,398c2-0.5,4.2-0.1,5.9,1.1c0,0-0.2-0.4-0.6-0.7c-1.3-1-2.9-1.3-4.4-0.8
					C1163.2,397.7,1162.9,398,1163,398z"/>
				<path class="st15" d="M1166.2,396.7c0.1-0.3,0.2-0.5,0.2-0.8c0-0.8-0.1-1.6-0.3-2.3c-0.1-0.6-0.5-1-0.9-1.4
					c-0.3-0.2-0.8-0.2-1.1,0c-0.3,0.2-0.5,0.6-0.5,0.9c-0.1,1.6,0.8,3,2.3,3.4c1.5,0.4,3-0.2,4-1.4c0.2-0.3,0.3-0.7,0.2-1.1
					c-0.1-0.4-0.5-0.6-0.9-0.6c-0.6,0-1.1,0.2-1.6,0.5c-0.7,0.4-1.3,0.9-1.8,1.5c-0.2,0.2-0.4,0.4-0.5,0.7c0.7-0.7,1.5-1.4,2.4-1.9
					c0.4-0.3,0.9-0.4,1.4-0.4c0.2,0,0.4,0.1,0.5,0.3c0,0.2,0,0.5-0.2,0.7c-0.8,1-2.2,1.5-3.4,1.2c-1.3-0.4-2.1-1.5-2-2.9
					c0-0.3,0.1-0.5,0.3-0.7c0.2-0.1,0.4-0.1,0.6,0c0.4,0.3,0.7,0.7,0.8,1.2C1166,394.7,1166.2,395.7,1166.2,396.7z"/>
				<path class="st51" d="M1086.8,383l3.1,20.5c0,0-20,8.5-19.8,12.4l40.1-3l-3.5-32.2L1086.8,383z"/>
				<g class="st73">
					<path class="st9" d="M1102.1,400.4c0.8,0.1,1.4,0.9,1.3,1.7c-0.1,0.8-0.9,1.4-1.7,1.3c-0.9-0.2-1.5-1-1.4-1.8
						c0.2-0.9,1.1-1.4,1.9-1.2"/>
				</g>
				<g class="st73">
					<path class="st9" d="M1110.3,412.8l-0.3-3.2l-38.7,4.3c-0.8,0.5-1.3,1.4-1.3,2.3L1110.3,412.8z"/>
				</g>
				<path class="st15" d="M1089.3,403.4c0,0.2,1,0.2,2,0.7c1,0.5,1.6,1.3,1.8,1.2c0.2-0.1-0.3-1.2-1.5-1.8
					C1090.4,402.9,1089.2,403.2,1089.3,403.4z"/>
				<path class="st15" d="M1085.3,405.6c0,0.2,0.9,0.4,1.6,1.2s1,1.6,1.2,1.6c0.2,0,0.2-1.1-0.8-2.1
					C1086.4,405.4,1085.2,405.4,1085.3,405.6z"/>
				<path class="st15" d="M1083.4,410.9c0.2,0,0.3-1-0.3-2c-0.6-1-1.6-1.3-1.6-1.2c-0.1,0.2,0.6,0.7,1.1,1.5
					S1083.2,410.9,1083.4,410.9z"/>
				<path class="st15" d="M1089.1,398.6c0.1,0.2,1-0.2,2.1-0.3c1.1-0.1,2,0.2,2.1,0c0.1-0.2-0.8-0.8-2.1-0.7
					C1089.8,397.8,1089,398.5,1089.1,398.6z"/>
				<path class="st15" d="M1088.5,394.5c0.7,0.1,1.4,0,2-0.2c0.7-0.2,1.4-0.5,2-0.9c0.4-0.2,0.7-0.5,1.1-0.7
					c0.2-0.1,0.4-0.3,0.5-0.5c0.2-0.3,0.2-0.7,0-1c-0.2-0.3-0.6-0.4-0.9-0.3c-0.3,0-0.5,0.1-0.7,0.2c-0.4,0.2-0.8,0.3-1.2,0.6
					c-0.6,0.4-1.2,0.9-1.7,1.4c-0.8,1-1.1,1.7-1,1.8s0.5-0.6,1.3-1.4c0.5-0.5,1.1-0.9,1.7-1.2c0.4-0.2,0.7-0.4,1.1-0.5
					c0.4-0.2,0.8-0.2,0.9,0c0.1,0.2,0.1,0.1,0,0.2c-0.1,0.1-0.3,0.3-0.4,0.4c-0.3,0.3-0.6,0.5-1,0.7c-0.6,0.4-1.2,0.7-1.9,1
					C1089.8,394,1089.1,394.2,1088.5,394.5z"/>
				<path class="st15" d="M1088.8,394.7c0.3-0.6,0.4-1.3,0.3-2c0-0.7-0.2-1.5-0.5-2.2c-0.2-0.4-0.4-0.8-0.6-1.2
					c-0.3-0.5-0.8-0.9-1.4-0.9c-0.4,0-0.7,0.3-0.8,0.7c-0.1,0.2-0.1,0.5-0.1,0.8c0,0.5,0,0.9,0.2,1.4c0.2,0.7,0.6,1.4,1.1,2
					c0.9,0.9,1.7,1.1,1.7,1c0-0.1-0.7-0.4-1.4-1.3c-0.4-0.5-0.7-1.1-0.9-1.8c-0.1-0.4-0.1-0.8-0.1-1.2c0-0.4,0.1-0.8,0.3-0.8
					c0.2,0,0.6,0.3,0.8,0.6c0.2,0.3,0.4,0.7,0.6,1c0.3,0.6,0.5,1.3,0.6,2C1088.8,393.9,1088.7,394.7,1088.8,394.7z"/>
				<path class="st15" d="M1114.8,293.5c0.4,0,0.7,0,1.1,0.1c0.7,0.1,1.7,0.3,3,0.4c6.5,0.7,13.1,0.2,19.5-1.5
					c1.2-0.3,2.2-0.6,2.9-0.8c0.3-0.1,0.7-0.2,1.1-0.3c-0.3,0.2-0.6,0.4-1,0.5c-0.7,0.3-1.6,0.6-2.8,1c-6.4,1.9-13,2.4-19.6,1.5
					c-1.3-0.2-2.3-0.4-3-0.5C1115.5,293.7,1115.2,293.6,1114.8,293.5z"/>
				<path class="st13" d="M1111.2,236.8l2.8,1.4c0,0-8.6,39-10.7,46s-7.3,8.9-13.1,8.7s-11.2-2.8-11.8-6.5
					c-0.6-3.7-1.4-16.3,2.3-22.7c3.7-6.4,16.4-27.7,16.4-27.7L1111.2,236.8z"/>
				<path class="st13" d="M1171,284.3l-12.1-78.1l-20.3-4.2l-25.3,2l-11.8,3.8l0-0.1c0,0-11.8,3.6-14.1,7.1
					c-2.3,3.5-5.4,18.3-5.6,26.6s0,38.9,0,38.9h10.6l-0.5,5.1l-8.2,5.3l39.6,18.1l51.1-14.4C1179.9,287.8,1171,284.3,1171,284.3z"/>
				<path class="st15" d="M1118.8,281c0.1-0.1,0.8,0.6,2.2,1.4c1.7,1.1,3.6,2.1,5.5,2.9c1.9,0.8,3.9,1.4,6,1.9
					c0.9,0.1,1.7,0.3,2.5,0.6c-0.9,0-1.8,0-2.6-0.2c-4.2-0.7-8.1-2.4-11.6-4.9C1120,282.2,1119.4,281.7,1118.8,281z"/>
				<path class="st15" d="M1145.4,239.9c-0.1-0.4-0.2-0.7-0.2-1.1c-0.1-1-0.2-2-0.2-3c0-1.5,0-3,0.2-4.4c0.4-3.6,1.3-7.1,2.8-10.4
					c0.6-1.4,1.3-2.7,2-3.9c0.5-0.9,1.1-1.7,1.7-2.5c0.2-0.3,0.4-0.6,0.7-0.8c0.1,0-0.9,1.3-2.1,3.5c-0.7,1.3-1.4,2.6-1.9,3.9
					c-0.7,1.6-1.3,3.3-1.8,5.1c-0.5,1.7-0.8,3.5-1,5.3c-0.2,1.4-0.3,2.9-0.3,4.4C1145.3,238.3,1145.5,239.9,1145.4,239.9z"/>
				<path class="st15" d="M1088.4,219.2c0,0,0.2,0.2,0.5,0.6s0.7,0.9,1.2,1.7c1.2,1.9,2.3,3.9,3.1,6c0.8,2.1,1.5,4.2,1.9,6.5
					c0.2,0.9,0.3,1.5,0.3,2c0,0.2,0,0.5,0,0.7c-0.3-0.9-0.5-1.8-0.6-2.7c-1-4.3-2.7-8.5-5-12.3
					C1089.3,220.8,1088.8,220,1088.4,219.2z"/>
				<path class="st15" d="M1090.2,215.1c0,0,0.2,0.1,0.5,0.4c0.5,0.4,0.9,0.9,1.3,1.4c1.3,1.6,2.4,3.4,3.2,5.3c0.8,1.9,1.2,4,1.4,6
					c0,0.6,0,1.2,0,1.9c0,0.2,0,0.5-0.1,0.7c-0.1,0-0.1-1-0.3-2.5c-0.2-2-0.7-4-1.5-5.9c-0.8-1.9-1.8-3.7-3-5.3
					C1090.8,215.9,1090.2,215.2,1090.2,215.1z"/>
				<path class="st15" d="M1084.9,259.6c0.1-0.2,0.1-0.3,0.2-0.5c0.2-0.3,0.4-0.8,0.7-1.4l2.8-5.3c2.4-4.6,5.8-11.1,9.9-18.8
					l0.1-0.1h0.2l17.2,3.5l0.2,0v0.2c-0.5,2.9-1,5.8-1.6,8.9c-1.5,7.6-3,14.8-4.7,21.3c-0.8,3.2-1.8,6.3-2.8,9.1
					c-0.3,0.7-0.5,1.4-0.8,2c-0.3,0.7-0.6,1.3-0.9,1.9c-0.7,1.2-1.3,2.4-2,3.4c-1.2,1.9-2.7,3.7-4.4,5.3c-1.3,1.2-2.7,2.1-4.3,2.8
					c-1,0.4-2.1,0.7-3.2,0.9c-0.3,0-0.6,0.1-0.8,0.1c-0.1,0-0.2,0-0.3,0c1.4-0.2,2.9-0.6,4.2-1.1c1.6-0.7,3-1.6,4.2-2.8
					c1.6-1.6,3-3.4,4.2-5.3c0.7-1.1,1.3-2.2,2-3.4c0.3-0.6,0.6-1.3,0.9-1.9c0.3-0.6,0.5-1.3,0.8-2c1-2.8,1.9-5.8,2.7-9.1
					c1.7-6.5,3.2-13.7,4.7-21.2c0.6-3,1.1-6,1.6-8.9l0.2,0.3l-17.2-3.5l0.2-0.1l-10,18.8c-1.2,2.2-2.2,4-2.8,5.3l-0.8,1.4
					C1085.1,259.3,1085,259.5,1084.9,259.6z"/>
				<path class="st13" d="M1158.6,206c0,0,15.2,4,15.5,17.2c0.3,13.2-4,55.1-5.9,59.4s-10.9,10.9-19.5,9.9
					c-8.6-1-13.8-10.5-13.8-10.5l-13.1-39.5l12.1-8.3l12.2,14.4L1158.6,206z"/>
				<path class="st15" d="M1148.8,249.5c0-0.1,0-0.3,0-0.4c0-0.3,0-0.8,0-1.2c0-1.1,0.1-2.7,0.1-4.6c0.1-1.9,0.2-4.2,0.4-6.8
					c0.2-2.8,0.6-5.5,1.1-8.3c0.5-2.8,1.3-5.4,2.4-8c0.9-2.1,2.2-4,3.8-5.7c1.1-1.1,2.3-2,3.7-2.8l1.1-0.6c0.1-0.1,0.3-0.1,0.4-0.2
					c-1.8,1-3.5,2.3-5,3.7c-1.5,1.7-2.7,3.6-3.7,5.6c-1.1,2.6-1.9,5.2-2.4,7.9c-0.5,2.7-0.9,5.5-1.1,8.2c-0.3,2.6-0.4,4.9-0.5,6.8
					s-0.2,3.4-0.3,4.6c0,0.5-0.1,0.9-0.1,1.3C1148.9,249.3,1148.8,249.4,1148.8,249.5z"/>
				<path class="st15" d="M1154.5,258.1c0,0,0-0.1-0.1-0.1l-0.1-0.4c-0.2-0.5-0.4-1-0.7-1.5c-1-1.8-2.3-3.5-3.8-5.1l-15-17.1h0.3
					c-4,2.7-8.5,5.6-13.2,8.8l0.1-0.3c2,6.4,3.9,13.4,6,20.7c0.7,2.3,1.3,4.5,2,6.7c0.7,2.2,1.5,4.3,2.3,6.4c1.7,4.1,3.8,8,6.7,10.8
					c3,2.8,6.7,4.6,10.3,4.6c3.4-0.1,6.7-1,9.6-2.7c2.5-1.2,4.8-2.8,6.8-4.8c1.5-1.5,2.5-3.4,3.1-5.4c0.4-1.3,0.5-2.6,0.4-3.9
					c-0.1-0.9-0.2-1.4-0.2-1.4c0.1,0.4,0.2,0.9,0.3,1.4c0.1,1.3,0,2.7-0.3,4c-0.6,2.1-1.7,3.9-3.1,5.5c-2,2-4.3,3.7-6.8,5
					c-3,1.7-6.4,2.6-9.8,2.8c-3.8,0-7.6-1.8-10.6-4.7s-5.2-6.8-6.9-10.9c-0.8-2.1-1.6-4.2-2.3-6.4c-0.7-2.2-1.3-4.5-2-6.8
					c-2.1-7.3-4-14.3-6-20.7l-0.1-0.2l0.1-0.1l13.3-8.7l0.1-0.1l0.1,0.1l14.9,17.3c1.5,1.5,2.7,3.3,3.7,5.2
					C1154.1,256.6,1154.3,257.3,1154.5,258.1z"/>
				<path class="st15" d="M1172.6,292.8l4.6,4c0,0,15.5,9.2,15.5,17.5c0,8.2-19.5,80.5-19.5,80.5s-13.2,2.8-15.8-0.5
					c-2-2.7-3.9-5.5-5.6-8.4l5.3-55.4l-26-7.3c0,0,6.6-20.1,19.1-24.1C1162.7,295.1,1166.3,290.2,1172.6,292.8z"/>
				<path class="st15" d="M1100.4,294.1c0,0-13.9-5-22.8,0c-8.9,5-15.8,21.8-15.8,21.8l20.6,79.8l27.3-3l-6.1-51.1l-4.6-5.6l4.9-4.6
					l13.2-5.9C1117.2,325.5,1115.3,300.1,1100.4,294.1z"/>
				<path class="st15" d="M1158.9,295.7c0,0-22.2,7-32.1,6c-9.9-1-26.4-7.6-26.4-7.6l14.4,32.4h27.5L1158.9,295.7z"/>
				<path class="st60" d="M1175.4,308.3c-1.5,0.2-3,0.5-4.5,0.9c-1.6,0.5-3,1.3-4.3,2.3c-1.6,1.2-3,2.7-4,4.4
					c-1.8,3.2-3.1,6.7-3.7,10.3c-0.3,1.4-0.5,2.5-0.6,3.3c-0.1,0.4-0.1,0.8-0.3,1.2c0-0.4,0-0.8,0.1-1.2c0.1-0.8,0.2-1.9,0.5-3.3
					c0.5-3.7,1.7-7.3,3.6-10.5c2-3.2,5.1-5.6,8.7-6.8c1.1-0.3,2.2-0.6,3.3-0.6c0.3,0,0.6,0,0.9,0
					C1175.1,308.3,1175.3,308.3,1175.4,308.3z"/>
				<path class="st60" d="M1156.1,316.8c0.3,0.7,0.4,1.4,0.5,2.1c0.2,1.3,0.5,3.2,0.7,5.3c0.2,2.1,0.3,3.9,0.3,5.3
					c0.1,0.7,0,1.5-0.1,2.2c-0.2-0.7-0.2-1.5-0.2-2.2c-0.1-1.4-0.2-3.2-0.4-5.3s-0.4-3.9-0.6-5.3
					C1156.2,318.2,1156.1,317.5,1156.1,316.8z"/>
				<path class="st60" d="M1163.2,301.1c0,0.1-1.8,0.6-4.5,2c-0.7,0.4-1.5,0.8-2.2,1.3c-0.8,0.5-1.5,1-2.3,1.6
					c-3.5,2.7-6.3,6.1-8.4,10c-0.4,0.8-0.9,1.7-1.2,2.6c-0.3,0.8-0.6,1.5-0.9,2.3c-0.9,2.9-1.1,4.8-1.2,4.8c0-0.4,0-0.9,0.1-1.3
					c0.1-0.5,0.1-1,0.3-1.5c0.1-0.7,0.3-1.4,0.5-2c0.2-0.8,0.5-1.6,0.8-2.4c0.4-0.9,0.7-1.8,1.2-2.6c1-2,2.3-3.8,3.7-5.5
					c1.4-1.7,3.1-3.2,4.8-4.6c0.8-0.6,1.6-1.2,2.4-1.6c0.7-0.4,1.5-0.9,2.2-1.2c0.6-0.3,1.3-0.6,1.9-0.8c0.5-0.2,1-0.4,1.5-0.5
					C1162.3,301.3,1162.7,301.2,1163.2,301.1z"/>
				<path class="st60" d="M1150.7,302.8c0.1,0.1-0.8,1.1-2.1,2.9c-3.3,4.8-5.4,10.3-6.3,16c-0.3,2.2-0.4,3.6-0.5,3.6
					c0-0.3,0-0.7,0-1c0-0.9,0.1-1.8,0.2-2.6c0.7-5.8,2.9-11.4,6.3-16.2c0.7-0.9,1.2-1.6,1.7-2.1
					C1150.2,303.2,1150.5,303,1150.7,302.8z"/>
				<path class="st60" d="M1116.9,325.1c0-0.5,0-1,0-1.5c0-1.4-0.1-2.8-0.3-4.2c-1.1-9.3-6.6-17.4-14.8-22c-1.2-0.7-2.5-1.3-3.8-1.8
					c-0.5-0.2-1-0.4-1.4-0.6c0.1,0,0.3,0,0.4,0.1c0.3,0.1,0.6,0.2,1.1,0.3c1.3,0.5,2.6,1,3.9,1.7c8.4,4.4,14,12.8,15,22.2
					c0.2,1.4,0.2,2.8,0.1,4.2c0,0.5-0.1,0.9-0.1,1.1C1117,324.8,1117,325,1116.9,325.1z"/>
				<path class="st60" d="M1105.9,302.9c0.3,0.2,0.6,0.4,0.8,0.6c0.3,0.3,0.6,0.5,0.9,0.8c0.3,0.3,0.7,0.7,1.1,1.2
					c0.9,1.1,1.7,2.2,2.4,3.4c1.8,2.9,2.9,6.2,3.5,9.6c0.2,1.4,0.3,2.8,0.3,4.1c0,0.6,0,1.1-0.1,1.6c-0.1,0.5-0.1,0.9-0.1,1.2
					c0,0.3-0.1,0.7-0.2,1c-0.1,0,0.1-1.5,0.1-3.8c0-1.4-0.2-2.7-0.4-4.1c-0.3-1.6-0.7-3.3-1.3-4.9c-0.6-1.6-1.3-3.1-2.1-4.6
					c-0.7-1.2-1.4-2.3-2.3-3.4C1106.9,303.9,1105.8,303,1105.9,302.9z"/>
				<path class="st60" d="M1079.6,319.1c0.3,0.2,0.6,0.4,0.9,0.6c0.5,0.4,1.3,1,2.2,1.7c1.8,1.5,4.3,3.6,7,5.9
					c2.7,2.3,5.1,4.6,6.8,6.2c0.9,0.8,1.5,1.5,2,2c0.3,0.2,0.5,0.5,0.7,0.8c-0.3-0.2-0.6-0.4-0.8-0.6l-2.1-1.8l-6.9-6.1l-7-6
					l-2.1-1.8C1079.9,319.4,1079.6,319.1,1079.6,319.1z"/>
				<path class="st12" d="M1122.5,151.8h-1c-9.5,0.2-17.3,7.6-17.9,17.1c-0.6,8.8-1.1,18.6-0.9,23.4c0.3,9.9,10.1,11.2,10.1,11.2
					v1.5c0,7,5.7,12.7,12.7,12.7c0.1,0,0.2,0,0.3,0l0,0c6.8-0.2,12.3-5.7,12.3-12.5l0.5-33.9
					C1139.4,161.1,1132.7,152.2,1122.5,151.8z"/>
				<path class="st15" d="M1106.5,175.4c0,0.8,0.6,1.4,1.4,1.4c0.7,0,1.4-0.5,1.4-1.2c0,0,0,0,0,0c0-0.8-0.6-1.4-1.4-1.4
					C1107.2,174.1,1106.5,174.6,1106.5,175.4C1106.5,175.4,1106.5,175.4,1106.5,175.4z"/>
				<path class="st15" d="M1105.6,173.2c0.2,0.2,1.2-0.6,2.7-0.6c1.5,0,2.6,0.7,2.8,0.5c0.2-0.2-0.1-0.4-0.6-0.8
					c-0.7-0.4-1.4-0.7-2.2-0.6c-0.8,0-1.5,0.3-2.2,0.7C1105.7,172.8,1105.5,173.1,1105.6,173.2z"/>
				<path class="st15" d="M1120.6,175.4c0,0.8,0.6,1.4,1.4,1.4c0.7,0,1.4-0.5,1.4-1.3c0,0,0,0,0,0c0-0.8-0.6-1.4-1.4-1.4
					C1121.3,174.1,1120.7,174.6,1120.6,175.4C1120.6,175.4,1120.6,175.4,1120.6,175.4z"/>
				<path class="st15" d="M1120.6,172.5c0.2,0.2,1.3-0.5,2.8-0.3s2.5,1,2.7,0.8c0.2-0.2-0.1-0.4-0.5-0.8c-0.6-0.5-1.4-0.8-2.2-0.9
					c-0.8-0.1-1.6,0.1-2.2,0.5C1120.8,172.1,1120.6,172.4,1120.6,172.5z"/>
				<path class="st15" d="M1115.3,185c-0.8-0.2-1.6-0.4-2.5-0.4c-0.4,0-0.8-0.1-0.8-0.4c0-0.4,0-0.8,0.2-1.1c0.3-0.9,0.7-1.9,1.1-3
					c1.5-4.2,2.6-7.7,2.4-7.7c-0.2-0.1-1.5,3.3-3,7.5c-0.4,1-0.7,2-1,3c-0.2,0.5-0.3,1-0.2,1.5c0.1,0.3,0.4,0.5,0.6,0.6
					c0.2,0.1,0.4,0.1,0.7,0.1C1113.7,185.2,1114.5,185.2,1115.3,185z"/>
				<path class="st15" d="M1119.8,186c-0.2,0-0.2,1.6-1.6,2.8c-1.4,1.2-3.1,1-3.1,1.3c0,0.2,0.4,0.3,1.1,0.3c1,0,1.9-0.3,2.6-1
					c0.7-0.6,1.1-1.4,1.2-2.4C1120.1,186.4,1119.9,186,1119.8,186z"/>
				<path class="st74" d="M1120.8,167.6c0.1,0.4,1.6,0.3,3.4,0.7c1.7,0.3,3.2,0.9,3.4,0.6c0.1-0.2-0.1-0.6-0.7-1
					c-0.7-0.5-1.6-0.9-2.5-1.1c-0.9-0.2-1.8-0.1-2.7,0.1C1121.1,167.1,1120.7,167.4,1120.8,167.6z"/>
				<path class="st74" d="M1106.3,169.3c0.3,0.3,1.3,0,2.6-0.1c1.3-0.1,2.3,0.2,2.5-0.2c0.1-0.2-0.1-0.5-0.5-0.8
					c-1.3-0.8-2.9-0.7-4.1,0.2C1106.3,168.8,1106.1,169.2,1106.3,169.3z"/>
				<path class="st74" d="M1133,156.1c0.5-0.2,2.5,2,2.9,2.4c2.3,2.2,3.1,6.1,3.3,9.3c0.3,3,0.1,6-0.4,9c-0.1,0.4-0.4,2-0.4,2
					c-0.4,0.3-1,3.8-1.5,3.9c-0.8,0-1.3-5.4-1.5-5.8c-0.1-1.2-0.2-2.4-0.5-3.6c-0.5-1.9-0.8-3.9-0.9-5.8c0-2.7-0.9-6.8-0.9-9.5
					C1133,157.3,1132.6,156.3,1133,156.1z"/>
				<path class="st74" d="M1135.1,160.2c-2.9-4-7.1-6.8-11.9-7.8c-1.1-0.3-2.2-0.3-3.3,0.1c-0.6,0.3-1.1,0.7-1.6,1.2
					c-0.5,0.4-1.1,0.7-1.8,0.6c-0.7-0.1-1.1-0.7-1-1.3c0,0,0,0,0-0.1c7.9-3.1,16.8-0.1,21.1,7.2"/>
				<path class="st75" d="M1133.2,159.7l5.5,4.3c0.2,1.1,0.4,2.1,0.5,3.2l-5.5-3.7L1133.2,159.7z"/>
				<path class="st12" d="M1137,178.5c0.2-0.1,6.7-2.1,6.6,4.6c-0.1,6.7-6.8,5.2-6.8,5.1S1137,178.5,1137,178.5z"/>
				<path class="st76" d="M1138.8,185.7c0,0,0.1,0.1,0.3,0.2c0.3,0.1,0.6,0.1,0.9,0c0.9-0.5,1.4-1.5,1.4-2.6c0-0.6-0.1-1.2-0.3-1.7
					c-0.1-0.4-0.5-0.8-0.9-0.9c-0.3-0.1-0.6,0.1-0.7,0.3c-0.1,0.2-0.1,0.3-0.1,0.3c0,0-0.1-0.1-0.1-0.4c0-0.2,0.1-0.3,0.3-0.4
					c0.2-0.1,0.4-0.2,0.6-0.2c0.6,0.1,1,0.5,1.2,1.1c0.3,0.6,0.4,1.2,0.4,1.9c-0.1,1.4-0.8,2.6-1.8,2.9c-0.4,0.1-0.8,0-1.1-0.2
					C1138.8,185.8,1138.8,185.7,1138.8,185.7z"/>
				<path class="st76" d="M1112.7,203.4c4.7,0,9.3-1.4,13.2-4c0,0-2.9,7.5-13.1,6.7L1112.7,203.4z"/>
				<path class="st76" d="M1111.1,177.7c-1.5,1.1-3.5,1.2-5,0.1c0.1-0.1,1.1,0.3,2.5,0.3C1109.5,178,1110.3,177.9,1111.1,177.7z"/>
				<path class="st76" d="M1111.5,172.5c-0.1,0-0.3-0.2-0.6-0.4c-0.5-0.3-1-0.5-1.6-0.6c-0.6-0.1-1.2-0.1-1.8,0c-0.5,0-0.8,0-0.8,0
					c0,0,0.3-0.2,0.7-0.3c0.6-0.2,1.3-0.2,1.9-0.1c0.7,0.1,1.3,0.3,1.8,0.8C1111.4,172.2,1111.5,172.5,1111.5,172.5z"/>
				<path class="st76" d="M1130.4,172.7c0.1,0.1-0.5,0.7-1.5,1c-1,0.3-1.8,0-1.8-0.1c0-0.1,0.8-0.1,1.6-0.3
					C1129.7,173,1130.3,172.6,1130.4,172.7z"/>
				<path class="st76" d="M1130.8,174.8c0.1,0.1-0.6,0.5-1.5,0.4s-1.5-0.7-1.4-0.8c0.1-0.1,0.7,0.2,1.5,0.3
					C1130.1,174.8,1130.8,174.7,1130.8,174.8z"/>
				<path class="st76" d="M1126.5,172.1c-0.8-0.5-1.7-0.8-2.7-1c-1,0-1.9,0.2-2.9,0.5c0,0,0.2-0.3,0.7-0.6c1.4-0.7,3-0.5,4.3,0.4
					C1126.3,171.8,1126.5,172.1,1126.5,172.1z"/>
				<path class="st76" d="M1125,177.3c0.1,0.1-0.6,0.8-1.8,1c-0.7,0.2-1.4,0.1-2-0.3c0-0.1,0.9,0,1.9-0.2
					C1124.2,177.6,1125,177.2,1125,177.3z"/>
				<path class="st76" d="M1121,186.1c-0.1,0.1-0.4-0.3-1-0.4c-0.5-0.1-1,0-1.1-0.1c-0.1-0.1,0.4-0.5,1.2-0.4
					S1121.2,186.1,1121,186.1z"/>
				<path class="st76" d="M1122.2,185.7c-0.1,0.1-0.4-0.3-0.8-0.5c-0.4-0.2-0.8-0.3-0.8-0.5c0-0.1,0.5-0.3,1.1,0.1
					C1122.2,185.2,1122.4,185.7,1122.2,185.7z"/>
				<path class="st76" d="M1122.4,162.3c-0.4,0.4-1,0.5-1.5,0.5c-1,0.1-2.4-0.3-3.8,0c-0.7,0.2-1.3,0.4-2,0.7
					c-0.6,0.2-1.2,0.3-1.8,0.2c-0.4-0.1-0.8-0.2-1.1-0.5c-0.2-0.2-0.3-0.4-0.2-0.4c0.4,0.3,0.9,0.5,1.4,0.5c0.5,0,1.1-0.1,1.6-0.3
					c0.7-0.3,1.3-0.5,2-0.7c0.7-0.1,1.5-0.1,2.2,0c0.7,0.1,1.2,0.2,1.7,0.2C1121.4,162.5,1121.9,162.4,1122.4,162.3z"/>
				<path class="st76" d="M1120.2,160.8c-1.3,0.2-2.5,0.2-3.8,0.2c-1.3,0.1-2.5,0-3.8-0.1c1.2-0.3,2.5-0.4,3.8-0.4
					C1117.7,160.4,1118.9,160.5,1120.2,160.8z"/>
				<path class="st76" d="M1118.8,159.2c0,0.1-0.7,0-1.5-0.1c-0.8-0.1-1.4-0.1-1.5-0.3c0-0.1,0.7-0.3,1.5-0.2
					C1118.3,158.7,1118.9,159.1,1118.8,159.2z"/>
				<path class="st76" d="M1105.4,174.4c0.1,0.1-0.5,0.4-1.1,0.1s-0.8-0.8-0.7-0.9s0.4,0.3,0.9,0.4
					C1105,174.3,1105.4,174.3,1105.4,174.4z"/>
				<path class="st76" d="M1104.8,175.2c0,0.1-0.2,0.3-0.4,0.6c-0.2,0.3-0.4,0.6-0.5,0.6c-0.1,0-0.2-0.4,0.1-0.8
					C1104.3,175.1,1104.8,175,1104.8,175.2z"/>
				<path class="st12" d="M1134.2,233.9c-1.4-2.4-2.6-4.9-3.6-7.5c-1.2-3.3-2.1-6.7-2.8-10.1c0,0-3.4-8.8-5-9.2
					c-1.6-0.4-5.9,1.3-6.7,2.4c-0.8,1.1-1.9,8.4,0,8.2c1.1-0.1,2-0.9,2.4-1.9v-4.7c0,0,2.6,1.1,2.3,2.6c-0.3,1.5,0.5,14,1.2,16.4
					c0.7,2.4,2.7,10.1,2.7,10.1L1134.2,233.9z"/>
				<path class="st12" d="M1128.6,211.2c0,0-9.6-7.5-10-7.3c-1.1,0.6-11.4,7.1-11.2,8.7c0.2,1.6,0,15.3,0,15.3l-3.7,6.6l12,2.5
					l1.6-7.8c1.6-1.5,2.3-3.7,1.8-5.9c-0.8-3.8-4.2-8.6-4.2-8.6l3.6-5.6C1118.6,209.2,1123.7,215.1,1128.6,211.2z"/>
				<linearGradient id="SVGID_3_" gradientUnits="userSpaceOnUse" x1="1115.0486" y1="313.1671" x2="1134.5789" y2="313.1671">
					<stop  offset="0" style="stop-color:#FFDB00"/>
					<stop  offset="1" style="stop-color:#FFAE08"/>
				</linearGradient>
				<path class="st17" d="M1134.4,418.4c1.7-1.5-11.8-183.5-13.6-207.8c-0.1-1.5-1.4-2.7-2.9-2.7l0,0c-1.6,0-2.9,1.3-2.9,2.9
					c0,0.1,0,0.1,0,0.2l14.6,207.3L1134.4,418.4z"/>
				<path class="st76" d="M1120.8,210.6c0.1,0.1,0.2,0.2,0.3,0.3l0.8,0.9l0,0c0.9,0.4,1.8,0.6,2.8,0.6c1.4,0,2.7-0.5,3.8-1.3v0.3
					l-9.7-7.3l-0.3-0.2l0.3-0.2l0,0c-0.2-0.3,0.3,0.5,0.3,0.4l0,0l0,0h-0.1l-0.1,0.1l-0.2,0.2l-0.5,0.3l-1,0.6l-2,1.4l-4.3,2.8
					l-2,1.3c-0.6,0.4-1.2,0.9-1.5,1.6c-0.3,0.7-0.4,1.4-0.3,2.1c0,0.7,0.1,1.4,0.1,2.1c0.1,1.4,0.1,2.6,0.1,3.8
					c0.1,2.2,0.1,4.1,0.2,5.4c0,0.6,0,1.1,0,1.5c0,0.2,0,0.3,0,0.5c0-0.2-0.1-0.3-0.1-0.5c0-0.4-0.1-0.9-0.1-1.5
					c-0.1-1.3-0.2-3.2-0.3-5.4c-0.1-1.1-0.1-2.4-0.2-3.8c0-0.7-0.1-1.4-0.1-2.1c-0.1-0.8,0-1.6,0.3-2.3c0.4-0.7,1-1.4,1.7-1.8l2-1.3
					l4.3-2.8l2-1.3l0.9-0.6l0.5-0.3l0.2-0.2l0.1-0.1h0.1l0,0l0,0c0-0.1,0.5,0.7,0.3,0.4l0,0v-0.4l9.6,7.3l0.2,0.1l-0.2,0.1
					c-1.1,0.9-2.6,1.3-4,1.3c-1,0-2-0.2-2.9-0.7l0,0l-0.8-0.9C1121,210.9,1120.9,210.8,1120.8,210.6z"/>
				<path class="st76" d="M1131.3,230c-0.3-0.9-0.5-1.8-0.7-2.7c-0.4-1.6-0.9-3.9-1.6-6.4s-1.5-4.6-2.1-6.3
					c-0.4-0.8-0.7-1.7-0.9-2.6c0.5,0.8,0.9,1.6,1.2,2.5c0.9,2,1.6,4.1,2.2,6.3c0.6,2.1,1.1,4.3,1.5,6.4
					C1131.2,228.2,1131.3,229.1,1131.3,230z"/>
				<g class="st78">
					<path d="M1134.4,418.4c1.7-1.5-11.8-183.5-13.6-207.8c-0.1-1.5-1.4-2.7-2.9-2.7l0,0c-1.6,0-2.9,1.3-2.9,2.9c0,0.1,0,0.1,0,0.2
						l14.6,207.3L1134.4,418.4z"/>
				</g>
				<g class="st78">
					<path d="M1134.2,283.2c1.5,3.8,3.4,7.7,6.7,10.1c3.2,2.2,7.3,2.8,11.1,1.7c3.7-1.2,6.9-3.6,8.9-6.9c-8.7,5.7-20.3,3.4-26.1-5.3
						c-0.8-1.2-1.5-2.5-2-3.9"/>
				</g>
				<g class="st78">
					<path d="M1094.1,241.8c-4.6,3.7-8,8.6-10,14.2c-0.2,0.5-0.3,0.9-0.3,1.4c0,0.5,0.4,0.9,0.9,1.1c0.7,0.1,1.3-0.7,1.6-1.3
						c2.6-5.4,5.2-10.7,7.9-16.1"/>
				</g>
			</g>
			<g id="freepik--character-3--inject-50">
				<path class="st12" d="M894.1,168.1l-30.4,43.2l10.2,5c0,0,23.7-21.9,27.8-28.7c4.1-6.7,6.9-11.5,6.9-11.5
					S902.6,167.8,894.1,168.1z"/>
				<path class="st12" d="M863.6,211.2l-8.6,0.5l-9.3,8.6c0,0,1.8,2,3.8,0.8c2.1-1.2,7.5-4.8,7.5-4.8l4.6,0.9l-7,5.1
					c0,0-1,3,0.8,2.8c1.8-0.2,8.6-3.6,12.1-4.2c3.4-0.6,6.3-4.8,6.3-4.8L863.6,211.2z"/>
				<polygon class="st12" points="941.9,119.6 949.4,116.4 972.3,117.9 979.6,122.4 956.5,149.5 				"/>
				<path class="st15" d="M941.2,71.4c1-3.5,3.3-6.5,6.6-8.3c3.6-1.8,7.7-2.3,11.6-1.4c3.9,0.9,7.6,2.4,11,4.5c2,1,3.8,2.4,5.3,4.1
					c2.5,3.2,2.9,7.5,3.1,11.6c0.2,3.3,0.4,6.7-1,9.7c-1.3,2.8-3.8,4.8-6.8,5.5"/>
				<path class="st15" d="M976.8,87.9c3.9-4.4,5.7-10.3,5.2-16.1c-0.2-1.9-0.7-4-2.2-5.3c-0.8-0.6-1.7-1-2.5-1.6
					c-1.4-1.1-2.1-3-3.5-4.2c-2.3-2-5.7-1.9-7.8,0.4c-0.6,0.6-1,1.4-1.2,2.2c-0.7,2.5,0.3,5.1,1.4,7.4c1.6,3.6,3.2,7.3,4.8,10.9
					c0.5,1.4,1.3,2.7,2.2,3.9c1,1.2,2.4,1.8,3.9,1.8"/>
				<path class="st15" d="M942.8,69c-5.9,6.4-6.6,16.1-1.6,23.3c2-8.9,4.8-17.7,8.4-26.1"/>
				<path class="st12" d="M939.4,81.1c0.4-6.5,4.7-14.4,11.2-13.7l14.9,3.8c4.7,1.2,8.1,5.3,8.3,10.2c0,0.3,0-0.1,0,0.1l-1.1,39.1
					c-0.2,6.4-5.5,11.5-11.9,11.3l0,0c-6.3-0.1-11.4-5.3-11.4-11.6c0-3.1,0-6.9,0-6.8s-8.3-1.4-9.9-12.2
					C938.6,95.9,938.9,88.3,939.4,81.1z"/>
				<path class="st79" d="M954.2,77.7c-1,0.4-2.1,0.6-3.1,0.6c-1.1,0.2-2.1,0.2-3.2,0c0-0.1,1.4-0.1,3.2-0.3
					C952.8,77.9,954.2,77.7,954.2,77.7z"/>
				<path class="st79" d="M951.8,77.3c-0.6,0.2-1.3,0.4-1.9,0.4c-0.7,0.1-1.3,0-2-0.1c0.6-0.1,1.3-0.1,2-0.1
					C950.5,77.4,951.1,77.3,951.8,77.3z"/>
				<path class="st79" d="M956.3,98.7c-0.1,0-0.2-0.4-0.6-0.7s-0.9-0.2-0.9-0.3s0.1-0.1,0.3-0.1c0.5,0,1,0.3,1.2,0.8
					C956.3,98.6,956.3,98.7,956.3,98.7z"/>
				<path class="st15" d="M943.7,88.5c0,0.7,0.6,1.4,1.3,1.4c0.7,0.1,1.4-0.5,1.4-1.2c0,0,0,0,0,0c0-0.8-0.6-1.4-1.4-1.4
					C944.4,87.3,943.8,87.8,943.7,88.5z"/>
				<path class="st15" d="M941.3,85.7c0.2,0.2,1.2-0.6,2.7-0.6c1.5,0,2.6,0.8,2.7,0.6s-0.1-0.4-0.6-0.8c-0.6-0.4-1.4-0.7-2.2-0.7
					c-0.8,0-1.5,0.2-2.2,0.7C941.3,85.3,941.2,85.6,941.3,85.7z"/>
				<path class="st15" d="M958.6,89.1c0,0.8,0.6,1.4,1.3,1.4c0.7,0.1,1.4-0.5,1.4-1.2c0,0,0,0,0,0c0-0.7-0.6-1.4-1.3-1.4
					C959.3,87.9,958.7,88.4,958.6,89.1z"/>
				<path class="st15" d="M955.9,86c0.2,0.2,1.2-0.6,2.7-0.6c1.5,0,2.6,0.8,2.7,0.6s-0.1-0.4-0.6-0.8c-0.6-0.4-1.4-0.7-2.2-0.7
					c-0.8,0-1.5,0.2-2.2,0.7C955.9,85.6,955.8,85.9,955.9,86z"/>
				<path class="st15" d="M950.5,97c-0.8-0.3-1.6-0.4-2.4-0.4c-0.4,0-0.7-0.1-0.8-0.4c0-0.4,0.1-0.8,0.3-1.1l1.1-2.9
					c1.6-4.1,2.7-7.5,2.5-7.6c-0.1-0.1-1.6,3.2-3.1,7.3c-0.4,1-0.7,2-1.1,2.9c-0.2,0.5-0.3,1-0.2,1.5c0.1,0.3,0.3,0.5,0.6,0.6
					c0.2,0.1,0.4,0.1,0.6,0.1C948.9,97.1,949.7,97.1,950.5,97z"/>
				<path class="st79" d="M963.7,109.6c0,0-3.5,7.4-14.3,6.4v-2.5C954.4,113.5,959.4,112.2,963.7,109.6z"/>
				<path class="st27" d="M951.1,100.6c0.6-0.7,1.5-1.1,2.4-1c0.7,0.1,1.3,0.4,1.7,0.9c0.4,0.5,0.5,1.2,0.1,1.8
					c-0.5,0.5-1.3,0.7-2,0.5c-0.7-0.2-1.3-0.6-1.9-1.1c-0.2-0.1-0.3-0.3-0.4-0.4C950.9,101,950.9,100.8,951.1,100.6"/>
				<path class="st15" d="M954.8,98.1c-0.2,0-0.2,1.6-1.6,2.7s-3.1,1-3.1,1.2c0,0.2,0.4,0.3,1.1,0.3c0.9,0,1.9-0.3,2.6-0.9
					c0.7-0.6,1.2-1.4,1.3-2.3C955.1,98.4,955,98,954.8,98.1z"/>
				<path class="st15" d="M955.5,81.6c0.1,0.4,1.6,0.2,3.4,0.4s3.2,0.7,3.4,0.3c0.1-0.2-0.1-0.6-0.7-0.9c-0.8-0.5-1.6-0.8-2.5-0.9
					c-0.9-0.1-1.8,0-2.6,0.3C955.8,81.1,955.5,81.4,955.5,81.6z"/>
				<path class="st15" d="M941.8,81.4c0.3,0.3,1.3,0,2.5,0s2.3,0.2,2.5-0.1c0.1-0.2-0.1-0.5-0.5-0.8c-1.3-0.8-2.9-0.7-4.1,0.1
					C941.8,80.9,941.7,81.2,941.8,81.4z"/>
				<path class="st15" d="M942.3,71.3c0.8-1.6,2.4-2.7,4.2-2.7c1.8,0,3.5,0.5,5,1.4c6.4,3.7,10,11.1,16.4,14.9
					c1.6,0.8,3.2,1.8,4.6,3c1.3,1.3,2.2,3.3,1.5,4.9c0.9-1.1,1.7-2.4,2.2-3.7c0.5-1.4,0.5-2.9-0.2-4.2c-0.5-1-1.5-1.7-1.8-2.7
					s0.1-1.9,0.1-2.9c-0.1-1-0.5-1.9-1-2.7c-2.4-4.5-5.9-8.2-10.3-10.8c-2.9-1.7-6.1-2.5-9.5-2.4c-3.3,0.1-6.5,1.3-9,3.6
					C943,68.1,941.5,69.5,942.3,71.3"/>
				<path class="st60" d="M973.8,92.8c0,0,0.1-0.2,0.3-0.4c0.3-0.4,0.5-0.9,0.7-1.4c0.5-1.9,0.3-3.9-0.6-5.6
					c-0.5-1.1-1.2-2.3-1.9-3.6c-0.7-1.4-1.4-2.8-2-4.2c-0.6-1.6-1.4-3.1-2.3-4.6c-1-1.5-2.2-2.9-3.6-4.1c-2.7-2.3-6-3.8-9.5-4.4
					c-2.9-0.5-5.8-0.1-8.4,1.1c-1.7,0.9-3.2,2.3-4,4c-0.2,0.5-0.4,1-0.6,1.5c0,0.2-0.1,0.4-0.1,0.5c0,0,0-0.1,0-0.1
					c0-0.1,0-0.2,0.1-0.4c0.1-0.5,0.3-1,0.5-1.5c0.9-1.8,2.3-3.2,4.1-4.1c2.6-1.3,5.6-1.7,8.5-1.2c3.5,0.5,6.9,2.1,9.6,4.4
					c1.4,1.2,2.6,2.6,3.6,4.2c0.9,1.5,1.6,3,2.3,4.6c0.6,1.4,1.2,2.8,2,4.2c0.7,1.3,1.4,2.5,1.9,3.6c0.9,1.8,1.1,3.8,0.5,5.7
					c-0.2,0.5-0.4,1-0.8,1.4C974.1,92.5,973.9,92.7,973.8,92.8z"/>
				<path class="st60" d="M978.8,87.2c0-0.1,0-0.2,0-0.3V86c0-0.8,0.1-1.9,0-3.2c0-1.6-0.2-3.2-0.5-4.7c-0.3-1.9-1.1-3.7-2.3-5.3
					c-1.2-1.5-2.6-2.9-4.1-4.1c-1.4-1.2-2.6-2.2-3.7-3s-2-1.4-2.7-1.8l-0.8-0.4c-0.2-0.1-0.3-0.2-0.3-0.2l0.3,0.1
					c0.2,0.1,0.4,0.2,0.8,0.4c1,0.5,1.9,1.1,2.8,1.7c1.1,0.8,2.4,1.8,3.8,3c1.5,1.2,2.9,2.6,4.2,4.1c1.2,1.6,2,3.4,2.3,5.4
					c0.3,1.6,0.5,3.2,0.5,4.8c0,1.4,0,2.5-0.1,3.2c0,0.4-0.1,0.7-0.1,0.9C978.8,86.9,978.8,87.1,978.8,87.2z"/>
				<path class="st60" d="M974,61.1c0.2,0.4,0.3,0.8,0.3,1.2c0.2,1,0.2,2,0.1,3c-0.1,1-0.2,2-0.5,3c-0.1,0.4-0.2,0.8-0.4,1.2
					c0.3-1.4,0.5-2.8,0.7-4.2C974.3,63.9,974.2,62.5,974,61.1z"/>
				<path class="st60" d="M981.6,69.1c-0.1,0.3-0.2,0.6-0.4,0.9c-0.4,0.7-0.9,1.3-1.6,1.8c-0.6,0.4-1.4,0.7-2.1,0.9
					c-0.3,0.1-0.6,0.1-1,0.1c0.3-0.1,0.6-0.2,0.9-0.3c1.5-0.5,2.7-1.4,3.6-2.7C981.2,69.6,981.4,69.3,981.6,69.1z"/>
				<path class="st60" d="M982.2,76.3c-0.7,0.3-1.4,0.4-2.1,0.4c-0.7,0-1.5-0.2-2.1-0.5c0-0.1,1,0.2,2.1,0.2
					C981.2,76.5,982.1,76.3,982.2,76.3z"/>
				<path class="st15" d="M977.5,95.2c-0.3-0.1-0.1-0.8-0.1-2c0-0.6,0-1.3-0.2-1.9c-0.1-0.1-0.1-0.3-0.2-0.4c0-0.1-0.1-0.1-0.1-0.2
					l-0.2-0.3c-0.3-0.4-0.6-0.7-0.9-1c-0.2-0.3-0.6-0.5-0.9-0.7c-0.1,0-0.1,0-0.1,0l-0.4,0.1l-0.4,0.1c-0.5,0.1-1,0.3-1.5,0.6
					c-0.3,0.1-0.5,0.3-0.8,0.4l-0.2,0.1l-0.3,0.2c-0.2,0.1-0.5,0.2-0.7,0.3c-1,0.4-2,0.6-3,0.5c-0.6,0-1.2-0.2-1.8-0.5l-0.2-0.1
					l-0.2-0.1l-0.4-0.2c-0.2-0.2-0.5-0.3-0.7-0.5c-0.8-0.7-1.4-1.6-1.8-2.5c-0.4-0.9-0.8-1.7-1.1-2.5c-1.1-2.8-2.7-5.3-4.6-7.6
					c-1.6-1.9-3.4-3.6-5.4-5c-1.3-1-2.8-1.8-4.3-2.4c-1.1-0.4-1.8-0.5-1.8-0.8s0.6-0.7,2.1-0.7c1.9,0.1,3.8,0.6,5.5,1.6
					c2.5,1.3,4.7,2.9,6.7,5c2.4,2.5,4.3,5.4,5.6,8.6c0.3,0.8,0.6,1.5,0.9,2.2c0.2,0.5,0.6,1,1,1.5L967,87l0.1,0.1l0.1,0.1l0,0
					c0.1,0.1,0.3,0.1,0.4,0.1c0.5,0,1,0,1.4-0.2c0.1,0,0.2-0.1,0.3-0.1l0.1-0.1l0.3-0.1c0.4-0.2,0.7-0.4,1.1-0.5
					c0.8-0.3,1.5-0.5,2.3-0.6l0.6-0.1h0.3h0.3c0.6,0,1.2,0.1,1.7,0.4c0.7,0.4,1.3,0.9,1.7,1.6c0.3,0.5,0.6,1,0.9,1.6l0.2,0.4
					c0.1,0.2,0.1,0.3,0.2,0.5c0.1,0.3,0.1,0.6,0.2,0.9c0.1,0.9-0.1,1.8-0.5,2.6C978.3,94.8,977.7,95.3,977.5,95.2z"/>
				<path class="st12" d="M972.3,89.2c0.1-0.3,5.7-2.3,5.8,3.6c0.1,5.8-5.8,4.7-5.8,4.5S972.3,89.2,972.3,89.2z"/>
				<path class="st79" d="M974.1,95.1c0,0,0.1,0.1,0.3,0.1c0.2,0.1,0.5,0.1,0.8,0c0.8-0.5,1.2-1.4,1.1-2.3c0-0.5-0.1-1-0.3-1.4
					c-0.1-0.4-0.4-0.7-0.8-0.8c-0.2-0.1-0.5,0.1-0.6,0.3c-0.1,0.2,0,0.3-0.1,0.3c-0.1,0-0.1-0.1-0.1-0.3c0-0.1,0.1-0.3,0.2-0.4
					c0.2-0.1,0.4-0.2,0.6-0.2c0.5,0.1,0.9,0.4,1.1,0.9c0.3,0.5,0.4,1.1,0.4,1.6c0.1,1.1-0.5,2-1.5,2.5c-0.3,0.1-0.6,0-0.9-0.1
					C974.1,95.3,974,95.1,974.1,95.1z"/>
				<path class="st60" d="M976.8,89.1c0,0-0.1-0.2-0.3-0.4c-0.3-0.4-0.6-0.6-1-0.8c-0.7-0.2-1.4-0.3-2.1-0.2
					c-0.9,0.2-1.8,0.5-2.6,0.9c-1,0.5-2.2,0.8-3.3,0.8c-1.3-0.1-2.6-0.8-3.4-1.8c-0.9-1.1-1.6-2.4-2.1-3.8c-0.5-1.4-0.9-2.9-1.5-4.4
					c-1-2.8-2.6-5.4-4.6-7.5c-1.7-1.7-3.8-3-6.2-3.6c-0.9-0.2-1.8-0.3-2.7-0.3c-0.7,0-1.4,0.1-2.1,0.3c-0.6,0.2-1.1,0.3-1.7,0.6
					c0,0,0,0,0.1-0.1l0.3-0.2c0.4-0.2,0.8-0.3,1.3-0.4c0.7-0.2,1.4-0.3,2.1-0.3c0.9,0,1.9,0.1,2.8,0.3c2.4,0.6,4.6,1.9,6.3,3.6
					c2,2.2,3.6,4.8,4.6,7.6c0.6,1.5,1,3,1.5,4.4c0.4,1.4,1.1,2.6,2,3.7c0.8,1,2,1.6,3.3,1.8c1.1,0,2.2-0.3,3.2-0.8
					c0.8-0.4,1.8-0.7,2.7-0.9c0.7-0.1,1.4,0,2.1,0.2c0.4,0.2,0.8,0.5,1,0.8C976.6,88.9,976.7,89,976.8,89.1
					C976.7,89.1,976.8,89.1,976.8,89.1z"/>
				<path class="st60" d="M974.6,86.2c-0.1,0-0.2-0.1-0.3-0.2c-0.2-0.1-0.6-0.3-1-0.6c-1.1-0.8-2.2-1.8-3.1-2.8
					c-1.4-1.6-2.7-3.3-3.8-5c-1.4-2.1-3-4.1-4.8-6c-0.9-0.9-2-1.7-3.1-2.4c-1-0.6-2.2-1.1-3.3-1.5c-2-0.6-4.1-0.9-6.2-0.8
					c-1.4,0.1-2.8,0.4-4.1,0.8c-0.5,0.2-0.8,0.3-1.1,0.4c-0.1,0.1-0.3,0.1-0.4,0.1c0.1-0.1,0.2-0.1,0.4-0.2c0.3-0.2,0.7-0.3,1.1-0.4
					c1.3-0.5,2.7-0.8,4.1-0.9c2.1-0.2,4.2,0.1,6.3,0.7c1.2,0.4,2.3,0.9,3.4,1.5c1.1,0.7,2.2,1.5,3.1,2.5c1.8,1.9,3.4,3.9,4.8,6
					c1.4,1.9,2.6,3.7,3.8,5c0.9,1.1,1.9,2,3.1,2.9c0.4,0.3,0.7,0.5,0.9,0.7C974.4,86,974.5,86.1,974.6,86.2z"/>
				<path class="st9" d="M974.7,96.1c0.6-0.1,1.2,0.3,1.3,1c0.1,0.6-0.3,1.2-1,1.3c-0.5,0.1-1.1-0.2-1.2-0.7
					c-0.2-0.6,0.1-1.2,0.6-1.5"/>
				<path class="st15" d="M974.4,96.2c-0.2,0.2-0.4,0.5-0.5,0.8c-0.1,0.3,0,0.6,0.2,0.9c0.3,0.3,0.7,0.4,1.1,0.3
					c0.4-0.1,0.7-0.5,0.7-0.9c0.1-0.3-0.1-0.7-0.3-0.9c-0.3-0.2-0.6-0.3-0.9-0.3c0,0,0.1-0.1,0.3-0.1c0.3,0,0.5,0.1,0.7,0.3
					c0.3,0.2,0.5,0.6,0.5,1c0,0.7-0.6,1.2-1.3,1.2c-0.3,0-0.7-0.2-0.9-0.5c-0.3-0.3-0.4-0.7-0.2-1.1c0.1-0.3,0.2-0.5,0.4-0.6
					C974.3,96.2,974.4,96.2,974.4,96.2z"/>
				<path class="st60" d="M936.4,388.7l0.9,17.3c0,0-17.3,5.5-17.5,8.7l33.7,0.7l-0.3-27.1L936.4,388.7z"/>
				<g class="st73">
					<path class="st9" d="M947.7,404.4c0.7,0.2,1.1,0.9,1,1.6c-0.2,0.7-0.8,1.1-1.5,1c-0.7-0.2-1.2-0.9-1-1.7c0.3-0.7,1-1.1,1.7-0.8
						"/>
				</g>
				<g class="st73">
					<path class="st9" d="M953.5,415.5v-2.7l-32.6,0.5c-0.7,0.3-1.2,1-1.3,1.8L953.5,415.5z"/>
				</g>
				<path class="st15" d="M936.7,405.9c0,0.2,0.8,0.2,1.6,0.7c0.8,0.5,1.3,1.2,1.4,1.1c0.2-0.1-0.1-1-1.1-1.6
					S936.7,405.8,936.7,405.9z"/>
				<path class="st15" d="M933.2,407.4c0,0.2,0.7,0.4,1.3,1.1c0.6,0.7,0.7,1.4,0.9,1.4c0.2,0,0.3-0.9-0.5-1.8
					S933.2,407.3,933.2,407.4z"/>
				<path class="st15" d="M931.3,411.7c0.2,0,0.4-0.8-0.1-1.7c-0.4-0.9-1.2-1.2-1.3-1.1c-0.1,0.1,0.4,0.6,0.8,1.4
					C931.1,411,931.1,411.7,931.3,411.7z"/>
				<path class="st15" d="M937,401.9c0.1,0.2,0.8-0.1,1.8,0c1,0,1.7,0.3,1.7,0.2c0.1-0.1-0.6-0.7-1.7-0.8
					C937.7,401.3,936.9,401.8,937,401.9z"/>
				<path class="st15" d="M936.8,398.4c0.6,0.2,1.1,0.2,1.7,0c0.6-0.1,1.2-0.3,1.8-0.6c0.3-0.2,0.7-0.3,1-0.5
					c0.2-0.1,0.4-0.2,0.5-0.4c0.2-0.2,0.2-0.6,0.1-0.9c-0.2-0.2-0.4-0.4-0.7-0.4c-0.2,0-0.4,0-0.6,0.1c-0.4,0.1-0.7,0.2-1,0.4
					c-0.6,0.3-1.1,0.6-1.5,1c-0.8,0.7-1,1.4-1,1.4s0.4-0.5,1.2-1.1c0.5-0.4,1-0.7,1.5-0.9c0.3-0.1,0.6-0.2,1-0.3
					c0.3-0.1,0.7-0.1,0.8,0.1c0.1,0.2,0,0.1,0,0.2c-0.1,0.1-0.2,0.2-0.4,0.3c-0.3,0.2-0.6,0.4-0.9,0.5c-0.5,0.3-1.1,0.5-1.6,0.7
					C937.9,398.1,937.4,398.3,936.8,398.4z"/>
				<path class="st15" d="M937.1,398.6c0.3-0.5,0.5-1.1,0.4-1.6c0-0.6-0.1-1.2-0.3-1.8c-0.1-0.4-0.3-0.7-0.4-1
					c-0.2-0.4-0.6-0.8-1.1-0.8c-0.3,0-0.6,0.2-0.7,0.5c-0.1,0.2-0.1,0.4-0.2,0.6c-0.1,0.4-0.1,0.8,0,1.1c0.1,0.6,0.4,1.2,0.7,1.7
					c0.7,0.9,1.4,1,1.4,1c0-0.1-0.5-0.4-1-1.2c-0.3-0.5-0.5-1-0.6-1.6c0-0.3,0-0.7,0-1c0-0.4,0.2-0.7,0.3-0.6c0.1,0,0.5,0.3,0.6,0.5
					c0.2,0.3,0.3,0.6,0.4,0.9c0.2,0.5,0.3,1.1,0.3,1.7C937.1,398,937,398.6,937.1,398.6z"/>
				<path class="st60" d="M971.6,386.9l0.6,22.4l5.6,17.6c0.4,1.2-0.3,2.5-1.5,2.9c-0.1,0-0.1,0-0.2,0l0,0c-0.7,0.2-1.5,0-2-0.5
					c-3.6-3.1-16.7-14.6-16.7-16.2c0.1-1.9-2.2-23.6-2.2-23.6L971.6,386.9z"/>
				<g class="st73">
					<path class="st9" d="M976.2,429.7l-18.8-18.2l0.1,0.9c0,0.8,0.3,1.6,0.9,2.2c1.5,1.6,5.8,5.9,15.7,14.6
						C974.6,429.8,975.4,429.9,976.2,429.7L976.2,429.7z"/>
				</g>
				<g class="st73">
					<path class="st9" d="M961.6,404.1c0.6,0.4,0.8,1.2,0.5,1.8c-0.4,0.6-1.2,0.8-1.8,0.5c-0.6-0.4-0.8-1.2-0.5-1.9
						C960.3,403.9,961.1,403.7,961.6,404.1"/>
				</g>
				<path class="st15" d="M970.6,420.2c0.1,0.1,0.6-1.1,1.9-1.8c0.8-0.4,1.7-0.6,2.6-0.6c0-0.1-0.3-0.2-0.8-0.3
					c-1.4-0.1-2.7,0.7-3.4,1.9C970.6,419.9,970.5,420.2,970.6,420.2z"/>
				<path class="st15" d="M972.3,423.1c0.1,0.1,0.8-0.7,1.9-1.1c0.7-0.2,1.4-0.3,2.2-0.4c-0.7-0.4-1.6-0.4-2.3-0.1
					C972.8,422.1,972.2,423.1,972.3,423.1z"/>
				<path class="st15" d="M967.4,416.5c1.7-1.5,3.9-2.5,6.2-2.8C971.2,413.4,968.8,414.5,967.4,416.5z"/>
				<path class="st15" d="M966.7,409.8c0.1,0.1,1.3-0.4,2.9-0.6c1.6-0.1,2.9,0.2,2.9,0C970.6,408.3,968.4,408.5,966.7,409.8
					L966.7,409.8z"/>
				<path class="st15" d="M966.3,403.2c1.9-0.9,4.1-0.9,6-0.1c0,0-0.2-0.3-0.8-0.6c-1.4-0.7-3.1-0.6-4.5,0.1
					C966.5,402.9,966.3,403.1,966.3,403.2z"/>
				<path class="st15" d="M969.2,401.2c0.1-0.3,0.1-0.6,0-0.9c-0.1-0.8-0.4-1.5-0.8-2.2c-0.3-0.5-0.7-0.9-1.2-1.2
					c-0.4-0.1-0.8,0-1,0.3c-0.2,0.3-0.3,0.7-0.3,1c0.2,1.5,1.4,2.7,3,2.9c1.5,0.1,2.9-0.8,3.6-2.2c0.2-0.3,0.2-0.7,0-1.1
					c-0.2-0.3-0.6-0.5-1-0.4c-0.5,0.2-1,0.5-1.4,0.9c-0.6,0.5-1.1,1.1-1.4,1.8c-0.2,0.2-0.3,0.5-0.3,0.8c0.5-0.9,1.2-1.7,2-2.3
					c0.4-0.3,0.8-0.6,1.3-0.7c0.2-0.1,0.4,0,0.5,0.2c0.1,0.2,0.1,0.5,0,0.7c-0.6,1.2-1.8,1.9-3.1,1.8c-1.3-0.1-2.4-1.1-2.6-2.4
					c0-0.3,0-0.5,0.2-0.7c0.1-0.2,0.4-0.2,0.6-0.2c0.4,0.2,0.8,0.6,1,1C968.6,399.2,969,400.2,969.2,401.2z"/>
				<linearGradient id="SVGID_4_" gradientUnits="userSpaceOnUse" x1="947.369" y1="321.4234" x2="995.6262" y2="321.4234">
					<stop  offset="0" style="stop-color:#FFDB00"/>
					<stop  offset="1" style="stop-color:#FFAE08"/>
				</linearGradient>
				<polygon class="st18" points="947.4,244.4 951.8,400.1 975.7,402 995.6,240.8 				"/>
				<linearGradient id="SVGID_5_" gradientUnits="userSpaceOnUse" x1="915.1139" y1="320.1613" x2="966.962" y2="320.1613">
					<stop  offset="0" style="stop-color:#FFDB00"/>
					<stop  offset="1" style="stop-color:#FFAE08"/>
				</linearGradient>
				<path class="st19" d="M915.1,242.4c0,0,3.2,49.4,6.3,67.9c3.1,18.5,10.6,85.4,14.1,87c3.5,1.5,24-0.6,24-0.6L967,244
					L915.1,242.4z"/>
				<g class="st78">
					<polygon points="915.8,252.1 916,254.9 954.1,259.7 965.1,253.5 987.1,252.3 					"/>
				</g>
				<path class="st15" d="M950.9,398.5c-0.1,0,0.5-31.9,1.3-71.1c0.9-39.3,1.7-71.1,1.8-71.1s-0.5,31.9-1.3,71.2
					S951.1,398.5,950.9,398.5z"/>
				<linearGradient id="SVGID_6_" gradientUnits="userSpaceOnUse" x1="890.4883" y1="185.4184" x2="1000.631" y2="185.4184">
					<stop  offset="0" style="stop-color:#FFDB00"/>
					<stop  offset="1" style="stop-color:#FFAE08"/>
				</linearGradient>
				<path class="st20" d="M890.5,166.1c0,0,25.7-36.9,27.9-37.4c2.1-0.5,25.5-10.7,25.5-10.7l14.1,28.4l21.4-24.5
					c0,0,20,15,21.2,18.3s-15.2,51.2-15.2,51.2s7.4,11.4,8.8,24.3c1.4,12.9-1.4,37.2-1.4,37.2l-81.2-0.7c0,0-0.9-35.9,5.3-54.6
					c3.3-10.1,7-22.1,7-22.1l-1.9-6.9l-13.3,15L890.5,166.1z"/>
				<path class="st15" d="M963.6,158c0.1-0.1,0.3-0.1,0.4-0.2c0.4-0.1,0.9-0.2,1.3-0.3c1.7-0.1,3.4,0,5.1,0.6
					c2.1,0.6,4.6,1.5,7.5,2.5c1.4,0.5,3,1,4.6,1.4c1.7,0.5,3.4,0.8,5.2,0.8h0.3v0.2c-1.2,6.8-2.7,14.8-4.2,23.3l-0.2,1.3l-0.1,0.3
					l-0.3-0.1c-2-0.9-3.9-1.7-5.8-2.5c-1.9-0.8-3.8-1.4-5.7-2c-3.6-0.7-7.3-1.2-10.9-1.4h-0.2v-0.2c0.9-7.1,1.6-13,2.1-17.2
					c0.3-2,0.5-3.7,0.6-4.8c0.1-0.5,0.1-0.9,0.2-1.3C963.5,158.3,963.6,158.2,963.6,158c0,0.2,0,0.3,0,0.5c0,0.3-0.1,0.7-0.1,1.3
					c-0.1,1.2-0.3,2.8-0.5,4.8l-2,17.2l-0.2-0.2c3.7,0.2,7.4,0.7,11,1.4c2,0.5,3.9,1.2,5.8,2c1.9,0.8,3.9,1.6,5.8,2.5l-0.3,0.2
					c0.1-0.4,0.2-0.9,0.2-1.3c1.6-8.5,3-16.5,4.3-23.3l0.2,0.2c-1.8-0.1-3.6-0.4-5.4-0.9c-1.6-0.4-3.2-0.9-4.6-1.5
					c-2.9-1-5.4-1.9-7.5-2.5c-1.6-0.5-3.3-0.8-5-0.7C964.8,157.7,964.2,157.9,963.6,158z"/>
				<linearGradient id="SVGID_7_" gradientUnits="userSpaceOnUse" x1="985.3461" y1="168.0685" x2="1012.9895" y2="168.0685">
					<stop  offset="0" style="stop-color:#FFDB00"/>
					<stop  offset="1" style="stop-color:#FFAE08"/>
				</linearGradient>
				<polygon class="st21" points="1000.6,140.2 1013,186.9 987.9,196 985.3,191.4 				"/>
				<path class="st15" d="M911.5,243.1c0.1,0,0.1,0,0.2,0l0.6,0.1l2.3,0.4c2,0.3,4.9,0.8,8.5,1c2,0.2,3.9,0.2,5.9,0
					c0.5,0,1.1-0.1,1.6-0.2c0.3-0.1,0.5-0.1,0.8-0.2l0.8-0.3c1-0.3,1.6-1.4,2.1-2.4c0.5-1.1,0.8-2.3,1.1-3.5
					c0.3-1.2,0.5-2.5,0.7-3.8c0.4-2.6,0.6-5.3,0.8-8.1c0.4-6,0.4-11.7,0.3-16.8l0.2,0.2l-16.8-0.4l-4.8-0.1l-1.3,0
					c-0.1,0-0.3,0-0.4,0c0.1,0,0.3,0,0.4,0h1.3h4.8l16.8,0.2h0.2v0.2c0.1,5.1,0.1,10.8-0.3,16.9c-0.2,2.8-0.4,5.5-0.8,8.1
					c-0.2,1.3-0.4,2.6-0.7,3.8c-0.2,1.2-0.6,2.4-1.1,3.6c-0.2,0.6-0.5,1.1-0.9,1.6c-0.2,0.2-0.4,0.5-0.6,0.7
					c-0.2,0.2-0.5,0.3-0.8,0.4l-0.8,0.3c-0.3,0.1-0.6,0.1-0.8,0.2c-0.5,0.1-1.1,0.2-1.6,0.2c-2,0.1-4,0.1-5.9,0
					c-2.9-0.2-5.7-0.6-8.5-1.2c-1-0.2-1.8-0.4-2.3-0.5l-0.6-0.1C911.7,243.2,911.6,243.2,911.5,243.1z"/>
				<path class="st15" d="M937.1,215.3c0,0.1-5.4,0.2-11.9,0.2s-11.9-0.1-11.9-0.2c0-0.1,5.4-0.2,11.9-0.2S937.1,215.2,937.1,215.3z
					"/>
				<path class="st15" d="M947.9,163.2c0.1,0.1-6,8.3-13.7,18.5s-14,18.3-14.1,18.2c-0.1-0.1,6-8.3,13.7-18.5
					C941.5,171.3,947.8,163.1,947.9,163.2z"/>
				<path class="st15" d="M922,168.5c-0.1-0.5-0.2-0.9-0.3-1.4c-0.1-0.9-0.3-2.3-0.5-3.9c-0.4-3.3-0.7-7.9-0.8-13
					c0-4.3,0.2-8.7,0.7-13c0.2-1.6,0.4-3,0.5-3.9c0.1-0.5,0.1-1,0.3-1.4c0,0.5,0,1-0.1,1.4c-0.1,0.9-0.2,2.3-0.4,3.9
					c-0.3,3.3-0.6,7.9-0.5,13c0,5.1,0.3,9.6,0.6,12.9c0.1,1.6,0.3,2.9,0.3,3.9C922,167.5,922,168,922,168.5z"/>
				<path class="st15" d="M940.1,153.5c-0.1,0.4-0.2,0.8-0.4,1.3c-0.3,0.8-0.8,1.9-1.4,3.4c-1.2,2.8-2.9,6.7-4.9,10.9
					c-2,4.2-4,7.9-5.5,10.6c-0.7,1.3-1.4,2.4-1.8,3.1c-0.2,0.4-0.4,0.8-0.7,1.1c0.1-0.4,0.3-0.8,0.6-1.2c0.4-0.8,1-1.9,1.7-3.2
					c1.4-2.7,3.3-6.5,5.4-10.6s3.8-8.1,5-10.8l1.5-3.3C939.7,154.3,939.9,153.9,940.1,153.5z"/>
				<path class="st15" d="M985.3,126.4c-0.1,0.2-0.3,0.4-0.4,0.6l-1.3,1.7L979,135l-16.1,21.1l-0.1,0.1h-10.3l-0.1-0.1l-11.6-24.7
					l-3.4-7.4c-0.4-0.8-0.7-1.5-0.9-2l-0.2-0.5c0-0.1,0-0.1-0.1-0.2c0,0,0.1,0.1,0.1,0.2l0.3,0.5l1,2l3.6,7.3
					c3,6.3,7.2,14.9,11.8,24.6l-0.2-0.1h10l-0.2,0.1l16.2-21l4.8-6.2l1.3-1.7C985,126.8,985.2,126.6,985.3,126.4z"/>
				<path class="st15" d="M983.5,211.7c0,0-0.3-0.2-0.7-0.7c-0.4-0.5-0.9-1.3-1.6-2.2c-1.6-2.5-3-5.1-4.2-7.9
					c-1.1-2.7-2-5.6-2.7-8.5c-0.2-1.1-0.4-2-0.5-2.7c-0.1-0.3-0.1-0.7-0.1-1c0.1,0,0.3,1.4,0.9,3.6c1.5,5.7,3.8,11.2,6.9,16.2
					C982.8,210.6,983.6,211.7,983.5,211.7z"/>
				<path class="st15" d="M977.3,198.4c-0.1-0.1,2.1-1.6,4.5-3.7c2.5-2.1,4.3-4,4.4-3.9C983.8,193.9,980.7,196.5,977.3,198.4
					L977.3,198.4z"/>
				<path class="st15" d="M988.8,197.7c0,0-0.1-0.1-0.2-0.3l-0.5-0.9c-0.5-0.9-1.1-2.1-1.9-3.6v0v-0.1c1.3-5,3.5-13.3,6-22.6
					c2.1-7.7,4-14.6,5.4-19.7c0.7-2.5,1.3-4.5,1.7-6l0.5-1.6c0-0.2,0.1-0.4,0.2-0.6c0,0.2-0.1,0.4-0.1,0.6c-0.1,0.4-0.2,1-0.4,1.6
					c-0.4,1.5-0.9,3.5-1.6,6c-1.4,5.1-3.2,12.1-5.3,19.7c-2.5,9.3-4.8,17.5-6.3,22.5v-0.1l1.8,3.7l0.5,1
					C988.6,197.5,988.7,197.6,988.8,197.7z"/>
				<g class="st78">
					<path d="M942.4,164c-8.1,10.5-15.1,21.8-20.9,33.7l0.6-0.3l5.9-8.2l14.5-20.1c0.7-0.8,1.1-1.7,1.3-2.7
						C944.1,165.3,943.5,164.3,942.4,164z"/>
				</g>
				<g class="st78">
					<path d="M922,168.5c-4.4-8.4-4.8-18.3-1-27C920.9,141.5,921.1,164.1,922,168.5z"/>
				</g>
				<path class="st15" d="M986.5,168c-0.3,0-0.6,0-1-0.1c-0.6-0.1-1.5-0.2-2.6-0.4c-2.2-0.4-5.1-1-8.4-1.8c-3.3-0.8-6.2-1.6-8.3-2.3
					c-1-0.3-1.9-0.6-2.5-0.8c-0.3-0.1-0.6-0.2-0.9-0.4c0.3,0,0.6,0.1,0.9,0.2l2.5,0.7c2.1,0.6,5,1.4,8.3,2.2
					c3.3,0.8,6.2,1.5,8.3,1.9l2.5,0.6C985.9,167.8,986.2,167.9,986.5,168z"/>
				<g class="st78">
					<path d="M960.8,181.7c0,0,15.9,7.7,22.5,5.9C983.3,187.6,972,181.2,960.8,181.7z"/>
				</g>
				<g class="st78">
					<path d="M986.9,190.8c0,0,12.2-7.7,9.9-37.7L986.9,190.8z"/>
				</g>
				<path class="st15" d="M989.6,252.1c0,0.1-17.3,0.2-38.6,0.2c-21.3,0-38.6-0.1-38.6-0.2s17.3-0.2,38.6-0.2
					C972.3,251.9,989.6,252,989.6,252.1z"/>
				<path class="st12" d="M1004.1,190.1c0,0,1.8,29.1,1,33.7s-3.3,25-3.3,25l-10.3-2.1l-2.8-51L1004.1,190.1z"/>
				<path class="st12" d="M1002,248.9l-0.2-0.4l-10.3-2.1c0,0-3.7,10.3-4.1,11.9c-0.4,1.6,0.2,6.3-0.5,8.8s0.9,2.6,1.9,2.6
					s4.8-11.2,4.8-11.2l0.7,5.2l-2.3,5.1c0,0,0.5,3.2,1.2,3.1c0.7-0.1,3.4-2.2,3.4-2.2l0.4,1.6c0,0-1.3,0.7,0.6,0.6
					c1.9-0.1,3.2-2.1,3.2-2.1l1,1.5l4.1-4.5c0,0,0.6-6.8,0.6-7.2S1002.8,250.8,1002,248.9z"/>
			</g>
			<g id="freepik--character-1--inject-50">
				<path class="st12" d="M748.6,397.6c0,0,0.9,5.8,0.9,6.8l4.1,3.5l10.5-2.3l0.9-8.6L748.6,397.6z"/>
				<path class="st15" d="M764.3,404.3v0.9c0,0,15.8,6.1,16,9.1l-31.3,0.2l0.4-10.4C754.1,406.4,759.5,406.4,764.3,404.3z"/>
				<g class="st73">
					<path class="st9" d="M749.1,414.6l0.1-2.5l29.9,0.7c0,0,1.4,0.6,1.2,1.6L749.1,414.6z"/>
				</g>
				<path class="st15" d="M764.4,405.3c0,0.2-0.8,0.2-1.5,0.7s-1.1,1.1-1.3,1.1c-0.1-0.1,0.1-0.9,1-1.5
					C763.5,405,764.4,405.2,764.4,405.3z"/>
				<path class="st15" d="M767.7,406.7c0,0.2-0.6,0.4-1.1,1.1c-0.5,0.7-0.7,1.3-0.8,1.3c-0.2,0-0.3-0.9,0.4-1.7
					C766.8,406.7,767.7,406.5,767.7,406.7z"/>
				<path class="st15" d="M769.6,410.6c-0.1,0-0.3-0.7,0-1.6c0.3-0.8,1.1-1.2,1.2-1c0.1,0.1-0.4,0.6-0.7,1.3
					C769.8,410,769.7,410.6,769.6,410.6z"/>
				<path class="st12" d="M782.6,397.6c0,0,0.9,5.8,0.9,6.8l4.1,3.5l10.5-2.3l0.9-8.6L782.6,397.6z"/>
				<path class="st15" d="M798.3,404.3v0.9c0,0,15.8,6.1,16,9.1l-31.3,0.2l0.4-10.4C788.1,406.4,793.6,406.4,798.3,404.3z"/>
				<g class="st73">
					<path class="st9" d="M783.1,414.6l0.1-2.5l29.9,0.7c0,0,1.4,0.6,1.2,1.6L783.1,414.6z"/>
				</g>
				<path class="st15" d="M798.4,405.3c0,0.2-0.8,0.2-1.5,0.7c-0.7,0.5-1.1,1.1-1.3,1.1c-0.1-0.1,0.1-0.9,1-1.5
					C797.5,405,798.5,405.2,798.4,405.3z"/>
				<path class="st15" d="M801.7,406.7c0,0.2-0.6,0.4-1.1,1.1c-0.5,0.7-0.7,1.3-0.8,1.3c-0.2,0-0.3-0.9,0.4-1.7
					C800.8,406.7,801.7,406.5,801.7,406.7z"/>
				<path class="st15" d="M803.6,410.6c-0.1,0-0.4-0.7,0-1.6c0.4-0.8,1.1-1.2,1.2-1c0.1,0.1-0.4,0.6-0.7,1.3
					C803.8,410,803.8,410.6,803.6,410.6z"/>
				<polygon class="st15" points="808.9,251.7 740.2,251.7 733.1,284.2 747.3,399.8 769.3,399.8 774.3,298 779.6,399.8 803.2,399.8 
					813,285.5 				"/>
				<path class="st60" d="M756.4,398.2c-0.1,0-0.4-20.4-0.7-45.5s-0.4-45.5-0.2-45.5c0.1,0,0.4,20.4,0.7,45.5
					C756.4,377.8,756.5,398.2,756.4,398.2z"/>
				<path class="st60" d="M791.6,397.8c0,0,0-0.1,0-0.3c0-0.2,0-0.4,0.1-0.8c0.1-0.7,0.2-1.6,0.3-2.9c0.3-2.5,0.7-6.1,1.1-10.5
					s0.9-9.7,1.3-15.6c0.4-5.9,0.7-12.4,0.9-19.2c0.2-6.8,0.2-13.3,0.2-19.2s-0.2-11.2-0.4-15.7c-0.2-4.5-0.3-8.1-0.5-10.6
					c-0.1-1.2-0.1-2.2-0.1-2.9c0-0.3,0-0.6,0-0.7c0-0.1,0-0.2,0-0.3c0,0.1,0,0.2,0,0.3c0,0.2,0,0.4,0.1,0.7c0.1,0.7,0.1,1.6,0.2,2.9
					c0.2,2.5,0.4,6.1,0.6,10.6s0.4,9.8,0.5,15.7c0.1,5.9,0,12.4-0.1,19.2c-0.2,6.8-0.5,13.3-0.9,19.2c-0.4,5.9-0.9,11.2-1.3,15.6
					s-0.9,8.1-1.2,10.5c-0.2,1.2-0.3,2.2-0.4,2.9c0,0.3-0.1,0.5-0.1,0.7C791.6,397.7,791.6,397.7,791.6,397.8z"/>
				<path class="st12" d="M771.7,147.3l-26.2,1.4l-2.1,9.9c0,0,7.2,5.8,8,6.1c0.7,0.2,17.2,2.5,17.2,2.5s17.7-8.3,17.5-8.2
					C785.8,159.1,771.7,147.3,771.7,147.3z"/>
				<path class="st60" d="M777.8,147.2c1,0,12.1-1.5,18.9,3c6.8,4.5,24.9,38.9,24.9,38.9s5.5,18.3-2.3,22
					c-7.8,3.6-28.4,14.7-28.4,14.7l-5-18.2l14.2-6.6v-17.5L777.8,147.2z"/>
				<path class="st15" d="M795.3,165.2c-0.1,0,0-0.9,0-2.4c-0.1-3.8-1.5-7.5-3.9-10.5c-0.9-1.1-1.6-1.7-1.6-1.8s0.2,0.1,0.5,0.4
					c0.4,0.4,0.9,0.8,1.3,1.2c1.3,1.5,2.3,3.1,3,5c0.7,1.8,1,3.8,1,5.7c0,0.6,0,1.2-0.1,1.8C795.4,164.8,795.4,165,795.3,165.2z"/>
				<path class="st9" d="M747.3,159.2c0,0,10,5.8,17.6,4.1c4.8-1.2,9.3-3.6,12.9-7l13.4,30.7l-8,61.5l-24,3.1l-7.9-58.3L747.3,159.2
					z"/>
				<path class="st60" d="M746.6,148.4l-5.2,1.8l-9.6,62.8c0,0-7.5,26.1-6.8,37.4c0.7,11.3,6.7,46.3,6.7,46.3l43.9-4.6l-1.8-68.7
					c0,0,3.2-19.8-6.2-31.7C758.2,179.6,746.6,148.4,746.6,148.4z"/>
				<path class="st60" d="M771.7,147c0.6,0.9,10.2,37.3,9.2,45s-6.6,23.8-6.6,23.8v76.1l38.7-3.6c0,0,3.2-27.8,0-41.1
					s-7.8-29-7.8-29l-3.1-46.4L782.7,147H771.7z"/>
				<path class="st12" d="M762.7,213c0.2-0.1,6.9-3.7,8.6-3.9c1.7-0.2,14.8-0.9,14.8-0.9l3.5,12.7c0,0-10.9,5.3-12.6,5.7
					c-1.7,0.4-8.9,3-10.1,3s-4.5-1.1-4.5-1.9c0-0.4,0.2-0.8,0.5-1.1c1.5,0.1,3.1,0,4.6-0.3c0.8-0.3,1.6-0.6,2.3-1
					c0,0-12,1.8-12.9,1.5c-0.8-0.3-1.5-2-1.5-2s-1.4-1-1.5-1.9c-0.1-0.9,0.3-1.3,1.1-1.7c0.8-0.3,6-2.7,7.5-3.1s5.6-1.1,5.6-1.1
					s-12.4,1.3-13.2,1c-0.8-0.4-1.6-1.7-0.3-2.5c1.5-1,3.2-1.7,5-2.2L762.7,213z"/>
				<path class="st27" d="M771.5,220.5c-0.7,0.4-1.5,0.7-2.3,0.9c-1.5,0.5-3.5,1.2-5.8,1.7s-4.4,1-5.9,1.2c-0.8,0.2-1.7,0.3-2.5,0.3
					c0.8-0.2,1.6-0.4,2.4-0.6c1.5-0.3,3.6-0.8,5.9-1.3c2.3-0.6,4.3-1.2,5.8-1.6C769.9,220.9,770.7,220.7,771.5,220.5z"/>
				<path class="st27" d="M770.4,211.1c-1.2,0.5-2.5,0.8-3.7,1.1c-1.3,0.4-2.5,0.6-3.8,0.6c1.2-0.5,2.5-0.8,3.7-1.1
					C767.8,211.3,769.1,211.1,770.4,211.1z"/>
				<path class="st15" d="M749.8,221.3c-0.3,0.1-0.6,0.1-0.9,0c-0.4,0-0.7,0-1.1-0.1c-0.5,0-0.9-0.1-1.4-0.2
					c-1.2-0.2-2.4-0.4-3.6-0.8c-1.4-0.4-2.8-1-4.2-1.6c-2.5-1.1-4.8-2.5-7.1-4c-0.9-0.6-1.5-1.1-2-1.4c-0.3-0.2-0.5-0.4-0.7-0.6
					c0.3,0.1,0.6,0.3,0.8,0.4l2.1,1.3c2.3,1.4,4.7,2.7,7.1,3.9c1.4,0.6,2.7,1.1,4.1,1.6c1.2,0.4,2.3,0.7,3.5,0.9
					C748.5,221.2,749.8,221.2,749.8,221.3z"/>
				<path class="st15" d="M758.2,232.2c-0.5-0.1-0.9-0.2-1.4-0.3c-0.4-0.1-1-0.2-1.6-0.4s-1.3-0.4-2.1-0.7c-1.8-0.6-3.5-1.4-5.2-2.3
					c-2-1.1-4-2.3-5.9-3.6c-3.5-2.4-6.7-5.1-9.7-8c-1.2-1.1-2.1-2.1-2.7-2.7c-0.3-0.3-0.6-0.7-0.9-1.1c0.4,0.3,0.7,0.6,1,0.9
					c0.6,0.6,1.6,1.5,2.8,2.6c3.1,2.8,6.3,5.5,9.8,7.9c1.9,1.3,3.9,2.5,5.9,3.6c1.7,0.9,3.4,1.7,5.1,2.3c0.7,0.3,1.4,0.5,2,0.7
					c0.6,0.2,1.1,0.4,1.6,0.5C757.4,231.9,757.8,232,758.2,232.2z"/>
				<path class="st15" d="M804,199.2c-0.8,0.5-1.7,0.9-2.6,1.3c-1.6,0.7-3.8,1.7-6.3,2.8c-2.5,1.1-4.7,2-6.4,2.6
					c-0.8,0.3-1.5,0.6-2,0.7c-0.2,0.1-0.5,0.2-0.7,0.2c0.8-0.5,1.7-0.9,2.6-1.2l6.3-2.7l6.4-2.7C802.2,199.8,803.1,199.4,804,199.2z
					"/>
				<path class="st15" d="M787.5,164.8c0,0,0.1,0.1,0.3,0.3s0.5,0.5,0.8,0.9c0.7,0.8,1.7,1.8,2.9,3.1c1.3,1.3,2.8,2.8,4.5,4.5
					c1.8,1.9,3.5,3.9,4.8,6.1c1.3,2.3,2.2,4.8,2.6,7.4c0.3,2.4,0.4,4.5,0.5,6.3c0.1,1.8,0.1,3.3,0.1,4.3c0,0.5,0,0.9,0,1.2
					c0,0.1,0,0.3,0,0.4c0-0.1,0-0.3,0-0.4c0-0.3,0-0.7-0.1-1.2c-0.1-1.1-0.1-2.5-0.2-4.3s-0.3-3.9-0.6-6.3c-0.4-2.5-1.3-5-2.6-7.2
					c-1.4-2.2-2.9-4.2-4.7-6.1c-1.6-1.7-3.2-3.2-4.4-4.5s-2.2-2.4-2.9-3.2l-0.7-0.9C787.7,165.1,787.6,164.9,787.5,164.8z"/>
				<path class="st15" d="M818.6,211.4c-0.4,0.3-0.8,0.5-1.2,0.7L814,214c-2.9,1.5-6.9,3.7-11.3,6c-4.4,2.3-8.7,4.5-11.6,5.9
					l-0.2,0.1v-0.2l-0.9-3.6c-0.1-0.4-0.2-0.9-0.3-1.3c0.2,0.4,0.3,0.8,0.4,1.3l1.1,3.6l-0.2-0.1c2.9-1.5,7-3.7,11.5-6.1
					s8.4-4.4,11.4-5.8l3.5-1.7C817.8,211.8,818.2,211.6,818.6,211.4z"/>
				<path class="st15" d="M775.4,227.2c0,0.2,0,0.4,0,0.7c0,0.5-0.1,1.1-0.1,1.9c-0.2,1.6-0.3,4-0.4,6.9c-0.3,5.9-0.3,14-0.2,22.9
					c0.1,9,0.4,17.1,0.7,22.9c0.1,2.9,0.2,5.3,0.3,6.9c0,0.8,0,1.4,0.1,1.9c0,0.2,0,0.4,0,0.7c0-0.2-0.1-0.4-0.1-0.7
					c0-0.5-0.1-1.1-0.2-1.9c-0.1-1.6-0.3-4-0.4-6.9c-0.3-5.9-0.7-14-0.8-23c-0.1-9,0-17.1,0.3-23c0.2-2.9,0.3-5.3,0.6-6.9
					c0.1-0.8,0.2-1.4,0.2-1.9C775.3,227.6,775.4,227.4,775.4,227.2z"/>
				<path class="st60" d="M741.4,150.2c0,0-14.5,6.2-19,16c-4.5,9.8-13.6,40.9-13.8,46.6s10.4,23.6,10.4,23.6l16.8-10.6l-3.2-7.9
					l5.1-33.9L741.4,150.2z"/>
				<path class="st15" d="M734.5,413.1L734.5,413.1c-1.1,0-2-0.9-2-2c0,0,0,0,0,0c0-1.7,0.3-165.3,0.2-168c-0.2-5.7-3.6-8.2-3.7-8.3
					c-0.9-0.7-1.1-2-0.4-2.9c0.7-0.8,1.8-1,2.7-0.5c0.2,0.2,5.2,3.8,5.5,11.6c0.1,2.7-0.2,161.3-0.2,168.1
					C736.5,412.2,735.6,413.1,734.5,413.1C734.5,413.1,734.5,413.1,734.5,413.1z"/>
				<path class="st15" d="M722.8,255.2L722.8,255.2c-1.1,0-2-0.9-2.1-2c0,0,0,0,0,0c0-6.1,0-15.3,0-15.9c-0.1-1.1,0.8-2.1,1.9-2.2
					c0,0,0,0,0,0c1.1-0.1,2.1,0.8,2.2,1.9c0,0.1,0,0.4,0,16.1C724.9,254.3,723.9,255.2,722.8,255.2z"/>
				<path class="st12" d="M726,226.1l-4,3.5c-1,0.9-2.2,8.6-2.2,8.6s4.3,4.6,6.2,4.8c1.2,0.1,2.4-0.3,3.3-1.1c0,0,1.9,1.1,3,0.1
					c1.1-0.9-1.6-6.9-1.6-6.9s-1-2.9,1.8-2.7l1.2,2.2l3,5.2c0,0,1.9-0.3,2.2-1.2s-0.8-4-0.8-4c0.7-1.1,0.9-2.4,0.6-3.7
					c-0.7-1.8-1.8-5.1-5.1-5.8C730.3,224.3,726,226.1,726,226.1z"/>
				<path class="st27" d="M729.2,241.2c-0.1,0-0.6-0.6-1.5-1.6c-1.2-1.2-2.5-2.4-4-3.3c-0.4-0.3-0.8-0.7-1.1-1.1
					c-0.2-0.4-0.3-1-0.3-1.5c0.2-0.8,0.5-1.6,1.1-2.2c0.4-0.5,0.8-0.9,1-1.2c0.2-0.3,0.3-0.5,0.4-0.4c-0.3,0.7-0.7,1.3-1.1,1.8
					c-0.5,0.6-0.8,1.3-0.9,2c-0.1,0.4,0,0.8,0.2,1.2c0.2,0.4,0.5,0.7,0.9,1c1.5,1,2.8,2.1,3.9,3.4
					C728.4,239.9,728.8,240.5,729.2,241.2z"/>
				<path class="st27" d="M734.7,231.4c0.1,0.1-0.4,0.7-0.6,1.6c-0.2,0.9-0.1,1.7-0.2,1.7c-0.4-0.5-0.4-1.2-0.2-1.8
					C733.9,231.9,734.6,231.3,734.7,231.4z"/>
				<path class="st15" d="M712.5,209.9c0.4,0,0.8,0,1.2,0c0.4,0,0.8,0,1.4,0l1.8,0.2c0.7,0.1,1.4,0.3,2.2,0.5
					c0.4,0.1,0.8,0.3,1.2,0.4c0.4,0.1,0.8,0.3,1.2,0.5c1.8,0.8,3.4,1.8,4.9,3.1c1.5,1.2,2.8,2.6,4,4.1c1.1,1.4,2.1,2.7,2.9,3.7
					c0.8,1,1.5,1.9,1.9,2.5c0.3,0.3,0.5,0.6,0.7,0.9c-0.3-0.3-0.6-0.5-0.8-0.8c-0.5-0.6-1.2-1.4-2.1-2.4s-1.8-2.3-3-3.6
					c-1.2-1.5-2.6-2.8-4-4.1c-1.4-1.2-3-2.2-4.7-3c-0.4-0.2-0.8-0.3-1.2-0.5c-0.4-0.1-0.8-0.3-1.1-0.4c-0.8-0.2-1.5-0.4-2.1-0.5
					l-1.8-0.3c-0.5-0.1-1-0.1-1.4-0.1C713.3,210,712.9,209.9,712.5,209.9z"/>
				<path class="st15" d="M734.7,180.8c0,0.5-0.1,1-0.2,1.4c-0.1,0.9-0.4,2.2-0.7,3.9c-0.6,3.3-1.5,7.8-2.4,12.8s-1.7,9.5-2.2,12.8
					c-0.2,1.6-0.4,2.9-0.5,3.9c0,0.5-0.1,1-0.3,1.4c0-0.5,0-1,0.1-1.5c0.1-0.9,0.2-2.3,0.4-3.9c0.4-3.3,1.1-7.9,2.1-12.9
					c0.9-5,1.9-9.5,2.6-12.8l0.8-3.9C734.4,181.8,734.5,181.3,734.7,180.8z"/>
				<polygon class="st60" points="738.6,414.6 731,414.6 732.4,408.5 736.9,408.5 				"/>
				<path class="st74" d="M741.8,103.3c1.2-2.1,3.6-3.7,6-3.3c-0.6-4.5,2.6-8.6,7.1-9.2c2.3-0.2,4.8,0.6,6.9-0.4
					c1.3-0.6,2.2-1.8,3.3-2.8c4.5-4.1,12.1-3.7,16.7,0.3c4.6,4,6.2,10.8,4.7,16.8c-0.7,2.8-2,5.4-2,8.2c0,2.7,1.2,5.2,1.4,7.9
					c0.2,2.7-0.9,5.8-3.6,6.3l-26.2,7.2c-4.2,1.3-8.8-0.2-11.5-3.8c-1.7-2.4-2.3-5.5-2.8-8.4c-0.8-3.8-1.2-7.7-1.4-11.6
					C740.2,107.9,740.7,105.5,741.8,103.3z"/>
				<path class="st74" d="M736,113.5c1.3-1.5,3.5-1.9,5.2-0.9c4.6,0.1,8.7-0.2,12.1,2.9c3.5,3.1,5.4,7.6,5.2,12.3
					c-0.3,4.7-3,8.9-7.2,11c-4.3,2-9.3,1.3-12.8-1.9c-3.4-3.3-4-8.6-1.5-12.6c-1-1.7-1.7-3.5-2.2-5.4
					C734.4,117.1,734.8,115.1,736,113.5z"/>
				<path class="st12" d="M760.9,162.8c-6.3,0-11.4-5-11.6-11.2l-1.1-37.9c-0.6-10.2,4.8-19,14.9-19.4h0.9
					c9.5,0.2,17.2,7.7,17.7,17.2c0.5,8.8,0.9,18.6,0.8,23.3c-0.4,9.8-10.2,11.1-10.2,11.1s0,2.3,0.1,5.1c0.1,6.4-4.9,11.7-11.3,11.8
					C761,162.8,760.9,162.8,760.9,162.8L760.9,162.8z"/>
				<path class="st27" d="M772.3,146c-4.5-0.1-8.9-1.5-12.6-4.1c0,0,2.9,7.2,12.7,6.5L772.3,146z"/>
				<path class="st27" d="M765.5,130.2c0.8-0.8,2.1-0.9,3-0.1s0.9,2.1,0.1,3c-0.2,0.2-0.4,0.4-0.7,0.5c-0.5,0.2-1.1,0.2-1.7,0
					c-0.4-0.1-0.8-0.3-1.1-0.7c-0.4-0.5-0.4-1.2-0.2-1.8c0.2-0.5,0.5-0.9,0.9-1.2"/>
				<path class="st15" d="M779.2,118.1c0,0.8-0.6,1.4-1.4,1.4c-0.7,0-1.4-0.5-1.4-1.3c0,0,0,0,0,0c0-0.8,0.6-1.4,1.4-1.4
					C778.6,116.8,779.2,117.3,779.2,118.1C779.2,118.1,779.2,118.1,779.2,118.1z"/>
				<path class="st15" d="M779.5,116.3c-0.2,0.2-1.2-0.6-2.7-0.7c-1.5,0-2.6,0.7-2.8,0.5s0.1-0.4,0.6-0.7c0.7-0.4,1.4-0.7,2.2-0.6
					c0.8,0,1.5,0.3,2.2,0.8C779.4,115.9,779.6,116.2,779.5,116.3z"/>
				<path class="st15" d="M765.2,118.1c0,0.8-0.6,1.4-1.4,1.4c-0.7,0-1.4-0.5-1.4-1.2c0,0,0,0,0,0c0-0.8,0.6-1.4,1.4-1.4
					C764.5,116.7,765.1,117.3,765.2,118.1C765.2,118.1,765.2,118.1,765.2,118.1z"/>
				<path class="st15" d="M765.1,116.3c-0.2,0.2-1.2-0.6-2.7-0.7c-1.5,0-2.6,0.7-2.8,0.5s0.1-0.4,0.6-0.7c0.6-0.4,1.4-0.6,2.2-0.6
					c0.8,0,1.5,0.3,2.2,0.8C765,115.9,765.2,116.2,765.1,116.3z"/>
				<path class="st15" d="M769.9,127.6c0.8-0.2,1.6-0.4,2.5-0.4c0.4,0,0.7-0.1,0.8-0.4c0-0.4,0-0.8-0.2-1.1
					c-0.3-0.9-0.7-1.9-1.1-2.9c-1.5-4.2-2.5-7.6-2.4-7.7c0.2-0.1,1.5,3.3,3,7.5l1,3c0.2,0.5,0.3,1,0.2,1.5c-0.1,0.3-0.4,0.5-0.6,0.5
					c-0.2,0.1-0.4,0.1-0.7,0.1C771.6,127.7,770.7,127.7,769.9,127.6z"/>
				<path class="st15" d="M765.5,128.5c0.2,0,0.2,1.6,1.6,2.8c1.4,1.2,3.1,1,3.1,1.3c0,0.2-0.4,0.3-1.1,0.3c-1,0-1.9-0.4-2.6-1
					c-0.7-0.6-1.1-1.4-1.2-2.4C765.2,128.9,765.4,128.5,765.5,128.5z"/>
				<path class="st74" d="M765.3,110.4c-0.2,0.4-1.7,0.2-3.4,0.3s-3.2,0.6-3.4,0.3c-0.1-0.2,0.2-0.6,0.7-0.9
					c0.8-0.5,1.6-0.8,2.6-0.8c0.9-0.1,1.8,0,2.7,0.4C765,109.9,765.3,110.2,765.3,110.4z"/>
				<path class="st74" d="M779.1,112c-0.3,0.3-1.3,0-2.5-0.1c-1.2-0.1-2.3,0.2-2.5-0.2c-0.1-0.2,0.1-0.5,0.5-0.8
					c1.3-0.8,2.9-0.7,4.1,0.2C779,111.5,779.2,111.9,779.1,112z"/>
				<path class="st12" d="M748.7,121c-0.2-0.1-6.7-2.1-6.6,4.5s6.8,5.3,6.8,5.1C748.9,130.4,748.7,121,748.7,121z"/>
				<path class="st27" d="M746.8,128.1c0,0-0.1,0.1-0.3,0.2c-0.3,0.1-0.6,0.1-0.9,0c-0.9-0.6-1.4-1.5-1.4-2.6c0-0.6,0.1-1.1,0.3-1.7
					c0.1-0.4,0.5-0.8,0.9-0.9c0.3-0.1,0.6,0.1,0.7,0.3c0.1,0.2,0.1,0.3,0.1,0.3c0,0,0.1-0.1,0.1-0.4c0-0.2-0.1-0.3-0.3-0.4
					c-0.2-0.1-0.4-0.2-0.6-0.2c-0.6,0.1-1,0.5-1.2,1c-0.3,0.6-0.4,1.2-0.4,1.9c0.1,1.3,0.8,2.6,1.7,2.9c0.4,0.1,0.8,0,1.1-0.2
					C746.8,128.3,746.8,128.2,746.8,128.1z"/>
				<path class="st27" d="M781.3,117.7c0,0.1-0.4,0.3-0.8,0.4s-0.8,0.3-0.9,0.2c-0.1-0.1,0.3-0.4,0.8-0.6
					C780.9,117.5,781.3,117.6,781.3,117.7z"/>
				<path class="st27" d="M781.9,118.7c0,0.1-0.5,0.1-1.1,0.1c-0.6,0-1.1,0-1.1-0.1c0-0.1,0.5-0.3,1.1-0.3
					C781.4,118.5,781.9,118.6,781.9,118.7z"/>
				<path class="st27" d="M758.6,118.1c0,0.1-0.7,0.1-1.5,0.1c-0.8,0-1.5,0-1.5-0.1c0-0.1,0.6-0.3,1.5-0.3
					C758,117.8,758.6,118,758.6,118.1z"/>
				<path class="st27" d="M758.5,119.5c0,0.1-0.6,0.1-1.3,0.1c-0.7,0-1.2,0-1.3-0.1s0.5-0.3,1.3-0.3
					C758,119.2,758.5,119.4,758.5,119.5z"/>
				<path class="st27" d="M776,109c-0.5,0.2-1.1,0.4-1.7,0.4c-1.4,0.2-2.8,0.3-4.2,0.2c-1.4-0.1-2.8-0.2-4.2-0.6
					c-0.6-0.1-1.1-0.3-1.7-0.5c0-0.1,2.6,0.6,5.8,0.7C773.4,109.3,776,108.9,776,109z"/>
				<path class="st27" d="M777.1,107.8c-1.8,0.4-3.6,0.6-5.4,0.5c-1.8,0.1-3.6-0.1-5.4-0.5c0-0.1,2.4,0.1,5.4,0.1
					S777,107.7,777.1,107.8z"/>
				<path class="st27" d="M769.4,112.7c-0.1,0-0.2-0.3-0.2-0.7c0-0.3,0-0.6,0.1-0.7c0.1,0,0.3,0.3,0.3,0.7
					C769.7,112.4,769.6,112.7,769.4,112.7z"/>
				<path class="st27" d="M771.5,113c0,0.1-0.5,0-0.7-0.5c-0.2-0.5,0-0.9,0.2-0.9c0.1,0.1,0.1,0.4,0.3,0.7S771.6,112.8,771.5,113z"
					/>
				<path class="st27" d="M765.2,128.1c0,0.1-0.5,0.2-0.9,0.6c-0.4,0.4-0.6,0.8-0.7,0.8s-0.1-0.6,0.5-1.1
					C764.6,127.8,765.3,128,765.2,128.1z"/>
				<path class="st27" d="M763.5,128c0,0.1-0.3,0.2-0.5,0.4c-0.2,0.2-0.2,0.5-0.3,0.5c-0.1,0-0.1-0.1-0.2-0.2c0-0.4,0.3-0.8,0.7-0.8
					c0,0,0,0,0,0C763.4,127.8,763.5,127.9,763.5,128z"/>
				<path class="st74" d="M785,103.8c-4.3,4.7-11.7,5.1-16.4,0.7c-0.5-0.5-1-1-1.4-1.5c-2.1,3.6-6.7,4.9-10.4,2.8
					c-0.9-0.5-1.7-1.3-2.4-2.1c1.3,4.7,0.9,9.6-1.1,14.1c-0.4,0.9-0.9,1.8-1.7,2.4c-0.8,0.6-2.8,1.1-3.7,0.7
					c-0.9-0.4-0.4-1.6-0.8-2.4c-3.4-10.3,2.3-21.5,12.6-24.8c9.3-3,19.5,1.3,23.8,10.1"/>
				<path class="st75" d="M740.4,107.7c0-0.1,0.8,0.4,2.1,0.9c1.8,0.7,3.6,0.9,5.5,0.8c1.9-0.1,3.7-0.6,5.3-1.6
					c0.6-0.4,1.2-1,1.6-1.6c-0.2,0.8-0.7,1.5-1.4,1.9c-1.6,1.1-3.5,1.7-5.5,1.8c-1.9,0.1-3.9-0.2-5.6-1c-0.5-0.2-1-0.5-1.5-0.8
					C740.6,107.9,740.4,107.7,740.4,107.7z"/>
				<path class="st75" d="M741.2,111c2.3,0.7,4.7,1.1,7.2,1c2.4-0.2,4.8-0.8,7-1.8c-0.6,0.5-1.2,0.8-1.9,1.1
					c-3.2,1.4-6.9,1.6-10.3,0.6C742.5,111.7,741.8,111.4,741.2,111z"/>
				<path class="st75" d="M785.8,99.7c-0.1,0,0-0.7-0.1-1.8c-0.2-1.6-0.9-3.2-1.9-4.5c-1.5-2-3.8-3.2-6.3-3.4c-3-0.2-6,0.6-8.6,2.2
					c-0.7,0.4-1.3,0.9-1.9,1.4c-0.6,0.5-1.1,1.1-1.7,1.6c-0.3,0.3-0.7,0.5-1.1,0.6c-0.4,0.1-0.8,0.1-1.2-0.1
					c-0.7-0.4-1.2-0.8-1.7-1.4c-1-0.9-2.2-1.4-3.5-1.5c-1.1-0.1-2.3,0.1-3.3,0.6c-1.5,0.8-2.5,2.2-2.9,3.8c-0.1,0.6-0.2,1.2-0.2,1.8
					c0-0.2-0.1-0.3-0.1-0.5c0-0.5,0-0.9,0.1-1.4c0.4-1.7,1.4-3.2,2.9-4c1-0.6,2.3-0.8,3.4-0.7c1.4,0.1,2.7,0.7,3.7,1.6
					c0.5,0.5,1,1,1.6,1.3c0.7,0.2,1.4,0.1,1.9-0.4c0.6-0.4,1.1-1.1,1.7-1.6c0.6-0.5,1.3-1,2-1.4c2.6-1.7,5.8-2.5,8.9-2.3
					c1.4,0.1,2.7,0.6,3.9,1.2c1,0.6,1.9,1.4,2.6,2.4c1,1.4,1.6,3,1.8,4.7c0.1,0.5,0.1,0.9,0,1.4C785.9,99.4,785.9,99.6,785.8,99.7z"
					/>
				<path class="st75" d="M740.4,107.7c0.1,0.7,0.2,1.4,0.2,2.1c0.1,1.3,0.3,3.1,0.7,5.1c0.3,1.7,0.7,3.3,1.2,5c0.4,1.2,0.7,2,0.7,2
					c-0.4-0.6-0.8-1.2-1-1.9c-0.6-1.6-1-3.3-1.3-5c-0.3-1.7-0.5-3.4-0.6-5.1C740.2,109.1,740.3,108.4,740.4,107.7z"/>
				<path class="st15" d="M730.5,157.4c0,0,0.2,0.1,0.6,0.4c0.5,0.4,1,0.9,1.5,1.5c0.7,0.8,1.3,1.6,1.8,2.5c1.3,2.2,2.1,4.6,2.3,7.1
					c0.1,1,0.1,2,0,3.1c-0.1,0.7-0.2,1.4-0.3,2c0,0.2-0.1,0.5-0.2,0.7c-0.1,0,0.2-1.1,0.3-2.8c0-1,0-2-0.1-3
					c-0.2-1.2-0.4-2.4-0.8-3.6c-0.4-1.2-0.9-2.3-1.5-3.4c-0.5-0.9-1-1.7-1.7-2.5C731.3,158.1,730.5,157.4,730.5,157.4z"/>
			</g>
			<g id="freepik--character-2--inject-50">
				<path class="st13" d="M869.5,190.1l2.4,2.4c4.9,1,13.1,2.7,16.4,8c2.7,4.3,13.8,22,20.3,32.4c3.2,5.1,5.9,10.6,8.1,16.2
					l8.2,21.7l-29.4,18.2h-42.3l-23.8-91.9l12.7-6.9l2.5-4.3l20.1,11.2l3.5,4.4L869.5,190.1z"/>
				<path class="st15" d="M843.8,213.1l15.5,68.7l-24.4-0.3l-13.7-62.2l-21.6-0.2c-1.8,0-3.2-1.5-3.2-3.3v0l0,0
					c0-1.8,1.5-3.2,3.3-3.2h0L843.8,213.1z"/>
				<linearGradient id="SVGID_8_" gradientUnits="userSpaceOnUse" x1="989.9489" y1="387.1559" x2="1034.3197" y2="387.1559">
					<stop  offset="0" style="stop-color:#FFDB00"/>
					<stop  offset="1" style="stop-color:#FFAE08"/>
				</linearGradient>
				<path class="st23" d="M1009.1,370l3,19.9c0,0,21.2,3.6,22.2,7.2l-38.3,7.3l-6-30.8L1009.1,370z"/>
				<g>
					<path class="st51" d="M1009.1,370l3,19.9c0,0,21.2,3.6,22.2,7.2l-38.3,7.3l-6-30.8L1009.1,370z"/>
				</g>
				<path class="st15" d="M1000,390.4c-0.7,0.4-1,1.2-0.7,2c0.4,0.7,1.2,1.1,2,0.8c0.8-0.4,1.1-1.3,0.8-2.1c-0.5-0.7-1.4-1-2.1-0.6"
					/>
				<path class="st15" d="M996,404.3l-0.6-3l37-6c0,0,1.9,0.4,1.9,1.7L996,404.3z"/>
				<path class="st15" d="M1012.7,389.5c0,0.2-0.9,0.5-1.7,1.2c-0.8,0.8-1.1,1.7-1.3,1.6c-0.2,0-0.1-1.2,0.9-2.1
					C1011.6,389.3,1012.7,389.3,1012.7,389.5z"/>
				<path class="st15" d="M1017.1,390.4c0.1,0.2-0.7,0.6-1.2,1.6c-0.5,0.9-0.5,1.8-0.7,1.8c-0.2,0-0.5-1,0.1-2.1
					S1017,390.2,1017.1,390.4z"/>
				<path class="st15" d="M1020.3,394.8c-0.2,0.1-0.6-0.8-0.3-1.9s1.1-1.7,1.2-1.6c0.1,0.1-0.3,0.8-0.5,1.7
					S1020.5,394.7,1020.3,394.8z"/>
				<path class="st15" d="M1011.5,385.1c0,0.2-1,0.1-2,0.4c-1,0.3-1.8,0.8-1.9,0.6c-0.1-0.1,0.5-1,1.8-1.3
					C1010.7,384.5,1011.6,384.9,1011.5,385.1z"/>
				<path class="st51" d="M996.2,371.1l3.1,19.9c0,0,21.2,3.6,22.2,7.2l-38.3,7.3l-6-30.8L996.2,371.1z"/>
				<path class="st15" d="M987,391.5c-0.7,0.4-1,1.2-0.7,2c0.4,0.7,1.2,1.1,2,0.8c0.8-0.4,1.1-1.3,0.8-2.1c-0.4-0.7-1.4-1-2.1-0.6"
					/>
				<path class="st15" d="M983,405.4l-0.6-3l37-6c0,0,1.8,0.4,1.9,1.7L983,405.4z"/>
				<path class="st15" d="M999.8,390.6c0,0.2-0.9,0.4-1.7,1.2c-0.8,0.8-1.1,1.7-1.3,1.6c-0.2,0-0.1-1.2,0.9-2.1
					S999.8,390.4,999.8,390.6z"/>
				<path class="st15" d="M1004.1,391.5c0.1,0.2-0.7,0.6-1.2,1.6s-0.5,1.8-0.7,1.8s-0.5-1,0.1-2.1
					C1003,391.6,1004.1,391.3,1004.1,391.5z"/>
				<path class="st15" d="M1007.3,395.9c-0.2,0.1-0.6-0.8-0.3-1.9s1.1-1.7,1.2-1.5c0.1,0.1-0.3,0.8-0.5,1.7
					C1007.5,395,1007.5,395.8,1007.3,395.9z"/>
				<path class="st15" d="M998.6,386.2c-0.1,0.2-1,0.1-2,0.4c-1,0.3-1.8,0.8-1.9,0.6c-0.1-0.1,0.5-1,1.8-1.3
					C997.7,385.6,998.7,386,998.6,386.2z"/>
				<path class="st15" d="M906.2,267.8c0,0,69.7,1.1,76,0.9c13.2-0.6,18.4,8.3,20.2,21c0.5,3.9,10.5,88.9,10.5,88.9l-24.1,5
					l-16.4-77.3c0,0-64.4,2.3-70.5,3.3c-7.4,1.3-17.6,5.2-23.2,0.9c-5.6-4.3-9-26.6-9-26.6L906.2,267.8z"/>
				<path class="st15" d="M900.7,267.8c0,0,62.5,1,68.7,0.7c13.3-0.6,18.4,8.3,20.2,21c0.6,3.9,10.5,91.5,10.5,91.5L969,388
					l-14.3-81c0,0-59.5,1.5-65.6,2.5c-7.4,1.3-17.6,5.2-23.2,0.9c-5.6-4.3-9-26.6-9-26.6L900.7,267.8z"/>
				<path class="st60" d="M964.6,268.6c0.1,0,0.2,0,0.3,0h1c0.9,0,2.1,0,3.7,0.2c2,0.2,3.9,0.5,5.8,1c1.2,0.3,2.4,0.7,3.5,1.1
					c1.3,0.5,2.5,1.1,3.6,2c0.6,0.4,1.1,1,1.5,1.5c0.4,0.6,0.8,1.3,1.2,2c0.7,1.5,1.3,3,1.7,4.6c0.8,3.5,1.5,7.1,1.9,10.7
					c1,7.6,2.1,16,3.2,24.8c2.1,17.6,4,33.6,5.5,45.2c0.7,5.8,1.4,10.4,1.9,13.7l0.6,3.7c0.1,0.4,0.1,0.7,0.2,1c0,0.1,0,0.2,0.1,0.3
					c0-0.1,0-0.2,0-0.3l-0.1-1c-0.1-0.9-0.3-2.1-0.5-3.7c-0.4-3.3-1-7.9-1.7-13.7l-5.4-45.2c-1.1-8.8-2.1-17.2-3.2-24.8
					c-0.4-3.6-1.1-7.2-1.9-10.7c-0.4-1.6-1-3.2-1.8-4.7c-0.3-0.7-0.8-1.4-1.2-2c-0.4-0.6-1-1.2-1.6-1.6c-1.1-0.8-2.3-1.5-3.6-2
					c-1.2-0.4-2.4-0.8-3.6-1.1c-1.9-0.4-3.9-0.7-5.9-0.9C968,268.4,966.3,268.4,964.6,268.6z"/>
				<path class="st60" d="M834.6,280.1l3.1,45.5l102.1,0.3c5.5,0,9.9-4.4,10-9.9l0,0c0.1-5.4-4.2-9.9-9.7-10.1l-8.8-0.3l0.5-19.4
					c0.1-2.8-2.2-5.1-5-5.2c0,0,0,0-0.1,0L834.6,280.1z"/>
				
					<rect x="847.2" y="340.3" transform="matrix(1.134440e-02 -0.9999 0.9999 1.134440e-02 524.0452 1216.6798)" class="st60" width="60.1" height="6"/>
				
					<rect x="913.9" y="328.7" transform="matrix(1.134440e-02 -0.9999 0.9999 1.134440e-02 534.9686 1283.236)" class="st60" width="5" height="84.8"/>
				<path class="st74" d="M881.3,407.6c-30.7-0.2-55.5-25.3-55.3-56c0.2-30.7,25.3-55.5,56-55.3s55.5,25.3,55.3,56
					c-0.2,30.5-24.9,55.2-55.3,55.3H881.3z M842.9,310.9c-22.1,21.6-22.5,57-0.9,79c21.6,22.1,57,22.5,79,0.9
					c22.1-21.6,22.5-57,0.9-79c-10.4-10.6-24.5-16.6-39.3-16.8H882C867.4,294.9,853.3,300.6,842.9,310.9z"/>
				<path class="st74" d="M910.4,351.7c-15.5-0.2-28.1-0.3-28.1-0.4C882.3,351.3,894.9,351.4,910.4,351.7
					c15.5,0.2,28.1,0.3,28.1,0.3C938.5,352,925.9,351.8,910.4,351.7z"/>
				<path class="st74" d="M910,356.3c-15.3-2.7-27.6-4.9-27.6-4.9C882.3,351.4,894.7,353.6,910,356.3l27.6,4.9
					C937.6,361.2,925.2,359,910,356.3z"/>
				<path class="st74" d="M908.8,360.8c-14.6-5.2-26.5-9.4-26.5-9.4L908.8,360.8c14.6,5.1,26.5,9.3,26.5,9.3S923.4,366,908.8,360.8z
					"/>
				<path class="st74" d="M906.9,365c-13.6-7.5-24.6-13.6-24.6-13.6C882.3,351.4,893.3,357.5,906.9,365l24.6,13.5
					C931.5,378.6,920.4,372.5,906.9,365z"/>
				<path class="st74" d="M904.3,368.9c-12.2-9.6-22-17.4-22-17.4L904.3,368.9c12.2,9.6,22,17.4,22,17.4
					C926.3,386.3,916.5,378.5,904.3,368.9z"/>
				<path class="st74" d="M901.1,372.3c-10.5-11.5-18.9-20.7-18.9-20.7C882.2,351.6,890.7,360.8,901.1,372.3
					C911.6,383.7,920,393,920,393S911.6,383.8,901.1,372.3z"/>
				<path class="st74" d="M897.5,375.2c-8.5-13-15.3-23.5-15.3-23.5S889,362.1,897.5,375.2c8.5,13,15.3,23.5,15.3,23.5
					C912.8,398.6,905.9,388.2,897.5,375.2z"/>
				<path class="st74" d="M893.4,377.4c-6.3-14.2-11.2-25.7-11.2-25.7S887.2,363.2,893.4,377.4c6.3,14.2,11.3,25.7,11.3,25.7
					C904.6,403.1,899.6,391.6,893.4,377.4z"/>
				<path class="st74" d="M889,378.9c-3.8-15-6.9-27.2-6.9-27.2C882.1,351.7,885.2,363.8,889,378.9c3.8,15,6.9,27.2,6.9,27.2
					S892.8,393.9,889,378.9z"/>
				<path class="st74" d="M884.4,379.6c-1.3-15.4-2.3-28-2.3-28S883.1,364.2,884.4,379.6c1.3,15.4,2.4,28,2.4,28
					S885.7,395.1,884.4,379.6z"/>
				<path class="st74" d="M879.7,379.7c1.2-15.5,2.2-28,2.2-28C882,351.7,881,364.2,879.7,379.7c-1.2,15.5-2.2,27.9-2.2,27.9
					C877.5,407.6,878.5,395.1,879.7,379.7z"/>
				<path class="st74" d="M875.1,378.9c3.7-15,6.7-27.2,6.8-27.2S878.9,363.9,875.1,378.9c-3.7,15.1-6.7,27.2-6.7,27.2
					C868.4,406.2,871.4,394,875.1,378.9z"/>
				<path class="st74" d="M870.7,377.4c6.1-14.2,11.1-25.8,11.1-25.8C881.9,351.7,876.9,363.2,870.7,377.4
					c-6.1,14.2-11.1,25.8-11.1,25.8C859.6,403.2,864.6,391.7,870.7,377.4z"/>
				<path class="st74" d="M866.6,375.2c8.4-13,15.2-23.6,15.2-23.6S875.1,362.2,866.6,375.2c-8.3,13-15.2,23.6-15.2,23.6
					S858.3,388.3,866.6,375.2z"/>
				<path class="st74" d="M862.9,372.4c10.4-11.5,18.8-20.8,18.8-20.8C881.7,351.6,873.3,360.9,862.9,372.4
					c-10.4,11.5-18.8,20.8-18.8,20.8C844.1,393.2,852.5,383.9,862.9,372.4z"/>
				<path class="st74" d="M859.7,369c12.1-9.7,21.9-17.5,22-17.5C881.7,351.6,871.8,359.4,859.7,369c-12.1,9.7-21.9,17.5-21.9,17.5
					S847.6,378.7,859.7,369z"/>
				<path class="st74" d="M857.1,365.2c13.5-7.6,24.5-13.7,24.5-13.7C881.7,351.5,870.7,357.6,857.1,365.2
					c-13.5,7.6-24.5,13.7-24.5,13.7C832.6,378.9,843.6,372.7,857.1,365.2z"/>
				<path class="st74" d="M855.2,360.9c14.6-5.2,26.4-9.5,26.4-9.5L855.2,360.9c-14.6,5.3-26.4,9.5-26.4,9.5
					C828.8,370.4,840.6,366.2,855.2,360.9z"/>
				<path class="st74" d="M854,356.4c15.2-2.8,27.6-5,27.6-5C881.6,351.4,869.3,353.7,854,356.4l-27.6,5.1
					C826.4,361.5,838.8,359.2,854,356.4z"/>
				<path class="st74" d="M853.5,351.8c15.5-0.3,28.1-0.5,28.1-0.4L853.5,351.8l-28.1,0.5C825.5,352.3,838.1,352.1,853.5,351.8z"/>
				<path class="st74" d="M853.8,347.2l27.8,4.1C881.6,351.2,869.2,349.5,853.8,347.2l-27.8-4C826.1,343.1,838.6,344.9,853.8,347.2z
					"/>
				<path class="st74" d="M854.9,342.6c14.8,4.7,26.7,8.6,26.7,8.6C881.6,351.2,869.7,347.4,854.9,342.6l-26.7-8.5
					C828.2,334.1,840.1,337.9,854.9,342.6z"/>
				<path class="st74" d="M856.7,338.3l25,12.9C881.6,351.2,870.4,345.4,856.7,338.3c-13.8-7-25-12.8-25-12.8
					C831.7,325.5,842.9,331.2,856.7,338.3z"/>
				<path class="st74" d="M859.1,334.4c12.4,9.2,22.5,16.7,22.5,16.7S871.6,343.6,859.1,334.4c-12.5-9.2-22.5-16.7-22.5-16.7
					C836.6,317.7,846.7,325.1,859.1,334.4z"/>
				<path class="st74" d="M862.2,330.9c10.7,11.1,19.5,20.2,19.5,20.2C881.7,351.1,873,342,862.2,330.9
					c-10.8-11.1-19.5-20.1-19.5-20.1C842.7,310.7,851.4,319.7,862.2,330.9z"/>
				<path class="st74" d="M865.8,327.9c8.8,12.7,16,23.1,16,23.1S874.6,340.7,865.8,327.9c-8.9-12.7-16-23-16-23
					C849.8,304.8,857,315.2,865.8,327.9z"/>
				<path class="st74" d="M869.8,325.6c6.6,14,12,25.4,12,25.4C881.8,351,876.4,339.6,869.8,325.6c-6.7-14-12-25.3-12-25.4
					C857.8,300.2,863.2,311.6,869.8,325.6z"/>
				<path class="st74" d="M874.2,324c4.2,14.9,7.7,27,7.7,27S878.4,338.9,874.2,324c-4.3-14.9-7.7-27-7.7-27S869.9,309.1,874.2,324z
					"/>
				<path class="st74" d="M878.7,323.1c1.7,15.4,3.2,27.9,3.1,27.9S880.5,338.5,878.7,323.1c-1.8-15.4-3.2-27.9-3.2-27.9
					S877,307.7,878.7,323.1z"/>
				<path class="st74" d="M883.4,322.9c-0.8,15.5-1.4,28-1.4,28S882.6,338.4,883.4,322.9c0.7-15.5,1.4-28,1.4-28
					S884.2,307.4,883.4,322.9z"/>
				<path class="st74" d="M888,323.5c-3.3,15.2-5.9,27.4-5.9,27.4C882.1,351,884.7,338.7,888,323.5c3.2-15.2,5.9-27.4,5.9-27.4
					C893.9,296.1,891.3,308.4,888,323.5z"/>
				<path class="st74" d="M892.5,324.9c-5.7,14.4-10.4,26.1-10.4,26.1C882.1,350.9,886.7,339.3,892.5,324.9
					c5.7-14.4,10.3-26.1,10.3-26.1C902.8,298.8,898.2,310.5,892.5,324.9z"/>
				<path class="st74" d="M896.6,326.9c-8,13.3-14.5,24-14.5,24C882.1,351,888.6,340.2,896.6,326.9c8-13.3,14.5-24,14.5-24
					S904.6,313.7,896.6,326.9z"/>
				<path class="st74" d="M900.4,329.7c-10.1,11.8-18.2,21.4-18.2,21.3C882.2,351,890.3,341.5,900.4,329.7
					c10-11.8,18.2-21.4,18.2-21.4S910.5,317.9,900.4,329.7z"/>
				<path class="st74" d="M903.7,333c-11.8,10-21.4,18.1-21.4,18.1C882.3,351.1,891.8,342.9,903.7,333c11.8-10,21.4-18.1,21.4-18.1
					C925.1,314.8,915.6,323,903.7,333z"/>
				<path class="st74" d="M906.4,336.7l-24.1,14.4C882.3,351.2,893,344.7,906.4,336.7c13.3-8,24.1-14.4,24.1-14.4
					S919.7,328.8,906.4,336.7z"/>
				<path class="st74" d="M908.5,340.9c-14.4,5.7-26.1,10.3-26.1,10.3S894,346.6,908.5,340.9c14.4-5.7,26.1-10.3,26.1-10.3
					C934.6,330.7,922.9,335.2,908.5,340.9z"/>
				<path class="st74" d="M909.8,345.4c-15.2,3.2-27.4,5.8-27.5,5.8S894.6,348.6,909.8,345.4c15.2-3.3,27.4-5.9,27.4-5.9
					C937.2,339.5,924.9,342.1,909.8,345.4z"/>
				<path class="st74" d="M910.4,350c-15.5,0.7-28,1.3-28,1.3C882.3,351.2,894.9,350.7,910.4,350c15.5-0.7,28-1.3,28-1.3
					S925.9,349.3,910.4,350z"/>
				<path class="st60" d="M886.5,351.4c0,2.3-1.9,4.1-4.2,4.1c-2.3,0-4.1-1.9-4.1-4.2c0-2.3,1.9-4.1,4.2-4.1
					C884.7,347.2,886.6,349.1,886.5,351.4C886.5,351.4,886.5,351.4,886.5,351.4z"/>
				<path class="st15" d="M956.5,384.6c-8.9-0.1-16.1,7-16.2,15.9c-0.1,8.9,7,16.1,15.9,16.2c8.9,0.1,16.1-7,16.2-15.9
					C972.5,392,965.4,384.7,956.5,384.6C956.5,384.6,956.5,384.6,956.5,384.6z M956.2,413.1c-6.9-0.1-12.4-5.7-12.3-12.6
					c0.1-6.9,5.7-12.4,12.6-12.3c6.9,0.1,12.4,5.7,12.3,12.6c0,0,0,0,0,0C968.7,407.7,963.1,413.2,956.2,413.1
					C956.2,413.1,956.2,413.1,956.2,413.1L956.2,413.1z"/>
				<polygon class="st60" points="958.6,399.1 954.7,399.1 955.7,313.6 942.2,313.4 942.2,309.6 959.6,309.8 				"/>
				<path class="st60" d="M976.5,407c0-0.5,0.6-70.7,0.3-84c0.1-2.4-0.9-4.8-2.8-6.4c-5.2-4.5-16-3.1-16.1-3l-0.5-3.8
					c0.5-0.1,12.5-1.7,19.1,3.9c2.7,2.3,4.2,5.7,4.1,9.3c0.2,13.3-0.3,83.6-0.3,84L976.5,407z"/>
				
					<rect x="989.7" y="390.5" transform="matrix(1.134440e-02 -0.9999 0.9999 1.134440e-02 574.4001 1392.8383)" class="st60" width="3.8" height="30.8"/>
				<path class="st15" d="M882.7,285.8c-35.9-0.4-65.3,28.4-65.7,64.3c-0.4,35.9,28.4,65.3,64.3,65.7c35.9,0.4,65.3-28.4,65.7-64.3
					v0C947.4,315.7,918.6,286.2,882.7,285.8C882.7,285.8,882.7,285.8,882.7,285.8z M881.3,412.5c-33.4-0.4-60.1-28.3-59.7-62.4
					s27.8-61.4,61.1-61c33.4,0.4,60.1,28.3,59.7,62.3S914.7,412.9,881.3,412.5L881.3,412.5z"/>
				<rect x="920.6" y="269.1" class="st60" width="3.4" height="22"/>
				<path class="st15" d="M868.2,201.6c-0.4-0.2-0.7-0.5-1.1-0.9c-1-0.8-1.8-1.7-2.6-2.7h0.3c-0.8,1.5-1.2,3.1-1,4.8v0.2h-0.2
					c-2.5-0.2-4.8-1.1-6.8-2.5c-1.8-1.3-3.6-2.7-5.3-4.3c-1.4-1.2-2.8-2.4-4.3-3.4c-1.4-0.9-3-1.6-4.6-2.1c0,0,0.1,0,0.3,0
					c0.3,0,0.7,0.1,1,0.2c1.2,0.3,2.4,0.9,3.4,1.5c1.6,1,3.1,2.1,4.5,3.3c1.7,1.5,3.4,2.9,5.2,4.2c1.9,1.4,4.2,2.3,6.6,2.5l-0.2,0.2
					c-0.2-1.7,0.2-3.5,1.1-5l0.1-0.2l0.1,0.2c0.7,1,1.5,1.9,2.4,2.8C867.5,201,867.9,201.3,868.2,201.6z"/>
				<path class="st15" d="M861.3,264.3c-0.8-0.4-1.5-0.8-2.2-1.4c-3.4-2.5-6.4-5.7-8.6-9.3c-0.5-0.7-0.9-1.5-1.2-2.3
					c0.5,0.7,1,1.4,1.5,2.1c2.4,3.5,5.3,6.6,8.5,9.2C860,263.1,860.6,263.7,861.3,264.3z"/>
				<path class="st15" d="M871.5,193.2c0.2,0.7,0.3,1.4,0.3,2.1c0.2,1.7,0.2,3.4,0.1,5.1v0.8l-0.4-0.7l-0.3-0.5
					c-0.6-1-1.2-1.9-1.9-2.7l0.4-0.1c-0.9,2.5-1.2,4.3-1.3,4.3c0-0.4,0-0.8,0.1-1.2c0.2-1.1,0.4-2.1,0.8-3.2l0.1-0.3l0.3,0.3
					c0.8,0.8,1.4,1.7,2,2.7l0.3,0.6l-0.4,0.1c0.1-2,0.1-3.8,0-5.1C871.4,194.5,871.4,193.8,871.5,193.2z"/>
				<path class="st13" d="M882.6,195.7c0,0,6.8,2.1,13.2,9.4c6.5,7.4,28.8,45.9,29.1,45.9c0.3,0-9.8-1.4-9.8-1.4L882.6,195.7z"/>
				<path class="st74" d="M879.3,156c2.4-0.7,3.7-3.2,3.1-5.5c-0.2-0.6-0.4-1.1-0.8-1.6c-0.6-0.6-1.1-1.2-1.5-1.9
					c-0.7-1.6,0.5-3.4,0.2-5.1c-0.3-1.7-1.8-2.6-3.3-3.2s-3.2-0.9-4.5-1.8s-2-2.2-3.1-3.2c-1.6-1.4-3.8-1.8-5.8-1.3
					c-2.1,0.6-3.8,2.2-5.9,2.4c-1.5,0.2-3.1-0.4-4.6-0.5c-3.6-0.1-6.8,2.3-7.8,5.8c-0.2,1.5-0.8,2.8-1.7,4c-1.3,1.6-3.4,2.1-4.5,3.8
					c-0.5,1.1-0.5,2.4-0.1,3.5c0.5,1.1,0.7,2.3,0.8,3.5c-0.1,1.9-1.4,3.6-3.3,4c0.3,1.1,1.1,2.1,2.2,2.6c-0.8,0.4-1.7,0.6-2.6,0.6
					c1.5,4.5,6.4,6.8,10.9,5.3c0.2-0.1,0.3-0.1,0.5-0.2"/>
				<path class="st12" d="M845.3,163.6c-0.2-0.1-6.8-2.2-6.7,4.7s6.9,5.4,7,5.1S845.3,163.6,845.3,163.6z"/>
				<path class="st27" d="M843.4,170.9c0,0-0.1,0.1-0.3,0.2c-0.3,0.1-0.6,0.1-0.9,0c-0.7-0.3-1.4-1.4-1.4-2.6c0-0.6,0.1-1.2,0.3-1.7
					c0.1-0.4,0.5-0.8,0.9-0.9c0.3-0.1,0.6,0.1,0.7,0.3c0.1,0.2,0.1,0.3,0.1,0.3c0,0,0.1-0.1,0.1-0.4c0-0.2-0.1-0.3-0.3-0.4
					c-0.2-0.1-0.4-0.2-0.7-0.2c-0.6,0.1-1,0.5-1.2,1.1c-0.3,0.6-0.4,1.3-0.4,2c0.1,1.4,0.8,2.7,1.8,2.9c0.4,0.1,0.8,0,1.1-0.2
					C843.4,171,843.4,170.9,843.4,170.9z"/>
				<path class="st12" d="M880,177.6c0.1-4.8-0.4-14.8-0.9-23.8c-0.6-9.7-8.6-17.3-18.3-17.5h-1c-10.4,0.4-15.9,9.5-15.2,19.9
					l0.9,30.4l19.1,10.7l3.5,4.4l0.6-4.8l0.9-7.9C869.6,189,879.7,187.6,880,177.6z"/>
				<path class="st27" d="M869.7,188.9c-4.6,0-9.1-1.4-13-3.9c0,0,2.7,7.4,12.7,6.7L869.7,188.9z"/>
				<path class="st15" d="M876.7,160.4c0,0.8-0.6,1.4-1.4,1.4c-0.8,0-1.4-0.5-1.4-1.3c0,0,0,0,0,0c0-0.8,0.6-1.4,1.4-1.4
					C876,159.1,876.7,159.7,876.7,160.4C876.7,160.4,876.7,160.4,876.7,160.4z"/>
				<path class="st15" d="M861.8,160.4c0,0.8-0.6,1.4-1.4,1.4c-0.8,0-1.4-0.5-1.4-1.3c0,0,0,0,0,0c0-0.8,0.6-1.4,1.4-1.4
					C861.1,159.1,861.8,159.7,861.8,160.4C861.8,160.4,861.8,160.4,861.8,160.4z"/>
				<path class="st15" d="M876.9,158.1c-0.2,0.2-1.2-0.6-2.8-0.7c-1.5,0-2.7,0.7-2.8,0.5c-0.2-0.2,0.1-0.4,0.6-0.8
					c0.7-0.5,1.5-0.7,2.3-0.7c0.8,0,1.6,0.3,2.2,0.8C876.8,157.6,877,158,876.9,158.1z"/>
				<path class="st15" d="M862.2,157.8c-0.2,0.2-1.2-0.7-2.7-0.8s-2.7,0.6-2.9,0.4c-0.2-0.2,0.1-0.4,0.7-0.7
					c0.7-0.4,1.5-0.6,2.3-0.5c0.8,0.1,1.6,0.4,2.2,0.9C862.1,157.3,862.3,157.7,862.2,157.8z"/>
				<path class="st15" d="M867.1,170.1c0.8-0.2,1.7-0.4,2.5-0.4c0.4,0,0.8-0.1,0.8-0.4c0-0.4,0-0.8-0.2-1.2c-0.3-0.9-0.7-2-1.1-3
					c-1.5-4.3-2.6-7.8-2.5-7.9c0.2-0.1,1.6,3.4,3.1,7.7c0.4,1.1,0.7,2.1,1.1,3c0.2,0.5,0.3,1,0.2,1.5c-0.1,0.3-0.4,0.5-0.7,0.6
					c-0.2,0.1-0.4,0.1-0.7,0.1C868.8,170.3,867.9,170.2,867.1,170.1z"/>
				<path class="st15" d="M862.5,171.1c0.3,0,0.2,1.7,1.6,2.9c1.4,1.2,3.2,1.1,3.2,1.3c0,0.2-0.4,0.3-1.2,0.3c-1,0-1.9-0.4-2.7-1
					c-0.7-0.6-1.2-1.5-1.3-2.4C862.2,171.5,862.4,171.1,862.5,171.1z"/>
				<path class="st74" d="M862.1,151.9c-0.2,0.4-1.7,0.1-3.5,0.1c-1.8,0-3.3,0.4-3.5,0c-0.1-0.2,0.2-0.6,0.8-0.9
					c0.8-0.4,1.8-0.7,2.7-0.6c0.9,0,1.9,0.2,2.7,0.6C861.9,151.3,862.2,151.7,862.1,151.9z"/>
				<path class="st74" d="M876.5,153.8c-0.3,0.3-1.3,0-2.6-0.1c-1.3-0.1-2.4,0.2-2.6-0.2c-0.1-0.2,0.1-0.5,0.5-0.9
					c0.6-0.4,1.4-0.6,2.1-0.5c0.7,0,1.5,0.3,2.1,0.7C876.4,153.3,876.6,153.6,876.5,153.8z"/>
				<path class="st74" d="M868.1,135.5c-3.5-1.5-7.1-0.9-10.9-0.5c-2.9,0.3-5.7,1.3-8.1,2.9c-3.9,2.7-6,7.1-6.3,11.8
					c-0.4,4.5,0,9.1,1,13.5l0.4-0.1c-0.4,1.1-0.4,2.3-0.2,3.5c0.4,1.1,1.6,2,2.7,1.6c1.3-0.5,1.4-2.2,1.3-3.6
					c-0.2-4.6,0-9.3,0.4-13.9c0.3-3.4,2.4-7.6,5.2-9.2c6.2-3.4,10.7,0,12.8,0.8c3.4-2.7,7.1-1,9,1.6
					C874.9,140.2,871.6,137,868.1,135.5z"/>
				<path class="st9" d="M840.7,146.5c0,0.2,0.4,0.5,1.2,0.6c1.2,0.1,2.3,0,3.4-0.4c1.6-0.5,3.1-1.3,4.5-2.2c1.5-1,3-2.1,4.7-3.1
					c1.4-0.9,3-1.4,4.6-1.5c1.4-0.1,2.7,0.2,4,0.7c2.2,0.9,3.4,2.1,3.8,1.8c0.1-0.1,0.1-0.2,0.1-0.4c-0.1-0.3-0.2-0.6-0.3-0.9
					c-0.6-1-1.4-1.9-2.4-2.5c-1.5-1-3.2-1.6-5-1.6c-1.1,0-2.2,0.1-3.2,0.4c-1.1,0.3-2.1,0.7-3.1,1.3c-1.7,1-3.3,2.2-4.8,3.4
					c-1.1,0.9-2.3,1.8-3.6,2.5c-0.9,0.5-1.8,0.9-2.7,1.2C841.1,146.1,840.7,146.2,840.7,146.5z"/>
				<path class="st9" d="M840.4,152.1c0.4,0.2,0.9,0.3,1.3,0.3c2.2,0.2,4.3-0.5,6-1.9c0.4-0.3,0.7-0.6,0.9-1c0,0-0.4,0.3-1,0.8
					c-0.8,0.6-1.8,1.1-2.8,1.4c-1,0.3-2,0.5-3.1,0.5C841.3,152.1,840.9,152,840.4,152.1z"/>
				<path class="st9" d="M837.4,158.9c0.2,0,0.4-0.1,0.5-0.1c0.5-0.1,0.9-0.3,1.4-0.5c3-1.2,5.6-3.1,7.8-5.5
					c0.4-0.5,0.7-0.9,0.9-1.1c0.2-0.2,0.3-0.4,0.3-0.5c0,0-0.5,0.6-1.4,1.4c-1.1,1.1-2.3,2.2-3.6,3.1c-1.3,0.9-2.7,1.7-4.1,2.4
					C838.1,158.6,837.4,158.8,837.4,158.9z"/>
				<path class="st9" d="M861.3,134.1c0,0,0.6,0.3,1.5,0.7c1.2,0.5,2.3,1.3,3.1,2.3c0.8,1,1.3,2.2,1.3,3.5c0,0.5-0.1,1.1-0.3,1.6
					c0,0,0.1-0.1,0.2-0.4c0.2-0.4,0.2-0.8,0.3-1.2c0.1-1.4-0.4-2.7-1.3-3.8c-0.9-1-2-1.8-3.3-2.3
					C862.4,134.3,861.8,134.2,861.3,134.1z"/>
				<path class="st9" d="M865,131.9c0,0,0.5,0.4,1.2,1.1c0.9,1,1.5,2.1,1.8,3.4c0.3,1.3,0.2,2.6-0.2,3.9c-0.3,1-0.7,1.5-0.6,1.5
					s0.1-0.1,0.3-0.3c0.2-0.3,0.4-0.7,0.6-1.1c1-2.6,0.4-5.6-1.7-7.5c-0.3-0.3-0.6-0.5-1-0.7C865.1,131.9,865,131.9,865,131.9z"/>
				<path class="st9" d="M844.2,164.6c1.6-0.1,3.1-1.1,3.9-2.5c-0.6,0.5-1.2,1-1.8,1.5C845.6,163.9,844.9,164.3,844.2,164.6z"/>
				<path class="st9" d="M843.7,165.9c0.9,0.1,1.8-0.1,2.5-0.5c0.8-0.4,1.5-1,1.9-1.8c-0.6,0.6-1.3,1.1-2,1.5
					C845.4,165.4,844.6,165.7,843.7,165.9z"/>
				<path class="st9" d="M876.3,145.5c0.3,0,0.6-0.1,0.9-0.3c0.7-0.4,1.2-1,1.6-1.6c0.4-0.7,0.6-1.4,0.6-2.2c0-0.3,0-0.7-0.2-0.9
					c0,0.3-0.1,0.6-0.1,0.9c-0.1,0.7-0.3,1.4-0.7,2.1c-0.4,0.6-0.9,1.2-1.5,1.6C876.6,145.3,876.3,145.4,876.3,145.5z"/>
				<path class="st9" d="M875.3,143.5c0.7-0.5,1.2-1.2,1.6-2c0.5-0.7,0.8-1.5,0.9-2.4c-0.1,0-0.5,1-1.2,2.2S875.3,143.4,875.3,143.5
					z"/>
				<path class="st27" d="M852.2,158.7c0.3,0.3,0.7,0.6,1.1,0.7c0.4,0.2,0.8,0.3,1.3,0.2c-0.4-0.2-0.8-0.4-1.2-0.5
					C853,158.9,852.6,158.8,852.2,158.7z"/>
				<path class="st27" d="M851.1,160.2c0.5,0.1,1,0.1,1.5,0c0.5,0,1-0.1,1.5-0.2C853.1,159.9,852.1,159.9,851.1,160.2L851.1,160.2z"
					/>
				<path class="st27" d="M877.2,161.3c0,0.1,0.4,0.1,0.8,0.1s0.8-0.1,0.8-0.1s-0.4-0.1-0.8-0.1S877.2,161.2,877.2,161.3z"/>
				<path class="st27" d="M877.5,160.5c0,0.1,0.3-0.1,0.7-0.3c0.3-0.2,0.6-0.4,0.6-0.5c0-0.1-0.4,0-0.7,0.3
					C877.7,160.2,877.5,160.4,877.5,160.5z"/>
				<path class="st27" d="M861.7,146.9c0,0,0.5,0.2,1.2,0.4c0.8,0.3,1.8,0.8,2.9,1.3c1,0.4,2,0.7,3.1,0.7c0.3,0,0.7,0,1-0.1
					c0.2-0.1,0.3-0.1,0.3-0.1s-0.5,0.1-1.3,0.1c-1-0.1-2.1-0.4-3-0.8c-1.1-0.5-2.1-1-2.9-1.2C862.6,147,862.2,146.9,861.7,146.9z"/>
				<path class="st27" d="M863.8,146.6c1.9,1,4.1,1.4,6.3,0.9c0-0.1-1.4,0.1-3.2-0.2C865.1,147.1,863.8,146.6,863.8,146.6z"/>
				<path class="st27" d="M860.6,171.5c0.1,0,0.3-0.6,0.9-0.8c0.4-0.1,0.8-0.1,1.3-0.1c0,0-0.1-0.1-0.3-0.2c-0.3-0.1-0.7-0.1-1,0
					c-0.3,0.1-0.6,0.4-0.8,0.7C860.6,171.3,860.6,171.5,860.6,171.5z"/>
				<path class="st27" d="M859.3,171.2c0.2-0.4,0.5-0.8,0.9-1c0.4-0.2,0.8-0.3,1.3-0.4c0,0-0.1-0.1-0.4-0.1c-0.4,0-0.7,0.1-1,0.3
					c-0.3,0.2-0.5,0.5-0.7,0.8C859.2,171,859.3,171.2,859.3,171.2z"/>
				<path class="st27" d="M861.6,163c0,0-0.1,0.3-0.5,0.5c-0.5,0.3-1.1,0.4-1.7,0.4c-0.6,0-1.2-0.2-1.7-0.5
					c-0.4-0.2-0.6-0.5-0.5-0.5c0.7,0.2,1.5,0.4,2.2,0.5C860.1,163.4,860.9,163.3,861.6,163z"/>
				<path class="st27" d="M876.4,162.7c0.1,0.1-0.5,0.9-1.6,1c-1.1,0.2-1.9-0.4-1.8-0.5c0.1-0.1,0.8,0.2,1.8,0
					S876.3,162.6,876.4,162.7z"/>
				<path class="st27" d="M862,156.2c-2.1-0.8-4.4-0.7-6.4,0.2c0,0,0.2-0.3,0.8-0.6c1.5-0.8,3.2-0.8,4.8-0.2
					C861.7,155.9,862,156.1,862,156.2z"/>
				<path class="st27" d="M875.3,156.4c-0.8-0.2-1.5-0.3-2.3-0.4c-0.8,0.1-1.6,0.3-2.3,0.5C871.9,155.3,873.9,155.3,875.3,156.4
					L875.3,156.4z"/>
				<g class="st78">
					<path d="M864.2,198.6c-0.6,1.3-1,2.8-1,4.2c-3.8-0.1-7-2.7-9.7-5.4s-6.7-5.5-10.4-6.5c2.9,0.9,5.5,3.1,7.6,5.3
						c2.1,2.2,4,4.7,6.3,6.7s5.1,3.6,8.2,3.6C865.3,203.9,865,201.2,864.2,198.6z"/>
				</g>
				<g class="st85">
					<path class="st9" d="M866.7,216.7c0.3,0.6-0.8,12-0.8,12l10.7,9.6l0.3-13.6L866.7,216.7z"/>
				</g>
				<g class="st85">
					<path class="st9" d="M878.5,212.9c0.2,0.6-1.6,11.9-1.6,11.9l10.1,10.3l1.3-13.5L878.5,212.9z"/>
				</g>
				<g class="st85">
					<path class="st9" d="M891.8,210.1c0.1,0.7-3.5,11.6-3.5,11.6l8.3,11.6l3.4-13.2L891.8,210.1z"/>
				</g>
				<g class="st85">
					<path class="st9" d="M903.3,225.3l-3.5-14c0,0-7.2-6.5-7.5-7.1l2,6.7L903.3,225.3z"/>
				</g>
				<path class="st15" d="M885.6,201.4c0.2,0.1,0.3,0.2,0.5,0.3c0.3,0.3,0.7,0.6,1.3,1.1c1.5,1.4,2.9,2.9,4.3,4.5
					c2,2.3,3.8,4.8,5.5,7.3c1.9,2.9,3.9,6.1,5.8,9.5l9.9,17.7c1.2,2.2,2.2,4.1,2.9,5.4c0.3,0.6,0.6,1.1,0.8,1.5
					c0.1,0.2,0.2,0.3,0.2,0.5c-0.1-0.1-0.2-0.3-0.3-0.5l-0.9-1.4c-0.8-1.3-1.8-3.1-3.1-5.3c-2.6-4.5-6.1-10.7-10-17.6
					c-1.9-3.4-3.9-6.7-5.8-9.5c-1.7-2.5-3.5-5-5.4-7.3c-1.3-1.6-2.7-3.1-4.1-4.5c-0.5-0.5-0.9-0.9-1.2-1.2
					C885.8,201.7,885.7,201.5,885.6,201.4z"/>
				<path class="st13" d="M829.4,197.2c0,0-6.4,4.3-5.7,12.4s7.4,20.6,11.7,24.9c4.3,4.3,25.6,31.7,25.6,31.7l15.9-19.8L855.1,211
					C855.1,211,840,193.6,829.4,197.2z"/>
				<path class="st12" d="M859.9,259.9c0,0,6.5,8.1,12.4,9.1s58.6-4.8,58.6-4.8l1-12.2l-55.6-8.2
					C876.4,243.9,857.1,249.8,859.9,259.9z"/>
				<path class="st12" d="M941.9,253.6c-1-1-11.2-1.6-11.2-1.6l-2.3-0.3l-1.7,10.7l10.6,5.8l-2,6.1h-2c-2,0-2.2,1.4-2,2.9
					s8.3,1,8.3,1l7.4-12C946.9,266.3,942.9,254.6,941.9,253.6z"/>
				<path class="st15" d="M873.5,239c-0.9-0.7-1.8-1.4-2.8-1.9c-2.5-1.2-5.2-1.8-8-1.7c-2.8,0.1-5.5,0.6-8.2,1.3
					c-1.1,0.3-2.2,0.6-3.4,0.8c0.3-0.2,0.6-0.3,0.9-0.3c0.6-0.2,1.4-0.5,2.4-0.8c2.7-0.8,5.5-1.3,8.3-1.4c2.8-0.1,5.6,0.6,8.1,1.9
					c0.7,0.4,1.4,0.9,2.1,1.5C873.2,238.5,873.4,238.8,873.5,239z"/>
				<path class="st27" d="M932.8,259.5c0,0-0.2,0.1-0.5,0.2c-0.5,0-1-0.1-1.5-0.3c-0.7-0.3-1.4-0.5-2.1-0.6c-0.4,0-0.8,0.1-1.1,0.4
					c-0.2,0.2-0.4,0.3-0.6,0.5c-0.2,0.2-0.5,0.3-0.8,0.3c-0.5,0-1-0.1-1.5-0.3c-0.4-0.1-0.8-0.1-1.2,0c-0.7,0.2-1.5,0.3-2.2,0.4
					c-0.5,0-1.1-0.2-1.5-0.5c-0.3-0.3-0.3-0.5-0.3-0.5c0,0,0.1,0.2,0.4,0.4c0.4,0.3,0.9,0.4,1.4,0.3c0.7-0.1,1.5-0.3,2.2-0.5
					c0.5-0.1,0.9-0.1,1.4,0c0.4,0.1,0.9,0.2,1.3,0.3c0.4,0,0.7-0.3,1.1-0.6c0.4-0.4,0.9-0.5,1.4-0.5c0.8,0.1,1.5,0.3,2.2,0.7
					c0.4,0.2,0.9,0.4,1.4,0.4C932.6,259.5,932.7,259.4,932.8,259.5z"/>
				<path class="st27" d="M934.2,257.2c0,0-0.1,0.2-0.6,0.3c-0.6,0-1.2-0.1-1.6-0.4c-0.3-0.2-0.7-0.3-1-0.4c-0.4,0-0.8,0-1.2,0.2
					c-0.5,0.2-1,0.2-1.5,0.2c-0.5-0.1-1-0.2-1.5-0.4c-0.5-0.2-1-0.2-1.4-0.1c-0.4,0.1-0.9,0.3-1.2,0.6c-0.4,0.3-0.8,0.5-1.2,0.6
					c-0.4,0.1-0.8,0.1-1.2-0.1c-0.5-0.2-1.1-0.4-1.5-0.8c-0.3-0.2-0.5-0.4-0.5-0.4s0.2,0.1,0.6,0.3c0.5,0.3,1,0.5,1.5,0.6
					c0.3,0.1,0.7,0.1,1,0c0.4-0.1,0.8-0.3,1.1-0.6c0.4-0.3,0.9-0.6,1.4-0.7c0.6-0.1,1.1,0,1.6,0.1c1,0.3,2,0.6,2.8,0.3
					c0.4-0.2,0.9-0.3,1.4-0.2c0.4,0.1,0.8,0.3,1.1,0.5c0.4,0.3,0.9,0.5,1.5,0.5C934,257.3,934.2,257.2,934.2,257.2z"/>
				<g class="st78">
					<path d="M853.8,240.1c-0.8,0.4-1.6,1.2-1.4,2c0.2,0.6,0.9,1,1.5,0.9c0.6-0.1,1.2-0.3,1.8-0.7c5.3-2.8,11.4-3.9,17.3-3.4l0,0
						C866.8,236.4,859.7,236.8,853.8,240.1z"/>
				</g>
				<g class="st85">
					<path class="st9" d="M831.1,219.6c0.4,0.6,1.9,11.9,1.9,11.9l11.9,7.2l-2.6-13.3L831.1,219.6z"/>
				</g>
				<g class="st85">
					<path class="st9" d="M840.5,213.6c0.4,0.6,1.9,11.9,1.9,11.9l11.9,7.2l-2.6-13.3L840.5,213.6z"/>
				</g>
				<g class="st85">
					<path class="st9" d="M864.2,226.3l-12.4-7c0,0-1.5-11.3-1.9-11.9l5.5,4.4L864.2,226.3z"/>
				</g>
				<path class="st15" d="M870.7,235.5c0,0-0.1-0.1-0.4-0.4c-0.2-0.3-0.6-0.6-1-1.1c-1.2-1.4-2.3-2.9-3.3-4.4
					c-1.3-1.9-2.6-4.3-4.1-7c-1.5-2.7-3-5.6-4.9-8.6c-1.7-2.8-3.8-5.3-6.1-7.6c-1.9-1.9-4.1-3.5-6.5-4.7c-1.6-0.8-3.3-1.4-5.1-1.7
					c-1.3-0.2-2-0.3-2-0.3c0.2,0,0.3,0,0.5,0c0.5,0,1,0.1,1.5,0.1c1.8,0.3,3.6,0.8,5.2,1.6c2.4,1.2,4.7,2.8,6.6,4.7
					c2.4,2.3,4.5,4.9,6.3,7.7c1.9,3,3.5,5.9,4.9,8.6c1.5,2.7,2.8,5.1,4,7c1,1.5,2,3,3.1,4.5C870.2,235,870.7,235.5,870.7,235.5z"/>
				<path class="st60" d="M929.5,272.1l-72.5-0.2l-1.7-7.6h74.2c2.2,0,3.9,1.8,3.9,3.9l0,0l0,0C933.4,270.3,931.7,272.1,929.5,272.1
					z"/>
				<path class="st15" d="M863.3,239.4c0.9-0.3,1.9-0.5,2.8-0.6c2.3-0.4,4.7-0.4,7-0.1c2.4,0.4,4.5,1.6,6.1,3.4
					c0.5,0.5,0.9,1.1,1.1,1.8c0.1,0.2,0.2,0.5,0.2,0.8c-0.5-0.8-1-1.6-1.6-2.3c-1.6-1.6-3.7-2.7-6-3.1c-2.3-0.4-4.6-0.4-6.9-0.1
					C865.2,239.3,864.2,239.4,863.3,239.4z"/>
			</g>
		</g>
		<polygon style="clip-path:url(#SVGID_2_);fill:#8740E8;" points="441.4,407 427.7,399.1 414,391.2 414,407 414,422.8 427.7,414.9 
					"/>
		<linearGradient id="SVGID_9_" gradientUnits="userSpaceOnUse" x1="503.3192" y1="393.692" x2="531.9353" y2="393.692">
			<stop  offset="0" style="stop-color:#FFDB00"/>
			<stop  offset="1" style="stop-color:#FFAE08"/>
		</linearGradient>
		<circle style="clip-path:url(#SVGID_2_);fill:url(#SVGID_9_);" cx="517.6" cy="393.7" r="14.3"/>
		<polygon class="st42" points="1086.1,65.7 1088.4,72.1 1094.5,69.1 1091.6,75.3 1098,77.6 1091.6,79.9 1094.5,86 1088.4,83.1 
			1086.1,89.5 1083.8,83.1 1077.7,86 1080.6,79.9 1074.2,77.6 1080.6,75.3 1077.7,69.1 1083.8,72.1 		"/>
		<g class="st1">
			<circle class="st45" cx="737.6" cy="30.1" r="12.1"/>
			<path class="st13" d="M737.6,18c-0.3,0-0.5,0-0.8,0v24.2c0.3,0,0.5,0,0.8,0c6.7,0,12.1-5.4,12.1-12.1S744.3,18,737.6,18z"/>
		</g>
		<circle class="st7" cx="486.9" cy="350.2" r="4.4"/>
		<path class="st3" d="M150.5,468.5c-4-40,100-27,133.5-25.2c9.4,0.5,19.4-1,27.1-6.5c7.7-5.5,12-16.7,7.1-24.8
			c-11-17.8-37.8,15.8,1.7,11.7c8.9-0.9,17.3-4.8,25.7-7.8c52.8-18.4,132,8.9,159.8,61.9"/>
		<circle class="st3" cx="787.8" cy="53.5" r="5.9"/>
		<circle class="st3" cx="1143.8" cy="33.5" r="5.9"/>
		<polygon class="st42" points="962,232.1 963.1,235.3 966.2,233.8 964.8,236.9 968,238.1 964.8,239.2 966.2,242.3 963.1,240.9 
			962,244.1 960.8,240.9 957.7,242.3 959.2,239.2 956,238.1 959.2,236.9 957.7,233.8 960.8,235.3 		"/>
		<path class="st3" d="M-8.5,8.5c-4.3,18.4,1.1,43.9,11,60c18,29.4,61.5,29.9,83.4,2.9c11.3-14-2.2-30.5-11.5-14.8
			c-3.1,5.3-1.3,12.9,3.8,16.2c6.2,4.1,14.6,1.6,21.2-1.8c43.2-22.1,64.5-74.6,107.8-96.5"/>
	</g>
</g>
<g id="_11" class="st91">
	<path class="st92" d="M0,143c0,0,30.9,50.5,78,80c67,42,115,129,39,238H0V143z"/>
</g>
<g id="" class="st91">
</g>
<g id="" class="st91">
</g>
<g id="_10" class="st91">
</g>
<g id="_8" class="st91">
</g>
<g id="" class="st91">
</g>
<g id="" class="st91">
</g>
<g id="_1" class="st91">
</g>
</svg>
