<?xml version="1.0" encoding="utf-8"?>
<!-- Generator: Adobe Illustrator 21.1.0, SVG Export Plug-In . SVG Version: 6.00 Build 0)  -->
<svg version="1.1" id="圖層_1" xmlns="http://www.w3.org/2000/svg" xmlns:xlink="http://www.w3.org/1999/xlink" x="0px" y="0px"
	 viewBox="0 0 40 40" style="enable-background:new 0 0 40 40;" xml:space="preserve">
<style type="text/css">
	.st0{fill:#9E9384;}
</style>
<g>
	<path class="st0" d="M40,7.5c0,2.2-1.4,4-3.1,4H3.1c-1.7,0-3.1-1.8-3.1-4l0,0c0-2.2,1.4-4,3.1-4h33.8C38.6,3.5,40,5.3,40,7.5
		L40,7.5z"/>
	<path class="st0" d="M40,32.5c0,2.2-1.4,4-3.1,4H3.1c-1.7,0-3.1-1.8-3.1-4l0,0c0-2.2,1.4-4,3.1-4h33.8C38.6,28.5,40,30.3,40,32.5
		L40,32.5z"/>
	<path class="st0" d="M40,20c0,2.2-1.4,4-3.1,4H3.1C1.4,24,0,22.2,0,20l0,0c0-2.2,1.4-4,3.1-4h33.8C38.6,16,40,17.8,40,20L40,20z"/>
</g>
</svg>
