<?xml version="1.0" encoding="utf-8"?>
<!-- Generator: Adobe Illustrator 21.1.0, SVG Export Plug-In . SVG Version: 6.00 Build 0)  -->
<svg version="1.1" id="圖層_1" xmlns="http://www.w3.org/2000/svg" xmlns:xlink="http://www.w3.org/1999/xlink" x="0px" y="0px"
	 viewBox="0 0 1200 2050" style="enable-background:new 0 0 1200 2050;" xml:space="preserve">
<style type="text/css">
	.st0{fill:#F5F5F5;}
	.st1{fill:#202020;}
	.st2{clip-path:url(#SVGID_2_);fill:none;stroke:#000000;stroke-width:3;stroke-miterlimit:10;}
</style>
<path class="st0" d="M0,1052.6c0-3.5,27.1-5.7,29.3-5.8c23.4-0.9,48.3,6.8,67,21.2c6.3,4.9,11.6,10.9,18.1,15.6
	c17.9,12.9,37.9,18.9,59.8,20.4c50.2,3.3,128.4,3.3,123.9,118.4c-6.7,97.1-93.8,103.8-123.9,131.8C144,1382,67,1442.3,0,1385.4
	C0,1385.4,0,1052.9,0,1052.6z"/>
<path class="st0" d="M1199.5,1498.7c0,0-120.3-85.4-237.7,8.7c-63.1,53.4-41.7,117.4-39.8,162c1.3,30.4-1.9,60.6-3.6,90.9
	c-1.7,29.8,6.7,57.5,30.1,77.1c15.9,13.3,35.9,20.2,56.3,22.2c13.9,1.4,27.8,0.7,41.6-1.4c13.1-2,25.3-6.6,38.3-9.3
	c22.1-4.5,45-5,67.2-1.3c10.2,1.7,20.5,3.9,30.3,6.9c4.9,1.5,14.1,3.3,17.2,8V1498.7z"/>
<path class="st1" d="M1200.5,723.5c0,0-12-13-28-4s-6,25-13,36s-36,36-15,62s55,5,55,5L1200.5,723.5z"/>
<g>
	<defs>
		<path id="SVGID_1_" d="M1200.5,723.5c0,0-12-13-28-4s-6,25-13,36s-36,36-15,62s55,5,55,5L1200.5,723.5z"/>
	</defs>
	<clipPath id="SVGID_2_">
		<use xlink:href="#SVGID_1_"  style="overflow:visible;"/>
	</clipPath>
	<path class="st2" d="M1189.3,711.3c4.3,7.2,6.6,15.6,6.4,24c-0.2,6.8-1.9,13.4-2.6,20.1c-0.7,6.5-0.5,13.4,2.5,19.3
		c3.1,6.3,9.1,10.8,15.5,13.5c6.4,2.8,13.4,4,20.3,5.2"/>
	<path class="st2" d="M1150.5,746.9c5.4,1,11.3,2.3,14.8,6.6c1.8,2.1,2.7,4.7,3.6,7.3c2.4,7.3,4.1,14.9,7,22c1.3,3.2,3,6.4,5.6,8.8
		c3.7,3.3,8.9,4.5,13.8,4.8s10-0.2,14.9,0.5"/>
	<path class="st2" d="M1214.5,820.1c-14.2-7.8-28.5-15.8-40.8-26.4c-7.1-6.2-13.5-13.2-20.6-19.4c-3.3-2.9-6.7-5.7-9.3-9.3
		c-2.6-3.6-4.2-8-3.3-12.4"/>
	<path class="st2" d="M1133.3,777.5c6,13.5,15.4,26.4,29,32.3c5.2,2.2,10.9,3.4,15.9,6.2c5.6,3.1,9.9,8.2,13.1,13.7
		c3.2,5.5,5.4,11.6,7.6,17.6"/>
	<path class="st2" d="M1127.9,802c10.8,2.5,20.8,8.1,28.6,16c7.8,7.8,13.4,17.9,15.9,28.6"/>
</g>
</svg>
