<?xml version="1.0" encoding="utf-8"?>
<!-- Generator: Adobe Illustrator 21.1.0, SVG Export Plug-In . SVG Version: 6.00 Build 0)  -->
<svg version="1.1" xmlns="http://www.w3.org/2000/svg" xmlns:xlink="http://www.w3.org/1999/xlink" x="0px" y="0px"
	 viewBox="0 0 341 245" style="enable-background:new 0 0 341 245;" xml:space="preserve">
<style type="text/css">
	.st0{fill:#FFF1B3;}
	.st1{fill:#8740E8;}
	.st2{fill:none;stroke:#110D26;stroke-width:1.4755;stroke-linecap:round;stroke-linejoin:round;stroke-miterlimit:10;}
	.st3{clip-path:url(#SVGID_2_);fill:#FFEFDE;}
	.st4{clip-path:url(#SVGID_2_);fill:#A68AFF;}
	.st5{clip-path:url(#SVGID_2_);fill:#FF7E5F;}
	.st6{clip-path:url(#SVGID_2_);fill:#110D26;}
	.st7{clip-path:url(#SVGID_2_);}
	.st8{fill:none;stroke:#FF7E5F;stroke-width:4.4266;stroke-linecap:round;stroke-linejoin:round;stroke-miterlimit:10;}
	
		.st9{clip-path:url(#SVGID_2_);fill:none;stroke:#110D26;stroke-width:1.4755;stroke-linecap:round;stroke-linejoin:round;stroke-miterlimit:10;}
	.st10{opacity:0.35;clip-path:url(#SVGID_2_);}
	.st11{fill:#FFFFFF;}
	.st12{clip-path:url(#SVGID_2_);fill:#FFC4AF;}
	.st13{clip-path:url(#SVGID_2_);fill:#DF947F;}
	.st14{fill:#FFC4AF;}
	.st15{fill:#FF7E5F;}
	.st16{opacity:0.5;fill:#FFFFFF;}
	.st17{fill:#263238;}
	.st18{opacity:0.2;enable-background:new    ;}
	.st19{fill:url(#SVGID_3_);}
	.st20{fill:url(#SVGID_4_);}
	.st21{fill:url(#SVGID_5_);}
	.st22{fill:url(#SVGID_6_);}
	.st23{fill:url(#SVGID_7_);}
	.st24{fill:none;stroke:#FFFFFF;stroke-linecap:round;stroke-linejoin:round;}
	.st25{fill:url(#SVGID_8_);}
	.st26{fill:url(#SVGID_9_);}
	.st27{fill:url(#SVGID_10_);}
	.st28{opacity:0.5;fill:#FFFFFF;enable-background:new    ;}
	.st29{fill:#DF947F;}
	.st30{fill:none;stroke:#263238;stroke-width:0.5;stroke-linecap:round;stroke-linejoin:round;}
	.st31{fill:url(#SVGID_11_);}
	.st32{opacity:0.6;fill:#FFFFFF;enable-background:new    ;}
	.st33{fill:url(#SVGID_12_);}
	.st34{fill:url(#SVGID_13_);}
	.st35{fill:url(#SVGID_14_);}
	.st36{fill:none;stroke:#263238;stroke-linecap:round;stroke-linejoin:round;}
	.st37{fill:url(#SVGID_15_);}
	.st38{opacity:0.2;fill:#FFFFFF;enable-background:new    ;}
	.st39{opacity:0.3;fill:#FFFFFF;enable-background:new    ;}
	.st40{fill:url(#SVGID_16_);}
	.st41{fill:url(#SVGID_17_);}
	.st42{fill:none;stroke:#263238;stroke-width:0.708;stroke-linecap:round;stroke-linejoin:round;}
	.st43{fill:#DE5753;}
	.st44{clip-path:url(#SVGID_2_);fill:#FFFFFF;}
	.st45{clip-path:url(#SVGID_19_);}
	.st46{fill:#FEECE9;}
	.st47{fill:#110D26;}
	.st48{fill:url(#SVGID_20_);}
	.st49{fill:none;stroke:#110D26;stroke-width:1.0414;stroke-linecap:round;stroke-linejoin:round;stroke-miterlimit:10;}
	.st50{fill:#EBEBEB;}
	.st51{fill:#C7C7C7;}
	.st52{fill:url(#SVGID_21_);}
	.st53{fill:url(#SVGID_22_);}
	.st54{fill:url(#SVGID_23_);}
	.st55{fill:url(#SVGID_24_);}
	.st56{opacity:0.1;enable-background:new    ;}
	.st57{fill:url(#SVGID_25_);}
	.st58{fill:#A6A6A6;}
	.st59{fill:#DBDBDB;}
	.st60{fill:#455A64;}
	.st61{fill:url(#SVGID_26_);}
	.st62{fill:none;}
	.st63{fill:#FF99BA;}
	.st64{fill:#37474F;}
	.st65{opacity:0.2;}
	.st66{fill:url(#SVGID_27_);}
	.st67{fill:url(#SVGID_28_);}
	.st68{fill:url(#SVGID_29_);}
	.st69{fill:#FF9BBC;}
	.st70{fill:url(#SVGID_30_);}
	.st71{clip-path:url(#SVGID_32_);fill:#FFEFDE;}
	.st72{clip-path:url(#SVGID_32_);}
	.st73{opacity:0.6;}
	.st74{fill:#E0E0E0;}
	.st75{fill:#FAFAFA;}
	.st76{fill:#AA6550;}
	.st77{fill:url(#SVGID_33_);}
	.st78{opacity:0.3;}
	.st79{fill:#684B46;}
	.st80{fill:url(#SVGID_34_);}
	.st81{fill:url(#SVGID_35_);}
	.st82{fill:url(#SVGID_36_);}
	.st83{fill:url(#SVGID_37_);}
	.st84{fill:url(#SVGID_38_);}
	.st85{opacity:0.4;}
	.st86{clip-path:url(#SVGID_32_);fill:#8740E8;}
	.st87{clip-path:url(#SVGID_32_);fill:url(#SVGID_39_);}
	.st88{clip-path:url(#SVGID_32_);fill:#FFFFFF;}
	.st89{clip-path:url(#SVGID_32_);fill:#110D26;}
	
		.st90{clip-path:url(#SVGID_32_);fill:none;stroke:#110D26;stroke-width:1.4755;stroke-linecap:round;stroke-linejoin:round;stroke-miterlimit:10;}
	.st91{fill:#F5F5F5;}
	.st92{fill:url(#SVGID_40_);}
	.st93{fill:url(#SVGID_41_);}
	.st94{fill:url(#SVGID_42_);}
	.st95{fill:url(#SVGID_43_);}
	.st96{fill:url(#SVGID_44_);}
	.st97{fill:#F6957F;}
	.st98{fill:url(#SVGID_45_);}
	.st99{fill:url(#SVGID_46_);}
	.st100{fill:url(#SVGID_47_);}
	.st101{fill:url(#SVGID_48_);}
	.st102{fill:url(#SVGID_49_);}
	.st103{fill:url(#SVGID_50_);}
	.st104{fill:url(#SVGID_51_);}
	.st105{fill:#FFC5B0;}
	.st106{fill:url(#SVGID_52_);}
	.st107{fill:url(#SVGID_53_);}
	.st108{fill:url(#SVGID_54_);}
	.st109{fill:#CCCCCC;}
	.st110{fill:#FFDBD0;}
	.st111{fill:#FF8B57;}
	.st112{fill-rule:evenodd;clip-rule:evenodd;}
	.st113{fill:#E0F9FF;}
	.st114{fill:#FFEFDE;}
	.st115{fill:#E5F9E5;}
	.st116{display:none;}
	.st117{display:inline;}
	.st118{fill:#FDFDFD;}
	.st119{fill:#E5E9EB;}
	.st120{fill:#F7F8F9;}
	.st121{fill:#201E22;}
	.st122{fill:#CEE8D6;}
	.st123{fill:#8C8488;}
	.st124{fill:#DCDFE4;}
	.st125{fill:#1E1D1D;}
	.st126{fill:#242328;}
	.st127{fill:#EEF1F1;}
	.st128{fill:#F8F9FA;}
	.st129{fill:#9CC0F8;}
	.st130{fill:#F5F6F7;}
	.st131{fill:#DFE1E4;}
	.st132{fill:#707173;}
	.st133{fill:#8B858A;}
	.st134{fill:#F6F7F8;}
	.st135{fill:#525155;}
	.st136{fill:#F0F0F0;stroke:#CCCCCC;stroke-miterlimit:10;}
	.st137{fill:#FFAF00;}
	.st138{fill:#FFFFFF;stroke:#FFFFFF;stroke-width:5;stroke-miterlimit:10;}
	.st139{fill:none;stroke:#FFFFFF;stroke-width:2;stroke-miterlimit:10;}
</style>
<g id="banner3">
</g>
<g id="banner2">
</g>
<g id="banner1">
</g>
<g id="老人圖">
	<g>
		<g id="freepik--background-complete--inject-1">
			<polygon class="st74" points="209.8,196.9 198.8,244.7 203.5,244.7 214.5,197.3 			"/>
			<polygon class="st74" points="229.9,196.9 241,244.7 245.4,244.7 234.7,196.9 			"/>
			<polygon class="st74" points="202.4,160.9 208.7,193.9 215.8,193.9 209.1,160.9 			"/>
			<polygon class="st74" points="93.1,196.9 84.1,244.7 88.7,244.7 98.1,196.9 			"/>
			<polygon class="st74" points="112,196.9 122.3,244.5 126.8,244.5 116.9,196.9 			"/>
			<polygon class="st74" points="85.6,160.9 91.9,193.9 99,193.9 92.3,160.9 			"/>
			<polygon class="st50" points="71.5,158 72.8,163.9 216,163.9 214.3,158 			"/>
			<polygon class="st50" points="74.3,169.6 75.8,175.6 218,175.6 216.7,169.6 			"/>
			<polygon class="st50" points="77.1,181.6 78.5,187.6 220.3,187.6 218.9,181.6 			"/>
			<rect x="87.9" y="193.9" class="st50" width="152.9" height="6"/>
			<path class="st91" d="M319.5,39c0.5-3.3-4.2-6-7.7-6.3c-1.7-0.1-3.4,0.1-5-0.4c-3.4-1.2-4.8-5.6-8.1-7c-2.5-1-5.3-0.1-7.8,1.1
				c-2.4,1.2-4.8,2.7-7.5,2.9c-2.3,0.2-4.9-0.7-6.9,0.4c-1.5,0.9-2.3,2.6-3.7,3.6c-1.4,1-3.2,1.2-4.9,1.3c-1.7,0.1-3.5,0.1-5,0.8
				c-1.5,0.7-2.8,2.4-2.5,4L319.5,39z"/>
			<path class="st50" d="M164.8,68.5c0.3-2.4-3-4.3-5.5-4.5c-1.2-0.1-2.4,0.1-3.6-0.3c-2.5-0.9-3.4-4-5.8-5
				c-1.8-0.8-3.9-0.1-5.6,0.8c-1.7,0.9-3.5,2-5.4,2.1c-1.7,0.1-3.5-0.5-5,0.3c-1.1,0.6-1.7,1.9-2.7,2.6c-1,0.7-2.3,0.9-3.5,1
				c-1.2,0.1-2.5,0.1-3.6,0.6c-1.1,0.5-2,1.7-1.8,2.9L164.8,68.5z"/>
			<path class="st91" d="M160,32.3c0.7-4.8-6.1-8.7-11.1-9.1c-2.4-0.2-4.9,0.2-7.2-0.6c-5-1.7-6.9-8.1-11.8-10.2
				c-3.6-1.5-7.8-0.2-11.3,1.6s-7,4-10.9,4.2c-3.4,0.2-7.1-1-10.1,0.6c-2.2,1.2-3.4,3.8-5.4,5.3c-2,1.5-4.6,1.8-7.1,1.9
				c-2.5,0.1-5.1,0.2-7.3,1.2s-4.1,3.4-3.7,5.9L160,32.3z"/>
			<path class="st91" d="M341,68.3c0.4-2.6-3.3-4.7-6-4.9c-1.3-0.1-2.7,0.1-3.9-0.3c-2.7-0.9-3.8-4.4-6.4-5.5
				c-2-0.8-4.2-0.1-6.1,0.9c-1.9,1-3.8,2.2-5.9,2.3c-1.8,0.1-3.8-0.6-5.5,0.3c-1.2,0.7-1.8,2.1-2.9,2.9c-1.1,0.8-2.5,1-3.8,1
				c-1.3,0.1-2.7,0.1-4,0.7c-1.2,0.6-2.2,1.9-2,3.2L341,68.3z"/>
			<path class="st91" d="M32.1,154.1c-11.4-3-21.4-10.5-27-20.3c-5.6-9.8-6.6-21.6-2.8-32.3c3-8.2,8.6-15.4,11.1-23.8
				c2.8-9.5,1.1-19.5-0.6-29.2s-3.4-19.7-0.9-29.3S22.6,0.7,33.1,0c9.7-0.6,18.7,6.1,22.8,14.4S60,32.3,59,41.3s-2.8,18.1-2.2,27.2
				C58,87,69.1,104.3,67.7,122.7c-0.7,9.6-4.6,15.7-11.4,22.9C50.4,151.9,40.7,156,32.1,154.1"/>
			<path class="st74" d="M35.5,245.4c-0.1,0-0.2-40.8-0.2-91.1s0.1-91.2,0.2-91.2c0.1,0,0.2,40.8,0.2,91.2S35.6,245.4,35.5,245.4z"
				/>
			<path class="st74" d="M35,122.2c-0.6-0.4-1.2-0.9-1.7-1.5c-1-0.9-2.4-2.3-3.8-3.8c-1.4-1.5-2.8-2.9-3.7-3.9
				c-0.5-0.5-1-1.1-1.5-1.7c0.6,0.4,1.2,0.9,1.7,1.5c1,0.9,2.4,2.3,3.8,3.8c1.4,1.5,2.8,2.9,3.7,3.9C34,121.1,34.5,121.6,35,122.2z"
				/>
			<rect x="5.5" y="237.8" class="st74" width="61" height="7.5"/>
			<path class="st74" d="M36.1,84c1.3-0.3,2.6-0.8,3.7-1.6c2.7-1.7,4.4-4.6,4.6-7.8c0-0.1,0-0.1,0-0.2l0.2,0.2
				c-1.7,0.3-3.3,1.2-4.5,2.5c-1,1-1.8,2.1-2.5,3.3c-0.6,1-1,1.9-1.3,2.5c-0.1,0.3-0.3,0.6-0.5,0.9c0.1-0.3,0.2-0.7,0.3-1
				c0.4-0.9,0.8-1.7,1.2-2.6c0.7-1.3,1.5-2.4,2.5-3.5c1.2-1.4,2.9-2.3,4.7-2.6l0.2,0v0.2c0,0.1,0,0.1,0,0.2
				c-0.3,3.3-2.1,6.2-4.8,7.9c-0.9,0.5-1.8,0.9-2.8,1.2c-0.3,0.1-0.5,0.1-0.8,0.2C36.3,84,36.2,84,36.1,84z"/>
			<path class="st74" d="M36.1,84c-0.1-0.1,1.1-1.5,2.6-3.2c1.5-1.7,2.8-3,2.8-3c0.1,0.1-1.1,1.5-2.6,3.2
				C37.4,82.8,36.2,84.1,36.1,84z"/>
			<polygon class="st91" points="308,200.9 314,201.9 314,211.6 308,212.8 			"/>
			<path class="st91" d="M314.5,200.8L314.5,200.8c0.5,0,0.8,0.3,0.8,0.7v10.4c0,0.4-0.3,0.7-0.7,0.7h-0.1c-0.4,0-0.7-0.3-0.7-0.7
				v-10.4C313.8,201.1,314.1,200.8,314.5,200.8z"/>
			<path class="st91" d="M315,203.9h0.4c1.2,0,2.2,1,2.2,2.2v0.2c0,1.2-1,2.2-2.2,2.2H315l0,0V203.9L315,203.9z"/>
			<path class="st74" d="M313.7,211.6c-0.1-1.6-0.2-3.2-0.1-4.8c0-1.6,0-3.2,0.1-4.8c0.2,1.6,0.2,3.2,0.2,4.8
				C313.9,208.4,313.9,210,313.7,211.6z"/>
			<path class="st74" d="M315.2,211.7c-0.2-1.6-0.2-3.2-0.2-4.8c-0.1-1.6,0-3.2,0.2-4.8c0.1,1.6,0.2,3.2,0.1,4.8
				C315.4,208.5,315.4,210.1,315.2,211.7z"/>
			<path class="st91" d="M286.5,238.6v-49c0-5.9,4.8-10.8,10.8-10.8l0,0c5.9,0,10.7,4.8,10.8,10.8v49H286.5z"/>
			<path class="st91" d="M285.9,190.8h22.8c1.6,0,2.8,1.3,2.8,2.8v0.3c0,1.6-1.3,2.8-2.8,2.8h-22.8c-1.6,0-2.8-1.3-2.8-2.8v-0.3
				C283.1,192.1,284.4,190.8,285.9,190.8z"/>
			<path class="st91" d="M293.9,179.6v-0.4c-0.1-1.7,1.2-3.2,2.9-3.3c0,0,0,0,0,0l0.8,0c1.7-0.1,3.1,1.3,3.2,3l0,0.7L293.9,179.6z"
				/>
			<path class="st91" d="M297.2,174.7h0.4c0.4,0,0.8,0.4,0.8,0.8l0,0v0.9l0,0h-2l0,0v-0.9C296.4,175.1,296.7,174.7,297.2,174.7
				L297.2,174.7z"/>
			<path class="st74" d="M308,190.7c0,0.1-4.8,0.1-10.7,0.1s-10.7-0.1-10.7-0.1s4.8-0.2,10.7-0.2S308,190.6,308,190.7z"/>
			<path class="st75" d="M294.2,180c0,0-0.6,0.3-1.6,0.8c-1.3,0.7-2.4,1.6-3.3,2.7c-0.9,1.1-1.5,2.4-1.8,3.8
				c-0.2,1.1-0.2,1.8-0.2,1.8c0-0.2-0.1-0.3-0.1-0.5c0-0.4,0-0.9,0.1-1.3c0.2-1.5,0.8-2.8,1.7-4c0.9-1.1,2.1-2,3.4-2.7
				c0.4-0.2,0.8-0.4,1.2-0.5C293.9,180.1,294.1,180,294.2,180z"/>
			<path class="st74" d="M300.9,179.4c0,0.1-1.5-0.5-3.5-0.6c-2-0.1-3.5,0.6-3.5,0.5c0.3-0.2,0.6-0.3,1-0.4c0.8-0.3,1.7-0.4,2.5-0.4
				c0.9,0,1.7,0.2,2.5,0.4C300.3,179.1,300.6,179.2,300.9,179.4z"/>
			<path class="st74" d="M298.6,176.1c-0.4,0-0.8,0-1.2-0.1c-0.4,0-0.8,0-1.2,0c0-0.1,0.5-0.3,1.2-0.3
				C298.2,175.7,298.7,176,298.6,176.1z"/>
			
				<ellipse transform="matrix(0.7071 -0.7071 0.7071 0.7071 -60.058 271.2853)" class="st74" cx="297.4" cy="208.1" rx="7.4" ry="7.4"/>
			<circle class="st91" cx="297.4" cy="206.9" r="7.4"/>
			<path class="st74" d="M304.9,206.9c-0.1-0.6-0.2-1.2-0.3-1.8c-0.4-1.6-1.4-3-2.7-4c-0.9-0.7-2-1.1-3.1-1.4
				c-1.3-0.2-2.6-0.1-3.8,0.3c-0.7,0.2-1.3,0.6-1.8,1c-0.6,0.4-1.1,1-1.5,1.6c-1.9,2.6-1.9,6.1,0,8.6c0.9,1.2,2,2,3.4,2.5
				c1.2,0.4,2.6,0.6,3.8,0.3c1.1-0.2,2.2-0.7,3.1-1.4c1.3-1,2.3-2.4,2.7-4C304.7,208.1,304.8,207.5,304.9,206.9c0,0.2,0,0.3,0,0.5
				c0,0.2,0,0.4,0,0.6c0,0.3-0.1,0.5-0.1,0.8c-0.7,2.8-3,5-5.9,5.6c-1.3,0.3-2.7,0.1-4-0.3c-1.4-0.5-2.6-1.4-3.5-2.6
				c-2-2.7-2-6.3,0-9c0.4-0.6,1-1.2,1.6-1.6c0.6-0.4,1.2-0.7,1.9-1c1.3-0.5,2.6-0.6,4-0.3c1.2,0.2,2.2,0.7,3.2,1.4
				c1.4,1,2.3,2.5,2.7,4.2c0.1,0.3,0.1,0.5,0.1,0.8c0,0.2,0,0.4,0,0.6C304.9,206.5,304.9,206.7,304.9,206.9z"/>
			
				<ellipse transform="matrix(0.9567 -0.291 0.291 0.9567 -47.3292 95.5208)" class="st74" cx="297.4" cy="206.9" rx="3.4" ry="3.4"/>
			<path class="st91" d="M299.8,206.9c0,1.3-1,2.3-2.3,2.3s-2.3-1-2.3-2.3c0-1.3,1-2.3,2.3-2.3h0
				C298.7,204.5,299.8,205.6,299.8,206.9C299.8,206.8,299.8,206.9,299.8,206.9z"/>
			<path class="st74" d="M299.8,206.9c0,0,0-0.2-0.1-0.6c-0.1-0.5-0.5-0.9-0.9-1.2c-1-0.7-2.4-0.5-3.1,0.4c-0.7,1-0.5,2.4,0.4,3.1
				c0.8,0.6,1.9,0.6,2.7,0c0.4-0.3,0.7-0.7,0.9-1.2C299.8,207.1,299.8,206.9,299.8,206.9c0,0.2,0,0.4,0,0.6c-0.1,0.5-0.4,1-0.8,1.4
				c-0.7,0.5-1.5,0.7-2.3,0.4c-1.3-0.5-2-1.9-1.5-3.2c0.2-0.7,0.8-1.3,1.5-1.5c0.8-0.3,1.7-0.1,2.3,0.4c0.4,0.3,0.7,0.8,0.8,1.4
				C299.8,206.5,299.8,206.7,299.8,206.9z"/>
			<path class="st74" d="M308,196.8c0,0.1-4.9,0.2-10.8,0.2s-10.8-0.1-10.8-0.2c0-0.1,4.8-0.2,10.8-0.2
				C303.2,196.7,308,196.7,308,196.8z"/>
			<path class="st75" d="M286.3,191.5c0,0.1-0.3,0.1-0.7,0.2c-1.1,0.3-1.9,1.4-1.9,2.5c0,0.4,0.1,0.7,0,0.7c-0.1,0-0.2-0.2-0.2-0.7
				c-0.1-1.3,0.7-2.5,2-2.7C286,191.3,286.3,191.4,286.3,191.5z"/>
			<path class="st75" d="M294,201.2c0,0-0.5,0.3-1.2,0.9c-1.8,1.6-2.5,4.1-1.9,6.4c0.2,0.9,0.5,1.4,0.5,1.4s-0.1-0.1-0.2-0.3
				c-0.2-0.3-0.3-0.7-0.4-1c-0.8-2.4,0-5,2-6.6c0.3-0.2,0.6-0.4,0.9-0.6C293.9,201.3,294,201.2,294,201.2z"/>
			<path class="st74" d="M308,217c-0.1,0-0.2-4.6-0.2-10.2s0.1-10.2,0.2-10.2c0.1,0,0.1,4.6,0.1,10.2C308.1,212.5,308.1,217,308,217
				z"/>
			<path class="st74" d="M279.5,244.6v-2.4c0-1,0.8-1.8,1.8-1.8l0,0v-0.8c0-1.9,1.5-3.4,3.4-3.4h24.1c1.9,0,3.3,2.1,3.3,4h0.9
				c1,0,1.8,0.2,1.8,1.2v3.1L279.5,244.6z"/>
			<path class="st91" d="M313,240.3c0,0.1-7.1,0.2-15.9,0.2s-15.9-0.1-15.9-0.2s7.1-0.2,15.9-0.2C305.9,240.2,313,240.2,313,240.3z"
				/>
			<polygon class="st91" points="286.5,212.5 280.5,211.5 280.5,201.8 286.5,200.7 			"/>
			<path class="st91" d="M280,212.7L280,212.7c-0.5,0-0.8-0.3-0.8-0.7v-10.4c0-0.4,0.3-0.7,0.7-0.7h0.1c0.4,0,0.7,0.3,0.7,0.7v10.4
				C280.8,212.3,280.4,212.7,280,212.7z"/>
			<path class="st91" d="M279.5,209.5h-0.4c-1.2,0-2.2-1-2.2-2.2v-0.2c0-1.2,1-2.2,2.2-2.2h0.4l0,0V209.5L279.5,209.5z"/>
			<path class="st74" d="M280.8,201.8c0.1,1.6,0.2,3.2,0.1,4.8c0,1.6,0,3.2-0.1,4.8c-0.2-1.6-0.2-3.2-0.2-4.8
				C280.6,205,280.7,203.4,280.8,201.8z"/>
			<path class="st74" d="M279.3,201.7c0.2,1.6,0.2,3.2,0.2,4.8c0.1,1.6,0,3.2-0.2,4.8c-0.1-1.6-0.2-3.2-0.1-4.8
				C279.1,205,279.2,203.3,279.3,201.7z"/>
			<path class="st74" d="M286.5,223c-0.1,0-0.2-5.8-0.2-12.9c0-7.1,0.1-12.9,0.2-12.9c0.1,0,0.2,5.8,0.2,12.9
				C286.7,217.3,286.6,223,286.5,223z"/>
		</g>
		<g id="freepik--Plants--inject-1">
			<linearGradient id="SVGID_2_" gradientUnits="userSpaceOnUse" x1="25.2466" y1="222.9055" x2="45.8736" y2="222.9055">
				<stop  offset="0" style="stop-color:#FFDB00"/>
				<stop  offset="1" style="stop-color:#FFAE08"/>
			</linearGradient>
			<path style="fill:url(#SVGID_2_);" d="M42.5,233.6c0.4-1.6-0.7-3.3-1.9-4.5c-1.2-1.2-2.7-2.3-3.3-3.8c-1-2.6,0.4-5.9-1.4-8
				c-1-1.3-2.9-1.7-3.8-3c-0.4-0.7-0.7-1.6-0.8-2.4c-1-4.3-3.1-8.2-6.1-11.3c-0.2,3.8,0.6,7.6,2.4,10.9c0.7,1.3,1.6,2.7,1.8,4.1
				c0.4,2.4-1,4.9-0.4,7.3c0.7,2.7,3.8,4.6,3.9,7.4c0.1,2.4-1.9,4.5-1.8,6.8c0.1,1,0.5,2,1.1,2.8c1.8,3.1,4.5,5.2,8.6,5.1l5,0.2
				L42.5,233.6z"/>
			<g class="st78">
				<path d="M42.5,233.6c0.4-1.6-0.7-3.3-1.9-4.5c-1.2-1.2-2.7-2.3-3.3-3.8c-1-2.6,0.4-5.9-1.4-8c-1-1.3-2.9-1.7-3.8-3
					c-0.4-0.7-0.7-1.6-0.8-2.4c-1-4.3-3.1-8.2-6.1-11.3c-0.2,3.8,0.6,7.6,2.4,10.9c0.7,1.3,1.6,2.7,1.8,4.1c0.4,2.4-1,4.9-0.4,7.3
					c0.7,2.7,3.8,4.6,3.9,7.4c0.1,2.4-1.9,4.5-1.8,6.8c0.1,1,0.5,2,1.1,2.8c1.8,3.1,4.5,5.2,8.6,5.1l5,0.2L42.5,233.6z"/>
			</g>
			<path class="st17" d="M46.9,245.4c0.5,0.1,0.9,0.1,1.4,0c0.6-0.1,1.1-0.2,1.6-0.4c0.7-0.3,1.4-0.6,2-1.1c0.4-0.3,0.7-0.7,0.8-1.1
				c0.2-0.5,0.2-1,0.2-1.5c0-0.5,0-1.1,0.1-1.6c0.1-0.6,0.3-1.1,0.6-1.6c0.6-1,1.6-2,1.9-3.4c0.3-1.4,0.1-2.9-0.1-4.4
				c-0.2-1.5-0.5-3.1,0.1-4.7s1.6-3,2.2-4.7s0.3-3.7,0.4-5.6c0-1,0.3-1.9,0.7-2.8c0.4-0.9,1-1.7,1.4-2.7c0.9-1.9,1-4,1.3-6.1
				c0.1-1.1,0.2-2.1,0.4-3.2c0.1-1.1,0.3-2.2,0.6-3.2c0.3-1.1,0.7-2.1,1.2-3.1c0.2-0.5,0.4-1.1,0.6-1.6c0.1-0.6,0.1-1.1,0.2-1.7
				c0.1-1.2,0-2.3-0.1-3.5c-0.1-1.2-0.3-2.3-0.5-3.5c0-0.1,0-0.1,0-0.2l0-0.2l-0.2,0.1c-1.1,0.5-2,1.3-2.7,2.3
				c-0.7,0.9-1.3,2-1.7,3.1c-0.8,2.2-1.1,4.4-1.6,6.6c-0.3,2.1-1,4.2-2.1,6.1c-0.6,0.9-1.2,1.7-1.8,2.6c-0.6,0.8-1,1.8-1.2,2.9
				c-0.3,2.1,0.9,4,0.6,5.9c-0.1,0.9-0.4,1.8-0.9,2.6c-0.5,0.8-1,1.5-1.5,2.3c-0.5,0.7-1,1.5-1.3,2.3c-0.4,0.8-0.6,1.6-0.6,2.5
				c-0.1,1.7,0.1,3.3,0,4.8c-0.1,1.4-0.6,2.8-1.2,4.1c-0.6,1.2-1.3,2.3-1.8,3.4c-0.3,0.6-0.6,1.1-0.8,1.6c-0.2,0.5-0.3,1-0.4,1.6
				c-0.1,0.9-0.2,1.9,0,2.9c0.1,1.3,0.6,2.6,1.4,3.6c0.1,0.2,0.3,0.3,0.4,0.4c0.1,0.1,0.2,0.2,0.3,0.3
				C46.8,245.3,46.9,245.4,46.9,245.4c-0.4-0.3-0.7-0.6-1-1c-0.8-1.1-1.2-2.3-1.4-3.6c-0.1-0.9-0.1-1.9,0.1-2.8
				c0.1-0.5,0.2-1,0.4-1.5c0.2-0.5,0.5-1,0.8-1.6c0.6-1.1,1.3-2.2,1.9-3.4c0.7-1.3,1.1-2.7,1.3-4.2c0.1-1.5-0.1-3.2,0-4.8
				c0.1-0.8,0.3-1.7,0.6-2.4c0.4-0.8,0.8-1.6,1.3-2.3c0.5-0.7,1.1-1.5,1.5-2.3c0.5-0.8,0.9-1.7,1-2.7c0.2-2-0.9-3.9-0.6-5.8
				c0.2-1,0.6-1.9,1.2-2.7c0.6-0.9,1.2-1.7,1.8-2.6c1.1-1.9,1.8-4,2.1-6.2c0.4-2.2,0.7-4.4,1.6-6.5c0.4-1.1,0.9-2.1,1.6-3
				c0.7-0.9,1.6-1.7,2.6-2.2l-0.2-0.1v0.2c0.1,1.2,0.3,2.3,0.5,3.5c0.1,1.1,0.2,2.3,0.1,3.4c0,0.6-0.1,1.1-0.2,1.7
				c-0.1,0.5-0.3,1.1-0.6,1.6c-0.5,1-0.9,2.1-1.2,3.1c-0.3,1.1-0.5,2.2-0.6,3.3c-0.1,1.1-0.2,2.1-0.4,3.2c-0.2,2.1-0.4,4.2-1.3,6
				c-0.4,0.9-1,1.7-1.4,2.7c-0.4,0.9-0.6,1.9-0.7,2.9c-0.1,1.9,0.1,3.8-0.4,5.5c-0.5,1.7-1.6,3.1-2.2,4.7c-0.6,1.6-0.3,3.3-0.1,4.8
				c0.2,1.5,0.5,3,0.2,4.3s-1.2,2.3-1.8,3.4c-0.3,0.5-0.5,1.1-0.6,1.7c-0.1,0.5-0.1,1.1-0.1,1.6c0,0.5-0.1,1-0.2,1.5
				c-0.2,0.4-0.4,0.8-0.8,1.1c-0.6,0.5-1.3,0.9-2,1.1c-0.5,0.2-1.1,0.3-1.6,0.4c-0.3,0.1-0.7,0.1-1,0.1
				C47,245.4,46.9,245.4,46.9,245.4z"/>
			<path class="st17" d="M62.7,186.3c0,0,0,0.1-0.1,0.2c0,0.1-0.1,0.3-0.1,0.5c-0.1,0.4-0.2,1-0.4,1.7c-0.2,0.7-0.7,1.6-1,2.6
				c-0.5,1.2-0.9,2.4-1.2,3.6c-0.4,1.3-0.7,2.8-1.1,4.4c-0.3,1.7-0.8,3.3-1.6,4.9c-0.4,0.8-0.9,1.6-1.2,2.5
				c-0.4,0.9-0.6,1.9-0.7,2.9c-0.3,2-0.6,4.1-1.1,6.1c-1,4.1-2,8-2.8,11.6c-0.9,3.6-1.7,6.7-2.4,9.5c-0.7,2.7-1.2,4.8-1.6,6.4
				c-0.2,0.7-0.3,1.3-0.4,1.7c0,0.2-0.1,0.3-0.1,0.5c0,0.1,0,0.1,0,0.2c0,0,0-0.1,0.1-0.2c0-0.1,0.1-0.3,0.1-0.4
				c0.1-0.4,0.3-1,0.5-1.7l1.7-6.3c0.7-2.7,1.5-5.9,2.4-9.4l2.9-11.6c0.5-2,0.8-4,1.1-6.1c0.1-1,0.3-1.9,0.7-2.8
				c0.4-0.9,0.8-1.7,1.2-2.5c0.8-1.6,1.3-3.2,1.6-5c0.3-1.6,0.7-3.1,1-4.4c0.4-1.3,0.8-2.5,1.1-3.6s0.8-1.9,1-2.7
				c0.2-0.8,0.3-1.4,0.4-1.8c0-0.2,0.1-0.3,0.1-0.5C62.7,186.5,62.7,186.4,62.7,186.3z"/>
			<linearGradient id="SVGID_3_" gradientUnits="userSpaceOnUse" x1="29.6713" y1="206.4652" x2="51.2283" y2="206.4652">
				<stop  offset="0" style="stop-color:#FFDB00"/>
				<stop  offset="1" style="stop-color:#FFAE08"/>
			</linearGradient>
			<path class="st19" d="M47.8,245.4c3.3-1.9,4.2-7.9,2.8-11.4c-1.4-3.6-3.8-6.8-4.1-10.6c-0.3-2.9,0.7-5.9,0-8.8
				c-0.9-3.8-4.7-6.8-4.6-10.8c0-2.2,1.3-4.3,1.2-6.5c-0.1-2.7-2.2-4.9-3.5-7.2c-2-3.7-2.1-8-2.8-12.1c-0.7-4.1-2.2-8.5-5.9-10.5
				c-0.6,3.5-1.5,5.9-1.2,10.6c0.1,1.7,2.1,4.9,2.3,8.7c0.2,2.2,0.3,4.5,0.4,6.7s0.3,4.4,1,6.4c0.6,1.6,1.5,3,2,4.6
				c0.8,3-0.3,6.3,0.4,9.3c0.6,2.6,2.4,4.8,2.7,7.4c0.5,3.7-1.9,7.5-0.6,11c0.6,1.7,2,3.1,2.4,4.9c0.3,1.4,0,2.9,0.3,4.3
				c0.5,2.3,4.8,4,7.1,3.9"/>
			<path class="st17" d="M31.8,170.9c0,0.1,0,0.1,0,0.2c0,0.1,0,0.3,0.1,0.6c0.1,0.5,0.2,1.2,0.3,2.2c0.2,1,0.7,2,1.1,3.3
				c0.4,1.3,0.8,2.8,1.2,4.5c0.4,1.7,0.7,3.5,1,5.5c0.3,2.2,0.8,4.3,1.7,6.3c0.5,1,1,2.1,1.4,3.2c0.4,1.1,0.6,2.3,0.7,3.5
				c0.2,2.6,0.5,5.1,1,7.6c1,5.2,2,10.1,2.8,14.6c0.9,4.5,1.7,8.5,2.4,11.9c0.7,3.4,1.3,6.1,1.7,8c0.2,0.9,0.4,1.7,0.5,2.2
				c0.1,0.2,0.1,0.4,0.1,0.6c0,0.1,0,0.1,0.1,0.2c0-0.1,0-0.1,0-0.2c0-0.1-0.1-0.3-0.1-0.6c-0.1-0.5-0.2-1.2-0.4-2.2
				c-0.4-1.9-0.9-4.6-1.6-8c-0.7-3.4-1.5-7.4-2.4-11.9c-0.9-4.5-1.8-9.4-2.8-14.6c-0.5-2.5-0.8-5.1-1-7.6c-0.1-1.2-0.3-2.4-0.7-3.6
				c-0.4-1.1-0.9-2.2-1.4-3.2c-1-2-1.3-4.2-1.7-6.2c-0.3-2-0.7-3.9-1.1-5.6c-0.3-1.5-0.8-3-1.2-4.5c-0.4-1.3-0.9-2.4-1.1-3.3
				c-0.2-1-0.3-1.7-0.4-2.2l-0.1-0.6C31.9,171,31.8,171,31.8,170.9z"/>
			<linearGradient id="SVGID_4_" gradientUnits="userSpaceOnUse" x1="320.6643" y1="218.667" x2="328.9927" y2="218.667">
				<stop  offset="0" style="stop-color:#FFDB00"/>
				<stop  offset="1" style="stop-color:#FFAE08"/>
			</linearGradient>
			<path class="st20" d="M325,209.3c1.6,0.8,2.9,2.2,3.4,3.9c0.6,1.7,0.7,3.5,0.5,5.3c-0.4,3.4-2.3,6.9-4.4,9.6
				c-2.9-2.5-3.5-6.9-3.7-9.1C320.4,215.4,322,208.8,325,209.3"/>
			<linearGradient id="SVGID_5_" gradientUnits="userSpaceOnUse" x1="327.6846" y1="230.3069" x2="337.9833" y2="230.3069">
				<stop  offset="0" style="stop-color:#FFDB00"/>
				<stop  offset="1" style="stop-color:#FFAE08"/>
			</linearGradient>
			<path class="st21" d="M327.8,233.7c-0.4-2,0.3-4,1.8-5.4c1.5-1.3,3.6-1.9,5.6-1.7c0.9,0.1,1.9,0.3,2.4,1.1c0.5,0.8,0.5,1.7,0,2.5
				c-0.4,0.7-1.1,1.4-1.8,1.8C333.4,233.5,330.7,234.6,327.8,233.7"/>
			<path class="st17" d="M324.1,244.2c0-0.2,0-0.5,0.1-0.7l0.3-1.9c0.3-2.1,1-4.2,2-6.1c1-1.9,2.5-3.5,4.4-4.6
				c0.6-0.3,1.2-0.6,1.8-0.8c0.2-0.1,0.3-0.1,0.5-0.1c0.1,0,0.2,0,0.2,0c-0.8,0.3-1.6,0.7-2.4,1.1c-1.8,1.2-3.2,2.7-4.2,4.6
				c-1,1.9-1.6,3.9-2,6c-0.2,0.8-0.3,1.4-0.4,1.9C324.3,243.8,324.2,244,324.1,244.2z"/>
			<path class="st17" d="M324.2,214.4c0,0.1,0,0.2,0,0.3c0,0.2,0,0.5,0.1,0.9c0,0.8,0.1,1.9,0.1,3.2c0.1,2.7,0.2,6.5,0.1,10.7
				c0,4.2-0.1,8-0.2,10.7c-0.1,1.4-0.1,2.5-0.2,3.2c0,0.4,0,0.7-0.1,0.9c0,0.1,0,0.2,0,0.3c0-0.1,0-0.2,0-0.3c0-0.2,0-0.5,0-0.9
				c0-0.8,0.1-1.9,0.1-3.2c0.1-2.7,0.1-6.5,0.2-10.7c0-4.2,0-8-0.1-10.7c0-1.3,0-2.5-0.1-3.3c0-0.4,0-0.7,0-0.9
				C324.2,214.6,324.2,214.5,324.2,214.4z"/>
			<linearGradient id="SVGID_6_" gradientUnits="userSpaceOnUse" x1="312.0079" y1="230.8589" x2="322.812" y2="230.8589">
				<stop  offset="0" style="stop-color:#FFDB00"/>
				<stop  offset="1" style="stop-color:#FFAE08"/>
			</linearGradient>
			<path class="st22" d="M322.8,235.8c-0.7-4.2-3.4-7.8-7.2-9.7c-1-0.5-2.2-0.8-3-0.1c-0.8,0.7-0.6,2-0.2,3c1.7,4.2,5.8,7,10.4,7"/>
			<path class="st17" d="M316,229.4c0.2,0.1,0.4,0.2,0.6,0.3c0.2,0.1,0.5,0.2,0.7,0.4c0.3,0.2,0.6,0.4,0.9,0.6
				c0.4,0.2,0.7,0.5,1,0.8c0.4,0.3,0.7,0.6,1.1,1c1.6,1.6,2.7,3.5,3.4,5.6c0.1,0.5,0.3,0.9,0.3,1.4c0.1,0.4,0.1,0.8,0.2,1.2
				c0,0.3,0,0.7,0,1c0,0.3,0,0.5,0,0.8c0,0.2,0,0.4-0.1,0.7c-0.1,0,0-1-0.1-2.5c0-0.4-0.1-0.8-0.2-1.2c-0.1-0.5-0.2-0.9-0.4-1.4
				c-0.3-1-0.8-2-1.3-3c-0.6-0.9-1.2-1.8-2-2.6c-0.3-0.3-0.7-0.7-1-1c-0.3-0.3-0.6-0.5-1-0.8C316.9,229.8,316,229.4,316,229.4z"/>
		</g>
		<path class="st97" d="M207.8,29.1l17.4,19.7l3.5,14.5l8.4,10l3.9-2.8l0.4-6.2l-7.3-23.1c0,0-20-17.2-23.6-18.3L207.8,29.1z"/>
		<path class="st97" d="M205.2,18.3c0,0,6.1,2.8,7.2,5.1c0.7,1.5,1.2,3,1.5,4.6l-5.9,1.4l-8.4-3.5c0,0-7.3-6.3-7.2-6.6
			c0.2-0.4,0.6-1.6,1.5-1c1,0.6,5.5,3.5,5.5,3.5s-6-5.8-5.4-6.1c0.6-0.4,1.7-0.5,2.9,0.6c1.2,1,2.4,2,3.8,2.9c0,0-4.3-5.3-3.6-5.5
			c0.6-0.3,4.8,3.3,6,4.4c1.2,1.1-2.8-4.2-1.8-4.4c1-0.2,1.7,1.4,2.5,2.5C204.5,16.9,204.9,17.6,205.2,18.3z"/>
		<path class="st76" d="M207.2,27.6c-0.2-0.1-0.5-0.1-0.7-0.2l-1.9-0.7l-1.3-0.5c-0.5-0.2-1-0.4-1.5-0.7c-0.5-0.3-1-0.7-1.3-1.2
			c-0.4-0.6-0.5-1.3-0.3-1.9l0-0.1l0.1,0l0.1,0c1.3,0.4,2.3,1.3,3.4,1.4c0.5,0.1,1,0,1.5-0.2c0.4-0.2,0.9-0.3,1.4-0.3
			c0.7,0,1.4,0.1,2,0.3c0.2,0.1,0.3,0.2,0.5,0.3c0.1,0.1,0.2,0.1,0.2,0.1c0,0-0.2-0.1-0.7-0.3c-0.6-0.2-1.3-0.3-2-0.2
			c-0.5,0-0.9,0.2-1.3,0.3c-0.5,0.2-1.1,0.3-1.6,0.3c-1.2-0.2-2.2-1.1-3.4-1.4h-0.1l0.2-0.1c-0.2,0.6-0.1,1.2,0.3,1.7
			c0.3,0.5,0.7,0.9,1.2,1.1c0.5,0.3,0.9,0.5,1.4,0.7l1.3,0.5l1.9,0.8C206.7,27.4,206.9,27.5,207.2,27.6z"/>
		<path class="st97" d="M184.1,39.3c0,0.9,5.1,26,5.1,26l10,9.6c0,0,1.7,14-1.3,15.1c0,0-19.3-21.4-19.7-23s-3.1-19,0-29.2
			L184.1,39.3z"/>
		<path class="st97" d="M186.9,28.1c0,0-6.1,2.8-7.2,5.1c-0.7,1.5-1.2,3-1.5,4.6l5.9,1.4l8.4-3.5c0,0,7.4-6.3,7.2-6.6
			c-0.2-0.4-0.6-1.6-1.5-1c-1,0.6-5.5,3.5-5.5,3.5s6-5.8,5.4-6.1s-1.8-0.5-2.9,0.6c-1.2,1-2.4,2-3.8,2.9c0,0,4.3-5.3,3.6-5.5
			c-0.6-0.3-4.8,3.3-6,4.4c-1.2,1.1,2.8-4.2,1.8-4.4c-1-0.2-1.7,1.4-2.5,2.5C187.7,26.7,187.2,27.4,186.9,28.1z"/>
		<path class="st76" d="M185,37.4c0.2-0.1,0.4-0.2,0.7-0.3l1.9-0.8l1.3-0.6c0.5-0.2,1-0.4,1.4-0.7c0.5-0.3,0.9-0.7,1.2-1.2
			c0.3-0.5,0.4-1.1,0.3-1.7l0.2,0.1h-0.1c-1.2,0.3-2.2,1.2-3.4,1.4c-0.6,0-1.1,0-1.6-0.3c-0.4-0.2-0.9-0.3-1.3-0.3
			c-0.7-0.1-1.3,0-2,0.2c-0.5,0.2-0.7,0.3-0.7,0.3c0,0,0,0,0.2-0.1c0.2-0.1,0.3-0.2,0.5-0.3c0.6-0.3,1.3-0.4,2-0.3
			c0.5,0,0.9,0.1,1.4,0.3c0.5,0.2,1,0.3,1.5,0.2c1.1-0.1,2.1-1,3.4-1.4h0.1l0.1,0l0,0.1c0.2,0.7,0.1,1.4-0.3,1.9
			c-0.3,0.5-0.8,0.9-1.3,1.2c-0.5,0.3-1,0.5-1.5,0.7l-1.3,0.5l-1.9,0.7C185.4,37.3,185.2,37.3,185,37.4z"/>
		<path class="st17" d="M255.2,233.8c0,0,0.8,3.7,0.8,4.3l2.7,2.1l6.6-1.8l0.3-5.5L255.2,233.8z"/>
		<path class="st60" d="M265.4,237.7l0,0.6c0,0,10.2,3.4,10.5,5.3l-19.9,1.1L256,238C259,239.3,262.5,239.1,265.4,237.7z"/>
		<g class="st73">
			<path class="st11" d="M256.1,244.6v-1.6l19-0.5c0,0,0.9,0.3,0.8,1L256.1,244.6z"/>
		</g>
		<path class="st17" d="M265.5,238.3c0,0.1-0.5,0.2-0.9,0.5s-0.7,0.8-0.8,0.7c-0.1,0,0-0.6,0.6-1
			C264.9,238.1,265.5,238.2,265.5,238.3z"/>
		<path class="st17" d="M267.7,239c0,0.1-0.4,0.3-0.7,0.7c-0.3,0.4-0.4,0.9-0.5,0.9c-0.1,0-0.2-0.6,0.2-1.1
			C267.1,239,267.7,238.9,267.7,239z"/>
		<path class="st17" d="M269,241.5c-0.1,0-0.3-0.5,0-1c0.2-0.5,0.7-0.8,0.7-0.7s-0.2,0.4-0.4,0.8C269.1,241,269.1,241.4,269,241.5z"
			/>
		<path class="st17" d="M225.4,233.8c0,0-0.8,3.7-0.8,4.3l-2.7,2.1l-6.6-1.8L215,233L225.4,233.8z"/>
		<path class="st60" d="M215.2,237.6l0,0.6c0,0-10.2,3.4-10.5,5.3l19.9,1.1l0.1-6.6C221.6,239.2,218.1,239.1,215.2,237.6z"/>
		<g class="st73">
			<path class="st11" d="M224.5,244.6V243l-19-0.5c0,0-0.9,0.3-0.8,1L224.5,244.6z"/>
		</g>
		<path class="st17" d="M215.1,238.2c0,0.1,0.5,0.2,0.9,0.5s0.7,0.8,0.8,0.7c0.1,0,0-0.6-0.6-1C215.6,238.1,215.1,238.2,215.1,238.2
			z"/>
		<path class="st17" d="M212.9,239c0,0.1,0.4,0.3,0.7,0.7c0.3,0.4,0.4,0.9,0.5,0.9s0.2-0.6-0.2-1.1C213.5,239,212.9,238.9,212.9,239
			z"/>
		<path class="st17" d="M211.6,241.4c0.1,0,0.3-0.5,0-1s-0.7-0.8-0.7-0.7s0.2,0.4,0.4,0.8C211.5,241,211.5,241.4,211.6,241.4z"/>
		<path class="st97" d="M211.7,47.6l-0.6,0.1c-5.7,1.1-9.6,6.3-8.9,12c0.6,5.3,1.3,11.2,1.8,14c1.2,5.8,7.2,5.6,7.2,5.6l0.2,0.9
			c0.7,4.2,4.7,7,8.9,6.3c0.1,0,0.1,0,0.2,0l0,0c4-0.8,6.7-4.6,6.1-8.7l-3.1-20.2C222.7,51.4,217.8,46.8,211.7,47.6z"/>
		<path class="st17" d="M205.2,63.4c0.1,0.5,0.5,0.8,1,0.7c0.4,0,0.8-0.4,0.7-0.9c0,0,0,0,0,0c-0.1-0.5-0.5-0.8-1-0.7
			C205.5,62.5,205.1,62.9,205.2,63.4C205.2,63.4,205.2,63.4,205.2,63.4z"/>
		<path class="st17" d="M203.8,62c0.1,0.1,0.7-0.5,1.6-0.7c0.9-0.2,1.6,0.2,1.7,0c0.1-0.1-0.1-0.2-0.4-0.4c-0.4-0.2-0.9-0.2-1.4-0.2
			c-0.5,0.1-0.9,0.3-1.2,0.7C203.8,61.8,203.7,62,203.8,62z"/>
		<path class="st17" d="M213.5,62c0.1,0.4,0.5,0.8,1,0.7c0.4,0,0.8-0.4,0.7-0.9c0,0,0,0,0,0c-0.1-0.4-0.5-0.8-1-0.7
			C213.8,61.1,213.4,61.5,213.5,62C213.5,61.9,213.5,62,213.5,62z"/>
		<path class="st17" d="M212.7,60.1c0.1,0.1,0.7-0.4,1.6-0.5c0.9-0.1,1.6,0.3,1.7,0.2c0.1-0.1-0.1-0.2-0.4-0.4
			c-0.4-0.2-0.9-0.3-1.4-0.3c-0.5,0-0.9,0.2-1.3,0.5C212.7,59.8,212.6,60.1,212.7,60.1z"/>
		<path class="st17" d="M210.8,68.1c-0.5-0.1-1-0.1-1.5,0c-0.2,0-0.5,0-0.5-0.1c-0.1-0.2-0.1-0.5,0-0.7l0.4-1.9
			c0.5-2.7,0.8-4.8,0.7-4.8c-0.1,0-0.6,2.1-1,4.8l-0.3,1.9c-0.1,0.3-0.1,0.6,0.1,0.9c0.1,0.2,0.3,0.2,0.4,0.3c0.1,0,0.3,0,0.4,0
			C209.8,68.3,210.3,68.2,210.8,68.1z"/>
		<path class="st17" d="M213.5,68.2c-0.2,0,0,1-0.7,1.8c-0.7,0.9-1.8,0.9-1.7,1.1c0,0.1,0.3,0.1,0.7,0.1c0.6-0.1,1.1-0.4,1.5-0.8
			c0.4-0.4,0.5-1,0.5-1.5C213.7,68.4,213.6,68.2,213.5,68.2z"/>
		<path class="st74" d="M212.2,57.1c0.1,0.2,1,0,2.1,0c1.1,0,2,0.2,2.1,0c0.1-0.1-0.1-0.3-0.5-0.6c-0.5-0.2-1-0.4-1.6-0.4
			c-0.6,0-1.1,0.1-1.6,0.4C212.3,56.8,212.2,57,212.2,57.1z"/>
		<path class="st74" d="M203.8,59.7c0.2,0.2,0.8-0.2,1.5-0.3c0.7-0.2,1.4-0.1,1.5-0.4c0-0.1-0.1-0.3-0.4-0.4
			c-0.4-0.2-0.9-0.2-1.3-0.1c-0.4,0.1-0.8,0.3-1.1,0.6C203.7,59.4,203.7,59.6,203.8,59.7z"/>
		<path class="st74" d="M218.4,49.1c0.3-0.2,1.7,0.9,2,1.1c1.6,1.1,2.5,3.3,2.9,5.2c0.5,1.8,0.7,3.6,0.7,5.4c0,0.2,0,1.2,0,1.2
			c-0.2,0.3-0.2,2.4-0.6,2.5c-0.5,0.1-1.3-3-1.5-3.3c-0.2-0.7-0.4-1.4-0.7-2.1c-0.5-1.1-0.8-2.2-1.1-3.4c-0.3-1.6-1.2-4-1.5-5.6
			C218.5,49.8,218.1,49.2,218.4,49.1z"/>
		<path class="st74" d="M220,51.3c-2.1-2.1-4.9-3.3-7.9-3.4c-0.7-0.1-1.3,0.1-1.9,0.4c-0.3,0.3-0.6,0.5-0.8,0.9
			c-0.3,0.3-0.6,0.5-1,0.6c-0.4,0-0.8-0.3-0.8-0.7c4.4-2.7,10-1.7,13.3,2.2"/>
		<path class="st75" d="M218.8,51.2l3.7,2c0.2,0.6,0.4,1.2,0.6,1.9l-3.7-1.6L218.8,51.2z"/>
		<path class="st97" d="M223,62c0.1-0.1,3.8-1.9,4.4,2.1c0.6,4-3.5,3.8-3.6,3.7C223.8,67.7,223,62,223,62z"/>
		<path class="st76" d="M224.8,66.1c0,0,0.1,0,0.2,0.1c0.2,0,0.4,0,0.5-0.1c0.5-0.4,0.7-1.1,0.6-1.7c0-0.3-0.2-0.7-0.4-1
			c-0.1-0.2-0.3-0.4-0.6-0.5c-0.2,0-0.3,0.1-0.4,0.3c0,0.1,0,0.2,0,0.2s-0.1-0.1-0.1-0.2c0-0.1,0.1-0.2,0.1-0.3
			c0.1-0.1,0.2-0.2,0.4-0.2c0.3,0,0.7,0.2,0.8,0.5c0.2,0.3,0.4,0.7,0.4,1.1c0.1,0.8-0.2,1.6-0.7,1.9c-0.2,0.1-0.4,0.1-0.7,0
			C224.8,66.2,224.8,66.1,224.8,66.1z"/>
		<path class="st76" d="M211.1,79.3c2.8-0.5,5.4-1.8,7.4-3.7c0,0-1,4.7-7.1,5.3L211.1,79.3z"/>
		<path class="st76" d="M207.5,64.1c-0.8,0.8-2,1-3,0.6c0-0.1,0.7,0.1,1.5-0.1S207.5,64.1,207.5,64.1z"/>
		<path class="st76" d="M207.2,61c0,0-0.2-0.1-0.4-0.2c-0.3-0.1-0.7-0.2-1-0.2c-0.4,0-0.7,0.1-1.1,0.2c-0.3,0.1-0.5,0.1-0.5,0.1
			c0,0,0.1-0.1,0.4-0.2c0.4-0.2,0.7-0.2,1.1-0.3c0.4,0,0.8,0.1,1.1,0.3C207.1,60.8,207.2,61,207.2,61z"/>
		<path class="st76" d="M218.5,59.2c0.1,0-0.2,0.5-0.8,0.7c-0.6,0.3-1.1,0.2-1.1,0.1c0-0.1,0.5-0.1,0.9-0.4
			C218.1,59.5,218.4,59.2,218.5,59.2z"/>
		<path class="st76" d="M218.9,60.4c0.1,0.1-0.3,0.4-0.9,0.4c-0.6,0-1-0.2-0.9-0.3s0.4,0.1,0.9,0C218.5,60.5,218.9,60.4,218.9,60.4z
			"/>
		<path class="st76" d="M216.1,59.3c-0.5-0.2-1.1-0.3-1.7-0.3c-0.6,0.1-1.2,0.3-1.7,0.6c0,0,0.1-0.2,0.4-0.4
			c0.4-0.3,0.8-0.4,1.3-0.5c0.5,0,0.9,0.1,1.3,0.3C216,59.1,216.1,59.2,216.1,59.3z"/>
		<path class="st76" d="M215.8,62.5c0.1,0-0.3,0.5-1,0.8c-0.4,0.2-0.8,0.2-1.2,0.1c0-0.1,0.5-0.1,1.1-0.3
			C215.3,62.8,215.7,62.4,215.8,62.5z"/>
		<path class="st76" d="M214.3,68.2c-0.1,0.1-0.3-0.1-0.6-0.1c-0.3,0-0.6,0.1-0.6,0.1c-0.1-0.1,0.2-0.4,0.7-0.3
			C214.1,67.8,214.3,68.1,214.3,68.2z"/>
		<path class="st76" d="M215,67.8c-0.1,0-0.3-0.1-0.5-0.2s-0.5-0.1-0.6-0.2c0-0.1,0.3-0.2,0.6-0.1C214.9,67.5,215,67.8,215,67.8z"/>
		<path class="st76" d="M212.7,53.9c-0.2,0.3-0.5,0.4-0.9,0.5c-0.6,0.2-1.4,0.1-2.2,0.4c-0.4,0.2-0.7,0.4-1.1,0.6
			c-0.3,0.2-0.7,0.3-1,0.3c-0.2,0-0.5-0.1-0.7-0.2c-0.1-0.1-0.2-0.2-0.2-0.2c0.3,0.2,0.6,0.2,0.9,0.2c0.3,0,0.6-0.2,0.9-0.3
			c0.4-0.2,0.7-0.4,1.1-0.6c0.4-0.1,0.9-0.2,1.3-0.2c0.4,0,0.7,0,1-0.1C212.1,54.1,212.4,54,212.7,53.9z"/>
		<path class="st76" d="M211.2,53.2c-0.7,0.2-1.5,0.4-2.2,0.5c-0.7,0.2-1.5,0.3-2.3,0.3c0.7-0.3,1.5-0.5,2.2-0.6
			C209.7,53.2,210.4,53.1,211.2,53.2z"/>
		<path class="st76" d="M210.2,52.3c0,0.1-0.4,0.1-0.9,0.1c-0.5,0-0.9,0.1-0.9,0c0-0.1,0.4-0.2,0.9-0.3S210.3,52.3,210.2,52.3z"/>
		<path class="st76" d="M203.8,62.8c0,0.1-0.2,0.3-0.6,0.2c-0.4-0.1-0.6-0.4-0.5-0.4c0.1,0,0.3,0.1,0.6,0.2
			C203.5,62.7,203.8,62.7,203.8,62.8z"/>
		<path class="st76" d="M203.5,63.3c0,0.1-0.1,0.2-0.2,0.4c-0.1,0.2-0.2,0.4-0.2,0.4c-0.1,0-0.2-0.2,0-0.5
			C203.2,63.3,203.5,63.2,203.5,63.3z"/>
		<linearGradient id="SVGID_7_" gradientUnits="userSpaceOnUse" x1="212.8162" y1="184.4399" x2="266.0713" y2="184.4399">
			<stop  offset="0" style="stop-color:#FFDB00"/>
			<stop  offset="1" style="stop-color:#FFAE08"/>
		</linearGradient>
		<path class="st23" d="M212.8,144.8c0,0,0.8,20.2,0.9,23.1c0.1,2.9,1.2,26.2,0.9,28.4c-0.3,2.2-2.1,32.5,0.1,36.3l0.1,3.2l10.5,0.5
			c0,0,4.3-38.1,5.1-40.6s6.6-32.4,6.6-32.4s7.4,27.3,8,29c0.6,1.7,5.3,29.2,7.3,35.1c1.2,3.4,2,7,2.3,10.6l11.5-1.5
			c0,0-1.3-44.5-2.9-51.8s-9.2-48.1-9.2-48.1l-3.1-6.1L212.8,144.8z"/>
		<g class="st78">
			<path d="M251.5,132.1c-0.1-0.1-0.3-0.1-0.4,0c-12.8,3.3-25.5,7.1-38,11.4l-0.3,1.5c1.3,0.3,2.6,0.4,3.9,0.2
				c8.3-0.7,16.4-2.6,24.2-5.5c4-1.5,8-3.3,10.6-6.7C251.7,132.8,251.9,132.3,251.5,132.1z"/>
		</g>
		<path class="st17" d="M234.5,145.2c0-0.1,0-0.2,0-0.3c0-0.2,0-0.5,0.1-0.7c0.2-0.9,0.8-1.7,1.5-2.2c0.3-0.2,0.6-0.3,0.9-0.3
			c0.2,0,0.4,0.1,0.5,0.2c0.1,0.2,0.2,0.3,0.2,0.5c0,0.8-0.5,1.5-1.1,1.9c-0.7,0.4-1.5,0.7-2.3,0.6c-0.8,0-1.7-0.1-2.5-0.3l-2.5-0.4
			c-0.4,0-0.8-0.1-1.2-0.3c-0.2-0.1-0.4-0.4-0.3-0.6c0-0.2,0.2-0.4,0.4-0.5c0.4-0.1,0.8-0.1,1.1,0c0.4,0.1,0.7,0.1,1,0.2
			c0.6,0.1,1.2,0.3,1.8,0.5c0.9,0.3,1.7,0.6,2.5,1c0.3,0.1,0.5,0.3,0.6,0.4s0.2,0.1,0.2,0.2c0,0-0.3-0.1-0.9-0.4
			c-0.8-0.4-1.6-0.7-2.5-0.9c-0.6-0.2-1.2-0.3-1.8-0.5c-0.3-0.1-0.7-0.1-1-0.2c-0.3-0.1-0.7-0.1-1,0c-0.2,0-0.3,0.2-0.2,0.4
			c0,0.1,0.1,0.2,0.2,0.2c0.4,0.2,0.7,0.3,1.1,0.3l2.5,0.4c0.8,0.2,1.6,0.2,2.5,0.3c0.8,0,1.5-0.2,2.2-0.6c0.6-0.4,1-1,1-1.6
			c0-0.3-0.1-0.5-0.4-0.6c0,0,0,0,0,0c-0.3,0-0.5,0.1-0.8,0.3c-0.7,0.5-1.3,1.2-1.5,2.1C234.6,144.6,234.5,144.9,234.5,145.2z"/>
		<path class="st17" d="M217.3,235.1c0-0.1,0-0.2,0-0.2c0-0.2,0-0.4,0-0.7c0-0.6,0-1.5,0.1-2.6c0.1-2.3,0.1-5.6,0.2-9.7
			c0.2-8.2,0.3-19.5,0-32c-0.1-6.3-0.3-12.2-0.6-17.6c-0.3-5.4-0.6-10.3-0.9-14.4c-0.1-1-0.2-2-0.2-2.9c-0.1-0.9-0.2-1.8-0.2-2.6
			c-0.2-1.6-0.3-3-0.4-4.2l-0.3-2.6c0-0.3-0.1-0.5-0.1-0.7c0-0.1,0-0.2,0-0.2c0,0.1,0,0.2,0,0.2c0,0.2,0.1,0.4,0.1,0.7
			c0.1,0.6,0.2,1.5,0.3,2.6c0.1,1.1,0.3,2.5,0.5,4.2c0.1,0.8,0.2,1.7,0.3,2.6s0.2,1.9,0.3,2.9c0.4,4.1,0.7,9,0.9,14.4
			s0.4,11.4,0.6,17.6c0.2,12.5,0.1,23.8-0.1,32c-0.1,4.1-0.2,7.4-0.3,9.7c-0.1,1.1-0.1,2-0.1,2.6c0,0.3,0,0.5,0,0.7
			C217.4,235,217.4,235,217.3,235.1z"/>
		<path class="st17" d="M218.8,234.9c0-0.1,0-0.2,0-0.2c0-0.2,0-0.4,0-0.7c0-0.6,0-1.5,0.1-2.6c0.1-2.3,0.2-5.6,0.2-9.7
			c0.2-8.2,0.3-19.5,0-32c-0.1-6.2-0.3-12.2-0.6-17.6s-0.6-10.3-0.9-14.4l-0.2-2.9c-0.1-0.9-0.2-1.8-0.2-2.6c-0.1-1.6-0.3-3-0.4-4.2
			c-0.1-1.1-0.2-2-0.3-2.6l-0.1-0.7c0-0.1,0-0.2,0-0.2c0,0.1,0,0.2,0,0.2c0,0.2,0.1,0.4,0.1,0.7l0.3,2.6c0.2,1.1,0.3,2.5,0.5,4.1
			l0.3,2.6c0.1,0.9,0.2,1.9,0.2,2.9c0.4,4.1,0.7,9,0.9,14.4s0.5,11.4,0.6,17.6c0.2,12.5,0.1,23.8-0.1,32c-0.1,4.1-0.2,7.4-0.3,9.7
			c-0.1,1.1-0.1,2-0.1,2.6c0,0.3,0,0.5,0,0.7C218.8,234.8,218.8,234.9,218.8,234.9z"/>
		<path class="st17" d="M246,149c0.1,0-2.4,4.3-5.6,9.5c-3.1,5.2-5.8,9.3-5.8,9.3s2.4-4.3,5.6-9.5S245.9,149,246,149z"/>
		<path class="st17" d="M264.7,236.8c0,0,0-0.1,0-0.3c0-0.2,0-0.5-0.1-0.8c-0.1-0.7-0.1-1.7-0.2-3.1c-0.2-2.7-0.4-6.5-0.8-11.2
			c-0.3-4.7-0.7-10.4-1.1-16.7c-0.2-3.1-0.4-6.4-0.6-9.8c-0.1-1.7-0.1-3.5-0.3-5.2s-0.5-3.5-0.8-5.3c-1.1-7.2-2.4-14-3.5-20.1
			c-1.1-6.2-2.2-11.7-3-16.4c-0.4-2.3-0.8-4.5-1.2-6.3c-0.2-0.9-0.3-1.8-0.5-2.6c-0.2-0.7-0.4-1.4-0.7-2.1c-0.4-0.9-0.9-1.8-1.5-2.7
			c-0.2-0.3-0.4-0.5-0.5-0.7c-0.1-0.1-0.2-0.2-0.2-0.2s0.1,0.1,0.2,0.2s0.3,0.4,0.5,0.6c0.6,0.8,1.1,1.7,1.5,2.7
			c0.3,0.7,0.6,1.4,0.8,2.1c0.2,0.8,0.3,1.7,0.6,2.6c0.4,1.9,0.8,4,1.2,6.3c0.9,4.7,2,10.2,3.1,16.4c1.1,6.2,2.4,13,3.5,20.1
			c0.3,1.8,0.6,3.6,0.8,5.3c0.2,1.8,0.2,3.5,0.3,5.2c0.2,3.4,0.4,6.7,0.6,9.8c0.4,6.3,0.7,11.9,1,16.7c0.3,4.7,0.5,8.6,0.7,11.2
			c0.1,1.3,0.1,2.3,0.2,3.1c0,0.3,0,0.6,0,0.8C264.8,236.7,264.7,236.8,264.7,236.8z"/>
		<path class="st17" d="M263.6,237c0,0,0-0.1,0-0.3c0-0.2,0-0.5-0.1-0.8c-0.1-0.7-0.1-1.7-0.2-3c-0.2-2.7-0.4-6.5-0.8-11.2
			c-0.3-4.7-0.7-10.4-1-16.6c-0.2-3.1-0.4-6.4-0.6-9.8c-0.1-1.7-0.1-3.4-0.3-5.2c-0.2-1.7-0.5-3.5-0.8-5.3
			c-1.1-7.1-2.4-13.9-3.5-20.1c-1.1-6.2-2.2-11.7-3-16.4c-0.4-2.3-0.8-4.5-1.2-6.3c-0.2-0.9-0.3-1.8-0.5-2.6
			c-0.1-0.7-0.4-1.4-0.6-2.1c-0.4-0.9-0.9-1.8-1.4-2.7c-0.2-0.3-0.3-0.5-0.4-0.7c-0.1-0.1-0.1-0.1-0.2-0.2c0,0,0.1,0.1,0.2,0.2
			c0.1,0.1,0.3,0.3,0.5,0.6c0.6,0.8,1.1,1.7,1.5,2.7c0.3,0.7,0.5,1.4,0.7,2.1c0.2,0.8,0.3,1.7,0.5,2.6c0.4,1.8,0.8,4,1.2,6.3
			c0.9,4.7,1.9,10.2,3.1,16.4c1.1,6.2,2.4,12.9,3.5,20c0.3,1.8,0.6,3.6,0.7,5.3s0.2,3.5,0.3,5.2c0.2,3.4,0.4,6.7,0.6,9.8
			c0.4,6.2,0.7,11.9,1,16.6c0.3,4.7,0.5,8.5,0.7,11.2c0.1,1.3,0.1,2.3,0.2,3c0,0.3,0,0.6,0,0.8C263.7,236.9,263.6,237,263.6,237z"/>
		<g class="st78">
			<path d="M244.6,151c-2.2,3.8-4.8,8.4-7.6,12.7C241.8,161.4,244.8,156.4,244.6,151z"/>
		</g>
		<path class="st60" d="M198.6,74.3c0,0,1,11.4-4.9,12l8.9,10.8l5.8,19.5c0,0,0.1,28.6,1,28.7s23.6-4.7,28.1-6s13.8-6.8,13.8-6.8
			v-1.8l5.3-0.9l-7.9-23.2L243,78.9l-1.6-14.7c0,0-2.9,3.5-6.5,2.1c-6-2.4-6.7-3.5-6.7-3.5l-1.5,10l-0.6-2.1l-3.6,5.8
			c0,0-3.9,4.8-3.3,8.5l-7-3.6l-2.5-1.4l-0.7,1.4L198.6,74.3z"/>
		<path class="st17" d="M203.5,94c0-0.5,0.1-1.1,0.2-1.6c0.2-1,0.3-2.3,0.5-3.8s0.2-2.8,0.2-3.8c0-0.5,0-1.1,0.1-1.6
			c0.1,0.5,0.1,1.1,0.1,1.6c0,1.3,0,2.6-0.1,3.9c-0.1,1.3-0.3,2.6-0.6,3.8C203.8,93,203.7,93.5,203.5,94z"/>
		<path class="st17" d="M229.6,84.2c-0.1-0.6-0.2-1.1-0.2-1.7c-0.3-2.8-1-5.5-2.1-8c-0.4-1-0.7-1.6-0.7-1.6c0,0,0.1,0.1,0.3,0.4
			c0.2,0.3,0.4,0.6,0.6,1.1c0.6,1.3,1.1,2.6,1.4,4c0.3,1.4,0.6,2.7,0.7,4.1c0,0.6,0,1,0,1.3C229.7,83.9,229.7,84,229.6,84.2z"/>
		<path class="st17" d="M234.5,91.9c-0.1-0.3-0.1-0.5-0.1-0.8c-0.1-0.5-0.2-1.3-0.3-2.2c-0.9-4.9-2.7-9.6-5.4-13.7
			c-0.5-0.8-1-1.4-1.3-1.9c-0.2-0.2-0.3-0.5-0.5-0.7c0.2,0.2,0.4,0.4,0.6,0.6c0.3,0.4,0.8,1,1.4,1.8c0.6,0.9,1.2,1.9,1.8,2.9
			c1.3,2.4,2.3,5,3,7.7c0.3,1.1,0.5,2.2,0.7,3.3c0.1,0.9,0.2,1.7,0.2,2.3C234.6,91.4,234.6,91.6,234.5,91.9z"/>
		<path class="st17" d="M242.1,82.8c-0.2,0-0.4-0.1-0.6-0.2c-0.3-0.2-0.8-0.4-1.4-0.7c-3.1-1.7-5.9-3.8-8.3-6.4
			c-0.5-0.5-0.8-0.9-1-1.2c-0.1-0.1-0.2-0.3-0.3-0.5c0,0,0.6,0.6,1.5,1.5c2.5,2.5,5.2,4.6,8.3,6.4C241.4,82.4,242.1,82.8,242.1,82.8
			z"/>
		<path class="st17" d="M221.6,91.8c-0.3-0.3-0.6-0.6-0.8-1c-0.5-0.8-1-1.7-1.3-2.7c-0.3-0.9-0.5-1.9-0.6-2.9c0-0.4,0-0.8,0.1-1.2
			c0.1,1.4,0.3,2.7,0.7,4C220.3,89.4,220.9,90.6,221.6,91.8z"/>
		<path class="st17" d="M226.7,72.8c0,0.2,0,0.3-0.1,0.5c-0.1,0.4-0.2,0.8-0.3,1.4c-0.3,1.3-0.6,3-1.1,5l-0.2,0.9l-0.1-0.9
			c0-0.6-0.3-1.1-0.7-1.5c-0.4-0.4-1-0.7-1.6-0.9l0.2-0.1c-0.2,1-0.3,2-0.3,3c0,1.8,0.4,3.6,1,5.2c0.3,0.7,0.6,1.4,1,2.1
			c0.2,0.3,0.4,0.6,0.6,0.9c0.1,0.2,0.1,0.4,0.1,0.6c0,0.2-0.2,0.3-0.3,0.4c-0.8,0.6-1.7,1.1-2.6,1.5c-0.6,0.3-0.9,0.6-0.9,0.6
			c0.1-0.1,0.1-0.1,0.2-0.2c0.2-0.1,0.4-0.3,0.7-0.5c0.9-0.5,1.7-1,2.5-1.6c0.2-0.2,0.3-0.5,0.2-0.7c-0.1-0.3-0.4-0.6-0.6-0.9
			c-0.4-0.7-0.7-1.4-1-2.1c-0.6-1.7-1-3.5-1-5.3c0-1,0.1-2.1,0.3-3.1l0-0.1l0.1,0c0.6,0.2,1.2,0.5,1.7,1c0.4,0.5,0.7,1,0.7,1.7H225
			c0.5-2,0.9-3.8,1.2-5c0.1-0.6,0.3-1,0.4-1.4C226.6,73.1,226.7,73,226.7,72.8z"/>
		<path class="st17" d="M234.1,114.4c-0.1,0.1-0.2,0.1-0.3,0.2c-0.3,0.1-0.6,0.3-0.9,0.3c-1.2,0.3-2.4,0.5-3.6,0.4
			c-1.8-0.1-3.6-0.5-5.3-1.3c-2-1-3.8-2.4-5.3-4.1c-1.5-1.7-2.7-3.6-3.7-5.6c-0.8-1.6-1.5-3.3-2.1-5c-0.5-1.5-0.9-2.7-1.1-3.5
			c-0.1-0.4-0.2-0.7-0.3-1c0-0.1-0.1-0.2-0.1-0.3c0.1,0.1,0.1,0.2,0.1,0.3c0.1,0.2,0.2,0.6,0.3,0.9c0.3,0.8,0.7,2,1.2,3.4
			c0.6,1.7,1.3,3.4,2.1,5c1,2,2.2,3.8,3.7,5.5c1.4,1.7,3.2,3,5.2,4c1.6,0.8,3.4,1.3,5.2,1.4c1.2,0.1,2.4,0,3.6-0.3
			C233.6,114.6,234.1,114.4,234.1,114.4z"/>
		<path class="st17" d="M239.4,123.8c0,0,0,0.1-0.1,0.2c-0.1,0.2-0.2,0.4-0.3,0.7c-0.4,0.8-0.9,1.5-1.5,2.2
			c-4.1,4.6-11.1,5.3-16,1.6c-0.7-0.5-1.4-1.1-1.9-1.8c-0.2-0.2-0.3-0.4-0.4-0.6c-0.1-0.1-0.1-0.2-0.1-0.2c0.8,0.9,1.6,1.7,2.6,2.5
			c1.1,0.8,2.2,1.3,3.5,1.7c3.1,1,6.4,0.7,9.2-0.9c1.1-0.6,2.2-1.4,3.1-2.4C238.2,125.8,238.9,124.8,239.4,123.8z"/>
		<path class="st17" d="M218.9,84.9c-0.3,0.1-0.5,0.3-0.7,0.4c-0.6,0.4-1,1.1-1.1,1.9v0.2l-0.2-0.1c-0.8-0.5-1.7-1.1-2.6-1.8
			c-1.4-1-2.7-2-3.6-2.8c-0.5-0.4-1-0.8-1.4-1.3c0.5,0.3,1,0.7,1.5,1.1c0.9,0.7,2.2,1.7,3.6,2.7c0.9,0.7,1.8,1.3,2.6,1.8l-0.2,0.1
			c0.1-0.8,0.6-1.5,1.3-2c0.2-0.1,0.4-0.2,0.6-0.3C218.8,84.9,218.8,84.9,218.9,84.9z"/>
		<linearGradient id="SVGID_8_" gradientUnits="userSpaceOnUse" x1="228.3279" y1="68.5138" x2="229.6658" y2="68.5138">
			<stop  offset="0" style="stop-color:#FFDB00"/>
			<stop  offset="1" style="stop-color:#FFAE08"/>
		</linearGradient>
		<path class="st25" d="M229.7,63.8c0,0.5,0,0.9-0.1,1.4c-0.1,1-0.3,2.1-0.5,3.3s-0.3,2.4-0.5,3.3c0,0.5-0.1,0.9-0.2,1.4
			c0-0.5,0-0.9,0-1.4c0.1-0.9,0.2-2.1,0.4-3.4c0.2-1.3,0.4-2.5,0.6-3.3C229.4,64.7,229.5,64.2,229.7,63.8z"/>
		<linearGradient id="SVGID_9_" gradientUnits="userSpaceOnUse" x1="229.1818" y1="68.8897" x2="230.5233" y2="68.8897">
			<stop  offset="0" style="stop-color:#FFDB00"/>
			<stop  offset="1" style="stop-color:#FFAE08"/>
		</linearGradient>
		<path class="st26" d="M230.5,64.1c0,0.5-0.1,0.9-0.1,1.4c-0.1,1-0.3,2.1-0.5,3.3c-0.2,1.2-0.3,2.4-0.5,3.4c0,0.5-0.1,0.9-0.2,1.4
			c0-0.5,0-0.9,0-1.4c0.1-0.9,0.2-2.1,0.4-3.4s0.4-2.5,0.6-3.3C230.2,65,230.4,64.6,230.5,64.1z"/>
		<linearGradient id="SVGID_10_" gradientUnits="userSpaceOnUse" x1="199.2797" y1="79.5084" x2="208.6846" y2="79.5084">
			<stop  offset="0" style="stop-color:#FFDB00"/>
			<stop  offset="1" style="stop-color:#FFAE08"/>
		</linearGradient>
		<path class="st27" d="M208.7,83.1c-0.5-0.3-1-0.6-1.4-1c-0.9-0.6-2.1-1.5-3.3-2.5c-1.3-1-2.5-1.9-3.3-2.6
			c-0.5-0.3-0.9-0.7-1.3-1.1c0.5,0.3,1,0.6,1.4,1c0.9,0.6,2.1,1.5,3.3,2.5c1.3,1,2.5,1.9,3.3,2.6C207.8,82.3,208.3,82.7,208.7,83.1z
			"/>
		<linearGradient id="SVGID_11_" gradientUnits="userSpaceOnUse" x1="198.9401" y1="78.3641" x2="208.4229" y2="78.3641">
			<stop  offset="0" style="stop-color:#FFDB00"/>
			<stop  offset="1" style="stop-color:#FFAE08"/>
		</linearGradient>
		<path class="st31" d="M208.4,81.8c-0.5-0.3-0.9-0.7-1.3-1.1c-0.8-0.7-1.9-1.6-3.2-2.6c-1.3-0.9-2.6-1.7-3.5-2.3
			c-0.5-0.3-1-0.6-1.5-0.9c0.5,0.2,1.1,0.4,1.6,0.7c1.2,0.7,2.4,1.4,3.5,2.2c1.1,0.8,2.2,1.7,3.2,2.7
			C207.7,80.9,208.1,81.3,208.4,81.8z"/>
		<linearGradient id="SVGID_12_" gradientUnits="userSpaceOnUse" x1="231.1916" y1="94.0917" x2="236.1705" y2="94.0917">
			<stop  offset="0" style="stop-color:#FFDB00"/>
			<stop  offset="1" style="stop-color:#FFAE08"/>
		</linearGradient>
		<path class="st33" d="M236.1,92.7c0,0,0.1,0,0.1,0.2c0,0.2-0.1,0.4-0.3,0.5c-0.3,0.1-0.6,0.1-0.9-0.1c-0.3-0.1-0.6-0.3-0.9-0.2
			l0.1-0.2c0.1,0.2,0.3,0.4,0.3,0.6c0.1,0.3,0,0.6-0.3,0.7c-0.1,0.1-0.3,0.1-0.4,0c-0.1-0.1-0.2-0.1-0.3-0.2
			c-0.1-0.2-0.3-0.3-0.4-0.5c-0.1-0.1-0.2-0.1-0.3,0c0,0.1,0,0.3,0.1,0.4c0.1,0.2,0.2,0.3,0.2,0.5c0.1,0.2-0.1,0.5-0.3,0.6
			c-0.2,0.1-0.4,0-0.6-0.1c-0.1-0.1-0.2-0.2-0.3-0.3c-0.2-0.2-0.4-0.4-0.6-0.3l0.1-0.1c0,0.5,0,0.9,0,1.4c-0.1-0.4-0.2-0.9-0.2-1.4
			V94h0.1c0.3,0,0.6,0.1,0.7,0.4c0.1,0.1,0.2,0.2,0.3,0.3c0.1,0.1,0.2,0.1,0.3,0.1c0.2-0.1,0.1-0.4-0.1-0.7
			c-0.1-0.2-0.1-0.4-0.1-0.6c0.1-0.1,0.2-0.2,0.3-0.2c0.1,0,0.2,0,0.4,0.1c0.2,0.1,0.4,0.3,0.5,0.5c0.1,0.2,0.3,0.2,0.4,0.2
			c0.1-0.1,0.2-0.2,0.1-0.4c-0.1-0.2-0.1-0.3-0.3-0.4l-0.1-0.1l0.2-0.1c0.2-0.1,0.4-0.1,0.6,0c0.2,0.1,0.3,0.1,0.5,0.2
			c0.2,0.1,0.5,0.2,0.7,0.1c0.1-0.1,0.2-0.2,0.3-0.4C236.1,92.8,236.1,92.7,236.1,92.7z"/>
		<linearGradient id="SVGID_13_" gradientUnits="userSpaceOnUse" x1="232.4054" y1="95.1787" x2="237.9743" y2="95.1787">
			<stop  offset="0" style="stop-color:#FFDB00"/>
			<stop  offset="1" style="stop-color:#FFAE08"/>
		</linearGradient>
		<path class="st34" d="M238,93.6c0,0.1-1.2,0.7-2.8,1.6c-1.5,0.9-2.7,1.7-2.8,1.6c0.8-0.7,1.7-1.4,2.6-1.9
			C235.9,94.3,236.9,93.9,238,93.6z"/>
		<path class="st105" d="M176.5,233.4c0,0,1.1,3.8,1.2,4.5l3,2l6.7-2.5l-0.2-5.7L176.5,233.4z"/>
		<linearGradient id="SVGID_14_" gradientUnits="userSpaceOnUse" x1="177.6637" y1="240.5319" x2="198.9679" y2="240.5319">
			<stop  offset="0" style="stop-color:#FFDB00"/>
			<stop  offset="1" style="stop-color:#FFAE08"/>
		</linearGradient>
		<path class="st35" d="M187.5,236.5l0.1,0.6c0,0,11,2.6,11.4,4.6l-20.6,3l-0.7-6.9C181,238.7,184.6,238.3,187.5,236.5z"/>
		<g class="st73">
			<path class="st11" d="M178.4,244.6l-0.2-1.7l19.8-2.2c0,0,1,0.3,1,0.9L178.4,244.6z"/>
		</g>
		<path class="st17" d="M187.7,237.1c0,0.1-0.5,0.2-0.9,0.6c-0.4,0.4-0.7,0.9-0.8,0.8c-0.1,0,0-0.6,0.5-1.1S187.7,237,187.7,237.1z"
			/>
		<path class="st17" d="M190,237.7c0,0.1-0.4,0.3-0.7,0.8c-0.3,0.5-0.3,0.9-0.4,0.9c-0.1,0-0.2-0.6,0.1-1.1
			C189.4,237.8,189.9,237.6,190,237.7z"/>
		<path class="st17" d="M191.6,240.1c-0.1,0-0.3-0.4-0.1-1c0.2-0.6,0.6-0.9,0.7-0.8c0.1,0.1-0.2,0.4-0.3,0.9
			S191.7,240.1,191.6,240.1z"/>
		<path class="st105" d="M136.7,233.6c0,0-1.2,3.7-1.3,4.4l-3.1,1.8l-6.6-2.7l0.4-5.7L136.7,233.6z"/>
		<linearGradient id="SVGID_15_" gradientUnits="userSpaceOnUse" x1="114.0739" y1="240.5264" x2="135.4728" y2="240.5264">
			<stop  offset="0" style="stop-color:#FFDB00"/>
			<stop  offset="1" style="stop-color:#FFAE08"/>
		</linearGradient>
		<path class="st37" d="M125.7,236.3l-0.1,0.6c0,0-11.1,2.3-11.5,4.2l20.5,3.6l0.9-6.9C132.1,238.8,128.6,238.2,125.7,236.3z"/>
		<g class="st73">
			<path class="st11" d="M134.6,244.7l0.2-1.7l-19.7-2.8c0,0-1,0.2-1,0.9L134.6,244.7z"/>
		</g>
		<path class="st17" d="M125.5,237c0,0.1,0.5,0.2,0.9,0.6c0.4,0.4,0.6,0.9,0.7,0.9s0.1-0.6-0.5-1.1S125.5,236.9,125.5,237z"/>
		<path class="st17" d="M123.2,237.5c0,0.1,0.4,0.3,0.6,0.8s0.3,0.9,0.4,1s0.3-0.6-0.1-1.1C123.8,237.6,123.2,237.4,123.2,237.5z"/>
		<path class="st17" d="M121.5,239.8c0.1,0,0.3-0.4,0.2-1s-0.6-0.9-0.7-0.8c-0.1,0.1,0.2,0.4,0.3,0.9
			C121.5,239.4,121.4,239.8,121.5,239.8z"/>
		<path class="st17" d="M136.4,166c-0.7,2.8-1.2,5.6-1.4,8.4c-0.2,3.8-2.3,18.7-2.3,18.7s-5.1,10.3-7.2,21.6
			c-1.2,6.5-1.9,13-2.1,19.6l14.8,2.4l11.9-43.1l10.6-27.6c0,0,0.9,22.7,5.9,32.2l7.5,37l14.6-2.2c0,0-5.9-36.9-5.7-45.1
			s6.7-19.3-4.7-45.9L157,159.5L136.4,166z"/>
		<path class="st60" d="M178.5,193.3c0,0.1-0.1,0.3-0.2,0.4c-0.2,0.4-0.4,0.7-0.6,1c-1.6,2.2-4.3,3.5-7,3.2c-0.4,0-0.8-0.1-1.2-0.2
			c-0.3-0.1-0.4-0.1-0.4-0.2s0.6,0.1,1.6,0.2c2.7,0.1,5.2-1,6.9-3.1C178.2,193.9,178.4,193.3,178.5,193.3z"/>
		<path class="st60" d="M143,202.1c0,0-0.1,0.1-0.3,0.2c-0.3,0.1-0.6,0.2-1,0.2c-1.1,0-2.1-0.4-3-1.1c-0.8-0.7-1.5-1.5-2-2.5
			c-0.2-0.4-0.4-0.8-0.6-1.2c0.3,0.3,0.5,0.7,0.8,1.1c0.6,0.9,1.2,1.7,2,2.4c0.8,0.7,1.8,1,2.8,1.1
			C142.1,202.2,142.6,202.2,143,202.1z"/>
		<path class="st60" d="M176.5,234.8c0-0.1-0.1-0.2-0.1-0.3c0-0.2-0.1-0.6-0.1-0.9c-0.1-0.8-0.3-2-0.5-3.4
			c-0.5-2.9-1.2-6.9-2.2-11.3l-2.4-11.2c-0.3-1.4-0.6-2.6-0.7-3.4c-0.1-0.4-0.1-0.7-0.2-0.9c0-0.1,0-0.2,0-0.3
			c0,0.1,0.1,0.2,0.1,0.3c0.1,0.2,0.1,0.6,0.2,0.9c0.2,0.8,0.5,2,0.8,3.4c0.7,2.9,1.6,6.8,2.5,11.2c0.9,4.4,1.7,8.4,2.1,11.3
			c0.2,1.5,0.4,2.6,0.4,3.5c0,0.4,0.1,0.7,0.1,0.9C176.5,234.6,176.5,234.7,176.5,234.8z"/>
		<path class="st60" d="M165.3,163.2c-0.2,0.2-0.4,0.3-0.6,0.5c-0.4,0.3-1,0.7-1.8,1.2c-2,1.3-4,2.4-6.2,3.3c-2.1,1-4.3,1.8-6.6,2.4
			c-0.9,0.2-1.6,0.4-2.1,0.6c-0.3,0.1-0.5,0.1-0.8,0.1c0.2-0.1,0.5-0.2,0.7-0.2c0.5-0.1,1.2-0.4,2-0.6c2.2-0.7,4.4-1.5,6.5-2.5
			c2.1-1,4.2-2.1,6.2-3.3c0.8-0.5,1.4-0.9,1.8-1.1C164.9,163.5,165.1,163.3,165.3,163.2z"/>
		<path class="st60" d="M169.9,165.7c-0.4,0.2-0.9,0.3-1.3,0.3c-1.1,0.2-2.2,0.3-3.2,0.4c-1.3,0.1-2.4,0.1-3.3,0
			c-0.5,0-0.9,0-1.3-0.1c0.4-0.1,0.9-0.1,1.3-0.1c0.8,0,2-0.1,3.2-0.1c1.3-0.1,2.4-0.2,3.2-0.3C169,165.7,169.5,165.7,169.9,165.7z"
			/>
		<path class="st105" d="M109.8,180.8l4.5,37.2l6.6-1.4c0,0,0.5-19.1,0.8-22.9s0-12.8,0-12.8H109.8z"/>
		<path class="st105" d="M114.3,217.8c0,0-0.3,14.9-0.2,15c0.2,0.1,0.8,0,0.8,0s0.1,1.6,0.6,1.7c0.5,0.1,0.9,0.3,1.2-0.8
			c0.3-1.1,0.6-2.4,0.8-3.7s1.7-5.6,1.7-5.6c0.3,0.5,0.5,1,0.6,1.5c0.1,0.9,0.4,3.8,2.1,4.1l0.9-0.4c0,0-1.1-2.3-0.9-3.5
			s0.5-4.1,0-5.7c-0.5-1.6-0.9-4-0.9-4L114.3,217.8z"/>
		<path class="st97" d="M115.3,224.5c0.1,0.4,0.2,0.8,0.2,1.2c0.1,1,0.1,2,0.1,3c0,1-0.1,2-0.3,3c0,0.4-0.1,0.8-0.3,1.2
			c-0.1,0,0.2-1.9,0.2-4.2C115.3,226.4,115.2,224.5,115.3,224.5z"/>
		<linearGradient id="SVGID_16_" gradientUnits="userSpaceOnUse" x1="107.2172" y1="145.3235" x2="179.3857" y2="145.3235">
			<stop  offset="0" style="stop-color:#FFDB00"/>
			<stop  offset="1" style="stop-color:#FFAE08"/>
		</linearGradient>
		<path class="st40" d="M108.6,153.6c0,0-1.6,4.9-1.4,8.2s1.4,19,1.4,19h15.2l-1.4-13.6c0,0,8,2,13.5-2.2c0,0,0.1,1.4,2.2,2.2
			c2.1,0.9,13.1,1.7,18.2,0c5.1-1.7,16.4-9.9,19.2-15.2c1.6-3.1,2.8-6.4,3.8-9.7c0.4-1.4-0.3-3-1.7-3.5c-5.7-2.3-20.2-7.9-28.2-9.3
			c-10.1-1.7-13.4-5-13.4-5l5.9-4.2c-1.8-2.3-3.9-4.4-6.2-6.2c-3.8-3-5-4.8-6.7-4.1c-1.7,0.7-11.5,8.2-12.9,12.7l-3.1,14
			L108.6,153.6z"/>
		<path class="st17" d="M146.1,145.5c0,0.1,0,0.2,0,0.3c0,0.2,0,0.5,0,0.9c0,1.1-0.1,2.2-0.3,3.2c-0.6,3.5-2.1,6.9-4.3,9.8
			c-2.5,3.3-5.6,5.8-8.1,6.9c-1,0.4-2,0.8-3.1,0.9c-0.3,0.1-0.6,0.1-0.9,0.1c-0.1,0-0.2,0-0.3,0c0,0,0.4-0.1,1.2-0.2
			c1.1-0.2,2.1-0.6,3-1c2.5-1.1,5.5-3.5,8-6.8c2.2-2.8,3.6-6.1,4.3-9.6c0.2-1.1,0.3-2.1,0.4-3.2C146,145.9,146.1,145.5,146.1,145.5z
			"/>
		<path class="st17" d="M168.9,146.1c0,0.1,0,0.2,0,0.3c0,0.2,0,0.5,0,0.8c0,0.4-0.1,0.8-0.1,1.2c-0.1,0.5-0.1,1-0.3,1.5
			c-0.1,0.6-0.3,1.2-0.4,1.8c-0.2,0.7-0.4,1.4-0.7,2.1c-1.2,3.1-2.9,6-5.2,8.5c-0.6,0.6-1,1.1-1.5,1.5c-0.5,0.4-1,0.9-1.5,1.2
			c-0.5,0.4-0.9,0.7-1.3,0.9c-0.3,0.2-0.7,0.4-1,0.6l-0.7,0.4c-0.2,0.1-0.2,0.1-0.2,0.1c0,0,0.1-0.1,0.2-0.2l0.6-0.4
			c0.3-0.2,0.7-0.4,1-0.7c0.4-0.3,0.8-0.6,1.2-0.9s0.9-0.8,1.4-1.2c0.5-0.5,1-1,1.5-1.5c2.2-2.5,4-5.3,5.2-8.4
			c0.3-0.7,0.5-1.4,0.7-2.1c0.2-0.6,0.3-1.2,0.5-1.8c0.2-0.6,0.2-1.1,0.3-1.5c0.1-0.5,0.1-0.8,0.2-1.2c0-0.3,0.1-0.6,0.1-0.7
			C168.9,146.2,168.9,146.1,168.9,146.1z"/>
		<path class="st17" d="M164.5,148.2c0.1,0.6,0.1,1.2,0,1.8c-0.1,2.9-0.5,5.8-1.3,8.6c-0.1,0.6-0.3,1.2-0.6,1.7
			c0.1-0.6,0.2-1.2,0.4-1.8c0.3-1.1,0.6-2.6,0.8-4.3s0.4-3.2,0.5-4.3C164.3,149.4,164.4,148.8,164.5,148.2z"/>
		<g class="st78">
			<path d="M147,149.6c-0.1-0.2-0.1-0.5-0.4-0.6c-0.4-0.2-0.7,0.4-0.8,0.9c-1.2,6.1-5.1,11.6-9.9,15.1l0,0c3.6-0.5,6.8-2.4,9-5.3
				C146.9,156.7,147.7,153.1,147,149.6z"/>
		</g>
		<path class="st17" d="M135.9,124.5c-0.1,0.2-0.3,0.3-0.5,0.4c-0.2,0.1-0.3,0.3-0.6,0.5l-0.8,0.6c-1.6,1.1-3.4,1.7-5.3,2
			c-1.9,0.2-3.8,0-5.6-0.6c-0.3-0.1-0.6-0.2-0.9-0.4c-0.3-0.1-0.5-0.2-0.7-0.3c-0.2-0.1-0.4-0.2-0.6-0.3c0-0.1,0.8,0.3,2.2,0.8
			c1.8,0.6,3.7,0.8,5.5,0.5c1.8-0.3,3.6-0.9,5.2-1.9l0.8-0.5c0.2-0.2,0.4-0.3,0.6-0.4C135.6,124.7,135.7,124.6,135.9,124.5z"/>
		<path class="st11" d="M136.4,140c0-0.7-0.1-1.4-0.1-2.1c-0.2-0.7-0.4-1.3-0.7-2C136.6,137.1,136.9,138.6,136.4,140L136.4,140z"/>
		<path class="st11" d="M137.1,140c0-0.7-0.1-1.4-0.1-2.1c-0.2-0.7-0.4-1.3-0.7-2C137.3,137,137.6,138.6,137.1,140L137.1,140z"/>
		<path class="st17" d="M121.7,165.2c-0.2-0.1-0.3-0.2-0.5-0.3l-1.3-1c-1.4-1.1-2.9-2.1-4.5-3c-1.6-0.8-3.3-1.4-5.1-1.6
			c-0.7,0-1.5,0-2.2,0c0.2-0.1,0.4-0.1,0.6-0.1c0.5-0.1,1.1-0.1,1.6-0.1c1.8,0.1,3.6,0.6,5.2,1.5c1.6,0.9,3.1,1.9,4.5,3.1
			c0.5,0.4,0.9,0.8,1.2,1.1C121.5,165,121.7,165.2,121.7,165.2z"/>
		<g class="st78">
			<path d="M162.9,159.6c2.9-5,3.2-11.2,0.7-16.4c1.7,5.1,0.6,10.7-0.5,16"/>
		</g>
		<g class="st78">
			<path d="M168.6,141c1.5,10.1-3.2,20.2-12,25.6l-0.3,0.2c3.7-2,7.3-4.5,9.7-8c1.5-2.3,2.5-4.8,3.1-7.5
				C170,147.9,170.3,144.1,168.6,141z"/>
		</g>
		<path class="st11" d="M108.3,159.4c0,0.3,0.1,0.6,0.1,0.8c0,0.6,0.1,1.4,0.1,2.3c0.1,1.9,0.3,4.6,0.6,7.6c0.3,2.9,0.6,5.6,0.9,7.5
			c0.1,0.9,0.2,1.7,0.3,2.3c0.1,0.3,0.1,0.6,0.1,0.8c-0.1-0.3-0.2-0.5-0.2-0.8c-0.1-0.6-0.3-1.3-0.4-2.3c-0.3-1.9-0.7-4.6-1-7.5
			c-0.3-3-0.4-5.6-0.5-7.6c0-1,0-1.8,0-2.3C108.2,159.9,108.2,159.6,108.3,159.4z"/>
		<path class="st11" d="M109.5,159.2c0.1,0.3,0.1,0.6,0.1,0.8c0,0.6,0.1,1.4,0.1,2.3c0.1,1.9,0.3,4.6,0.6,7.6
			c0.3,2.9,0.6,5.6,0.9,7.5c0.1,0.9,0.2,1.7,0.3,2.3c0.1,0.3,0.1,0.6,0.1,0.8c-0.1-0.3-0.2-0.5-0.2-0.8c-0.1-0.5-0.3-1.3-0.4-2.3
			c-0.3-1.9-0.7-4.6-1-7.5s-0.4-5.6-0.5-7.6c0-1,0-1.8,0-2.3C109.5,159.8,109.5,159.5,109.5,159.2z"/>
		<path class="st11" d="M131.1,111c-0.2,0.2-0.4,0.3-0.6,0.4c-0.4,0.2-1,0.6-1.7,1c-3.8,2.3-7,5.4-9.6,9c-0.5,0.7-0.9,1.3-1.1,1.7
			c-0.1,0.2-0.3,0.4-0.4,0.6c0.1-0.2,0.2-0.5,0.3-0.7c0.2-0.4,0.6-1,1-1.7c1.2-1.9,2.7-3.6,4.3-5.1c1.6-1.5,3.4-2.9,5.4-4
			c0.7-0.4,1.4-0.7,1.8-0.9C130.6,111.2,130.9,111.1,131.1,111z"/>
		<path class="st11" d="M132.6,111.9c-0.2,0.2-0.4,0.3-0.6,0.4c-0.4,0.2-1,0.6-1.7,1c-3.8,2.3-7.1,5.4-9.6,9
			c-0.5,0.7-0.9,1.3-1.1,1.7c-0.1,0.2-0.3,0.4-0.4,0.6c0.1-0.2,0.2-0.5,0.3-0.7c0.2-0.4,0.6-1,1-1.7c1.2-1.9,2.7-3.6,4.3-5.1
			c1.6-1.5,3.4-2.9,5.4-4c0.6-0.3,1.2-0.6,1.8-0.9C132.1,112.1,132.3,112,132.6,111.9z"/>
		<path class="st11" d="M109.5,130.3c-0.1,0,0-0.7-0.2-1.4c-0.2-0.8-0.6-1.3-0.5-1.4C109.5,128.2,109.8,129.3,109.5,130.3
			L109.5,130.3z"/>
		<path class="st105" d="M156.4,130.8c0.2,0.2,2.9,4.1,3.8,5.5s1.1,2.5,1.7,2.8c0.6,0.3,1,0,1.1-1c0.2-1.3-0.8-3.3-0.8-3.3
			s5.6,4.8,6.3,5c1.2,0.3,1-1.1,1-1.1s1.4,1.3,2,0.9c0.6-0.3,0.6-0.7,0.6-0.7l-0.4-1.3c0.6,0.1,0.9-0.2,1-0.9l-4.6-3.1l-4.6-2.8
			l-2.9-4.5L156.4,130.8z"/>
		<path class="st105" d="M130.5,110.1c0,0,13.9-6.7,15.3-6c8,3.6,14.4,20.4,17.8,26.7l-5.8,2l-14.1-15.9l-3.1,2.1L130.5,110.1z"/>
		<path class="st97" d="M163.8,130.7c0,0.1-1.1-0.1-2.5,0.1c-1.4,0.1-2.4,0.4-2.5,0.4C160.5,130.4,162.2,130.3,163.8,130.7z"/>
		<path class="st97" d="M165.4,134.5c0.9,0.5,1.7,1.2,2.3,1.9c0.7,0.7,1.4,1.4,1.9,2.3c-0.7-0.7-1.5-1.4-2.1-2.1
			C166.8,135.9,166.1,135.2,165.4,134.5z"/>
		<path class="st97" d="M168.7,134.9c1.2,0.8,2.2,1.7,3.1,2.7C170.7,136.9,169.6,135.9,168.7,134.9z"/>
		<path class="st97" d="M147.8,113.5c0,0,0,0.3-0.3,0.8c-0.4,0.6-0.8,1-1.4,1.4c-0.6,0.3-1.2,0.6-1.8,0.8c-0.2,0.1-0.5,0.2-0.8,0.2
			c0,0,0.3-0.2,0.7-0.4c0.6-0.3,1.1-0.6,1.7-0.9c0.5-0.3,1-0.8,1.4-1.3C147.4,113.9,147.6,113.7,147.8,113.5z"/>
		<path class="st74" d="M114.3,129.5c0-1.9-0.8-3.7-2.1-5.1c-1.3-1.3-4.8-2.2-6.4-0.6l1.3,0.4c-2,9.8-5,19.4-9,28.6
			c-0.6,1.1-1,2.3-1.2,3.6c-0.2,1.3,0.3,2.6,1.2,3.5c1,0.8,2.7,0.8,3.3-0.3c-0.1,1.1,0.2,2.1,0.9,3c0.7,0.8,1.8,1.1,2.9,0.8
			c1.3-0.6,2.3-2.3,2.5-3.7c1.2-8.4,3.9-16.3,5.9-24.6C114.1,133.2,114.3,131.3,114.3,129.5z"/>
		<path class="st74" d="M109.2,124.3c-1.1-0.7-2.5-0.8-3.8-0.3l-0.3,0.1c0.9,0.4,1.6,1,2,1.8c0.5,0.8,1,1.6,1.5,2.3
			c0.5,0.6,1.3,1,1.9,0.5c0.3-0.3,0.4-0.7,0.4-1.1C110.9,126.3,110.3,125,109.2,124.3z"/>
		<path class="st11" d="M113.2,132.6c0,0,0.1-0.5,0.1-1.3c0.1-1-0.1-2-0.3-3c-0.1-0.5-0.3-1.1-0.6-1.5c-0.2-0.4-0.5-0.7-0.9-1
			c-0.3-0.2-0.7-0.4-1.2-0.3c0,0,0.1-0.1,0.3-0.1c0.3,0,0.7,0.1,0.9,0.3c0.4,0.3,0.7,0.6,1,1c0.3,0.5,0.5,1,0.7,1.6
			c0.3,1,0.4,2.1,0.3,3.1C113.5,131.7,113.4,132.2,113.2,132.6z"/>
		<path class="st11" d="M104.5,161.3c-0.1-0.1-0.1-0.3-0.1-0.5c-0.1-0.3-0.1-0.7-0.2-1.3c-0.3-2.9,0.1-5.8,1.1-8.5
			c0.2-0.5,0.4-0.9,0.5-1.2c0.1-0.3,0.2-0.4,0.2-0.4s-0.2,0.6-0.6,1.7c-0.9,2.7-1.3,5.6-1.1,8.4
			C104.4,160.6,104.5,161.3,104.5,161.3z"/>
		<path class="st74" d="M95,118.9c-1.4,0.1-2.9,0.9-3.3,2.3c-2.3-1.5-5.3-0.9-6.8,1.4c-0.7,1.2-0.9,2.7-2,3.6
			c-0.7,0.6-1.6,0.7-2.4,1c-3.4,1.3-5.2,5.5-4.2,9c0.9,3.5,4.2,6.1,7.8,6.9c1.7,0.3,3.4,0.3,4.9,1.1c1.4,0.7,2.5,2,3.8,2.8
			c1.4,0.8,3.4,1,4.3-0.3l10.7-12.2c1.8-1.9,2.2-4.8,0.9-7.1c-0.9-1.5-2.3-2.6-3.8-3.7c-1.9-1.4-3.8-2.7-5.8-3.8
			C97.9,119.3,96.5,118.9,95,118.9z"/>
		<path class="st105" d="M122,144.6c1.7-3.4,0.3-7.4-3-9.2L99,125c-5.3-3-11.4-2.4-14.2,3l-0.2,0.5c-2.4,5.1-0.4,11.2,4.6,14
			c4.6,2.6,9.7,5.3,12.3,6.5c5.3,2.3,8.6-2.6,8.6-2.6s1.2,0.6,2.7,1.4c3.4,1.7,7.5,0.4,9.3-3C121.9,144.7,121.9,144.7,122,144.6z"/>
		<path class="st97" d="M110,146.4c1.1-2.4,1.5-5.2,1.1-7.8c0,0,3.1,3.4,0.2,8.5L110,146.4z"/>
		<path class="st97" d="M103.3,138.6c-0.7,0.2-1,0.9-0.8,1.6c0.1,0.3,0.3,0.6,0.6,0.8c0.5,0.2,1,0.1,1.4-0.2
			c0.3-0.2,0.4-0.6,0.5-0.9c0.1-0.3,0-0.5-0.1-0.8c-0.2-0.3-0.5-0.5-0.9-0.6c-0.3,0-0.6,0-0.9,0.2"/>
		<path class="st17" d="M93.7,141.8c0.4,0.2,0.9,0,1.1-0.4c0,0,0,0,0,0c0.2-0.4,0.1-0.9-0.3-1.1c0,0,0,0,0,0c-0.4-0.2-0.9,0-1.1,0.4
			C93.2,141.1,93.3,141.6,93.7,141.8C93.7,141.8,93.7,141.8,93.7,141.8z"/>
		<path class="st17" d="M92.2,142.5c0.1-0.1,0-0.8,0.4-1.6c0.4-0.8,1.1-1.2,1-1.4s-0.2,0-0.6,0.1c-0.4,0.2-0.7,0.6-0.9,1
			c-0.2,0.4-0.2,0.9-0.2,1.4C92,142.4,92.1,142.6,92.2,142.5z"/>
		<path class="st17" d="M97.7,133.8c0.4,0.2,0.9,0,1.1-0.4c0,0,0,0,0,0c0.2-0.4,0.1-0.9-0.3-1.1c0,0,0,0,0,0c-0.4-0.2-0.9,0-1.1,0.4
			c0,0,0,0,0,0C97.1,133,97.3,133.5,97.7,133.8C97.6,133.7,97.7,133.8,97.7,133.8z"/>
		<path class="st17" d="M95.9,134.8c0.1,0,0-0.8,0.4-1.6c0.4-0.8,1-1.2,1-1.4c-0.1-0.1-0.2-0.1-0.6,0.1c-0.4,0.2-0.7,0.6-0.9,1
			c-0.2,0.4-0.3,0.9-0.2,1.4C95.7,134.7,95.9,134.8,95.9,134.8z"/>
		<path class="st17" d="M100.8,140.3c-0.3,0.4-0.6,0.8-0.8,1.2c-0.1,0.2-0.2,0.4-0.4,0.3c-0.2-0.1-0.4-0.2-0.6-0.4
			c-0.4-0.4-0.8-0.9-1.3-1.3c-1.9-1.9-3.4-3.3-3.5-3.3c-0.1,0.1,1.4,1.7,3.2,3.5l1.3,1.3c0.2,0.2,0.5,0.4,0.8,0.5
			c0.2,0,0.3-0.1,0.5-0.2c0.1-0.1,0.2-0.2,0.2-0.3C100.4,141.2,100.6,140.8,100.8,140.3z"/>
		<path class="st17" d="M102.4,138.2c-0.1,0.1,0.8,0.5,1.1,1.6c0.3,1-0.2,1.9-0.1,2s0.3-0.1,0.5-0.5c0.2-0.5,0.3-1.1,0.2-1.7
			c-0.1-0.5-0.5-1-0.9-1.3C102.7,138.1,102.4,138.1,102.4,138.2z"/>
		<path class="st74" d="M92.8,133.4c0.3,0,0.5-0.8,1.1-1.7c0.5-0.9,1.2-1.6,1-1.8c-0.1-0.1-0.3-0.1-0.7,0.2
			c-0.5,0.3-0.8,0.7-1.1,1.2c-0.3,0.5-0.4,1-0.5,1.5C92.5,133.1,92.6,133.4,92.8,133.4z"/>
		<path class="st74" d="M90,141.2c0.3-0.1,0.3-0.7,0.6-1.4c0.3-0.7,0.7-1.2,0.6-1.4c-0.1-0.1-0.3-0.1-0.6,0.1
			c-0.4,0.2-0.7,0.6-0.8,1c-0.2,0.4-0.2,0.8-0.1,1.3C89.8,141,89.9,141.2,90,141.2z"/>
		<path class="st105" d="M102.8,127.3c0-0.1,0.6-4.1,4.1-2.4c3.6,1.8,1.1,5,1,4.9S102.8,127.3,102.8,127.3z"/>
		<path class="st97" d="M107,128.1c0,0,0.1,0,0.2-0.1c0.1-0.1,0.2-0.3,0.2-0.5c-0.1-0.6-0.5-1.1-1-1.4c-0.3-0.2-0.6-0.3-1-0.3
			c-0.3,0-0.5,0-0.7,0.2c-0.1,0.1-0.1,0.3,0,0.5c0.1,0.1,0.2,0.1,0.2,0.1s-0.1,0.1-0.2-0.1c-0.1-0.1-0.1-0.2-0.2-0.3
			c0-0.1,0-0.3,0.1-0.4c0.2-0.3,0.5-0.4,0.9-0.4c0.4,0,0.8,0.1,1.1,0.3c0.7,0.4,1.2,1.1,1.1,1.7c0,0.2-0.2,0.4-0.4,0.5
			C107.1,128.1,107,128.1,107,128.1z"/>
		<path class="st97" d="M89.2,138.8c0.3-0.2,0.5-0.5,0.7-0.8c0.5-0.7,0.9-1.4,1.2-2.2c0.3-0.8,0.6-1.6,0.8-2.4
			c0.1-0.3,0.1-0.7,0.1-1c-0.1,0-0.4,1.5-1.1,3.3S89.1,138.7,89.2,138.8z"/>
		<path class="st97" d="M88.3,139c0.7-0.8,1.2-1.8,1.7-2.8c0.5-1,0.9-2,1.1-3c-0.1,0-0.6,1.3-1.3,2.9C88.9,137.7,88.2,139,88.3,139z
			"/>
		<path class="st74" d="M84.1,142.3c3.7-1.1,5.8-5,4.6-8.6c-0.1-0.4-0.3-0.7-0.4-1.1c2.5-0.2,4.4-2.3,4.2-4.8c0-0.6-0.2-1.3-0.5-1.8
			c2.2,1.9,4.9,3,7.8,3.1c0.6,0,1.2-0.1,1.7-0.3c0.6-0.3,1.3-1.2,1.3-1.8s-0.7-0.6-1.1-1c-4.3-4.8-11.7-5.2-16.5-0.8
			s-5.2,11.7-0.8,16.5"/>
		<path class="st75" d="M97.8,119.4c-0.1,0,0,0.6-0.1,1.4c-0.1,1.1-0.4,2.2-1,3.2c-0.5,1-1.3,1.8-2.2,2.4c-0.4,0.2-0.8,0.4-1.3,0.4
			c0.5,0.1,1,0,1.4-0.2c1-0.6,1.8-1.4,2.4-2.5c0.6-1,0.9-2.1,0.9-3.3c0-0.3,0-0.7-0.1-1C97.8,119.6,97.8,119.5,97.8,119.4z"/>
		<path class="st75" d="M99.3,120.6c-0.3,2.9-1.8,5.5-4.1,7.4c0.4-0.2,0.8-0.4,1.1-0.7c1.6-1.4,2.6-3.3,3-5.4
			C99.4,121.5,99.4,121,99.3,120.6z"/>
		<path class="st75" d="M81.7,141.6c0,0-0.4-0.2-1-0.5c-0.8-0.6-1.5-1.3-1.9-2.2c-0.7-1.3-0.7-2.8-0.2-4.2c0.7-1.7,1.9-3.1,3.4-4
			c0.4-0.3,0.8-0.5,1.2-0.7c0.4-0.2,0.9-0.3,1.3-0.5c0.2-0.1,0.4-0.3,0.6-0.4c0.2-0.2,0.3-0.4,0.3-0.7c0-0.4-0.1-0.9-0.3-1.3
			c-0.4-1.4,0.1-2.9,1.3-3.8c0.8-0.6,1.8-0.8,2.8-0.6c0.4,0.1,0.7,0.2,1,0.4c-0.1-0.1-0.1-0.1-0.2-0.2c-0.2-0.1-0.5-0.2-0.8-0.3
			c-1-0.2-2.1-0.1-2.9,0.5c-0.6,0.4-1,1-1.3,1.7c-0.3,0.8-0.3,1.6-0.1,2.4c0.2,0.4,0.2,0.8,0.3,1.2c0,0.4-0.3,0.8-0.7,0.9
			c-0.4,0.2-0.8,0.3-1.3,0.5c-0.4,0.2-0.9,0.4-1.3,0.7c-1.6,1-2.8,2.4-3.5,4.2c-0.3,0.8-0.4,1.6-0.3,2.4c0.1,0.7,0.3,1.4,0.6,2
			c0.5,0.9,1.2,1.7,2.1,2.2c0.2,0.1,0.5,0.3,0.7,0.4C81.5,141.6,81.6,141.6,81.7,141.6z"/>
		<path class="st75" d="M97.8,119.3c0.3,0.3,0.7,0.5,1.1,0.7c0.7,0.4,1.6,1,2.5,1.7c0.8,0.6,1.6,1.2,2.4,1.9
			c0.3,0.3,0.6,0.6,0.9,0.9c-0.2-0.4-0.5-0.7-0.8-1c-0.7-0.7-1.5-1.4-2.3-2c-0.8-0.6-1.7-1.2-2.6-1.6
			C98.6,119.6,98.2,119.5,97.8,119.3z"/>
	</g>
</g>
<g id="照相機">
</g>
<g id="圖層_8" class="st116">
</g>
<g id="地圖">
</g>
<g id="裝飾線">
</g>
<g id="圖層_1" class="st116">
</g>
</svg>
