<?xml version="1.0" encoding="utf-8"?>
<!-- Generator: Adobe Illustrator 21.1.0, SVG Export Plug-In . SVG Version: 6.00 Build 0)  -->
<svg version="1.1" id="圖層_1" xmlns="http://www.w3.org/2000/svg" xmlns:xlink="http://www.w3.org/1999/xlink" x="0px" y="0px"
	 viewBox="0 0 177 291" style="enable-background:new 0 0 177 291;" xml:space="preserve">
<style type="text/css">
	.st0{fill:#CCCCCC;}
	.st1{fill:#FFDBD0;}
	.st2{fill:#FFFFFF;}
	.st3{fill:#FFAF00;}
	.st4{fill:#E0F9FF;}
	.st5{fill:#FFEFDE;}
	.st6{fill:#E5F9E5;}
</style>
<g>
	<path class="st0" d="M152.6,10.2C134.3,7.1,84.2-1.9,28.2,15c0,0-16,3-17.8,19.3C8.3,53.1,2,111.8,6.8,170.9s6.2,75.9,6.2,75.9
		s-1.3,12.1,20,11.8c21.3-0.3,22.5-2.2,30.6,9.7c6.6,12.9,8,24,32.5,22.5c19.7-1.8,21.9-21.1,22.7-25.1c0.8-3.9,7-9.7,19.6-10.7
		c12.6-1,35.4-0.1,37.1-20.7s2-95.5-0.2-138.4c-2.3-42.9-4.1-71.3-4.4-72.9S171,13.2,152.6,10.2S84.2-1.9,28.2,15"/>
	<path class="st4" d="M147.6,5.2C129.3,2.1,79.2-6.9,23.2,10c0,0-16,3-17.8,19.3C3.3,48.1-3,106.8,1.8,165.9S8,241.8,8,241.8
		s-1.3,12.1,20,11.8s22.5-2.2,30.6,9.7c6.6,12.9,8,24,32.5,22.5c19.7-1.8,21.9-21.1,22.7-25.1c0.8-3.9,7-9.7,19.6-10.7
		c12.6-1,35.4-0.1,37.1-20.7s2-95.5-0.2-138.4c-2.3-42.9-4.1-71.3-4.4-72.9S166,8.2,147.6,5.2S79.2-6.9,23.2,10"/>
	<path class="st2" d="M102.4,261.6c0,9.3-6.8,16.6-16.8,17.6c-8.9,0.9-16.2-7.1-16.2-16.8c0-11.7,7.2-16.8,16.2-16.8
		S102.4,252.4,102.4,261.6z"/>
	<g>
		<path d="M97,258.8c0-1-0.2-1.8-1-2.4c-0.9-0.7-2.1-1-3.2-1.3c-1.7-0.4-3.4-0.8-5.2-1.2c-1.4-0.3-2.7-0.5-4.1-0.6
			c0-0.4,0.1-0.8-0.1-1.2c-0.3-0.5-0.7-0.5-1.2-0.6c-1.7-0.3-3.4-0.4-5.1-0.4c-0.3,0-0.5,0.2-0.5,0.5c0,0.4-0.1,0.7-0.1,1.1
			c-0.4,0-0.7,0-1,0.2c-0.9,0.4-1.2,1.5-1.4,2.3c-0.7,2.6-1.3,5.3-1.5,8c-0.2,1.9-0.6,5,1.5,5.9c1,0.5,2.2,0.6,3.3,0.8
			c1.5,0.3,2.9,0.5,4.4,0.7c2.9,0.4,5.8,0.6,8.7,0.9c2,0.2,4.8,1,5.8-1.4c0.4-1,0.4-2.1,0.5-3.1c0.2-1.6,0.3-3.2,0.3-4.8
			C97,261.2,97,260,97,258.8z"/>
		<path class="st3" d="M74.2,258.9c1.7,0.1,3.4,0.3,5.1,0.6c-0.4,0.7-0.7,1.5-0.8,2.2c-0.2,1.2,0,2.3,0.5,3.2
			c-1.9-0.1-3.7-0.3-5.6-0.7C73.6,262.5,73.9,260.7,74.2,258.9z"/>
		<path class="st0" d="M79.7,261.6c0.3-1,0.8-2,1.6-2.7c0.7-0.7,1.5-0.8,2.3-0.7c0.1,0,0.2,0.1,0.3,0.1c5.4-0.2,4.7,10-1,8.4
			C80.5,266,79.1,263.9,79.7,261.6z"/>
		<path class="st3" d="M88.5,261.4c2.5,0.2,5,0.5,7.4,0.9c0,1.4-0.1,2.9-0.2,4.3c0,0.3,0,0.6-0.1,0.8c-2.7-0.5-5.4-0.9-8.1-1.4
			C88.4,264.7,88.7,263,88.5,261.4z"/>
		<path class="st2" d="M77.6,252.2c0.9,0,1.9,0,2.8,0.1c0.3,0,1.7,0,1.9,0.3c0.1,0.2,0.1,0.3,0.1,0.5c-1.6-0.2-3.1-0.3-4.7-0.3
			c-0.1,0-0.1,0-0.2,0C77.6,252.7,77.6,252.5,77.6,252.2z"/>
		<path class="st2" d="M75.3,254.8c0.5-1.2,1.4-0.8,2.4-0.8c4.9,0.1,9.7,0.9,14.4,2.1c0.9,0.2,2,0.4,2.9,0.9c1,0.6,0.9,1.6,1,2.7
			c0,0.5,0,1,0,1.5c-2.6-0.4-5.1-0.7-7.7-0.9c-0.6-1.7-1.9-3-3.9-3.1c0,0,0,0-0.1,0c-1.5-0.2-2.6-0.1-3.8,0.9
			c-0.2,0.1-0.3,0.3-0.4,0.5c-1.9-0.3-3.7-0.6-5.6-0.7C74.7,256.8,74.9,255.7,75.3,254.8z"/>
		<path class="st2" d="M95.2,269.6c-0.5,1.4-1.7,1.3-2.9,1.2c-2.3-0.2-4.7-0.4-7-0.7c-2.3-0.2-4.6-0.5-6.9-0.9
			c-1.1-0.2-2.1-0.4-3.2-0.7c-0.4-0.1-0.9-0.2-1.2-0.6c-0.5-0.5-0.4-1.3-0.5-2c0-0.2,0-0.4,0-0.6c2.1,0.4,4.3,0.6,6.4,0.7
			c0.8,0.9,2,1.5,3.3,1.6c1.4,0.2,2.6-0.1,3.4-0.8c0,0,0.1,0.1,0.2,0.1c2.9,0.5,5.8,1,8.7,1.5C95.4,268.9,95.4,269.3,95.2,269.6z"/>
		<path d="M89.7,260.3c1.6-0.1,3.1,0.1,4.6,0.6c0.5,0.1,0.7-0.3,0.6-0.7c0.2-0.9,0.6-2.5-0.4-2.9c-0.6-0.2-1.4-0.2-2-0.2
			c-0.8-0.1-1.6-0.1-2.4-0.1c0,0,0,0,0,0c0,0-0.1,0-0.1,0c-0.5,0-0.6,0.4-0.5,0.8c-0.1,0.6-0.1,1.1-0.2,1.7
			C89,259.6,89.1,260.3,89.7,260.3z"/>
		<path class="st0" d="M90.6,258c0.8,0,1.5,0.1,2.3,0.1c0.2,0,0.5,0,0.7,0.1c0.4,0,0.4,1.1,0.3,1.4c-1.1-0.3-2.3-0.5-3.5-0.4
			C90.5,258.8,90.6,258.4,90.6,258z"/>
	</g>
</g>
</svg>
