<?xml version="1.0" encoding="utf-8"?>
<!-- Generator: Adobe Illustrator 21.1.0, SVG Export Plug-In . SVG Version: 6.00 Build 0)  -->
<svg version="1.1" id="Layer_1" xmlns="http://www.w3.org/2000/svg" xmlns:xlink="http://www.w3.org/1999/xlink" x="0px" y="0px"
	 viewBox="0 0 20 20" style="enable-background:new 0 0 20 20;" xml:space="preserve">
<style type="text/css">
	.st0{fill:#FFAF00;}
	.st1{fill:#FFFFFF;}
</style>
<g>
	<path class="st0" d="M10,0C4.5,0,0,4.5,0,10s4.5,10,10,10s10-4.5,10-10S15.5,0,10,0z"/>
	<path class="st1" d="M13.1,10.6l-4.2,4.2C8.8,14.9,8.5,15,8.3,15s-0.4-0.1-0.6-0.2c-0.3-0.3-0.3-0.9,0-1.2l3.6-3.6L7.7,6.4
		c-0.3-0.3-0.3-0.9,0-1.2s0.9-0.3,1.2,0l4.2,4.2C13.4,9.7,13.4,10.3,13.1,10.6z"/>
</g>
</svg>
