<?xml version="1.0" encoding="utf-8"?>
<!-- Generator: Adobe Illustrator 21.1.0, SVG Export Plug-In . SVG Version: 6.00 Build 0)  -->
<svg version="1.1" id="圖層_1" xmlns="http://www.w3.org/2000/svg" xmlns:xlink="http://www.w3.org/1999/xlink" x="0px" y="0px"
	 viewBox="0 0 1200 2043" style="enable-background:new 0 0 1200 2043;" xml:space="preserve">
<style type="text/css">
	.st0{clip-path:url(#SVGID_2_);}
	.st1{clip-path:url(#SVGID_4_);fill:#202020;}
	.st2{clip-path:url(#SVGID_4_);fill:none;stroke:#000000;stroke-width:3;stroke-miterlimit:10;}
	.st3{clip-path:url(#SVGID_2_);fill:#618978;}
	.st4{clip-path:url(#SVGID_2_);fill:#FFF6D3;}
	.st5{clip-path:url(#SVGID_2_);fill:#FFAF00;}
	.st6{clip-path:url(#SVGID_2_);fill:#DECCBC;}
	.st7{clip-path:url(#SVGID_2_);fill:#99B0C0;}
	.st8{clip-path:url(#SVGID_2_);fill:#B1897A;}
	.st9{clip-path:url(#SVGID_2_);fill:#F5F5F5;}
	.st10{fill:#202020;}
	.st11{clip-path:url(#SVGID_6_);fill:none;stroke:#000000;stroke-width:3;stroke-miterlimit:10;}
</style>
<g>
	<defs>
		<rect id="SVGID_1_" width="1200" height="2043"/>
	</defs>
	<clipPath id="SVGID_2_">
		<use xlink:href="#SVGID_1_"  style="overflow:visible;"/>
	</clipPath>
	<g class="st0">
		<defs>
			<path id="SVGID_3_" d="M-0.2,1042.7c20.1,18.9,30.2,48,50.7,67.2c10.3,9.6,22.8,16.4,34.5,24.2s23.1,17,29.3,29.6
				c5.9,12,6.7,25.8,6.7,39.1c0.1,17.9-1.2,37.1-11.8,51.5c-9.4,12.7-24.7,19.7-40.1,22.9s-31.3,3-47.1,4.2c-7.4,0.5-14.8,1.4-22,3
				L-0.2,1042.7z"/>
		</defs>
		<clipPath id="SVGID_4_">
			<use xlink:href="#SVGID_3_"  style="overflow:visible;"/>
		</clipPath>
		<path class="st1" d="M-0.2,1042.7c20.1,18.9,30.2,48,50.7,67.2c10.3,9.6,22.8,16.4,34.5,24.2s23.1,17,29.3,29.6
			c5.9,12,6.7,25.8,6.7,39.1c0.1,17.9-1.2,37.1-11.8,51.5c-9.4,12.7-24.7,19.7-40.1,22.9s-31.3,3-47.1,4.2c-7.4,0.5-14.8,1.4-22,3
			L-0.2,1042.7z"/>
		<path class="st2" d="M54.2,1088.7c-6.7,2.7-13.5,5.4-19.6,9.4s-11.5,9.3-14.4,15.9s-2.9,14.8,1,20.9c4.5,7.1,13.3,10.3,21.7,10.7
			c5.5,0.3,11.3-0.5,16-3.5c4.6-2.9,7.7-7.7,9.6-12.7s2.7-10.5,3.6-15.8"/>
		<path class="st2" d="M42.8,1080.4c-6.7,6.2-16.1,8.1-24.8,10.9c-8.7,2.8-17.8,7.6-20.8,16.2c-2.2,6.3-0.4,13.5,3.3,19.1
			s9,9.9,14.4,13.8c5.4,3.9,11.1,7.6,15.8,12.4c3.6,3.7,6.8,8.1,11.6,10c6.9,2.7,14.7-0.7,20.4-5.5c11.4-9.5,17.9-24.6,17.1-39.4"/>
		<path class="st2" d="M27.3,1072.3c-10.6,9-26.8,9.4-36.8,19.1c-7.9,7.7-9.9,20-7.6,30.8s8.6,20.4,15.3,29.1
			c3.8,5,8.1,9.9,13.8,12.4c5.2,2.2,11,2.1,16.4,3.5c7.1,1.8,13.5,6.2,20.8,7.2c11.9,1.7,23.6-6,30.1-16
			c6.6-10.1,9.1-22.2,11.4-33.9"/>
		<path class="st2" d="M-13.3,1300.9c2.7-13.6,9.9-26.8,21.3-34.6c12-8.2,27.1-9.7,41.5-11.8s29.6-5.6,39.4-16.3
			c7.8-8.5,11.3-20.8,20.4-27.9c6.7-5.3,15.6-7,24.1-6.5c8.5,0.5,16.7,3,24.8,5.5"/>
		<path class="st2" d="M54.7,1299.7c-0.7-11.5,6.5-22,15-29.8c18.4-16.9,44.4-25.2,69.2-22.2c4.2,0.5,8.6,1.4,12,4.1"/>
		<path class="st2" d="M-36.4,1207.8c32.4,7.2,66.1,1.8,98.8-3.6c8.9-1.5,18.6-3.4,24.4-10.3c5.1-6,6-14.3,8.2-21.8
			c2.7-8.9,7.5-17.2,14-23.8c1.6-1.6,3.5-3.3,5.7-3.4c2.3-0.1,4.7,2.2,3.8,4.3"/>
		<path class="st2" d="M-18.7,1179c7.1,6.5,16.5,10.1,26.1,11.6s19.2,1.1,28.9,0.7c9-0.4,18.4-0.8,26.4-5c6.3-3.3,11.3-8.7,16.1-14
			c5.6-6.2,11.4-12.5,14.1-20.4c1.3-3.8,2-7.8,4-11.3c2-3.4,6.2-6.1,10-4.8"/>
		<path class="st2" d="M28.6,1065.4c-10.1,1.8-20.2,3.6-30.3,5.5c-4.4,0.8-8.9,1.6-12.7,3.9s-6.9,6.3-6.8,10.8"/>
		<path class="st2" d="M28,1053c-16.2-1.5-32.9,4.1-45,15"/>
	</g>
	<path class="st3" d="M83.8,1248.3c0,0.7,0.1,1.5,0.1,2.2C84.6,1249.8,84.7,1249,83.8,1248.3z"/>
	<path class="st4" d="M103.8,1285.4c-0.2-0.3-0.5-0.7-0.7-1C103,1285.2,103.2,1285.5,103.8,1285.4z"/>
	<path class="st5" d="M25.2,1299c-0.1-0.2-0.1-0.4-0.2-0.6c0,0.7,0,1.3-0.1,2c0.1,0,0.1,0,0.2,0C25.1,1299.9,25.1,1299.5,25.2,1299z
		"/>
	<path class="st3" d="M92.7,1312.4c0.1-0.5,0.1-1.1,0.2-1.6c-1-0.1-1.5,0.6-1.5,2.3C91.9,1312.9,92.3,1312.7,92.7,1312.4z"/>
	<path class="st5" d="M11.4,1333.1c0.1,0.1,0.3,0.2,0.4,0.3c0.1-0.2,0.2-0.3,0.3-0.5C11.8,1333,11.6,1333,11.4,1333.1z"/>
	<path class="st6" d="M68.6,1290.8c0.7-0.6,0.9-1.4,0.5-2.6c-0.5,0.6-1,1.1-1.5,1.7C68,1290.2,68.3,1290.5,68.6,1290.8z"/>
	<path class="st7" d="M22.1,1327.5c-0.6,0.8-1.2,1.6-1.7,2.4c2.3,1,1.5,0.3,3.4-2.9C23.2,1327.2,22.7,1327.3,22.1,1327.5z"/>
	<path class="st7" d="M33.2,1280.1c-0.5,0.7-0.9,1.5-1.3,2.2c2.1,0.7,1.3,0.1,2.8-2.8C34.2,1279.8,33.7,1280,33.2,1280.1z"/>
	<path class="st6" d="M74,1248.7c-1.3-0.2-2.6-0.4-3.9-0.5c0,0.1,0,0.2,0,0.3c-5.4,0,1.1,4.2,4.9,3.6
		C74.6,1250.9,74.3,1249.8,74,1248.7z"/>
	<path class="st4" d="M14.8,1286.5c0.3,0.1,0.6,0.2,0.9,0.3c0.1-0.2,0.2-0.4,0.2-0.5c-0.7-0.1-1.4-0.2-2.1-0.4
		C14.2,1286.1,14.5,1286.3,14.8,1286.5z"/>
	<path class="st7" d="M29.9,1246.5c0.2,0.4,0.4,0.7,0.7,1c0-0.4,0-0.8-0.1-1.2C30.3,1246.2,30.1,1246.3,29.9,1246.5z"/>
	<path class="st8" d="M52.5,1247.8c0.1,0.3,0.1,0.5,0.2,0.8C52.8,1248.3,52.8,1248.1,52.5,1247.8z"/>
	<path class="st8" d="M58.7,1252.4c-1.2,1.5-2.3,3.1-3.2,4.8c2.7,2.6,5.1,1.9,7.1-2.1c-0.9-1.1-1.8-2.2-2.5-3.4
		C59.6,1251.9,59.1,1252.2,58.7,1252.4z"/>
	<path class="st4" d="M74.9,1298.6c0.6,3.1,4.2,2.1,2.3-1.6C76.4,1297.6,75.7,1298.1,74.9,1298.6z"/>
	<path class="st4" d="M98.8,1275.1c0.4,0.3,0.7,0.5,1.1,0.8c0-0.7,0-1.4-0.1-2C99.5,1274.3,99.1,1274.7,98.8,1275.1z"/>
	<path class="st4" d="M20.8,1316.5c-0.3-0.4-0.5-0.7-0.8-1.1c-0.2,0.6-0.4,1.1-0.6,1.7c0.4,0.2,0.8,0.4,1.3,0.5
		C20.7,1317.3,20.7,1316.9,20.8,1316.5z"/>
	<path class="st6" d="M47.5,1317.3c-0.5-0.9-1.2-1.9-1.9-2.7c0.2,1.4,0.3,2.9,0.1,4.1c0.6,0.1,1.2,0.1,1.8,0.2
		C47.5,1318.3,47.5,1317.8,47.5,1317.3z"/>
	<path class="st4" d="M78,1272.4c0.9-3.9-3.8-2.3-5.3-1.2C75,1273.4,76.8,1273.9,78,1272.4z"/>
	<path class="st5" d="M51.5,1270.7c-0.4,0.4-0.9,0.7-1.3,1c0.6,1.2,1.3,2.5,1.9,3.7C53.4,1274,53.2,1272.4,51.5,1270.7z"/>
	<path class="st7" d="M77.3,1321.2c0.2,0,0.4-0.1,0.6-0.1c0,0.2-0.1,0.4-0.2,0.7c0.2,0,0.5,0,0.7,0c-0.5-1.3-0.9-2.5-1.4-3.8
		c-0.3,0.1-0.6,0.1-0.9,0.2C76.6,1319.2,76.9,1320.2,77.3,1321.2z"/>
	<path class="st5" d="M13.6,1307.5c-0.5,0.1-0.9,0.1-1.4,0.2C13,1308.1,13.4,1308.1,13.6,1307.5z"/>
	<path class="st6" d="M53.9,1322.9c-0.5,0.1-0.9,0.3-1.4,0.4c0.5,1.1,1.1,1.3,1.8,0.8C54.2,1323.7,54.1,1323.3,53.9,1322.9z"/>
	<path class="st4" d="M50.6,1293.2c0.3-0.7,0.6-1.4,0.8-2c-1.1,0.2-2.2,0.4-3.3,0.6C48.7,1292.9,49.5,1293.4,50.6,1293.2z"/>
	<path class="st4" d="M101.6,1299.5c0.3,0.1,0.6,0.2,1,0.3c0.3-2,0.5-4,0.7-6c-0.3-0.1-0.6-0.2-0.8-0.2
		C102.2,1295.6,101.9,1297.6,101.6,1299.5z"/>
	<path class="st5" d="M42.2,1308.6c0.4-1.4,0.2-2.5-0.7-3.3C41.7,1306.5,42,1307.6,42.2,1308.6z"/>
	<path class="st5" d="M52.3,1308c0.3,0.4,0.7,0.9,1,1.3C53.4,1308.4,53,1308,52.3,1308z"/>
	<path class="st5" d="M59.2,1341.1c-0.1,0.2-0.2,0.3-0.3,0.5c0.2,0.1,0.3,0.2,0.5,0.3c0.1-0.2,0.2-0.3,0.4-0.5
		C59.6,1341.3,59.4,1341.2,59.2,1341.1z"/>
	<path class="st6" d="M27,1340c0.4-0.2,0.9-0.3,1.3-0.5c-0.1-0.3-0.1-0.6-0.2-0.9C27.7,1339,27.3,1339.5,27,1340z"/>
	<path class="st3" d="M9.4,1266.9c0.1-0.1,0.2-0.2,0.3-0.3c-0.1,0-0.2,0.1-0.3,0.1C9.3,1266.7,9.4,1266.8,9.4,1266.9z"/>
	<path class="st4" d="M43.3,1246.4c-0.4-0.8-0.8-1.5-1.1-2.3C41.7,1244.9,42.1,1245.7,43.3,1246.4z"/>
	<path class="st4" d="M40.3,1254.9c0,0.4,0,0.7,0.1,1.1c1.5-0.2,3-0.3,4.5-0.3C43.5,1254.5,41.9,1254.3,40.3,1254.9z"/>
	<path class="st4" d="M63,1327.4c0,0.3,0.1,0.6,0.1,1c0-0.4,0-0.7,0-1.1C63,1327.3,63,1327.3,63,1327.4z"/>
	<path class="st4" d="M41.8,1354.9c0,0.1,0,0.2,0,0.3c0.1,0,0.1-0.1,0.2-0.1C41.9,1355,41.9,1355,41.8,1354.9z"/>
	<path class="st7" d="M82,1262.9c2.4-0.6,3-1.9,2-3.7C83.4,1260.4,82.7,1261.7,82,1262.9z"/>
	<path class="st5" d="M66.9,1279c0.2-0.1,0.3-0.3,0.4-0.4c-0.2-0.2-0.4-0.4-0.6-0.6C66.8,1278.3,66.8,1278.6,66.9,1279z"/>
	<path class="st5" d="M87.8,1301c0.2-0.1,0.4-0.2,0.7-0.2c-0.1-0.3-0.3-0.6-0.4-0.9C88,1300.2,87.9,1300.6,87.8,1301z"/>
	<path class="st4" d="M33.6,1265.4c-4-1-2.7-1.5-5.3,2.5c1.3,0.6,2.7,1.2,4,1.8C32.9,1268.3,33.3,1266.9,33.6,1265.4z"/>
	<path class="st5" d="M41.6,1293.8c-1.1-3.3-0.1-2.6-4-2.6c0.2,1.2,0.4,2.4,0.5,3.6C39.2,1294.5,40.4,1294.2,41.6,1293.8z"/>
	<path class="st6" d="M47.8,1344.1c-0.7,0.9-1.5,1.7-2.2,2.6c0.8-0.1,1.7-0.1,2.5-0.2C48.1,1345.7,48,1344.9,47.8,1344.1z"/>
	<path class="st6" d="M64.4,1302.4C64.3,1302.4,64.3,1302.4,64.4,1302.4c0.8,1.4,2,1,3.6-1.1c0,0,0-0.1-0.1-0.1
		C66.6,1301.8,65.4,1302.3,64.4,1302.4z"/>
	<path class="st5" d="M79.2,1309.8c-0.1,0-0.2,0.1-0.2,0.1c0,0,0.1,0,0.1,0.1C79.1,1309.9,79.2,1309.9,79.2,1309.8z"/>
	<path class="st4" d="M17.2,1297.3c-1.4,0.7-2.5,0.7-2.9,2c1.1-0.3,2.1-0.6,3.1-0.9C17.3,1297.9,17.3,1297.6,17.2,1297.3z"/>
	<path class="st6" d="M18.3,1261.1c-0.1,0-0.3,0.1-0.4,0.1c0.2,0,0.4,0,0.5-0.1C18.4,1261.2,18.3,1261.1,18.3,1261.1z"/>
	<path class="st7" d="M10.6,1277.4c-0.5-0.5-1-1.1-1.5-1.6c-0.1,0.6-0.1,1.3-0.2,1.9C9.5,1277.5,10,1277.5,10.6,1277.4z"/>
	<path class="st5" d="M20.8,1274.1c0.1,1.5,0.9,1.9,2.3,1.2C23.1,1274.2,22.3,1273.8,20.8,1274.1z"/>
	<path class="st5" d="M5.7,1298.2c-0.1-0.2-0.3-0.4-0.4-0.6C5.4,1297.9,5.5,1298.1,5.7,1298.2C5.7,1298.3,5.7,1298.3,5.7,1298.2z"/>
	<path class="st4" d="M85.9,1271.5c1.2,0.8,2.4,1.6,3.6,2.3c0.2-1.2,0.4-2.4,0.6-3.6c-1.2-0.3-2.5-0.7-3.7-1
		C86.2,1270,86,1270.8,85.9,1271.5z"/>
	<path class="st4" d="M43.6,1325.1c-1.8-2.1-4-3.3-6.4-3.7c0.9,1.7,1.9,3.5,2.8,5.3C41.1,1326.2,42.3,1325.6,43.6,1325.1z"/>
	<path class="st4" d="M33.3,1322.2c-0.9-4.3-0.9-3.4-5.7-2.6C27.9,1322.6,29.8,1323.5,33.3,1322.2z"/>
	<path class="st4" d="M0.6,1323.4c-0.7,0.2-1.4,0.4-2.2,0.5c2.7,5.5,6.8,6.8,12.6,3.8C10.6,1323.8,7.2,1322.4,0.6,1323.4z"/>
	<path class="st5" d="M29.9,1306.1l0.2,2.1c0.7-0.8,1.3-1.5,2-2.3C31.4,1305.9,30.6,1306,29.9,1306.1z"/>
	<path class="st4" d="M3.5,1287.7l0,0.1c0.1,0,0.3-0.1,0.4-0.1C3.8,1287.7,3.7,1287.7,3.5,1287.7z"/>
	<path class="st4" d="M54.8,1304c2.1,0.5,3.1,0,4.9-1c-1.5-3.1-3.2-6.2-2.6-8.3c-1.9,0-3.7,0.1-5.6,0.1
		C50.9,1298.1,52,1301.2,54.8,1304z"/>
	<path class="st4" d="M9.4,1317.8c0.1,0,0.3,0.1,0.4,0.1c-0.1-0.2-0.2-0.3-0.3-0.5C9.5,1317.6,9.4,1317.7,9.4,1317.8z"/>
	<path class="st4" d="M76,1341.1c0.1,0.1,0.1,0.2,0.2,0.3c0-0.1,0.1-0.3,0.1-0.4C76.1,1341,76,1341.1,76,1341.1z"/>
	<path class="st5" d="M46.9,1334.8c2,0,3.6-0.7,4.7-2.1C50,1331.8,48.4,1332.5,46.9,1334.8z"/>
	<path class="st7" d="M31,1257.5c0.3,0.3,0.6,0.7,0.9,1c0.2-0.3,0.5-0.6,0.7-0.9C32.4,1257,31.8,1257,31,1257.5z"/>
	<path class="st7" d="M48,1263.4c0.2,0,0.3,0,0.5,0c0-0.2,0.1-0.4,0.1-0.6C48.3,1263,48.2,1263.2,48,1263.4z"/>
	<path class="st5" d="M70.9,1333.3c0.7-1,1.4-1.9,2.1-2.9c-1.1,0.4-2.2,0.8-3.3,1.3C69.8,1332.5,70.2,1333,70.9,1333.3z"/>
	<path class="st4" d="M68.2,1262c0-0.2-0.1-0.4-0.1-0.6c-0.1,0.2-0.2,0.4-0.3,0.6C68,1262,68.1,1262,68.2,1262z"/>
	<path class="st5" d="M57.9,1269.8c1,0.7,2,1.3,3,2c0.5-0.7,1-1.4,1.5-2.1C60.4,1267.4,58.9,1267.5,57.9,1269.8z"/>
	<path class="st5" d="M15.6,1250.8c0.7,0.8,1.3,1.6,1.9,2.5c1.6-1.2,0.1-3.4-1.5-4C15.9,1249.8,15.7,1250.3,15.6,1250.8z"/>
	<path class="st8" d="M16.3,1339.9c0.7,1.6,1.3,3.2,2,4.8c0.6-1.1,1.4-2.2,2.1-3.2c-0.9-0.9-1.8-1.8-2.7-2.7
		C17.2,1339.1,16.7,1339.5,16.3,1339.9z"/>
	<path class="st7" d="M83.2,1329c-1.4-2.3-3.5-2.3-6.2,0.1C78.3,1331.4,81.1,1330.3,83.2,1329z"/>
	<path class="st5" d="M2.2,1306.6c-1.1-0.3-1.8,0-2.3,0.9c0.6,0.7,1.2,1.4,1.8,2.1C1.9,1308.6,2,1307.6,2.2,1306.6z"/>
	<path class="st3" d="M88.7,1284.2c0.2-1.1-0.2-1.8-1.1-2.2c-0.6,0.7-1.3,1.4-1.9,2.1C86.7,1284.2,87.7,1284.2,88.7,1284.2z"/>
	<path class="st6" d="M39.9,1273c0.2-0.3,0.4-0.7,0.6-1c-0.3,0.1-0.6,0.2-0.8,0.4C39.7,1272.6,39.8,1272.8,39.9,1273z"/>
	<path class="st4" d="M36.9,1335.4c-0.3-0.4-0.6-0.7-0.9-1.1c0,0.5,0,1.1,0,1.6C36.3,1335.8,36.6,1335.6,36.9,1335.4z"/>
	<path class="st5" d="M74.2,1288.3c-0.4,0.4-0.9,0.7-1.4,1.1c3.4-0.1,7.3-0.2,11.2,0C82.6,1284.6,79.3,1284.3,74.2,1288.3z"/>
	<path class="st7" d="M27.8,1288.1c-1.1,0.9-1.3,1.9-0.5,2.9C27.5,1290,27.6,1289,27.8,1288.1z"/>
	<path class="st5" d="M50,1282.2c-1.3-0.7-2.7-1.3-4.1-1.7C46.4,1281,49.4,1285.1,50,1282.2z"/>
	<path class="st4" d="M63.7,1314.4c-0.2,0.2-0.4,0.3-0.6,0.5c0.3,0.1,0.7,0.2,1,0.3C63.9,1314.9,63.8,1314.7,63.7,1314.4z"/>
	<path class="st7" d="M95,1290.1c-0.2-0.2-0.4-0.4-0.6-0.6c-1.2,0.9-2,2-2.4,3.3c0.8,0.3,1.6,0.6,2.4,0.9
		C94.6,1292.4,94.8,1291.3,95,1290.1z"/>
	<path class="st3" d="M59,1286.6c0.1-0.1,0.1-0.2,0.2-0.2c0,0-0.1,0-0.1,0C59.1,1286.4,59.1,1286.5,59,1286.6z"/>
	<path class="st9" d="M0,166.9c4.3-1.1,8.9-1.4,13.3-1.7c14.7-1,29.4-1.5,44.1-1.6c10.1-0.1,20.8,0.3,29,6.1
		c11.5,8.1,14.7,24.5,26,32.9c16.5,12.2,41.7,2,59.4,12.3c12.8,7.5,17.7,23.4,20.3,38c2.7,14.9,4,30,4.1,45.2
		c0.1,9.7-0.5,19.8-5,28.3c-5.1,9.7-14.6,16.4-24.5,21.2s-20.4,8.3-29.9,13.8c-21.2,12.3-36,33.9-57.6,45.5
		c-24.6,13.3-56.7,11-79.3-5.2L0,166.9z"/>
	<path class="st9" d="M1200,947.3c-3.9-1.1-7.9-1.9-12-2.4c-16.7-2.1-34.9,1.8-47.1,13.4c-8.9,8.6-14.1,20.6-23.9,28.2
		c-13,10-30.9,9.9-47.3,9.6c-16.4-0.3-34.5,0.3-46.8,11.2c-8.7,7.7-12.8,19.3-15.1,30.7c-3.8,19.2-3.3,39.2,1.7,58.1
		c3.4,12.9,9.1,25.7,19.5,34.1c22.9,18.6,61.4,10.5,80.8,32.7c6.8,7.7,10.1,18.2,17.9,24.9c8.8,7.6,21.3,8.8,32.9,7.7
		c13.8-1.3,27.3-5.3,39.5-11.7L1200,947.3z"/>
	<g class="st0">
		<path class="st10" d="M1200,167.4c0,0-12.3-13.4-28.8-4.1c-16.5,9.3-6.2,25.7-13.4,37c-7.2,11.3-37,37-15.4,63.8
			s57.6,5.7,57.6,5.7V167.4z"/>
		<g>
			<defs>
				<path id="SVGID_5_" d="M1200,167.4c0,0-12.3-13.4-28.8-4.1c-16.5,9.3-6.2,25.7-13.4,37c-7.2,11.3-37,37-15.4,63.8
					s57.6,5.7,57.6,5.7V167.4z"/>
			</defs>
			<clipPath id="SVGID_6_">
				<use xlink:href="#SVGID_5_"  style="overflow:visible;"/>
			</clipPath>
			<path class="st11" d="M1188.8,158.3c4.3,7.2,6.6,15.6,6.4,24c-0.2,6.8-1.9,13.4-2.6,20.1c-0.7,6.5-0.5,13.4,2.5,19.3
				c3.1,6.3,9.1,10.8,15.5,13.5c6.4,2.8,13.4,4,20.3,5.2"/>
			<path class="st11" d="M1150,193.9c5.4,1,11.3,2.3,14.8,6.6c1.8,2.1,2.7,4.7,3.6,7.3c2.4,7.3,4.1,14.9,7,22c1.3,3.2,3,6.4,5.6,8.8
				c3.7,3.3,8.9,4.5,13.8,4.8s10-0.2,14.9,0.5"/>
			<path class="st11" d="M1214,267.1c-14.2-7.8-28.5-15.8-40.8-26.4c-7.1-6.2-13.5-13.2-20.6-19.4c-3.3-2.9-6.7-5.7-9.3-9.3
				c-2.6-3.6-4.2-8-3.3-12.4"/>
			<path class="st11" d="M1132.8,224.5c6,13.5,15.4,26.4,29,32.3c5.2,2.2,10.9,3.4,15.9,6.2c5.6,3.1,9.9,8.2,13.1,13.7
				s5.4,11.6,7.6,17.6"/>
			<path class="st11" d="M1127.4,249c10.8,2.5,20.8,8.1,28.6,16c7.8,7.8,13.4,17.9,15.9,28.6"/>
		</g>
	</g>
</g>
</svg>
