<?xml version="1.0" encoding="utf-8"?>
<!-- Generator: Adobe Illustrator 21.1.0, SVG Export Plug-In . SVG Version: 6.00 Build 0)  -->
<svg version="1.1" id="圖層_1" xmlns="http://www.w3.org/2000/svg" xmlns:xlink="http://www.w3.org/1999/xlink" x="0px" y="0px"
	 viewBox="0 0 140 141" style="enable-background:new 0 0 140 141;" xml:space="preserve">
<style type="text/css">
	.st0{fill:#F6F3EC;}
	.st1{fill:#95E7FC;}
	.st2{fill:#FDBFA7;}
	.st3{fill:#ACE7C9;}
	.st4{fill:#FDC0A8;}
	.st5{fill:#FFD0DE;}
</style>
<g>
	<path class="st0" d="M33.1,37C12.4,41.8,5.9,56.6,2.7,64.8C0.6,70.1,0,78.8,0,84.5c0,9,4,19,9,26.9c8,12.9,24.1,21,38.1,25.1
		c16,4.7,29.2,5,44,3.3c10.9-1.3,20.7-3.9,30.1-9.9c11-7.1,17-21.3,18.3-34.4c1.3-13.1-0.2-23.7-6.7-35c-3.6-6.2-9.4-11-15.9-13.1
		c-5.6-1.8-10.7-1.5-16.6-1c-9.1,0.8-17.7,1.2-26.5-1.4c-5.3-1.6-14-5.5-16.2-6.3c-2.1-0.8-4.3-1.5-6.5-1.9C46,35.8,40,35.4,33.1,37
		z"/>
	<path class="st4" d="M130.1,99c-2.2-2.9-2.7-6.3-3.5-9.6c-1.6-6.5-3.1-13.1-4.6-19.6c-0.4-1.7-0.6-3.8-2.1-4.8
		c-6.3-4.1-7.1-11.1-9.6-17.2c-3-5.3-4.6-11.3-8.7-16c1.2-1.8,2.8-0.9,4.1-0.9c7.5-0.1,11.6-3.7,11.8-10.4c0.2-6.8-4.1-11.5-11-12
		c-2.3-0.2-4.3,0.1-6.1-2.5c-1.8-2.6-6.5-1.3-8.8,1.8c-2.5,3.3-2.4,7.3,1,8.9c2.4,1.1,2.3,2.6,2.5,4.6c0.2,2.8-0.3,3.3-3.1,2
		c-3.1-1.4-6.5-0.9-9.2,1.6c-6.6,6-13.8,11.5-19,18.9c-1.4,2-2.6,2.6-4.1-0.1c-1.7-3.1-3.8-6.1-5.8-9.1c-2.5-3.9-4.6-8.1-9.5-9.9
		c3.9-1.5,6.8-5.2,7.5-9.8c0.4-2.3,0.2-4.6-0.7-6.7c-1.7-4.6-5.9-7.8-10.8-7.8c-6.4,0-11.7,5.6-11.7,12.6c0,4,1.8,7.6,4.5,9.9
		c-7.6,0.5-9.6,2.7-10.8,10.7c-0.6,3.6-1.8,7.2-2.7,10.8c-1.4,9.4-3.5,18.8-2.7,28.4c0.1,1.7-0.5,3.5-0.5,5.3
		c-0.1,7.9-2.4,15.6-2.1,23.6c0.1,3.4,1.7,5.3,5.1,5.5c3.5,0.3,5.9-1,6.5-4.6c1.3-8.5,2.4-17.1,3.6-25.6c0.3-2.2-0.5-6.2,2.1-6.1
		c3.3,0.1,2.2,4.2,2.4,6.6c0.7,8.2,1.2,16.3,2,24.5c0.4,3.9,2.9,5.5,6.9,5.3c3.9-0.3,4.7-2.7,4.6-5.8c0-4.2,0-8.3-0.6-12.5
		c-2-12.2-1.4-24.3,1.7-36.3c0.2-0.9,0.1-2.7,2.1-2c4.9,1.8,9.1,8.5,8.4,13.8c-0.6,4.9-1.1,9.8-1.6,14.6c-0.3,2.5,0,5.3,2.3,6.4
		c4,2.1,4.2,5.4,3.9,9.1c-0.1,2.2,0,4.5,0,6.7c0,3.6,1.1,6.1,5.4,5.9c4.4-0.2,6.1-1.7,6.2-6.3c0.1-3.2,0-6.5,0-9.7
		c1.1,3.6,0.8,7.2,1.1,10.7c0.3,4,2.8,5.5,6.8,5.3c3.8-0.2,4.8-2.3,4.7-5.6c0-3.1,0-6.3,0-9.4c0-1.9,0.1-4,1.7-4.9
		c5.2-2.9,5-7.1,3.8-12c-0.9-3.7-0.9-7.8-2.1-11.4c-1.8-5.6,0.2-9.3,4.3-12.9c2.5-2.2,3.5-2,4.6,0.9c1,2.5,2.1,4.9,3.2,7.4
		c0.6,1.3,0.8,2.6,0.1,3.9c-6.5,12-5.5,26.3-11.8,38.3c-0.8,1.5-0.9,3.6,0.8,5c1.1,0.9,2.6,0.8,3.9,0.4c1.9-0.6,2.2-2.4,2.1-4
		c-0.5-7,2-13.5,3.5-20.2c0.5-2.5,1.5-4.6,4.3-4.1c4.6,0.8,9.9-2.6,13.7,2.4c0.1,0.1,0.1,0.3,0.1,0.4c1.5,6.1,3.6,12,3.6,18.4
		c0,1.8-0.1,3.6,0.7,5.3c0.9,1.8,2.3,2.2,4,2c1.9-0.2,2.4-1.5,2.4-3.2C131,102.1,131.2,100.4,130.1,99z M118.2,73.6
		c-0.7,1.6-2.3,0.9-3.6,1c-1.2,0.1-2.4,0-3.6,0c-0.7,0-1.5,0.1-2.2,0c-1.6-0.4-4.6,1.2-4.5-2c0.1-2.6,0.8-5.7,4.3-5.9
		c3.1-0.2,6.4-0.8,8.7,2.2C118.2,70.3,118.9,71.9,118.2,73.6z"/>
</g>
</svg>
