<?xml version="1.0" encoding="utf-8"?>
<!-- Generator: Adobe Illustrator 21.1.0, SVG Export Plug-In . SVG Version: 6.00 Build 0)  -->
<svg version="1.1" id="圖層_1" xmlns="http://www.w3.org/2000/svg" xmlns:xlink="http://www.w3.org/1999/xlink" x="0px" y="0px"
	 viewBox="0 0 140 141" style="enable-background:new 0 0 140 141;" xml:space="preserve">
<style type="text/css">
	.st0{fill:#F6F3EC;}
	.st1{fill:#95E7FC;}
	.st2{fill:#FDBFA7;}
	.st3{fill:#ACE7C9;}
	.st4{fill:#FDC0A8;}
	.st5{fill:#FFD0DE;}
</style>
<g>
	<path class="st0" d="M18.5,56.6C0.7,68.5-1.2,85.7,0.5,93.9c1,5.3,2.6,10.5,5.3,15.2c4.4,7.9,10,15.3,17.3,20.5
		c11.9,8.5,28.1,11.5,42.6,10c16.6-1.7,29-6.3,42.3-13.3c9.8-5.1,18.1-11.1,24.8-19.9c7.9-10.3,8.6-25.1,5.4-37.2
		s-8.3-20.9-18.3-28.5c-5.5-4.1-12.5-6.3-19.4-5.7c-5.9,0.5-10.6,2.6-15.8,5.3c-8.2,4.1-16.2,7.6-25.3,8.5c-5.5,0.6-15,0.3-17.3,0.4
		c-2.3,0.1-4.5,0.3-6.8,0.7C30.2,50.8,24.4,52.6,18.5,56.6z"/>
	<path class="st3" d="M72.5,1L15.9,57.6h14.2v47.2H115V57.6h14.2L72.5,1z M72.5,85.9c-7.6-7.7-14.2-13.4-14.2-19
		c0-8.1,11.4-10.2,14.2-2.2c2.7-8,14.2-5.9,14.2,2.2C86.7,72.5,80.1,78.3,72.5,85.9z M110.3,29.8L96.1,15.6V5.7h14.2V29.8z"/>
</g>
</svg>
