<?xml version="1.0" encoding="utf-8"?>
<!-- Generator: Adobe Illustrator 21.1.0, SVG Export Plug-In . SVG Version: 6.00 Build 0)  -->
<svg version="1.1" id="圖層_1" xmlns="http://www.w3.org/2000/svg" xmlns:xlink="http://www.w3.org/1999/xlink" x="0px" y="0px"
	 viewBox="0 0 140 141" style="enable-background:new 0 0 140 141;" xml:space="preserve">
<style type="text/css">
	.st0{fill:#F6F3EC;}
	.st1{fill:#95E7FC;}
	.st2{fill:#FDBFA7;}
	.st3{fill:#ACE7C9;}
	.st4{fill:#FDC0A8;}
	.st5{fill:#FFD0DE;}
</style>
<g>
	<path class="st0" d="M26.9,38.5C17.8,43,7.8,53.3,4.2,62.8S-1,81.5,0.7,91.5c4.4,26.2,39.1,40.1,48.8,42.1
		c12.4,2.6,25.1,4.8,37.8,3.6c10-1,19.8-4.2,28.8-8.7c6.9-3.4,13.7-7.7,18.1-14c6.4-9.2,6.8-21.4,4.6-32.3
		c-1.5-7.2-4.1-14.4-9.3-19.5c-5.5-5.4-13.3-7.9-20.9-9.1c-7.6-1.2-15.4-1.2-23-2.7c-5.4-1-10.6-2.7-15.6-5.1
		c-4.6-2.2-8.5-5.8-13.1-7.7C47.1,34.2,36.3,33.8,26.9,38.5z"/>
	<path class="st2" d="M50,33.7c1.6-1.2,3.5-1.7,5.3-1.7c3.9,0,7.6,2.5,8.8,6.6c-1.6-1.2-3.4-1.8-5.3-1.8c-1.9,0-3.8,0.6-5.4,1.8
		c-3.3,2.3-4.7,6.3-3.5,10.1C44.9,45,44.8,37.4,50,33.7z M65.3,86.1c4.1,1.4,16.7,4.9,31.3,15.8l27.1-19.3
		c-7-9.8-5.1-16.7-12.1-26.5c-4.8-6.7-7.5-6.8-12.5-5.9l2.5,3.4c1.5,2.1-1.7,4.3-3.1,2.2l-2.2-3.1c-1.8-2.5-5.2-0.9-8.4-0.2l3,4.2
		c1.5,2.1-1.7,4.3-3.1,2.2l-2.6-3.6c-1.8-2.6-5.4-0.9-8.6,0l3.2,4.4c1.5,2.1-1.7,4.3-3.1,2.2L63.8,44c-4-5.6-12.7,0.3-8.6,6.1
		l18.9,26.5c-2-0.8-5.6-1.4-7.9-1.4C59,75.2,56.3,83.1,65.3,86.1z M51.8,77.2H33.5V19.8h41v27.4l8.2-1.9V11.6c0-4.5-3.7-8.2-8.2-8.2
		h-41c-4.5,0-8.2,3.7-8.2,8.2v76.6c0,9.1,14.4,13.6,28.7,13.6c7.4,0,14.8-1.2,20.3-3.7C65.6,94.3,48.1,91.7,51.8,77.2z"/>
</g>
</svg>
