<?xml version="1.0" encoding="utf-8"?>
<!-- Generator: Adobe Illustrator 21.1.0, SVG Export Plug-In . SVG Version: 6.00 Build 0)  -->
<svg version="1.1" id="圖層_1" xmlns="http://www.w3.org/2000/svg" xmlns:xlink="http://www.w3.org/1999/xlink" x="0px" y="0px"
	 viewBox="0 0 140 141" style="enable-background:new 0 0 140 141;" xml:space="preserve">
<style type="text/css">
	.st0{fill:#F6F3EC;}
	.st1{fill:#95E7FC;}
	.st2{fill:#FDBFA7;}
	.st3{fill:#ACE7C9;}
	.st4{fill:#FDC0A8;}
	.st5{fill:#FFD0DE;}
</style>
<g>
	<path class="st0" d="M33.8,29.6C12.5,33.1,3.5,48.3,1.6,56.5c-1.2,5.3-2,10.8-1.5,16.2C1,81.8,3,91,7.6,98.8
		c7.5,12.8,21.1,22.3,35.2,27c16,5.3,29.4,6.2,44.6,5.3c11.2-0.7,21.3-2.7,31.2-8c11.6-6.2,18.4-19.6,20.5-32.1
		c2.1-12.5,1.1-22.7-5-33.9c-3.3-6.1-8.9-11.1-15.5-13.4c-5.6-2-10.8-2-16.8-1.8c-9.3,0.3-18.1,0.2-26.9-2.7c-5.3-1.8-14-6-16.1-6.9
		c-2.1-0.9-4.3-1.6-6.6-2.2C47,29.1,40.9,28.4,33.8,29.6z"/>
	<path class="st1" d="M96.8,29.4c-1.4-1.4-1.3-3.6,0.1-5l14.3-13.9c0.7-0.7,1.6-1,2.5-1c0.9,0,1.8,0.4,2.5,1.1
		C116.2,10.6,96.8,29.4,96.8,29.4z M73.3,64.7c-0.3,0.3-0.4,0.7-0.4,1.1c0,0.8,0.7,1.5,1.5,1.5c0.4,0,0.7-0.1,1-0.4l2.4-2.3l-2-2.1
		L73.3,64.7z M93.6,37.7l-8.2,8c-4.4,4.3-6.7,8.4-8.8,14.2l3.6,3.7c5.8-1.9,10.1-4,14.5-8.3l8.2-8C102.9,47.4,93.6,37.7,93.6,37.7z
		 M117.5,13.2L96.4,33.7l10.7,11l21.2-20.5c1.6-1.5,2.3-3.5,2.3-5.5C130.5,12,122.4,8.4,117.5,13.2z M68.7,63.1H52.2v4.1h16.5V63.1z
		 M105.8,57.5v7.8c0,16.9-24.7,10.1-24.7,10.1s6.3,24.7-10.9,24.7H39.9V17.8h52.1l8.5-8.2H31.6v98.9h42c13,0,40.4-29.8,40.4-39.6
		V49.5C114.1,49.5,105.8,57.5,105.8,57.5z"/>
</g>
</svg>
