<?xml version="1.0" encoding="utf-8"?>
<!-- Generator: Adobe Illustrator 21.1.0, SVG Export Plug-In . SVG Version: 6.00 Build 0)  -->
<svg version="1.1" id="圖層_1" xmlns="http://www.w3.org/2000/svg" xmlns:xlink="http://www.w3.org/1999/xlink" x="0px" y="0px"
	 viewBox="0 0 140 141" style="enable-background:new 0 0 140 141;" xml:space="preserve">
<style type="text/css">
	.st0{fill:#F6F3EC;}
	.st1{fill:#95E7FC;}
	.st2{fill:#FDBFA7;}
	.st3{fill:#ACE7C9;}
	.st4{fill:#FDC0A8;}
	.st5{fill:#FFD0DE;}
</style>
<g>
	<path class="st0" d="M9.1,53.8c-8.8,10.8-11,25.4-7.7,39s12,27.3,24.7,33c9.4,4.2,20,7.4,30.2,7.3c17.9,0,35.4-6.5,52.5-11.6
		c6.4-1.9,13-4.3,18-8.8c6.3-5.6,9.6-13.8,11.3-22c4.1-18.9,1-39.4-9.3-55.7c-3.7-5.8-8.5-11.3-15-13.6c-7.3-2.7-15.6-0.9-22.7,2.3
		s-13.5,7.9-20.5,11.3c-4.8,2.3-8.1,4.5-13.4,4.7c-3.7,0.2-10.1,0-14.7,0c-8.4,0-15.2,0-22.1,4.2C16.3,46.5,12.4,49.9,9.1,53.8z"/>
	<path class="st5" d="M116.8,40.5h-9.7c0.8-2.3,1.2-4.5,1.2-6.6c0-10.8-8.5-17.6-18.7-16.6c-12.5,1.1-21,17.3-23.2,20.9
		c-2.5-4-10.5-19.7-23.2-20.9c-9.8-0.9-18.7,5.5-18.7,16.7c0,14.5,20.2,33,41.9,54c5.4-5.2,10.6-10.3,15.5-15.1l4.5,8.6
		c-6.1,6.1-12.9,12.5-20,19.5C37.8,72.9,15.3,53.5,15.3,34c0-15.3,11.5-25.7,26.4-26c10.1,0,19.2,4.5,24.8,13.7
		C71.9,12.6,81.1,8,90.9,8c14.3,0,26.7,9.8,26.7,26C117.6,36.2,117.4,38.3,116.8,40.5z M65.2,59.1c-1.6,2.8-4.6,4.7-8.1,4.7
		c-5.1,0-9.3-4.2-9.3-9.3s4.2-9.3,9.3-9.3c3.4,0,6.4,1.9,8.1,4.7h5.7l8.7-12.6c0.7-0.9,1.7-1.5,2.9-1.4c1.1,0.1,2.2,0.7,2.7,1.8
		l10.6,20.6l3.8-6.7c0.6-1,1.7-1.7,2.8-1.7h24.5v9.3h-21l-8.2,13.5c-0.6,1-1.7,1.6-2.9,1.6c-1.2,0-2.3-0.7-2.8-1.8L81.6,51.2
		L77,57.7c-0.6,0.9-1.6,1.4-2.7,1.4C74.3,59.1,65.2,59.1,65.2,59.1z"/>
</g>
</svg>
