<?xml version="1.0" encoding="utf-8"?>
<!-- Generator: Adobe Illustrator 21.1.0, SVG Export Plug-In . SVG Version: 6.00 Build 0)  -->
<svg version="1.1" id="圖層_1" xmlns="http://www.w3.org/2000/svg" xmlns:xlink="http://www.w3.org/1999/xlink" x="0px" y="0px"
	 viewBox="0 0 85 85" style="enable-background:new 0 0 85 85;" xml:space="preserve">
<style type="text/css">
	.st0{fill:#9E9384;}
	.st1{fill:#FFFFFF;}
	.st2{fill:#F9ECCC;}
	.st3{fill:#FFBD00;}
	.st4{fill:#DDDEE2;}
	.st5{fill:#2F9AD6;}
	.st6{fill:#E6343A;}
	.st7{fill:#E6F5FD;}
	.st8{fill:#FFB297;}
	.st9{fill:#FD936F;}
	.st10{fill:#666666;}
	.st11{fill:#DF6919;}
	.st12{fill:#FFCAB2;}
	.st13{fill:#E79776;}
	.st14{fill:#F8A64D;}
	.st15{fill:#FB74AE;}
	.st16{fill:#95EEFF;}
	.st17{fill:#4CBED3;}
	.st18{fill:#E5E5E5;}
	.st19{fill:#44C768;}
	.st20{fill:#7EE4F1;}
	.st21{fill:#4CE066;}
	.st22{fill:#A7EDFB;}
	.st23{fill:#FFDA56;}
	.st24{fill:#FFBA24;}
	.st25{fill:#FF4A4A;}
	.st26{fill:#E6343F;}
</style>
<g>
	<circle class="st2" cx="42.5" cy="42.5" r="42.5"/>
	<g>
		<g>
			<g>
				<path class="st11" d="M30.6,32.8h23.7c2.3,0,4.1,1.8,4.1,4.1v0.4c0,2.3-1.8,4.1-4.1,4.1H30.6c-2.3,0-4.1-1.8-4.1-4.1v-0.4
					C26.5,34.6,28.4,32.8,30.6,32.8z"/>
				<path class="st12" d="M61.1,45.7c0,2.3-1.8,4.3-4.1,4.4c-0.1,0-0.2,0-0.4,0c-0.3,0-0.6,0-0.9-0.1H28.9c-0.3,0.1-0.6,0.1-0.9,0.1
					h0c-2.5,0-4.4-2-4.4-4.4c0-2.3,1.8-4.2,4-4.4c0.1,0,0.3,0,0.4,0c0.2,0,0.4,0,0.6,0h27.5c0.2,0,0.4,0,0.6,0c0.3,0,0.5,0,0.8,0.1
					C59.5,41.7,61.1,43.5,61.1,45.7z"/>
				<path class="st13" d="M57.4,41.3V47c0,1.1-0.1,2.2-0.4,3.2c-0.1,0-0.2,0-0.4,0c-0.3,0-0.6,0-0.9-0.1H28.9
					c-0.3,0.1-0.6,0.1-0.9,0.1h0c-0.3-1-0.4-2.1-0.4-3.2v-5.7c0.1,0,0.3,0,0.4,0c0.2,0,0.4,0,0.6,0h27.5c0.2,0,0.4,0,0.6,0
					C56.9,41.3,57.1,41.3,57.4,41.3z"/>
				<path class="st13" d="M56.1,39.3v9.2c0,6.6-4.7,12.1-11,13.3c-0.8,0.2-1.7,0.2-2.6,0.2c-7.5,0-13.6-6.1-13.6-13.6v-9.2
					c0-7.5,6.1-13.6,13.6-13.6c0.9,0,1.7,0.1,2.6,0.2c2.7,0.5,5.1,1.9,7,3.7C54.6,32.1,56.1,35.5,56.1,39.3z"/>
				<path class="st12" d="M56.1,39.3v9.2c0,6.6-4.7,12.1-11,13.3c-6.3-1.2-11-6.7-11-13.3v-9.2c0-6.6,4.7-12.1,11-13.3
					c2.7,0.5,5.1,1.9,7,3.7C54.6,32.1,56.1,35.5,56.1,39.3z"/>
				<path class="st14" d="M55.3,19.3l-6.1,6.1c-0.5-1.3-1.8-2.2-3.2-2.2c-1.2,0-2.2,0.6-2.9,1.5c-1.6-2-4-3.2-6.7-3.2
					c-4.8,0-8.7,3.9-8.7,8.7s3.9,8.7,8.7,8.7c2,0,3.8-0.7,5.3-1.8c4.3,2.5,9.9,1.9,13.6-1.8C59.7,30.9,59.7,23.7,55.3,19.3z"/>
				<path class="st11" d="M32.9,30.2c0,3.9,2.6,7.2,6.1,8.3c-0.8,0.3-1.7,0.4-2.6,0.4c-4.8,0-8.7-3.9-8.7-8.7s3.9-8.7,8.7-8.7
					c0.9,0,1.8,0.1,2.6,0.4C35.4,23.1,32.9,26.4,32.9,30.2z"/>
				<path class="st15" d="M45.8,52.3c0-1.8-1.5-2.2-3.3-2.2c-1.8,0-3.3,0.4-3.3,2.2s1.5,3.3,3.3,3.3C44.3,55.6,45.8,54.1,45.8,52.3z
					"/>
			</g>
			<path class="st16" d="M22,66.2l2.7,2.7c3,3,7.9,3,11,0l1.4-1.4c0.5-0.5,0.5-1.4,0-1.9l-1-1l-0.9-0.9L33.4,62
				c-0.5-0.5-1.4-0.5-1.9,0l-1.8,1.8c-0.9,0.9-2.4,0.9-3.4,0L21,58.4c-0.9-0.9-0.9-2.4,0-3.4l1.8-1.8c0.5-0.5,0.5-1.4,0-1.9
				l-3.6-3.6c-0.5-0.5-1.4-0.5-1.9,0l-1.4,1.4c-3,3-3,7.9,0,11l5.3,5.3L22,66.2z"/>
			<path class="st17" d="M37.1,67.5C37.1,67.5,37.1,67.5,37.1,67.5l-1.4,1.4c-3,3-7.9,3-11,0l-8.8-8.8c-3-3-3-7.9,0-11l1.4-1.4
				c-3,3-3,7.9,0,10.9l5.3,5.3l0.9,0.9l2.7,2.7C29.1,70.5,34.1,70.5,37.1,67.5z"/>
			<path class="st18" d="M31.6,62l-1.4,1.4l5.5,5.5l1.4-1.4c0.5-0.5,0.5-1.4,0-1.9l-1-1l-0.9-0.9L33.4,62
				C32.9,61.5,32.1,61.5,31.6,62z"/>
			<path class="st18" d="M15.9,49.1l5.5,5.5l1.4-1.4c0.5-0.5,0.5-1.4,0-1.9l-3.6-3.6c-0.5-0.5-1.4-0.5-1.9,0L15.9,49.1z"/>
		</g>
		<g>
			<path class="st10" d="M36.6,42.5c-0.5,0-0.9,0.4-0.9,0.9v3.3c0,0.5,0.4,0.9,0.9,0.9c0.5,0,0.9-0.4,0.9-0.9v-3.3
				C37.5,42.9,37.1,42.5,36.6,42.5z"/>
			<path class="st10" d="M48.4,42.5c-0.5,0-0.9,0.4-0.9,0.9v3.3c0,0.5,0.4,0.9,0.9,0.9c0.5,0,0.9-0.4,0.9-0.9v-3.3
				C49.3,42.9,48.9,42.5,48.4,42.5z"/>
			<path class="st10" d="M22.7,45.7c0,2.9,2.4,5.3,5.3,5.3c0.1,0,0.2,0,0.2,0c1.2,6.8,7.1,12,14.2,12c0.9,0,1.8-0.1,2.7-0.3
				c6-1.1,10.5-5.9,11.5-11.7c2.9-0.1,5.2-2.4,5.2-5.3c0-2.5-1.7-4.5-3.9-5.1c0.8-0.9,1.3-2.1,1.3-3.4v-0.4c0-1.3-0.5-2.6-1.5-3.5
				c2.6-4.6,2-10.7-2-14.6c-0.2-0.2-0.4-0.3-0.6-0.3c-0.2,0-0.5,0.1-0.6,0.3L49.4,24c-0.8-1-2-1.6-3.4-1.6c-1.1,0-2.1,0.4-2.9,1.1
				c-1.8-1.8-4.2-2.8-6.7-2.8c-5.3,0-9.6,4.3-9.6,9.6c0,1,0.2,2,0.5,3c-1,0.9-1.6,2.3-1.6,3.6v0.4c0,1.2,0.5,2.4,1.2,3.3
				C24.5,41,22.7,43.1,22.7,45.7z M60.2,45.7c0,1.9-1.4,3.4-3.3,3.6c0-0.2,0-0.5,0-0.7v-2.9c0.3,0,0.7,0.2,0.9,0.6
				c0.1,0.3,0.5,0.5,0.8,0.5c0.1,0,0.2,0,0.4-0.1c0.4-0.2,0.7-0.7,0.5-1.2c-0.5-1.2-1.6-1.6-2.5-1.6v-1.7
				C58.8,42.3,60.2,43.9,60.2,45.7z M57.6,36.9v0.4c0,0.7-0.2,1.3-0.6,1.9c0-1.3-0.2-2.5-0.5-3.7c0.1-0.2,0.3-0.3,0.4-0.5
				C57.3,35.4,57.6,36.1,57.6,36.9z M36.4,22.4c2.4,0,4.6,1.1,6.1,2.9c0.2,0.2,0.4,0.3,0.7,0.3c0.3,0,0.5-0.2,0.7-0.4
				c0.5-0.7,1.3-1.1,2.1-1.1c1.1,0,2,0.6,2.4,1.6c0.1,0.3,0.4,0.5,0.6,0.5c0.3,0.1,0.6,0,0.8-0.2l5.4-5.4c3.4,4.1,3.3,10.2-0.6,14.1
				c-0.5,0.5-1,0.9-1.6,1.3c-0.4,0.3-0.5,0.8-0.2,1.2c0.3,0.4,0.8,0.5,1.2,0.2c0.3-0.2,0.6-0.4,0.9-0.7c0.2,0.8,0.3,1.7,0.3,2.5v9.2
				c0,6.1-4.3,11.3-10.3,12.5c-0.8,0.2-1.6,0.2-2.4,0.2c-7,0-12.7-5.7-12.7-12.7v-9.2c0-0.7,0.1-1.3,0.1-1.9
				c1.7,1.5,3.9,2.5,6.4,2.5c1.9,0,3.8-0.6,5.4-1.7c2.8,1.4,6.1,1.7,9.1,0.8c0.5-0.1,0.7-0.6,0.6-1.1c-0.1-0.5-0.6-0.7-1.1-0.6
				c-2.8,0.8-5.8,0.5-8.2-0.9c-0.3-0.2-0.7-0.2-1,0.1c-1.4,1.1-3,1.6-4.8,1.6c-4.3,0-7.8-3.5-7.8-7.8S32,22.4,36.4,22.4z M28.5,35.7
				c-0.3,1.1-0.4,2.2-0.5,3.4c-0.4-0.5-0.6-1.2-0.6-1.9v-0.4c0-0.7,0.2-1.3,0.6-1.9C28.2,35.2,28.3,35.5,28.5,35.7z M28,42.1
				C28,42.1,28,42.1,28,42.1l0,1.7c-1.3,0.1-2.1,0.8-2.4,1.6c-0.2,0.4,0,1,0.5,1.2c0.1,0,0.2,0.1,0.4,0.1c0.3,0,0.7-0.2,0.8-0.5
				c0.2-0.4,0.5-0.5,0.8-0.6v2.9c0,0.2,0,0.5,0,0.7c0,0,0,0,0,0c-2,0-3.6-1.6-3.6-3.6C24.4,43.7,26,42.1,28,42.1z"/>
			<path class="st10" d="M42.5,49.2c-1,0-4.2,0-4.2,3.1c0,2.3,1.9,4.2,4.2,4.2s4.2-1.9,4.2-4.2C46.7,49.2,43.5,49.2,42.5,49.2z
				 M42.5,54.7c-1.4,0-2.4-1.1-2.4-2.4c0-0.7,0.2-1.3,2.4-1.3c2.3,0,2.4,0.6,2.4,1.3C44.9,53.6,43.8,54.7,42.5,54.7z"/>
			<path class="st10" d="M63.5,21.5c-5.6-5.6-13.1-8.7-21-8.7s-15.4,3.1-21,8.7s-8.7,13.1-8.7,21c0,0.5,0.4,0.9,0.9,0.9
				c0.5,0,0.9-0.4,0.9-0.9c0-7.5,2.9-14.5,8.2-19.8s12.3-8.2,19.8-8.2s14.5,2.9,19.8,8.2s8.2,12.3,8.2,19.8S67.6,57,62.3,62.3
				S50,70.5,42.5,70.5c-2.2,0-4.3-0.3-6.4-0.7c0.1-0.1,0.2-0.1,0.2-0.2l1.4-1.4c0.9-0.9,0.9-2.3,0-3.1l-3.6-3.6
				c-0.9-0.9-2.3-0.9-3.1,0l-1.8,1.8c-0.6,0.6-1.5,0.6-2.1,0l-5.4-5.4c-0.6-0.6-0.6-1.5,0-2.1l0.4-0.4c0,0,0,0,0,0c0,0,0,0,0,0
				l1.4-1.4c0.9-0.9,0.9-2.3,0-3.1l-3.6-3.6c-0.9-0.9-2.3-0.9-3.1,0l-1.4,1.4c0,0,0,0,0,0c0,0,0,0,0,0c-3.4,3.4-3.4,8.9,0,12.2
				l1.5,1.5c0.3,0.3,0.9,0.3,1.2,0c0.3-0.3,0.3-0.9,0-1.2l-1.5-1.5c-2.5-2.5-2.7-6.4-0.6-9.1l4.2,4.2c-0.5,0.6-0.8,1.3-0.8,2.1
				c0,0.9,0.3,1.7,1,2.3l5.4,5.4c0.6,0.6,1.4,1,2.3,1c0.8,0,1.5-0.3,2.1-0.8l4.2,4.2c-2.7,2.1-6.6,1.9-9.1-0.6L20.1,63
				c-0.3-0.3-0.9-0.3-1.2,0c-0.3,0.3-0.3,0.9,0,1.2l5.2,5.2c1.7,1.7,3.9,2.5,6.1,2.5c1.4,0,2.7-0.3,4-1c2.7,0.8,5.5,1.2,8.3,1.2
				c7.9,0,15.4-3.1,21-8.7s8.7-13.1,8.7-21S69.1,27.1,63.5,21.5z M18.6,48.4l3.6,3.6c0.1,0.1,0.1,0.2,0.1,0.3s0,0.2-0.1,0.3
				l-0.8,0.8l-4.2-4.2l0.8-0.8C18.1,48.2,18.4,48.2,18.6,48.4z M32.5,62.5c0.1,0,0.2,0,0.3,0.1l3.6,3.6c0.2,0.2,0.2,0.5,0,0.6
				l-0.8,0.8l-4.2-4.2l0.8-0.8C32.3,62.5,32.4,62.5,32.5,62.5z"/>
		</g>
	</g>
</g>
</svg>
