<?xml version="1.0" encoding="utf-8"?>
<!-- Generator: Adobe Illustrator 21.1.0, SVG Export Plug-In . SVG Version: 6.00 Build 0)  -->
<svg version="1.1" id="圖層_1" xmlns="http://www.w3.org/2000/svg" xmlns:xlink="http://www.w3.org/1999/xlink" x="0px" y="0px"
	 viewBox="0 0 26 26" style="enable-background:new 0 0 26 26;" xml:space="preserve">
<style type="text/css">
	.st0{fill:#9E9384;}
	.st1{fill:#FFFFFF;}
	.st2{fill:#F9ECCC;}
	.st3{fill:#FFBD00;}
	.st4{fill:#DDDEE2;}
	.st5{fill:#2F9AD6;}
	.st6{fill:#E6343A;}
	.st7{fill:#E6F5FD;}
	.st8{fill:#FFB297;}
	.st9{fill:#FD936F;}
	.st10{fill:#666666;}
	.st11{fill:#DF6919;}
	.st12{fill:#FFCAB2;}
	.st13{fill:#E79776;}
	.st14{fill:#F8A64D;}
	.st15{fill:#FB74AE;}
	.st16{fill:#95EEFF;}
	.st17{fill:#4CBED3;}
	.st18{fill:#E5E5E5;}
	.st19{fill:#44C768;}
	.st20{fill:#7EE4F1;}
	.st21{fill:#4CE066;}
	.st22{fill:#A7EDFB;}
	.st23{fill:#FFDA56;}
	.st24{fill:#FFBA24;}
	.st25{fill:#FF4A4A;}
	.st26{fill:#E6343F;}
</style>
<g>
	<circle class="st0" cx="13" cy="13" r="13"/>
	<path class="st1" d="M20.4,16.1c0,0.8-0.2,1.3-0.3,1.8c-0.4,1-1.2,1.8-2.2,2.2c-0.5,0.2-1,0.3-1.8,0.3c-0.8,0-1.1,0-3.1,0
		c-2,0-2.3,0-3.1,0c-0.8,0-1.3-0.2-1.8-0.3c-0.5-0.2-0.9-0.5-1.3-0.9c-0.4-0.4-0.7-0.8-0.9-1.3c-0.2-0.5-0.3-1-0.3-1.8
		c0-0.8,0-1.1,0-3.1s0-2.3,0-3.1c0-0.8,0.2-1.3,0.3-1.8c0.2-0.5,0.5-0.9,0.9-1.3c0.4-0.4,0.8-0.7,1.3-0.9c0.5-0.2,1-0.3,1.8-0.3
		c0.8,0,1.1,0,3.1,0s2.3,0,3.1,0c0.8,0,1.3,0.2,1.8,0.3c0.5,0.2,0.9,0.5,1.3,0.9c0.4,0.4,0.7,0.8,0.9,1.3c0.2,0.5,0.3,1,0.3,1.8
		c0,0.8,0,1.1,0,3.1S20.5,15.3,20.4,16.1z"/>
	<path class="st0" d="M18.8,8.6c-0.1-0.3-0.3-0.6-0.6-0.9c-0.2-0.2-0.5-0.4-0.9-0.6C17.1,7.1,16.7,7,16,6.9c-0.8,0-1,0-3,0
		c-2,0-2.2,0-3,0C9.3,7,8.9,7.1,8.6,7.2C8.3,7.3,8,7.5,7.7,7.7C7.5,8,7.3,8.3,7.2,8.6C7.1,8.9,7,9.3,6.9,10c0,0.8,0,1,0,3
		c0,2,0,2.2,0,3c0,0.7,0.2,1.1,0.3,1.4c0.1,0.3,0.3,0.6,0.6,0.9c0.2,0.2,0.5,0.4,0.9,0.6c0.3,0.1,0.7,0.2,1.4,0.3c0.8,0,1,0,3,0
		c2,0,2.2,0,3,0c0.7,0,1.1-0.2,1.4-0.3c0.7-0.3,1.2-0.8,1.4-1.4c0.1-0.3,0.2-0.7,0.3-1.4c0-0.8,0-1,0-3c0-2,0-2.2,0-3
		C19,9.3,18.9,8.9,18.8,8.6z"/>
	<g>
		<circle class="st1" cx="13" cy="13" r="3.8"/>
		<circle class="st1" cx="17" cy="9" r="0.9"/>
		<path class="st0" d="M15.5,13c0,1.4-1.1,2.5-2.5,2.5s-2.5-1.1-2.5-2.5s1.1-2.5,2.5-2.5S15.5,11.6,15.5,13z"/>
	</g>
</g>
</svg>
