<?xml version="1.0" encoding="utf-8"?>
<!-- Generator: Adobe Illustrator 21.1.0, SVG Export Plug-In . SVG Version: 6.00 Build 0)  -->
<svg version="1.1" id="圖層_1" xmlns="http://www.w3.org/2000/svg" xmlns:xlink="http://www.w3.org/1999/xlink" x="0px" y="0px"
	 viewBox="0 0 1200 580" style="enable-background:new 0 0 1200 580;" xml:space="preserve">
<style type="text/css">
	.st0{fill:#FFAF00;}
	.st1{fill:#DBDBDB;}
	.st2{fill:#FFFFFF;}
	.st3{fill:#EBEBEB;}
	.st4{fill:#263238;}
	.st5{fill:#455A64;}
	.st6{fill:#37474F;}
	.st7{fill:#C7C7C7;}
	.st8{opacity:0.2;fill:#A6A6A6;enable-background:new    ;}
	.st9{fill:#D3766A;}
	.st10{opacity:0.1;enable-background:new    ;}
	.st11{opacity:0.2;enable-background:new    ;}
	.st12{fill:#FF97B8;}
	.st13{opacity:0.2;}
	.st14{fill:#F7A9A0;}
	.st15{fill:#FF99BA;}
	.st16{fill:#F5F5F5;}
</style>
<path class="st0" d="M125.7,0c4.8,3.8,10.7,6.5,16.5,8.6c19,6.7,40.7-8.6,75.8,10.3c36.6,19.6,58.5,86.6,9.2,135.6
	c-28.4,28.2-71.1,23.4-103.3,47.1c-11.8,8.7-20.4,21.6-33.4,28.2c-15,7.6-34.1,4.9-47.5-5.1c-13.4-10-21.3-26.6-22.3-43.4
	c-1-16.8,1.6-35.8-1.2-52.4C17.1,115,6.8,98.3,0,95.2L0,0L125.7,0z"/>
<g>
	<g id="freepik--background-complete--inject-5">
		<rect x="413.9" y="136.4" class="st1" width="139.1" height="213.3"/>
		<rect x="421.4" y="144.9" class="st2" width="58.7" height="94.9"/>
		<rect x="486.6" y="144.9" class="st2" width="58.7" height="94.9"/>
		<rect x="421.4" y="246.2" class="st2" width="58.7" height="94.9"/>
		<rect x="486.6" y="246.2" class="st2" width="58.7" height="94.9"/>
		<rect x="413.9" y="136.4" class="st3" width="32.9" height="305.1"/>
		<polygon class="st2" points="440.6,150.9 440.8,183.9 440.9,216.9 441.1,282.8 440.9,348.8 440.8,381.8 440.6,414.8 440.3,381.8 
			440.2,348.8 440,282.8 440.2,216.9 440.3,183.9 		"/>
		<polygon class="st2" points="425.4,158.5 425.7,188 425.8,217.4 426,276.4 425.8,335.3 425.7,364.7 425.4,394.2 425.2,364.7 
			425,335.3 424.9,276.4 425,217.4 425.2,188 		"/>
		<polygon class="st2" points="433,165.5 433.3,200 433.3,234.5 433.5,303.5 433.3,372.4 433.3,406.9 433,441.4 432.7,406.9 
			432.6,372.4 432.5,303.5 432.6,234.5 432.7,200 		"/>
		<polygon class="st2" points="419.8,152.6 420.1,188.7 420.1,224.8 420.3,297 420.1,369.2 420.1,405.3 419.8,441.4 419.5,405.3 
			419.5,369.2 419.3,297 419.5,224.8 419.5,188.7 		"/>
		<rect x="520" y="136.4" class="st3" width="32.9" height="305.1"/>
		<polygon class="st2" points="526.2,150.9 526.5,183.9 526.6,216.9 526.8,282.8 526.6,348.8 526.5,381.8 526.2,414.8 526,381.8 
			525.9,348.8 525.7,282.8 525.9,216.9 526,183.9 		"/>
		<polygon class="st2" points="541.4,158.5 541.6,188 541.8,217.4 541.9,276.4 541.8,335.3 541.6,364.7 541.4,394.2 541.1,364.7 
			541,335.3 540.8,276.4 541,217.4 541.1,188 		"/>
		<polygon class="st2" points="533.8,165.5 534.1,200 534.2,234.5 534.3,303.5 534.2,372.4 534.1,406.9 533.8,441.4 533.6,406.9 
			533.5,372.4 533.3,303.5 533.5,234.5 533.6,200 		"/>
		<polygon class="st2" points="547,152.6 547.3,188.7 547.3,224.8 547.5,297 547.3,369.2 547.3,405.3 547,441.4 546.7,405.3 
			546.6,369.2 546.5,297 546.6,224.8 546.7,188.7 		"/>
		<rect x="144.3" y="136.4" class="st1" width="139.1" height="213.3"/>
		<rect x="151.9" y="144.9" class="st2" width="58.7" height="94.9"/>
		<rect x="217.1" y="144.9" class="st2" width="58.7" height="94.9"/>
		<rect x="151.9" y="246.2" class="st2" width="58.7" height="94.9"/>
		<rect x="217.1" y="246.2" class="st2" width="58.7" height="94.9"/>
		<rect x="144.3" y="136.4" class="st3" width="32.9" height="305.1"/>
		<polygon class="st2" points="171,150.9 171.3,183.9 171.4,216.9 171.5,282.8 171.4,348.8 171.3,381.8 171,414.8 170.8,381.8 
			170.7,348.8 170.5,282.8 170.7,216.9 170.8,183.9 		"/>
		<polygon class="st2" points="155.9,158.5 156.1,188 156.3,217.4 156.4,276.4 156.3,335.3 156.1,364.7 155.9,394.2 155.6,364.7 
			155.5,335.3 155.4,276.4 155.5,217.4 155.6,188 		"/>
		<polygon class="st2" points="163.5,165.5 163.7,200 163.8,234.5 164,303.5 163.8,372.4 163.7,406.9 163.5,441.4 163.2,406.9 
			163.1,372.4 162.9,303.5 163.1,234.5 163.2,200 		"/>
		<polygon class="st2" points="150.3,152.6 150.5,188.7 150.6,224.8 150.8,297 150.6,369.2 150.5,405.3 150.3,441.4 150,405.3 
			149.9,369.2 149.7,297 149.9,224.8 150,188.7 		"/>
		<rect x="250.5" y="136.4" class="st3" width="32.9" height="305.1"/>
		<polygon class="st2" points="256.7,150.9 257,183.9 257.1,216.9 257.2,282.8 257.1,348.8 257,381.8 256.7,414.8 256.5,381.8 
			256.4,348.8 256.2,282.8 256.4,216.9 256.5,183.9 		"/>
		<polygon class="st2" points="271.8,158.5 272.1,188 272.2,217.4 272.4,276.4 272.2,335.3 272.1,364.7 271.8,394.2 271.6,364.7 
			271.4,335.3 271.3,276.4 271.4,217.4 271.6,188 		"/>
		<polygon class="st2" points="264.3,165.5 264.5,200 264.6,234.5 264.8,303.5 264.6,372.4 264.5,406.9 264.3,441.4 264,406.9 
			263.9,372.4 263.7,303.5 263.9,234.5 264,200 		"/>
		<polygon class="st2" points="277.5,152.6 277.7,188.7 277.8,224.8 278,297 277.8,369.2 277.7,405.3 277.5,441.4 277.2,405.3 
			277.1,369.2 276.9,297 277.1,224.8 277.2,188.7 		"/>
		<rect x="135.4" y="397.8" class="st3" width="27.7" height="11.7"/>
		<rect x="120" y="412.6" class="st3" width="27.7" height="11.7"/>
		<rect x="357.2" y="240.1" class="st3" width="27.7" height="11.7"/>
		<rect x="341.8" y="254.8" class="st3" width="27.7" height="11.7"/>
		<rect x="326.4" y="240.1" class="st3" width="27.7" height="11.7"/>
		<rect x="549.6" y="412.6" class="st3" width="27.7" height="11.7"/>
		<rect x="534.1" y="147.9" class="st3" width="27.7" height="11.7"/>
		<rect x="549.6" y="162.6" class="st3" width="27.7" height="11.7"/>
		<rect x="135.4" y="147.9" class="st3" width="27.7" height="11.7"/>
	</g>
	<g id="freepik--Floor--inject-5">
		<polygon class="st4" points="121.7,469.2 178.4,469 235.2,468.9 348.6,468.7 462.1,468.9 518.9,469 575.6,469.2 518.9,469.5 
			462.1,469.6 348.6,469.7 235.2,469.6 178.4,469.5 		"/>
	</g>
	<g id="freepik--Shadow--inject-5">
		<ellipse class="st3" cx="348.6" cy="532.3" rx="215.1" ry="26.4"/>
	</g>
	<g id="freepik--Plant--inject-5">
		<path class="st4" d="M216.8,383.7c-2.9-2.9-6.7-6.4-11.2-5.1c-4.2,1.2-5.8,5.8-6.6,9.6c-1,4.9-1.7,10-2.5,14.9
			c-0.8,5-1.5,10.1-2.3,15.1c-0.4,2.9-0.8,5.7-1.2,8.5l-0.6,4.3c-0.2,1.4-0.4,2.8-0.5,4.2c0,0.4,0.7,0.5,0.8,0.1
			c0.5-2.4,0.8-4.8,1.1-7.3c0.3-2.4,0.7-4.9,1-7.3c0.7-4.8,1.4-9.6,2.2-14.4c0.7-4.8,1.5-9.6,2.2-14.4c0.6-4.1,1-9.1,4.6-11.8
			c2-1.4,4.5-1.6,6.8-0.6C212.9,380.5,214.9,381.9,216.8,383.7c-0.1,0.1-0.1,0.1-0.1,0.1C216.8,383.8,216.8,383.8,216.8,383.7
			C216.8,383.8,216.8,383.7,216.8,383.7z"/>
		<path class="st0" d="M212.8,380.7c0,0-6-2.2-9,2.2c-3,4.4,0.6,15.6,27.9,21.8c-0.8-8.5-3-16.9-6.6-24.7
			C219.3,367.3,208.9,372.2,212.8,380.7z"/>
		<path class="st4" d="M230.2,403c-0.4-0.8-0.9-1.5-1.4-2.2c-0.4-0.7-0.9-1.4-1.4-2.1c-0.4-0.5-0.7-1-1-1.6c0-0.1,0-0.3,0.1-0.4
			l0.1-0.7l0.2-1.5c0.1-0.5,0.2-1,0.3-1.5c0.1-0.5,0.2-1.1,0.4-1.6c0-0.1-0.1-0.1-0.1,0c-0.1,0.3-0.1,0.6-0.2,0.9
			c-0.1,0.2-0.1,0.5-0.2,0.7c-0.1,0.5-0.3,1-0.4,1.6s-0.2,1-0.3,1.5c0,0.2-0.1,0.5-0.1,0.7c-0.5-0.7-1-1.4-1.5-2.1
			c-1.4-1.9-3-3.7-4.6-5.5c0,0,0,0,0-0.1c0-2.9,0.2-5.7,0.7-8.5c0-0.1-0.1-0.1-0.1,0c-0.7,2.7-1.1,5.4-1,8.2
			c-0.6-0.6-1.1-1.3-1.7-1.9c-1.3-1.4-2.7-2.8-4.1-4.2c-0.1-0.1-0.1,0-0.1,0.1c2.3,2.5,4.5,5.1,6.6,7.7c-1.7,0-3.3,0-5,0.2
			c-1.9,0.1-3.7,0.4-5.5,0.6c-0.1,0-0.1,0.1,0,0.1c1.8-0.3,3.7-0.4,5.5-0.5c1.8-0.1,3.6,0,5.3,0c1.2,1.4,2.3,2.9,3.4,4.3h-1.5
			c-0.8,0-1.7,0.1-2.5,0.1c-1.7,0.1-3.4,0.4-5.1,0.8c0,0-0.1,0-0.1,0.1c0,0,0,0.1,0.1,0.1c1.7-0.2,3.4-0.3,5.1-0.4
			c0.8,0,1.6,0,2.4,0h1.3c0.2,0,0.5,0,0.7-0.1l2.2,2.9c0.6,0.8,1.2,1.5,1.7,2.3c0.6,0.8,1,1.7,1.7,2.4c0.1,0,0.1,0,0.2,0
			C230.2,403.1,230.2,403,230.2,403L230.2,403z"/>
		<path class="st4" d="M215.4,387c-1-0.1-1.9-0.2-2.9-0.1c-1,0-1.9,0-2.9,0.1c0,0-0.1,0-0.1,0.1c0,0,0,0.1,0.1,0.1c0,0,0,0,0,0
			c1-0.1,2-0.1,3-0.1S214.4,387.1,215.4,387L215.4,387z"/>
		<path class="st4" d="M224,389.2c0.1-0.9,0.2-1.9,0.4-2.8c0,0,0-0.1,0-0.1s-0.1,0-0.1,0c0,0,0,0,0,0.1c-0.1,0.9-0.3,1.8-0.4,2.7
			c-0.1,0.5-0.1,0.9-0.2,1.4c-0.1,0.4-0.1,0.9-0.1,1.3c0,0,0.1,0.1,0.1,0c0,0,0,0,0,0c0.1-0.4,0.1-0.9,0.1-1.3
			C223.9,390.1,223.9,389.6,224,389.2z"/>
		<path class="st4" d="M222.2,378.8c-0.2,0.9-0.5,1.8-0.6,2.7c-0.1,0.5-0.2,0.9-0.2,1.4c-0.1,0.5-0.1,0.9-0.1,1.4
			c0.1-0.4,0.2-0.9,0.2-1.3c0-0.4,0.1-0.9,0.2-1.4C221.8,380.8,222,379.8,222.2,378.8C222.3,378.8,222.2,378.8,222.2,378.8z"/>
		<path class="st4" d="M186.6,434.3c-0.1-1.7-0.3-3.4-0.5-5.2c-0.4-3.4-0.8-6.8-1.2-10.2s-0.9-6.8-1.4-10.2c-0.2-1.6-0.6-3.1-1-4.6
			c-0.4-1.3-1.3-2.4-2.6-2.9c-3.2-1.1-5.4,2.2-6.7,4.6c0,0,0,0.1,0,0.1c0,0,0,0,0.1,0c0.8-1.1,2.9-4.3,5.4-4.1
			c1.6,0.1,3,1.3,3.7,5.4c2,10.2,3.7,30.9,3.9,32.2c0.1,0.7,0.6,0.7,0.6-0.1C186.9,437.7,186.7,436,186.6,434.3z"/>
		<path class="st0" d="M174,404.6c0,0,2.8-9.9-3.4-5c-10.3,8.3-10.7,26.2-10.7,26.2s18.4-10.6,20.7-17.7
			C184,397.7,174,404.6,174,404.6z"/>
		<path class="st4" d="M177.5,409.5c-1.5,0.3-2.9,0.5-4.4,0.7l-2.1,0.3l-1.4,0.2c1.4-1.9,2.7-3.8,4.1-5.7c0.1-0.1-0.1-0.1-0.1-0.1
			c-1.1,1.1-2.1,2.3-3.1,3.5l-0.8-2.3c-0.3-0.9-0.6-1.8-0.9-2.7c0-0.1-0.1,0-0.1,0c0.3,0.9,0.4,1.8,0.7,2.7c0.2,0.9,0.5,1.7,0.8,2.6
			c-0.7,0.9-1.3,1.8-1.9,2.7c-0.3-0.9-0.7-1.8-1-2.7c0,0,0-0.1-0.1-0.1c0,0-0.1,0-0.1,0.1c0.3,1,0.5,2.1,0.8,3.1l-1.2,1.9
			c-0.7,1.2-1.4,2.3-2.1,3.5c-0.1,0-0.2,0.2-0.2,0.3c-1.2,2-2.3,4-3.4,6.1c0,0.1,0.1,0.1,0.1,0.1c1-2,2.3-4,3.6-6l0,0
			c0.2-0.1,0.4-0.1,0.6-0.1l0.6-0.1c0.5-0.1,1-0.2,1.4-0.3c0.9-0.2,1.9-0.4,2.8-0.6c0.1,0,0-0.1,0-0.1c-1.1,0.2-2.2,0.3-3.4,0.5
			c-0.5,0.1-1,0.1-1.6,0.2h-0.1c0.7-1,1.3-2,2-3c0.7-1,1.3-1.9,2.1-2.9c0.6-0.1,1.3-0.3,1.9-0.4l2.1-0.4c1.4-0.3,2.8-0.6,4.3-0.8
			C177.6,409.6,177.6,409.5,177.5,409.5z"/>
		<path class="st4" d="M166.4,410.5c-0.1-0.3-0.2-0.5-0.3-0.8c-0.2-0.5-0.3-1.1-0.4-1.7c0-0.1-0.1,0-0.1,0c0.1,0.6,0.3,1.1,0.4,1.7
			c0.1,0.6,0.3,1.1,0.5,1.7c0,0.1,0.1,0.1,0.2,0.1c0,0,0.1-0.1,0.1-0.1C166.7,411.1,166.5,410.7,166.4,410.5z"/>
		<path class="st4" d="M179.4,407.2c-0.8,0.1-1.7,0.2-2.5,0.3c-0.8,0.1-1.7,0.2-2.5,0.3c0,0-0.1,0.1,0,0.1c0.8-0.1,1.7-0.1,2.5-0.2
			c0.8-0.1,1.7-0.2,2.5-0.3C179.5,407.3,179.5,407.2,179.4,407.2z"/>
		<path class="st4" d="M200.2,421.7c-0.3-7.3-0.8-14.6-1.5-21.9c-0.4-3.6-0.8-7.2-1.3-10.9c-0.5-3.5-1.2-7.1-2.1-10.5
			c-0.7-2.7-1.8-5.2-3.5-7.4c-1.7-2.2-4.3-3.3-7.1-3.1c-3.2,0.4-5.8,2.4-8,4.6c-2.5,2.5-4.8,5.1-7.1,7.8c-0.6,0.7-1.2,1.3-1.7,2
			c0,0.1,0,0.1,0.1,0.1c2.3-2.6,4.6-5.1,7.1-7.5c2.3-2.2,4.6-4.7,7.8-5.6c1.5-0.5,3-0.5,4.5-0.1c1.2,0.4,2.2,1,3.1,2
			c1.7,1.9,2.9,4.3,3.5,6.8c2,6.7,2.7,13.8,3.4,20.7c0.7,6.9,1.2,14.1,1.6,21.2c0.4,7.1,0.6,14.2,1.3,21.3c0.1,0.9,0.2,1.7,0.3,2.6
			c0.1,0.6,1,0.6,0.9,0C200.8,436.4,200.4,429.1,200.2,421.7z"/>
		<path class="st0" d="M176.3,373.4c0,0,4.2-7.7-0.8-10.2c-4.9-2.5-21.4,15.9-26.3,42.9c0,0,26.7-11.8,35.7-23.5
			C194,370.8,183.7,368.2,176.3,373.4z"/>
		<path class="st4" d="M180.2,379.7c-3,0-6-0.2-9-0.2c0.6-0.6,1.1-1.3,1.7-1.9c0.8-0.9,1.6-1.8,2.3-2.7c0-0.1-0.1-0.1-0.1-0.1
			c-0.8,0.7-1.6,1.5-2.3,2.3c-0.8,0.8-1.5,1.6-2.2,2.4c-1.2,1.2-2.3,2.5-3.4,3.8c0-0.1,0-0.2,0-0.4c0-0.5,0-1,0-1.6c0-1,0-2,0-3.1
			c0-2.1,0-4.1,0.2-6.2c0,0,0-0.1-0.1-0.1c0,0-0.1,0-0.1,0.1c-0.1,2.1-0.4,4.1-0.5,6.2c-0.1,1-0.1,2.1-0.1,3.1c0,0.5,0,1,0,1.6
			c0,0.3,0,0.6,0,0.9l-0.5,0.6c-2.4,2.7-4.7,5.6-6.9,8.4c0-0.2,0-0.3,0-0.5c0-0.3-0.1-0.6-0.1-1c-0.1-0.7-0.2-1.4-0.3-2.1
			c-0.1-0.7-0.2-1.3-0.3-1.9c-0.1-0.6-0.3-1.4-0.3-2.2c0,0,0-0.1-0.1-0.1s-0.1,0-0.1,0.1c0.1,0.7,0.2,1.5,0.3,2.2
			c0.1,0.7,0.1,1.3,0.2,2l0.2,2l0.1,1l0.1,0.5c0,0.1,0.1,0.3,0.1,0.4l-1.1,1.5c-1.5,2-3,4-4.5,6c0,0.1,0,0.1,0.1,0.1
			c1.4-1.8,2.9-3.6,4.3-5.4c1,0,2.2,0,3.3,0h3.5c0.1,0,0.1-0.1,0-0.1c-1.2,0-2.3,0-3.5,0c-1.2,0-2.1,0-3.2,0
			c1.3-1.6,2.6-3.1,3.9-4.7l1.4-1.7c0.4,0,0.9,0,1.3,0h1.6c1,0,2,0,2.9,0c2.1,0,4.1-0.1,6.1-0.1c0.1,0,0.1-0.1,0-0.1
			c-2.1,0-4.1-0.1-6.1-0.2c-1,0-2-0.1-2.9-0.1h-1.6c-0.3,0-0.6,0-0.9,0l3.4-4c0,0,0,0,0.1-0.1c1.1-1.3,2.2-2.6,3.3-3.8l0.5-0.5
			c3.1,0.1,6.2-0.1,9.3-0.1C180.3,379.8,180.3,379.7,180.2,379.7z"/>
		<path class="st4" d="M178.6,384.9h-0.7c-0.1,0-0.1,0.1,0,0.1h0.7C178.7,385.1,178.7,384.9,178.6,384.9z"/>
		<path class="st4" d="M177,384.9h-2.9h-1.4c-0.4-0.1-0.9-0.1-1.3,0c0,0,0,0.1,0,0.1c0.4,0.1,0.9,0.1,1.3,0.1h1.4h2.9
			C177.2,385.1,177.2,384.9,177,384.9z"/>
		<path class="st4" d="M168.6,394c-2-0.3-3.9-0.5-5.9-0.5l0,0C164.7,393.6,166.7,393.7,168.6,394C168.7,394.1,168.7,394,168.6,394z"
			/>
		<path class="st4" d="M160.6,385.4l-0.1-0.5c0-0.4-0.1-0.8-0.2-1.2c-0.1-0.7-0.3-1.5-0.4-2.2c0-0.1-0.1-0.1-0.1,0
			c0.1,0.8,0.2,1.5,0.3,2.3l0.1,1.1c0,0.4,0,0.7,0.1,1c0,0.1,0.1,0.1,0.2,0.1c0,0,0.1,0,0.1-0.1
			C160.7,385.8,160.7,385.6,160.6,385.4z"/>
		<path class="st4" d="M199.9,363.5c-1-1.8-2.2-4.1-4.5-4c-2,0.1-2.8,2.1-3.3,3.8c-1.3,5.1-1.4,10.5-1.6,15.8
			c-0.5,11.1-1,22.2-1,33.4c0,3.1,0,6.2,0,9.3c0,3.1,0,6.3,0.2,9.4c0,0.1,0.2,0.2,0.3,0.2c0.1,0,0.2-0.1,0.2-0.2
			c0-2.7-0.1-5.4-0.1-8.1s0-5.2,0.1-7.9c0.1-5.3,0.2-10.6,0.4-15.9c0.2-5.3,0.4-10.6,0.6-15.8l0.3-7.9c0.1-2.6,0.2-5.1,0.5-7.7
			c0.1-1.4,0.4-2.8,0.7-4.2c0.1-1,0.6-2,1.2-2.9c0.9-0.9,2.4-1,3.5-0.3C198.4,361.2,199.2,362.3,199.9,363.5
			c-0.1,0.1-0.1,0.1-0.1,0.1C199.8,363.6,199.9,363.6,199.9,363.5C199.9,363.5,199.9,363.5,199.9,363.5z"/>
		<path class="st0" d="M199.2,362.6c0,0-2-6.9,2.4-3.5c7.2,5.8,7.5,18.3,7.5,18.3s-12.8-7.4-14.4-12.3
			C192.3,357.7,199.2,362.6,199.2,362.6z"/>
		<path class="st4" d="M206.3,372.3l-0.4-0.6c0-0.2,0-0.4,0-0.6c0-0.3,0-0.6,0-0.9c0-0.6,0-1.2,0.1-1.7c0,0,0-0.1-0.1-0.1
			c0,0-0.1,0-0.1,0.1c0,0.6,0,1.1-0.1,1.7c0,0.3,0,0.6,0,0.9c0,0.1,0,0.2,0,0.4c-0.5-0.8-1-1.6-1.5-2.3l-0.5-0.7
			c-0.1-0.8-0.1-1.5,0-2.3c0-0.8,0-1.6,0-2.4c0-0.1-0.1-0.1-0.1,0c0,0.8-0.1,1.7-0.1,2.5c0,0.6,0,1.2,0,1.8
			c-1.2-1.7-2.6-3.3-3.9-4.9c0-0.1-0.1,0-0.1,0.1c0.8,1,1.6,2.1,2.4,3.1c-1.5-0.4-3-0.6-4.6-0.8c-0.1,0-0.1,0.1,0,0.1
			c1.6,0.3,3.2,0.7,4.8,1l0,0c0.6,0.9,1.2,1.7,1.8,2.6l0.7,1h-0.1l-0.5-0.1l-1-0.1l-2.2-0.1c-0.1,0-0.1,0.1,0,0.1
			c0.7,0,1.5,0.1,2.2,0.1l1.1,0.1l0.5,0.1h0.1l1.2,1.8c0.7,1,1.4,2.2,2.1,3.3c0,0,0.1,0,0.1,0c0,0,0-0.1,0-0.1
			C207.7,374.5,207.1,373.4,206.3,372.3z"/>
		<path class="st4" d="M203.2,364.5c0-0.3,0-0.5,0-0.8c0-0.6,0-1.1,0.1-1.7c0-0.1-0.1-0.1-0.1,0c0,0.6-0.1,1.1-0.1,1.7
			c0,0.3,0,0.6,0,0.8v0.4c0,0.1,0,0.3,0,0.4c0,0,0,0.1,0.1,0.1c0,0,0.1,0,0.1-0.1c0-0.1,0-0.3,0-0.4
			C203.2,364.8,203.2,364.6,203.2,364.5z"/>
		<path class="st4" d="M201.6,367.3c-0.5-0.1-1-0.1-1.4-0.1c-0.5,0-1-0.1-1.6-0.2c-0.1,0-0.1,0.1,0,0.1
			C199.6,367.2,200.6,367.4,201.6,367.3C201.6,367.4,201.6,367.4,201.6,367.3z"/>
		<path class="st4" d="M205.6,367.4c0,0.1,0,0.2,0,0.3v1.2c0,0.1,0,0.3,0,0.4l0,0c0-0.1,0-0.1,0-0.2v-1.4
			C205.6,367.6,205.6,367.4,205.6,367.4C205.6,367.3,205.5,367.3,205.6,367.4z"/>
		<path class="st4" d="M200.2,400.3c-2.7-2-5.1-4.9-8.7-5.1c-3-0.1-5.1,2.1-6.3,4.6c-0.6,1.4-1.1,2.7-1.5,4.2
			c-0.5,1.9-1,3.8-1.5,5.7c-0.9,3.8-1.7,7.5-2.4,11.4c-0.4,2.1-0.7,4.3-1,6.4c-0.3,2.2-0.5,4.3-0.6,6.5c0,0.2,0.2,0.3,0.4,0.3
			c0.1,0,0.2-0.1,0.3-0.2c0.4-1.8,0.5-3.6,0.8-5.4c0.3-1.8,0.5-3.6,0.8-5.5c0.6-3.6,1.3-7.2,2.2-10.8c0.8-3.4,1.5-6.8,2.6-10.1
			c0.8-2.4,2.1-5.1,4.6-6C193.7,395,197.3,398.3,200.2,400.3C200.2,400.5,200.2,400.4,200.2,400.3z"/>
		<path class="st0" d="M197.4,398.4c0,0-2.5-7.1,1.1-8.5c5.4-2.1,19.5,13.8,16.7,38.1c-6.7-3.7-13-8-18.9-12.8
			c-8-6.7-10.1-15.5-6.6-17.8S197.4,398.4,197.4,398.4z"/>
		<path class="st4" d="M213.6,422.8c-0.4-0.8-0.8-1.7-1.3-2.4c-0.5-0.8-0.9-1.7-1.4-2.5c-0.9-1.6-1.9-3.2-2.8-4.8l-0.5-0.8l0.1-0.3
			l0.2-0.7c0.1-0.5,0.2-1,0.3-1.6c0.2-1,0.4-2.1,0.7-3.1c0-0.1-0.1-0.1-0.1,0c-0.2,1-0.5,2.1-0.9,3.1c-0.1,0.5-0.3,1-0.4,1.5
			c0,0.2-0.1,0.3-0.1,0.5c-1.2-1.9-2.3-3.8-3.6-5.6c0.1-0.3,0.1-0.5,0.1-0.8l0.1-1c0.1-0.8,0.2-1.6,0.3-2.4c0.2-1.6,0.5-3.1,0.8-4.7
			c0-0.1-0.1-0.1-0.1,0c-0.4,1.5-0.8,3.1-1,4.6c-0.1,0.8-0.3,1.5-0.4,2.3c0,0.4-0.1,0.8-0.1,1.2c0,0.1,0,0.2,0,0.3
			c-0.4-0.5-0.8-1-1.2-1.6c-1.2-1.6-2.5-3.2-3.8-4.8c0,0,0,0-0.1,0c0,0,0,0,0,0.1c0,0,0,0,0,0c2.2,2.8,4.3,5.8,6.1,8.9
			c0.4,0.6,0.7,1.1,1,1.7H205l-1.4-0.1l-2.7-0.2c-1.8-0.1-3.7-0.3-5.5-0.5c-0.1,0-0.1,0.1,0,0.1c1.9,0.2,3.7,0.5,5.6,0.8l2.7,0.4
			c0.7,0.1,1.4,0.2,2.1,0.2l2.2,3.5c-0.2,0-0.3,0-0.5,0h-2.6c-1.2,0-2.4,0-3.5,0c-0.1,0-0.1,0.1,0,0.1c1.2,0,2.4,0.1,3.6,0.1
			l1.7,0.1l0.8,0.1c0.2,0.1,0.5,0.1,0.7,0c0.6,1,1.2,2,1.8,3c0.6,1,1.1,1.8,1.7,2.7c0.5,1,1.2,1.9,1.9,2.8
			C213.5,422.9,213.6,422.9,213.6,422.8z"/>
		<path class="st4" d="M208.4,403.2c-0.1,0.8-0.3,1.6-0.5,2.3c-0.2,0.8-0.4,1.6-0.7,2.3c0,0,0,0.1,0.1,0.1c0,0,0.1,0,0.1-0.1v0
			c0.2-0.8,0.5-1.5,0.6-2.3c0.2-0.8,0.3-1.6,0.5-2.4C208.5,403.1,208.4,403.1,208.4,403.2z"/>
		<path class="st4" d="M200.4,407.9c-0.2-0.1-0.4-0.2-0.6-0.2l-1-0.1c-0.6-0.1-1.3-0.2-1.9-0.2c-1.3-0.1-2.7-0.3-4-0.4
			c-0.1,0-0.1,0.1,0,0.1c1.2,0.1,2.5,0.3,3.7,0.5l1.8,0.2l0.9,0.1C199.7,407.8,200,407.9,200.4,407.9
			C200.4,408,200.4,407.9,200.4,407.9z"/>
		<path class="st4" d="M208.4,418.6c-0.6-0.1-1.3-0.1-1.9-0.1h-1h-0.4c-0.2,0-0.4,0-0.6,0c-0.1,0-0.1,0.1,0,0.1c0.2,0,0.4,0,0.6,0
			h0.5h0.9c0.6,0,1.3,0.1,1.9,0.1C208.4,418.7,208.4,418.6,208.4,418.6z"/>
		<path class="st4" d="M212.2,415.9c0.1-0.4,0.1-0.7,0.2-1c0.1-0.7,0.3-1.4,0.4-2.1c0-0.1-0.1-0.1-0.1,0c-0.2,0.7-0.3,1.4-0.5,2.1
			c-0.1,0.3-0.2,0.7-0.2,1c0,0.2-0.1,0.3-0.1,0.5c0,0.2,0,0.3,0,0.5c0,0.1,0.1,0.1,0.1,0.1C212.1,416.6,212.2,416.2,212.2,415.9z"/>
		<polygon class="st5" points="175.3,431.4 176.1,440 178.7,469.1 201.5,469.1 204.7,440 205.6,431.4 		"/>
		<polygon class="st4" points="175.3,431.4 176.1,440 204.7,440 205.6,431.4 		"/>
		<rect x="173.1" y="429" class="st5" width="34.8" height="7"/>
	</g>
	<g id="freepik--Table--inject-5">
		<rect x="271.8" y="409.6" class="st6" width="153.7" height="11.8"/>
		<polygon class="st6" points="307.7,421.4 303.3,432 282,484.2 276.5,484.2 290.8,432 293.8,421.4 		"/>
		<polygon class="st4" points="293.8,421.4 307.7,421.4 303.3,432 290.8,432 		"/>
		<polygon class="st6" points="420.8,484.2 415.3,484.2 394,432 389.6,421.4 403.5,421.4 406.4,432 		"/>
		<polygon class="st4" points="406.4,432 394,432 389.6,421.4 403.5,421.4 		"/>
	</g>
	<g id="freepik--Device--inject-5">
		<rect x="301" y="364" class="st1" width="95.3" height="45.6"/>
		<rect x="336.5" y="390" class="st2" width="24.2" height="13.6"/>
		<rect x="336.5" y="386.3" class="st5" width="4.1" height="2"/>
		<rect x="342.3" y="386.3" class="st5" width="4.1" height="2"/>
		<rect x="348" y="386.3" class="st5" width="4.1" height="2"/>
		<rect x="356.7" y="386.3" class="st0" width="4.1" height="2"/>
		<rect x="336.5" y="372.9" class="st6" width="24.2" height="6.7"/>
		<rect x="296" y="363" class="st7" width="33.3" height="46.6"/>
		<path class="st8" d="M300,363l-0.1,0.1l-2.1,2.1l-0.2,0.2l-1.7,1.7v-0.7l1.3-1.3l0.2-0.2l1.9-1.9H300z M303.9,363l-1.9,1.9
			l-0.2,0.2l-2.1,2.1l-0.2,0.2l-2.1,2.1l-0.2,0.2l-1.3,1.3v0.7l0.6-0.6l1-1l0.2-0.2l2.1-2.1l0.2-0.2l2.1-2.1l0.2-0.2l2.1-2.1
			l0.2-0.2L303.9,363z M308.7,363l-0.1-0.1l-0.1,0.1l-1.9,1.9l-0.3,0.2l-2,2l-0.3,0.3l-2,2l-0.3,0.2l-2,2l-0.3,0.3l-1,1l-1,1
			l-0.3,0.3l-1.2,1.2v0.7l1.6-1.6l0.3-0.3l1-1l1-1l0.3-0.3l2-2l0.3-0.3l2-2l0.3-0.3l2-2l0.3-0.3l2-2l0.2-0.2L308.7,363z M313.2,363
			L313.2,363h-0.2l-1.3,1.3l-0.6,0.6l-0.3,0.3l-2,2l-0.3,0.3l-2,2l-0.3,0.3l-2,2L304,372l-2,2l-0.3,0.3l-1,1l-1,1l-0.3,0.4l-2,2
			l-0.3,0.3l-1.3,1.3v0.6l1.6-1.6l0.3-0.3l2-2l0.3-0.3l1-1l1-1l0.3-0.3l2-2l0.3-0.3l2-2l0.3-0.3l2-2l0.3-0.3l2-2l0.3-0.3l0.6-0.6
			c0.5-0.5,0.9-0.9,1.4-1.4c0.1-0.1,0.1-0.1,0.2-0.2L313.2,363z M317.8,363L317.8,363h-0.1l-1.9,1.9l-0.3,0.3l-1.4,1.4l-0.6,0.6
			l-0.3,0.3l-2,2l-0.3,0.3l-2,2l-0.3,0.3l-2,2l-0.3,0.3l-2,2l-0.3,0.3l-2,2l-0.3,0.3l-2,2l-0.3,0.3l-2,2l-0.3,0.3l-1.3,1.3v0.6
			l1.6-1.6l0.3-0.3l2-2l0.3-0.3l2-2l0.3-0.3l1-1l1-1l0.3-0.3l2-2l0.3-0.3l2-2l0.3-0.3l2-2l0.3-0.3l2-2l0.3-0.3l0.6-0.6l1.3-1.4
			l0.3-0.3c0.7-0.7,1.3-1.3,2-2c0.1,0,0.1-0.1,0.1-0.2L317.8,363z M322.3,363L322.3,363L322.3,363c-0.7,0.6-1.3,1.3-2,1.9
			c-0.1,0.1-0.2,0.2-0.3,0.3l-2,2l-0.3,0.3l-1.4,1.3l-0.6,0.6l-0.3,0.3l-2,1.9l-0.3,0.3l-2,1.9l-0.3,0.3l-1.9,2l-0.3,0.3l-2,1.9
			l-0.3,0.3l-1,1l-1,1l-0.3,0.3l-1.9,2l-0.3,0.3l-1.9,2l-0.3,0.3l-1.9,1.9l-0.3,0.3l-1.3,1.3v0.6l1.6-1.6l0.3-0.3l2-1.9l0.3-0.3
			l2-1.9l0.3-0.3l2-1.9l0.3-0.3l2.3-2.3l1.9-2l0.3-0.3l1.9-2l0.3-0.3l1.9-2l0.3-0.3l1.9-2l0.9-0.9l1.3-1.4c0.1-0.1,0.2-0.2,0.3-0.3
			l1.9-2l0.3-0.3l1.9-2l0.1-0.1L322.3,363z M326.9,363L326.9,363l-2,1.9l-0.3,0.3l-2,2l-0.3,0.3l-1.9,1.9l-0.3,0.3l-1.4,1.3
			l-0.6,0.6l-0.3,0.3l-1.9,1.9l-0.3,0.3l-1.9,1.9l-0.4,0.4l-1.9,1.9l-0.3,0.3l-1.9,1.9l-0.3,0.3l-1,1l-1,1l-0.3,0.3l-1.9,1.9
			l-0.3,0.3l-1.9,1.9l-0.3,0.3l-1.9,1.9l-0.3,0.3l-1.9,1.9l-0.3,0.3l-0.6,0.6l-0.7,0.7v0.6l1-1l0.6-0.6l0.3-0.3l1.9-1.9l0.3-0.3
			l1.9-1.9l0.3-0.3l1.9-1.9l0.3-0.3l1.9-1.9l0.3-0.3l1-1l1-1l0.3-0.3l1.9-1.9l0.3-0.3l1.9-1.9l0.3-0.3l1.9-1.9l0.3-0.3l1.9-1.9
			l0.3-0.3l0.6-0.6c0.4-0.5,0.9-0.9,1.3-1.4l0.3-0.3l1.9-1.9l0.3-0.3l1.9-2l0.3-0.3c0.6-0.6,1.3-1.3,1.9-2l0.1-0.1L326.9,363z
			 M329.1,365.3c-0.6,0.6-1.3,1.2-1.9,1.9l-0.4,0.4c-0.6,0.6-1.3,1.2-1.9,1.9c-0.1,0.1-0.3,0.2-0.4,0.4c-0.6,0.6-1.3,1.3-1.9,1.9
			c-0.1,0.1-0.3,0.2-0.4,0.3l-1.4,1.3l-0.6,0.6l-0.4,0.4l-1.9,1.9l-0.4,0.4l-1.9,1.9l-0.4,0.4l-1.9,2l-0.4,0.4l-1.9,1.9l-0.4,0.4
			l-1,1l-1,1l-0.4,0.4l-1.9,1.9l-0.4,0.4l-1.9,1.9l-0.4,0.4l-1.9,1.9l-0.4,0.4l-1.9,1.9l-0.4,0.4l-0.6,0.6l-1.3,1.4l-0.4,0.4
			l-1.3,1.3v0.5l1.5-1.5c0.1-0.1,0.2-0.2,0.4-0.4l1.4-1.3l0.6-0.6l0.4-0.4l1.9-1.9l0.4-0.4l1.9-1.9l0.4-0.4l1.9-1.9l0.4-0.4l1.9-1.9
			l0.4-0.4l1-1l1-1l0.4-0.4l1.9-1.9l0.4-0.4l1.9-1.9l0.4-0.4l1.9-1.9l0.3-0.3l1.9-1.9l0.4-0.4l0.6-0.6l1.3-1.4l0.4-0.4
			c0.6-0.6,1.3-1.3,1.9-1.9l0.4-0.4c0.6-0.6,1.3-1.3,1.9-1.9c0.1-0.1,0.2-0.2,0.3-0.4c0.6-0.6,1.3-1.3,1.9-1.9c0,0,0.1-0.1,0.1-0.1
			v-0.2L329.1,365.3z M329.1,369.8l-1.9,1.9l-0.4,0.4c-0.6,0.6-1.3,1.3-1.9,1.9l-0.4,0.3l-1.4,1.3l-0.6,0.6l-0.4,0.4l-1.9,1.9
			l-0.4,0.4l-2,1.9l-0.4,0.4l-1.9,1.9l-0.4,0.4l-1.9,1.9l-0.4,0.4l-1,1l-1,1l-0.4,0.4l-1.9,1.9l-0.4,0.4l-1.9,1.9l-0.4,0.4l-1.9,1.9
			l-0.4,0.4l-1.9,1.9l-0.4,0.4l-0.6,0.6c-0.4,0.4-0.9,0.9-1.3,1.4c-0.1,0.1-0.2,0.2-0.4,0.4c-0.6,0.6-1.3,1.3-1.9,1.9
			c-0.1,0.1-0.3,0.2-0.4,0.4c-0.4,0.4-0.9,0.9-1.3,1.3v0.3l1.5-1.5c0.1-0.1,0.2-0.2,0.4-0.4c0.6-0.6,1.3-1.3,1.9-1.9l0.4-0.4
			l1.4-1.3l0.6-0.6l0.4-0.4l1.9-1.9l0.4-0.4l1.9-1.9l0.4-0.4l1.9-1.9l0.4-0.4l1.9-1.9l0.4-0.4l1-1l1-1l0.4-0.4l1.9-1.9l0.4-0.4
			l1.9-1.9l0.4-0.4l1.9-1.9l0.4-0.4l1.9-1.9l0.4-0.4l0.6-0.6c0.4-0.4,0.9-0.9,1.3-1.4l0.4-0.4c0.6-0.6,1.3-1.3,1.9-1.9
			c0.1-0.1,0.3-0.2,0.4-0.4l1.9-1.9l0,0v-0.3L329.1,369.8z M329.1,374.3l-1.9,1.9l-0.3,0.3l-1.4,1.3l-0.6,0.6l-0.4,0.3l-2,1.9
			l-0.3,0.3l-1.9,1.9l-0.3,0.3l-1.9,1.9l-0.3,0.3l-1.9,1.9l-0.3,0.3l-1,1l-1,1l-0.4,0.4l-1.9,1.9l-0.3,0.3l-1.9,1.9l-0.3,0.3
			l-1.9,1.9l-0.3,0.3l-1.9,1.9l-0.9,0.9c-0.4,0.5-0.9,0.9-1.3,1.4l-0.3,0.3c-0.6,0.6-1.3,1.3-1.9,1.9l-0.3,0.3l-1.9,2l-0.3,0.3
			c-0.4,0.5-0.9,0.9-1.3,1.4v0.2l1.5-1.4l0.3-0.3l2-1.9l0.3-0.3l1.9-1.9l0.3-0.3l1.4-1.3l0.6-0.6l0.3-0.3l1.9-1.9l0.4-0.3l1.9-1.9
			l0.3-0.3l1.9-1.9l0.3-0.3l1.9-1.9l0.3-0.3l1-1l1-1l0.3-0.3l1.9-1.9l0.3-0.3l1.9-1.9l0.3-0.3l1.9-1.9l0.3-0.3l1.9-1.9l0.3-0.3
			l0.6-0.6c0.4-0.5,0.9-0.9,1.3-1.4l0.3-0.3l1.9-1.9l0,0v-0.4C329.2,374.2,329.1,374.3,329.1,374.3L329.1,374.3z M329.3,379v-0.4
			l-0.2,0.2l-1.4,1.3l-0.6,0.6l-0.3,0.3l-2,1.9l-0.3,0.3l-2,1.9l-0.3,0.3l-2,1.9l-0.3,0.3l-1.9,1.9l-0.3,0.3l-1,1l-1,1l-0.3,0.3
			l-1.9,2l-0.3,0.3l-1.9,2l-0.3,0.3l-1.9,2l-0.3,0.3l-1.9,2l-0.3,0.3l-0.6,0.6c-0.4,0.5-0.9,0.9-1.3,1.4l-0.3,0.3
			c-0.6,0.6-1.3,1.3-1.9,2c-0.1,0.1-0.2,0.2-0.3,0.3c-0.6,0.6-1.3,1.3-1.9,2l-0.3,0.3c-0.4,0.4-0.7,0.8-1.1,1.1h0.2
			c0.3-0.3,0.7-0.7,1-1l0.3-0.3l2-1.9c0.1-0.1,0.2-0.2,0.3-0.3c0.7-0.6,1.3-1.3,2-1.9l0.3-0.3c0.5-0.4,0.9-0.9,1.4-1.3l0.6-0.6
			l0.3-0.3l1.9-2l0.3-0.3l2-1.9l0.3-0.3l2-1.9l0.3-0.3l2-1.9l0.3-0.3l1-1l1-1l0.3-0.4l1.9-2l0.3-0.3l1.9-1.9l0.3-0.3l1.9-2l0.3-0.3
			l1.9-2l0.3-0.3l0.6-0.6L329.3,379L329.3,379L329.3,379z M329.3,383.6v-0.5l-0.3,0.3l-2,2l-0.3,0.3l-2,1.9l-0.3,0.3l-2,2l-0.3,0.3
			l-2,2l-0.3,0.3l-1,1l-1,1l-0.3,0.3l-2,2l-0.3,0.3l-2,2l-0.3,0.3l-2,2l-0.3,0.3l-1.9,2l-0.3,0.3l-0.6,0.6l-1.4,1.4l-0.3,0.3
			c-0.7,0.7-1.3,1.3-1.9,2l-0.3,0.3l-1.2,1.2h0.4l1-1l0.3-0.3c0.7-0.6,1.3-1.3,2-1.9l0.3-0.3l1.4-1.4l0.6-0.6l0.3-0.3l2-2l0.3-0.3
			l2-2l0.3-0.3l2-2l0.3-0.3l2-2l0.3-0.3l1-1l1-1l0.3-0.3l2-2l0.3-0.3l2-2l0.3-0.3l2-2l0.3-0.3l1.9-1.9l0,0L329.3,383.6z
			 M329.3,388.1v-0.5l-0.3,0.3l-2,2l-0.3,0.3l-2,2l-0.3,0.3l-2,2l-0.3,0.3l-1,1l-1,1l-0.3,0.3l-2,2l-0.3,0.3l-2,2l-0.3,0.3l-2,2
			l-0.3,0.3l-2,2l-0.3,0.3l-0.6,0.6c-0.5,0.5-0.9,0.9-1.4,1.4l-0.3,0.3c-0.4,0.4-0.8,0.8-1.2,1.2h0.4c0.3-0.3,0.7-0.6,1-1l0.3-0.3
			l1.4-1.4l0.6-0.6l0.3-0.3l2-2l0.3-0.3l2-2l0.3-0.3l2-2l0.3-0.3l2-2l0.3-0.3l1-1l1-1l0.3-0.3l2-2l0.3-0.3l2-2l0.3-0.3l1.9-1.9
			l0.1-0.1L329.3,388.1z M329.1,392.4l-2,2l-0.3,0.3l-2,2l-0.3,0.3l-1,1l-1,1l-0.3,0.3l-2,2l-0.3,0.3l-2,2l-0.3,0.3l-2,2.1l-0.3,0.3
			l-2,2l-0.3,0.3l-0.6,0.6l-0.6,0.6h0.5l0.4-0.3l0.6-0.6l0.3-0.3l2-2l0.3-0.3l2-2l0.3-0.3l2-2l0.3-0.3l2-2l0.3-0.2l1-1l1-1l0.3-0.3
			l2-2l0.3-0.3l1.9-1.9v-0.6L329.1,392.4z M329.3,396.7l-0.2,0.2L327,399l-0.2,0.2l-1,1l-1,1l-0.2,0.2l-2.1,2.1l-0.2,0.2l-2.1,2.1
			l-0.2,0.2l-2.1,2.1l-0.2,0.2l-1.3,1.3h0.6l1-1l0.2-0.2l2.1-2.1l0.2-0.2l2.1-2.1l0.2-0.2l2.1-2.1l0.2-0.2l1-1l1-1l0.2-0.2l1.9-2
			L329.3,396.7L329.3,396.7z M329.3,401.2l-0.2,0.2l-1,1l-1,1l-0.2,0.2l-2.1,2.1l-0.2,0.2l-2.1,2.1l-0.2,0.2l-1.3,1.3h0.6l1-1
			l0.1-0.1l2.1-2.1l0.2-0.2l2.1-2.1l0.1-0.1l1-1l0.9-0.9L329.3,401.2L329.3,401.2z M329.2,405.9l-2.2,2.2l-0.1,0.1l-1.3,1.4h0.7l1-1
			l0.1-0.1l2-2v-0.7L329.2,405.9z M327.5,363h-0.7l0,0l0.1,0.1l2.2,2.2l0.1,0.1l0.1,0.1v-0.7L327.5,363z M328.4,368.4l-1-1l-0.1-0.1
			l-2.1-2.1l-0.2-0.2l-2-2h-0.6l0.1,0.1l2.1,2.1l0.2,0.2l2.1,2.1l0.2,0.2l1,1l1,1l0.2,0.2v0.1v-0.7L328.4,368.4z M327.3,371.9
			l-0.2-0.2l-1-1l-1-1l-0.2-0.2l-2.1-2.1l-0.2-0.2l-2.1-2.1l-0.2-0.2l-1.9-1.8h-0.6l0.2,0.2l2.1,2.1l0.2,0.2l2.1,2.1l0.2,0.2
			l2.1,2.1l0.2,0.2l1,1l1,1l0.2,0.2l2.1,2.1l0.2,0.2l0,0V374L327.3,371.9z M327.3,376.5l-0.3-0.3l-2-2l-0.3-0.3l-1-1l-1-1l-0.3-0.2
			l-2-2l-0.3-0.3l-1.9-1.9l-0.3-0.3l-2-2l-0.3-0.3l-1.9-1.9l-0.1-0.1l-0.1,0.1h-0.3l0.2,0.2l2,2l0.3,0.3l2,2l0.3,0.3l2,2l0.3,0.3
			l2,2l0.3,0.3l1,1l1,1l0.3,0.3l1.9,1.9l0.3,0.3l2,2l0.2,0.2v-0.6L327.3,376.5z M329.3,383l-1.9-1.9l-0.3-0.3l-2-2l-0.3-0.3l-2-2
			l-0.3-0.3l-1-1l-1-1l-0.3-0.3l-1.9-1.9l-0.3-0.3l-2-2l-0.3-0.3l-2-2l-0.3-0.3l-2-2l-0.3-0.3l-0.6-0.6l-1.3-1.3l-0.1-0.1l-0.1,0.1
			h-0.4c0.1,0.1,0.1,0.1,0.2,0.2c0.4,0.5,0.9,0.9,1.4,1.4l0.6,0.6l0.3,0.3l2,2l0.3,0.3l2,2l0.3,0.3l2,2l0.3,0.3l2,2l0.3,0.3l1,1l1,1
			l0.3,0.3l2,2l0.3,0.3l2,2l0.3,0.3l2,2l0.3,0.3v-0.5L329.3,383L329.3,383z M329.3,387.5l-1.9-1.9l-0.3-0.3l-2-2l-0.3-0.3l-2-2
			l-0.3-0.3l-2-2l-0.3-0.3l-1.9-1.9l-0.3-0.3l-2-2l-0.3-0.3l-2-2l-0.3-0.3l-2-2l-0.3-0.3l-2-2l-0.3-0.4l-0.6-0.6l-1.4-1.4l-0.3-0.3
			l-1.9-1.9c0,0,0,0,0-0.1l-0.1,0.1h-0.3l0.2,0.2c0.6,0.7,1.3,1.3,1.9,2l0.3,0.3l1.4,1.4l0.6,0.6l0.3,0.3l2,2l0.3,0.3l2,2l0.3,0.3
			l2,2l0.3,0.3l2,2l0.3,0.3l1,1l1,1l0.3,0.3l2,2l0.3,0.3l2,2l0.3,0.3l2,2l0.3,0.3l2,2l0.3,0.3v-0.5l0,0L329.3,387.5z M329.3,392.1
			l-1.3-1.4l-0.9-0.9l-1.9-2l-0.3-0.3l-1.9-1.9l-0.3-0.3l-1.9-2l-0.3-0.3l-1.9-1.9l-0.3-0.3l-1-1l-1-1l-0.3-0.3l-1.9-1.9l-0.3-0.3
			l-1.9-1.9l-0.3-0.3l-2-1.9l-0.3-0.3l-2-1.9l-0.9-0.9l-1.4-1.3l-0.3-0.3l-2-1.9l-0.3-0.3l-1.9-2l0,0l0,0h-0.3l0.1,0.1
			c0.6,0.6,1.3,1.3,1.9,2l0.3,0.3l1.9,2l0.3,0.3l1.3,1.4l0.9,0.9l1.9,2l0.3,0.3l1.9,2l0.3,0.3l1.9,2l0.3,0.3l1.9,2l0.3,0.3l1,1l1,1
			l0.3,0.3l2,1.9l0.3,0.3l2,1.9l0.3,0.3l1.9,1.9l0.3,0.3l1.9,1.9l0.3,0.3l0.6,0.6l1.4,1.3l0.2,0.2V392.1L329.3,392.1
			C329.3,392.2,329.3,392.1,329.3,392.1L329.3,392.1z M329.3,396.7l-1.9-1.9l-0.3-0.3c-0.4-0.5-0.9-0.9-1.3-1.4l-0.6-0.6l-0.3-0.3
			l-1.9-1.9l-0.3-0.3l-1.9-1.9l-0.3-0.3l-1.9-1.9l-0.3-0.4l-1.9-1.9l-0.3-0.3l-1-1l-1-1l-0.3-0.3l-1.9-1.9l-0.3-0.3l-1.9-1.9
			l-0.3-0.3l-1.9-1.9l-0.4-0.3l-1.9-1.9l-0.3-0.3l-0.6-0.6l-1.4-1.3l-0.3-0.3l-1.9-1.9c-0.1-0.1-0.2-0.2-0.4-0.3l-1.9-1.9l-0.3-0.3
			l-1.5-1.4v0.2c0.4,0.5,0.9,0.9,1.3,1.4l0.3,0.3l1.9,1.9l0.3,0.4c0.6,0.6,1.3,1.3,1.9,1.9l0.3,0.3c0.4,0.5,0.9,0.9,1.3,1.4l0.6,0.6
			l0.3,0.3l1.9,1.9l0.3,0.3l1.9,1.9l0.3,0.3l1.9,1.9l0.3,0.3l1.9,1.9l0.3,0.3l1,1l1,1l0.3,0.3l1.9,1.9l0.3,0.3l1.9,1.9l0.3,0.3
			l1.9,1.9l0.4,0.3l1.9,1.9l0.4,0.3l0.6,0.6l1.4,1.3c0.1,0.1,0.2,0.2,0.3,0.3l1.9,1.9c0.1,0.1,0.1,0.2,0.2,0.2L329.3,396.7
			L329.3,396.7z M329.3,401.2l-1.9-1.9l-0.4-0.4c-0.6-0.6-1.3-1.3-1.9-1.9l-0.3-0.4l-1.3-1.4l-0.6-0.6l-0.4-0.4l-1.9-1.9l-0.4-0.4
			l-1.9-1.9l-2.3-2.3l-0.4-0.4l-1.9-1.9l-0.4-0.4l-1-1l-1-1l-0.4-0.4l-1.9-1.9l-0.3-0.3l-1.9-1.9l-0.4-0.4l-1.9-1.9l-0.4-0.4
			l-1.9-1.9l-0.4-0.4l-0.6-0.6l-1.4-1.3c-0.1-0.1-0.2-0.2-0.4-0.4c-0.6-0.6-1.3-1.3-1.9-1.9l-0.4-0.4L296,368v0.3
			c0.4,0.4,0.9,0.9,1.3,1.3l0.4,0.4l1.9,1.9l0.4,0.4c0.4,0.5,0.9,0.9,1.3,1.4l0.6,0.6l0.4,0.4l1.9,1.9l0.4,0.4l1.9,1.9l0.4,0.4
			l1.9,1.9l0.4,0.4l1.9,1.9l0.4,0.4l1,1l1,1l0.4,0.4l1.9,1.9l0.4,0.4l1.9,1.9l0.4,0.4l1.9,1.9l0.4,0.4l1.9,1.9l0.4,0.4l0.6,0.6
			l1.4,1.3l0.4,0.3c0.6,0.6,1.3,1.3,1.9,1.9l0.4,0.4l1.9,1.9l0.2,0.2L329.3,401.2L329.3,401.2z M329.3,405.8
			c-0.6-0.6-1.2-1.3-1.9-1.9c-0.1-0.1-0.2-0.3-0.4-0.4c-0.6-0.6-1.2-1.3-1.9-1.9l-0.4-0.4c-0.6-0.6-1.3-1.3-1.9-1.9l-0.4-0.4
			l-1.3-1.4l-0.6-0.6l-0.4-0.4l-2-1.9l-0.4-0.4l-1.9-1.9l-0.4-0.4l-1.9-2l-0.4-0.4l-1.9-1.9l-0.4-0.4l-1-1l-1-1l-0.4-0.4l-1.9-1.9
			l-0.4-0.4l-1.9-1.9l-0.4-0.4l-1.9-1.9l-0.4-0.4l-1.9-1.9l-0.4-0.4l-0.6-0.6l-1.4-1.3l-0.4-0.4l-1.5-1.5v0.4
			c0.4,0.4,0.8,0.9,1.3,1.3l0.4,0.4c0.4,0.4,0.9,0.9,1.3,1.4l0.6,0.6l0.4,0.4l1.9,1.9l0.4,0.4l1.9,1.9l0.4,0.4l1.9,1.9l0.4,0.4
			l1.9,1.9l0.3,0.4l1,1l1,1l0.4,0.4l1.9,1.9l0.4,0.4l1.9,1.9l0.4,0.4l1.9,1.9l0.4,0.4l1.9,1.9l0.4,0.4l0.6,0.6l1.4,1.3l0.4,0.3
			c0.6,0.6,1.3,1.3,1.9,1.9c0.1,0.1,0.2,0.2,0.4,0.4c0.6,0.6,1.3,1.3,1.9,1.9l0.4,0.4l1.9,1.9c0,0.1,0.1,0.1,0.2,0.2v-0.2
			C329.3,405.9,329.2,405.9,329.3,405.8L329.3,405.8z M327.3,408.4c-0.1-0.1-0.2-0.2-0.3-0.4c-0.6-0.7-1.3-1.3-1.9-2l-0.3-0.4
			l-1.9-1.9c-0.1-0.1-0.2-0.2-0.3-0.3l-1.9-1.9c-0.1-0.1-0.2-0.2-0.3-0.3c-0.4-0.5-0.9-0.9-1.3-1.4l-0.9-0.9l-1.9-1.9l-0.3-0.3
			l-1.9-1.9l-0.3-0.3l-1.9-1.9l-0.3-0.3l-2-1.9l-0.3-0.3l-1-1l-1-1l-0.3-0.3l-1.9-1.9l-0.3-0.3l-1.9-1.9l-0.3-0.3l-1.9-1.9l-0.3-0.3
			l-1.9-1.9l-0.3-0.3l-0.6-0.6l-1-1v0.5l0.7,0.7l0.6,0.6l0.3,0.3l1.9,1.9l0.3,0.3l1.9,1.9l0.3,0.3l1.9,1.9l0.3,0.3l1.9,1.9l0.3,0.3
			l1,1l1,1l0.3,0.3l1.9,1.9l0.3,0.3l1.9,1.9l0.3,0.3l1.9,1.9l0.3,0.3l1.9,1.9l0.3,0.3l0.6,0.6l1.4,1.3l0.3,0.3l1.9,1.9l0.3,0.3
			c0.6,0.6,1.3,1.3,2,1.9l0.3,0.3l2,1.9c0.1,0.1,0.2,0.2,0.4,0.3c0.3,0.4,0.7,0.7,1,1h0.1C328,409.2,327.6,408.8,327.3,408.4
			L327.3,408.4z M322.8,408.4c-0.1-0.1-0.2-0.2-0.3-0.3l-1.9-2l-0.3-0.3l-2-2l-0.3-0.3l-1.3-1.4l-0.6-0.6l-0.3-0.3l-1.9-1.9
			l-0.3-0.3l-1.9-2l-0.3-0.3l-1.9-2l-0.4-0.4l-1.9-2l-0.3-0.3l-1-1l-1-0.9l-0.3-0.3l-2-1.9l-0.3-0.3l-2-1.9l-0.3-0.3l-2-1.9
			l-0.3-0.3l-1.6-1.6v0.6l1.3,1.3l0.3,0.3l1.9,2l0.3,0.3l1.9,2l0.3,0.3l1.9,2l0.3,0.3l1,1l1,1l0.3,0.3l2,1.9l0.3,0.3l2,1.9l0.3,0.3
			l2,1.9l0.3,0.3l2,1.9l0.9,0.9c0.5,0.4,0.9,0.9,1.4,1.3l0.3,0.3c0.6,0.6,1.3,1.3,2,1.9l0.3,0.3l2,1.9c0.1,0.1,0.2,0.2,0.3,0.3l1,1
			h0.2C323.5,409.2,323.1,408.8,322.8,408.4L322.8,408.4z M318.3,408.4l-0.3-0.3l-2-2l-0.3-0.3c-0.4-0.5-0.9-0.9-1.3-1.4l-0.6-0.6
			l-0.3-0.3l-2-2l-0.3-0.3l-2-2L309,399l-2-2l-0.3-0.3l-2-2l-0.3-0.3l-1-1l-1-1l-0.3-0.3l-2-2l-0.3-0.3l-2-2l-0.3-0.3L296,386v0.6
			l1.3,1.3l0.3,0.3l2,2l0.3,0.3l2,2l0.3,0.3l1,1l1,1l0.3,0.3l2,2l0.3,0.3l2,2l0.3,0.3l2,2l0.3,0.3l2,2l0.3,0.3l0.6,0.6l1.4,1.4
			l0.3,0.3l2,1.9l0.3,0.3l1,1h0.4L318.3,408.4z M313.8,408.4l-0.3-0.3c-0.4-0.5-0.9-0.9-1.4-1.4l-0.6-0.6l-0.3-0.3l-2-2l-0.3-0.3
			l-2-2l-0.3-0.3l-2-2.1l-0.3-0.3l-2-2l-0.3-0.3l-1-1l-1-1l-0.3-0.3l-2-2l-0.3-0.3l-1.6-1.6v0.7l1.3,1.3l0.3,0.3l2,2l0.3,0.3l1,1
			l1,1l0.3,0.3l2,2l0.3,0.3l2,2l0.3,0.3l2,2l0.3,0.3l2,2l0.3,0.3l0.6,0.6l1.4,1.4c0.1,0.1,0.2,0.2,0.3,0.3l1,1h0.5
			C314.5,409.2,314.1,408.8,313.8,408.4L313.8,408.4z M309.8,409l-0.6-0.6l-0.3-0.3l-2-2l-0.3-0.3l-2.1-2.1l-0.3-0.3l-2-2l-0.3-0.3
			l-2-2l-0.3-0.3l-1-1l-1-1l-0.3-0.3l-1.6-1.6v0.7l1.3,1.3l0.3,0.3l1,1l1,1l0.3,0.3l2,2l0.3,0.2l2,2l0.3,0.3l2,2l0.3,0.2l2,2
			l0.3,0.3l0.6,0.6l0.4,0.3h0.5L309.8,409z M304.7,408.4l-0.2-0.2l-2.1-2.1l-0.2-0.2l-2.1-2.1l-0.2-0.2l-2.1-2.1l-0.2-0.2l-1-1
			l-0.6-0.6v0.7l0.3,0.3l1,1l0.2,0.2l2.1,2.1l0.2,0.2l2.1,2.1l0.2,0.2l2.1,2.1l0.2,0.2l1,1h0.6L304.7,408.4z M300.1,408.4l-0.2-0.2
			l-2.1-2.1l-0.2-0.2l-1.7-1.7v0.7l1.3,1.3l0.2,0.2l2.1,2.1l0.1,0.1l1,1h0.6L300.1,408.4z M296,408.8v0.7l0.2,0.2h0.7L296,408.8z"/>
		<rect x="367.9" y="363" class="st7" width="33.3" height="46.6"/>
		<path class="st8" d="M372,363l-0.1,0.1l-2.1,2.1l-0.2,0.2l-1.7,1.7v-0.7l1.3-1.3l0.2-0.2l1.9-1.9L372,363z M375.9,363l-1.9,1.9
			l-0.2,0.2l-2.1,2.1l-0.2,0.2l-2.1,2.1l-0.2,0.2l-1.3,1.3v0.7l0.6-0.6l1-1l0.2-0.2l2.1-2.1l0.2-0.2l2.1-2.1l0.2-0.2l2.1-2.1
			l0.2-0.2L375.9,363z M380.7,363l-0.1-0.1l-0.1,0.1l-1.9,1.9l-0.3,0.2l-2,2l-0.3,0.3l-2,2l-0.3,0.2l-2,2l-0.3,0.3l-1,1l-1,1
			l-0.3,0.3l-1.2,1.2v0.7l1.6-1.6l0.3-0.3l1-1l1-1l0.3-0.3l2-2l0.3-0.3l2-2l0.3-0.3l2-2l0.3-0.3l2-2l0.1-0.1H380.7z M385.2,363
			L385.2,363c-0.1-0.1-0.1,0-0.2,0l-1.3,1.3l-0.6,0.6l-0.3,0.3l-2,2l-0.3,0.3l-2,2l-0.3,0.3l-2,2l-0.3,0.3l-2,2l-0.3,0.3l-1,1l-1,1
			l-0.3,0.3l-2,2l-0.3,0.3l-1.3,1.3v0.7l1.6-1.6l0.3-0.3l2-2l0.3-0.3l1-1l1-1l0.3-0.3l2-2l0.3-0.3l2-2l0.3-0.3l2-2l0.3-0.3l2-2
			l0.3-0.3l0.6-0.6c0.5-0.5,0.9-0.9,1.4-1.4c0.1-0.1,0.1-0.1,0.2-0.2L385.2,363z M389.7,363L389.7,363h-0.1l-1.9,1.9l-0.3,0.3
			l-1.4,1.4l-0.6,0.6l-0.3,0.3l-2,2l-0.3,0.3l-2,2l-0.3,0.3l-2,2l-0.3,0.3l-2,2l-0.3,0.3l-2,2l-0.3,0.3l-2,2l-0.3,0.3l-2,2l-0.3,0.3
			l-1.3,1.3v0.6l1.6-1.6l0.3-0.3l2-2l0.3-0.3l2-2l0.3-0.3l1-1l1-1l0.3-0.3l2-2l0.3-0.3l2-2l0.3-0.3l2-2l0.3-0.3l2-2l0.3-0.3l0.6-0.6
			l1.3-1.4c0.1-0.1,0.2-0.2,0.3-0.3c0.7-0.7,1.3-1.3,2-2c0.1,0,0.1-0.1,0.1-0.2L389.7,363z M394.3,363L394.3,363L394.3,363
			c-0.7,0.6-1.3,1.3-2,1.9c-0.1,0.1-0.2,0.2-0.3,0.3l-2,2l-0.3,0.3l-1.4,1.3l-0.6,0.6l-0.3,0.3l-2,1.9l-0.3,0.3l-1.9,2l-0.3,0.3
			l-2,1.9l-0.3,0.3l-2,1.9l-0.3,0.3l-1,1l-1,1l-0.3,0.3l-1.9,2l-0.3,0.3l-1.9,2l-0.3,0.3l-1.9,1.9l-0.3,0.3l-1.3,1.3v0.6l1.6-1.6
			l0.3-0.3l2-1.9l0.3-0.3l2-1.9l0.3-0.3l2-1.9l0.3-0.3l2.3-2.3l1.9-2l0.3-0.3l1.9-2l0.3-0.3l1.9-2l0.3-0.3l1.9-2l0.9-0.9l1.3-1.4
			l0.3-0.3l1.9-2l0.3-0.3l1.9-2l0.1-0.1L394.3,363z M398.8,363L398.8,363l-2,1.9l-0.3,0.3l-2,2l-0.3,0.3l-1.9,1.9
			c-0.1,0.1-0.2,0.2-0.3,0.3l-1.4,1.3l-0.6,0.6l-0.3,0.3l-1.9,1.9l-0.3,0.3l-1.9,1.9l-0.3,0.3l-1.9,2l-0.3,0.3l-1.9,1.9l-0.3,0.3
			l-1,1l-1,1l-0.3,0.3l-1.9,1.9l-0.3,0.3l-1.9,1.9l-0.3,0.3l-1.9,1.9l-0.3,0.3l-1.9,1.9l-0.3,0.3l-0.6,0.6l-0.7,0.7v0.6l1-1l0.6-0.6
			l0.3-0.3l1.9-1.9l0.3-0.3l1.9-1.9l0.3-0.3l1.9-1.9l0.3-0.3l1.9-1.9l0.3-0.3l1-1l1-1l0.3-0.3l1.9-1.9l0.3-0.3l1.9-1.9l0.3-0.3
			l1.9-1.9l0.3-0.3l1.9-1.9l0.3-0.3l0.6-0.6c0.4-0.5,0.9-0.9,1.3-1.4l0.3-0.3l1.9-1.9l0.3-0.3l1.9-2l0.3-0.3c0.6-0.6,1.3-1.3,1.9-2
			l0.1-0.1L398.8,363z M401.1,365.3c-0.6,0.6-1.3,1.2-1.9,1.9l-0.4,0.4c-0.6,0.6-1.3,1.2-1.9,1.9c-0.1,0.1-0.3,0.2-0.4,0.4
			c-0.6,0.6-1.3,1.3-1.9,1.9c-0.1,0.1-0.3,0.2-0.4,0.3l-1.4,1.3l-0.6,0.6l-0.4,0.4l-1.9,1.9l-0.4,0.4l-1.9,1.9l-0.4,0.4l-1.9,2
			l-0.4,0.4l-1.9,1.9l-0.4,0.4l-1,1l-1,1l-0.4,0.4l-1.9,1.9l-0.4,0.4l-1.9,1.9l-0.4,0.4l-1.9,1.9l-0.4,0.4l-1.9,1.9l-0.4,0.4
			l-0.6,0.6l-1.3,1.4l-0.4,0.4l-1.3,1.3v0.5l1.5-1.5l0.4-0.4l1.4-1.3l0.6-0.6l0.4-0.4l1.9-1.9l0.4-0.4l1.9-1.9l0.4-0.4l1.9-1.9
			l0.4-0.4l1.9-1.9l0.4-0.4l1-1l1-1l0.4-0.4l1.9-1.9l0.4-0.4l1.9-1.9l0.4-0.4l1.9-1.9l0.4-0.4l1.9-1.9l0.4-0.4l0.6-0.6l1.3-1.4
			l0.4-0.4c0.6-0.6,1.3-1.3,1.9-1.9l0.4-0.4c0.6-0.6,1.3-1.3,1.9-1.9c0.1-0.1,0.2-0.2,0.3-0.4c0.6-0.6,1.3-1.3,1.9-1.9
			c0,0,0.1-0.1,0.1-0.1v-0.2C401.2,365.2,401.1,365.3,401.1,365.3L401.1,365.3z M401.1,369.8l-1.9,1.9l-0.4,0.4
			c-0.6,0.6-1.3,1.3-1.9,1.9l-0.4,0.3l-1.4,1.3l-0.6,0.6l-0.4,0.4l-1.9,1.9l-0.4,0.4l-2,1.9l-0.4,0.4l-1.9,1.9l-0.4,0.4l-1.9,1.9
			l-0.4,0.4l-1,1l-1,1l-0.4,0.4l-1.9,1.9l-0.4,0.4l-1.9,1.9l-0.4,0.4l-1.9,1.9l-0.4,0.4l-1.9,1.9l-0.4,0.4l-0.6,0.6
			c-0.4,0.4-0.9,0.9-1.3,1.4c-0.1,0.1-0.2,0.2-0.4,0.4c-0.6,0.6-1.3,1.3-1.9,1.9c-0.1,0.1-0.3,0.2-0.4,0.4c-0.4,0.4-0.9,0.9-1.3,1.3
			v0.3l1.5-1.5c0.1-0.1,0.2-0.2,0.4-0.4c0.6-0.6,1.3-1.3,1.9-1.9l0.4-0.4l1.4-1.3l0.6-0.6l0.4-0.4l1.9-1.9l0.4-0.4l1.9-1.9l0.4-0.4
			l1.9-1.9l0.4-0.4l1.9-1.9l0.4-0.4l1-1l1-1l0.4-0.4l1.9-1.9l0.4-0.4l1.9-1.9l0.4-0.4l1.9-1.9l0.4-0.4l1.9-1.9l0.4-0.4l0.6-0.6
			c0.4-0.4,0.9-0.9,1.3-1.4l0.4-0.4c0.6-0.6,1.3-1.3,1.9-1.9c0.1-0.1,0.3-0.2,0.4-0.4l1.9-1.9h0.1v-0.3L401.1,369.8z M401.1,374.3
			l-1.9,1.9l-0.3,0.3l-1.4,1.3l-0.6,0.6l-0.4,0.3l-2,1.9l-0.3,0.3l-1.9,1.9l-0.3,0.3l-1.9,1.9l-0.3,0.3l-1.9,1.9l-0.3,0.3l-1,1l-1,1
			l-0.3,0.3l-1.9,2l-0.3,0.3l-1.9,1.9l-0.3,0.3l-1.9,1.9l-0.3,0.3l-1.9,1.9l-0.9,0.9c-0.4,0.5-0.9,0.9-1.3,1.4l-0.3,0.3
			c-0.6,0.6-1.3,1.3-1.9,1.9l-0.3,0.3l-2,2l-0.3,0.3c-0.4,0.5-0.9,0.9-1.3,1.4v0.2l1.5-1.4l0.3-0.3l2-1.9l0.3-0.3l1.9-1.9l0.3-0.3
			l1.4-1.3l0.6-0.6l0.3-0.3l1.9-1.9l0.4-0.3l1.9-1.9l0.3-0.3l1.9-1.9l0.3-0.3l1.9-1.9l0.3-0.3l1-1l1-1l0.3-0.3l1.9-1.9l0.3-0.3
			l1.9-1.9l0.3-0.3l1.9-1.9l0.3-0.3l1.9-1.9l0.3-0.3l0.6-0.6c0.4-0.5,0.9-0.9,1.3-1.4l0.3-0.3l1.9-1.9l0,0v-0.4
			C401.1,374.2,401.1,374.3,401.1,374.3L401.1,374.3z M401.3,379v-0.4l-0.2,0.2l-1.4,1.3l-0.6,0.6l-0.3,0.3l-2,1.9l-0.3,0.3
			l-1.9,1.9l-0.3,0.3l-2,1.9l-0.3,0.3l-1.9,1.9l-0.3,0.3l-1,1l-1,1l-0.3,0.3l-1.9,2l-0.3,0.3l-1.9,2l-0.3,0.3l-1.9,2l-0.3,0.3
			l-1.9,2l-0.3,0.3l-0.6,0.6c-0.4,0.5-0.9,0.9-1.3,1.4l-0.3,0.3c-0.6,0.6-1.3,1.3-1.9,2c-0.1,0.1-0.2,0.2-0.3,0.3
			c-0.6,0.6-1.3,1.3-1.9,2l-0.3,0.3c-0.4,0.4-0.7,0.8-1.1,1.1h0.2c0.3-0.3,0.7-0.7,1-1l0.3-0.3l2-1.9c0.1-0.1,0.2-0.2,0.3-0.3
			c0.7-0.6,1.3-1.3,2-1.9c0.1-0.1,0.2-0.2,0.3-0.3c0.5-0.4,0.9-0.9,1.4-1.3l0.6-0.6l0.3-0.3l2-1.9l0.3-0.3l2-1.9l0.3-0.3l2-1.9
			l0.3-0.3l2-1.9l0.3-0.3l1-1l1-1l0.3-0.3l1.9-2l0.3-0.3l1.9-2l0.3-0.3l1.9-2l0.3-0.3l1.9-2l0.3-0.3l0.6-0.6L401.3,379L401.3,379
			L401.3,379z M401.3,383.6v-0.5l-0.3,0.3l-2,2l-0.3,0.3l-2,2l-0.3,0.3l-2,2l-0.3,0.3l-2,2l-0.3,0.3l-1,1l-1,1l-0.3,0.3l-2,2
			l-0.3,0.3l-2,2l-0.3,0.3l-1.9,2l-0.3,0.3l-2,2l-0.3,0.3l-0.6,0.6l-1.4,1.4l-0.3,0.3c-0.7,0.7-1.3,1.3-1.9,2l-0.3,0.3l-1.2,1.2h0.4
			l1-1l0.3-0.3c0.7-0.6,1.3-1.3,2-1.9l0.3-0.3l1.4-1.4l0.6-0.6l0.3-0.3l2-2l0.3-0.3l2-2l0.3-0.3l2-2l0.3-0.3l2-2l0.3-0.3l1-1l1-1
			l0.3-0.3l2-2l0.3-0.3l2-2l0.3-0.3l1.9-1.9l0.3-0.3l1.9-1.9l0,0L401.3,383.6z M401.3,388.1v-0.5l-0.3,0.3l-2,2l-0.3,0.3l-2,2
			l-0.3,0.3l-2,2l-0.3,0.3l-1,1l-1,1l-0.3,0.3l-2,2l-0.3,0.3l-2,2l-0.3,0.3l-2,2l-0.3,0.3l-2,2l-0.3,0.3l-0.6,0.6
			c-0.5,0.5-0.9,0.9-1.4,1.4c-0.1,0.1-0.2,0.2-0.3,0.3c-0.4,0.4-0.8,0.8-1.2,1.2h0.4c0.3-0.3,0.7-0.6,1-1c0.1-0.1,0.2-0.2,0.3-0.3
			l1.4-1.4l0.6-0.6l0.3-0.3l2-2l0.3-0.3l2-2l0.3-0.3l2-2l0.3-0.3l2-2l0.3-0.3l1-1l1-1l0.3-0.3l2-2l0.3-0.3l2-2l0.3-0.3l1.9-1.9
			l0.1-0.1L401.3,388.1z M401.1,392.4l-2,2l-0.3,0.3l-2.1,2l-0.3,0.3l-1,1l-1,1l-0.3,0.3l-2,2l-0.3,0.3l-2,2l-0.3,0.3l-1.9,2
			l-0.3,0.3l-2,2l-0.3,0.3l-0.6,0.6l-0.6,0.6h0.5l0.4-0.3l0.6-0.6l0.3-0.3l2-2l0.3-0.3l2-2l0.3-0.3l2-2l0.3-0.3l2-2l0.3-0.2l1-1l1-1
			l0.3-0.3l2-2l0.3-0.3l1.9-1.9v-0.6L401.1,392.4z M401.3,396.7l-0.2,0.2L399,399l-0.2,0.2l-1,1l-1,1l-0.2,0.2l-2.1,2.1l-0.2,0.2
			l-2.1,2.1l-0.2,0.2l-2.1,2.1l-0.2,0.2l-1.3,1.3h0.6l1-1l0.2-0.2l2.1-2.1l0.2-0.2l2.1-2.1l0.2-0.2l2.1-2.1l0.2-0.2l1-1l1-1l0.2-0.2
			l1.9-2L401.3,396.7L401.3,396.7z M401.3,401.2l-0.2,0.2l-1,1l-1,1l-0.2,0.3l-2.1,2.1l-0.2,0.2l-2.1,2.1l-0.2,0.2l-1.3,1.3h0.6l1-1
			l0.1-0.1l2.1-2.1l0.2-0.2l2.1-2.1l0.1-0.1l1-1l0.9-0.9L401.3,401.2L401.3,401.2z M401.2,405.9l-2.2,2.2l-0.1,0.1l-1.3,1.4h0.7l1-1
			l0.1-0.1l2-2v-0.7L401.2,405.9z M399.5,363h-0.6l0,0l0.1,0.1l2.2,2.2l0.1,0.1l0.1,0.1v-0.7L399.5,363z M400.3,368.4l-1-1l-0.1-0.1
			l-2.1-2.1l-0.2-0.2l-2-2h-0.6l0.1,0.1l2.1,2.1l0.2,0.2l2.1,2.1l0.2,0.2l1,1l1,1l0.2,0.2l0.1,0.1v-0.7L400.3,368.4z M399.3,371.9
			l-0.2-0.2l-1-1l-1-1l-0.2-0.2l-2.1-2.1l-0.2-0.2l-2.1-2.1l-0.2-0.2l-1.9-1.8h-0.6l0.2,0.2l2.1,2.1l0.2,0.2l2.1,2.1l0.2,0.2
			l2.1,2.1l0.2,0.2l1,1l1,1l0.2,0.2l2.1,2.1l0.2,0.2l0,0V374L399.3,371.9z M399.3,376.5l-0.3-0.3l-2-2l-0.3-0.3l-1-1l-1-1l-0.3-0.2
			l-1.9-1.9l-0.3-0.3l-2-2l-0.3-0.3l-2-2l-0.3-0.3l-1.9-1.9l-0.1-0.1l-0.1,0.1h-0.3l0.2,0.2l2,2l0.3,0.3l2,2l0.3,0.3l2,2l0.3,0.3
			l2,2l0.3,0.3l1,1l1,1l0.3,0.3l2,2l0.3,0.3l2,2l0.2,0.2v-0.6L399.3,376.5z M401.2,383l-1.9-1.9l-0.3-0.3l-2-2l-0.3-0.3l-2-2
			l-0.3-0.3l-1-1l-1-1l-0.3-0.3l-2-2l-0.3-0.3l-2-2l-0.3-0.3l-2-2l-0.3-0.3l-2-2l-0.3-0.3l-0.6-0.6l-1.2-1.2l-0.1-0.1L381,363h-0.4
			c0.1,0.1,0.1,0.1,0.2,0.2c0.4,0.5,0.9,0.9,1.4,1.4l0.6,0.6l0.3,0.3l2,2l0.3,0.3l2,2l0.3,0.3l2,2l0.3,0.3l2,2l0.3,0.3l1,1l1,1
			l0.3,0.3l2,2l0.3,0.3l2,2l0.3,0.3l2,2l0.3,0.3v-0.5l0.1-0.1L401.2,383z M401.2,387.5l-1.9-1.9l-0.3-0.3l-2-2l-0.3-0.3l-2-2
			l-0.3-0.3l-1.9-1.9l-0.3-0.3l-2-1.9l-0.3-0.3l-2-2l-0.3-0.3l-2-2l-0.3-0.3l-2-2l-0.3-0.3l-2-2l-0.3-0.3l-0.6-0.6l-1.4-1.4
			l-0.3-0.3l-1.9-2c0,0,0,0,0-0.1l-0.1,0.1h-0.3l0.2,0.2c0.6,0.7,1.3,1.3,1.9,2l0.3,0.3l1.4,1.4l0.6,0.6l0.3,0.3l2,2l0.3,0.3l2,2
			l0.3,0.3l2,2l0.3,0.3l2,2l0.3,0.3l1,1l1,1l0.3,0.3l2,2l0.3,0.3l2,2l0.3,0.3l2,2l0.3,0.3l2,2l0.3,0.3L401.2,387.5L401.2,387.5
			L401.2,387.5z M401.2,392.1l-1.3-1.4l-0.9-0.9l-1.9-2l-0.3-0.3l-1.9-1.9l-0.3-0.3l-1.9-1.9l-0.3-0.3l-1.9-2l-0.3-0.3l-1-1l-1-1
			l-0.3-0.3l-2-1.9l-0.3-0.3l-1.9-1.9l-0.3-0.3l-2-1.9l-0.3-0.3l-2-1.9l-0.9-0.9l-1.4-1.3l-0.3-0.3l-2-1.9l-0.3-0.3l-1.9-2l0,0l0,0
			h-0.3l0.1,0.1c0.6,0.6,1.3,1.3,1.9,2l0.3,0.3l1.9,2l0.3,0.3l1.3,1.4l0.9,0.9l1.9,2l0.3,0.3l1.9,2l0.3,0.3l1.9,2l0.3,0.3l1.9,2
			l0.3,0.3l1,1l1,1l0.3,0.3l2,1.9l0.3,0.3l2,1.9l0.3,0.3l1.9,1.9l0.3,0.3l1.9,2l0.3,0.3l0.6,0.6l1.4,1.3l0.2,0.2L401.2,392.1
			L401.2,392.1C401.3,392.2,401.3,392.1,401.2,392.1L401.2,392.1z M401.2,396.7l-1.9-1.9l-0.3-0.3c-0.4-0.5-0.9-0.9-1.3-1.4
			l-0.6-0.6l-0.3-0.3l-1.9-1.9l-0.3-0.3l-1.9-1.9l-0.3-0.3l-1.9-1.9l-0.3-0.4l-1.9-1.9l-0.3-0.3l-1-1l-1-1l-0.3-0.3l-1.9-1.9
			l-0.3-0.3l-1.9-1.9l-0.3-0.3l-1.9-1.9l-0.4-0.3l-1.9-1.9l-0.3-0.3l-0.6-0.6l-1.4-1.3l-0.3-0.3c-0.6-0.6-1.3-1.3-1.9-1.9
			c-0.1-0.1-0.2-0.2-0.4-0.3l-1.9-1.9l-0.3-0.3l-1.5-1.4v0.2c0.4,0.5,0.9,0.9,1.3,1.4l0.3,0.3l1.9,1.9l0.3,0.4
			c0.6,0.6,1.3,1.3,1.9,1.9l0.3,0.3c0.4,0.5,0.9,0.9,1.3,1.4l0.6,0.6l0.3,0.3l1.9,1.9l0.3,0.3l1.9,2l0.3,0.3l1.9,1.9l0.3,0.3
			l1.9,1.9l0.3,0.3l1,1l1,1l0.3,0.3l1.9,1.9l0.3,0.3l1.9,1.9l0.3,0.3l1.9,1.9l0.4,0.3l1.9,1.9l0.4,0.3l0.6,0.6l1.4,1.3
			c0.1,0.1,0.2,0.2,0.3,0.3l1.9,1.9c0.1,0.1,0.1,0.2,0.2,0.2L401.2,396.7L401.2,396.7z M401.2,401.2l-1.9-1.9l-0.4-0.4
			c-0.6-0.6-1.3-1.3-1.9-1.9l-0.3-0.4l-1.3-1.4l-0.6-0.6l-0.4-0.4l-1.9-1.9l-0.4-0.4l-1.9-2l-2.3-2.3l-0.4-0.4l-1.9-1.9l-0.4-0.4
			l-1-1l-1-1l-0.4-0.4l-1.9-1.9l-0.4-0.4l-1.9-1.9l-0.4-0.4l-1.9-1.9l-0.4-0.4l-1.9-1.9l-0.4-0.4l-0.6-0.6l-1.4-1.3
			c-0.1-0.1-0.2-0.2-0.4-0.4c-0.6-0.6-1.3-1.3-1.9-1.9l-0.4-0.4l-1.5-1.5v0.3c0.4,0.4,0.9,0.9,1.3,1.3l0.4,0.4l1.9,1.9l0.4,0.4
			c0.4,0.5,0.9,0.9,1.3,1.4l0.6,0.6l0.4,0.4l1.9,1.9l0.4,0.4l1.9,1.9l0.4,0.4l1.9,1.9l0.4,0.4l1.9,1.9l0.4,0.4l1,1l1,1l0.4,0.4
			l1.9,1.9l0.4,0.4l1.9,1.9l0.4,0.4l1.9,1.9l0.4,0.4l1.9,1.9l0.4,0.4l0.6,0.6l1.4,1.3l0.4,0.3c0.6,0.6,1.3,1.3,1.9,1.9l0.4,0.4
			l1.9,1.9l0.2,0.2L401.2,401.2L401.2,401.2z M401.2,405.8c-0.6-0.6-1.2-1.3-1.9-1.9c-0.1-0.1-0.2-0.3-0.4-0.4
			c-0.6-0.6-1.2-1.3-1.9-1.9l-0.4-0.4c-0.6-0.6-1.3-1.3-1.9-1.9l-0.4-0.4l-1.3-1.4l-0.6-0.6l-0.4-0.4l-1.9-1.9l-0.4-0.4l-1.9-1.9
			l-0.4-0.4l-2-1.9l-0.4-0.4l-1.9-1.9l-0.4-0.4l-1-1l-1-1l-0.4-0.4l-1.9-1.9l-0.4-0.4l-1.9-1.9l-0.4-0.4l-1.9-1.9l-0.4-0.4l-1.9-1.9
			l-0.4-0.4l-0.6-0.6l-1.4-1.3l-0.4-0.4l-1.5-1.5v0.4c0.4,0.4,0.8,0.9,1.3,1.3l0.4,0.4c0.4,0.4,0.9,0.9,1.3,1.4l0.6,0.6l0.4,0.4
			l1.9,1.9l0.4,0.4l1.9,1.9l0.4,0.4l1.9,1.9l0.4,0.4l1.9,1.9l0.3,0.4l1,1l1,1l0.4,0.4l1.9,1.9l0.4,0.4l1.9,1.9l0.4,0.4l1.9,1.9
			l0.4,0.4l1.9,1.9l0.4,0.4l0.6,0.6l1.4,1.3l0.4,0.3c0.6,0.6,1.3,1.3,1.9,1.9c0.1,0.1,0.2,0.2,0.4,0.4c0.6,0.6,1.3,1.3,1.9,1.9
			l0.4,0.4l1.9,1.9c0,0.1,0.1,0.1,0.2,0.2v-0.2C401.2,405.9,401.2,405.9,401.2,405.8L401.2,405.8z M399.3,408.4
			c-0.1-0.1-0.2-0.2-0.3-0.4c-0.6-0.7-1.3-1.3-1.9-2l-0.3-0.4l-1.9-1.9c-0.1-0.1-0.2-0.2-0.3-0.3l-1.9-1.9c-0.1-0.1-0.2-0.2-0.3-0.3
			c-0.4-0.5-0.9-0.9-1.3-1.4l-0.9-0.9L388,397l-0.3-0.3l-1.9-1.9l-0.3-0.3l-1.9-1.9l-0.3-0.3l-2-1.9l-0.3-0.3l-1-1l-1-1l-0.3-0.3
			l-1.9-1.9l-0.3-0.3l-1.9-1.9L374,383l-1.9-1.9l-0.3-0.3l-1.9-1.9l-0.3-0.3l-0.6-0.6l-1-1v0.5l0.7,0.7l0.6,0.6l0.3,0.3l1.9,1.9
			l0.3,0.3l1.9,1.9l0.3,0.3l1.9,1.9l0.3,0.3l1.9,1.9l0.3,0.3l1,1l1,1l0.3,0.3l1.9,1.9l0.3,0.3l1.9,1.9l0.3,0.3l1.9,1.9l0.3,0.3
			l1.9,1.9l0.3,0.3l0.6,0.6l1.4,1.3l0.3,0.3l1.9,1.9c0.1,0.1,0.2,0.2,0.3,0.3c0.6,0.6,1.3,1.3,2,1.9c0.1,0.1,0.2,0.2,0.3,0.3l2,1.9
			c0.1,0.1,0.2,0.2,0.4,0.3c0.3,0.4,0.7,0.7,1,1h0.1C400,409.2,399.6,408.8,399.3,408.4L399.3,408.4z M394.8,408.4
			c-0.1-0.1-0.2-0.2-0.3-0.3l-1.9-2l-0.3-0.3l-1.9-2l-0.3-0.3l-1.3-1.4l-0.6-0.6l-0.3-0.3l-1.9-1.9l-0.3-0.3l-1.9-2l-0.3-0.3l-1.9-2
			l-0.3-0.3l-2-2l-0.3-0.3l-1-1l-1-1l-0.3-0.3l-2-1.9l-0.3-0.3l-2-1.9l-0.3-0.3l-2-1.9l-0.3-0.3l-1.6-1.6v0.6l1.3,1.3l0.3,0.3l1.9,2
			l0.3,0.3l1.9,2l0.3,0.3l1.9,2l0.3,0.3l1,1l1,1l0.3,0.3l2,1.9l0.3,0.3l2,1.9l0.3,0.3l2,1.9l0.3,0.3l2,1.9l0.9,0.9
			c0.5,0.4,0.9,0.9,1.4,1.3c0.1,0.1,0.2,0.2,0.3,0.3c0.6,0.6,1.3,1.3,2,1.9l0.3,0.3l2,1.9l0.3,0.3l1,1h0.2
			C395.5,409.2,395.1,408.8,394.8,408.4L394.8,408.4z M390.3,408.4l-0.3-0.3l-2-2l-0.3-0.3c-0.4-0.5-0.9-0.9-1.3-1.4l-0.6-0.6
			l-0.3-0.3l-2-2l-0.3-0.3l-2-2l-0.3-0.3l-2-2l-0.3-0.3l-2-2l-0.3-0.3l-1-1l-1-1l-0.3-0.3l-2-2l-0.3-0.3l-2-2l-0.3-0.3l-1.6-1.6v0.6
			l1.3,1.3l0.3,0.3l2,2l0.3,0.3l2,2l0.3,0.3l1,1l1,1l0.3,0.3l2,2l0.3,0.3l2,2l0.3,0.3l2,2l0.3,0.3l2,2l0.3,0.3l0.6,0.6l1.4,1.4
			l0.3,0.3l2,1.9l0.3,0.3l1,1h0.4L390.3,408.4z M385.7,408.4l-0.3-0.3c-0.4-0.5-0.9-0.9-1.4-1.4l-0.6-0.6l-0.3-0.3l-2-2l-0.3-0.3
			l-2-2l-0.3-0.3l-2-2l-0.3-0.3l-2-2l-0.3-0.3l-1-1l-1-1l-0.3-0.3l-2-2l-0.3-0.3l-1.6-1.6v0.7l1.3,1.3l0.3,0.3l2,2l0.3,0.3l1,1l1,1
			l0.3,0.3l2,2l0.3,0.3l2,2l0.3,0.3l2,2l0.3,0.3l2,2l0.3,0.3l0.6,0.6l1.4,1.4l0.3,0.3l1,1h0.5C386.5,409.2,386.1,408.8,385.7,408.4
			L385.7,408.4z M381.8,409l-0.6-0.6l-0.3-0.3l-2-2l-0.3-0.3l-2.1-2.1l-0.3-0.3l-2-2l-0.3-0.3l-2-2l-0.3-0.3l-1-1l-1-1l-0.3-0.3
			l-1.6-1.6v0.7l1.3,1.3l0.3,0.3l1,1l1,1l0.3,0.3l2,2l0.3,0.2l2,2l0.3,0.3l2,2l0.3,0.2l2,2l0.3,0.3l0.6,0.6l0.4,0.3h0.5L381.8,409z
			 M376.6,408.4l-0.2-0.2l-2.1-2.1l-0.2-0.2l-2.1-2.1l-0.2-0.2l-2.1-2.1l-0.2-0.2l-1-1l-0.6-0.6v0.7l0.3,0.3l1,1l0.2,0.2l2.1,2.1
			l0.2,0.2l2.1,2.1l0.2,0.2l2.1,2.1l0.2,0.2l1,1h0.6L376.6,408.4z M372.1,408.4l-0.2-0.2l-2.1-2.1l-0.3-0.3l-1.7-1.7v0.7l1.3,1.3
			l0.2,0.2l2.1,2.1l0.1,0.1l1,1h0.6L372.1,408.4z M368,408.8v0.7l0.2,0.2h0.7L368,408.8z"/>
	</g>
	<g id="freepik--character-1--inject-5">
		<path class="st9" d="M223.2,467.4L204.9,504c-1.5,7.6-2.7,14.2-3,17.7c0,0,0,0,0,0.1c-0.2,0.8-0.1,1.6,0.1,2.4c0,0,0,0,0,0.1
			c1.9,2,62,15.8,64.3,15.6s1.8-6.7-0.1-9.1c-1.9-2.4-22.6-18-22.6-18l17.9-36.7L223.2,467.4z"/>
		<path class="st7" d="M266.2,540c-2.2,0.2-62.3-13.6-64.3-15.6v-0.1c-0.2-0.8-0.2-1.6-0.1-2.4c0,0,0,0,0-0.1
			c0.3-3.5,1.5-10.2,3-17.8l3.4-6.9l38.8,8.5l-3.5,7.2c0,0,20.6,15.6,22.5,18S268.5,539.7,266.2,540z"/>
		<path class="st0" d="M266.3,540c-2.3,0.2-62.3-13.6-64.3-15.6c-0.8-0.7,0.7-9.6,2.9-20.3l0.1-0.3l38.9,8.5l-0.2,0.6
			c0,0,20.6,15.6,22.5,18C268.1,533.3,268.5,539.7,266.3,540z"/>
		<path class="st10" d="M266.3,540c-2.3,0.2-62.3-13.6-64.3-15.6c-0.8-0.7,0.7-9.6,2.9-20.3l0.1-0.3l38.9,8.5l-0.2,0.6
			c0,0,20.6,15.6,22.5,18C268.1,533.3,268.5,539.7,266.3,540z"/>
		<path class="st4" d="M266.1,537.5c-10.1-2.6-50.9-12-61.1-13.8c-0.1,0-0.1,0,0,0.1c9.9,2.8,50.9,11.9,61.1,13.9
			C266.3,537.7,266.3,537.5,266.1,537.5z"/>
		<path class="st4" d="M246.8,513.8c-3.8-1.7-8.8-2.2-12.5,0c-0.1,0.1,0,0.3,0.1,0.3c4.1-0.4,8.2-0.3,12.3,0.3c0.1,0,0.3,0,0.3-0.2
			S247,513.8,246.8,513.8z"/>
		<path class="st4" d="M249.3,516.2c-3.8-1.7-8.8-2.2-12.5,0c-0.1,0.1,0,0.3,0.1,0.3c4.1-0.4,8.2-0.3,12.3,0.3c0.1,0,0.3,0,0.3-0.2
			C249.5,516.3,249.4,516.2,249.3,516.2z"/>
		<path class="st4" d="M251.8,518.5c-3.8-1.7-8.8-2.2-12.5,0c-0.1,0.1,0,0.3,0.1,0.3c4.1-0.3,8.2-0.3,12.3,0.3c0.1,0,0.3,0,0.3-0.2
			C252,518.7,251.9,518.6,251.8,518.5z"/>
		<path class="st10" d="M266.2,540c-0.9,0.1-11.5-2.2-23.8-5l5.4-18.8c6.1,4.7,17,13.1,18.3,14.8C268,533.3,268.5,539.7,266.2,540z"
			/>
		<path class="st5" d="M205,501.2l43.9,11.1c0,0,45.4-82.8,44.4-101.5c-1.3-26-31.7-105.6-31.7-105.6h-36.4
			c0,0,24.2,86.1,24.5,100.6C249.9,413.4,205,501.2,205,501.2z"/>
		<path class="st4" d="M250.8,503.4c-2.3-0.9-23.3-7-38.9-10.3c-0.1,0-0.1,0.1,0,0.2c4.9,1.7,35.9,9.9,38.8,10.3
			C250.8,503.6,250.9,503.4,250.8,503.4z"/>
		<path class="st4" d="M252.7,387.3c-2.9-12.2-5.9-24.3-9.3-36.3c-3.3-12.1-6.7-24.2-10.6-36.1c-0.5-1.5-1-2.9-1.4-4.4
			c0-0.1-0.2-0.1-0.2-0.1c-0.1,0-0.1,0.1-0.1,0.2c3.4,11.9,6.9,23.8,10.1,35.7c3.2,12,6.3,23.9,9.3,36c0.7,3,1.4,6,2.1,9
			c0.8,3.1,1.4,6.2,1.9,9.3c0.4,3,0.2,6-0.6,9c-0.8,2.9-1.9,5.7-3.2,8.4c-5.3,11.4-10.5,22.8-15.8,34.2
			c-5.2,11.4-10.5,22.9-15.5,34.4c-0.6,1.4-1.2,2.9-1.9,4.3c0,0.1,0.1,0.2,0.1,0.1c5.8-11.3,11-22.9,16.3-34.4
			c5.3-11.5,10.7-23.1,16-34.7c2.4-5.2,5.2-10.6,5.6-16.4C256,399.3,254.1,393.2,252.7,387.3z"/>
		<path class="st9" d="M251.5,481.9c0,0,1.4,40.3,1.4,40.3c0.2,7.7,0.6,14.5,1,17.9c0,0,0,0,0,0.1c0,0.8,0.2,1.6,0.6,2.4l0.1,0.1
			c2.3,1.5,64,1.4,66.1,0.7c2.2-0.7,0.3-6.9-2.1-8.8c-2.4-1.9-26-12.5-26-12.5l-1.8-40.3L251.5,481.9z"/>
		<path class="st7" d="M252.6,514c0,0,0.3,8.2,0.3,8.3c0.2,7.7,0.6,14.5,1,17.9c0,0,0,0,0,0.1c0.1,0.8,0.3,1.6,0.6,2.4l0.1,0.1
			c2.3,1.5,64,1.4,66.1,0.7c2.2-0.7,0.3-6.9-2.1-8.8c-2.4-1.9-26-12.5-26-12.5l-0.2-8.4L252.6,514z"/>
		<path class="st0" d="M320.8,543.4c-2.2,0.7-63.8,0.8-66.1-0.7c-0.9-0.6-1.4-9.5-1.8-20.4c0-0.1,0-0.2,0-0.3l39.7-0.5v0.7
			c0,0,23.6,10.5,26,12.5C321,536.5,322.9,542.7,320.8,543.4z"/>
		<path class="st10" d="M320.8,543.4c-2.2,0.7-63.8,0.8-66.1-0.7c-0.9-0.6-1.4-9.5-1.8-20.4c0-0.1,0-0.2,0-0.3l39.7-0.5v0.7
			c0,0,23.6,10.5,26,12.5C321,536.5,322.9,542.7,320.8,543.4z"/>
		<path class="st4" d="M320.1,541c-10.4-0.3-52.3-0.3-62.6,0.3c-0.1,0-0.1,0.1,0,0.1c10.3,0.5,52.3,0.2,62.6-0.2
			C320.3,541.2,320.3,541,320.1,541z"/>
		<path class="st4" d="M296,522.2c-4.1-0.8-9.1-0.1-12.2,2.8c-0.1,0.1,0,0.3,0.2,0.2c3.9-1.3,7.9-2.1,12-2.5c0.1,0,0.2-0.2,0.2-0.3
			C296.1,522.3,296.1,522.3,296,522.2z"/>
		<path class="st4" d="M298.9,524c-4.1-0.8-9.1-0.1-12.2,2.8c-0.1,0.1,0,0.3,0.2,0.2c3.9-1.3,7.9-2.1,12-2.5c0.1,0,0.2-0.2,0.2-0.3
			C299.1,524.1,299,524,298.9,524z"/>
		<path class="st4" d="M301.9,525.8c-4.1-0.8-9.1-0.1-12.2,2.8c-0.1,0.1,0,0.3,0.2,0.2c3.9-1.3,7.9-2.1,12-2.5
			c0.1,0,0.2-0.2,0.2-0.3C302.1,525.9,302,525.8,301.9,525.8z"/>
		<path class="st5" d="M257.9,305.1L257.9,305.1c-0.2,0.7-9.2,36.6-10.4,37.3c-1.1,0.7,33,46.9,37.1,69.5
			c2.6,14.5,11.3,108,11.3,108h-46.4c0,0-4.3-80.8-5.7-104.4c-0.6-9.1-36.3-48.4-39.2-78.8c-0.9-8.9,6.4-31.7,6.4-31.7L257.9,305.1z
			"/>
		<path class="st4" d="M248.4,476.8c-0.5-11.9-1-23.8-1.9-35.6c-0.5-6.7-1.5-13.2-2.1-19.9c0-0.4-0.3-0.4-0.3-0.1
			c0.3,11.9,1.3,23.7,1.9,35.6c0.6,11.9,1.2,23.8,1.9,35.6c0.4,6.7,0.7,13.4,1.2,20.2c0,0.1,0.2,0.1,0.2,0
			C249.4,500.6,248.9,488.7,248.4,476.8z"/>
		<path class="st4" d="M284.7,412.5c-0.4-3.1-1-6.2-1.8-9.3c-0.9-3-2.1-5.8-3.5-8.5c-3-5.7-6.4-11.2-9.6-16.8
			c-3.3-5.5-6.7-11.2-10.1-16.7c-1.9-3.1-3.9-6.2-5.8-9.3c-2-3.1-4.1-6.2-6.1-9.3c0-0.1-0.1-0.1-0.2,0c0,0-0.1,0.1,0,0.1
			c3.3,5.6,6.7,11.2,10,16.8c3.3,5.6,6.6,11.2,9.9,16.9c3.3,5.6,6.5,11.1,9.6,16.7c1.5,2.7,2.8,5.5,3.9,8.4c1,3,1.8,6.1,2.2,9.2
			c1.2,7.3,2.1,14.6,3.6,21.8c0,0.1,0.2,0.1,0.2,0C286.3,425.7,285.5,419.1,284.7,412.5z"/>
		<path class="st4" d="M292,512.5c-2.5-0.3-24.3-1-40.2-0.3c0,0-0.1,0-0.1,0c0,0,0,0.1,0,0.1c0,0,0,0,0.1,0
			c5.2,0.5,37.2,0.7,40.2,0.3C292.1,512.6,292.2,512.5,292,512.5z"/>
		<path class="st4" d="M253.3,340c-4.5,1.6-8.8,3.6-12.9,6c-0.2,0.1,0,0.3,0.1,0.3c4.3-1.9,8.8-3.6,13-5.8c0.1-0.1,0.2-0.2,0.1-0.4
			S253.4,339.9,253.3,340z"/>
		<path class="st4" d="M254.5,310.2c0-0.1-0.3-0.2-0.3,0c0,4.8-0.2,9.7-0.7,14.5c-0.2,2.2-2,14.6-5.9,13.7c-0.6-0.2-1-0.8-1-1.8
			c0-1.3,0.2-2.5,0.5-3.8c0.4-2.6,0.8-5.2,1-7.8c0.5-4.9,0.4-9.8-0.2-14.6c0-0.1-0.1-0.1-0.1-0.1c-0.1,0-0.1,0.1-0.1,0.1l0,0
			c0.1,6.8-0.3,13.5-1.2,20.2c-0.5,3.2-2.1,8.1,1.3,8.6c3.3,0.5,5.6-7.6,6.1-9.8C254.9,323,255.1,316.6,254.5,310.2z"/>
		<path class="st4" d="M247.8,338.7c-0.3,0.8-0.6,1.7-0.9,2.6c-0.2,0.7-0.4,1.4-0.4,2.1c0,0.1,0.2,0.1,0.3,0.1
			c0.4-0.6,0.7-1.4,0.9-2.1c0.3-0.8,0.6-1.6,0.9-2.4c0-0.2-0.2-0.4-0.4-0.5C248,338.5,247.9,338.6,247.8,338.7z"/>
		<path class="st4" d="M252.2,467.4c-0.9-13.5-1.7-26.9-2.6-40.4c-0.4-6.1-0.4-12.5-3-18.2c-1.4-2.8-3-5.4-4.7-7.9
			c-1.8-2.7-3.5-5.4-5.2-8.2c-6.9-11-13.5-22.1-19.5-33.6c-3.1-5.4-5.4-11.3-7-17.3c-1.4-6.4-1.7-13-0.8-19.5
			c0.2-1.6,0.4-3.2,0.7-4.8c0-0.1-0.2-0.2-0.2,0c-1.4,6.2-1.9,12.6-1.4,18.9c0.7,6,2.4,11.9,5,17.4c2.7,5.8,5.8,11.3,8.9,16.8
			c3.2,5.7,6.5,11.3,9.9,16.9c3.4,5.5,7,11,10.5,16.4c1.8,2.6,3.2,5.4,4.2,8.4c0.8,3.1,1.2,6.3,1.3,9.5c0.9,13.5,1.7,27,2.6,40.5
			c0.9,13.5,1.7,26.9,2.9,40.4c0.2,1.7,0.3,3.4,0.5,5.1c0,0.1,0.3,0.1,0.2,0C254,494.4,253.1,480.9,252.2,467.4z"/>
		<path class="st4" d="M225.5,317c0-0.1-0.2-0.1-0.2,0c-0.1,3.7,0,7.6-1.5,11.2c-1.4,3.1-3.9,5.7-7,7.2c-1.7,1-3.5,1.8-5.3,2.6
			c-0.1,0.1-0.1,0.3,0.1,0.2c3.5-1,7-2.3,9.8-4.6c2.9-2.5,4.6-6.1,4.6-9.9C226.1,321.4,225.9,319.2,225.5,317z"/>
		<path class="st9" d="M255.4,264.2c4.1,13.9,10.4,27.1,18.7,39.1c8.1,10.6,49,4.5,56.7,2.7c3.1-0.7-5.7-24.5-9.1-25.3
			c-2.4-0.6-31.4,6.4-32.6,4.6c-0.9-1.2-15-16.2-22.6-25.6C255.7,246.4,253.9,259.1,255.4,264.2z"/>
		<path class="st9" d="M330.8,306c3.3-0.3,18.7-3,22.7-4.7c4-1.7,15.3-7.5,14.3-10.7c-1-3.2-4.4-1.8-4.4-1.8s4.4-3.1,3.1-6.3
			c-1.3-3.2-6.6-0.8-6.6-0.8s4.3-3.6,2.7-6.7c-1.5-3.1-6.4,0.2-6.4,0.2s4-3.1,1.7-5.1c-2.8-2.4-9.6,4.2-14.2,5.7
			c-1,0.3-21.7,5.6-21.7,5.6L330.8,306z"/>
		<path class="st4" d="M356.6,275c-5,4.8-8.1,6.1-14.8,7.4c-0.1,0-0.1,0.2,0,0.2c6.7-0.8,10.7-1.8,15-7.4
			C357.1,274.9,356.9,274.7,356.6,275z"/>
		<path class="st4" d="M360.3,281.3c-5.7,4.5-8.9,5.9-15.9,7.9c-0.1,0-0.1,0.2,0,0.2c7-1.4,10.9-2.5,16-7.7
			C360.7,281.4,360.5,281.1,360.3,281.3z"/>
		<path class="st4" d="M363,288.9c-5.8,4-9.3,5.7-16.3,6.7c-0.1,0-0.1,0.1-0.1,0.1c0,0.1,0.1,0.1,0.1,0.1c7.2-0.4,11.6-2.4,16.4-6.8
			C363.4,288.7,363.4,288.6,363,288.9z"/>
		<path class="st9" d="M317.8,282.3c0,0,5.1-7.1,8-9.7c2.9-2.6,17.4-8.4,18.8-5.4c1.8,3.9-5.8,8.9-9.9,10.9c0,0,4.3,9.1-0.5,13.9
			C329.4,296.7,317.8,282.3,317.8,282.3z"/>
		<path class="st4" d="M344.7,268.4c-0.9,4.8-6.4,7-10.3,9.2c-0.2,0.1-0.3,0.3-0.2,0.5c0,0.1,0.1,0.1,0.1,0.1
			c1.5,3.9,2.6,9.9,0.1,13.7c0,0,0,0.1,0,0.1c0,0,0.1,0,0.1,0c3.2-3.6,2.7-9.6,0.7-13.8C339.2,276.1,344.7,273.6,344.7,268.4
			L344.7,268.4z"/>
		<path class="st0" d="M263.9,289.3l20.1-10.6c0-2.2-0.4-4.4-1.3-6.4c-1.3-2.6-11.8-12.5-18.2-17c-6-4.2-12.5-3.9-9.6,10.5
			c3,14.7,4.3,18.8,5.2,20.8C261.1,288.5,263.9,289.3,263.9,289.3z"/>
		<path class="st4" d="M282.9,276.6C282.9,276.6,282.9,276.5,282.9,276.6c-6.8,3-13.5,6.3-20.1,9.9c-0.1,0,0,0.2,0.1,0.1
			C269.7,283.6,276.3,280.3,282.9,276.6z"/>
		<path class="st4" d="M274.3,283.8l-10.4,5.5c0,0-2.8-0.8-3.7-2.8s-2.2-6.1-5.2-20.8c-1.1-5.4-0.9-8.8,0.1-10.7L274.3,283.8z"/>
		<path class="st0" d="M205.4,326.5l65,2.7c0.3-0.3,2.7-1.2,2.3-10.1c-0.8-20.2-7.5-56.5-11.5-64.2c-3.1-6.6-11-9.3-17.6-6.2
			c-0.1,0-0.1,0-0.2,0.1c-3.7,2.1-7.1,4.9-11.5,11c-10.8,14.9-22.8,41.5-27,56.1C203.3,322,205.3,326.4,205.4,326.5z"/>
		<path class="st4" d="M268.3,281.1c-0.4-1.8-0.7-3.6-1.1-5.4c-0.1-0.6-0.3-1.2-0.4-1.9c0-1.8-0.2-3.6-0.4-5.4c0-0.1-0.1,0-0.1,0
			c0,1.3,0,2.6,0.2,3.8c-0.6-2.4-1.2-4.8-1.9-7.2c0.6,3.6,1.3,7.2,2.1,10.7l1.2,5.2c0.4,1.8,0.9,3.6,1.3,5.4c0,0.1,0.2,0.1,0.2,0
			C268.8,284.6,268.6,282.8,268.3,281.1z"/>
		<path class="st9" d="M241,260c-11.2,11-24.6,19.4-39.4,24.8c-12.9,4.3-39.5-3.3-46.6-6.4c-3.1-1.3,10.5-23.5,13.8-24.8
			c0,0,27.8,5.1,29.9,4.7c1.5-0.3,22.4-4.3,35.2-8.2C250.5,245,244.9,256.1,241,260z"/>
		<path class="st9" d="M138.3,269.1c4.6,4.5,17.6,10.2,21.2,10.3c3.7,0.2,12.4-20.5,10.7-23.8c-1.7-3.3-16.8-18.6-23.4-19.3
			C140.4,235.6,133.5,264.4,138.3,269.1z"/>
		<path class="st0" d="M147,420.8l-6.5-0.2l6.3-187.2c0.1-3.5-0.8-6.5-2.6-8.5c-1.5-1.7-3.5-2.6-5.8-2.7c-3.9-0.1-7.9,2.6-8.1,9
			l-0.3,5.3l-6.5-0.2l0.2-5.4c0.3-10.4,7.8-15.6,14.9-15.3c4,0.1,7.8,1.9,10.5,4.9c2.1,2.3,4.5,6.4,4.3,13.1L147,420.8z"/>
		<polygon class="st0" points="149.6,428.2 137.5,427.8 138.9,413.1 149.1,413.4 		"/>
		<polygon class="st11" points="149.6,428.2 137.5,427.8 138.9,413.1 149.1,413.4 		"/>
		<path class="st9" d="M156.8,239.4c0.8,3.3-3.5,2.4-3.5,2.4s6,2.8,5.5,6.6s-5.7,2.3-6.1,2.2c0.3,0.1,5.8,2.9,4.9,6.6
			c-0.8,3.7-5.9,1.7-6.3,1.5c0.3,0.2,3.5,3.4,2.2,6.1c-2.2,4.6-10.9-3.4-15-3c0,0-0.2,7-0.3,7.3c0,0-8.4-7.4-8.5-13
			c-0.1-1.7,1-3.2,2.7-3.6c0,0-3-2.1-2.4-5c0.3-1.5,3-2.4,3-2.4c-1.3-1-1.9-2.7-1.6-4.4c0.5-2.1,3.1-2.6,3.1-2.6s-1.4-2.7-0.2-4.7
			C136.8,229.5,155,232.3,156.8,239.4z"/>
		<path class="st4" d="M135,238C134.9,238,134.9,237.9,135,238c6.4-0.7,12.9,0.7,18.5,3.8c0.2,0.1,0.1,0.4-0.1,0.4
			C147.4,239.9,141.2,238.5,135,238z"/>
		<path class="st4" d="M132.9,245c-0.1,0-0.1-0.1,0-0.1c7.1-0.6,14.2,1.4,19.9,5.6c0.2,0.1,0.2,0.5,0,0.3
			C148.8,248.1,138.9,245.4,132.9,245z"/>
		<path class="st4" d="M151.6,259.2c-5.7-4-12.1-5.8-18.9-6.7c-0.1,0-0.1-0.1,0-0.1c3.5-0.5,7.8,0.6,11,1.6c3.1,0.9,5.8,2.7,8,5
			C151.8,259.1,151.7,259.3,151.6,259.2z"/>
		<path class="st4" d="M153.2,241.8c1.1,0.6,2.2,1.4,3.1,2.2c1,0.8,1.7,1.8,2.2,3c0.2,0.5,0.1,1.1-0.1,1.6c-0.2,0.5-0.6,1-1,1.3
			c-1,0.6-2.2,0.8-3.3,0.4l-2.7-0.7l2.3,1.6c1,0.7,1.9,1.6,2.6,2.6c0.8,0.9,1.1,2.1,0.9,3.2c-0.2,1.1-1.1,1.9-2.2,2
			c-1.2,0-2.4-0.2-3.5-0.8l-3-1.4l2.4,2.3c0.7,0.6,1.2,1.4,1.7,2.1c0.5,0.7,0.7,1.6,0.8,2.5c0,0.8-0.5,1.5-1.3,1.8
			c-0.9,0.2-1.8,0.2-2.6,0c-1.8-0.5-3.6-1.2-5.4-2c-0.9-0.4-1.8-0.8-2.7-1c-0.9-0.4-1.9-0.6-2.9-0.6c1,0.1,1.9,0.4,2.7,0.8
			c0.9,0.4,1.7,0.8,2.6,1.3c1.7,1,3.5,1.7,5.4,2.4c1,0.4,2.1,0.4,3.1,0.1c1.1-0.4,1.9-1.5,1.9-2.6c0-1.1-0.3-2.1-0.8-3.1
			c-0.5-0.9-1.2-1.7-1.9-2.4l-0.6,0.9c1.3,0.7,2.7,1,4.1,0.9c0.8,0,1.5-0.4,2.1-0.9c0.5-0.5,0.9-1.2,1-2c0.2-1.5-0.2-2.9-1.2-4.1
			c-0.8-1.1-1.8-2.1-2.9-2.9l-0.4,0.9c1.4,0.4,2.9,0.1,4.1-0.7c0.6-0.4,1-1,1.3-1.7c0.3-0.7,0.3-1.4,0-2.1c-0.5-1.2-1.4-2.3-2.5-3
			C155.5,243,154.4,242.3,153.2,241.8z"/>
		<path class="st9" d="M168.8,253.6c0,0-9.2-26.7-17.6-18.3c-2.5,2.5-9.7,15.8-7.1,17.3c3.4,1.9,7.5-3.1,9.5-6.6
			c0,0,1.8,9.2,8.6,9.9C164.7,256.2,167.1,255.3,168.8,253.6z"/>
		<path class="st4" d="M152,234.6c-1.1,0.9-2.1,1.9-2.9,3c-0.8,1.1-1.6,2.3-2.3,3.5c-1.4,2.4-2.5,5-3.5,7.7
			c-0.2,0.7-0.4,1.4-0.4,2.2c0,0.4,0.1,0.9,0.2,1.3c0.1,0.2,0.2,0.4,0.4,0.6c0.2,0.2,0.3,0.3,0.6,0.4c0.7,0.4,1.6,0.5,2.4,0.4
			c0.7-0.2,1.5-0.5,2.1-0.9c1.2-0.8,2.3-1.8,3.1-3c0.9-1.1,1.6-2.3,2.3-3.5l-0.9-0.2c0.2,1,0.6,2.1,1,3c0.4,1,0.9,1.9,1.6,2.8
			c0.6,0.9,1.4,1.7,2.2,2.3c0.8,0.6,1.8,1.1,2.8,1.4c-0.9-0.4-1.8-1-2.6-1.7c-0.7-0.7-1.4-1.5-1.9-2.4c-0.5-0.9-1-1.8-1.3-2.7
			c-0.4-0.9-0.6-1.9-0.8-2.9l-0.2-1.2l-0.7,1c-0.7,1.2-1.5,2.3-2.4,3.3c-0.8,1.1-1.8,2-2.9,2.7c-0.9,0.7-2.2,0.9-3.3,0.5
			c-0.8-0.4-0.6-1.9-0.2-3.1c0.4-1.2,0.9-2.6,1.4-3.8s1-2.5,1.7-3.8C148.6,239,150.1,236.7,152,234.6z"/>
		<path class="st0" d="M209.9,255.1l9.1,22.5c2.3-0.4,4.5-1,6.7-1.7c2.7-1,13.5-11.4,17.7-17.4c4.2-6,5.4-11.5-9.2-10
			c-15,1.6-19.2,2.4-21.3,3.1C210.9,252.4,209.9,255.1,209.9,255.1z"/>
		<path class="st4" d="M233.4,270.3l-0.6,0.4c0.3-0.3,0.7-0.7,1-1c1.3-1.3,2.4-2.7,3.6-4.1c0,0,0-0.1-0.1-0.1
			c-1.2,1.2-2.6,2.4-3.8,3.6c-1.3,1.2-2.5,2.4-3.8,3.6c-1.1,1.1-2.4,2.1-3.9,2.8c-0.8,0.3-1.5,0.6-2.3,0.9c-0.8,0.3-1.6,0.5-2.4,0.7
			c0,0-0.1,0.1,0,0.1c0,0,0,0,0,0c0.8-0.2,1.7-0.2,2.5-0.4c0.8-0.2,1.6-0.4,2.3-0.8c1.4-0.7,2.7-1.6,3.8-2.7l2.1-1.9l0.4-0.3
			c0.4-0.3,0.8-0.5,1.2-0.8c0.8-0.6,1.5-1.1,2.3-1.7c0,0,0-0.1-0.1-0.1L233.4,270.3z"/>
		<path class="st4" d="M211.8,254.8C211.8,254.8,211.7,254.8,211.8,254.8c2.5,7.1,5.2,14,8.4,20.8c0,0.1,0.2,0,0.1-0.1
			C217.7,268.6,214.9,261.6,211.8,254.8z"/>
		<path class="st9" d="M253.2,261.4c-1-0.4-6.2-7.7-7-12.5c0.9-2.2,1.8-4.4,2.9-6.5c0.9-2.1,1.9-4.4,2.7-6.6
			c0.1-0.4,1.4,0.9,1.4,0.9l2.6,1.7l8.7,5.5c-1.7,2.5-3.1,5.2-4.2,8c-0.1,0.3-0.2,0.6-0.2,0.9c0,0.1,0,0.1,0,0.2
			C259.8,254.8,254.9,262,253.2,261.4z"/>
		<path class="st4" d="M260.1,252.8c0,0.1,0,0.1,0,0.2c-0.5-0.1-1-0.2-1.5-0.4c-9.2-3.4-6.4-15.6-6.4-15.6l3.6,1.4l8.7,5.5
			c-1.7,2.5-3.1,5.2-4.2,8C260.2,252.2,260.1,252.5,260.1,252.8z"/>
		<path class="st9" d="M254.7,219.5c-2.9,4.6-4.2,19.8-1.6,23.9c3.9,6.1,12.2,8.9,17.9,3.8c5.5-4.9,6.9-24.7,3.7-28.8
			C270.1,212.5,259,212.8,254.7,219.5z"/>
		<path class="st4" d="M266.4,232C266.4,232,266.3,232,266.4,232c-0.1,1.1-0.4,2.3-1.3,2.5v0.1C266.2,234.6,266.5,233,266.4,232z"/>
		<path class="st4" d="M265.6,230.9c-1.6-0.3-2.1,3-0.6,3.3C266.6,234.4,267,231.1,265.6,230.9z"/>
		<path class="st4" d="M272.3,233C272.3,233,272.4,233,272.3,233c-0.1,1.1-0.1,2.3,0.8,2.8c0,0,0,0.1,0,0
			C271.9,235.5,272,233.9,272.3,233z"/>
		<path class="st4" d="M273.3,232.1c1.7,0.1,1.3,3.4-0.2,3.3S271.9,232,273.3,232.1z"/>
		<path class="st1" d="M264.5,229.2c0.5-0.1,0.9-0.2,1.3-0.3c0.5,0,0.9-0.2,1.3-0.5c0.2-0.2,0.2-0.6,0-0.8c-0.5-0.4-1.1-0.6-1.7-0.4
			c-0.6,0.1-1.2,0.4-1.6,0.9c-0.2,0.3-0.2,0.8,0.2,1C264.1,229.2,264.3,229.2,264.5,229.2z"/>
		<path class="st1" d="M274.8,230.6c-0.4-0.1-0.8-0.3-1.3-0.5c-0.5-0.1-0.9-0.4-1.2-0.8c-0.2-0.3-0.1-0.6,0.1-0.8
			c0.5-0.3,1.2-0.4,1.8-0.1c0.6,0.2,1.1,0.6,1.4,1.2c0.2,0.4,0,0.8-0.4,1C275.2,230.6,275,230.6,274.8,230.6z"/>
		<path class="st4" d="M264.2,241.4c0.2,0.3,0.4,0.6,0.8,0.7c0.4,0,0.8,0,1.1-0.1c-0.4,0.4-0.9,0.5-1.4,0.4c-0.4-0.2-0.7-0.6-0.7-1
			c0,0,0.1-0.1,0.1,0S264.2,241.3,264.2,241.4z"/>
		<path class="st4" d="M265.7,238.5c0.4,0.9,1.2,1.6,2.1,1.9c0.4,0.1,0.8,0.2,1.2,0.2h0.5c0.1,0,0.2-0.1,0.2-0.2l0,0
			c0,0,0-0.1,0-0.1l0,0v-0.1c0.1-0.8,0.2-2,0.2-2c0.3,0.2,1.6,1,1.7,0.6c0.4-3.5,0.4-7.1,0-10.7c0-0.1-0.2-0.1-0.2,0
			c-0.4,3.3-0.2,6.6-0.5,9.9c-0.5-0.3-1-0.6-1.6-0.7c-0.1,0-0.1,2.3-0.2,2.7l0,0C267.8,239.9,266.6,239.3,265.7,238.5
			C265.7,238.3,265.6,238.4,265.7,238.5z"/>
		<path class="st4" d="M268.6,240.1c-0.5,0.5-1.1,0.9-1.8,1c-0.4,0.1-0.8,0.1-1.1-0.1c-0.8-0.3-0.7-1-0.5-1.7
			c0.1-0.3,0.3-0.6,0.5-0.9C266.5,239.3,267.5,239.8,268.6,240.1z"/>
		<path class="st12" d="M266.8,241.1c-0.4,0.1-0.8,0.1-1.1-0.1c-0.8-0.3-0.7-1-0.5-1.7C266.1,239.5,266.8,240.2,266.8,241.1z"/>
		<path class="st1" d="M269.9,238c0.8,0.3,1.5,1,1.9,1.7c0.4,0.7,0.9,1.9,0.6,1.9c-1,0.1-3.6-1.7-3.8-1.8c-0.2-0.1-4.3-0.2-5-1.3
			c-0.3-0.5,3-1.3,3.7-1.2c0.7,0.1,1.3,0.3,1.9,0.6C269.5,237.9,269.7,237.9,269.9,238z"/>
		<path class="st1" d="M276.2,223.7c-0.4-1.4-0.5-4-1.8-4.6c-0.9-0.4-1.6,1.4-3.4,1.3c-2.4-0.2-3.6-2.5-6.9-3.1
			c-4.7-1-6.8,4.2-7.8,11c-0.9,6.1-4.7,6.1-4.7,6.1s-0.4-13.7,3.9-17.6c4.4-3.9,13.3-4.7,18.5,0.3
			C276.1,218.9,276.2,223.7,276.2,223.7z"/>
		<path class="st6" d="M254.6,211.2c-0.1,0.8,0.5,1.5,1.3,1.6s1.5-0.5,1.6-1.3c0.1-0.8-0.5-1.5-1.3-1.6c0,0,0,0,0,0
			C255.4,209.8,254.7,210.4,254.6,211.2z"/>
		<path class="st5" d="M252.7,224.2c0.7-0.5,9.8-5.5,12-5.7c3.5,0,6.9,0.2,10.3,0.7c1.3,0.3,3.9-1.6,3.4-3.1c-0.6-1.7-5-2.4-7.8-3.2
			c-2.8-0.8-10.7-3-15.4-0.9c-3.6,1.6-8.1,5.2-7.5,8.4C248.3,223.3,252.7,224.2,252.7,224.2z"/>
		<path class="st9" d="M254.5,232.3c0,0-2.1-5.5-4.5-4.9s-1.7,8.1,0.6,9.6c1.1,0.9,2.8,0.7,3.7-0.4c0,0,0.1-0.1,0.1-0.1L254.5,232.3
			z"/>
		<path class="st4" d="M250.2,229.4C250.2,229.4,250.2,229.4,250.2,229.4c1.4,1.3,2.2,3.1,2.2,4.9c-0.2-0.8-1-1.2-1.8-1
			c-0.1,0-0.1,0-0.2,0.1c-0.1,0,0,0.1,0,0.1c0.7,0,1.3,0.4,1.6,1c0.2,0.5,0.4,1.1,0.5,1.6c0,0.2,0.3,0.2,0.3,0l0,0
			C253.5,233.8,252.6,230.3,250.2,229.4z"/>
		<g class="st13">
			<path d="M269.2,224.7c0.5,0.1,1.1,0.3,1.7,0.3c0.6,0,1.1,0,1.7,0.1c1.1,0.2,2.1,0.5,3,1c0.1,0,0.1,0.1,0,0.1
				c-1-0.5-2.1-0.8-3.2-0.9c-0.9,0-1.9-0.1-2.8-0.3c-2-0.7-4.2-0.8-6.2-0.2l0,0C265.2,224.2,267.2,224.2,269.2,224.7z"/>
			<path d="M269.4,223.2c0.5,0.1,1,0.2,1.6,0.3c0.5,0.1,1,0,1.6,0.1c1,0.2,2,0.5,2.9,1c0.1,0,0.1,0.1,0,0.1c-1-0.5-2-0.8-3.1-0.8
				c-0.9,0-1.8-0.1-2.6-0.3c-1.9-0.7-4-0.7-5.9-0.2l0,0C265.6,222.8,267.5,222.7,269.4,223.2z"/>
		</g>
		<path class="st2" d="M260,252.9l-5.8,7.4l-7.3-13.4l-3.9,2.5c0,0,5.3,19.6,5.6,18.8l5.5-6.2l3.5,6.4l3.1-12.6L260,252.9z"/>
		<path class="st4" d="M259.6,262.3c0.5-2.1,1-4.2,1.3-6.3c0-0.1-0.1-0.1-0.1-0.1c-1,1.9-2.7,9.9-3.2,11.8l0,0
			c-0.1-0.3-3.3-5.7-3.4-5.6c-1,0.9-5.1,5.4-5.4,5.9c-0.8-3.1-4.2-14.5-5.4-17.5c0,0,0-0.1-0.1-0.1c0,0-0.1,0-0.1,0.1
			c0.6,3.2,5,18.5,5.2,18.5c2-2.1,3.9-4.3,5.7-6.5c0.5,1.1,3.6,7.1,3.7,6.8C258.5,266.9,259.1,264.6,259.6,262.3z"/>
	</g>
	<g id="freepik--character-2--inject-5">
		<path class="st7" d="M435.7,215.1c7.7,3.1,13,11.4,13,11.4s9,6.8,9.6,12.3c0.4,3.1-0.8,6.3-3.1,8.4l-0.6-2.9c0,0-0.3,4.2-5.6,8.1
			c-5.3,3.9-13.8,5.3-18.7,4.9c-2.9-0.2-5.7-1.1-8.1-2.7l3.1,3.3c-4.1,1.2-8.4,0.3-11.7-2.5c-5.9-4.6,0.1-17.4,0.2-19.6
			c0-2.2-4.6-16.3,10.7-19.9C424.6,215.8,430.4,212.9,435.7,215.1z"/>
		<path class="st7" d="M457.1,246c1.2-1.6,2-3.5,2.1-5.6c0.2-2-0.3-4-1.3-5.8c-1.4-1.9-3.2-3.6-5.2-4.9c-2-1.5-4.1-2.8-6.1-4.3
			c-0.1-0.1,0-0.3,0.1-0.2c1.9,1,3.8,2,5.5,3.2c1.7,1,3.4,2.2,4.8,3.6c1.4,1.3,2.3,2.9,2.8,4.7c0.3,1.5,0.2,3.1-0.2,4.5
			C459,243,458.2,244.6,457.1,246C457.2,246.1,457,246,457.1,246z"/>
		<path class="st7" d="M409.9,249.7c-0.4-5.7,2.8-10.8,3.7-16.4c0.5-3,0.6-6.1,1.6-9c0-0.1,0.2,0,0.1,0.1c-0.8,2.5-0.8,5.1-1,7.7
			c-0.3,2.6-0.9,5.2-1.8,7.7c-1.4,4.6-3.1,10.1-0.5,14.6c1.2,2.1,3.6,4,6.1,3.7c0.1,0,0.1,0.2,0,0.2c-2.1,0-4.1-0.8-5.6-2.3
			C410.9,254.2,410,252,409.9,249.7z"/>
		<path class="st7" d="M410.3,251.1c-1-1.8-1.3-3.9-1-6c0.4-2,1.3-3.9,2.5-5.5c1.3-1.9,2.7-3.9,3.1-6.3c0-0.1,0.2-0.1,0.2,0
			c-0.5,3.9-3.3,6.8-4.6,10.4c-1.4,4.1,0.4,8.5,3.7,11.2c2,1.6,4.4,2.7,7,3.2c0,0,0,0.1,0,0.1C416.7,257.4,412.3,255.2,410.3,251.1z
			"/>
		<path class="st14" d="M438.2,268.5c-7.7,17.6-23.5,46.3-34.9,48.7c-9.2,1.9-33.4-5.6-44.2-10.4c-3.1-1.4,12.8-23.4,16.3-22.5
			c6.4,1.5,19.8,7.6,22.4,6.9c4.4-1,19.2-17.3,28.5-26.5C438.8,252.4,443.5,256.5,438.2,268.5z"/>
		<path class="st14" d="M349.3,293.3c0.9,1.5,0.1,2-2.8,0.8s-13.3-8.1-15.4-4.2s12.7,13.4,17.7,14.9c4.9,1.5,13.4,2.2,13.4,2.2
			C359.8,304.7,354.2,298.2,349.3,293.3z"/>
		<path class="st14" d="M378.1,286.7c-7.3-6.6-16.1-15.3-27-17.5c-1.2-0.3-2.5-0.1-3.6,0.4c-4.9-1-6.8,0.9-6.8,0.9
			c-4.9,0.4-6.6,2.7-6.6,2.7s-5.7-1.2-7,2.1c-1.5,3.8,6.9,4.7,11.1,8.1c9.8,7.7,21.5,21.3,24.1,23.8L378.1,286.7z"/>
		<path class="st4" d="M354,284.2c-2.8-2.3-5.8-4.3-8.9-6.2c-3.5-1.8-7.2-3.4-11-4.7c-0.1,0-0.1-0.1-0.1-0.1c0-0.1,0.1-0.1,0.1-0.1
			l0,0c7.5,1.8,14.4,5.5,20,11C354.3,284.2,354.2,284.3,354,284.2z"/>
		<path class="st4" d="M359.5,279c-3-2-8.2-5.4-18.8-8.4c0,0,0-0.1,0-0.1c7,0.9,13.5,3.8,19,8.3C359.8,279,359.7,279.1,359.5,279z"
			/>
		<path class="st4" d="M362.4,276.1c-5.2-3.1-8.8-4.5-14.9-6.5c0,0,0-0.1,0-0.1c7.1,1.5,9.5,2.8,15,6.4
			C362.7,276.1,362.6,276.2,362.4,276.1z"/>
		<path class="st6" d="M379.9,284.2l-14.3,30.5c0,0,25.9,6.3,40.1,2.5c10.3-2.7,28.7-36.6,33.5-48.8c4.9-12.7,0.8-16.3-11.4-5.8
			c-12.2,10.5-27.9,25.6-29.7,26.6S379.9,284.2,379.9,284.2z"/>
		<path class="st14" d="M388,539.3c2.2,0.7,63.9,0.8,66.3-0.6c0.9-0.6,1.4-9.6,1.8-20.4c0.1-2.4-1.5-40.3-1.5-40.3l-39.3-0.2l0.8,33
			l0.2,7.2c0,0-23.7,10.5-26.1,12.4C387.8,532.4,385.8,538.6,388,539.3z"/>
		<path class="st4" d="M455.9,523.1c-0.3,8.6-0.8,15.1-1.6,15.5c-2.4,1.5-64.1,1.4-66.3,0.6c-2.2-0.7-0.2-6.9,2.2-8.8
			c1-0.8,6.2-3.3,11.7-5.9l0,0c0,0-5.4,4.3-3.4,5C408.9,532.8,444.5,525.6,455.9,523.1z"/>
		<path class="st0" d="M460,330.9v2.7c0,0-5.6,58.6-6.1,80c-0.6,25.3,7.2,97.2,7.2,97.2h-52.8c0,0,4.7-75.9,5.7-101.2
			c0.8-22.1,11.5-78.6,11.5-78.6l0.1-2.6l2.3-22.2h31.9L460,330.9z"/>
		<path class="st4" d="M458,498.6c-3.1-0.2-6.3-0.2-9.4-0.3c-3.1-0.1-6.2-0.1-9.3,0c-6.2,0-12.5,0-18.7,0.2c-3.5,0-7,0.1-10.5,0.5
			c0,0-0.1,0.1,0,0.1c0,0,0,0,0,0c3.1,0.3,6.1,0.4,9.2,0.3h9.4c6.2,0,12.5,0,18.7-0.2c3.5-0.1,7-0.2,10.5-0.5
			C458.1,498.7,458.1,498.6,458,498.6z"/>
		<path class="st4" d="M433.2,311.7c-1.1,5.9-2,11.8-2.9,17.8c-1,5.9-1.9,11.9-2.8,17.8c-1.8,11.7-3.6,23.4-5.2,35.1
			c-3.1,23.2-5,46.7-6.1,70.1c-0.3,6.5-0.6,13.1-0.8,19.6c-0.2,6.5-0.6,16.8-0.6,23.5c0,0.1,0.2,0.1,0.2,0c0.4-5.9,0.7-15.4,1-21.3
			c0.3-5.9,0.5-11.6,0.8-17.5c0.6-11.8,1.3-23.5,2.2-35.2c0.9-11.7,2-23.4,3.5-35c1.5-11.6,3.4-23.4,5.1-35c1-6.5,2-13.1,2.9-19.6
			c1-6.7,2-13.3,2.8-20C433.3,311.7,433.2,311.6,433.2,311.7z"/>
		<path class="st4" d="M460,330.9v2.7c0,0-5.6,58.6-6.1,80c0,1.8,0,3.8,0,5.9l-21-113.3h26.9L460,330.9z"/>
		<path class="st14" d="M508.8,527.1c2.1-0.9,48-42.2,48.7-45c0.3-1-5.3-8-12.4-16.3c-1.5-1.8-28.7-29.3-28.7-29.3l-28.7,27.8
			l27.7,28c0,0-10.5,23.7-11,26.7S506.8,528,508.8,527.1z"/>
		<path class="st4" d="M548.3,469.5c5.5,6.6,9.5,11.7,9.2,12.6c-0.7,2.7-46.6,44-48.7,45c-2.1,0.9-4.8-5-4.3-8
			c0.2-1.3,2.4-6.6,4.7-12.2l0,0c0,0-1,6.8,0.8,6C520,508.3,541.5,479,548.3,469.5z"/>
		<path class="st0" d="M429.6,306.2L429.6,306.2c0.2,0.8-0.1,12.6,2.6,22.9c1.9,7.5,3.9,14,5.1,14.6c1.1,0.6,7.6,3.6,9.7,4.5
			c0,0,4.4,54,9.1,75.5c4.4,19.9,38.9,70.6,38.9,70.6l45.3-37.6c0,0-35.7-35.9-43.4-46.3c-6.6-8.9-12.5-71.1-12.5-71.1
			c1.7-21.2-7.3-33.1-7.3-33.1L429.6,306.2z"/>
		<path class="st4" d="M436.6,344c4.5,1.6,8.8,3.6,12.9,6c0.2,0.1,0.1,0.3-0.1,0.3c-4.3-1.9-8.8-3.6-13-5.8
			c-0.1-0.1-0.2-0.3-0.1-0.4C436.4,344,436.5,343.9,436.6,344z"/>
		<path class="st4" d="M435.3,314.2c0-0.2,0.3-0.2,0.3,0c0,4.8,0.2,9.7,0.7,14.5c0.2,2.2,2,14.6,5.9,13.7c0.6-0.1,1-0.8,1-1.8
			c0-1.3-0.2-2.6-0.5-3.8c-0.4-2.6-0.8-5.2-1-7.8c-0.5-4.9-0.4-9.8,0.2-14.6c0-0.1,0.1-0.1,0.1-0.1c0.1,0,0.1,0.1,0.1,0.1
			c-0.1,6.8,0.3,13.5,1.2,20.2c0.5,3.2,2.1,8.1-1.3,8.6c-3.3,0.5-5.6-7.6-6.1-9.8C434.9,327,434.7,320.6,435.3,314.2z"/>
		<path class="st4" d="M442.1,342.8c0.4,0.8,0.6,1.7,0.9,2.6c0.3,0.7,0.4,1.4,0.4,2.1c0,0.1-0.1,0.1-0.2,0.1c0,0-0.1,0-0.1-0.1
			c-0.4-0.6-0.7-1.4-0.9-2.1c-0.3-0.8-0.6-1.6-0.9-2.4c0-0.2,0.1-0.5,0.4-0.5C441.8,342.5,442,342.6,442.1,342.8z"/>
		<path class="st4" d="M495.8,473.5c-3.1-4.2-7.7-11-10.5-15.2s-5.7-8.7-8.5-13.1c-5.4-8.5-11.1-17-13.5-26.9
			c-1.2-5.1-1.9-10.5-2.6-15.7c-0.7-5.2-1.4-10.5-2-15.7c-1.2-10.6-2.2-21.1-2.9-31.8c-0.7-10.6-1.2-21.2-1.5-31.9
			c0-1.3-0.1-7.7-0.2-9c0-0.1-0.1-0.1-0.1,0c-0.1,10.7,0.2,26.5,0.8,37.2c0.6,10.7,1.5,21.4,2.7,32.1c0.6,5.3,1.2,10.6,2,15.9
			c0.7,5.2,1.4,10.3,2.3,15.4c0.9,4.9,2.4,9.8,4.6,14.3c2.3,4.5,4.8,8.8,7.5,13c5.6,8.8,11.5,17.4,17.7,25.8c0.8,1,3.3,4.6,4.1,5.7
			C495.7,473.6,495.9,473.5,495.8,473.5z"/>
		<path class="st4" d="M528.2,451.1c-2.5,1.8-4.9,3.8-7.3,5.8c-2.4,2-4.8,3.9-7.1,5.9c-4.7,4-9.5,8.1-14.2,12.2
			c-2.7,2.2-5.3,4.6-7.7,7.2c0,0,0,0.1,0,0.1c0,0,0.1,0,0.1,0c2.5-1.8,4.9-3.7,7.2-5.7c2.4-2,4.8-4,7.2-6.1c4.7-4,9.5-8,14.1-12.2
			C523.1,456,525.7,453.7,528.2,451.1C528.3,451.2,528.2,451.1,528.2,451.1z"/>
		<path class="st0" d="M425,313.5c0,0,19.7,3.6,56.5-1.5c0,0-16.9-45.3-29.1-57.1c-5.6-5.4-10.7-4.2-14.9-0.4
			c-1,1-13.7,22-14.5,28.1c-0.7,5.4,3.9,11,3.9,11L425,313.5z"/>
		<path class="st2" d="M426.7,293.6l-1.8,20c0,0,19.7,3.6,56.5-1.5c0,0-16.9-45.3-29.1-57.1c-5.6-5.4-10.7-4.2-14.9-0.4
			c-1,0.9-12.9,21.8-14.1,28.2C422.2,288,426.7,293.6,426.7,293.6z"/>
		<path class="st0" d="M441.3,256.3c0,0.3-0.2,0.5-0.5,0.5l0,0c-0.3,0-0.5-0.2-0.5-0.5l0,0c0-0.2,0.2-0.5,0.4-0.5c0,0,0,0,0,0
			C441.1,255.9,441.3,256.1,441.3,256.3L441.3,256.3z M447,255.9c-0.2,0-0.5,0.2-0.5,0.4c0,0,0,0,0,0c0,0.3,0.2,0.5,0.5,0.5l0,0
			c0.3,0,0.5-0.2,0.5-0.5l0,0C447.5,256.1,447.3,255.9,447,255.9L447,255.9z M453.3,255.9L453.3,255.9c-0.3,0-0.5,0.2-0.5,0.4
			c0,0,0,0,0,0c0,0.3,0.3,0.4,0.5,0.4c0.2,0,0.4-0.2,0.4-0.4l0,0L453.3,255.9z M443.9,251.5c-0.3,0-0.5,0.2-0.5,0.5
			c0,0.3,0.2,0.5,0.5,0.5s0.5-0.2,0.5-0.5C444.4,251.7,444.2,251.5,443.9,251.5z M434.6,264.5c-0.3,0-0.5,0.2-0.5,0.5
			c0,0.3,0.2,0.5,0.5,0.5c0.3,0,0.5-0.2,0.5-0.5c0,0,0,0,0,0C435.1,264.7,434.9,264.5,434.6,264.5L434.6,264.5z M440.8,264.5
			c-0.3,0-0.5,0.2-0.5,0.5c0,0.3,0.2,0.5,0.5,0.5c0.3,0,0.5-0.2,0.5-0.5c0,0,0,0,0,0C441.3,264.7,441.1,264.5,440.8,264.5
			L440.8,264.5z M447.1,264.5c-0.3,0-0.5,0.2-0.5,0.5c0,0.3,0.2,0.5,0.5,0.5c0.3,0,0.5-0.2,0.5-0.5c0,0,0,0,0,0
			C447.5,264.7,447.3,264.5,447.1,264.5L447.1,264.5z M453.3,264.5c-0.3,0-0.5,0.2-0.5,0.5c0,0.3,0.2,0.5,0.5,0.5
			c0.3,0,0.5-0.2,0.5-0.5c0,0,0,0,0,0C453.7,264.7,453.5,264.5,453.3,264.5L453.3,264.5z M459.5,264.5
			C459.5,264.5,459.5,264.5,459.5,264.5c-0.3,0-0.6,0.2-0.6,0.5c0,0.3,0.2,0.5,0.5,0.5c0.2,0,0.4-0.1,0.5-0.3L459.5,264.5z
			 M437.7,260.1c-0.3,0-0.5,0.2-0.5,0.5s0.2,0.5,0.5,0.5c0.3,0,0.5-0.2,0.5-0.5c0,0,0,0,0,0C438.1,260.3,437.9,260.2,437.7,260.1
			L437.7,260.1z M443.9,260.1c-0.3,0-0.5,0.2-0.5,0.5c0,0.3,0.2,0.5,0.5,0.5c0.3,0,0.5-0.2,0.5-0.5c0,0,0,0,0,0
			C444.4,260.3,444.2,260.2,443.9,260.1L443.9,260.1z M450.1,260.1c-0.3,0-0.5,0.2-0.5,0.5c0,0.3,0.2,0.5,0.5,0.5
			c0.3,0,0.5-0.2,0.5-0.5c0,0,0,0,0,0C450.6,260.3,450.4,260.2,450.1,260.1L450.1,260.1z M456.3,260.1c-0.3,0-0.5,0.2-0.5,0.5
			c0,0.3,0.2,0.5,0.5,0.5c0.3,0,0.5-0.2,0.5-0.5c0,0,0,0,0,0C456.8,260.3,456.6,260.1,456.3,260.1L456.3,260.1z M428.4,273.1
			c-0.3,0-0.4,0.3-0.4,0.5c0,0.2,0.2,0.4,0.4,0.4c0.3,0,0.4-0.3,0.4-0.5C428.8,273.3,428.6,273.1,428.4,273.1z M434.6,273.1
			c-0.3,0-0.4,0.3-0.4,0.5c0,0.2,0.2,0.4,0.4,0.4c0.3,0,0.4-0.3,0.4-0.5C435,273.3,434.8,273.1,434.6,273.1z M440.8,273.1
			c-0.3,0-0.4,0.3-0.4,0.5c0,0.2,0.2,0.4,0.4,0.4c0.3,0,0.4-0.3,0.4-0.5C441.2,273.3,441,273.1,440.8,273.1z M447,273.1
			c-0.3,0-0.4,0.3-0.4,0.5c0,0.2,0.2,0.4,0.4,0.4c0.3,0,0.4-0.3,0.4-0.5C447.4,273.3,447.2,273.1,447,273.1z M453.2,273.1
			c-0.3,0-0.5,0.2-0.5,0.5s0.2,0.5,0.5,0.5c0.3,0,0.5-0.2,0.5-0.5c0,0,0,0,0,0C453.7,273.3,453.5,273.2,453.2,273.1L453.2,273.1z
			 M459.5,273.1c-0.3,0-0.5,0.2-0.5,0.5s0.2,0.5,0.5,0.5c0.3,0,0.5-0.2,0.5-0.5c0,0,0,0,0,0C459.9,273.3,459.7,273.2,459.5,273.1
			L459.5,273.1z M431.5,268.7c-0.3,0-0.4,0.3-0.4,0.5c0,0.2,0.2,0.4,0.4,0.4c0.3,0,0.4-0.3,0.4-0.5
			C431.9,268.9,431.7,268.8,431.5,268.7z M437.7,268.7c-0.3,0-0.4,0.3-0.4,0.5c0,0.2,0.2,0.4,0.4,0.4c0.3,0,0.4-0.3,0.4-0.5
			C438.1,268.9,437.9,268.8,437.7,268.7z M443.9,268.7c-0.3,0-0.4,0.3-0.4,0.5c0,0.2,0.2,0.4,0.4,0.4c0.3,0,0.4-0.3,0.4-0.5
			C444.3,268.9,444.1,268.8,443.9,268.7z M450.1,268.7c-0.3,0-0.5,0.2-0.5,0.5c0,0.3,0.2,0.5,0.5,0.5c0.3,0,0.5-0.2,0.5-0.5
			c0,0,0,0,0,0C450.6,269,450.4,268.8,450.1,268.7L450.1,268.7z M456.3,268.7c-0.3,0-0.5,0.2-0.5,0.5c0,0.3,0.2,0.5,0.5,0.5
			c0.3,0,0.5-0.2,0.5-0.5c0,0,0,0,0,0C456.8,269,456.6,268.8,456.3,268.7L456.3,268.7z M462.2,269c0,0.1-0.1,0.1-0.1,0.2
			c0,0.3,0.2,0.5,0.4,0.5C462.4,269.5,462.3,269.3,462.2,269L462.2,269z M428.4,281.8c-0.3,0-0.5,0.2-0.5,0.5s0.2,0.5,0.5,0.5
			s0.5-0.2,0.5-0.5S428.7,281.8,428.4,281.8z M434.6,281.8c-0.3,0-0.5,0.2-0.5,0.5s0.2,0.5,0.5,0.5s0.5-0.2,0.5-0.5
			S434.9,281.8,434.6,281.8z M440.8,281.8c-0.3,0-0.5,0.2-0.5,0.5s0.2,0.5,0.5,0.5s0.5-0.2,0.5-0.5S441.1,281.8,440.8,281.8z
			 M447,281.8c-0.3,0-0.5,0.2-0.5,0.5s0.2,0.5,0.5,0.5s0.5-0.2,0.5-0.5S447.3,281.8,447,281.8L447,281.8z M453.2,281.8
			c-0.3,0-0.5,0.2-0.5,0.5s0.2,0.5,0.5,0.5s0.5-0.2,0.5-0.5C453.7,282,453.5,281.8,453.2,281.8L453.2,281.8z M459.5,281.8
			c-0.3,0-0.5,0.2-0.5,0.5s0.2,0.5,0.5,0.5s0.5-0.2,0.5-0.5C459.9,282,459.7,281.8,459.5,281.8L459.5,281.8z M465.7,281.8
			c-0.3,0-0.5,0.2-0.5,0.5s0.2,0.5,0.5,0.5c0.3,0,0.5-0.2,0.5-0.5C466.1,282,465.9,281.8,465.7,281.8L465.7,281.8z M425.3,277.4
			c-0.1,0-0.2,0-0.3,0.1c-0.1,0.2-0.1,0.3-0.2,0.4l0,0c0,0.2,0.2,0.4,0.4,0.4c0.3,0,0.5-0.2,0.5-0.5l0,0
			C425.7,277.6,425.5,277.4,425.3,277.4L425.3,277.4z M431.5,277.4c-0.3,0-0.5,0.2-0.5,0.5l0,0c0,0.2,0.2,0.5,0.4,0.5c0,0,0,0,0,0
			c0.3,0,0.5-0.2,0.5-0.5l0,0C432,277.6,431.8,277.4,431.5,277.4L431.5,277.4z M437.7,277.4c-0.3,0-0.5,0.2-0.5,0.5l0,0
			c0,0.2,0.2,0.5,0.4,0.5c0,0,0,0,0,0c0.3,0,0.5-0.2,0.5-0.5l0,0C438.2,277.6,438,277.4,437.7,277.4L437.7,277.4z M443.9,277.4
			c-0.3,0-0.5,0.2-0.5,0.5l0,0c0,0.2,0.2,0.5,0.4,0.5c0,0,0,0,0,0c0.3,0,0.5-0.2,0.5-0.5l0,0C444.4,277.6,444.2,277.4,443.9,277.4
			L443.9,277.4z M450.1,277.4c-0.3,0-0.5,0.2-0.5,0.5c0,0.3,0.2,0.5,0.5,0.5c0.3,0,0.5-0.2,0.5-0.5
			C450.6,277.7,450.4,277.4,450.1,277.4C450.1,277.4,450.1,277.4,450.1,277.4z M456.3,277.4c-0.3,0-0.5,0.2-0.5,0.5
			c0,0.3,0.2,0.5,0.5,0.5c0.3,0,0.5-0.2,0.5-0.5C456.8,277.7,456.6,277.4,456.3,277.4C456.4,277.4,456.4,277.4,456.3,277.4z
			 M462.6,277.4c-0.3,0-0.5,0.2-0.5,0.5c0,0.3,0.2,0.5,0.5,0.5c0.3,0,0.5-0.2,0.5-0.5S462.8,277.4,462.6,277.4
			C462.6,277.4,462.6,277.4,462.6,277.4z M428.4,290.5c-0.2,0-0.5,0.2-0.5,0.4c0,0,0,0,0,0c0,0.3,0.2,0.5,0.5,0.5l0,0
			c0.3,0,0.5-0.2,0.5-0.5l0,0C428.9,290.7,428.7,290.5,428.4,290.5L428.4,290.5L428.4,290.5z M434.6,290.5c-0.2,0-0.5,0.2-0.5,0.4
			c0,0,0,0,0,0c0,0.3,0.2,0.5,0.5,0.5l0,0c0.3,0,0.5-0.2,0.5-0.5l0,0C435.1,290.7,434.9,290.5,434.6,290.5L434.6,290.5L434.6,290.5z
			 M440.8,290.5c-0.2,0-0.5,0.2-0.5,0.4c0,0,0,0,0,0c0,0.3,0.2,0.5,0.5,0.5l0,0c0.3,0,0.5-0.2,0.5-0.5l0,0
			C441.3,290.7,441.1,290.5,440.8,290.5L440.8,290.5L440.8,290.5z M447,290.5c-0.2,0-0.5,0.2-0.5,0.4c0,0,0,0,0,0
			c0,0.3,0.2,0.5,0.5,0.5l0,0c0.3,0,0.5-0.2,0.5-0.5l0,0C447.5,290.7,447.3,290.5,447,290.5L447,290.5L447,290.5z M453.2,290.5
			c-0.3,0-0.5,0.2-0.5,0.4c0,0,0,0,0,0c0,0.3,0.3,0.4,0.5,0.4c0.2,0,0.4-0.2,0.4-0.4C453.7,290.7,453.5,290.5,453.2,290.5
			L453.2,290.5L453.2,290.5z M459.5,290.5c-0.3,0-0.5,0.2-0.5,0.4c0,0,0,0,0,0c0,0.3,0.3,0.4,0.5,0.4c0.2,0,0.4-0.2,0.4-0.4
			C459.9,290.7,459.7,290.5,459.5,290.5L459.5,290.5z M465.7,290.5c-0.3,0-0.5,0.2-0.5,0.4c0,0,0,0,0,0c0,0.3,0.3,0.4,0.5,0.4
			c0.2,0,0.4-0.2,0.4-0.4C466.1,290.7,465.9,290.5,465.7,290.5L465.7,290.5L465.7,290.5z M471.9,290.5c-0.3,0-0.5,0.2-0.5,0.4
			c0,0,0,0,0,0c0,0.3,0.3,0.4,0.5,0.4c0.2,0,0.4-0.2,0.4-0.4C472.3,290.7,472.1,290.5,471.9,290.5L471.9,290.5L471.9,290.5z
			 M425.3,286.1c-0.2,0-0.5,0.2-0.5,0.4c0,0,0,0,0,0c0,0.3,0.2,0.5,0.5,0.5l0,0c0.3,0,0.5-0.2,0.5-0.5l0,0
			C425.8,286.3,425.5,286.1,425.3,286.1L425.3,286.1L425.3,286.1z M431.5,286.1c-0.2,0-0.5,0.2-0.5,0.4c0,0,0,0,0,0
			c0,0.3,0.2,0.5,0.5,0.5l0,0c0.3,0,0.5-0.2,0.5-0.5l0,0C432,286.3,431.8,286.1,431.5,286.1L431.5,286.1L431.5,286.1z M437.7,286.1
			c-0.2,0-0.5,0.2-0.5,0.4c0,0,0,0,0,0c0,0.3,0.2,0.5,0.5,0.5l0,0c0.3,0,0.5-0.2,0.5-0.5l0,0C438.2,286.3,438,286.1,437.7,286.1
			C437.7,286.1,437.7,286.1,437.7,286.1L437.7,286.1z M443.9,286.1c-0.2,0-0.5,0.2-0.5,0.4c0,0,0,0,0,0c0,0.3,0.2,0.5,0.5,0.5l0,0
			c0.3,0,0.5-0.2,0.5-0.5l0,0C444.4,286.3,444.2,286.1,443.9,286.1L443.9,286.1L443.9,286.1z M450.1,286.1c-0.3,0-0.5,0.2-0.5,0.4
			c0,0,0,0,0,0c0,0.3,0.3,0.4,0.5,0.4c0.2,0,0.4-0.2,0.4-0.4C450.6,286.3,450.4,286.1,450.1,286.1L450.1,286.1L450.1,286.1z
			 M456.3,286.1c-0.3,0-0.5,0.2-0.5,0.4c0,0,0,0,0,0c0,0.3,0.3,0.4,0.5,0.4c0.2,0,0.4-0.2,0.4-0.4
			C456.8,286.3,456.6,286.1,456.3,286.1C456.3,286.1,456.3,286.1,456.3,286.1L456.3,286.1z M462.6,286.1c-0.3,0-0.5,0.2-0.5,0.4
			c0,0,0,0,0,0c0,0.3,0.3,0.4,0.5,0.4c0.2,0,0.4-0.2,0.4-0.4C463,286.3,462.8,286.1,462.6,286.1L462.6,286.1z M468.8,286.1
			c-0.3,0-0.5,0.2-0.5,0.4c0,0,0,0,0,0c0,0.3,0.3,0.4,0.5,0.4c0.2,0,0.4-0.2,0.4-0.4C469.2,286.3,469,286.1,468.8,286.1L468.8,286.1
			L468.8,286.1z M428.4,299.1c-0.3,0-0.5,0.2-0.5,0.5c0,0.3,0.2,0.5,0.5,0.5c0.3,0,0.5-0.2,0.5-0.5c0,0,0,0,0,0
			C428.9,299.3,428.7,299.1,428.4,299.1L428.4,299.1z M434.6,299.1c-0.3,0-0.5,0.2-0.5,0.5c0,0.3,0.2,0.5,0.5,0.5
			c0.3,0,0.5-0.2,0.5-0.5c0,0,0,0,0,0C435.1,299.3,434.9,299.1,434.6,299.1L434.6,299.1z M440.8,299.1c-0.3,0-0.5,0.2-0.5,0.5
			c0,0.3,0.2,0.5,0.5,0.5c0.3,0,0.5-0.2,0.5-0.5c0,0,0,0,0,0C441.3,299.3,441.1,299.1,440.8,299.1L440.8,299.1z M447,299.1
			c-0.3,0-0.5,0.2-0.5,0.5s0.2,0.5,0.5,0.5c0.3,0,0.5-0.2,0.5-0.5c0,0,0,0,0,0C447.5,299.3,447.3,299.1,447,299.1L447,299.1z
			 M453.2,299.1c-0.3,0-0.5,0.2-0.5,0.5c0,0.3,0.2,0.5,0.5,0.5c0.3,0,0.5-0.2,0.5-0.5c0,0,0,0,0,0
			C453.7,299.3,453.5,299.1,453.2,299.1L453.2,299.1z M459.5,299.1c-0.3,0-0.5,0.2-0.5,0.5c0,0.3,0.2,0.5,0.5,0.5
			c0.3,0,0.5-0.2,0.5-0.5c0,0,0,0,0,0C459.9,299.3,459.7,299.1,459.5,299.1L459.5,299.1z M465.7,299.1c-0.3,0-0.5,0.2-0.5,0.5
			c0,0.3,0.2,0.5,0.5,0.5c0.3,0,0.5-0.2,0.5-0.5c0,0,0,0,0,0C466.1,299.3,465.9,299.1,465.7,299.1L465.7,299.1z M471.9,299.1
			c-0.3,0-0.5,0.2-0.5,0.5s0.2,0.5,0.5,0.5c0.3,0,0.5-0.2,0.5-0.5c0,0,0,0,0,0C472.3,299.3,472.1,299.1,471.9,299.1L471.9,299.1z
			 M431.5,294.7c-0.3,0-0.5,0.2-0.5,0.5c0,0.3,0.2,0.5,0.5,0.5s0.5-0.2,0.5-0.5c0,0,0,0,0,0C432,294.9,431.8,294.7,431.5,294.7
			L431.5,294.7z M437.7,294.7c-0.3,0-0.5,0.2-0.5,0.5c0,0.3,0.2,0.5,0.5,0.5s0.5-0.2,0.5-0.5c0,0,0,0,0,0
			C438.2,294.9,438,294.7,437.7,294.7L437.7,294.7z M443.9,294.7c-0.3,0-0.5,0.2-0.5,0.5c0,0.3,0.2,0.5,0.5,0.5
			c0.3,0,0.5-0.2,0.5-0.5c0,0,0,0,0,0C444.4,294.9,444.2,294.7,443.9,294.7L443.9,294.7z M450.1,294.7c-0.3,0-0.5,0.2-0.5,0.5
			c0,0.3,0.2,0.5,0.5,0.5c0.3,0,0.5-0.2,0.5-0.5c0,0,0,0,0,0C450.6,294.9,450.4,294.7,450.1,294.7L450.1,294.7z M456.3,294.7
			c-0.3,0-0.5,0.2-0.5,0.5c0,0.3,0.2,0.5,0.5,0.5s0.5-0.2,0.5-0.5c0,0,0,0,0,0C456.8,294.9,456.6,294.7,456.3,294.7
			C456.3,294.7,456.3,294.7,456.3,294.7L456.3,294.7z M462.6,294.7c-0.3,0-0.5,0.2-0.5,0.5c0,0.3,0.2,0.5,0.5,0.5s0.5-0.2,0.5-0.5
			c0,0,0,0,0,0C463,295,462.8,294.8,462.6,294.7L462.6,294.7z M468.8,294.7c-0.3,0-0.5,0.2-0.5,0.5c0,0.3,0.2,0.5,0.5,0.5
			c0.3,0,0.5-0.2,0.5-0.5c0,0,0,0,0,0C469.2,294.9,469,294.7,468.8,294.7L468.8,294.7z M474.6,295c0,0.1-0.1,0.1-0.1,0.2
			c0,0.2,0.1,0.4,0.3,0.4C474.8,295.4,474.7,295.2,474.6,295L474.6,295z M428.4,307.8c-0.3,0-0.5,0.2-0.5,0.5l0,0
			c0,0.2,0.2,0.5,0.4,0.5c0,0,0,0,0,0c0.3,0,0.5-0.2,0.5-0.5l0,0C428.9,308,428.7,307.8,428.4,307.8L428.4,307.8L428.4,307.8z
			 M434.6,307.8c-0.3,0-0.5,0.2-0.5,0.5l0,0c0,0.2,0.2,0.5,0.4,0.5c0,0,0,0,0,0c0.3,0,0.5-0.2,0.5-0.5l0,0
			C435.1,308,434.9,307.8,434.6,307.8C434.6,307.8,434.6,307.8,434.6,307.8L434.6,307.8z M440.8,307.8c-0.3,0-0.5,0.2-0.5,0.5l0,0
			c0,0.2,0.2,0.5,0.4,0.5c0,0,0,0,0,0c0.3,0,0.5-0.2,0.5-0.5l0,0C441.3,308,441.1,307.8,440.8,307.8L440.8,307.8L440.8,307.8z
			 M447,307.8c-0.3,0-0.5,0.2-0.5,0.5l0,0c0,0.2,0.2,0.5,0.4,0.5c0,0,0,0,0,0c0.3,0,0.5-0.2,0.5-0.5l0,0
			C447.5,308,447.3,307.8,447,307.8L447,307.8L447,307.8z M453.2,307.8c-0.3,0-0.5,0.2-0.5,0.5c0,0.3,0.2,0.5,0.5,0.5
			c0.3,0,0.5-0.2,0.5-0.5S453.5,307.8,453.2,307.8C453.2,307.8,453.2,307.8,453.2,307.8z M459.5,307.8c-0.3,0-0.5,0.2-0.5,0.5
			c0,0.3,0.2,0.5,0.5,0.5c0.3,0,0.5-0.2,0.5-0.5C459.9,308,459.7,307.8,459.5,307.8C459.5,307.8,459.5,307.8,459.5,307.8z
			 M465.7,307.8c-0.3,0-0.5,0.2-0.5,0.5c0,0.3,0.2,0.5,0.5,0.5s0.5-0.2,0.5-0.5C466.1,308,465.9,307.8,465.7,307.8
			C465.7,307.8,465.7,307.8,465.7,307.8z M471.9,307.8c-0.3,0-0.5,0.2-0.5,0.5c0,0.3,0.2,0.5,0.5,0.5c0.3,0,0.5-0.2,0.5-0.5
			S472.1,307.8,471.9,307.8C471.9,307.8,471.9,307.8,471.9,307.8z M478.1,307.8c-0.3,0-0.5,0.2-0.5,0.5c0,0.3,0.2,0.5,0.5,0.5
			c0.3,0,0.5-0.2,0.5-0.5S478.4,307.8,478.1,307.8C478.1,307.8,478.1,307.8,478.1,307.8z M431.5,303.4c-0.3,0-0.4,0.3-0.4,0.5
			c0,0.2,0.2,0.4,0.4,0.4c0.3,0,0.4-0.3,0.4-0.5C431.9,303.6,431.7,303.4,431.5,303.4z M437.7,303.4c-0.3,0-0.4,0.3-0.4,0.5
			c0,0.2,0.2,0.4,0.4,0.4c0.3,0,0.4-0.3,0.4-0.5C438.1,303.6,437.9,303.4,437.7,303.4z M443.9,303.4c-0.3,0-0.4,0.3-0.4,0.5
			c0,0.2,0.2,0.4,0.4,0.4c0.3,0,0.4-0.3,0.4-0.5C444.3,303.6,444.1,303.4,443.9,303.4z M450.1,303.4c-0.3,0-0.5,0.2-0.5,0.5
			s0.2,0.5,0.5,0.5c0.3,0,0.5-0.2,0.5-0.5c0,0,0,0,0,0C450.6,303.6,450.4,303.4,450.1,303.4L450.1,303.4z M456.3,303.4
			c-0.3,0-0.5,0.2-0.5,0.5c0,0.3,0.2,0.5,0.5,0.5s0.5-0.2,0.5-0.5c0,0,0,0,0,0C456.8,303.6,456.6,303.4,456.3,303.4L456.3,303.4
			L456.3,303.4z M462.6,303.4c-0.3,0-0.5,0.2-0.5,0.5s0.2,0.5,0.5,0.5c0.3,0,0.5-0.2,0.5-0.5c0,0,0,0,0,0
			C463,303.6,462.8,303.4,462.6,303.4L462.6,303.4z M468.8,303.4c-0.3,0-0.5,0.2-0.5,0.5s0.2,0.5,0.5,0.5c0.3,0,0.5-0.2,0.5-0.5
			c0,0,0,0,0,0C469.2,303.6,469,303.4,468.8,303.4L468.8,303.4z M475,303.4c-0.3,0-0.5,0.2-0.5,0.5c0,0.3,0.2,0.5,0.5,0.5
			s0.5-0.2,0.5-0.5c0,0,0,0,0,0C475.4,303.6,475.2,303.4,475,303.4L475,303.4z M425.3,312c-0.1,0-0.2,0-0.2,0.1l-0.1,0.7
			c0.1,0.1,0.2,0.1,0.3,0.1c0.3,0,0.5-0.2,0.5-0.5S425.5,312,425.3,312z M431.5,312c-0.3,0-0.5,0.2-0.5,0.5s0.2,0.5,0.5,0.5
			c0.3,0,0.5-0.2,0.5-0.5S431.8,312,431.5,312z M437.7,312c-0.3,0-0.5,0.2-0.5,0.5s0.2,0.5,0.5,0.5s0.5-0.2,0.5-0.5
			S438,312,437.7,312z M443.9,312c-0.3,0-0.5,0.2-0.5,0.5s0.2,0.5,0.5,0.5s0.5-0.2,0.5-0.5S444.2,312,443.9,312z M450.1,312
			c-0.3,0-0.5,0.2-0.5,0.5s0.2,0.5,0.5,0.5s0.5-0.2,0.5-0.5C450.6,312.2,450.4,312,450.1,312L450.1,312z M456.3,312
			c-0.3,0-0.5,0.2-0.5,0.5s0.2,0.5,0.5,0.5c0.3,0,0.5-0.2,0.5-0.5C456.8,312.2,456.6,312,456.3,312L456.3,312z M462.6,312
			c-0.3,0-0.5,0.2-0.5,0.5s0.2,0.5,0.5,0.5s0.5-0.2,0.5-0.5C463,312.2,462.8,312,462.6,312L462.6,312z M468.8,312
			c-0.3,0-0.5,0.2-0.5,0.5s0.2,0.5,0.5,0.5s0.5-0.2,0.5-0.5C469.2,312.2,469,312,468.8,312L468.8,312z M475,312
			c-0.3,0-0.5,0.2-0.5,0.5c0,0.2,0.1,0.3,0.2,0.4l0.6-0.1c0.1-0.1,0.1-0.2,0.1-0.3C475.4,312.2,475.2,312,475,312L475,312z
			 M481.2,312c-0.1,0-0.1,0-0.2,0H481.2L481.2,312z"/>
		<path class="st6" d="M444.8,251.2c0,0-1.9,22.4-1,31s8.9,50,8.9,50l38.3-1.3c0,0-21.8-57.3-33.1-70.8
			C448.7,249.3,444.8,251.2,444.8,251.2z"/>
		<path class="st6" d="M436.6,255.4c0,0-7.5,18.6-8.3,27s-0.6,48.4-0.6,48.4l-4.2-3.4l2.9-33.9c0,0-4.8-4.9-3.5-11.4
			S433.6,258,436.6,255.4z"/>
		<path class="st4" d="M423.7,288.5c-0.5-1.9-0.5-3.8-0.2-5.8c0.4-2.3,1.1-4.5,2-6.6c0.9-2.3,1.9-4.5,2.8-6.8c0-0.1-0.1-0.1-0.1,0
			c-1.1,2.2-2.2,4.4-3.2,6.6c0.4-1.6,0.9-3.1,1.5-4.6c0-0.1-0.1-0.1-0.1,0c-0.8,1.7-1.4,3.6-1.8,5.5c-1,2.1-1.7,4.4-2.1,6.7
			c-0.2,1.9,0,3.9,0.7,5.8c0.6,1.8,1.8,3.3,3.4,4.3c0.1,0.1,0.2-0.1,0.1-0.1C425.1,292.2,424.1,290.5,423.7,288.5z"/>
		<path class="st14" d="M444.4,253.6c0,1-3.1,8.4-7.6,9.3c-1.5,0.3-3.3-7.6-3.3-7.6l-0.3-0.6l-3.8-7.7l8.1-8.5l1.2-1.2
			c0,0,0.9,2.2,2,4.9l0.2,0.4l0.2,0.4c0.2,0.4,0.3,0.8,0.5,1.2c0.2,0.4,0.3,0.6,0.4,1l0.4,1C443.1,248.7,443.8,251.2,444.4,253.6z"
			/>
		<path class="st4" d="M440.7,242.3c-0.6,5-3.3,9.6-7.5,12.4l-3.8-7.7l8.1-8.5l1.2-1.2C438.7,237.4,439.6,239.6,440.7,242.3z"/>
		<path class="st14" d="M414.1,236.6c0.2,15.1,9.2,16.7,12.5,16.6c2.9,0,13-0.6,14.4-15.6c1.4-15-5.7-19.7-12.5-20
			C421.7,217.5,413.9,221.5,414.1,236.6z"/>
		<path class="st7" d="M416.4,233.8c0.4,0,0.7-0.2,1-0.3c0.4,0,0.7-0.2,1-0.4c0.1-0.2,0.1-0.5,0-0.7c-0.4-0.3-0.9-0.4-1.3-0.3
			c-0.5,0.1-0.9,0.3-1.2,0.7c-0.2,0.3-0.1,0.6,0.2,0.8C416.2,233.8,416.3,233.8,416.4,233.8z"/>
		<path class="st7" d="M426.1,233.7c-0.4,0-0.7-0.1-1-0.2c-0.4,0-0.8-0.1-1-0.4c-0.1-0.2-0.1-0.5,0-0.7c0.3-0.3,0.8-0.5,1.3-0.4
			c0.5,0.1,0.9,0.3,1.3,0.6c0.2,0.2,0.2,0.6-0.1,0.8C426.4,233.6,426.2,233.7,426.1,233.7z"/>
		<path class="st4" d="M424,237.1C424,237.1,424.1,237.1,424,237.1c0.1,1.1,0.2,2.3,1.1,2.6C424,239.6,423.8,238,424,237.1z"/>
		<path class="st4" d="M425,236c1.7-0.1,1.8,3.1,0.3,3.3C423.7,239.4,423.5,236.1,425,236z"/>
		<path class="st4" d="M425.6,236.1c0.3,0.2,0.6,0.5,1,0.5c0.4,0,0.7-0.3,0.9-0.7h0.1c0,0.6-0.2,1.3-0.8,1.4c-0.7,0.1-1-0.4-1.3-1
			C425.4,236.2,425.5,236,425.6,236.1z"/>
		<path class="st4" d="M418.8,237.2C418.8,237.2,418.7,237.3,418.8,237.2c0,1.1-0.1,2.3-1,2.7c0,0,0,0.1,0,0
			C418.9,239.8,419,238.2,418.8,237.2z"/>
		<path class="st4" d="M417.8,236.2c-1.7,0-1.6,3.3-0.1,3.3C419.3,239.6,419.2,236.2,417.8,236.2z"/>
		<path class="st4" d="M417.1,236.4c-0.3,0.2-0.5,0.5-0.8,0.5c-0.3,0-0.6-0.3-0.9-0.7h-0.1c0,0.6,0.2,1.3,0.8,1.4c0.6,0.1,1-0.5,1-1
			C417.3,236.6,417.2,236.4,417.1,236.4z"/>
		<path class="st4" d="M424.6,245.6c-0.2,0.3-0.4,0.6-0.8,0.7c-0.4,0-0.8,0-1.1-0.1c0,0-0.1,0,0,0c0.3,0.4,0.9,0.5,1.3,0.4
			c0.4-0.1,0.7-0.5,0.7-1C424.7,245.6,424.6,245.5,424.6,245.6z"/>
		<path class="st4" d="M420.1,242c0,0-0.2,1.5-0.1,2.3c0,0.1,0.2,0.1,0.4,0.1l0,0c1.3,0.2,2.5-0.4,3.3-1.4c0,0,0-0.1,0-0.1
			c0,0-0.1,0-0.1,0c-0.9,0.7-2,1-3.1,1c0-0.2,0.4-2.6,0.2-2.6c-0.6,0.1-1.1,0.2-1.6,0.4c0.2-3.2,1-6.4,1.1-9.6c0-0.1-0.2-0.1-0.2,0
			c-0.9,3.4-1.5,6.8-1.7,10.3C418.4,242.8,419.9,242.2,420.1,242z"/>
		<path class="st4" d="M420.5,244c0.4,0.6,1,1,1.6,1.3c0.4,0.2,0.8,0.2,1.1,0.1c0.8-0.2,0.9-1,0.8-1.6c-0.1-0.4-0.2-0.7-0.3-1
			C422.8,243.6,421.7,244,420.5,244z"/>
		<path class="st15" d="M422.2,245.4c0.4,0.2,0.8,0.2,1.1,0.1c0.8-0.2,0.9-1,0.8-1.6C423.1,243.9,422.4,244.5,422.2,245.4z"/>
		<g class="st13">
			<path d="M422.3,230.6c-0.6,0-1.1,0-1.7,0c-0.6,0-1.1-0.2-1.7-0.2c-1.1,0-2.2,0.2-3.2,0.5c-0.1,0-0.1,0.1,0,0.1
				c1.1-0.3,2.2-0.4,3.4-0.3c0.9,0.2,1.9,0.3,2.8,0.2c2.1-0.4,4.3,0,6.2,0.9l0,0C426.3,230.9,424.3,230.5,422.3,230.6z"/>
			<path d="M422.4,229.1c-0.5,0-1.1,0-1.6,0c-0.5-0.1-1-0.2-1.6-0.2c-1,0-2.1,0.2-3,0.5c-0.1,0-0.1,0.1,0,0.1c1-0.3,2.1-0.4,3.2-0.3
				c0.9,0.2,1.8,0.2,2.6,0.2c2-0.3,4,0,5.9,0.9l0,0C426.2,229.3,424.3,228.9,422.4,229.1z"/>
		</g>
		<path class="st7" d="M440.4,238.7c-2-0.8-3.5-2.5-3.9-4.6c-12.7-2.2-15.7-10.8-15.7-10.8c-3.5,6.3-5.8,7.1-6.3,8.1
			c0,0-0.2-5.9,2.4-10.1c3-4.7,8.8-6.9,14.1-5.2c3.8,1,6.6,5,6.6,5s4.2,1,5.4,4.7C445,231.9,440.4,238.7,440.4,238.7z"/>
		<path class="st7" d="M420.6,222.8c0.2,1.7,0.9,3.4,1.9,4.8c1,1.4,2.3,2.7,3.8,3.6l1.1,0.6c0.4,0.2,0.8,0.4,1.2,0.5
			c0.8,0.3,1.6,0.6,2.5,0.8c0.8,0.2,1.7,0.3,2.6,0.5l2.6,0.2c-0.8-0.2-1.7-0.3-2.5-0.4s-1.7-0.4-2.5-0.6c-1.6-0.5-3.2-1.2-4.6-2.1
			c-1.4-0.9-2.7-2-3.7-3.4C421.8,226,421,224.4,420.6,222.8z"/>
		<path class="st14" d="M441.1,243.2c-0.2,0.1-0.4,0.2-0.7,0.3c-0.2,0.1-0.5,0.1-0.7,0.1c-0.3,0-0.6-0.1-0.9-0.2
			c-0.2-0.1-0.4-0.2-0.6-0.4c-0.3-0.2-0.5-0.5-0.6-0.8l0.4-4.1c0,0,2.8-5,5.1-4C445.2,235,443.5,242.1,441.1,243.2z"/>
		<path class="st4" d="M442.4,236.1C442.4,236.1,442.4,236.1,442.4,236.1c-1.5,1-2.6,2.6-2.9,4.4c0.3-0.7,1.1-1,1.8-0.7
			c0.1,0,0.2,0.1,0.3,0.1c-0.7-0.1-1.3,0.2-1.7,0.7c-0.3,0.5-0.5,1-0.7,1.5c-0.1,0.2-0.4,0.1-0.3-0.1l0,0
			C438.6,239.8,440.1,236.5,442.4,236.1z"/>
		<path class="st2" d="M440.9,242.4c0,0.4-0.4,0.7-0.8,0.6c-0.4,0-0.7-0.4-0.6-0.7c0,0,0,0,0,0c0-0.4,0.3-0.7,0.7-0.7
			C440.6,241.6,440.9,241.9,440.9,242.4C440.9,242.4,440.9,242.4,440.9,242.4L440.9,242.4z"/>
		<path class="st14" d="M448.7,263.5c4,7,25.5,28.8,25.9,30.2c0.4,1.5-23.5,20.2-27.7,24.8c-2.9,3.1,17.1,21.8,23,16.5
			c9.2-8.3,36.3-30.2,34.8-41.5c-1.6-11.3-42-34.4-49.8-38.4S442.2,252,448.7,263.5z"/>
		<path class="st14" d="M427.1,346.6c1,1.5,2.8,2.2,4.5,1.8c0,1.5,0.5,2.9,1.5,4.1c1.8,1.9,5.6,0,5.6,0c0.3,1.5,1.1,3,2.2,4
			c1.9,1.7,6,0.3,6,0.3c1.1,1.3,2.6,2.1,4.2,2.3c4.4,0.5,8.6-4.8,11.3-8.1c2.7-3.3,7.2-15.3,8.3-17.5L449.3,316
			c0,0-16.3,11.5-18.9,15.9C428.2,335.6,425.2,343.7,427.1,346.6z"/>
		<path class="st4" d="M431.3,347.9c1.4-4.5,4-8.3,6.5-12.2c0,0,0.1-0.1,0.1-0.1c0,0,0.1,0.1,0.1,0.1c0,0,0,0,0,0
			c-2.4,3.9-4.1,8.2-6.4,12.2c0,0.1-0.1,0.1-0.2,0C431.3,348,431.3,348,431.3,347.9z"/>
		<path class="st4" d="M438.3,352.1c0.4-1,1-1.9,1.6-2.7c0.6-0.9,1.3-1.9,2-2.8c1.3-1.8,2.7-3.6,4.2-5.4c0.1-0.1,0.2,0,0.1,0.1
			c-1.3,1.8-2.6,3.7-3.9,5.5c-0.6,0.9-1.3,1.9-1.9,2.8c-0.5,0.9-1.1,1.8-1.9,2.6c0,0.1-0.1,0.1-0.2,0.1
			C438.3,352.3,438.3,352.2,438.3,352.1L438.3,352.1z"/>
		<path class="st4" d="M446.8,356.7c0.4-0.9,0.9-1.7,1.6-2.4c0.6-0.8,1.2-1.6,1.9-2.5c1.2-1.7,2.5-3.3,3.6-5c0.1-0.1,0.2,0,0.1,0.1
			c-1.2,1.7-2.4,3.5-3.6,5.2c-0.6,0.8-1.2,1.7-1.8,2.5c-0.5,0.8-1.1,1.5-1.8,2.1C446.9,356.8,446.8,356.8,446.8,356.7z"/>
		<path class="st6" d="M446.4,314.6l30.3,20.8c0,0,29.3-28.3,29.2-40.8c-0.1-11.5-46.4-38.6-53.1-41.6c-6.6-2.9-12.1-0.3-3,12.6
			c9.3,13.3,24.3,26.7,23.9,28.1C473.1,295,446.4,314.6,446.4,314.6z"/>
		<path class="st4" d="M453.4,311.2c2.2,1.3,4.4,2.8,6.6,4.2c2.2,1.4,4.4,2.9,6.6,4.3c2.2,1.5,4.3,2.9,6.5,4.4
			c2.2,1.5,4.1,3.1,6.3,4.6c0.1,0,0,0.2-0.1,0.1c-2.2-1.4-4.5-2.7-6.6-4.1c-2.2-1.4-4.4-3-6.6-4.5c-2.2-1.5-4.2-2.9-6.3-4.4
			c-2.1-1.5-4.4-3-6.4-4.6C453.3,311.3,453.3,311.2,453.4,311.2C453.4,311.2,453.4,311.2,453.4,311.2z"/>
		<path class="st4" d="M446.1,314.7c1.6-1.5,18.1-13.8,21.7-16.6c1.9-1.5,3.6-2.9,5.5-4.4c-0.8-0.9-3.7-4.3-4.4-5.2
			c-1.5-1.8-3.1-3.5-4.7-5.3c-1.3-1.5-2.6-3-3.8-4.5c-1.4-1.1-2.7-2.2-4-3.4c-0.1,0,0-0.1,0.1-0.1c1,0.8,2.1,1.6,3.1,2.5
			c-1.5-1.8-2.9-3.5-4.4-5.3c0,0,0-0.1,0.1,0c3.2,3.4,6.4,6.9,9.5,10.5c1.6,1.8,9.2,10.9,9.2,10.9c-3.4,2.9-6.8,5.7-10.4,8.5
			c-3.5,2.7-15.7,11.9-16.7,12.5c0.2,0.1,1,0.7,1.2,0.8c0.1,0.1-0.1,0.1-0.2,0L446.1,314.7z"/>
	</g>
	<g id="freepik--music-notes--inject-5">
		<path class="st5" d="M298.4,263c-0.4,2.3-2.6,3.8-4.9,3.4c-2.3-0.4-3.8-2.6-3.4-4.9s2.6-3.8,4.9-3.4c0,0,0,0,0.1,0
			C297.4,258.6,298.9,260.8,298.4,263z"/>
		
			<rect x="288.4" y="250.8" transform="matrix(0.1869 -0.9824 0.9824 0.1869 -4.9766 498.8526)" class="st5" width="20.9" height="3.2"/>
		<path class="st5" d="M312.8,259.6c-0.4,2.3-2.6,3.8-4.9,3.4s-3.8-2.6-3.4-4.9c0.4-2.3,2.6-3.8,4.9-3.4c0,0,0,0,0.1,0
			C311.7,255.2,313.2,257.3,312.8,259.6z"/>
		
			<rect x="302.8" y="247.4" transform="matrix(0.1869 -0.9824 0.9824 0.1869 10.0542 510.1276)" class="st5" width="20.9" height="3.2"/>
		<polygon class="st5" points="316.7,239.1 298.7,244.6 299.3,241.9 317.2,236.3 		"/>
		<polygon class="st5" points="315.7,244.2 297.8,249.8 298.3,247 316.2,241.5 		"/>
		<path class="st5" d="M394.6,379.7c-0.3,1.5-1.7,2.5-3.2,2.2c-1.5-0.3-2.5-1.7-2.2-3.2c0.3-1.5,1.7-2.5,3.2-2.2c0,0,0,0,0,0
			C393.9,376.8,394.9,378.2,394.6,379.7z"/>
		
			<rect x="387.9" y="371.7" transform="matrix(0.1869 -0.9824 0.9824 0.1869 -45.0903 690.9318)" class="st5" width="13.9" height="2.1"/>
		<path class="st5" d="M404,377.5c-0.3,1.5-1.7,2.5-3.2,2.2c-1.5-0.3-2.5-1.7-2.2-3.2c0.3-1.5,1.7-2.5,3.2-2.2c0,0,0,0,0,0
			C403.3,374.5,404.3,376,404,377.5z"/>
		
			<rect x="397.4" y="369.4" transform="matrix(0.1869 -0.9824 0.9824 0.1869 -35.1272 698.4281)" class="st5" width="13.9" height="2.1"/>
		<polygon class="st5" points="406.7,363.8 394.8,367.5 395.1,365.7 407,362 		"/>
		<polygon class="st5" points="406,367.3 394.1,370.9 394.4,369.1 406.4,365.5 		"/>
		<path class="st5" d="M377.9,347.3c-0.4,2.3-2.6,3.8-4.9,3.4s-3.8-2.6-3.4-4.9c0.4-2.3,2.6-3.8,4.9-3.4c0,0,0,0,0.1,0
			C376.8,342.9,378.3,345,377.9,347.3z"/>
		
			<rect x="367.8" y="335.1" transform="matrix(0.1869 -0.9824 0.9824 0.1869 -23.2228 645.3814)" class="st5" width="20.9" height="3.2"/>
		
			<rect x="388.2" y="324.6" transform="matrix(0.1869 -0.9824 0.9824 0.1869 -2.3046 649.5427)" class="st5" width="6" height="3.2"/>
		<polygon class="st5" points="393.2,324.3 378.1,328.9 378.7,326.2 393.7,321.5 		"/>
		<polygon class="st5" points="392.2,329.4 377.2,334.1 377.7,331.3 392.7,326.7 		"/>
		<path class="st5" d="M331.7,216.7c-0.3,1.7-1.9,2.7-3.6,2.4c-1.7-0.3-2.7-1.9-2.4-3.6c0.3-1.6,1.9-2.7,3.5-2.4
			C330.9,213.4,332,215,331.7,216.7C331.7,216.7,331.7,216.7,331.7,216.7z"/>
		
			<rect x="324.4" y="207.8" transform="matrix(0.1869 -0.9824 0.9824 0.1869 64.7261 496.0338)" class="st5" width="15.3" height="2.3"/>
		
			<rect x="339.3" y="200" transform="matrix(0.1869 -0.9824 0.9824 0.1869 80.0713 499.0897)" class="st5" width="4.4" height="2.3"/>
		<polygon class="st5" points="343,199.8 331.9,203.2 332.3,201.2 343.4,197.8 		"/>
		<polygon class="st5" points="342.3,203.6 331.2,207 331.6,205 342.6,201.6 		"/>
		<path class="st5" d="M300.9,353.5c-0.3,1.6-1.9,2.7-3.6,2.4c-1.6-0.3-2.7-1.9-2.4-3.6c0.3-1.6,1.9-2.7,3.6-2.4
			C300.2,350.2,301.2,351.8,300.9,353.5C300.9,353.5,300.9,353.5,300.9,353.5z"/>
		
			<rect x="293.5" y="344.6" transform="matrix(0.1869 -0.9824 0.9824 0.1869 -94.7298 577.0204)" class="st5" width="15.3" height="2.3"/>
		
			<rect x="308.5" y="336.8" transform="matrix(0.1869 -0.9824 0.9824 0.1869 -79.3847 580.0762)" class="st5" width="4.4" height="2.3"/>
		<polygon class="st5" points="312.2,336.6 301.1,340 301.5,338 312.6,334.6 		"/>
		<polygon class="st5" points="311.5,340.4 300.4,343.8 300.8,341.8 311.8,338.4 		"/>
	</g>
</g>
<path class="st16" d="M1200,295.4c-3.5,3.7-6.3,8.1-8.4,12.6c-4.6,9.9-7.3,20.8-13.8,29.6c-11.7,15.9-32.9,21.2-52.5,22.8
	c-19.6,1.6-40.1,0.7-58.2,8.3c-18.6,7.8-32.8,24.2-40.4,42.9c-7.6,18.7-8.9,39.5-6.5,59.5c2.5,20.6,9.4,41.3,23.5,56.4
	c17.8,19.1,45.6,26.9,71.6,24.5c15-1.4,29-2.1,43.5,1.7c24.6,6.4,41.1,26.3,41.1,26.3L1200,295.4z"/>
</svg>
