<?xml version="1.0" encoding="utf-8"?>
<!-- Generator: Adobe Illustrator 21.1.0, SVG Export Plug-In . SVG Version: 6.00 Build 0)  -->
<svg version="1.1" id="圖層_1" xmlns="http://www.w3.org/2000/svg" xmlns:xlink="http://www.w3.org/1999/xlink" x="0px" y="0px"
	 viewBox="0 0 85 85" style="enable-background:new 0 0 85 85;" xml:space="preserve">
<style type="text/css">
	.st0{fill:#9E9384;}
	.st1{fill:#FFFFFF;}
	.st2{fill:#F9ECCC;}
	.st3{fill:#FFBD00;}
	.st4{fill:#DDDEE2;}
	.st5{fill:#2F9AD6;}
	.st6{fill:#E6343A;}
	.st7{fill:#E6F5FD;}
	.st8{fill:#FFB297;}
	.st9{fill:#FD936F;}
	.st10{fill:#666666;}
	.st11{fill:#DF6919;}
	.st12{fill:#FFCAB2;}
	.st13{fill:#E79776;}
	.st14{fill:#F8A64D;}
	.st15{fill:#FB74AE;}
	.st16{fill:#95EEFF;}
	.st17{fill:#4CBED3;}
	.st18{fill:#E5E5E5;}
	.st19{fill:#44C768;}
	.st20{fill:#7EE4F1;}
	.st21{fill:#4CE066;}
	.st22{fill:#A7EDFB;}
	.st23{fill:#FFDA56;}
	.st24{fill:#FFBA24;}
	.st25{fill:#FF4A4A;}
	.st26{fill:#E6343F;}
</style>
<g>
	<circle class="st2" cx="42.5" cy="42.5" r="42.5"/>
	<g>
		<polygon class="st19" points="28.1,61.7 42.5,68.2 42.5,42.4 30.1,35.9 		"/>
		<polygon class="st20" points="29.1,47.9 42.5,68.2 28.1,61.7 		"/>
		<polygon class="st21" points="28.1,61.7 13.6,68.2 18.3,42.4 30.1,35.9 		"/>
		<polygon class="st22" points="16.1,54.8 29.1,47.9 28.1,61.7 13.6,68.2 		"/>
		<polygon class="st19" points="56.9,61.7 71.4,68.2 66.7,42.4 54.9,35.9 		"/>
		<polygon class="st20" points="55.5,43.5 69.9,60.3 66.7,42.4 64.9,41.4 		"/>
		<polygon class="st21" points="56.9,61.7 42.5,68.2 42.5,42.4 54.9,35.9 		"/>
		<polygon class="st23" points="16.1,54.8 29.1,47.9 29.5,43 17,49.6 		"/>
		<g>
			<polygon class="st24" points="42.5,44.8 29.5,43 29.1,47.9 42.5,68.2 42.5,60.8 34.5,48.2 42.5,49.2 			"/>
			<polygon class="st24" points="55.5,43.5 64.9,41.4 59.3,38.3 55.2,39.3 			"/>
		</g>
		<polygon class="st23" points="56,49.7 55.5,43.1 55.5,43.1 55.2,39.3 42.5,44.8 42.5,49.2 50.8,45.6 		"/>
		<polygon class="st24" points="56,49.7 71.4,68.2 69.9,60.3 55.5,43.5 		"/>
		<path class="st25" d="M42.6,16.8c-6.3,0-11.3,5.1-11.3,11.3c0,9.5,11.3,18.3,11.3,18.3s11.3-8.8,11.3-18.3
			C53.9,21.9,48.8,16.8,42.6,16.8z M42.6,32.7c-2.5,0-4.5-2-4.5-4.5c0-2.5,2-4.5,4.5-4.5c2.5,0,4.5,2,4.5,4.5S45.1,32.7,42.6,32.7z"
			/>
		<path class="st26" d="M42.6,16.8c-0.5,0-1.1,0-1.6,0.1c5.5,0.8,9.8,5.5,9.8,11.2c0,7.3-6.7,14.2-9.8,17c1,0.9,1.6,1.3,1.6,1.3
			s11.3-8.8,11.3-18.3C53.9,21.9,48.8,16.8,42.6,16.8z"/>
		<polygon class="st23" points="42.5,60.8 47.5,66 42.5,68.2 		"/>
		<path class="st10" d="M72,68.7C72.1,68.7,72.1,68.7,72,68.7c0-0.1,0.1-0.1,0.1-0.1c0,0,0,0,0,0c0,0,0-0.1,0-0.1c0,0,0,0,0,0
			c0,0,0-0.1,0-0.1c0,0,0,0,0,0c0,0,0-0.1,0-0.1c0,0,0,0,0,0c0,0,0-0.1,0-0.1l-3.5-19.2c-0.1-0.5-0.5-0.8-1-0.7
			c-0.5,0.1-0.8,0.5-0.7,1l1.5,8.1L57.1,44.1l7.6-1.7l1.1,0.6l0.5,2.7c0.1,0.5,0.5,0.8,1,0.7c0.5-0.1,0.8-0.5,0.7-1l-0.6-3.1
			c0-0.3-0.2-0.5-0.4-0.6l0,0l0,0l-11.8-6.5l0,0l0,0c0,0,0,0,0,0c0,0,0,0,0,0c0,0-0.1,0-0.1,0c0,0,0,0,0,0c0,0,0,0-0.1,0
			c0,0,0,0,0,0c0,0,0,0-0.1,0c0,0,0,0,0,0c0,0,0,0-0.1,0c0,0,0,0,0,0c0,0,0,0-0.1,0c0,0,0,0,0,0c0,0,0,0-0.1,0c0,0,0,0,0,0
			c0,0,0,0-0.1,0c0,0,0,0,0,0c0,0,0,0,0,0l-2,1c1.5-2.8,2.2-5.4,2.2-8c0-6.7-5.5-12.2-12.2-12.2s-12.2,5.5-12.2,12.2
			c0,2.6,0.8,5.3,2.3,8.1l-2.1-1.1c0,0,0,0,0,0c0,0,0,0,0,0c0,0,0,0-0.1,0c0,0,0,0,0,0c0,0,0,0-0.1,0c0,0,0,0,0,0c0,0,0,0-0.1,0
			c0,0,0,0,0,0c0,0,0,0-0.1,0c0,0,0,0,0,0c0,0,0,0-0.1,0c0,0,0,0,0,0c0,0,0,0-0.1,0c0,0,0,0,0,0c0,0-0.1,0-0.1,0c0,0,0,0,0,0
			c0,0,0,0,0,0l-11.8,6.5c-0.2,0.1-0.4,0.3-0.4,0.6l0,0c0,0,0,0,0,0l-3.3,18.3l0,0l0,0c-0.1,0.5,0.2,0.9,0.7,1
			c0.5,0.1,0.9-0.2,1-0.7l1-5.5l11.3-6l-0.9,11.7l-12.4,5.6l0.4-2.4c0.1-0.5-0.2-0.9-0.7-1c-0.5-0.1-0.9,0.2-1,0.7l-0.7,4
			c-0.1,0.3,0.1,0.6,0.3,0.8c0.2,0.1,0.3,0.2,0.5,0.2c0.1,0,0.2,0,0.4-0.1l14.1-6.3L42.1,69c0,0,0,0,0,0l0,0c0,0,0,0,0,0
			c0,0,0,0,0,0c0,0,0,0,0,0c0,0,0,0,0,0c0,0,0,0,0,0c0,0,0,0,0.1,0c0,0,0,0,0,0c0,0,0,0,0,0c0,0,0.1,0,0.1,0c0,0,0,0,0,0
			c0,0,0,0,0,0c0,0,0.1,0,0.1,0c0,0,0,0,0,0c0,0,0,0,0,0c0,0,0.1,0,0.1,0c0,0,0,0,0,0c0,0,0,0,0,0c0,0,0,0,0,0c0,0,0.1,0,0.1,0
			l14.1-6.3c0,0,0,0,0,0l0,0L71,69c0,0,0,0,0,0c0,0,0,0,0,0c0,0,0,0,0.1,0c0,0,0,0,0,0c0,0,0,0,0.1,0c0,0,0,0,0,0c0,0,0.1,0,0.1,0h0
			c0,0,0,0,0,0c0,0,0.1,0,0.1,0c0,0,0,0,0,0c0,0,0.1,0,0.1,0c0,0,0,0,0,0c0,0,0.1,0,0.1,0c0,0,0,0,0,0c0,0,0,0,0.1,0c0,0,0,0,0.1,0
			c0,0,0,0,0,0c0,0,0,0,0,0C72,68.8,72,68.8,72,68.7C72,68.8,72,68.8,72,68.7z M47.7,64.9l-4.3-4.5V49.8l7.3-3.2l4.5,3.5L56,61.2
			L47.7,64.9z M43.4,66.8V63l2.6,2.7L43.4,66.8z M39.9,45.4c0.7,0.7,1.3,1.2,1.7,1.5v1.4l-7-0.8c-0.3,0-0.7,0.1-0.8,0.4
			c-0.2,0.3-0.2,0.6,0,0.9l7.8,12.3v4.2L30,47.7l0.1-1.8l0.1-1.9L39.9,45.4z M46.5,44l7.9-3.5l0.6,7.2l-3.6-2.8
			c-0.3-0.2-0.6-0.2-0.9-0.1l-7.1,3.1v-1C43.9,46.5,45.1,45.5,46.5,44z M56.6,46.3l0-0.1l12.5,14.5l0.8,4.4L56.8,49.3L56.6,46.3z
			 M55.9,37.4l1,0.5L56,38.2L55.9,37.4z M36.3,49.3l5.4,0.6v7.8L36.3,49.3z M29.8,50.5l10.3,15.7l-11.1-5L29.8,50.5z M57.1,52.3
			l11.2,13.5l-10.5-4.7L57.1,52.3z M62.5,41.1l-6.2,1.4l-0.2-2.5l3-0.7L62.5,41.1L62.5,41.1z M54.2,37.3l0.1,1.4l-4.9,2.2
			c0.5-0.6,0.9-1.2,1.4-1.8L54.2,37.3z M42.6,17.7c5.8,0,10.5,4.7,10.5,10.5c0,7.8-8.3,15.3-10.5,17.2c-2.2-1.9-10.5-9.3-10.5-17.2
			C32.1,22.4,36.8,17.7,42.6,17.7z M36.2,41.4c0.6,0.7,1.1,1.3,1.7,1.9l-7.4-1.1l0.4-5l3.6,1.9C35,39.9,35.6,40.7,36.2,41.4z
			 M29.1,37.4l-0.3,3.2l-0.1,1.8L18.2,48l0.9-5L29.1,37.4z M17.2,53.2l0.5-3l0-0.1l10.7-5.7l-0.2,2.9L17.2,53.2z"/>
		<path class="st10" d="M48,28.1c0-3-2.4-5.4-5.4-5.4c-0.5,0-0.9,0.4-0.9,0.9c0,0.5,0.4,0.9,0.9,0.9c2,0,3.6,1.6,3.6,3.6
			c0,2-1.6,3.6-3.6,3.6s-3.6-1.6-3.6-3.6c0-1,0.4-1.9,1-2.6c0.3-0.3,0.3-0.9,0-1.2c-0.3-0.3-0.9-0.3-1.2,0c-1,1-1.5,2.4-1.5,3.8
			c0,3,2.4,5.4,5.4,5.4C45.5,33.5,48,31.1,48,28.1z"/>
	</g>
</g>
</svg>
