<?xml version="1.0" encoding="utf-8"?>
<!-- Generator: Adobe Illustrator 21.1.0, SVG Export Plug-In . SVG Version: 6.00 Build 0)  -->
<svg version="1.1" id="圖層_1" xmlns="http://www.w3.org/2000/svg" xmlns:xlink="http://www.w3.org/1999/xlink" x="0px" y="0px"
	 viewBox="0 0 26 26" style="enable-background:new 0 0 26 26;" xml:space="preserve">
<style type="text/css">
	.st0{fill:#9E9384;}
	.st1{fill:#FFFFFF;}
	.st2{fill:#F9ECCC;}
	.st3{fill:#FFBD00;}
	.st4{fill:#DDDEE2;}
	.st5{fill:#2F9AD6;}
	.st6{fill:#E6343A;}
	.st7{fill:#E6F5FD;}
	.st8{fill:#FFB297;}
	.st9{fill:#FD936F;}
	.st10{fill:#666666;}
	.st11{fill:#DF6919;}
	.st12{fill:#FFCAB2;}
	.st13{fill:#E79776;}
	.st14{fill:#F8A64D;}
	.st15{fill:#FB74AE;}
	.st16{fill:#95EEFF;}
	.st17{fill:#4CBED3;}
	.st18{fill:#E5E5E5;}
	.st19{fill:#44C768;}
	.st20{fill:#7EE4F1;}
	.st21{fill:#4CE066;}
	.st22{fill:#A7EDFB;}
	.st23{fill:#FFDA56;}
	.st24{fill:#FFBA24;}
	.st25{fill:#FF4A4A;}
	.st26{fill:#E6343F;}
</style>
<g>
	<circle class="st0" cx="13" cy="13" r="13"/>
	<path class="st1" d="M19.8,19.7c-0.9,0.9-2,1.3-3.2,1.3c-0.8,0-1.5-0.2-2.2-0.6c-0.4,0.1-0.9,0.1-1.3,0.1c-1,0-2-0.2-3-0.6
		c-0.9-0.4-1.7-0.9-2.4-1.6c-0.7-0.7-1.3-1.5-1.6-2.4C5.6,15,5.4,14,5.4,13c0-0.4,0-0.9,0.1-1.3C5.1,11,4.9,10.2,4.9,9.5
		c0-1.2,0.5-2.3,1.3-3.2c0.9-0.9,2-1.3,3.2-1.3c0.7,0,1.5,0.2,2.1,0.5c0,0,0,0,0,0c0.5-0.1,1-0.1,1.4-0.1c1,0,2,0.2,3,0.6
		c0.9,0.4,1.7,0.9,2.4,1.6c0.7,0.7,1.3,1.5,1.6,2.4c0.4,0.9,0.6,1.9,0.6,3c0,0.5,0,0.9-0.1,1.4c0.4,0.7,0.6,1.4,0.6,2.2
		C21.1,17.8,20.6,18.9,19.8,19.7z"/>
	<path class="st0" d="M14.4,12.1l-1.8-0.4c-0.7-0.2-1.5-0.4-1.5-1c0-0.6,0.5-1.1,1.5-1.1c2,0,1.8,1.4,2.8,1.4c0.5,0,1-0.3,1-0.8
		c0-1.2-2-2.2-3.6-2.2c-1.8,0-3.7,0.8-3.7,2.8c0,1,0.4,2,2.3,2.5l2.4,0.6c0.7,0.2,0.9,0.6,0.9,1c0,0.6-0.6,1.2-1.7,1.2
		c-2.2,0-1.9-1.7-3-1.7c-0.5,0-0.9,0.4-0.9,0.9c0,1,1.2,2.3,3.9,2.3c2.6,0,3.9-1.2,3.9-2.9C16.9,13.7,16.4,12.5,14.4,12.1z"/>
</g>
</svg>
