<?xml version="1.0" encoding="utf-8"?>
<!-- Generator: Adobe Illustrator 21.1.0, SVG Export Plug-In . SVG Version: 6.00 Build 0)  -->
<svg version="1.1" id="圖層_1" xmlns="http://www.w3.org/2000/svg" xmlns:xlink="http://www.w3.org/1999/xlink" x="0px" y="0px"
	 viewBox="0 0 85 85" style="enable-background:new 0 0 85 85;" xml:space="preserve">
<style type="text/css">
	.st0{fill:#9E9384;}
	.st1{fill:#FFFFFF;}
	.st2{fill:#F9ECCC;}
	.st3{fill:#FFBD00;}
	.st4{fill:#DDDEE2;}
	.st5{fill:#2F9AD6;}
	.st6{fill:#E6343A;}
	.st7{fill:#E6F5FD;}
	.st8{fill:#FFB297;}
	.st9{fill:#FD936F;}
	.st10{fill:#666666;}
	.st11{fill:#DF6919;}
	.st12{fill:#FFCAB2;}
	.st13{fill:#E79776;}
	.st14{fill:#F8A64D;}
	.st15{fill:#FB74AE;}
	.st16{fill:#95EEFF;}
	.st17{fill:#4CBED3;}
	.st18{fill:#E5E5E5;}
	.st19{fill:#44C768;}
	.st20{fill:#7EE4F1;}
	.st21{fill:#4CE066;}
	.st22{fill:#A7EDFB;}
	.st23{fill:#FFDA56;}
	.st24{fill:#FFBA24;}
	.st25{fill:#FF4A4A;}
	.st26{fill:#E6343F;}
</style>
<g>
	<defs>
		<rect id="SVGID_1_" x="-934" y="734.4" width="1025" height="288.2"/>
	</defs>
	<clipPath id="SVGID_2_">
		<use xlink:href="#SVGID_1_"  style="overflow:visible;"/>
	</clipPath>
	<g style="clip-path:url(#SVGID_2_);">
		
			<image style="overflow:visible;" width="870" height="1883" xlink:href="../../../../../../../Downloads/14549621880040.jpg"  transform="matrix(1.8861 0 0 1.8861 -1027.7982 21.3197)">
		</image>
	</g>
</g>
<g>
	<circle class="st2" cx="42.5" cy="42.5" r="42.5"/>
	<g>
		<rect x="30.4" y="20.2" class="st3" width="24.2" height="40.9"/>
		<path class="st4" d="M28.6,35.1H17.4c-1,0-1.9-0.8-1.9-1.9V22.1c0-1,0.8-1.9,1.9-1.9h11.1c1,0,1.9,0.8,1.9,1.9v11.1
			C30.4,34.2,29.6,35.1,28.6,35.1z"/>
		<path class="st1" d="M48.1,40.6H36.9c-1,0-1.9-0.8-1.9-1.9V27.6c0-1,0.8-1.9,1.9-1.9h11.1c1,0,1.9,0.8,1.9,1.9v11.1
			C49.9,39.8,49.1,40.6,48.1,40.6z"/>
		<path class="st5" d="M19.3,25.2l0.3,0.2c1,0.7,2.3,1.1,3.5,1.1l0,0v-1c0-0.9,0.7-1.6,1.6-1.6l0,0c0.9,0,1.6,0.7,1.6,1.6l1.3,1
			l-1.3,1.3l0,0c0,1.4-1.2,2.6-2.6,2.6h-4.5l1.3-1.3l0,0c-0.8-0.8-1.3-2-1.3-3.1V25.2z"/>
		<g>
			<path class="st4" d="M45.3,30.4v-1.9l-2.4,0.1c0.2,0.7-1,0.4-1,0.9l-0.2,2.7h-1.9v1.9h1.9v3.7h1.9v-3.7h1.9v-1.9h-1.9v-1.9H45.3z
				"/>
			<path class="st4" d="M62,26.7c-2.1,0-3.7-1.7-3.7-3.7h-3.7v5.6c0,1,0.8,1.9,1.9,1.9h11.1c1,0,1.9-0.8,1.9-1.9V23h-3.7
				C65.7,25,64.1,26.7,62,26.7z"/>
		</g>
		<path class="st6" d="M67.6,15.6H56.4c-1,0-1.9,0.8-1.9,1.9V23h3.7c0-2.1,1.7-3.7,3.7-3.7s3.7,1.7,3.7,3.7h3.7v-5.6
			C69.4,16.4,68.6,15.6,67.6,15.6z"/>
		<g>
			<circle class="st7" cx="62" cy="23" r="3.7"/>
			<rect x="41.6" y="52.7" class="st7" width="1.9" height="1.9"/>
		</g>
		<path class="st8" d="M38.8,61.1v-0.9c0-4.1-3.3-7.4-7.4-7.4h2.8c2.4,0,4.4-1.9,4.6-4.3c0-0.2-0.2-0.4-0.4-0.4l-8.5,0
			c-1.2,0-2.2,1-2.2,2.2V70c0,0.2,0.2,0.4,0.4,0.4h14.5v-4.6L38.8,61.1z"/>
		<path class="st9" d="M38.8,61.3c-0.1,1.7-1.1,3.1-2.5,3.9c-0.3,0.1-0.2,0.5,0.1,0.5h5.8c0.2,0,0.3,0.1,0.3,0.3v4.4h5.3
			c0.2,0,0.3-0.1,0.3-0.3V66c0-0.2,0.1-0.3,0.3-0.3h1.3c0.2,0,0.3-0.1,0.3-0.3v-4.1c0-0.2-0.1-0.3-0.3-0.3H39
			C38.9,61.1,38.8,61.2,38.8,61.3z"/>
		<g>
			<path class="st8" d="M57.4,51.8h-6c-1.3,0-2.3-1-2.3-2.3l0,0c0-1.3,1-2.3,2.3-2.3h6c1.3,0,2.3,1,2.3,2.3l0,0
				C59.7,50.8,58.6,51.8,57.4,51.8z"/>
			<path class="st8" d="M57.4,56.4h-6c-1.3,0-2.3-1-2.3-2.3l0,0c0-1.3,1-2.3,2.3-2.3h6c1.3,0,2.3,1,2.3,2.3l0,0
				C59.7,55.4,58.6,56.4,57.4,56.4z"/>
			<path class="st8" d="M56,61.1h-6c-1.3,0-2.3-1-2.3-2.3l0,0c0-1.3,1-2.3,2.3-2.3h6c1.3,0,2.3,1,2.3,2.3l0,0
				C58.3,60,57.3,61.1,56,61.1z"/>
			<path class="st8" d="M53.2,65.7h-6c-1.3,0-2.3-1-2.3-2.3l0,0c0-1.3,1-2.3,2.3-2.3h6c1.3,0,2.3,1,2.3,2.3l0,0
				C55.5,64.7,54.5,65.7,53.2,65.7z"/>
		</g>
		<path class="st10" d="M34.1,19.3h16.7c0.5,0,0.9,0.4,0.9,0.9v0c0,0.5-0.4,0.9-0.9,0.9H34.1c-0.5,0-0.9-0.4-0.9-0.9v0
			C33.2,19.7,33.6,19.3,34.1,19.3z"/>
		<path class="st10" d="M60.6,49.4c0-1.8-1.5-3.2-3.3-3.2l-1.8,0c0,0,0,0,0,0V34.1c0-0.5-0.4-0.9-0.9-0.9h0c-0.5,0-0.9,0.4-0.9,0.9
			v12.1c0,0,0,0,0,0l-2.2,0c-1.8,0-3.3,1.4-3.3,3.2c0,0.9,0.4,1.8,1,2.4c0,0,0,0,0,0c-0.6,0.6-1,1.4-1,2.3c0,0.6,0.2,1.2,0.5,1.7
			c0,0,0,0,0,0c-1.1,0.5-1.9,1.6-1.9,2.9c0,0.5,0.1,1,0.3,1.4c0,0,0,0,0,0h-7.3c0,0,0,0,0,0c0-2.8-1.4-5.3-3.6-6.9c0,0,0,0,0,0
			c2.1-0.8,3.6-2.8,3.6-5.2c0-0.5-0.4-0.9-0.9-0.9l-7.4,0c0,0,0,0,0,0v-8.4c0-0.5-0.4-0.9-0.9-0.9h0c-0.5,0-0.9,0.4-0.9,0.9v8.4
			c0,0,0,0,0,0c-1.5,0-2.8,1.3-2.8,2.8v20.4c0,0,0,0,0,0h1.8c0,0,0,0,0,0V49.9c0-0.5,0.4-0.9,0.9-0.9h8.2c0,0,0,0,0,0
			c-0.4,1.6-1.9,2.8-3.6,2.8h-2.8c-0.5,0-0.9,0.4-1,0.9c0,0.5,0.4,1,0.9,1c3.6,0,6.5,2.9,6.5,6.5v0.9c0,0.5,0.4,0.9,0.9,0.9h5.4
			c0,0,0,0,0,0c-0.2,0.4-0.3,0.9-0.3,1.4c0,1.8,1.5,3.2,3.2,3.3c0,0,0,0,0,0v3.7c0,0,0,0,0,0H49c0,0,0,0,0,0v-3.7c0,0,0,0,0,0h3.7
			h0.4c1.6,0,3-1.1,3.3-2.6c0.1-0.7,0-1.4-0.3-2c0,0,0,0,0,0c1.7-0.1,3.1-1.5,3.1-3.2c0-0.6-0.2-1.2-0.5-1.7c0,0,0,0,0,0
			c1.1-0.5,1.9-1.6,1.9-2.9c0-0.9-0.4-1.7-1-2.3c0,0,0,0,0,0C60.2,51.2,60.6,50.4,60.6,49.4z M53.1,64.8h-0.4h-4.6h-0.9
			c-0.7,0-1.4-0.5-1.4-1.3c-0.1-0.8,0.6-1.5,1.4-1.5h2.8h3.3c0.8,0,1.5,0.7,1.4,1.5C54.5,64.3,53.9,64.8,53.1,64.8z M55.9,60.2h-2.7
			H50c-0.7,0-1.4-0.5-1.4-1.3c-0.1-0.8,0.6-1.5,1.4-1.5h1.4H56c0.8,0,1.5,0.7,1.4,1.5C57.3,59.6,56.7,60.2,55.9,60.2z M58.8,54.2
			c-0.1,0.7-0.7,1.3-1.4,1.3H56h-4.6c-0.7,0-1.4-0.5-1.4-1.3c-0.1-0.8,0.6-1.5,1.4-1.5h6C58.2,52.7,58.8,53.4,58.8,54.2z M51.3,50.9
			c-0.8,0-1.5-0.7-1.4-1.5c0.1-0.7,0.7-1.3,1.4-1.3h5.9c0.7,0,1.4,0.5,1.4,1.3c0.1,0.8-0.6,1.5-1.4,1.5H51.3z"/>
		<path class="st10" d="M27.2,25C27,23.9,26,23,24.7,23c-1.4,0-2.5,1.1-2.5,2.5c-0.7-0.1-1.5-0.4-2.1-0.8l-0.3-0.2
			c-0.3-0.2-0.7-0.2-1-0.1c-0.3,0.2-0.5,0.5-0.5,0.8V26c0,1.1,0.3,2.2,1,3.1l-0.7,0.7c-0.3,0.3-0.3,0.7-0.2,1
			c0.1,0.3,0.5,0.6,0.9,0.6h4.5c1.8,0,3.3-1.4,3.5-3.1l1-1.1c0.2-0.2,0.3-0.5,0.3-0.7c0-0.3-0.2-0.5-0.4-0.7L27.2,25z M25.7,27.2
			c-0.2,0.2-0.3,0.4-0.3,0.7c0,0.9-0.7,1.7-1.6,1.7h-2.4c0.1-0.3,0.1-0.7-0.2-1c-0.4-0.4-0.7-1-0.9-1.6c0.9,0.4,1.8,0.6,2.8,0.6
			c0.5,0,0.9-0.4,0.9-0.9v-1c0-0.4,0.3-0.7,0.7-0.7c0.4,0,0.7,0.3,0.7,0.7c0,0.3,0.1,0.6,0.4,0.7l0.4,0.3L25.7,27.2z"/>
		<path class="st10" d="M41.6,29.8v2.4h-1.9v1.9h1.9v3.7h1.9v-3.7h1.9v-1.9h-1.9v-1.2c0-0.4,0.3-0.7,0.7-0.7h1.2v-1.9h-2.4
			C42.1,28.6,41.6,29.1,41.6,29.8z"/>
		<path class="st10" d="M50.9,38.8V27.6c0-1.5-1.3-2.8-2.8-2.8H36.9c-1.5,0-2.8,1.3-2.8,2.8v11.1c0,1.5,1.3,2.8,2.8,2.8h11.1
			C49.6,41.6,50.9,40.3,50.9,38.8z M36,38.8V27.6c0-0.5,0.4-0.9,0.9-0.9h11.1c0.5,0,0.9,0.4,0.9,0.9v11.1c0,0.5-0.4,0.9-0.9,0.9
			H36.9C36.4,39.7,36,39.3,36,38.8z"/>
		<path class="st10" d="M31.4,33.2V22.1c0-1.5-1.3-2.8-2.8-2.8H17.4c-1.5,0-2.8,1.3-2.8,2.8v11.1c0,1.5,1.3,2.8,2.8,2.8h11.1
			C30.1,36,31.4,34.7,31.4,33.2z M16.5,33.2V22.1c0-0.5,0.4-0.9,0.9-0.9h11.1c0.5,0,0.9,0.4,0.9,0.9v11.1c0,0.5-0.4,0.9-0.9,0.9
			H17.4C16.9,34.1,16.5,33.7,16.5,33.2z"/>
		<path class="st10" d="M67.6,14.6H56.4c-1.5,0-2.8,1.3-2.8,2.8v11.1c0,1.5,1.3,2.8,2.8,2.8h11.1c1.5,0,2.8-1.3,2.8-2.8V17.4
			C70.4,15.9,69.1,14.6,67.6,14.6z M56.4,16.5h11.1c0.5,0,0.9,0.4,0.9,0.9v4.6h-2c-0.4-2.1-2.3-3.7-4.6-3.7s-4.1,1.6-4.6,3.7h-2
			v-4.6C55.5,16.9,55.9,16.5,56.4,16.5z M64.8,23c0,1.5-1.3,2.8-2.8,2.8c-1.5,0-2.8-1.3-2.8-2.8c0-1.5,1.3-2.8,2.8-2.8
			C63.5,20.2,64.8,21.5,64.8,23z M67.6,29.5H56.4c-0.5,0-0.9-0.4-0.9-0.9v-4.6h2c0.4,2.1,2.3,3.7,4.6,3.7s4.1-1.6,4.6-3.7h2v4.6
			C68.5,29.1,68.1,29.5,67.6,29.5z"/>
		<rect x="41.6" y="52.7" class="st10" width="1.9" height="1.9"/>
	</g>
</g>
</svg>
