<?xml version="1.0" encoding="utf-8"?>
<!-- Generator: Adobe Illustrator 21.1.0, SVG Export Plug-In . SVG Version: 6.00 Build 0)  -->
<svg version="1.1" id="圖層_1" xmlns="http://www.w3.org/2000/svg" xmlns:xlink="http://www.w3.org/1999/xlink" x="0px" y="0px"
	 viewBox="0 0 300 131" style="enable-background:new 0 0 300 131;" xml:space="preserve">
<style type="text/css">
	.st0{fill:#DB3535;}
	.st1{fill:#F4CC25;}
	.st2{fill:#F2A927;}
	.st3{fill:#2A2A2B;}
	.st4{fill:#F29B27;}
	.st5{fill:#CE7305;}
	.st6{fill:#070707;}
	.st7{fill:#091119;}
	.st8{opacity:0.3;fill:#091119;}
	.st9{fill:#FFFFFF;}
	.st10{fill:#F49625;}
	.st11{opacity:0.3;fill:#2A2A2B;}
	.st12{opacity:0.2;fill:#F9F9F9;}
	.st13{fill:#80C2DC;}
	.st14{opacity:0.6;fill:#FFFFFF;}
	.st15{opacity:0.7;fill:#FFFFFF;}
	.st16{opacity:0.6;}
	.st17{fill:#EDEDED;}
	.st18{opacity:0.2;fill:#EDEDED;}
	.st19{fill:#FFA022;}
	.st20{fill:#E3E5E5;}
	.st21{fill:#232122;}
	.st22{fill:#191919;}
	.st23{fill:#070000;}
	.st24{fill:#383838;}
	.st25{fill:#262626;}
	.st26{fill:#5C1F24;}
	.st27{opacity:0.5;fill:#FFFFFF;}
	.st28{opacity:0.2;fill:#FFFFFF;}
	.st29{fill:#C7212B;}
	.st30{fill:#F9751C;}
	.st31{fill:#C7DEF9;}
	.st32{opacity:0.7;}
	.st33{fill:#E3E3E3;}
	.st34{fill:#757575;}
	.st35{fill:#1992FD;}
	.st36{fill:#5E921B;}
	.st37{fill:#EBEDF0;}
	.st38{fill:#90C642;}
	.st39{fill:#73AD29;}
	.st40{fill:#2B2B2B;}
	.st41{fill:#231F20;}
	.st42{fill:#242424;}
	.st43{fill:#E5E3E8;}
	.st44{fill:#C6C5C3;}
	.st45{fill:#424241;}
	.st46{fill:#999999;}
	.st47{fill:#59B9FF;}
</style>
<g>
	<g>
		<g>
			<g>
				<g>
					<path class="st33" d="M293.1,109.9c0-23.7,0.3-78.9-11.4-96.3c-19,0-237.7-0.3-250.7-0.3C23.1,26.7-8.7,63.1,8.4,110.2
						C123.2,110.2,293.1,109.9,293.1,109.9z"/>
					<path class="st34" d="M228.9,45.2c4.5,0,8.2-3.8,8.2-8.6V24.2c0-4.7-3.7-8.6-8.2-8.6l-87.3-0.1c-38.9,0-76.1-0.1-93.1-0.1
						c-4.5,0-8.8,1.2-9.8,2.8c-0.5,0.7-1,1.5-1.5,2.4L37,20.8c-2.9,4.5-6.5,10-9.9,16.5c-1.1,2-1.2,4-0.3,5.5
						c0.9,1.5,2.7,2.3,4.9,2.3H228.9z"/>
					<path class="st35" d="M168.9,16.3c20.9,0,41.6,0,59.4,0.1c4.3,0,7.8,3.6,7.8,8v12.2c0,4.4-3.5,8-7.8,8h-59.4V16.3z"/>
					<path class="st35" d="M141.6,16.3c7.9,0,16,0,24,0v28.2h-63.2V16.2C114.8,16.2,128.1,16.2,141.6,16.3z"/>
					<path class="st35" d="M28.1,37.4c3.4-6.3,7-11.7,9.8-16.1c0.6-0.9,1.1-1.7,1.7-2.6c0.9-1.4,5.1-2.6,9.4-2.6
						c10.3,0,28.2,0,49.2,0.1l0.9,0.9v27.4H32.3C28,44.5,26,41.2,28.1,37.4z"/>
					<g>
						<g>
							<path d="M202.8,110L213,92.6c1-1.8,4.4-3.1,7.5-3.1H260c3.2,0,6.5,1.3,7.5,3.1l10.1,17.3c-14,0-10.1,4.6-37.5,4.6
								C236.6,114.5,206.5,110,202.8,110z"/>
						</g>
						<g>
							<path d="M39.5,97.3c1.8-10.2,7.5-15.9,17.8-15.9h13.1c10.4,0,16.7,8.7,18.8,18.8c0.5,2.5,1.6,10,1.6,10
								c-8.5,0-17.7,9.8-27.5,9.9c-9.8,0-20.2-9.8-28.4-9.8L39.5,97.3z"/>
						</g>
					</g>
					<path class="st34" d="M12.6,45.3c4.2-0.7,8.8-4.2,11-8.2L30,24.6c1.7-3.3,1.4-6.4-0.8-7.9l-0.3-0.2l-0.2,0.3
						c-0.6,0.9-1.2,1.8-1.9,2.9c-4.2,6.2-9.9,14.7-14.6,25l-0.3,0.7L12.6,45.3z"/>
					<path class="st35" d="M28.6,17c1.9,1.3,2.3,4.1,0.6,7.4l-6.5,12.5c-2.1,4-6.6,7.4-10.7,8C17.5,32.9,24.4,23.4,28.6,17z"/>
					<g>
						<path d="M242.1,20.9c0-0.5,0.4-0.8,0.8-0.8h37.5c0.5,0,0.8,0.4,0.8,0.8l0,0c0,0.5-0.4,0.8-0.8,0.8h-37.5
							C242.4,21.7,242.1,21.4,242.1,20.9L242.1,20.9z M242.1,25.5c0,0.5,0.4,0.8,0.8,0.8h37.5c0.5,0,0.8-0.4,0.8-0.8l0,0
							c0-0.5-0.4-0.8-0.8-0.8h-37.5C242.4,24.7,242.1,25.1,242.1,25.5L242.1,25.5z M242.1,30.2c0,0.4,0.4,0.8,0.8,0.8h37.5
							c0.5,0,0.8-0.4,0.8-0.8l0,0c0-0.5-0.4-0.8-0.8-0.8h-37.5C242.4,29.4,242.1,29.7,242.1,30.2L242.1,30.2z M242.1,34.8
							c0,0.5,0.4,0.8,0.8,0.8h37.5c0.5,0,0.8-0.4,0.8-0.8l0,0c0-0.5-0.4-0.8-0.8-0.8h-37.5C242.4,34,242.1,34.3,242.1,34.8
							L242.1,34.8z M242.1,39.4c0,0.4,0.4,0.8,0.8,0.8h37.5c0.5,0,0.8-0.4,0.8-0.8l0,0c0-0.5-0.4-0.8-0.8-0.8h-37.5
							C242.4,38.6,242.1,39,242.1,39.4L242.1,39.4z"/>
					</g>
					<g>
						<path d="M242.1,53.6c0-0.4,0.4-0.8,0.8-0.8h37.5c0.5,0,0.8,0.4,0.8,0.8l0,0c0,0.5-0.4,0.8-0.8,0.8h-37.5
							C242.4,54.4,242.1,54.1,242.1,53.6L242.1,53.6z M242.1,58.2c0,0.5,0.4,0.8,0.8,0.8h37.5c0.5,0,0.8-0.4,0.8-0.8l0,0
							c0-0.4-0.4-0.8-0.8-0.8h-37.5C242.4,57.4,242.1,57.8,242.1,58.2L242.1,58.2z M242.1,62.9c0,0.4,0.4,0.8,0.8,0.8h37.5
							c0.5,0,0.8-0.4,0.8-0.8l0,0c0-0.5-0.4-0.8-0.8-0.8h-37.5C242.4,62,242.1,62.4,242.1,62.9L242.1,62.9z M242.1,67.5
							c0,0.5,0.4,0.8,0.8,0.8h37.5c0.5,0,0.8-0.4,0.8-0.8l0,0c0-0.4-0.4-0.8-0.8-0.8h-37.5C242.4,66.7,242.1,67,242.1,67.5
							L242.1,67.5z M242.1,72.1c0,0.5,0.4,0.8,0.8,0.8h37.5c0.5,0,0.8-0.4,0.8-0.8l0,0c0-0.5-0.4-0.8-0.8-0.8h-37.5
							C242.4,71.3,242.1,71.6,242.1,72.1L242.1,72.1z"/>
					</g>
					<path class="st36" d="M29,10.8C37.1,4.4,47.3,0.5,58.5,0.5h193.7c11.2,0,21.4,3.9,29.5,10.4c1.8,1.4,1.2,2.7-1,2.7H30
						C27.8,13.5,27.2,12.3,29,10.8z"/>
					<path class="st37" d="M25.4,45.6h265.3c1.4,0,2.4,1.1,2.4,2.4c0,1.4-1.1,2.4-2.4,2.4H25.4V45.6z"/>
					<path class="st9" d="M25.4,47.8v-2.2h265.3c1.3,0,2.3,1,2.4,2.2H25.4z"/>
					<g>
						<path class="st9" d="M267.5,92.6c-1-1.8-4.4-3.1-7.5-3.1h-39.4c-3.2,0-6.5,1.3-7.5,3.1l-7.8,13.3l6.2-14.2
							c1.3-3.1,5.6-4.7,9.1-4.7H260c3.5,0,7.8,1.6,9.1,4.7l6.1,14.1L267.5,92.6z"/>
					</g>
					<g>
						<path class="st9" d="M89.2,100.1c-2-10.1-8.4-18.8-18.8-18.8H57.4c-9.1,0-15.2,7.2-17.8,15.8c1.6-9.9,7.7-18.8,17.8-18.8h13.1
							c10.4,0,16.7,8.8,18.8,18.9c0.5,2.5,1.6,9.9,1.6,9.9c-0.1,0-0.3,0-0.5,0C90,104.8,89.5,101.6,89.2,100.1z"/>
					</g>
					<path class="st36" d="M29,10.8C37.1,4.4,47.3,0.5,58.5,0.5h193.7c11.2,0,21.4,3.9,29.5,10.4c1.8,1.4,1.2,2.7-1,2.7H30
						C27.8,13.5,27.2,12.3,29,10.8z"/>
					<path class="st38" d="M260.5,8.1c8,0,15.5,1.6,22.2,4.5c-0.1,0.5-0.7,0.9-1.8,0.9c-6.3-2.4-13.2-3.8-20.5-3.8H47
						c-6.7,0-13,1.1-18.8,3.2c-0.3-0.5-0.2-1.1,0.6-1.8c5.7-1.9,11.8-3,18.2-3H260.5z"/>
					<path class="st39" d="M258.8,3.7H51.9c-5.5,0-10.8,0.8-15.7,2.3c6.6-3.6,14.2-5.6,22.3-5.6h193.7c8.1,0,15.7,2,22.3,5.6
						C269.6,4.6,264.3,3.7,258.8,3.7z"/>
					<path class="st40" d="M92,107.8c0,0.6,0.5,1,1,1h108.1c0.6,0,1-0.5,1-1l0,0c0-0.6-0.5-1-1-1H93C92.5,106.8,92,107.2,92,107.8
						L92,107.8z"/>
					<ellipse class="st34" cx="89.4" cy="54.8" rx="9.2" ry="3.5"/>
					<path class="st17" d="M78.6,54.6c0,1,0.8,1.8,1.8,1.8h17.1c1,0,1.8-0.8,1.8-1.8l0,0c0-1-0.8-1.8-1.8-1.8H80.4
						C79.4,52.7,78.6,53.5,78.6,54.6L78.6,54.6z"/>
					<path class="st33" d="M25.4,46.4v4.1h265.3c0.5,0,0.9-0.1,1.3-0.4c-0.4,0.7-1.2,1.2-2.1,1.2H24.5v-4.9H25.4z"/>
					<g>
						<path class="st41" d="M18,100.1V52.2c0-2.3,1-5.7,2.2-7.6l16.3-25.9c1.2-1.9,4.1-3.5,6.4-3.5h53.8c2.3,0,4.2,1.9,4.2,4.2v53.4
							c0,2.3-1.9,4.2-4.2,4.2H49.5c-2.2,0-4.8,1.6-5.7,3.6l-9.6,19.9c-1,2.1-3.7,3.8-6,3.8h-5.9C19.9,104.4,18,102.5,18,100.1z
							 M42.9,15.6c-2.2,0-4.9,1.5-6.1,3.4L20.5,44.8c-1.2,1.9-2.2,5.2-2.2,7.4v47.9c0,2.2,1.8,3.9,3.9,3.9h5.9
							c2.2,0,4.8-1.6,5.7-3.6l9.6-19.9c1-2.1,3.7-3.8,6-3.8h47.3c2.2,0,3.9-1.8,3.9-3.9V19.5c0-2.2-1.8-3.9-3.9-3.9H42.9z"/>
					</g>
					<path class="st34" d="M30,13.5h250.7c1.7,0,2.4-0.7,1.9-1.6c0.2,0.2,0.4,0.3,0.6,0.5c1.8,1.4,1.2,2.7-1,2.7H31.5
						c-1.6,0-2.3-0.6-2-1.5C29.7,13.5,29.8,13.5,30,13.5z"/>
					<path class="st27" d="M30.9,13.5H30c-2.3,0-2.8-1.3-1-2.7C37.1,4.4,47.3,0.5,58.5,0.5h193.7c11.2,0,21.4,3.9,29.5,10.4
						c1.8,1.4,1.2,2.7-1,2.7c0,0-6.6,0.1,1,0.1c11.7,17.4,11.4,72.6,11.4,96.3c0,0-1.2,0-3.4,0c0-22.1,0.3-73.5-11.2-89.7
						c-7.4,0-1-0.1-1-0.1c2.2,0,2.7-1.2,1-2.5c-7.9-6-17.9-9.7-28.8-9.7H60.6c-10.9,0-20.9,3.6-28.8,9.7c-1.7,1.3-1.2,2.5,1,2.5h0.8
						C25.7,32.6-5,66.5,11.6,110.2c-1.1,0-2.2,0-3.2,0C-8.7,63.3,22.8,27,30.9,13.5z"/>
					<path class="st27" d="M278.9,53.4c-51.9,0-257.3,0-257.3,0s-6.5,15.4,30.8,15.4c37.3,0,39.6,10.9,47.9,21.1
						c11.4,14,88.7,15.1,95-1.6C208.3,53.4,279.1,86.8,278.9,53.4z"/>
				</g>
				<path class="st42" d="M229.1,89.8h24.9c6.1,4,10,10.9,10,18.7c0,12.4-10.1,22.5-22.5,22.5c-12.4,0-22.5-10.1-22.5-22.5
					C219.1,100.7,223.1,93.8,229.1,89.8z"/>
				<circle class="st43" cx="241.6" cy="108.5" r="13.4"/>
				<circle class="st44" cx="241.6" cy="108.5" r="11.9"/>
				<circle class="st45" cx="241.6" cy="108.5" r="5.5"/>
				<circle class="st43" cx="241.6" cy="108.5" r="4.9"/>
				<path class="st45" d="M246.1,97.6c-1.3,0.5-2.8,0.8-4.3,0.8c-1.5,0-3-0.3-4.3-0.8c1.3-0.5,2.8-0.8,4.3-0.8
					C243.3,96.8,244.7,97.1,246.1,97.6z M251.8,102.8c-0.8-1.3-1.8-2.4-2.9-3.3c0.2,1.4,0.7,2.8,1.5,4.2c0.8,1.3,1.8,2.4,2.9,3.3
					C253.1,105.5,252.6,104.1,251.8,102.8z M251.7,114.5c0.8-1.3,1.2-2.7,1.5-4.2c-1.1,0.9-2.1,2-2.9,3.3c-0.8,1.3-1.2,2.7-1.5,4.2
					C249.9,117,250.9,115.8,251.7,114.5z M241.4,120.3c1.5,0,3-0.3,4.3-0.8c-1.3-0.5-2.8-0.8-4.3-0.8c-1.5,0-3,0.3-4.3,0.8
					C238.4,120,239.9,120.3,241.4,120.3z M231.3,114.3c0.8,1.3,1.8,2.4,2.9,3.3c-0.2-1.4-0.7-2.8-1.5-4.2c-0.8-1.3-1.8-2.4-2.9-3.3
					C230.1,111.5,230.6,112.9,231.3,114.3z M231.5,102.5c-0.8,1.3-1.2,2.7-1.5,4.2c1.1-0.9,2.1-2,2.9-3.3c0.8-1.3,1.2-2.7,1.5-4.2
					C233.2,100.1,232.2,101.2,231.5,102.5z"/>
				<path class="st45" d="M241.6,122.4c-7.5,0-13.6-5.9-14.1-13.3c0,0.3,0,0.6,0,0.8c0,7.8,6.3,14.1,14.1,14.1
					c7.8,0,14.1-6.3,14.1-14.1c0-0.3,0-0.6,0-0.8C255.2,116.5,249.1,122.4,241.6,122.4z"/>
				<path d="M241.6,129.3c12.1,0,22-9.6,22.5-21.7c0,0.3,0,0.6,0,0.8c0,12.4-10.1,22.5-22.5,22.5c-12.4,0-22.5-10.1-22.5-22.5
					c0-0.3,0-0.6,0-0.8C219.6,119.7,229.4,129.3,241.6,129.3z"/>
				<circle class="st42" cx="63.3" cy="108.5" r="22.5"/>
				<circle class="st43" cx="63.3" cy="108.5" r="13.4"/>
				<circle class="st44" cx="63.3" cy="108.5" r="11.9"/>
				<circle class="st45" cx="63.3" cy="108.5" r="5.5"/>
				<circle class="st43" cx="63.3" cy="108.5" r="4.9"/>
				<path class="st45" d="M67.8,97.6c-1.3,0.5-2.8,0.8-4.3,0.8c-1.5,0-3-0.3-4.3-0.8c1.3-0.5,2.8-0.8,4.3-0.8
					C65,96.8,66.4,97.1,67.8,97.6z M73.5,102.8c-0.8-1.3-1.8-2.4-2.9-3.3c0.2,1.4,0.7,2.8,1.5,4.2c0.8,1.3,1.8,2.4,2.9,3.3
					C74.8,105.5,74.3,104.1,73.5,102.8z M73.4,114.5c0.8-1.3,1.2-2.7,1.5-4.2c-1.1,0.9-2.1,2-2.9,3.3c-0.8,1.3-1.2,2.7-1.5,4.2
					C71.6,117,72.6,115.8,73.4,114.5z M63.1,120.3c1.5,0,3-0.3,4.3-0.8c-1.3-0.5-2.8-0.8-4.3-0.8c-1.5,0-3,0.3-4.3,0.8
					C60.1,120,61.6,120.3,63.1,120.3z M53,114.3c0.8,1.3,1.8,2.4,2.9,3.3c-0.2-1.4-0.7-2.8-1.5-4.2c-0.8-1.3-1.8-2.4-2.9-3.3
					C51.8,111.5,52.3,112.9,53,114.3z M53.2,102.5c-0.8,1.3-1.2,2.7-1.5,4.2c1.1-0.9,2.1-2,2.9-3.3c0.8-1.3,1.2-2.7,1.5-4.2
					C54.9,100.1,54,101.2,53.2,102.5z"/>
				<path class="st45" d="M63.3,122.4c-7.5,0-13.6-5.9-14.1-13.3c0,0.3,0,0.6,0,0.8c0,7.8,6.3,14.1,14.1,14.1
					c7.8,0,14.1-6.3,14.1-14.1c0-0.3,0-0.6,0-0.8C76.9,116.5,70.8,122.4,63.3,122.4z"/>
				<path d="M63.3,129.3c12.1,0,22-9.6,22.5-21.7c0,0.3,0,0.6,0,0.8c0,12.4-10.1,22.5-22.5,22.5c-12.4,0-22.5-10.1-22.5-22.5
					c0-0.3,0-0.6,0-0.8C41.3,119.7,51.2,129.3,63.3,129.3z"/>
			</g>
			<ellipse class="st17" cx="6.3" cy="73.7" rx="3.8" ry="10.1"/>
			<path class="st40" d="M7.7,73.6c0-4.4-1.1-8.1-2.6-9.5c0.4-0.3,0.7-0.5,1.1-0.5c2.1,0,3.8,4.5,3.8,10.1c0,5.6-1.7,10.1-3.8,10.1
				c-0.4,0-0.9-0.2-1.3-0.6C6.6,82,7.7,78.2,7.7,73.6z"/>
			<g>
				<path class="st41" d="M270.1,96.9h23.4c3.6,0,6.5,2.9,6.5,6.5c0,3.6-2.9,6.5-6.5,6.5h-15.9L270.1,96.9z"/>
				<path class="st46" d="M274.3,101.6l-2.5-4.2h21.5c2.7,0,5,1.8,5.8,4.2H274.3z"/>
				<path class="st40" d="M299,105.2c-0.8,2.3-3,3.9-5.7,3.9h-14.6l-2.3-3.9H299z"/>
			</g>
			<g>
				<path class="st41" d="M39.5,97.3H5.2c-3.6,0-5.9,2.9-5,6.5c0.8,3.6,4.4,6.5,8,6.5H35L39.5,97.3z"/>
				<path class="st46" d="M36.4,102l1.5-4.2H5.5c-2.7,0-4.6,1.8-4.8,4.2H36.4z"/>
				<path class="st40" d="M1.6,105.5c1.3,2.3,3.9,3.9,6.6,3.9h25.5l1.4-3.9H1.6z"/>
			</g>
		</g>
	</g>
	<g class="st32">
		<path class="st47" d="M210.3,16.3c6.3,0,12.3,0,18,0c4.3,0,7.8,3.6,7.8,8v12.2c0,1.6-0.5,3.1-1.3,4.4L210.3,16.3z"/>
	</g>
	<g class="st32">
		<path class="st47" d="M85.4,16.2c3.1,0,6.3,0,9.6,0l4.1,4.1v9.6L85.4,16.2z"/>
	</g>
	<g class="st32">
		<path class="st47" d="M37.9,21.3c0.3-0.4,0.5-0.8,0.8-1.2l24.4,24.4H32.3c-4.3,0-6.3-3.2-4.2-7.1C31.5,31.1,35,25.7,37.9,21.3z"/>
	</g>
	<g class="st32">
		<path class="st47" d="M57.8,16.2c5.1,0,11.1,0,17.7,0l23.6,23.6v4.7h-13L57.8,16.2z"/>
	</g>
	<g class="st32">
		<path class="st47" d="M173.7,16.3c6.1,0,12.2,0,18.1,0L220,44.5h-18.1L173.7,16.3z"/>
	</g>
	<g class="st32">
		<path class="st47" d="M168.9,35.1V24.7l19.7,19.7h-10.4C175.2,41.3,172.1,38.2,168.9,35.1z"/>
	</g>
	<g class="st32">
		<path class="st47" d="M150.1,16.3c3.5,0,6.9,0,10.4,0l5.1,5.1v10.4C160.5,26.6,155.3,21.4,150.1,16.3z"/>
	</g>
	<g class="st32">
		<path class="st47" d="M116.8,16.2c8.1,0,16.4,0,24.8,0c1.7,0,3.4,0,5.1,0l19,19v9.3H145C135.6,35.1,126.2,25.6,116.8,16.2z"/>
	</g>
	<g class="st32">
		<polygon class="st47" points="102.5,33.2 102.5,23.6 123.3,44.5 113.7,44.5 		"/>
	</g>
</g>
</svg>
