<?xml version="1.0" encoding="utf-8"?>
<!-- Generator: Adobe Illustrator 21.1.0, SVG Export Plug-In . SVG Version: 6.00 Build 0)  -->
<svg version="1.1" id="圖層_1" xmlns="http://www.w3.org/2000/svg" xmlns:xlink="http://www.w3.org/1999/xlink" x="0px" y="0px"
	 viewBox="0 0 300 131" style="enable-background:new 0 0 300 131;" xml:space="preserve">
<style type="text/css">
	.st0{fill:#DB3535;}
	.st1{fill:#F4CC25;}
	.st2{fill:#F2A927;}
	.st3{fill:#2A2A2B;}
	.st4{fill:#F29B27;}
	.st5{fill:#CE7305;}
	.st6{fill:#070707;}
	.st7{fill:#091119;}
	.st8{opacity:0.3;fill:#091119;}
	.st9{fill:#FFFFFF;}
	.st10{fill:#F49625;}
	.st11{opacity:0.3;fill:#2A2A2B;}
	.st12{opacity:0.2;fill:#F9F9F9;}
	.st13{fill:#80C2DC;}
	.st14{opacity:0.6;fill:#FFFFFF;}
	.st15{opacity:0.7;fill:#FFFFFF;}
	.st16{opacity:0.6;}
	.st17{fill:#EDEDED;}
	.st18{opacity:0.2;fill:#EDEDED;}
	.st19{fill:#FFA022;}
	.st20{fill:#E3E5E5;}
	.st21{fill:#232122;}
	.st22{fill:#191919;}
	.st23{fill:#070000;}
	.st24{fill:#383838;}
	.st25{fill:#262626;}
	.st26{fill:#5C1F24;}
	.st27{opacity:0.5;fill:#FFFFFF;}
	.st28{opacity:0.2;fill:#FFFFFF;}
	.st29{fill:#C7212B;}
	.st30{fill:#F9751C;}
	.st31{fill:#C7DEF9;}
	.st32{opacity:0.7;}
	.st33{fill:#E3E3E3;}
	.st34{fill:#757575;}
	.st35{fill:#1992FD;}
	.st36{fill:#5E921B;}
	.st37{fill:#EBEDF0;}
	.st38{fill:#90C642;}
	.st39{fill:#73AD29;}
	.st40{fill:#2B2B2B;}
	.st41{fill:#231F20;}
	.st42{fill:#242424;}
	.st43{fill:#E5E3E8;}
	.st44{fill:#C6C5C3;}
	.st45{fill:#424241;}
	.st46{fill:#999999;}
	.st47{fill:#59B9FF;}
</style>
<g>
	<g>
		<g>
			<g>
				<g>
					<path class="st33" d="M6.9,109.9c0-23.7-0.3-78.9,11.4-96.3c19,0,237.7-0.3,250.7-0.3c7.9,13.3,39.7,49.8,22.6,96.8
						C176.8,110.2,6.9,109.9,6.9,109.9z"/>
					<path class="st34" d="M71.1,45.2c-4.5,0-8.2-3.8-8.2-8.6V24.2c0-4.7,3.7-8.6,8.2-8.6l87.3-0.1c38.9,0,76.1-0.1,93.1-0.1
						c4.5,0,8.8,1.2,9.8,2.8c0.5,0.7,1,1.5,1.5,2.4l0.2,0.3c2.9,4.5,6.5,10,9.9,16.5c1.1,2,1.2,4,0.3,5.5c-0.9,1.5-2.7,2.3-4.9,2.3
						H71.1z"/>
					<path class="st35" d="M131.1,16.3c-20.9,0-41.6,0-59.4,0.1c-4.3,0-7.8,3.6-7.8,8v12.2c0,4.4,3.5,8,7.8,8h59.4V16.3z"/>
					<path class="st35" d="M158.4,16.3c-7.9,0-16,0-24,0v28.2h63.2V16.2C185.2,16.2,171.9,16.2,158.4,16.3z"/>
					<path class="st35" d="M271.9,37.4c-3.4-6.3-7-11.7-9.8-16.1c-0.6-0.9-1.1-1.7-1.7-2.6c-0.9-1.4-5.1-2.6-9.4-2.6
						c-10.3,0-28.2,0-49.2,0.1l-0.9,0.9v27.4h66.8C272,44.5,274,41.2,271.9,37.4z"/>
					<g>
						<g>
							<path d="M97.2,110L87,92.6c-1-1.8-4.4-3.1-7.5-3.1H40c-3.2,0-6.5,1.3-7.5,3.1l-10.1,17.3c14,0,10.1,4.6,37.5,4.6
								C63.4,114.5,93.5,110,97.2,110z"/>
						</g>
						<g>
							<path d="M260.5,97.3c-1.8-10.2-7.5-15.9-17.8-15.9h-13.1c-10.4,0-16.7,8.7-18.8,18.8c-0.5,2.5-1.6,10-1.6,10
								c8.5,0,17.7,9.8,27.5,9.9c9.8,0,20.2-9.8,28.4-9.8L260.5,97.3z"/>
						</g>
					</g>
					<path class="st34" d="M287.4,45.3c-4.2-0.7-8.8-4.2-11-8.2L270,24.6c-1.7-3.3-1.4-6.4,0.8-7.9l0.3-0.2l0.2,0.3
						c0.6,0.9,1.2,1.8,1.9,2.9c4.2,6.2,9.9,14.7,14.6,25l0.3,0.7L287.4,45.3z"/>
					<path class="st35" d="M271.4,17c-1.9,1.3-2.3,4.1-0.6,7.4l6.5,12.5c2.1,4,6.6,7.4,10.7,8C282.5,32.9,275.6,23.4,271.4,17z"/>
					<g>
						<path d="M57.9,20.9c0,0.5-0.4,0.8-0.8,0.8H19.6c-0.5,0-0.8-0.4-0.8-0.8l0,0c0-0.5,0.4-0.8,0.8-0.8h37.5
							C57.6,20.1,57.9,20.5,57.9,20.9L57.9,20.9z M57.9,25.5c0-0.5-0.4-0.8-0.8-0.8H19.6c-0.5,0-0.8,0.4-0.8,0.8l0,0
							c0,0.5,0.4,0.8,0.8,0.8h37.5C57.6,26.4,57.9,26,57.9,25.5L57.9,25.5z M57.9,30.2c0-0.5-0.4-0.8-0.8-0.8H19.6
							c-0.5,0-0.8,0.4-0.8,0.8l0,0c0,0.4,0.4,0.8,0.8,0.8h37.5C57.6,31,57.9,30.6,57.9,30.2L57.9,30.2z M57.9,34.8
							c0-0.5-0.4-0.8-0.8-0.8H19.6c-0.5,0-0.8,0.4-0.8,0.8l0,0c0,0.5,0.4,0.8,0.8,0.8h37.5C57.6,35.6,57.9,35.2,57.9,34.8L57.9,34.8
							z M57.9,39.4c0-0.5-0.4-0.8-0.8-0.8H19.6c-0.5,0-0.8,0.4-0.8,0.8l0,0c0,0.4,0.4,0.8,0.8,0.8h37.5
							C57.6,40.2,57.9,39.9,57.9,39.4L57.9,39.4z"/>
					</g>
					<g>
						<path d="M57.9,53.6c0,0.5-0.4,0.8-0.8,0.8H19.6c-0.5,0-0.8-0.4-0.8-0.8l0,0c0-0.4,0.4-0.8,0.8-0.8h37.5
							C57.6,52.8,57.9,53.2,57.9,53.6L57.9,53.6z M57.9,58.2c0-0.4-0.4-0.8-0.8-0.8H19.6c-0.5,0-0.8,0.4-0.8,0.8l0,0
							c0,0.5,0.4,0.8,0.8,0.8h37.5C57.6,59,57.9,58.7,57.9,58.2L57.9,58.2z M57.9,62.9c0-0.5-0.4-0.8-0.8-0.8H19.6
							c-0.5,0-0.8,0.4-0.8,0.8l0,0c0,0.4,0.4,0.8,0.8,0.8h37.5C57.6,63.7,57.9,63.3,57.9,62.9L57.9,62.9z M57.9,67.5
							c0-0.4-0.4-0.8-0.8-0.8H19.6c-0.5,0-0.8,0.4-0.8,0.8l0,0c0,0.5,0.4,0.8,0.8,0.8h37.5C57.6,68.3,57.9,67.9,57.9,67.5L57.9,67.5
							z M57.9,72.1c0-0.5-0.4-0.8-0.8-0.8H19.6c-0.5,0-0.8,0.4-0.8,0.8l0,0c0,0.5,0.4,0.8,0.8,0.8h37.5
							C57.6,72.9,57.9,72.5,57.9,72.1L57.9,72.1z"/>
					</g>
					<path class="st36" d="M271,10.8c-8.1-6.5-18.3-10.4-29.5-10.4l-193.7,0c-11.2,0-21.4,3.9-29.5,10.4c-1.8,1.4-1.2,2.7,1,2.7H270
						C272.2,13.5,272.8,12.3,271,10.8z"/>
					<path class="st37" d="M274.6,45.6H9.3c-1.4,0-2.4,1.1-2.4,2.4c0,1.4,1.1,2.4,2.4,2.4h265.3V45.6z"/>
					<path class="st9" d="M274.6,47.8v-2.2H9.3c-1.3,0-2.3,1-2.4,2.2H274.6z"/>
					<g>
						<path class="st9" d="M32.5,92.6c1-1.8,4.4-3.1,7.5-3.1h39.4c3.2,0,6.5,1.3,7.5,3.1l7.8,13.3l-6.2-14.2
							c-1.3-3.1-5.6-4.7-9.1-4.7H40c-3.5,0-7.8,1.6-9.1,4.7l-6.1,14.1L32.5,92.6z"/>
					</g>
					<g>
						<path class="st9" d="M210.8,100.1c2-10.1,8.4-18.8,18.8-18.8h13.1c9.1,0,15.2,7.2,17.8,15.8c-1.6-9.9-7.7-18.8-17.8-18.8
							h-13.1c-10.4,0-16.7,8.8-18.8,18.9c-0.5,2.5-1.6,9.9-1.6,9.9c0.1,0,0.3,0,0.5,0C210,104.8,210.5,101.6,210.8,100.1z"/>
					</g>
					<path class="st36" d="M271,10.8c-8.1-6.5-18.3-10.4-29.5-10.4l-193.7,0c-11.2,0-21.4,3.9-29.5,10.4c-1.8,1.4-1.2,2.7,1,2.7H270
						C272.2,13.5,272.8,12.3,271,10.8z"/>
					<path class="st38" d="M39.5,8.1c-8,0-15.5,1.6-22.2,4.5c0.1,0.5,0.7,0.9,1.8,0.9c6.3-2.4,13.2-3.8,20.5-3.8H253
						c6.7,0,13,1.1,18.8,3.2c0.3-0.5,0.2-1.1-0.6-1.8c-5.7-1.9-11.8-3-18.2-3H39.5z"/>
					<path class="st39" d="M41.2,3.7h206.9c5.5,0,10.8,0.8,15.7,2.3c-6.6-3.6-14.2-5.6-22.3-5.6l-193.7,0c-8.1,0-15.7,2-22.3,5.6
						C30.4,4.6,35.7,3.7,41.2,3.7z"/>
					<path class="st40" d="M208,107.8c0,0.6-0.5,1-1,1H98.9c-0.6,0-1-0.5-1-1l0,0c0-0.6,0.5-1,1-1H207
						C207.5,106.8,208,107.2,208,107.8L208,107.8z"/>
					<ellipse class="st34" cx="210.6" cy="54.8" rx="9.2" ry="3.5"/>
					<path class="st17" d="M221.4,54.6c0,1-0.8,1.8-1.8,1.8h-17.1c-1,0-1.8-0.8-1.8-1.8l0,0c0-1,0.8-1.8,1.8-1.8h17.1
						C220.6,52.7,221.4,53.5,221.4,54.6L221.4,54.6z"/>
					<path class="st33" d="M274.6,46.4v4.1H9.3c-0.5,0-0.9-0.1-1.3-0.4c0.4,0.7,1.2,1.2,2.1,1.2h265.3v-4.9H274.6z"/>
					<g>
						<path class="st41" d="M277.7,104.4h-5.9c-2.3,0-5-1.7-6-3.8l-9.6-19.9c-1-2-3.5-3.6-5.7-3.6h-47.3c-2.3,0-4.2-1.9-4.2-4.2
							V19.5c0-2.3,1.9-4.2,4.2-4.2h53.8c2.3,0,5.2,1.6,6.4,3.5l16.3,25.9c1.2,1.9,2.2,5.3,2.2,7.6v47.9
							C282,102.5,280.1,104.4,277.7,104.4z M203.2,15.6c-2.2,0-3.9,1.8-3.9,3.9v53.4c0,2.2,1.8,3.9,3.9,3.9h47.3c2.3,0,5,1.7,6,3.8
							l9.6,19.9c1,2,3.5,3.6,5.7,3.6h5.9c2.2,0,3.9-1.8,3.9-3.9V52.2c0-2.2-1-5.6-2.2-7.4l-16.3-25.9c-1.2-1.9-3.9-3.4-6.1-3.4
							H203.2z"/>
					</g>
					<path class="st34" d="M270,13.5H19.3c-1.7,0-2.4-0.7-1.9-1.6c-0.2,0.2-0.4,0.3-0.6,0.5c-1.8,1.4-1.2,2.7,1,2.7h250.7
						c1.6,0,2.3-0.6,2-1.5C270.3,13.5,270.2,13.5,270,13.5z"/>
					<path class="st27" d="M269.1,13.5h0.8c2.3,0,2.8-1.3,1-2.7c-8.1-6.5-18.3-10.4-29.5-10.4l-193.7,0c-11.2,0-21.4,3.9-29.5,10.4
						c-1.8,1.4-1.2,2.7,1,2.7c0,0,6.6,0.1-1,0.1C6.6,31,6.9,86.2,6.9,109.9c0,0,1.2,0,3.4,0c0-22.1-0.3-73.5,11.2-89.7
						c7.4,0,1-0.1,1-0.1c-2.2,0-2.7-1.2-1-2.5c7.9-6,17.9-9.7,28.8-9.7h189.2c10.9,0,20.9,3.6,28.8,9.7c1.7,1.3,1.2,2.5-1,2.5h-0.8
						c7.9,12.6,38.6,46.4,21.9,90.1c1.1,0,2.2,0,3.2,0C308.7,63.3,277.2,27,269.1,13.5z"/>
					<path class="st27" d="M21.1,53.4c51.9,0,257.3,0,257.3,0s6.5,15.4-30.8,15.4c-37.3,0-39.6,10.9-47.9,21.1
						c-11.4,14-88.7,15.1-95-1.6C91.7,53.4,20.9,86.8,21.1,53.4z"/>
				</g>
				<path class="st42" d="M70.9,89.8H45.9c-6.1,4-10,10.9-10,18.7c0,12.4,10.1,22.5,22.5,22.5c12.4,0,22.5-10.1,22.5-22.5
					C80.9,100.7,76.9,93.8,70.9,89.8z"/>
				<circle class="st43" cx="58.4" cy="108.5" r="13.4"/>
				<circle class="st44" cx="58.4" cy="108.5" r="11.9"/>
				<circle class="st45" cx="58.4" cy="108.5" r="5.5"/>
				<circle class="st43" cx="58.4" cy="108.5" r="4.9"/>
				<path class="st45" d="M58.3,96.8c1.5,0,3,0.3,4.3,0.8c-1.3,0.5-2.8,0.8-4.3,0.8c-1.5,0-3-0.3-4.3-0.8
					C55.3,97.1,56.7,96.8,58.3,96.8z M46.7,106.9c1.1-0.9,2.1-2,2.9-3.3c0.8-1.3,1.2-2.7,1.5-4.2c-1.1,0.9-2.1,2-2.9,3.3
					C47.4,104.1,46.9,105.5,46.7,106.9z M51.2,117.9c-0.2-1.4-0.7-2.8-1.5-4.2c-0.8-1.3-1.8-2.4-2.9-3.3c0.2,1.4,0.7,2.8,1.5,4.2
					C49.1,115.8,50.1,117,51.2,117.9z M62.9,119.4c-1.3-0.5-2.8-0.8-4.3-0.8c-1.5,0-3,0.3-4.3,0.8c1.3,0.5,2.8,0.8,4.3,0.8
					C60.1,120.3,61.6,120,62.9,119.4z M70.1,110.1c-1.1,0.9-2.1,2-2.9,3.3c-0.8,1.3-1.2,2.7-1.5,4.2c1.1-0.9,2.1-2,2.9-3.3
					C69.4,112.9,69.9,111.5,70.1,110.1z M65.6,99.2c0.2,1.4,0.7,2.8,1.5,4.2c0.8,1.3,1.8,2.4,2.9,3.3c-0.2-1.4-0.7-2.8-1.5-4.2
					C67.8,101.2,66.8,100.1,65.6,99.2z"/>
				<path class="st45" d="M58.4,122.4c7.5,0,13.6-5.9,14.1-13.3c0,0.3,0,0.6,0,0.8c0,7.8-6.3,14.1-14.1,14.1
					c-7.8,0-14.1-6.3-14.1-14.1c0-0.3,0-0.6,0-0.8C44.8,116.5,50.9,122.4,58.4,122.4z"/>
				<path d="M58.4,129.3c-12.1,0-22-9.6-22.5-21.7c0,0.3,0,0.6,0,0.8c0,12.4,10.1,22.5,22.5,22.5c12.4,0,22.5-10.1,22.5-22.5
					c0-0.3,0-0.6,0-0.8C80.4,119.7,70.6,129.3,58.4,129.3z"/>
				<circle class="st42" cx="236.7" cy="108.5" r="22.5"/>
				<circle class="st43" cx="236.7" cy="108.5" r="13.4"/>
				<circle class="st44" cx="236.7" cy="108.5" r="11.9"/>
				<circle class="st45" cx="236.7" cy="108.5" r="5.5"/>
				<circle class="st43" cx="236.7" cy="108.5" r="4.9"/>
				<path class="st45" d="M236.6,96.8c1.5,0,3,0.3,4.3,0.8c-1.3,0.5-2.8,0.8-4.3,0.8c-1.5,0-3-0.3-4.3-0.8
					C233.6,97.1,235,96.8,236.6,96.8z M225,106.9c1.1-0.9,2.1-2,2.9-3.3c0.8-1.3,1.2-2.7,1.5-4.2c-1.1,0.9-2.1,2-2.9,3.3
					C225.7,104.1,225.2,105.5,225,106.9z M229.5,117.9c-0.2-1.4-0.7-2.8-1.5-4.2c-0.8-1.3-1.8-2.4-2.9-3.3c0.2,1.4,0.7,2.8,1.5,4.2
					C227.4,115.8,228.4,117,229.5,117.9z M241.2,119.4c-1.3-0.5-2.8-0.8-4.3-0.8c-1.5,0-3,0.3-4.3,0.8c1.3,0.5,2.8,0.8,4.3,0.8
					C238.4,120.3,239.9,120,241.2,119.4z M248.4,110.1c-1.1,0.9-2.1,2-2.9,3.3c-0.8,1.3-1.2,2.7-1.5,4.2c1.1-0.9,2.1-2,2.9-3.3
					C247.7,112.9,248.2,111.5,248.4,110.1z M243.9,99.2c0.2,1.4,0.7,2.8,1.5,4.2c0.8,1.3,1.8,2.4,2.9,3.3c-0.2-1.4-0.7-2.8-1.5-4.2
					C246,101.2,245.1,100.1,243.9,99.2z"/>
				<path class="st45" d="M236.7,122.4c7.5,0,13.6-5.9,14.1-13.3c0,0.3,0,0.6,0,0.8c0,7.8-6.3,14.1-14.1,14.1
					c-7.8,0-14.1-6.3-14.1-14.1c0-0.3,0-0.6,0-0.8C223.1,116.5,229.2,122.4,236.7,122.4z"/>
				<path d="M236.7,129.3c-12.1,0-22-9.6-22.5-21.7c0,0.3,0,0.6,0,0.8c0,12.4,10.1,22.5,22.5,22.5c12.4,0,22.5-10.1,22.5-22.5
					c0-0.3,0-0.6,0-0.8C258.7,119.7,248.8,129.3,236.7,129.3z"/>
			</g>
			<ellipse class="st17" cx="293.7" cy="73.7" rx="3.8" ry="10.1"/>
			<path class="st40" d="M292.3,73.6c0-4.4,1.1-8.1,2.6-9.5c-0.4-0.3-0.7-0.5-1.1-0.5c-2.1,0-3.8,4.5-3.8,10.1
				c0,5.6,1.7,10.1,3.8,10.1c0.4,0,0.9-0.2,1.3-0.6C293.4,82,292.3,78.2,292.3,73.6z"/>
			<g>
				<path class="st41" d="M29.9,96.9H6.5c-3.6,0-6.5,2.9-6.5,6.5c0,3.6,2.9,6.5,6.5,6.5h15.9L29.9,96.9z"/>
				<path class="st46" d="M25.7,101.6l2.5-4.2H6.7c-2.7,0-5,1.8-5.8,4.2H25.7z"/>
				<path class="st40" d="M1,105.2c0.8,2.3,3,3.9,5.7,3.9h14.6l2.3-3.9H1z"/>
			</g>
			<g>
				<path class="st41" d="M260.5,97.3h34.3c3.6,0,5.9,2.9,5,6.5c-0.8,3.6-4.4,6.5-8,6.5H265L260.5,97.3z"/>
				<path class="st46" d="M263.6,102l-1.5-4.2h32.4c2.7,0,4.6,1.8,4.8,4.2H263.6z"/>
				<path class="st40" d="M298.4,105.5c-1.3,2.3-3.9,3.9-6.6,3.9h-25.5l-1.4-3.9H298.4z"/>
			</g>
		</g>
	</g>
	<g class="st32">
		<path class="st47" d="M89.7,16.3c-6.3,0-12.3,0-18,0c-4.3,0-7.8,3.6-7.8,8v12.2c0,1.6,0.5,3.1,1.3,4.4L89.7,16.3z"/>
	</g>
	<g class="st32">
		<path class="st47" d="M214.6,16.2c-3.1,0-6.3,0-9.6,0l-4.1,4.1v9.6L214.6,16.2z"/>
	</g>
	<g class="st32">
		<path class="st47" d="M262.1,21.3c-0.3-0.4-0.5-0.8-0.8-1.2l-24.4,24.4h30.9c4.3,0,6.3-3.2,4.2-7.1
			C268.5,31.1,265,25.7,262.1,21.3z"/>
	</g>
	<g class="st32">
		<path class="st47" d="M242.2,16.2c-5.1,0-11.1,0-17.7,0l-23.6,23.6v4.7h13L242.2,16.2z"/>
	</g>
	<g class="st32">
		<path class="st47" d="M126.3,16.3c-6.1,0-12.2,0-18.1,0L80,44.5h18.1L126.3,16.3z"/>
	</g>
	<g class="st32">
		<path class="st47" d="M131.1,35.1V24.7l-19.7,19.7h10.4C124.8,41.3,127.9,38.2,131.1,35.1z"/>
	</g>
	<g class="st32">
		<path class="st47" d="M149.9,16.3c-3.5,0-6.9,0-10.4,0l-5.1,5.1v10.4C139.5,26.6,144.7,21.4,149.9,16.3z"/>
	</g>
	<g class="st32">
		<path class="st47" d="M183.2,16.2c-8.1,0-16.4,0-24.8,0c-1.7,0-3.4,0-5.1,0l-19,19v9.3H155C164.4,35.1,173.8,25.6,183.2,16.2z"/>
	</g>
	<g class="st32">
		<polygon class="st47" points="197.5,33.2 197.5,23.6 176.7,44.5 186.3,44.5 		"/>
	</g>
</g>
</svg>
