<?xml version="1.0" encoding="utf-8"?>
<!-- Generator: Adobe Illustrator 21.1.0, SVG Export Plug-In . SVG Version: 6.00 Build 0)  -->
<svg version="1.1" id="圖層_1" xmlns="http://www.w3.org/2000/svg" xmlns:xlink="http://www.w3.org/1999/xlink" x="0px" y="0px"
	 viewBox="0 0 288 113" style="enable-background:new 0 0 288 113;" xml:space="preserve">
<style type="text/css">
	.st0{fill:#DB3535;}
	.st1{fill:#F4CC25;}
	.st2{fill:#F2A927;}
	.st3{fill:#2A2A2B;}
	.st4{fill:#F29B27;}
	.st5{fill:#CE7305;}
	.st6{fill:#070707;}
	.st7{fill:#091119;}
	.st8{opacity:0.3;fill:#091119;}
	.st9{fill:#FFFFFF;}
	.st10{fill:#F49625;}
	.st11{opacity:0.3;fill:#2A2A2B;}
	.st12{opacity:0.2;fill:#F9F9F9;}
	.st13{fill:#80C2DC;}
	.st14{opacity:0.6;fill:#FFFFFF;}
	.st15{opacity:0.7;fill:#FFFFFF;}
	.st16{opacity:0.6;}
	.st17{fill:#EDEDED;}
	.st18{opacity:0.2;fill:#EDEDED;}
	.st19{fill:#FFA022;}
	.st20{fill:#E3E5E5;}
	.st21{fill:#232122;}
	.st22{fill:#191919;}
	.st23{fill:#070000;}
	.st24{fill:#383838;}
	.st25{fill:#262626;}
	.st26{fill:#5C1F24;}
	.st27{opacity:0.5;fill:#FFFFFF;}
	.st28{opacity:0.2;fill:#FFFFFF;}
	.st29{fill:#C7212B;}
	.st30{fill:#F9751C;}
	.st31{fill:#C7DEF9;}
	.st32{opacity:0.7;}
	.st33{fill:#E3E3E3;}
	.st34{fill:#757575;}
	.st35{fill:#1992FD;}
	.st36{fill:#5E921B;}
	.st37{fill:#EBEDF0;}
	.st38{fill:#90C642;}
	.st39{fill:#73AD29;}
	.st40{fill:#2B2B2B;}
	.st41{fill:#231F20;}
	.st42{fill:#242424;}
	.st43{fill:#E5E3E8;}
	.st44{fill:#C6C5C3;}
	.st45{fill:#424241;}
	.st46{fill:#999999;}
	.st47{fill:#59B9FF;}
</style>
<g>
	<g>
		<g>
			<g>
				<path class="st0" d="M151.9,12.9c1.7,5,0.6,9.4-2.8,9.4H85.2c-3.4,0-4.7-4.4-3.2-9.4l1.6-5c1.3-4.1,4.5-7.2,7.2-7.2h51.9
					c2.7,0,6,3.1,7.5,7.2L151.9,12.9z"/>
				<g>
					<g>
						<path class="st1" d="M284.7,93.5l0.7-11.2c-1.4-10.8-12.7-21.8-20.2-24.4c-5.4-1.9-52.6-13-58.2-13.2
							c-3.1-0.9-39.9-22.1-53.1-27.2c-3.7-1.4-71.6-2.1-73.5-1C74.1,20,51,28.4,33.4,39.5c-3.9,2.5-19.5,4.4-21.7,7.3
							c-5.5,7.4-9,46.7-9,46.7c-0.6,5.2,2.5,9.5,6.9,9.5H257C261.4,103,286.6,98.7,284.7,93.5z"/>
						<path class="st2" d="M106.8,53c-42.3,0-78.7,13.8-95.6,33.6c-0.6,4.9-1,8.4-1,8.4c-0.6,4.3,2.3,7.9,6.5,7.9h32.1
							C68,88.5,99,79.1,133.9,79.1c29.3,0,55.7,6.6,74.8,17.2C196.8,71.4,155.7,53,106.8,53z"/>
						<path class="st3" d="M179.1,44.7c4.3,0.1,4.2-2-2.8-7.1c-6.5-4.6-14.8-10.6-20-13.6c-6.1-3.5-24.3-5.6-40.4-5.7
							C102,18.3,93.1,19.8,85.8,22c-5.1,1.6-27,9.6-36.5,17c-1.3,1-2.7,3.5,3.9,3.6C66.8,42.9,138.7,44,179.1,44.7z"/>
						<path class="st4" d="M288,95.8v-4.4c0-9.4-0.8-11.6-7.4-11.6h-43.4v6.1c0,4.1-3.3,7.4-7.4,7.4H62.2c-4.1,0-7.4-3.3-7.4-7.4
							v-6.1H7.4c-4.1,0-7.4,3.3-7.4,7.4v8.5c0,4.1-0.1,7.4,3.9,7.4h260.9C277.5,103.2,288,99.9,288,95.8z"/>
						<path class="st4" d="M73.4,92.1c0-14.7-12-26.7-26.7-26.7C32,65.4,20,77.4,20,92.1c0,3.8,0.8,7.3,2.2,10.6h49
							C72.6,99.5,73.4,95.9,73.4,92.1z"/>
						<path class="st4" d="M257,92.1c0-14.7-12-26.7-26.7-26.7c-14.7,0-26.7,12-26.7,26.7c0,3.8,0.8,7.3,2.2,10.6h49
							C256.2,99.5,257,95.9,257,92.1z"/>
						<path class="st5" d="M264.8,98.4H3.9C0.2,98.4,0,95.6,0,92v3.9c0,4.1-0.1,7.4,3.9,7.4h260.9c12.6,0,23.2-3.3,23.2-7.4v-4.4
							c0-0.2,0-0.3,0-0.4C288,95.1,277.5,98.4,264.8,98.4z"/>
						<g>
							<path class="st6" d="M70.7,91.5c0-13.2-10.8-24-24-24c-13.2,0-24,10.8-24,24c0,4.2,1.1,8.2,3.1,11.7h41.9
								C69.6,99.7,70.7,95.7,70.7,91.5z"/>
							<g>
								<g>
									<g>
										<g>
											<circle class="st3" cx="46.7" cy="91.5" r="21.5"/>
											<circle class="st7" cx="46.7" cy="91.5" r="18.4"/>
										</g>
									</g>
								</g>
							</g>
							<path class="st3" d="M46.7,75.3c-8.9,0-16.2,7.2-16.2,16.2c0,8.9,7.2,16.2,16.2,16.2c8.9,0,16.2-7.2,16.2-16.2
								C62.9,82.5,55.6,75.3,46.7,75.3z M57.9,80.4c1.9,1.9,1.7,4.3,0,5.1l-5.6,2.5c-0.2,0.1-0.8-0.2-1.3-0.8
								c-0.5-0.5-0.9-1.1-0.8-1.3l2.5-5.6C53.6,78.8,56,78.5,57.9,80.4z M46.9,75.8c2.7,0,4.2,1.9,3.6,3.6l-2.1,5.7
								c-0.1,0.2-0.7,0.4-1.5,0.4c-0.7,0-1.4-0.2-1.5-0.4l-2.1-5.7C42.6,77.7,44.1,75.8,46.9,75.8z M35.8,80.3
								c1.9-1.9,4.3-1.7,5.1,0l2.5,5.6c0.1,0.2-0.2,0.8-0.8,1.3c-0.5,0.5-1.1,0.9-1.3,0.8l-5.6-2.5C34.1,84.7,33.9,82.3,35.8,80.3z
								 M31.2,91.4c0-2.7,1.9-4.2,3.6-3.6l5.7,2.1c0.2,0.1,0.4,0.7,0.4,1.5c0,0.7-0.2,1.4-0.4,1.5L34.8,95
								C33.1,95.6,31.2,94.1,31.2,91.4z M35.7,102.4c-1.9-1.9-1.7-4.3,0-5.1l5.6-2.5c0.2-0.1,0.8,0.2,1.3,0.8
								c0.5,0.5,0.9,1.1,0.8,1.3l-2.5,5.6C40,104.1,37.6,104.4,35.7,102.4z M46.7,107.1c-2.7,0-4.2-1.9-3.6-3.6l2.1-5.7
								c0.1-0.2,0.7-0.4,1.5-0.4c0.7,0,1.4,0.2,1.5,0.4l2.1,5.7C51,105.2,49.4,107.1,46.7,107.1z M57.8,102.5
								c-1.9,1.9-4.3,1.7-5.1,0L50.1,97c-0.1-0.2,0.2-0.8,0.8-1.3c0.5-0.5,1.1-0.9,1.3-0.8l5.6,2.5C59.4,98.2,59.7,100.6,57.8,102.5
								z M58.8,95.1L53.1,93c-0.2-0.1-0.4-0.7-0.4-1.5c0-0.7,0.2-1.4,0.4-1.5l5.7-2.1c1.7-0.6,3.6,0.9,3.6,3.6
								C62.4,94.2,60.5,95.8,58.8,95.1z"/>
						</g>
						<g>
							<path class="st6" d="M254.3,91.5c0-13.2-10.8-24-24-24c-13.2,0-24,10.8-24,24c0,4.2,1.1,8.2,3.1,11.7h41.9
								C253.2,99.7,254.3,95.7,254.3,91.5z"/>
							<g>
								<g>
									<g>
										<g>
											<circle class="st3" cx="230.3" cy="91.5" r="21.5"/>
											<circle class="st7" cx="230.3" cy="91.5" r="18.4"/>
										</g>
									</g>
								</g>
							</g>
							<path class="st3" d="M230.3,75.3c-8.9,0-16.2,7.2-16.2,16.2c0,8.9,7.2,16.2,16.2,16.2c8.9,0,16.2-7.2,16.2-16.2
								C246.5,82.5,239.3,75.3,230.3,75.3z M241.5,80.4c1.9,1.9,1.7,4.3,0,5.1l-5.6,2.5c-0.2,0.1-0.8-0.2-1.3-0.8
								c-0.5-0.5-0.9-1.1-0.8-1.3l2.5-5.6C237.2,78.8,239.6,78.5,241.5,80.4z M230.5,75.8c2.7,0,4.2,1.9,3.6,3.6l-2.1,5.7
								c-0.1,0.2-0.7,0.4-1.5,0.4c-0.7,0-1.4-0.2-1.5-0.4l-2.1-5.7C226.2,77.7,227.8,75.8,230.5,75.8z M219.4,80.3
								c1.9-1.9,4.3-1.7,5.1,0l2.5,5.6c0.1,0.2-0.2,0.8-0.8,1.3c-0.5,0.5-1.1,0.9-1.3,0.8l-5.6-2.5
								C217.8,84.7,217.5,82.3,219.4,80.3z M214.8,91.4c0-2.7,1.9-4.2,3.6-3.6l5.7,2.1c0.2,0.1,0.4,0.7,0.4,1.5
								c0,0.7-0.2,1.4-0.4,1.5l-5.7,2.1C216.7,95.6,214.8,94.1,214.8,91.4z M219.3,102.4c-1.9-1.9-1.7-4.3,0-5.1l5.6-2.5
								c0.2-0.1,0.8,0.2,1.3,0.8c0.5,0.5,0.9,1.1,0.8,1.3l-2.5,5.6C223.7,104.1,221.2,104.4,219.3,102.4z M230.3,107.1
								c-2.7,0-4.2-1.9-3.6-3.6l2.1-5.7c0.1-0.2,0.7-0.4,1.5-0.4c0.7,0,1.4,0.2,1.5,0.4l2.1,5.7
								C234.6,105.2,233.1,107.1,230.3,107.1z M241.4,102.5c-1.9,1.9-4.3,1.7-5.1,0l-2.5-5.6c-0.1-0.2,0.2-0.8,0.8-1.3
								c0.5-0.5,1.1-0.9,1.3-0.8l5.6,2.5C243.1,98.2,243.3,100.6,241.4,102.5z M242.4,95.1l-5.7-2.1c-0.2-0.1-0.4-0.7-0.4-1.5
								c0-0.7,0.2-1.4,0.4-1.5l5.7-2.1c1.7-0.6,3.6,0.9,3.6,3.6C246,94.2,244.1,95.8,242.4,95.1z"/>
						</g>
						<path class="st8" d="M275.1,64.6l-20.6,0.2c-0.8,0-0.9,0.9-0.2,1.9l4.4,7c0.5,0.7,1.4,1.4,2.1,1.6l23.6,3.9
							C283.9,75,282.1,69.4,275.1,64.6z"/>
						<path class="st9" d="M284.5,78.6c-0.4-2.1-1.3-7.8-8-13h-20.2c-0.8,0-1,0.7-0.4,1.6l3.5,5.7c0.4,0.7,1.3,1.3,2.1,1.5
							L284.5,78.6z"/>
						<path class="st10" d="M260.3,65.7l-4-0.1c-0.8,0-1,0.7-0.4,1.6l3.5,5.7c0.4,0.7,1.3,1.3,2.1,1.5l5.8,1.1L260.3,65.7z"/>
						<path class="st5" d="M285.6,87.4c0,1.6-1.3,2.9-2.9,2.9h-8.5c-1.6,0-2.9-1.3-2.9-2.9l0,0c0-1.6,1.3-2.9,2.9-2.9h8.5
							C284.2,84.5,285.6,85.8,285.6,87.4L285.6,87.4z"/>
						<path class="st9" d="M279.7,87.3c0,1.3-1,2.3-2.3,2.3h-2.2c-1.3,0-2.3-1-2.3-2.3l0,0c0-1.3,1-2.3,2.3-2.3h2.2
							C278.7,85,279.7,86.1,279.7,87.3L279.7,87.3z"/>
						<path class="st8" d="M6.7,62.6H11c2.7,0,5.4-2.2,6-4.9l0.9-4.3c0.6-2.7-1.1-4.9-3.9-4.9h-3.6C9,51.7,7.7,56.9,6.7,62.6z"/>
						<path class="st0" d="M6.9,61.3c1-5.1,2-9.1,3.1-11.7h4.1c0.9,0,1.7,0.3,2.2,0.9c0.5,0.6,0.7,1.5,0.5,2.5l-0.9,4.3
							c-0.5,2.2-2.7,4-4.8,4H6.9z"/>
						<path class="st10" d="M7.7,57.5c-0.3,1.2-0.5,2.5-0.8,3.8H11c2.1,0,4.2-1.8,4.8-3.8H7.7z"/>
					</g>
					<path class="st3" d="M206.9,44.7c-3.1-0.9-33.8-18.6-46.8-24.2c-0.4-0.2-0.9-0.4-1.4-0.6l24.3,17.1c4.4,3.1,9.2,5.8,10.6,5.9
						C193.7,43,207.5,44.7,206.9,44.7z"/>
					<rect x="114.1" y="43.4" class="st11" width="0.6" height="49.9"/>
					<polygon class="st11" points="179.3,93.4 178.6,93.4 181.2,43.4 181.8,43.4 					"/>
					<path class="st11" d="M52.4,65.4c0.2,0,0.3,0.1,0.5,0.1l-4.1-24.9h-0.6l4.1,24.7C52.3,65.4,52.3,65.4,52.4,65.4z"/>
					<path class="st3" d="M66.4,47.1c0,0.8-0.6,1.4-1.4,1.4H54c-0.8,0-1.4-0.6-1.4-1.4l0,0c0-0.7,0.6-1.4,1.4-1.4h11.1
						C65.8,45.7,66.4,46.3,66.4,47.1L66.4,47.1z"/>
					<path class="st3" d="M130.1,47.3c0,0.8-0.6,1.4-1.4,1.4h-11.1c-0.7,0-1.4-0.6-1.4-1.4l0,0c0-0.7,0.6-1.4,1.4-1.4h11.1
						C129.5,46,130.1,46.6,130.1,47.3L130.1,47.3z"/>
					<g>
						<path class="st12" d="M46.7,67.3c7.3,0,13.9,3.4,18.5,8.8c-3.7-6.9-10.6-11.5-18.5-11.5c-7.9,0-14.7,4.6-18.5,11.5
							C32.8,70.7,39.4,67.3,46.7,67.3z"/>
					</g>
					<g>
						<path class="st12" d="M230.3,65.4c7.3,0,13.9,3.4,18.5,8.8c-3.7-6.9-10.6-11.5-18.5-11.5c-7.9,0-14.7,4.6-18.5,11.5
							C216.5,68.8,223,65.4,230.3,65.4z"/>
					</g>
					<path class="st13" d="M110.4,43.2l-51.3-1c-3.8-0.1-5.6-4.6-5-5c9.2-6.7,26.7-13.1,31.8-14.7c6.6-2.1,13.9-3.5,26.5-3.6
						L110.4,43.2z M173.1,36c-5.9-4.2-12.6-8.9-17-11.5c-5.8-3.3-23-5.3-38.1-5.6l1.3,24.4l51.7,0.8C172.3,44.1,174,36.7,173.1,36z
						 M193.8,42.6c0,0,8.3,1,11.7,1.5c-6.8-3.2-33.4-18.4-45.3-23.6l22.9,16.2C187.6,39.8,192.3,42.4,193.8,42.6z"/>
				</g>
				<g>
					<rect x="132.9" y="58.1" class="st7" width="6.4" height="6.4"/>
					<polygon class="st7" points="126.8,64.5 126.8,58.1 120.4,58.1 120.4,64.5 126.5,64.5 126.5,70.5 120.4,70.5 120.4,64.5 
						114.3,64.5 114.3,58.1 108,58.1 108,64.5 114,64.5 114,70.5 108,70.5 108,64.5 101.9,64.5 101.9,58.1 95.5,58.1 95.5,64.5 
						101.6,64.5 101.6,70.5 95.5,70.5 95.5,76.9 101.9,76.9 101.9,70.9 108,70.9 108,76.9 114.3,76.9 114.3,70.9 120.4,70.9 
						120.4,76.9 126.8,76.9 126.8,70.9 132.9,70.9 132.9,76.9 139.3,76.9 139.3,70.5 132.9,70.5 132.9,64.5 					"/>
				</g>
				<path class="st14" d="M148.9,5.2c-1.7-2.7-4.1-4.6-6.2-4.6H90.8c-2.1,0-4.4,1.8-6,4.6H148.9z"/>
				<g>
					<rect x="125.3" y="2.7" class="st7" width="3.7" height="3.7"/>
					<polygon class="st7" points="121.7,6.4 121.7,2.7 118.1,2.7 118.1,6.4 121.6,6.4 121.6,9.9 118.1,9.9 118.1,6.4 114.5,6.4 
						114.5,2.7 110.8,2.7 110.8,6.4 114.4,6.4 114.4,9.9 110.8,9.9 110.8,6.4 107.3,6.4 107.3,2.7 103.6,2.7 103.6,6.4 107.1,6.4 
						107.1,9.9 103.6,9.9 103.6,13.6 107.3,13.6 107.3,10.1 110.8,10.1 110.8,13.6 114.5,13.6 114.5,10.1 118.1,10.1 118.1,13.6 
						121.7,13.6 121.7,10.1 125.3,10.1 125.3,13.6 129,13.6 129,9.9 125.3,9.9 125.3,6.4 					"/>
				</g>
			</g>
			<path class="st15" d="M111.6,28.7l-1.2,14.5l-13-0.3L111.6,28.7z M56.1,41l11.2-11.2c-4.9,2.2-9.7,4.8-13.3,7.4
				C53.7,37.5,54.5,39.6,56.1,41z M70.1,42.4l9.8,0.2l23.3-23.3c-4.6,0.4-8.3,0.9-11.7,1.7L70.1,42.4z M135.9,20
				c-4.7-0.5-9.7-0.8-14.6-1l-3.2,3.2l0.8,14.8C124.6,31.3,130.2,25.7,135.9,20z M162.9,28.9c-2.5-1.7-4.9-3.2-6.8-4.4
				c-1-0.5-2.2-1.1-3.7-1.5l-20.5,20.5l16.2,0.3L162.9,28.9z M160.1,44l1.9,0l9.3-9.3c-0.4-0.3-0.7-0.5-1.1-0.8
				C166.8,37.2,163.4,40.6,160.1,44z M146.1,21.5c-1.1-0.2-2.2-0.4-3.3-0.6l-22.4,22.4l3.8,0.1L146.1,21.5z M185,38l3.1-3.1
				c-2-1.1-4-2.2-6-3.3c-0.8,0.8-1.7,1.7-2.5,2.5l3.6,2.6C183.8,37.1,184.4,37.5,185,38z M193.2,37.6c-1.1,1.1-2.2,2.2-3.3,3.3
				c1.8,1,3.3,1.7,4,1.7c0,0,8.3,1,11.7,1.5C203.2,43,198.7,40.6,193.2,37.6z"/>
		</g>
		<g class="st16">
			<path class="st17" d="M25.7,79.9H7.4c-4.1,0-7.4,3.3-7.4,7.4v8.5c0,2.6-0.1,4.8,0.9,6.1c0-0.4,0-0.7,0-1.1v-8.5
				c0-4.1,3.3-7.4,7.4-7.4h15.4C24.1,83.2,24.8,81.5,25.7,79.9z"/>
		</g>
		<g>
			<path class="st14" d="M73,87.5c-0.1,1.7-0.6,7.1-0.6,7.1l131.2-1.3C201.3,91.8,73,87.5,73,87.5z"/>
			<path class="st14" d="M280.6,79.9h-29.3c0.9,1.6,31.3,2.8,31.3,2.8c3.6,0,4.4,2.9,5.3,5.1C287.6,81.4,286.2,79.9,280.6,79.9z"/>
		</g>
		<g class="st16">
			<path class="st9" d="M265.1,57.9c-5.4-1.9-52.6-13-58.2-13.2c-3.1-0.9-39.9-22.1-53.1-27.2c-3.7-1.4-71.6-2.1-73.5-1
				C74.1,20,51,28.4,33.4,39.5c-3.9,2.5-19.5,4.4-21.7,7.3c-3.4,4.5-6,21-7.5,33.1h0.4c1.5-10.3,4-22.9,7.1-26.5
				c2.2-2.6,31.8-8.4,34.8-11.7c7.8-8.7,35.4-18.7,42.2-20.4c15.2-3.9,38-3.9,62.3,0.9c9.2,1.4,32.4,22.4,40.4,25
				c14.4,3.4,58.1,12,63.5,13.7c6.3,1.9,25.4,11.4,29,19.2h1.1C282.3,69.9,272.1,60.3,265.1,57.9z"/>
		</g>
	</g>
	<g>
		<path class="st18" d="M46.7,72.4c11.5,0,20.8,9,21.5,20.3c0-0.4,0.1-0.8,0.1-1.3c0-11.9-9.6-21.5-21.5-21.5
			c-11.9,0-21.5,9.6-21.5,21.5c0,0.4,0,0.8,0.1,1.3C25.9,81.4,35.2,72.4,46.7,72.4z"/>
		<path class="st18" d="M46.7,110.1c-9.9,0.2-18-7.3-18.5-17c0,0.2,0,0.4,0,0.6c0.3,10,8.5,17.9,18.6,17.6
			c10.1-0.3,18.3-8.5,18.6-18.6c0-0.2,0-0.4,0-0.6C64.7,101.9,56.6,109.8,46.7,110.1z"/>
	</g>
	<g>
		<path class="st18" d="M230.2,72.4c11.5,0,20.8,9,21.5,20.3c0-0.4,0.1-0.8,0.1-1.3c0-11.9-9.6-21.5-21.5-21.5
			c-11.9,0-21.5,9.6-21.5,21.5c0,0.4,0,0.8,0.1,1.3C209.4,81.4,218.7,72.4,230.2,72.4z"/>
		<path class="st18" d="M230.2,110.1c-9.9,0.2-18-7.3-18.5-17c0,0.2,0,0.4,0,0.6c0.3,10,8.5,17.9,18.6,17.6
			c10.1-0.3,18.3-8.5,18.6-18.6c0-0.2,0-0.4,0-0.6C248.2,101.9,240.1,109.8,230.2,110.1z"/>
	</g>
</g>
</svg>
