<?xml version="1.0" encoding="utf-8"?>
<!-- Generator: Adobe Illustrator 21.1.0, SVG Export Plug-In . SVG Version: 6.00 Build 0)  -->
<svg version="1.1" id="圖層_1" xmlns="http://www.w3.org/2000/svg" xmlns:xlink="http://www.w3.org/1999/xlink" x="0px" y="0px"
	 viewBox="0 0 288 113" style="enable-background:new 0 0 288 113;" xml:space="preserve">
<style type="text/css">
	.st0{fill:#DB3535;}
	.st1{fill:#F4CC25;}
	.st2{fill:#F2A927;}
	.st3{fill:#2A2A2B;}
	.st4{fill:#F29B27;}
	.st5{fill:#CE7305;}
	.st6{fill:#070707;}
	.st7{fill:#091119;}
	.st8{opacity:0.3;fill:#091119;}
	.st9{fill:#FFFFFF;}
	.st10{fill:#F49625;}
	.st11{opacity:0.3;fill:#2A2A2B;}
	.st12{opacity:0.2;fill:#F9F9F9;}
	.st13{fill:#80C2DC;}
	.st14{opacity:0.6;fill:#FFFFFF;}
	.st15{opacity:0.7;fill:#FFFFFF;}
	.st16{opacity:0.6;}
	.st17{fill:#EDEDED;}
	.st18{opacity:0.2;fill:#EDEDED;}
	.st19{fill:#FFA022;}
	.st20{fill:#E3E5E5;}
	.st21{fill:#232122;}
	.st22{fill:#191919;}
	.st23{fill:#070000;}
	.st24{fill:#383838;}
	.st25{fill:#262626;}
	.st26{fill:#5C1F24;}
	.st27{opacity:0.5;fill:#FFFFFF;}
	.st28{opacity:0.2;fill:#FFFFFF;}
	.st29{fill:#C7212B;}
	.st30{fill:#F9751C;}
	.st31{fill:#C7DEF9;}
	.st32{opacity:0.7;}
	.st33{fill:#E3E3E3;}
	.st34{fill:#757575;}
	.st35{fill:#1992FD;}
	.st36{fill:#5E921B;}
	.st37{fill:#EBEDF0;}
	.st38{fill:#90C642;}
	.st39{fill:#73AD29;}
	.st40{fill:#2B2B2B;}
	.st41{fill:#231F20;}
	.st42{fill:#242424;}
	.st43{fill:#E5E3E8;}
	.st44{fill:#C6C5C3;}
	.st45{fill:#424241;}
	.st46{fill:#999999;}
	.st47{fill:#59B9FF;}
	.st48{fill:#9E9384;}
</style>
<g>
	<g>
		<g>
			<g>
				<path class="st0" d="M136.1,12.9c-1.7,5-0.6,9.4,2.8,9.4h63.9c3.4,0,4.7-4.4,3.2-9.4l-1.6-5c-1.3-4.1-4.5-7.2-7.2-7.2h-51.9
					c-2.7,0-6,3.1-7.5,7.2L136.1,12.9z"/>
				<g>
					<g>
						<path class="st1" d="M3.3,93.5L2.6,82.3C4,71.4,15.3,60.5,22.9,57.9c5.4-1.9,52.6-13,58.2-13.2c3.1-0.9,39.9-22.1,53.1-27.2
							c3.7-1.4,71.6-2.1,73.5-1c6.2,3.5,29.4,11.9,46.9,23c3.9,2.5,19.5,4.4,21.7,7.3c5.5,7.4,9,46.7,9,46.7
							c0.6,5.2-2.5,9.5-6.9,9.5H31C26.6,103,1.4,98.7,3.3,93.5z"/>
						<path class="st2" d="M181.2,53c42.3,0,78.7,13.8,95.6,33.6c0.6,4.9,1,8.4,1,8.4c0.6,4.3-2.3,7.9-6.5,7.9h-32.1
							C220,88.5,189,79.1,154.1,79.1c-29.3,0-55.7,6.6-74.8,17.2C91.2,71.4,132.3,53,181.2,53z"/>
						<path class="st3" d="M108.9,44.7c-4.3,0.1-4.2-2,2.8-7.1c6.5-4.6,14.8-10.6,20-13.6c6.1-3.5,24.3-5.6,40.4-5.7
							c13.9-0.1,22.8,1.4,30.1,3.6c5.1,1.6,27,9.6,36.5,17c1.3,1,2.7,3.5-3.9,3.6C221.2,42.9,149.3,44,108.9,44.7z"/>
						<path class="st4" d="M0,95.8l0-4.4C0,82,0.8,79.9,7.4,79.9h43.4v6.1c0,4.1,3.3,7.4,7.4,7.4h167.6c4.1,0,7.4-3.3,7.4-7.4v-6.1
							h47.5c4.1,0,7.4,3.3,7.4,7.4v8.5c0,4.1,0.1,7.4-3.9,7.4H23.2C10.5,103.2,0,99.9,0,95.8z"/>
						<path class="st4" d="M214.6,92.1c0-14.7,12-26.7,26.7-26.7c14.7,0,26.7,12,26.7,26.7c0,3.8-0.8,7.3-2.2,10.6h-49
							C215.4,99.5,214.6,95.9,214.6,92.1z"/>
						<path class="st4" d="M31,92.1c0-14.7,12-26.7,26.7-26.7c14.7,0,26.7,12,26.7,26.7c0,3.8-0.8,7.3-2.2,10.6h-49
							C31.8,99.5,31,95.9,31,92.1z"/>
						<path class="st5" d="M23.2,98.4h260.9c3.7,0,3.9-2.8,3.9-6.4v3.9c0,4.1,0.1,7.4-3.9,7.4H23.2C10.5,103.2,0,99.9,0,95.8l0-4.4
							c0-0.2,0-0.3,0-0.4C0,95.1,10.5,98.4,23.2,98.4z"/>
						<g>
							<path class="st6" d="M217.3,91.5c0-13.2,10.8-24,24-24c13.2,0,24,10.8,24,24c0,4.2-1.1,8.2-3.1,11.7h-41.9
								C218.4,99.7,217.3,95.7,217.3,91.5z"/>
							<g>
								<g>
									<g>
										<g>
											<circle class="st3" cx="241.3" cy="91.5" r="21.5"/>
											<circle class="st7" cx="241.3" cy="91.5" r="18.4"/>
										</g>
									</g>
								</g>
							</g>
							<path class="st3" d="M225.1,91.5c0,8.9,7.2,16.2,16.2,16.2c8.9,0,16.2-7.2,16.2-16.2c0-8.9-7.2-16.2-16.2-16.2
								C232.4,75.3,225.1,82.5,225.1,91.5z M235.2,80.4l2.5,5.6c0.1,0.2-0.2,0.8-0.8,1.3c-0.5,0.5-1.1,0.9-1.3,0.8l-5.6-2.5
								c-1.7-0.8-1.9-3.2,0-5.1C232,78.5,234.4,78.8,235.2,80.4z M244.7,79.4l-2.1,5.7c-0.1,0.2-0.7,0.4-1.5,0.4
								c-0.7,0-1.4-0.2-1.5-0.4l-2.1-5.7c-0.6-1.7,0.9-3.6,3.6-3.6C243.9,75.8,245.4,77.7,244.7,79.4z M252.2,85.4l-5.6,2.5
								c-0.2,0.1-0.8-0.2-1.3-0.8c-0.5-0.5-0.9-1.1-0.8-1.3l2.5-5.6c0.8-1.7,3.2-1.9,5.1,0C254.1,82.3,253.9,84.7,252.2,85.4z
								 M253.2,95l-5.7-2.1c-0.2-0.1-0.4-0.7-0.4-1.5c0-0.7,0.2-1.4,0.4-1.5l5.7-2.1c1.7-0.6,3.6,0.9,3.6,3.6S254.9,95.6,253.2,95z
								 M247.2,102.4l-2.5-5.6c-0.1-0.2,0.2-0.8,0.8-1.3c0.5-0.5,1.1-0.9,1.3-0.8l5.6,2.5c1.7,0.8,1.9,3.2,0,5.1
								C250.4,104.4,248,104.1,247.2,102.4z M237.7,103.4l2.1-5.7c0.1-0.2,0.7-0.4,1.5-0.4c0.7,0,1.4,0.2,1.5,0.4l2.1,5.7
								c0.6,1.7-0.9,3.6-3.6,3.6C238.6,107.1,237,105.2,237.7,103.4z M230.2,97.4l5.6-2.5c0.2-0.1,0.8,0.2,1.3,0.8
								c0.5,0.5,0.9,1.1,0.8,1.3l-2.5,5.6c-0.8,1.7-3.2,1.9-5.1,0C228.3,100.6,228.6,98.2,230.2,97.4z M225.6,91.5
								c0-2.7,1.9-4.2,3.6-3.6l5.7,2.1c0.2,0.1,0.4,0.7,0.4,1.5c0,0.7-0.2,1.4-0.4,1.5l-5.7,2.1C227.5,95.8,225.6,94.2,225.6,91.5z"
								/>
						</g>
						<g>
							<path class="st6" d="M33.7,91.5c0-13.2,10.8-24,24-24c13.2,0,24,10.8,24,24c0,4.2-1.1,8.2-3.1,11.7H36.7
								C34.8,99.7,33.7,95.7,33.7,91.5z"/>
							<g>
								<g>
									<g>
										<g>
											<circle class="st3" cx="57.7" cy="91.5" r="21.5"/>
											<circle class="st7" cx="57.7" cy="91.5" r="18.4"/>
										</g>
									</g>
								</g>
							</g>
							<path class="st3" d="M41.5,91.5c0,8.9,7.2,16.2,16.2,16.2c8.9,0,16.2-7.2,16.2-16.2c0-8.9-7.2-16.2-16.2-16.2
								C48.7,75.3,41.5,82.5,41.5,91.5z M51.6,80.4l2.5,5.6c0.1,0.2-0.2,0.8-0.8,1.3c-0.5,0.5-1.1,0.9-1.3,0.8l-5.6-2.5
								c-1.7-0.8-1.9-3.2,0-5.1C48.4,78.5,50.8,78.8,51.6,80.4z M61.1,79.4L59,85.1c-0.1,0.2-0.7,0.4-1.5,0.4
								c-0.7,0-1.4-0.2-1.5-0.4l-2.1-5.7c-0.6-1.7,0.9-3.6,3.6-3.6C60.2,75.8,61.8,77.7,61.1,79.4z M68.6,85.4L63,88
								c-0.2,0.1-0.8-0.2-1.3-0.8c-0.5-0.5-0.9-1.1-0.8-1.3l2.5-5.6c0.8-1.7,3.2-1.9,5.1,0C70.5,82.3,70.2,84.7,68.6,85.4z M69.6,95
								l-5.7-2.1c-0.2-0.1-0.4-0.7-0.4-1.5c0-0.7,0.2-1.4,0.4-1.5l5.7-2.1c1.7-0.6,3.6,0.9,3.6,3.6S71.3,95.6,69.6,95z M63.6,102.4
								L61,96.9c-0.1-0.2,0.2-0.8,0.8-1.3c0.5-0.5,1.1-0.9,1.3-0.8l5.6,2.5c1.7,0.8,1.9,3.2,0,5.1C66.8,104.4,64.3,104.1,63.6,102.4
								z M54.1,103.4l2.1-5.7c0.1-0.2,0.7-0.4,1.5-0.4c0.7,0,1.4,0.2,1.5,0.4l2.1,5.7c0.6,1.7-0.9,3.6-3.6,3.6
								C54.9,107.1,53.4,105.2,54.1,103.4z M46.6,97.4l5.6-2.5c0.2-0.1,0.8,0.2,1.3,0.8c0.5,0.5,0.9,1.1,0.8,1.3l-2.5,5.6
								c-0.8,1.7-3.2,1.9-5.1,0C44.7,100.6,44.9,98.2,46.6,97.4z M42,91.5c0-2.7,1.9-4.2,3.6-3.6l5.7,2.1c0.2,0.1,0.4,0.7,0.4,1.5
								c0,0.7-0.2,1.4-0.4,1.5l-5.7,2.1C43.9,95.8,42,94.2,42,91.5z"/>
						</g>
						<path class="st8" d="M12.9,64.6l20.6,0.2c0.8,0,0.9,0.9,0.2,1.9l-4.4,7c-0.5,0.7-1.4,1.4-2.1,1.6L3.5,79.2
							C4.1,75,5.9,69.4,12.9,64.6z"/>
						<path class="st9" d="M3.5,78.6c0.4-2.1,1.3-7.8,8-13h20.2c0.8,0,1,0.7,0.4,1.6l-3.5,5.7c-0.4,0.7-1.3,1.3-2.1,1.5L3.5,78.6z"
							/>
						<path class="st10" d="M27.7,65.7l4-0.1c0.8,0,1,0.7,0.4,1.6l-3.5,5.7c-0.4,0.7-1.3,1.3-2.1,1.5l-5.8,1.1L27.7,65.7z"/>
						<path class="st5" d="M2.4,87.4c0,1.6,1.3,2.9,2.9,2.9h8.5c1.6,0,2.9-1.3,2.9-2.9l0,0c0-1.6-1.3-2.9-2.9-2.9H5.4
							C3.8,84.5,2.4,85.8,2.4,87.4L2.4,87.4z"/>
						<path class="st9" d="M8.3,87.3c0,1.3,1,2.3,2.3,2.3h2.2c1.3,0,2.3-1,2.3-2.3l0,0c0-1.3-1-2.3-2.3-2.3h-2.2
							C9.3,85,8.3,86.1,8.3,87.3L8.3,87.3z"/>
						<path class="st8" d="M281.3,62.6H277c-2.7,0-5.4-2.2-6-4.9l-0.9-4.3c-0.6-2.7,1.1-4.9,3.9-4.9h3.6
							C279,51.7,280.3,56.9,281.3,62.6z"/>
						<path class="st0" d="M281.1,61.3c-1-5.1-2-9.1-3.1-11.7h-4.1c-0.9,0-1.7,0.3-2.2,0.9c-0.5,0.6-0.7,1.5-0.5,2.5l0.9,4.3
							c0.5,2.2,2.7,4,4.8,4H281.1z"/>
						<path class="st10" d="M280.3,57.5c0.3,1.2,0.5,2.5,0.8,3.8H277c-2.1,0-4.2-1.8-4.8-3.8H280.3z"/>
					</g>
					<path class="st3" d="M81.1,44.7c3.1-0.9,33.8-18.6,46.8-24.2c0.4-0.2,0.9-0.4,1.4-0.6l-24.3,17.1c-4.4,3.1-9.2,5.8-10.6,5.9
						C94.3,43,80.5,44.7,81.1,44.7z"/>
					<rect x="173.3" y="43.4" class="st11" width="0.6" height="49.9"/>
					<polygon class="st11" points="108.7,93.4 109.4,93.4 106.8,43.4 106.2,43.4 					"/>
					<path class="st11" d="M235.6,65.4c-0.2,0-0.3,0.1-0.5,0.1l4.1-24.9h0.6l-4.1,24.7C235.7,65.4,235.7,65.4,235.6,65.4z"/>
					<path class="st3" d="M221.6,47.1c0,0.8,0.6,1.4,1.4,1.4H234c0.8,0,1.4-0.6,1.4-1.4l0,0c0-0.7-0.6-1.4-1.4-1.4h-11.1
						C222.2,45.7,221.6,46.3,221.6,47.1L221.6,47.1z"/>
					<path class="st3" d="M157.9,47.3c0,0.8,0.6,1.4,1.4,1.4h11.1c0.7,0,1.4-0.6,1.4-1.4l0,0c0-0.7-0.6-1.4-1.4-1.4h-11.1
						C158.5,46,157.9,46.6,157.9,47.3L157.9,47.3z"/>
					<g>
						<path class="st12" d="M241.3,67.3c-7.3,0-13.9,3.4-18.5,8.8c3.7-6.9,10.6-11.5,18.5-11.5c7.9,0,14.7,4.6,18.5,11.5
							C255.2,70.7,248.6,67.3,241.3,67.3z"/>
					</g>
					<g>
						<path class="st12" d="M57.7,65.4c-7.3,0-13.9,3.4-18.5,8.8c3.7-6.9,10.6-11.5,18.5-11.5c7.9,0,14.7,4.6,18.5,11.5
							C71.5,68.8,65,65.4,57.7,65.4z"/>
					</g>
					<path class="st13" d="M175.6,18.9c12.6,0.2,19.9,1.5,26.5,3.6c5.1,1.6,22.6,7.9,31.8,14.7c0.5,0.4-1.2,4.9-5,5l-51.3,1
						L175.6,18.9z M117.1,44.1l51.7-0.8l1.3-24.4c-15.1,0.3-32.3,2.3-38.1,5.6c-4.4,2.5-11.1,7.2-17,11.5
						C114,36.7,115.7,44.1,117.1,44.1z M104.8,36.7l22.9-16.2c-11.9,5.2-38.5,20.4-45.3,23.6c3.4-0.5,11.7-1.5,11.7-1.5
						C95.7,42.4,100.4,39.8,104.8,36.7z"/>
				</g>
				<g>
					<rect x="148.7" y="58.1" class="st7" width="6.4" height="6.4"/>
					<polygon class="st7" points="161.2,64.5 161.2,58.1 167.6,58.1 167.6,64.5 161.5,64.5 161.5,70.5 167.6,70.5 167.6,64.5 
						173.7,64.5 173.7,58.1 180,58.1 180,64.5 174,64.5 174,70.5 180,70.5 180,64.5 186.1,64.5 186.1,58.1 192.5,58.1 192.5,64.5 
						186.4,64.5 186.4,70.5 192.5,70.5 192.5,76.9 186.1,76.9 186.1,70.9 180,70.9 180,76.9 173.7,76.9 173.7,70.9 167.6,70.9 
						167.6,76.9 161.2,76.9 161.2,70.9 155.1,70.9 155.1,76.9 148.7,76.9 148.7,70.5 155.1,70.5 155.1,64.5 					"/>
				</g>
				<path class="st14" d="M139.1,5.2c1.7-2.7,4.1-4.6,6.2-4.6h51.9c2.1,0,4.4,1.8,6,4.6H139.1z"/>
				<g>
					<rect x="159" y="2.7" class="st7" width="3.7" height="3.7"/>
					<polygon class="st7" points="166.3,6.4 166.3,2.7 169.9,2.7 169.9,6.4 166.4,6.4 166.4,9.9 169.9,9.9 169.9,6.4 173.5,6.4 
						173.5,2.7 177.2,2.7 177.2,6.4 173.6,6.4 173.6,9.9 177.2,9.9 177.2,6.4 180.7,6.4 180.7,2.7 184.4,2.7 184.4,6.4 180.9,6.4 
						180.9,9.9 184.4,9.9 184.4,13.6 180.7,13.6 180.7,10.1 177.2,10.1 177.2,13.6 173.5,13.6 173.5,10.1 169.9,10.1 169.9,13.6 
						166.3,13.6 166.3,10.1 162.7,10.1 162.7,13.6 159,13.6 159,9.9 162.7,9.9 162.7,6.4 					"/>
				</g>
			</g>
			<path class="st15" d="M190.7,42.9l-13,0.3l-1.2-14.5L190.7,42.9z M233.9,37.2c-3.6-2.6-8.4-5.2-13.3-7.4L231.9,41
				C233.5,39.6,234.3,37.5,233.9,37.2z M196.5,21c-3.3-0.8-7.1-1.3-11.7-1.7l23.3,23.3l9.8-0.2L196.5,21z M169.1,37l0.8-14.8
				l-3.2-3.2c-4.9,0.2-9.9,0.5-14.6,1C157.8,25.7,163.4,31.3,169.1,37z M140,43.8l16.2-0.3L135.7,23c-1.5,0.5-2.8,1-3.7,1.5
				c-1.9,1.1-4.3,2.6-6.8,4.4L140,43.8z M117.9,33.9c-0.4,0.3-0.7,0.5-1.1,0.8l9.3,9.3l1.9,0C124.6,40.6,121.2,37.2,117.9,33.9z
				 M163.8,43.4l3.8-0.1l-22.4-22.4c-1.2,0.2-2.3,0.4-3.3,0.6L163.8,43.4z M104.8,36.7l3.6-2.6c-0.8-0.8-1.7-1.7-2.5-2.5
				c-2,1.1-4.1,2.2-6,3.3L103,38C103.6,37.5,104.2,37.1,104.8,36.7z M82.5,44.1c3.4-0.5,11.7-1.5,11.7-1.5c0.7-0.1,2.2-0.8,4-1.7
				c-1.1-1.1-2.2-2.2-3.3-3.3C89.3,40.6,84.8,43,82.5,44.1z"/>
		</g>
		<g class="st16">
			<path class="st17" d="M262.3,79.9h18.3c4.1,0,7.4,3.3,7.4,7.4v8.5c0,2.6,0.1,4.8-0.9,6.1c0-0.4,0-0.7,0-1.1v-8.5
				c0-4.1-3.3-7.4-7.4-7.4h-15.4C263.9,83.2,263.2,81.5,262.3,79.9z"/>
		</g>
		<g>
			<path class="st14" d="M215,87.5c0.1,1.7,0.6,7.1,0.6,7.1L84.4,93.4C86.7,91.8,215,87.5,215,87.5z"/>
			<path class="st14" d="M7.4,79.9h29.3c-0.9,1.6-31.3,2.8-31.3,2.8c-3.6,0-4.4,2.9-5.3,5.1C0.4,81.4,1.8,79.9,7.4,79.9z"/>
		</g>
		<g class="st16">
			<path class="st9" d="M22.9,57.9c5.4-1.9,52.6-13,58.2-13.2c3.1-0.9,39.9-22.1,53.1-27.2c3.7-1.4,71.6-2.1,73.5-1
				c6.2,3.5,29.4,11.9,46.9,23c3.9,2.5,19.5,4.4,21.7,7.3c3.4,4.5,6,21,7.5,33.1h-0.4c-1.5-10.3-4-22.9-7.1-26.5
				c-2.2-2.6-31.8-8.4-34.8-11.7c-7.8-8.7-35.4-18.7-42.2-20.4c-15.2-3.9-38-3.9-62.3,0.9c-9.2,1.4-32.4,22.4-40.4,25
				c-14.4,3.4-58.1,12-63.5,13.7c-6.3,1.9-25.4,11.4-29,19.2H3.1C5.7,69.9,15.9,60.3,22.9,57.9z"/>
		</g>
	</g>
	<g>
		<path class="st18" d="M241.3,72.4c-11.5,0-20.8,9-21.5,20.3c0-0.4-0.1-0.8-0.1-1.3c0-11.9,9.6-21.5,21.5-21.5
			c11.9,0,21.5,9.6,21.5,21.5c0,0.4,0,0.8-0.1,1.3C262.1,81.4,252.8,72.4,241.3,72.4z"/>
		<path class="st18" d="M241.3,110.1c9.9,0.2,18-7.3,18.5-17c0,0.2,0,0.4,0,0.6c-0.3,10-8.5,17.9-18.6,17.6
			c-10.1-0.3-18.3-8.5-18.6-18.6c0-0.2,0-0.4,0-0.6C223.3,101.9,231.4,109.8,241.3,110.1z"/>
	</g>
	<g>
		<path class="st18" d="M57.8,72.4c-11.5,0-20.8,9-21.5,20.3c0-0.4-0.1-0.8-0.1-1.3c0-11.9,9.6-21.5,21.5-21.5
			c11.9,0,21.5,9.6,21.5,21.5c0,0.4,0,0.8-0.1,1.3C78.6,81.4,69.3,72.4,57.8,72.4z"/>
		<path class="st18" d="M57.8,110.1c9.9,0.2,18-7.3,18.5-17c0,0.2,0,0.4,0,0.6c-0.3,10-8.5,17.9-18.6,17.6
			c-10.1-0.3-18.3-8.5-18.6-18.6c0-0.2,0-0.4,0-0.6C39.8,101.9,47.9,109.8,57.8,110.1z"/>
	</g>
</g>
</svg>
