<?xml version="1.0" encoding="utf-8"?>
<!-- Generator: Adobe Illustrator 21.1.0, SVG Export Plug-In . SVG Version: 6.00 Build 0)  -->
<svg version="1.1" id="圖層_1" xmlns="http://www.w3.org/2000/svg" xmlns:xlink="http://www.w3.org/1999/xlink" x="0px" y="0px"
	 viewBox="0 0 300 110" style="enable-background:new 0 0 300 110;" xml:space="preserve">
<style type="text/css">
	.st0{fill:#DB3535;}
	.st1{fill:#F4CC25;}
	.st2{fill:#F2A927;}
	.st3{fill:#2A2A2B;}
	.st4{fill:#F29B27;}
	.st5{fill:#CE7305;}
	.st6{fill:#070707;}
	.st7{fill:#091119;}
	.st8{opacity:0.3;fill:#091119;}
	.st9{fill:#FFFFFF;}
	.st10{fill:#F49625;}
	.st11{opacity:0.3;fill:#2A2A2B;}
	.st12{opacity:0.2;fill:#F9F9F9;}
	.st13{fill:#80C2DC;}
	.st14{opacity:0.6;fill:#FFFFFF;}
	.st15{opacity:0.7;fill:#FFFFFF;}
	.st16{opacity:0.6;}
	.st17{fill:#EDEDED;}
	.st18{opacity:0.2;fill:#EDEDED;}
	.st19{fill:#FFA022;}
	.st20{fill:#E3E5E5;}
	.st21{fill:#232122;}
	.st22{fill:#191919;}
	.st23{fill:#070000;}
	.st24{fill:#383838;}
	.st25{fill:#262626;}
	.st26{fill:#5C1F24;}
	.st27{opacity:0.5;fill:#FFFFFF;}
	.st28{opacity:0.2;fill:#FFFFFF;}
	.st29{fill:#C7212B;}
	.st30{fill:#F9751C;}
	.st31{fill:#C7DEF9;}
	.st32{opacity:0.7;}
	.st33{fill:#E3E3E3;}
	.st34{fill:#757575;}
	.st35{fill:#1992FD;}
	.st36{fill:#5E921B;}
	.st37{fill:#EBEDF0;}
	.st38{fill:#90C642;}
	.st39{fill:#73AD29;}
	.st40{fill:#2B2B2B;}
	.st41{fill:#231F20;}
	.st42{fill:#242424;}
	.st43{fill:#E5E3E8;}
	.st44{fill:#C6C5C3;}
	.st45{fill:#424241;}
	.st46{fill:#999999;}
	.st47{fill:#59B9FF;}
</style>
<g>
	<g>
		<path class="st19" d="M296.9,68.9c0.8,5.4,2.1,12.2,2.1,12.2c4,1.6-4.6,18.7-14.8,18.7c0,0-159.8-0.5-259.8-0.5
			c-2.9,0-12.2-0.5-17.1-1.5c-2.5-0.5-10.8-25-5.5-26.3c1.1-8,0.2-22,1.4-30.2c-1-3.2,4-9.5,6.1-12.7C10.1,27,15.1,17.4,22.3,9
			c0.1-0.1,0.1-0.1,0.2-0.2c1.6-2,6.4-7.8,22.9-8.3l1.2,0C53,0.2,120,1.7,126.4,1.7c0.6,0,1.1,0,1.6,0c11.1,0,26.7,1.7,37.7,6.8
			l64.7,28.2c6.8,3.1,26.5,7,30.8,8.1C294.4,53.4,296,63.5,296.9,68.9z"/>
		<path class="st20" d="M208.8,43.5c-0.4,0-0.9,0-1.4-0.1L25,33c-3.7-0.2-6.7-2-8-4.6c-0.9-1.9-0.8-4.1,0.5-6
			c0.4-1,3.6-7.9,9.1-14.4c0-0.1,0.1-0.1,0.2-0.2c1.2-1.5,5-6.2,19.3-6.5c0.2,0,0.5,0,0.9,0c5.9,0,30.8,0.6,50.7,1.1
			C110.6,2.7,121.7,3,124,3c11.1,0.1,26.1,1.8,34.8,6.4l38.9,20.7c14.5,7.8,15.4,9.9,15,11.5C212.2,43.5,209.7,43.5,208.8,43.5z"/>
		<path class="st21" d="M197.1,31.3c11.3,6,19.6,11.5,10.4,10.9L25.1,31.7c-5.6-0.4-9.2-4.7-6.4-8.7c0,0,3.2-7.4,9-14.2
			c1-1.1,4-5.9,18.5-6.2c6.2-0.1,71.6,1.7,77.8,1.8c10.4,0.1,25.5,1.7,34.2,6.3L197.1,31.3z"/>
		<path class="st13" d="M47.3,3.8l-1,0C35.3,4,31.3,6.8,29.6,8.5c1.2,7.7,3.4,15.2,6.1,22.6l19.6,1.1c0.4-2.1,0.8-4.1,1.3-6.2
			c1.5-6.3,3.3-12.5,5.6-18.5c0.4-1.2,0.9-2.3,1.5-3.4C55.3,3.9,48.9,3.7,47.3,3.8z"/>
		<path class="st13" d="M66.1,9c-2.2,5.8-4,11.8-5.5,17.9c-0.4,1.8-0.8,3.7-1.2,5.5l60.6,3.4c-0.2-12.1-1.7-20.6-3.2-30.6
			c-11.2-0.3-33.7-0.7-48.7-1.1C67.4,5.7,66.7,7.3,66.1,9z"/>
		<path class="st13" d="M157.6,11.7c-8.3-4.4-22.8-6.1-33.6-6.1c-0.5,0-1,0-1.6,0c-0.5,0-1.3,0-2.5,0c1.7,10.1,2.5,20.3,2.9,30.5
			l59.2,3.4c1.7-4,3.4-8,5.2-11.9L157.6,11.7z"/>
	</g>
	<path class="st19" d="M1.9,86c1.7,6,4.2,11.6,5.4,11.8c4.9,1.1,14.2,1.5,17.1,1.5c100.1,0,259.8,0.5,259.8,0.5
		c4.1,0,7.2-2.5,10.4-5.5c3.8-7.5,0.7-7.9,0.7-7.9C249.6,86.3,1.9,86,1.9,86z"/>
	<path class="st22" d="M272.7,94.1c-16.6,0-6.6-3.8-66.2-3.8c-20.9,0-46.4,3.1-72.8,3.1c-7,0-46.6-5-53.4-5
		c-17.6,0-37.2,4.9-52.7,4.9c-2.9,0-12.2-0.5-17.1-1.5c-1.7-0.4-2.7-0.5-3.1-1c1.2,3,2.4,5.1,3.1,5.3c4.9,1.1,14.3,1.8,17.2,1.8
		c100.1,0,259.8,0.2,259.8,0.2c3.9,0,7.6-2.5,10.4-5.6C291.5,92.5,293,94.1,272.7,94.1z"/>
	<g>
		<g>
			<g>
				<path class="st22" d="M49.2,58.1C64.5,58.1,77,70.5,77,85.9c0,0.9,0.2,6.7,0.4,13.6c-23-0.1-47.3-0.1-55.9-0.1
					c0-3.5,0-9.8,0-13.5C21.4,70.5,33.9,58.1,49.2,58.1z"/>
				<path class="st22" d="M227.3,59.7c15.3,0.3,27.5,12.9,27.3,28.3c0,0.8,0,5.9,0,11.8c-14.7,0.2-31.5-0.3-46.3-0.1
					c-2.6,0-5.9,0.1-9.6,0.1c0.2-6.3,0.3-11.5,0.4-12.6C199.3,71.6,212,59.4,227.3,59.7z"/>
			</g>
		</g>
		<g>
			<circle class="st23" cx="227.2" cy="86.3" r="23.7"/>
			<path class="st20" d="M208.9,86.3c0,10.1,8.2,18.3,18.3,18.3c10.1,0,18.3-8.2,18.3-18.3c0-10.1-8.2-18.3-18.3-18.3
				C217.1,68,208.9,76.2,208.9,86.3z M212.3,91.9l2.3-0.4l-1.9,1.4C212.5,92.5,212.4,92.2,212.3,91.9z M211.6,89.3
				c-0.2-1-0.3-2-0.3-3c0-1,0.1-2,0.3-2.9l7.8,1.2l2.4,1.7l-2.4,1.7L211.6,89.3z M241.6,93.1l-2.2-1.6l2.7,0.4
				C242,92.3,241.8,92.7,241.6,93.1z M234.7,88.1l-2.4-1.7l2.4-1.7l8.2-1.3c0.2,1,0.3,2,0.3,3c0,1-0.1,2.1-0.3,3.1L234.7,88.1z
				 M242.2,80.8l-2.7,0.4l2.2-1.6C241.9,80,242,80.4,242.2,80.8z M212.7,79.8l1.9,1.4l-2.3-0.4C212.4,80.5,212.5,80.1,212.7,79.8z
				 M218.1,73.2l4.7,6.5l0.5,2.9l-2.9-0.5l-6.4-4.7C215.1,75.8,216.5,74.4,218.1,73.2z M220.4,71.9c0.3-0.2,0.7-0.3,1.1-0.5l0.4,2.5
				L220.4,71.9z M227.2,70.4c1,0,1.9,0.1,2.8,0.3l-1.3,8L227,81l-1.7-2.4l-1.3-8C225.1,70.5,226.1,70.4,227.2,70.4z M232.6,71.3
				c0.4,0.1,0.8,0.3,1.1,0.5l-1.6,2.2L232.6,71.3z M240.4,77.3l-6.7,4.8l-2.9,0.5l0.5-2.9l4.8-6.7C237.8,74.2,239.2,75.6,240.4,77.3
				z M236,99.6l-4.8-6.6l-0.5-2.9l2.9,0.5l6.6,4.8C239.2,97.1,237.7,98.5,236,99.6z M233.7,100.9c-0.4,0.2-0.7,0.3-1.1,0.4l-0.4-2.6
				L233.7,100.9z M227.2,102.3c-1.1,0-2.1-0.1-3.2-0.3l1.3-7.9l1.7-2.4l1.7,2.4l1.3,8C229.1,102.2,228.2,102.3,227.2,102.3z
				 M221.5,101.2c-0.4-0.1-0.7-0.3-1-0.4l1.4-2L221.5,101.2z M214,95.2l6.4-4.6l2.9-0.5l-0.5,2.9l-4.7,6.4
				C216.5,98.3,215.1,96.9,214,95.2z"/>
			<g>
				<path class="st24" d="M223,98.9l-2-0.8l2.7-3.8L223,98.9z M231,98.9l-0.7-4.6L233,98L231,98.9z M224.4,92.8l0.7-4.5l-4.5,0.7
					l3.7-2.7l-3.7-2.7l4.5,0.7l-0.7-4.5l2.7,3.7l2.7-3.7l-0.7,4.5l4.5-0.7l-3.7,2.7l3.7,2.7l-4.5-0.7l0.7,4.5l-2.7-3.7L224.4,92.8z
					 M215.3,92.4l-0.8-2l4.6-0.7L215.3,92.4z M238.7,92.4l-3.8-2.7l4.6,0.7L238.7,92.4z M234.9,83.1l3.8-2.7l0.8,2L234.9,83.1z
					 M219.1,83.1l-4.6-0.7l0.8-2L219.1,83.1z M223.7,78.4l-2.7-3.8l2-0.8L223.7,78.4z M230.3,78.4l0.7-4.6l2,0.8L230.3,78.4z"/>
			</g>
			<path class="st25" d="M227.2,66c-12.2,0-22.1,9.5-22.7,21.6c0-0.4-0.1-0.8-0.1-1.2c0-12.6,10.2-22.8,22.8-22.8
				c12.6,0,22.8,10.2,22.8,22.8c0,0.4,0,0.8-0.1,1.2C249.3,75.5,239.4,66,227.2,66z"/>
			<path class="st25" d="M227.2,104.7c9.8,0,17.9-7.7,18.4-17.4c0,0.3,0,0.7,0,1c0,10.2-8.3,18.4-18.4,18.4
				c-10.2,0-18.4-8.3-18.4-18.4c0-0.3,0-0.7,0-1C209.4,97,217.4,104.7,227.2,104.7z"/>
		</g>
		<g>
			<circle class="st23" cx="48.2" cy="86.3" r="23.7"/>
			<path class="st20" d="M29.9,86.3c0,10.1,8.2,18.3,18.3,18.3c10.1,0,18.3-8.2,18.3-18.3c0-10.1-8.2-18.3-18.3-18.3
				C38.1,68,29.9,76.2,29.9,86.3z M33.2,91.9l2.3-0.4l-1.9,1.4C33.5,92.5,33.4,92.2,33.2,91.9z M32.5,89.3c-0.2-1-0.3-2-0.3-3
				c0-1,0.1-2,0.3-2.9l7.8,1.2l2.4,1.7l-2.4,1.7L32.5,89.3z M62.6,93.1l-2.2-1.6l2.7,0.4C63,92.3,62.8,92.7,62.6,93.1z M55.7,88.1
				l-2.4-1.7l2.4-1.7l8.2-1.3c0.2,1,0.3,2,0.3,3c0,1-0.1,2.1-0.3,3.1L55.7,88.1z M63.1,80.8l-2.7,0.4l2.2-1.6
				C62.8,80,63,80.4,63.1,80.8z M33.6,79.8l1.9,1.4l-2.3-0.4C33.3,80.5,33.5,80.1,33.6,79.8z M39.1,73.2l4.7,6.5l0.5,2.9l-2.9-0.5
				l-6.4-4.7C36,75.8,37.4,74.4,39.1,73.2z M41.4,71.9c0.4-0.2,0.7-0.3,1.1-0.5l0.4,2.5L41.4,71.9z M48.2,70.4
				c1.5,0,0.8-0.1,2.8,0.3l-1.3,8L48,81l-1.7-2.4l-1.3-8C46,70.5,47.1,70.4,48.2,70.4z M53.6,71.3c0.4,0.1,0.8,0.3,1.1,0.5l-1.6,2.2
				L53.6,71.3z M61.3,77.3l-6.7,4.8l-2.9,0.5l0.5-2.9L57,73C58.7,74.2,60.2,75.6,61.3,77.3z M57,99.6L52.2,93l-0.5-2.9l2.9,0.5
				l6.6,4.8C60.1,97.1,58.7,98.5,57,99.6z M54.7,100.9c-0.4,0.2-0.7,0.3-1.1,0.4l-0.4-2.6L54.7,100.9z M48.2,102.3
				c-1.1,0-2.1-0.1-3.2-0.3l1.3-7.9l1.7-2.4l1.7,2.4l1.3,8C50.1,102.2,49.1,102.3,48.2,102.3z M42.5,101.2c-0.4-0.1-0.7-0.3-1-0.4
				l1.4-2L42.5,101.2z M34.9,95.2l6.4-4.6l2.9-0.5L43.8,93l-4.7,6.4C37.5,98.3,36.1,96.9,34.9,95.2z"/>
			<g>
				<path class="st24" d="M44,98.9L42,98l2.7-3.8L44,98.9z M52,98.9l-0.7-4.6L54,98L52,98.9z M45.3,92.8l0.7-4.5L41.6,89l3.7-2.7
					l-3.7-2.7l4.5,0.7l-0.7-4.5l2.7,3.7l2.7-3.7l-0.7,4.5l4.5-0.7l-3.7,2.7l3.7,2.7l-4.5-0.7l0.7,4.5L48,89.1L45.3,92.8z M36.3,92.4
					l-0.8-2l4.6-0.7L36.3,92.4z M59.7,92.4l-3.8-2.7l4.6,0.7L59.7,92.4z M55.9,83.1l3.8-2.7l0.8,2L55.9,83.1z M40.1,83.1l-4.6-0.7
					l0.8-2L40.1,83.1z M44.7,78.4L42,74.7l2-0.8L44.7,78.4z M51.3,78.4l0.7-4.6l2,0.8L51.3,78.4z"/>
			</g>
			<path class="st25" d="M48.2,66C36,66,26.1,75.5,25.5,87.5c0-0.4-0.1-0.8-0.1-1.2c0-12.6,10.2-22.8,22.8-22.8
				C60.8,63.5,71,73.7,71,86.3c0,0.4,0,0.8-0.1,1.2C70.3,75.5,60.4,66,48.2,66z"/>
			<path class="st25" d="M48.2,104.7c9.8,0,17.9-7.7,18.4-17.4c0,0.3,0,0.7,0,1c0,10.2-8.3,18.4-18.4,18.4
				c-10.2,0-18.4-8.3-18.4-18.4c0-0.3,0-0.7,0-1C30.3,97,38.3,104.7,48.2,104.7z"/>
		</g>
	</g>
	<path class="st21" d="M167.3,12.1c3.3,1.6,42.1,21.3,46.8,23.4c12.6,5.5,23.1,6.2,26.4,4.4c-4.1-1.1-7.8-2.2-10-3.2L164.6,8
		C164,7.8,161.9,9.5,167.3,12.1z"/>
	<path class="st13" d="M168.8,12.1c3.3,1.6,41.3,20.5,45.9,22.6c9.2,4.3,21.3,5.7,25.8,5.2c-4.1-1.1-7.8-2.2-10-3.2L165.7,8.5
		C164,7.7,163.4,9.5,168.8,12.1z"/>
	<path class="st26" d="M212.8,40.5l-0.3,0.1c0.8,2.2,0.9,5.2-0.8,14.9c-16.2,11.5-16.5,23.2-16.6,28.8c0,0.7,0,1.3-0.1,1.8
		c-2,0-31.5-0.1-64.9-0.1v0c0,0-0.1,0-0.1,0c-0.7,0-1.5,0-2.2,0c-0.3-0.1-0.5-0.2-0.8-0.4c-2.1-1.8-3.5-10.1-5.2-48.4l-0.3,0
		c1.7,38.6,3.1,46.7,5.3,48.6c0.1,0.1,0.2,0.1,0.3,0.1c-15,0-30.6,0-44.7-0.1l0-0.2c0.3-3.6,0.9-13.2-5.1-21
		c-3.7-4.8-8.6-7.5-12.9-9.9c-5.1-2.8-9.1-5.1-8.7-9.5l0.1-0.6c0.2-1.9,0.5-5.7,1.5-11.2l-0.3-0.1c-0.9,5.5-1.3,9.4-1.5,11.2
		l-0.1,0.6c-0.4,4.6,3.7,6.9,8.9,9.8c4.3,2.4,9.2,5.1,12.8,9.8c5.9,7.7,5.2,17.2,5,20.8l0,0.5h0.2c14.4,0,30.3,0,45.6,0.1
		c0.2,0,0.4,0.1,0.7,0.1c0.3,0,0.5,0,0.8,0c0.2,0,0.5,0,0.8,0c34.4,0.1,64.7,0.1,65.2,0.1v-0.2l0.2,0c0.1-0.5,0.1-1.2,0.1-2
		c0.1-5.6,0.4-17.2,16.5-28.6l0.1,0l0-0.1C213.7,45.8,213.6,42.7,212.8,40.5z"/>
	<path class="st27" d="M21.9,12.2c0,0-15.6,18.6,3.1,20.7c14.6,1.7,207.1,12.5,207.1,12.5s-21.3,2.8-57,2.6
		C117.7,47.7,48.9,44,27,44C18.2,44-4.7,41.8,21.9,12.2z"/>
	<g>
		<path class="st26" d="M141.6,44.7c0,1.2-1,2.2-2.2,2.1L127.6,46c-1.2-0.1-2.2-1.1-2.2-2.4l0,0c0-1.2,1-2.2,2.2-2.1l11.7,0.8
			C140.6,42.4,141.6,43.5,141.6,44.7L141.6,44.7z"/>
		<path class="st20" d="M139.3,42.6l-11.7-0.8c0,0-0.1,0-0.1,0c-0.7,0-1.4,0.4-1.6,1.1c0.2,0.8,1,1.5,1.9,1.5l11.7,0.8
			c0,0,0.1,0,0.1,0c0.7,0,1.4-0.4,1.6-1.1C140.9,43.3,140.2,42.7,139.3,42.6z"/>
	</g>
	<g>
		<path class="st26" d="M74.2,40.1c0,1.2-1,2.2-2.2,2.1l-11.7-0.8C59,41.3,58,40.3,58,39l0,0c0-1.2,1-2.2,2.2-2.1l11.7,0.8
			C73.2,37.8,74.2,38.8,74.2,40.1L74.2,40.1z"/>
		<path class="st20" d="M71.9,38l-11.7-0.8c0,0-0.1,0-0.1,0c-0.7,0-1.4,0.4-1.6,1.1c0.2,0.8,1,1.5,1.9,1.5L72,40.6c0,0,0.1,0,0.1,0
			c0.7,0,1.4-0.4,1.6-1.1C73.5,38.7,72.8,38.1,71.9,38z"/>
	</g>
	<path class="st27" d="M297.7,81.1c0,0-32.6,1.6-34.8,1.6c-2.2,0-7.2-27.7-35.4-27.7c-24.9,0-30.9,20.9-29.2,31.2h0.5
		c1.1-16.4,14.3-28.1,29.5-26.9c19.6,1.5,26.7,20,26.2,26.8c-0.1,0.2,25.1-0.1,40.8,0.2c2.3,1.3,0.1,6.9,0.1,6.9
		S303.8,81.5,297.7,81.1z"/>
	<path class="st27" d="M78.6,81.2c0-15.3-13.2-27.8-29.4-27.8c-16.2,0-29.4,12.4-29.4,27.8c0,1.3,0,3,0,4.7h1.6c0,0,0,0,0,0
		c0-15.3,12.4-27.8,27.8-27.8C64.5,58.1,77,70.5,77,85.9c0,0.1,0,0.1,0,0.2h1.5C78.7,83.7,78.6,81.6,78.6,81.2z"/>
	<path class="st27" d="M62.7,53.7l143.1,7.7L79.6,68.7C79.6,68.7,76.4,60.4,62.7,53.7z"/>
	<path class="st28" d="M3.7,73.9c-2.9-0.1-3.4,4.7-3.4,4.7s-1.3-6,1.4-7c4.3,0.1,16.2,1.1,19.4,1.4C20.6,73.6,13.9,74.3,3.7,73.9z"
		/>
	<path class="st26" d="M1.9,56.1c4.3,0,7,1.5,7-3.6c0-5.1-1.3-19.4,1.5-24.7c2.8-5.3,9.4-15.1,9.4-15.1s-1.3-1.1-4.7,3.8
		C11.7,21.4,1.7,36.7,1.7,38.2C1.7,39.7,0.8,56.1,1.9,56.1z"/>
	<path class="st29" d="M12.7,21.7c2.1-3.5,4.5-7.1,5.6-8.7c-0.7,0.5-1.8,1.5-3.2,3.5c-0.6,0.9-1.5,2.1-2.4,3.6V21.7z"/>
	<path class="st29" d="M8.6,30.1v-3.8c-3.5,5.5-6.9,11-6.9,11.9c0,0.6-0.1,3.7-0.2,7.1h6.4C7.7,40.4,7.7,34.3,8.6,30.1z"/>
	<path class="st30" d="M8.1,51.7c0-0.6,0-1.4-0.1-2.3H1.4c0,0.8,0,1.6,0,2.3H8.1z"/>
	<path class="st27" d="M1.7,78.7c1.1-8,0.2-22.1,1.4-30.2c-1-3.2,4-9.5,6.1-12.7c0.8-1.7,5.8-11.3,13.1-19.8
		c0.1-0.1,0.1-0.1,0.2-0.2c1.6-2,6.9-11.6,23.4-12.1c0,0,74.7,0.9,81,0.9c0.6,0,1.1,0,1.6,0c11.1,0,26.1,6,37.1,11l64.7,28.2
		c6.8,3.1,26.5,7,30.8,8.1c33.2,8.6,34.8,18.7,35.7,24.1c0.7,4.3,1.6,9.5,1.9,11.4c1.4-3.1,1.6-5.8,0.1-6.4c0,0-1.2-6.9-2.1-12.2
		c-0.9-5.4-2.5-15.5-35.7-24.1c-4.3-1.1-24.2-4.7-30.9-7.8L165.7,8.5c-11-5.1-26.6-6.8-37.7-6.8c-0.5,0-1,0-1.6,0
		C120,1.7,53,0.2,46.6,0.4l-1.2,0C29,0.9,24.2,6.8,22.5,8.7c-0.1,0.1-0.1,0.2-0.2,0.2C15.1,17.4,10.1,27,9.3,28.7
		c-2.1,3.1-7.1,9.5-6.1,12.7c-1.3,8.1-0.3,22.2-1.4,30.2C-0.2,72-0.3,75.6,0.4,80C0.7,79.3,1.1,78.9,1.7,78.7z"/>
	<path class="st8" d="M297.1,68.9c0,0-9.4-0.1-11.4-0.1c-1.9,0-4.5-11.5-16.9-14.6c11.4,1.3,23.9,3.9,27.1,10.2
		C297,67.9,297.1,68.9,297.1,68.9z"/>
	<path class="st9" d="M294.7,65c-2.7-5.3-12.1-8-21.8-9.5c9,4.3,11.1,13.2,12.8,13.2c1.5,0,7.3,0.1,10,0.1
		C295.6,68.2,295.3,67,294.7,65z"/>
	<path class="st31" d="M280.8,62.1c0,0,6.2-3,5.9-3.1c-4-1.6-8.9-2.6-13.8-3.4C276.5,57.3,279,59.7,280.8,62.1z"/>
	<path class="st30" d="M283.6,66.2c0.9,1.5,1.6,2.6,2.2,2.6c1.5,0,7.3,0.1,10,0.1c-0.1-0.5-0.3-1.4-0.7-2.7H283.6z"/>
	<path class="st8" d="M297.1,70.3h-8.9c-1.3,0-2.4,1.1-2.4,2.4c0,1.3,1.1,2.4,2.4,2.4h9.7C297.7,73.5,297.4,71.9,297.1,70.3z"/>
	<path class="st9" d="M297,72.7c0-1-0.8-1.8-1.8-1.8h-8.6c-0.5,0.4-0.8,1.1-0.8,1.8c0,0.7,0.3,1.4,0.8,1.8h8.6
		C296.2,74.5,297,73.7,297,72.7z"/>
	<g class="st32">
		<path class="st9" d="M31.6,18.1c-0.8-3.2-1.5-6.4-2-9.7c1.7-1.7,5.7-4.4,16.3-4.7L31.6,18.1z M62.1,4c-3.4-0.1-6.4-0.1-8.8-0.2
			l-20,20c0.7,2.3,1.5,4.5,2.3,6.8C44.4,21.7,53.2,12.9,62.1,4z M47.8,31.7l7.4,0.4c0.4-2.1,0.8-4.1,1.3-6.2c0.3-1.3,0.7-2.7,1-4
			C54.4,25.2,51.1,28.5,47.8,31.7z M127.1,5.6c-0.8,0-1.6,0-2.4-0.1l-4.1,4.1c0.1,0.7,0.2,1.5,0.3,2.2C123,9.8,125.1,7.7,127.1,5.6z
			 M160.9,13.4l-3.2-1.7c-1.8-1-3.9-1.8-6.2-2.5l-26.9,26.9l12.9,0.7C145.2,29,153,21.2,160.9,13.4z M166.1,16.2l-1.5-0.8
			l-21.8,21.8l2.1,0.1L166.1,16.2z M117.2,7.3c-0.1-0.7-0.2-1.4-0.3-2c-5-0.1-12.4-0.3-20.2-0.4c-9.4,9.4-18.7,18.7-28.1,28.1
			l21.8,1.2L117.2,7.3z M118.2,14.5c-0.1-0.7-0.2-1.4-0.3-2.2L95.8,34.4l2.4,0.1L118.2,14.5z M84.9,4.5c-3.3-0.1-6.6-0.1-9.7-0.2
			c-3.9,3.9-7.7,7.7-11.6,11.6c-1.2,3.6-2.2,7.3-3,11c-0.2,0.9-0.4,1.7-0.6,2.6C68.3,21.1,76.6,12.8,84.9,4.5z"/>
	</g>
	<g>
		<path class="st9" d="M165.7,8.5l11,4.8c-0.6,0.6-1.2,1.3-1.9,1.9c-3.1-1.6-5.4-2.7-6.1-3C163.4,9.5,164,7.7,165.7,8.5z
			 M212.4,28.8l-3.1-1.3c-1,1-2.1,2.1-3.1,3.1c1.1,0.5,2,1,3,1.4L212.4,28.8z M198.9,22.9L183.1,16l-2.1,2.1
			c4.7,2.3,10.1,5,15.2,7.5C197,24.8,198,23.8,198.9,22.9z"/>
	</g>
</g>
</svg>
