<?xml version="1.0" encoding="utf-8"?>
<!-- Generator: Adobe Illustrator 21.1.0, SVG Export Plug-In . SVG Version: 6.00 Build 0)  -->
<svg version="1.1" id="圖層_1" xmlns="http://www.w3.org/2000/svg" xmlns:xlink="http://www.w3.org/1999/xlink" x="0px" y="0px"
	 viewBox="0 0 300 110" style="enable-background:new 0 0 300 110;" xml:space="preserve">
<style type="text/css">
	.st0{fill:#DB3535;}
	.st1{fill:#F4CC25;}
	.st2{fill:#F2A927;}
	.st3{fill:#2A2A2B;}
	.st4{fill:#F29B27;}
	.st5{fill:#CE7305;}
	.st6{fill:#070707;}
	.st7{fill:#091119;}
	.st8{opacity:0.3;fill:#091119;}
	.st9{fill:#FFFFFF;}
	.st10{fill:#F49625;}
	.st11{opacity:0.3;fill:#2A2A2B;}
	.st12{opacity:0.2;fill:#F9F9F9;}
	.st13{fill:#80C2DC;}
	.st14{opacity:0.6;fill:#FFFFFF;}
	.st15{opacity:0.7;fill:#FFFFFF;}
	.st16{opacity:0.6;}
	.st17{fill:#EDEDED;}
	.st18{opacity:0.2;fill:#EDEDED;}
	.st19{fill:#FFA022;}
	.st20{fill:#E3E5E5;}
	.st21{fill:#232122;}
	.st22{fill:#191919;}
	.st23{fill:#070000;}
	.st24{fill:#383838;}
	.st25{fill:#262626;}
	.st26{fill:#5C1F24;}
	.st27{opacity:0.5;fill:#FFFFFF;}
	.st28{opacity:0.2;fill:#FFFFFF;}
	.st29{fill:#C7212B;}
	.st30{fill:#F9751C;}
	.st31{fill:#C7DEF9;}
	.st32{opacity:0.7;}
	.st33{fill:#E3E3E3;}
	.st34{fill:#757575;}
	.st35{fill:#1992FD;}
	.st36{fill:#5E921B;}
	.st37{fill:#EBEDF0;}
	.st38{fill:#90C642;}
	.st39{fill:#73AD29;}
	.st40{fill:#2B2B2B;}
	.st41{fill:#231F20;}
	.st42{fill:#242424;}
	.st43{fill:#E5E3E8;}
	.st44{fill:#C6C5C3;}
	.st45{fill:#424241;}
	.st46{fill:#999999;}
	.st47{fill:#59B9FF;}
	.st48{fill:#9E9384;}
</style>
<g>
	<g>
		<path class="st19" d="M3.1,68.9C2.2,74.3,1,81.1,1,81.1c-4,1.6,4.6,18.7,14.8,18.7c0,0,159.8-0.5,259.8-0.5
			c2.9,0,12.2-0.5,17.1-1.5c2.5-0.5,10.8-25,5.5-26.3c-1.1-8-0.2-22-1.4-30.2c1-3.2-4-9.5-6.1-12.7c-0.8-1.7-5.8-11.3-13.1-19.8
			c-0.1-0.1-0.1-0.1-0.2-0.2c-1.6-2-6.4-7.8-22.9-8.3l-1.2,0C247,0.2,180,1.7,173.6,1.7c-0.6,0-1.1,0-1.6,0
			c-11.1,0-26.7,1.7-37.7,6.8L69.6,36.7c-6.8,3.1-26.5,7-30.8,8.1C5.6,53.4,4,63.5,3.1,68.9z"/>
		<path class="st20" d="M91.2,43.5c0.4,0,0.9,0,1.4-0.1L275,33c3.7-0.2,6.7-2,8-4.6c0.9-1.9,0.8-4.1-0.5-6c-0.4-1-3.6-7.9-9.1-14.4
			c0-0.1-0.1-0.1-0.2-0.2c-1.2-1.5-5-6.2-19.3-6.5c-0.2,0-0.5,0-0.9,0c-5.9,0-30.8,0.6-50.7,1.1C189.4,2.7,178.3,3,176,3
			c-11.1,0.1-26.1,1.8-34.8,6.4l-38.9,20.7c-14.5,7.8-15.4,9.9-15,11.5C87.8,43.5,90.3,43.5,91.2,43.5z"/>
		<path class="st21" d="M102.9,31.3c-11.3,6-19.6,11.5-10.4,10.9l182.4-10.5c5.6-0.4,9.2-4.7,6.4-8.7c0,0-3.2-7.4-9-14.2
			c-1-1.1-4-5.9-18.5-6.2c-6.2-0.1-71.6,1.7-77.8,1.8c-10.4,0.1-25.5,1.7-34.2,6.3L102.9,31.3z"/>
		<path class="st13" d="M252.7,3.8l1,0c10.9,0.2,14.9,3,16.6,4.7c-1.2,7.7-3.4,15.2-6.1,22.6l-19.6,1.1c-0.4-2.1-0.8-4.1-1.3-6.2
			c-1.5-6.3-3.3-12.5-5.6-18.5c-0.4-1.2-0.9-2.3-1.5-3.4C244.7,3.9,251.1,3.7,252.7,3.8z"/>
		<path class="st13" d="M233.9,9c2.2,5.8,4,11.8,5.5,17.9c0.4,1.8,0.8,3.7,1.2,5.5l-60.6,3.4c0.2-12.1,1.7-20.6,3.2-30.6
			c11.2-0.3,33.7-0.7,48.7-1.1C232.6,5.7,233.3,7.3,233.9,9z"/>
		<path class="st13" d="M142.4,11.7c8.3-4.4,22.8-6.1,33.6-6.1c0.5,0,1,0,1.6,0c0.5,0,1.3,0,2.5,0c-1.7,10.1-2.5,20.3-2.9,30.5
			l-59.2,3.4c-1.7-4-3.4-8-5.2-11.9L142.4,11.7z"/>
	</g>
	<path class="st19" d="M298.1,86c-1.7,6-4.2,11.6-5.4,11.8c-4.9,1.1-14.2,1.5-17.1,1.5c-100.1,0-259.8,0.5-259.8,0.5
		c-4.1,0-7.2-2.5-10.4-5.5c-3.8-7.5-0.7-7.9-0.7-7.9C50.4,86.3,298.1,86,298.1,86z"/>
	<path class="st22" d="M27.3,94.1c16.6,0,6.6-3.8,66.2-3.8c20.9,0,46.4,3.1,72.8,3.1c7,0,46.6-5,53.4-5c17.6,0,37.2,4.9,52.7,4.9
		c2.9,0,12.2-0.5,17.1-1.5c1.7-0.4,2.7-0.5,3.1-1c-1.2,3-2.4,5.1-3.1,5.3c-4.9,1.1-14.3,1.8-17.2,1.8C172.4,97.8,12.6,98,12.6,98
		c-3.9,0-7.6-2.5-10.4-5.6C8.5,92.5,7,94.1,27.3,94.1z"/>
	<g>
		<g>
			<g>
				<path class="st22" d="M250.8,58.1c-15.3,0-27.8,12.4-27.8,27.8c0,0.9-0.2,6.7-0.4,13.6c23-0.1,47.3-0.1,55.9-0.1
					c0-3.5,0-9.8,0-13.5C278.6,70.5,266.1,58.1,250.8,58.1z"/>
				<path class="st22" d="M72.7,59.7C57.3,60,45.1,72.6,45.4,87.9c0,0.8,0,5.9,0,11.8c14.7,0.2,31.5-0.3,46.3-0.1
					c2.6,0,5.9,0.1,9.6,0.1c-0.2-6.3-0.3-11.5-0.4-12.6C100.7,71.6,88,59.4,72.7,59.7z"/>
			</g>
		</g>
		<g>
			<circle class="st23" cx="72.8" cy="86.3" r="23.7"/>
			<path class="st20" d="M72.8,68c-10.1,0-18.3,8.2-18.3,18.3c0,10.1,8.2,18.3,18.3,18.3c10.1,0,18.3-8.2,18.3-18.3
				C91.1,76.2,82.9,68,72.8,68z M87.3,92.9l-1.9-1.4l2.3,0.4C87.6,92.2,87.5,92.5,87.3,92.9z M80.7,88.1l-2.4-1.7l2.4-1.7l7.8-1.2
				c0.2,0.9,0.3,1.9,0.3,2.9c0,1-0.1,2-0.3,3L80.7,88.1z M57.9,91.9l2.7-0.4l-2.2,1.6C58.2,92.7,58,92.3,57.9,91.9z M57.1,89.4
				c-0.2-1-0.3-2-0.3-3.1c0-1,0.1-2,0.3-3l8.2,1.3l2.4,1.7l-2.4,1.7L57.1,89.4z M58.3,79.6l2.2,1.6l-2.7-0.4
				C58,80.4,58.1,80,58.3,79.6z M87.7,80.8l-2.3,0.4l1.9-1.4C87.5,80.1,87.6,80.5,87.7,80.8z M86,77.5l-6.4,4.7l-2.9,0.5l0.5-2.9
				l4.7-6.5C83.5,74.4,84.9,75.8,86,77.5z M78.1,73.9l0.4-2.5c0.4,0.1,0.7,0.3,1.1,0.5L78.1,73.9z M76,70.7l-1.3,8L73,81l-1.7-2.4
				l-1.3-8c0.9-0.2,1.8-0.3,2.8-0.3C73.9,70.4,74.9,70.5,76,70.7z M67.8,73.9l-1.6-2.2c0.4-0.2,0.8-0.3,1.1-0.5L67.8,73.9z M63.9,73
				l4.8,6.7l0.5,2.9l-2.9-0.5l-6.7-4.8C60.8,75.6,62.2,74.2,63.9,73z M59.7,95.4l6.6-4.8l2.9-0.5L68.7,93L64,99.6
				C62.3,98.5,60.8,97.1,59.7,95.4z M67.8,98.8l-0.4,2.6c-0.4-0.1-0.8-0.3-1.1-0.4L67.8,98.8z M70,102l1.3-8l1.7-2.4l1.7,2.4
				l1.3,7.9c-1,0.2-2.1,0.3-3.2,0.3C71.8,102.3,70.9,102.2,70,102z M78.1,98.8l1.4,2c-0.3,0.2-0.7,0.3-1,0.4L78.1,98.8z M81.9,99.4
				L77.2,93l-0.5-2.9l2.9,0.5l6.4,4.6C84.9,96.9,83.5,98.3,81.9,99.4z"/>
			<g>
				<path class="st24" d="M76.3,94.3L79,98l-2,0.8L76.3,94.3z M67,98l2.7-3.8L69,98.9L67,98z M73,89.1l-2.7,3.7l0.7-4.5L66.6,89
					l3.7-2.7l-3.7-2.7l4.5,0.7l-0.7-4.5l2.7,3.7l2.7-3.7l-0.7,4.5l4.5-0.7l-3.7,2.7l3.7,2.7l-4.5-0.7l0.7,4.5L73,89.1z M80.9,89.6
					l4.6,0.7l-0.8,2L80.9,89.6z M60.5,90.4l4.6-0.7l-3.8,2.7L60.5,90.4z M60.5,82.3l0.8-2l3.8,2.7L60.5,82.3z M84.7,80.3l0.8,2
					l-4.6,0.7L84.7,80.3z M77,73.8l2,0.8l-2.7,3.8L77,73.8z M67,74.7l2-0.8l0.7,4.6L67,74.7z"/>
			</g>
			<path class="st25" d="M72.8,66c12.2,0,22.1,9.5,22.7,21.6c0-0.4,0.1-0.8,0.1-1.2c0-12.6-10.2-22.8-22.8-22.8
				C60.2,63.5,50,73.7,50,86.3c0,0.4,0,0.8,0.1,1.2C50.7,75.5,60.6,66,72.8,66z"/>
			<path class="st25" d="M72.8,104.7c-9.8,0-17.9-7.7-18.4-17.4c0,0.3,0,0.7,0,1c0,10.2,8.3,18.4,18.4,18.4
				c10.2,0,18.4-8.3,18.4-18.4c0-0.3,0-0.7,0-1C90.6,97,82.6,104.7,72.8,104.7z"/>
		</g>
		<g>
			<circle class="st23" cx="251.8" cy="86.3" r="23.7"/>
			<path class="st20" d="M251.8,68c-10.1,0-18.3,8.2-18.3,18.3c0,10.1,8.2,18.3,18.3,18.3c10.1,0,18.3-8.2,18.3-18.3
				C270.1,76.2,261.9,68,251.8,68z M266.3,92.9l-1.9-1.4l2.3,0.4C266.6,92.2,266.5,92.5,266.3,92.9z M259.7,88.1l-2.4-1.7l2.4-1.7
				l7.8-1.2c0.2,0.9,0.3,1.9,0.3,2.9c0,1-0.1,2-0.3,3L259.7,88.1z M236.9,91.9l2.7-0.4l-2.2,1.6C237.2,92.7,237,92.3,236.9,91.9z
				 M236.2,89.4c-0.2-1-0.3-2-0.3-3.1c0-1,0.1-2,0.3-3l8.2,1.3l2.4,1.7l-2.4,1.7L236.2,89.4z M237.4,79.6l2.2,1.6l-2.7-0.4
				C237,80.4,237.2,80,237.4,79.6z M266.8,80.8l-2.3,0.4l1.9-1.4C266.5,80.1,266.7,80.5,266.8,80.8z M265.1,77.5l-6.4,4.7l-2.9,0.5
				l0.5-2.9l4.7-6.5C262.6,74.4,264,75.8,265.1,77.5z M257.2,73.9l0.4-2.5c0.4,0.1,0.7,0.3,1.1,0.5L257.2,73.9z M255,70.7l-1.3,8
				L252,81l-1.7-2.4l-1.3-8c2-0.4,1.3-0.3,2.8-0.3C252.9,70.4,254,70.5,255,70.7z M246.9,73.9l-1.6-2.2c0.4-0.2,0.8-0.3,1.1-0.5
				L246.9,73.9z M243,73l4.8,6.7l0.5,2.9l-2.9-0.5l-6.7-4.8C239.8,75.6,241.3,74.2,243,73z M238.7,95.4l6.6-4.8l2.9-0.5l-0.5,2.9
				l-4.8,6.6C241.3,98.5,239.9,97.1,238.7,95.4z M246.9,98.8l-0.4,2.6c-0.4-0.1-0.8-0.3-1.1-0.4L246.9,98.8z M249,102l1.3-8l1.7-2.4
				l1.7,2.4l1.3,7.9c-1,0.2-2.1,0.3-3.2,0.3C250.9,102.3,249.9,102.2,249,102z M257.2,98.8l1.4,2c-0.3,0.2-0.7,0.3-1,0.4L257.2,98.8
				z M260.9,99.4l-4.7-6.4l-0.5-2.9l2.9,0.5l6.4,4.6C263.9,96.9,262.5,98.3,260.9,99.4z"/>
			<g>
				<path class="st24" d="M255.3,94.3L258,98l-2,0.8L255.3,94.3z M246,98l2.7-3.8l-0.7,4.6L246,98z M252,89.1l-2.7,3.7l0.7-4.5
					l-4.5,0.7l3.7-2.7l-3.7-2.7l4.5,0.7l-0.7-4.5l2.7,3.7l2.7-3.7l-0.7,4.5l4.5-0.7l-3.7,2.7l3.7,2.7l-4.5-0.7l0.7,4.5L252,89.1z
					 M259.9,89.6l4.6,0.7l-0.8,2L259.9,89.6z M239.5,90.4l4.6-0.7l-3.8,2.7L239.5,90.4z M239.5,82.3l0.8-2l3.8,2.7L239.5,82.3z
					 M263.7,80.3l0.8,2l-4.6,0.7L263.7,80.3z M256,73.8l2,0.8l-2.7,3.8L256,73.8z M246,74.7l2-0.8l0.7,4.6L246,74.7z"/>
			</g>
			<path class="st25" d="M251.8,66c12.2,0,22.1,9.5,22.7,21.6c0-0.4,0.1-0.8,0.1-1.2c0-12.6-10.2-22.8-22.8-22.8
				c-12.6,0-22.8,10.2-22.8,22.8c0,0.4,0,0.8,0.1,1.2C229.7,75.5,239.6,66,251.8,66z"/>
			<path class="st25" d="M251.8,104.7c-9.8,0-17.9-7.7-18.4-17.4c0,0.3,0,0.7,0,1c0,10.2,8.3,18.4,18.4,18.4
				c10.2,0,18.4-8.3,18.4-18.4c0-0.3,0-0.7,0-1C269.7,97,261.7,104.7,251.8,104.7z"/>
		</g>
	</g>
	<path class="st21" d="M132.7,12.1c-3.3,1.6-42.1,21.3-46.8,23.4c-12.6,5.5-23.1,6.2-26.4,4.4c4.1-1.1,7.8-2.2,10-3.2L135.4,8
		C136,7.8,138.1,9.5,132.7,12.1z"/>
	<path class="st13" d="M131.2,12.1c-3.3,1.6-41.3,20.5-45.9,22.6C76.2,39,64,40.4,59.5,39.9c4.1-1.1,7.8-2.2,10-3.2l64.7-28.2
		C136,7.7,136.6,9.5,131.2,12.1z"/>
	<path class="st26" d="M87.2,40.5l0.3,0.1c-0.8,2.2-0.9,5.2,0.8,14.9c16.2,11.5,16.5,23.2,16.6,28.8c0,0.7,0,1.3,0.1,1.8
		c2,0,31.5-0.1,64.9-0.1v0c0,0,0.1,0,0.1,0c0.7,0,1.5,0,2.2,0c0.3-0.1,0.5-0.2,0.8-0.4c2.1-1.8,3.5-10.1,5.2-48.4l0.3,0
		c-1.7,38.6-3.1,46.7-5.3,48.6c-0.1,0.1-0.2,0.1-0.3,0.1c15,0,30.6,0,44.7-0.1l0-0.2c-0.3-3.6-0.9-13.2,5.1-21
		c3.7-4.8,8.6-7.5,12.9-9.9c5.1-2.8,9.1-5.1,8.7-9.5l-0.1-0.6c-0.2-1.9-0.5-5.7-1.5-11.2l0.3-0.1c0.9,5.5,1.3,9.4,1.5,11.2l0.1,0.6
		c0.4,4.6-3.7,6.9-8.9,9.8c-4.3,2.4-9.2,5.1-12.8,9.8c-5.9,7.7-5.2,17.2-5,20.8l0,0.5h-0.2c-14.4,0-30.3,0-45.6,0.1
		c-0.2,0-0.4,0.1-0.7,0.1c-0.3,0-0.5,0-0.8,0c-0.2,0-0.5,0-0.8,0c-34.4,0.1-64.7,0.1-65.2,0.1v-0.2l-0.2,0c-0.1-0.5-0.1-1.2-0.1-2
		c-0.1-5.6-0.4-17.2-16.5-28.6l-0.1,0l0-0.1C86.3,45.8,86.4,42.7,87.2,40.5z"/>
	<path class="st27" d="M278.1,12.2c0,0,15.6,18.6-3.1,20.7C260.3,34.6,67.8,45.4,67.8,45.4s21.3,2.8,57,2.6
		C182.3,47.7,251.1,44,273,44C281.8,44,304.7,41.8,278.1,12.2z"/>
	<g>
		<path class="st26" d="M158.4,44.7c0,1.2,1,2.2,2.2,2.1l11.7-0.8c1.2-0.1,2.2-1.1,2.2-2.4l0,0c0-1.2-1-2.2-2.2-2.1l-11.7,0.8
			C159.4,42.4,158.4,43.5,158.4,44.7L158.4,44.7z"/>
		<path class="st20" d="M160.7,42.6l11.7-0.8c0,0,0.1,0,0.1,0c0.7,0,1.4,0.4,1.6,1.1c-0.2,0.8-1,1.5-1.9,1.5l-11.7,0.8
			c0,0-0.1,0-0.1,0c-0.7,0-1.4-0.4-1.6-1.1C159.1,43.3,159.8,42.7,160.7,42.6z"/>
	</g>
	<g>
		<path class="st26" d="M225.8,40.1c0,1.2,1,2.2,2.2,2.1l11.7-0.8c1.2-0.1,2.2-1.1,2.2-2.4l0,0c0-1.2-1-2.2-2.2-2.1l-11.7,0.8
			C226.8,37.8,225.8,38.8,225.8,40.1L225.8,40.1z"/>
		<path class="st20" d="M228.1,38l11.7-0.8c0,0,0.1,0,0.1,0c0.7,0,1.4,0.4,1.6,1.1c-0.2,0.8-1,1.5-1.9,1.5L228,40.6c0,0-0.1,0-0.1,0
			c-0.7,0-1.4-0.4-1.6-1.1C226.5,38.7,227.2,38.1,228.1,38z"/>
	</g>
	<path class="st27" d="M2.3,81.1c0,0,32.6,1.6,34.8,1.6c2.2,0,7.2-27.7,35.4-27.7c24.9,0,30.9,20.9,29.2,31.2h-0.5
		C100,69.9,86.8,58.2,71.6,59.4c-19.6,1.5-26.7,20-26.2,26.8c0.1,0.2-25.1-0.1-40.8,0.2c-2.3,1.3-0.1,6.9-0.1,6.9
		S-3.8,81.5,2.3,81.1z"/>
	<path class="st27" d="M221.4,81.2c0-15.3,13.2-27.8,29.4-27.8c16.2,0,29.4,12.4,29.4,27.8c0,1.3,0,3,0,4.7h-1.6c0,0,0,0,0,0
		c0-15.3-12.4-27.8-27.8-27.8c-15.3,0-27.8,12.4-27.8,27.8c0,0.1,0,0.1,0,0.2h-1.5C221.3,83.7,221.4,81.6,221.4,81.2z"/>
	<path class="st27" d="M237.3,53.7L94.2,61.3l126.1,7.3C220.4,68.7,223.6,60.4,237.3,53.7z"/>
	<path class="st28" d="M296.3,73.9c2.9-0.1,3.4,4.7,3.4,4.7s1.3-6-1.4-7c-4.3,0.1-16.2,1.1-19.4,1.4
		C279.4,73.6,286.1,74.3,296.3,73.9z"/>
	<path class="st26" d="M298.1,56.1c-4.3,0-7,1.5-7-3.6c0-5.1,1.3-19.4-1.5-24.7c-2.8-5.3-9.4-15.1-9.4-15.1s1.3-1.1,4.7,3.8
		c3.4,4.9,13.4,20.2,13.4,21.7C298.3,39.7,299.2,56.1,298.1,56.1z"/>
	<path class="st29" d="M287.3,21.7c-2.1-3.5-4.5-7.1-5.6-8.7c0.7,0.5,1.8,1.5,3.2,3.5c0.6,0.9,1.5,2.1,2.4,3.6V21.7z"/>
	<path class="st29" d="M291.4,30.1v-3.8c3.5,5.5,6.9,11,6.9,11.9c0,0.6,0.1,3.7,0.2,7.1h-6.4C292.3,40.4,292.3,34.3,291.4,30.1z"/>
	<path class="st30" d="M291.9,51.7c0-0.6,0-1.4,0.1-2.3h6.7c0,0.8,0,1.6,0,2.3H291.9z"/>
	<path class="st27" d="M298.3,78.7c-1.1-8-0.2-22.1-1.4-30.2c1-3.2-4-9.5-6.1-12.7c-0.8-1.7-5.8-11.3-13.1-19.8
		c-0.1-0.1-0.1-0.1-0.2-0.2c-1.6-2-6.9-11.6-23.4-12.1c0,0-74.7,0.9-81,0.9c-0.6,0-1.1,0-1.6,0c-11.1,0-26.1,6-37.1,11L69.6,43.9
		c-6.8,3.1-26.5,7-30.8,8.1C5.6,60.5,4,70.7,3.1,76.1c-0.7,4.3-1.6,9.5-1.9,11.4c-1.4-3.1-1.6-5.8-0.1-6.4c0,0,1.2-6.9,2.1-12.2
		C4,63.5,5.6,53.4,38.8,44.8c4.3-1.1,24.2-4.7,30.9-7.8l64.6-28.5c11-5.1,26.6-6.8,37.7-6.8c0.5,0,1,0,1.6,0
		c6.3,0.1,73.3-1.5,79.8-1.3l1.2,0c16.5,0.5,21.3,6.3,22.9,8.3c0.1,0.1,0.1,0.2,0.2,0.2c7.3,8.4,12.2,18.1,13.1,19.8
		c2.1,3.1,7.1,9.5,6.1,12.7c1.3,8.1,0.3,22.2,1.4,30.2c1.9,0.5,2.1,4.1,1.3,8.4C299.3,79.3,298.9,78.9,298.3,78.7z"/>
	<path class="st8" d="M2.9,68.9c0,0,9.4-0.1,11.4-0.1c1.9,0,4.5-11.5,16.9-14.6C19.8,55.5,7.2,58,4.1,64.3C3,67.9,2.9,68.9,2.9,68.9
		z"/>
	<path class="st9" d="M5.3,65c2.7-5.3,12.1-8,21.8-9.5c-9,4.3-11.1,13.2-12.8,13.2c-1.5,0-7.3,0.1-10,0.1C4.4,68.2,4.7,67,5.3,65z"
		/>
	<path class="st31" d="M19.2,62.1c0,0-6.2-3-5.9-3.1c4-1.6,8.9-2.6,13.8-3.4C23.5,57.3,21,59.7,19.2,62.1z"/>
	<path class="st30" d="M16.4,66.2c-0.9,1.5-1.6,2.6-2.2,2.6c-1.5,0-7.3,0.1-10,0.1c0.1-0.5,0.3-1.4,0.7-2.7H16.4z"/>
	<path class="st8" d="M2.9,70.3h8.9c1.3,0,2.4,1.1,2.4,2.4c0,1.3-1.1,2.4-2.4,2.4H2.1C2.3,73.5,2.6,71.9,2.9,70.3z"/>
	<path class="st9" d="M3,72.7c0-1,0.8-1.8,1.8-1.8h8.6c0.5,0.4,0.8,1.1,0.8,1.8c0,0.7-0.3,1.4-0.8,1.8H4.8C3.8,74.5,3,73.7,3,72.7z"
		/>
	<g class="st32">
		<path class="st9" d="M254.1,3.8c10.7,0.3,14.7,3,16.3,4.7c-0.5,3.3-1.2,6.5-2,9.7L254.1,3.8z M264.5,30.6c0.8-2.2,1.6-4.5,2.3-6.8
			l-20-20c-2.4,0-5.4,0.1-8.8,0.2C246.8,12.9,255.6,21.7,264.5,30.6z M242.4,22c0.3,1.3,0.7,2.7,1,4c0.5,2.1,0.9,4.1,1.3,6.2
			l7.4-0.4C248.9,28.5,245.6,25.2,242.4,22z M179.1,11.8c0.1-0.7,0.2-1.5,0.3-2.2l-4.1-4.1c-0.8,0-1.6,0-2.4,0.1
			C174.9,7.7,177,9.8,179.1,11.8z M162.6,36.9l12.9-0.7L148.6,9.2c-2.3,0.7-4.4,1.5-6.2,2.5l-3.2,1.7C147,21.2,154.8,29,162.6,36.9z
			 M155,37.3l2.1-0.1l-21.8-21.8l-1.5,0.8L155,37.3z M209.7,34.1l21.8-1.2c-9.4-9.4-18.7-18.7-28.1-28.1c-7.9,0.2-15.2,0.3-20.2,0.4
			c-0.1,0.7-0.2,1.4-0.3,2L209.7,34.1z M201.8,34.6l2.4-0.1l-22.1-22.1c-0.1,0.7-0.2,1.4-0.3,2.2L201.8,34.6z M240,29.4
			c-0.2-0.9-0.4-1.7-0.6-2.6c-0.9-3.7-1.9-7.3-3-11c-3.9-3.9-7.7-7.7-11.6-11.6c-3.1,0.1-6.4,0.1-9.7,0.2
			C223.4,12.8,231.7,21.1,240,29.4z"/>
	</g>
	<g>
		<path class="st9" d="M131.2,12.1c-0.7,0.3-2.9,1.4-6.1,3c-0.6-0.6-1.3-1.2-1.9-1.9l11-4.8C136,7.7,136.6,9.5,131.2,12.1z
			 M90.9,32.1c0.9-0.4,1.9-0.9,3-1.4c-1-1.1-2.1-2.1-3.1-3.1l-3.1,1.3L90.9,32.1z M103.9,25.7c5.1-2.5,10.5-5.2,15.2-7.5l-2.1-2.1
			l-15.8,6.9C102,23.8,103,24.8,103.9,25.7z"/>
	</g>
</g>
</svg>
