<?xml version="1.0" encoding="utf-8"?>
<!-- Generator: Adobe Illustrator 21.1.0, SVG Export Plug-In . SVG Version: 6.00 Build 0)  -->
<svg version="1.1" id="圖層_2" xmlns="http://www.w3.org/2000/svg" xmlns:xlink="http://www.w3.org/1999/xlink" x="0px" y="0px"
	 viewBox="0 0 1200 2600" style="enable-background:new 0 0 1200 2600;" xml:space="preserve">
<style type="text/css">
	.st0{clip-path:url(#SVGID_2_);fill:#F5F5F5;}
	.st1{clip-path:url(#SVGID_2_);}
	.st2{fill:#202020;}
	.st3{clip-path:url(#SVGID_4_);fill:none;stroke:#000000;stroke-width:3;stroke-miterlimit:10;}
	.st4{clip-path:url(#SVGID_6_);fill:#202020;}
	.st5{clip-path:url(#SVGID_6_);fill:none;stroke:#000000;stroke-width:3;stroke-miterlimit:10;}
	.st6{clip-path:url(#SVGID_2_);fill:#618978;}
	.st7{clip-path:url(#SVGID_2_);fill:#FFF6D3;}
	.st8{clip-path:url(#SVGID_2_);fill:#FFAF00;}
	.st9{clip-path:url(#SVGID_2_);fill:#DECCBC;}
	.st10{clip-path:url(#SVGID_2_);fill:#99B0C0;}
	.st11{clip-path:url(#SVGID_2_);fill:#B1897A;}
</style>
<g>
	<defs>
		<rect id="SVGID_1_" width="1200" height="2600"/>
	</defs>
	<clipPath id="SVGID_2_">
		<use xlink:href="#SVGID_1_"  style="overflow:visible;"/>
	</clipPath>
	<path class="st0" d="M0,638.3c30.5-15.5,70.6-10.2,95.6,13.4c9.8,9.2,17.5,20.9,29.1,27.7c25,14.7,57.1,1.5,85.5,7.4
		c30.3,6.2,52.8,34.7,58.7,65.1c6,30.4,4.6,88.6-34.2,118.5c-16,12.3-36.5,15.8-56,20.7c-21.6,5.4-43.7,15.5-54.9,34.7
		c-7.9,13.5-17,20.3-30.2,28.8c-25,16-71.7,8.4-89-9c-1.6-1.6-3.1-3.4-4.5-5.3L0,638.3z"/>
	<path class="st0" d="M1200,1101.1c0,0-126-89.4-248.9,9.1c-66,55.9-43.7,122.9-41.6,169.6c1.4,31.8-2,63.4-3.8,95.1
		c-1.8,31.3,7,60.2,31.6,80.7c16.6,13.9,37.6,21.1,59,23.2c14.5,1.4,29.1,0.7,43.5-1.4c13.7-2,26.5-6.9,40.1-9.7
		c23.1-4.7,47.1-5.2,70.4-1.3c10.6,1.8,21.4,4.1,31.8,7.2c5.2,1.6,14.7,3.5,18,8.4V1101.1z"/>
	<g class="st1">
		<path class="st2" d="M1200,390.4c0,0-12.3-13.4-28.8-4.1c-16.5,9.3-6.2,25.7-13.4,37c-7.2,11.3-37,37-15.4,63.8s57.6,5.7,57.6,5.7
			V390.4z"/>
		<g>
			<defs>
				<path id="SVGID_3_" d="M1200,390.4c0,0-12.3-13.4-28.8-4.1c-16.5,9.3-6.2,25.7-13.4,37c-7.2,11.3-37,37-15.4,63.8
					s57.6,5.7,57.6,5.7V390.4z"/>
			</defs>
			<clipPath id="SVGID_4_">
				<use xlink:href="#SVGID_3_"  style="overflow:visible;"/>
			</clipPath>
			<path class="st3" d="M1188.8,381.3c4.3,7.2,6.6,15.6,6.4,24c-0.2,6.8-1.9,13.4-2.6,20.1c-0.7,6.5-0.5,13.4,2.5,19.3
				c3.1,6.3,9.1,10.8,15.5,13.5c6.4,2.8,13.4,4,20.3,5.2"/>
			<path class="st3" d="M1150,416.9c5.4,1,11.3,2.3,14.8,6.6c1.8,2.1,2.7,4.7,3.6,7.3c2.4,7.3,4.1,14.9,7,22c1.3,3.2,3,6.4,5.6,8.8
				c3.7,3.3,8.9,4.5,13.8,4.8s10-0.2,14.9,0.5"/>
			<path class="st3" d="M1214,490.1c-14.2-7.8-28.5-15.8-40.8-26.4c-7.1-6.2-13.5-13.2-20.6-19.4c-3.3-2.9-6.7-5.7-9.3-9.3
				c-2.6-3.6-4.2-8-3.3-12.4"/>
			<path class="st3" d="M1132.8,447.5c6,13.5,15.4,26.4,29,32.3c5.2,2.2,10.9,3.4,15.9,6.2c5.6,3.1,9.9,8.2,13.1,13.7
				s5.4,11.6,7.6,17.6"/>
			<path class="st3" d="M1127.4,472c10.8,2.5,20.8,8.1,28.6,16c7.8,7.8,13.4,17.9,15.9,28.6"/>
		</g>
	</g>
	<g class="st1">
		<defs>
			<path id="SVGID_5_" d="M0,1822.7c20.1,18.9,30.2,48,50.7,67.2c10.3,9.6,22.8,16.4,34.5,24.2s23.1,17,29.3,29.6
				c5.9,12,6.7,25.8,6.7,39.1c0.1,17.9-1.2,37.1-11.8,51.5c-9.4,12.7-24.7,19.7-40.1,22.9c-15.4,3.2-31.3,3-47.1,4.2
				c-7.4,0.5-14.8,1.4-22,3L0,1822.7z"/>
		</defs>
		<clipPath id="SVGID_6_">
			<use xlink:href="#SVGID_5_"  style="overflow:visible;"/>
		</clipPath>
		<path class="st4" d="M0,1822.7c20.1,18.9,30.2,48,50.7,67.2c10.3,9.6,22.8,16.4,34.5,24.2s23.1,17,29.3,29.6
			c5.9,12,6.7,25.8,6.7,39.1c0.1,17.9-1.2,37.1-11.8,51.5c-9.4,12.7-24.7,19.7-40.1,22.9c-15.4,3.2-31.3,3-47.1,4.2
			c-7.4,0.5-14.8,1.4-22,3L0,1822.7z"/>
		<path class="st5" d="M54.5,1868.7c-6.7,2.7-13.5,5.4-19.6,9.4s-11.5,9.3-14.4,15.9s-2.9,14.8,1,20.9c4.5,7.1,13.3,10.3,21.7,10.7
			c5.5,0.3,11.3-0.5,16-3.5c4.6-2.9,7.7-7.7,9.6-12.7s2.7-10.5,3.6-15.8"/>
		<path class="st5" d="M43,1860.4c-6.7,6.2-16.1,8.1-24.8,10.9c-8.7,2.8-17.8,7.6-20.8,16.2c-2.2,6.3-0.4,13.5,3.3,19.1
			s9,9.9,14.4,13.8c5.4,3.9,11.1,7.6,15.8,12.4c3.6,3.7,6.8,8.1,11.6,10c6.9,2.7,14.7-0.7,20.4-5.5c11.4-9.5,17.9-24.6,17.1-39.4"/>
		<path class="st5" d="M27.6,1852.3c-10.6,9-26.8,9.4-36.8,19.1c-7.9,7.7-9.9,20-7.6,30.8s8.6,20.4,15.3,29.1
			c3.8,5,8.1,9.9,13.8,12.4c5.2,2.2,11,2.1,16.4,3.5c7.1,1.8,13.5,6.2,20.8,7.2c11.9,1.7,23.6-6,30.1-16
			c6.6-10.1,9.1-22.2,11.4-33.9"/>
		<path class="st5" d="M-13.1,2080.9c2.7-13.6,9.9-26.8,21.3-34.6c12-8.2,27.1-9.7,41.5-11.8s29.6-5.6,39.4-16.3
			c7.8-8.5,11.3-20.8,20.4-27.9c6.7-5.3,15.6-7,24.1-6.5s16.7,3,24.8,5.5"/>
		<path class="st5" d="M54.9,2079.7c-0.7-11.5,6.5-22,15-29.8c18.4-16.9,44.4-25.2,69.2-22.2c4.2,0.5,8.6,1.4,12,4.1"/>
		<path class="st5" d="M-36.2,1987.8c32.4,7.2,66.1,1.8,98.8-3.6c8.9-1.5,18.6-3.4,24.4-10.3c5.1-6,6-14.3,8.2-21.8
			c2.7-8.9,7.5-17.2,14-23.8c1.6-1.6,3.5-3.3,5.7-3.4c2.3-0.1,4.7,2.2,3.8,4.3"/>
		<path class="st5" d="M-18.4,1959c7.1,6.5,16.5,10.1,26.1,11.6s19.2,1.1,28.9,0.7c9-0.4,18.4-0.8,26.4-5c6.3-3.3,11.3-8.7,16.1-14
			c5.6-6.2,11.4-12.5,14.1-20.4c1.3-3.8,2-7.8,4-11.3c2-3.4,6.2-6.1,10-4.8"/>
		<path class="st5" d="M28.9,1845.4c-10.1,1.8-20.2,3.6-30.3,5.5c-4.4,0.8-8.9,1.6-12.7,3.9s-6.9,6.3-6.8,10.8"/>
		<path class="st5" d="M28.2,1833c-16.2-1.5-32.9,4.1-45,15"/>
	</g>
	<path class="st6" d="M84.1,2028.3c0,0.7,0.1,1.5,0.1,2.2C84.8,2029.8,85,2029,84.1,2028.3z"/>
	<path class="st7" d="M104.1,2065.4c-0.2-0.3-0.5-0.7-0.7-1C103.2,2065.2,103.4,2065.5,104.1,2065.4z"/>
	<path class="st8" d="M25.4,2079c-0.1-0.2-0.1-0.4-0.2-0.6c0,0.7,0,1.3-0.1,2c0.1,0,0.1,0,0.2,0C25.3,2079.9,25.4,2079.5,25.4,2079z
		"/>
	<path class="st6" d="M93,2092.4c0.1-0.5,0.1-1.1,0.2-1.6c-1-0.1-1.5,0.6-1.5,2.3C92.1,2092.9,92.5,2092.7,93,2092.4z"/>
	<path class="st8" d="M11.6,2113.1c0.1,0.1,0.3,0.2,0.4,0.3c0.1-0.2,0.2-0.3,0.3-0.5C12.1,2113,11.8,2113,11.6,2113.1z"/>
	<path class="st9" d="M68.9,2070.8c0.7-0.6,0.9-1.4,0.5-2.6c-0.5,0.6-1,1.1-1.5,1.7C68.2,2070.2,68.5,2070.5,68.9,2070.8z"/>
	<path class="st10" d="M22.3,2107.5c-0.6,0.8-1.2,1.6-1.7,2.4c2.3,1,1.5,0.3,3.4-2.9C23.5,2107.2,22.9,2107.3,22.3,2107.5z"/>
	<path class="st10" d="M33.5,2060.1c-0.5,0.7-0.9,1.5-1.3,2.2c2.1,0.7,1.3,0.1,2.8-2.8C34.4,2059.8,33.9,2060,33.5,2060.1z"/>
	<path class="st9" d="M74.2,2028.7c-1.3-0.2-2.6-0.4-3.9-0.5c0,0.1,0,0.2,0,0.3c-5.4,0,1.1,4.2,4.9,3.6
		C74.9,2030.9,74.5,2029.8,74.2,2028.7z"/>
	<path class="st7" d="M15,2066.5c0.3,0.1,0.6,0.2,0.9,0.3c0.1-0.2,0.2-0.4,0.2-0.5c-0.7-0.1-1.4-0.2-2.1-0.4
		C14.4,2066.1,14.7,2066.3,15,2066.5z"/>
	<path class="st10" d="M30.2,2026.5c0.2,0.4,0.4,0.7,0.7,1c0-0.4,0-0.8-0.1-1.2C30.5,2026.2,30.3,2026.3,30.2,2026.5z"/>
	<path class="st11" d="M52.7,2027.8c0.1,0.3,0.1,0.5,0.2,0.8C53.1,2028.3,53,2028.1,52.7,2027.8z"/>
	<path class="st11" d="M58.9,2032.4c-1.2,1.5-2.3,3.1-3.2,4.8c2.7,2.6,5.1,1.9,7.1-2.1c-0.9-1.1-1.8-2.2-2.5-3.4
		C59.8,2031.9,59.4,2032.2,58.9,2032.4z"/>
	<path class="st7" d="M75.2,2078.6c0.6,3.1,4.2,2.1,2.3-1.6C76.7,2077.6,75.9,2078.1,75.2,2078.6z"/>
	<path class="st7" d="M99,2055.1c0.4,0.3,0.7,0.5,1.1,0.8c0-0.7,0-1.4-0.1-2C99.7,2054.3,99.4,2054.7,99,2055.1z"/>
	<path class="st7" d="M21,2096.5c-0.3-0.4-0.5-0.7-0.8-1.1c-0.2,0.6-0.4,1.1-0.6,1.7c0.4,0.2,0.8,0.4,1.3,0.5
		C20.9,2097.3,21,2096.9,21,2096.5z"/>
	<path class="st9" d="M47.8,2097.3c-0.5-0.9-1.2-1.9-1.9-2.7c0.2,1.4,0.3,2.9,0.1,4.1c0.6,0.1,1.2,0.1,1.8,0.2
		C47.7,2098.3,47.7,2097.8,47.8,2097.3z"/>
	<path class="st7" d="M78.2,2052.4c0.9-3.9-3.8-2.3-5.3-1.2C75.3,2053.4,77,2053.9,78.2,2052.4z"/>
	<path class="st8" d="M51.7,2050.7c-0.4,0.4-0.9,0.7-1.3,1c0.6,1.2,1.3,2.5,1.9,3.7C53.6,2054,53.4,2052.4,51.7,2050.7z"/>
	<path class="st10" d="M77.5,2101.2c0.2,0,0.4-0.1,0.6-0.1c0,0.2-0.1,0.4-0.2,0.7c0.2,0,0.5,0,0.7,0c-0.5-1.3-0.9-2.5-1.4-3.8
		c-0.3,0.1-0.6,0.1-0.9,0.2C76.8,2099.2,77.2,2100.2,77.5,2101.2z"/>
	<path class="st8" d="M13.8,2087.5c-0.5,0.1-0.9,0.1-1.4,0.2C13.2,2088.1,13.7,2088.1,13.8,2087.5z"/>
	<path class="st9" d="M54.2,2102.9c-0.5,0.1-0.9,0.3-1.4,0.4c0.5,1.1,1.1,1.3,1.8,0.8C54.5,2103.7,54.3,2103.3,54.2,2102.9z"/>
	<path class="st7" d="M50.8,2073.2c0.3-0.7,0.6-1.4,0.8-2c-1.1,0.2-2.2,0.4-3.3,0.6C48.9,2072.9,49.8,2073.4,50.8,2073.2z"/>
	<path class="st7" d="M101.8,2079.5c0.3,0.1,0.6,0.2,1,0.3c0.3-2,0.5-4,0.7-6c-0.3-0.1-0.6-0.2-0.8-0.2
		C102.4,2075.6,102.1,2077.6,101.8,2079.5z"/>
	<path class="st8" d="M42.4,2088.6c0.4-1.4,0.2-2.5-0.7-3.3C41.9,2086.5,42.2,2087.6,42.4,2088.6z"/>
	<path class="st8" d="M52.6,2088c0.3,0.4,0.7,0.9,1,1.3C53.6,2088.4,53.3,2088,52.6,2088z"/>
	<path class="st8" d="M59.4,2121.1c-0.1,0.2-0.2,0.3-0.3,0.5c0.2,0.1,0.3,0.2,0.5,0.3c0.1-0.2,0.2-0.3,0.4-0.5
		C59.8,2121.3,59.6,2121.2,59.4,2121.1z"/>
	<path class="st9" d="M27.2,2120c0.4-0.2,0.9-0.3,1.3-0.5c-0.1-0.3-0.1-0.6-0.2-0.9C27.9,2119,27.6,2119.5,27.2,2120z"/>
	<path class="st6" d="M9.6,2046.9c0.1-0.1,0.2-0.2,0.3-0.3c-0.1,0-0.2,0.1-0.3,0.1C9.6,2046.7,9.6,2046.8,9.6,2046.9z"/>
	<path class="st7" d="M43.5,2026.4c-0.4-0.8-0.8-1.5-1.1-2.3C41.9,2024.9,42.3,2025.7,43.5,2026.4z"/>
	<path class="st7" d="M40.5,2034.9c0,0.4,0,0.7,0.1,1.1c1.5-0.2,3-0.3,4.5-0.3C43.7,2034.5,42.2,2034.3,40.5,2034.9z"/>
	<path class="st7" d="M63.2,2107.4c0,0.3,0.1,0.6,0.1,1c0-0.4,0-0.7,0-1.1C63.3,2107.3,63.3,2107.3,63.2,2107.4z"/>
	<path class="st7" d="M42,2134.9c0,0.1,0,0.2,0,0.3c0.1,0,0.1-0.1,0.2-0.1C42.2,2135,42.1,2135,42,2134.9z"/>
	<path class="st10" d="M82.3,2042.9c2.4-0.6,3-1.9,2-3.7C83.6,2040.4,82.9,2041.7,82.3,2042.9z"/>
	<path class="st8" d="M67.1,2059c0.2-0.1,0.3-0.3,0.4-0.4c-0.2-0.2-0.4-0.4-0.6-0.6C67,2058.3,67.1,2058.6,67.1,2059z"/>
	<path class="st8" d="M88.1,2081c0.2-0.1,0.4-0.2,0.7-0.2c-0.1-0.3-0.3-0.6-0.4-0.9C88.3,2080.2,88.2,2080.6,88.1,2081z"/>
	<path class="st7" d="M33.9,2045.4c-4-1-2.7-1.5-5.3,2.5c1.3,0.6,2.7,1.2,4,1.8C33.1,2048.3,33.5,2046.9,33.9,2045.4z"/>
	<path class="st8" d="M41.8,2073.8c-1.1-3.3-0.1-2.6-4-2.6c0.2,1.2,0.4,2.4,0.5,3.6C39.5,2074.5,40.7,2074.2,41.8,2073.8z"/>
	<path class="st9" d="M48.1,2124.1c-0.7,0.9-1.5,1.7-2.2,2.6c0.8-0.1,1.7-0.1,2.5-0.2C48.3,2125.7,48.2,2124.9,48.1,2124.1z"/>
	<path class="st9" d="M64.6,2082.4C64.6,2082.4,64.6,2082.4,64.6,2082.4c0.8,1.4,2,1,3.6-1.1c0,0,0-0.1-0.1-0.1
		C66.8,2081.8,65.7,2082.3,64.6,2082.4z"/>
	<path class="st8" d="M79.4,2089.8c-0.1,0-0.2,0.1-0.2,0.1c0,0,0.1,0,0.1,0.1C79.4,2089.9,79.4,2089.9,79.4,2089.8z"/>
	<path class="st7" d="M17.4,2077.3c-1.4,0.7-2.5,0.7-2.9,2c1.1-0.3,2.1-0.6,3.1-0.9C17.6,2077.9,17.5,2077.6,17.4,2077.3z"/>
	<path class="st9" d="M18.5,2041.1c-0.1,0-0.3,0.1-0.4,0.1c0.2,0,0.4,0,0.5-0.1C18.6,2041.2,18.6,2041.1,18.5,2041.1z"/>
	<path class="st10" d="M10.8,2057.4c-0.5-0.5-1-1.1-1.5-1.6c-0.1,0.6-0.1,1.3-0.2,1.9C9.7,2057.5,10.3,2057.5,10.8,2057.4z"/>
	<path class="st8" d="M21.1,2054.1c0.1,1.5,0.9,1.9,2.3,1.2C23.3,2054.2,22.6,2053.8,21.1,2054.1z"/>
	<path class="st8" d="M5.9,2078.2c-0.1-0.2-0.3-0.4-0.4-0.6C5.6,2077.9,5.8,2078.1,5.9,2078.2C5.9,2078.3,5.9,2078.3,5.9,2078.2z"/>
	<path class="st7" d="M86.1,2051.5c1.2,0.8,2.4,1.6,3.6,2.3c0.2-1.2,0.4-2.4,0.6-3.6c-1.2-0.3-2.5-0.7-3.7-1
		C86.4,2050,86.3,2050.8,86.1,2051.5z"/>
	<path class="st7" d="M43.8,2105.1c-1.8-2.1-4-3.3-6.4-3.7c0.9,1.7,1.9,3.5,2.8,5.3C41.4,2106.2,42.6,2105.6,43.8,2105.1z"/>
	<path class="st7" d="M33.5,2102.2c-0.9-4.3-0.9-3.4-5.7-2.6C28.2,2102.6,30.1,2103.5,33.5,2102.2z"/>
	<path class="st7" d="M0.9,2103.4c-0.7,0.2-1.4,0.4-2.2,0.5c2.7,5.5,6.8,6.8,12.6,3.8C10.9,2103.8,7.4,2102.4,0.9,2103.4z"/>
	<path class="st8" d="M30.1,2086.1l0.2,2.1c0.7-0.8,1.3-1.5,2-2.3C31.6,2085.9,30.9,2086,30.1,2086.1z"/>
	<path class="st7" d="M3.8,2067.7l0,0.1c0.1,0,0.3-0.1,0.4-0.1C4,2067.7,3.9,2067.7,3.8,2067.7z"/>
	<path class="st7" d="M55.1,2084c2.1,0.5,3.1,0,4.9-1c-1.5-3.1-3.2-6.2-2.6-8.3c-1.9,0-3.7,0.1-5.6,0.1
		C51.2,2078.1,52.2,2081.2,55.1,2084z"/>
	<path class="st7" d="M9.6,2097.8c0.1,0,0.3,0.1,0.4,0.1c-0.1-0.2-0.2-0.3-0.3-0.5C9.7,2097.6,9.7,2097.7,9.6,2097.8z"/>
	<path class="st7" d="M76.2,2121.1c0.1,0.1,0.1,0.2,0.2,0.3c0-0.1,0.1-0.3,0.1-0.4C76.4,2121,76.3,2121.1,76.2,2121.1z"/>
	<path class="st8" d="M47.1,2114.8c2,0,3.6-0.7,4.7-2.1C50.2,2111.8,48.6,2112.5,47.1,2114.8z"/>
	<path class="st10" d="M31.3,2037.5c0.3,0.3,0.6,0.7,0.9,1c0.2-0.3,0.5-0.6,0.7-0.9C32.6,2037,32,2037,31.3,2037.5z"/>
	<path class="st10" d="M48.2,2043.4c0.2,0,0.3,0,0.5,0c0-0.2,0.1-0.4,0.1-0.6C48.6,2043,48.4,2043.2,48.2,2043.4z"/>
	<path class="st8" d="M71.1,2113.3c0.7-1,1.4-1.9,2.1-2.9c-1.1,0.4-2.2,0.8-3.3,1.3C70,2112.5,70.4,2113,71.1,2113.3z"/>
	<path class="st7" d="M68.5,2042c0-0.2-0.1-0.4-0.1-0.6c-0.1,0.2-0.2,0.4-0.3,0.6C68.2,2042,68.3,2042,68.5,2042z"/>
	<path class="st8" d="M58.1,2049.8c1,0.7,2,1.3,3,2c0.5-0.7,1-1.4,1.5-2.1C60.7,2047.4,59.2,2047.5,58.1,2049.8z"/>
	<path class="st8" d="M15.8,2030.8c0.7,0.8,1.3,1.6,1.9,2.5c1.6-1.2,0.1-3.4-1.5-4C16.1,2029.8,16,2030.3,15.8,2030.8z"/>
	<path class="st11" d="M16.5,2119.9c0.7,1.6,1.3,3.2,2,4.8c0.6-1.1,1.4-2.2,2.1-3.2c-0.9-0.9-1.8-1.8-2.7-2.7
		C17.5,2119.1,17,2119.5,16.5,2119.9z"/>
	<path class="st10" d="M83.4,2109c-1.4-2.3-3.5-2.3-6.2,0.1C78.5,2111.4,81.3,2110.3,83.4,2109z"/>
	<path class="st8" d="M2.4,2086.6c-1.1-0.3-1.8,0-2.3,0.9c0.6,0.7,1.2,1.4,1.8,2.1C2.1,2088.6,2.3,2087.6,2.4,2086.6z"/>
	<path class="st6" d="M88.9,2064.2c0.2-1.1-0.2-1.8-1.1-2.2c-0.6,0.7-1.3,1.4-1.9,2.1C86.9,2064.2,87.9,2064.2,88.9,2064.2z"/>
	<path class="st9" d="M40.1,2053c0.2-0.3,0.4-0.7,0.6-1c-0.3,0.1-0.6,0.2-0.8,0.4C40,2052.6,40.1,2052.8,40.1,2053z"/>
	<path class="st7" d="M37.1,2115.4c-0.3-0.4-0.6-0.7-0.9-1.1c0,0.5,0,1.1,0,1.6C36.5,2115.8,36.8,2115.6,37.1,2115.4z"/>
	<path class="st8" d="M74.4,2068.3c-0.4,0.4-0.9,0.7-1.4,1.1c3.4-0.1,7.3-0.2,11.2,0C82.9,2064.6,79.6,2064.3,74.4,2068.3z"/>
	<path class="st10" d="M28.1,2068.1c-1.1,0.9-1.3,1.9-0.5,2.9C27.7,2070,27.9,2069,28.1,2068.1z"/>
	<path class="st8" d="M50.2,2062.2c-1.3-0.7-2.7-1.3-4.1-1.7C46.7,2061,49.6,2065.1,50.2,2062.2z"/>
	<path class="st7" d="M63.9,2094.4c-0.2,0.2-0.4,0.3-0.6,0.5c0.3,0.1,0.7,0.2,1,0.3C64.2,2094.9,64.1,2094.7,63.9,2094.4z"/>
	<path class="st10" d="M95.2,2070.1c-0.2-0.2-0.4-0.4-0.6-0.6c-1.2,0.9-2,2-2.4,3.3c0.8,0.3,1.6,0.6,2.4,0.9
		C94.8,2072.4,95.1,2071.3,95.2,2070.1z"/>
	<path class="st6" d="M59.3,2066.6c0.1-0.1,0.1-0.2,0.2-0.2c0,0-0.1,0-0.1,0C59.3,2066.4,59.3,2066.5,59.3,2066.6z"/>
</g>
</svg>
