<?xml version="1.0" encoding="utf-8"?>
<!-- Generator: Adobe Illustrator 21.1.0, SVG Export Plug-In . SVG Version: 6.00 Build 0)  -->
<svg version="1.1" xmlns="http://www.w3.org/2000/svg" xmlns:xlink="http://www.w3.org/1999/xlink" x="0px" y="0px"
	 viewBox="0 0 228 45" style="enable-background:new 0 0 228 45;" xml:space="preserve">
<style type="text/css">
	.st0{fill:#CBCBCB;}
	.st1{fill:#F5F5F5;}
	.st2{fill:#CCCCCC;}
	.st3{fill:#FFC0A7;}
	.st4{fill:#FEC0A7;}
</style>
<g id="灰色">
	<g>
		<path class="st0" d="M26.4,5.2c-2,0.1-4,0.3-6,0.8c-2.8,0.6-5.5,1.6-7.8,3.2c-2.4,1.7-4.1,4.2-4.8,7C5,28.7,0.3,42.5,17.3,43.4
			s169.4,3,197.5,0c9-1,13-2.9,12-6.7c-0.8-2.9-2-5.7-1-9.5c0.8-2.9,1.5-5.8,1.9-8.8c0.2-1.8,0.4-3.7,0.2-5.6
			c-0.2-1.8-0.7-4.1-2.4-5.2c-1.8-1.2-4.1-1.5-6.2-1.5c-2.9,0-5.8,0.1-8.6,0c-1.6,0-3.2,0-4.8,0c-1.8,0-3.7,0-5.5,0
			c-2.1,0-4.1,0-6.2-0.1c-2.2,0-4.5,0-6.7-0.1c-2.4,0-4.8,0-7.2-0.1c-2.5,0-5.1,0-7.6-0.1c-2.7,0-5.3,0-8-0.1c-2.8,0-5.5,0-8.3-0.1
			c-2.8,0-5.7,0-8.5-0.1c-2.9,0-5.8,0-8.7-0.1c-2.9,0-5.9,0-8.8-0.1c-3,0-5.9,0-8.9-0.1c-2.9,0-5.9,0-8.8-0.1c-2.9,0-5.8,0-8.8-0.1
			c-2.9,0-5.7,0-8.6-0.1c-2.8,0-5.6,0-8.4-0.1c-2.7,0-5.4,0-8.1,0c-2.6,0-5.2,0-7.8,0c-2.5,0-4.9,0-7.4,0c-2.3,0-4.6,0-6.9,0
			c-2.1,0-4.2,0-6.4,0c-1.9,0-3.8,0-5.8,0c-1.7,0-3.4,0-5.1,0c-1.5,0-2.9,0-4.4,0c-1.2,0-2.4,0-3.6,0C29.8,5.1,28,5.1,26.4,5.2z"/>
		<path class="st1" d="M21.4,0.2c-2,0.1-4,0.3-6,0.8c-2.8,0.6-5.5,1.6-7.8,3.2c-2.4,1.7-4.1,4.2-4.8,7C0,23.7-4.7,37.5,12.3,38.4
			s169.4,3,197.5,0c9-1,13-2.9,12-6.7c-0.8-2.9-2-5.7-1-9.5c0.8-2.9,1.5-5.8,1.9-8.8c0.2-1.8,0.4-3.7,0.2-5.6
			c-0.2-1.8-0.7-4.1-2.4-5.2c-1.8-1.2-4.1-1.5-6.2-1.5c-2.9,0-5.8,0.1-8.6,0c-1.6,0-3.2,0-4.8,0c-1.8,0-3.7,0-5.5,0
			c-2.1,0-4.1,0-6.2-0.1c-2.2,0-4.5,0-6.7-0.1c-2.4,0-4.8,0-7.2-0.1c-2.5,0-5.1,0-7.6-0.1c-2.7,0-5.3,0-8-0.1c-2.8,0-5.5,0-8.3-0.1
			c-2.8,0-5.7,0-8.5-0.1c-2.9,0-5.8,0-8.7-0.1c-2.9,0-5.9,0-8.8-0.1c-3,0-5.9,0-8.9-0.1c-2.9,0-5.9,0-8.8-0.1c-2.9,0-5.8,0-8.8-0.1
			c-2.9,0-5.7,0-8.6-0.1c-2.8,0-5.6,0-8.4-0.1c-2.7,0-5.4,0-8.1,0c-2.6,0-5.2,0-7.8,0c-2.5,0-4.9,0-7.4,0c-2.3,0-4.6,0-6.9,0
			c-2.1,0-4.2,0-6.4,0c-1.9,0-3.8,0-5.8,0c-1.7,0-3.4,0-5.1,0c-1.5,0-2.9,0-4.4,0c-1.2,0-2.4,0-3.6,0C24.8,0.1,23,0.1,21.4,0.2z"/>
	</g>
</g>
<g id="粉橘">
	<g>
		<path class="st0" d="M26.4,5.2c-2,0.1-4,0.3-6,0.8c-2.8,0.6-5.5,1.6-7.8,3.2c-2.4,1.7-4.1,4.2-4.8,7C5,28.7,0.3,42.5,17.3,43.4
			s169.4,3,197.5,0c9-1,13-2.9,12-6.7c-0.8-2.9-2-5.7-1-9.5c0.8-2.9,1.5-5.8,1.9-8.8c0.2-1.8,0.4-3.7,0.2-5.6
			c-0.2-1.8-0.7-4.1-2.4-5.2c-1.8-1.2-4.1-1.5-6.2-1.5c-2.9,0-5.8,0.1-8.6,0c-1.6,0-3.2,0-4.8,0c-1.8,0-3.7,0-5.5,0
			c-2.1,0-4.1,0-6.2-0.1c-2.2,0-4.5,0-6.7-0.1c-2.4,0-4.8,0-7.2-0.1c-2.5,0-5.1,0-7.6-0.1c-2.7,0-5.3,0-8-0.1c-2.8,0-5.5,0-8.3-0.1
			c-2.8,0-5.7,0-8.5-0.1c-2.9,0-5.8,0-8.7-0.1c-2.9,0-5.9,0-8.8-0.1c-3,0-5.9,0-8.9-0.1c-2.9,0-5.9,0-8.8-0.1c-2.9,0-5.8,0-8.8-0.1
			c-2.9,0-5.7,0-8.6-0.1c-2.8,0-5.6,0-8.4-0.1c-2.7,0-5.4,0-8.1,0c-2.6,0-5.2,0-7.8,0c-2.5,0-4.9,0-7.4,0c-2.3,0-4.6,0-6.9,0
			c-2.1,0-4.2,0-6.4,0c-1.9,0-3.8,0-5.8,0c-1.7,0-3.4,0-5.1,0c-1.5,0-2.9,0-4.4,0c-1.2,0-2.4,0-3.6,0C29.8,5.1,28,5.1,26.4,5.2z"/>
		<path class="st3" d="M21.4,0.2c-2,0.1-4,0.3-6,0.8c-2.8,0.6-5.5,1.6-7.8,3.2c-2.4,1.7-4.1,4.2-4.8,7C0,23.7-4.7,37.5,12.3,38.4
			s169.4,3,197.5,0c9-1,13-2.9,12-6.7c-0.8-2.9-2-5.7-1-9.5c0.8-2.9,1.5-5.8,1.9-8.8c0.2-1.8,0.4-3.7,0.2-5.6
			c-0.2-1.8-0.7-4.1-2.4-5.2c-1.8-1.2-4.1-1.5-6.2-1.5c-2.9,0-5.8,0.1-8.6,0c-1.6,0-3.2,0-4.8,0c-1.8,0-3.7,0-5.5,0
			c-2.1,0-4.1,0-6.2-0.1c-2.2,0-4.5,0-6.7-0.1c-2.4,0-4.8,0-7.2-0.1c-2.5,0-5.1,0-7.6-0.1c-2.7,0-5.3,0-8-0.1c-2.8,0-5.5,0-8.3-0.1
			c-2.8,0-5.7,0-8.5-0.1c-2.9,0-5.8,0-8.7-0.1c-2.9,0-5.9,0-8.8-0.1c-3,0-5.9,0-8.9-0.1c-2.9,0-5.9,0-8.8-0.1c-2.9,0-5.8,0-8.8-0.1
			c-2.9,0-5.7,0-8.6-0.1c-2.8,0-5.6,0-8.4-0.1c-2.7,0-5.4,0-8.1,0c-2.6,0-5.2,0-7.8,0c-2.5,0-4.9,0-7.4,0c-2.3,0-4.6,0-6.9,0
			c-2.1,0-4.2,0-6.4,0c-1.9,0-3.8,0-5.8,0c-1.7,0-3.4,0-5.1,0c-1.5,0-2.9,0-4.4,0c-1.2,0-2.4,0-3.6,0C24.8,0.1,23,0.1,21.4,0.2z"/>
	</g>
</g>
</svg>
