<?xml version="1.0" encoding="utf-8"?>
<!-- Generator: Adobe Illustrator 21.1.0, SVG Export Plug-In . SVG Version: 6.00 Build 0)  -->
<svg version="1.1" id="圖層_1" xmlns="http://www.w3.org/2000/svg" xmlns:xlink="http://www.w3.org/1999/xlink" x="0px" y="0px"
	 viewBox="0 0 165 45" style="enable-background:new 0 0 165 45;" xml:space="preserve">
<style type="text/css">
	.st0{fill:#CBCBCB;}
	.st1{fill:#F5F5F5;}
	.st2{fill:#CCCCCC;}
</style>
<g>
	<path class="st2" d="M23,5.9c0,0-15.4,1-16.8,9.8S2,44.1,16,44.1s117.8,2,131.8,0c14-2,16.8-4.9,15.4-9.8
		c-1.4-4.9,1.4-17.7,1.4-20.6s4.2-7.8-18.2-7.8S41.3,3.9,23,5.9z"/>
	<path class="st1" d="M18,0.9c0,0-15.4,1-16.8,9.8S-3,39.1,11,39.1s117.8,2,131.8,0c14-2,16.8-4.9,15.4-9.8
		c-1.4-4.9,1.4-17.7,1.4-20.6s4.2-7.8-18.2-7.8S36.3-1.1,18,0.9z"/>
</g>
</svg>
