<?xml version="1.0" encoding="utf-8"?>
<!-- Generator: Adobe Illustrator 21.1.0, SVG Export Plug-In . SVG Version: 6.00 Build 0)  -->
<svg version="1.1" id="圖層_1" xmlns="http://www.w3.org/2000/svg" xmlns:xlink="http://www.w3.org/1999/xlink" x="0px" y="0px"
	 viewBox="0 0 1200 2907" style="enable-background:new 0 0 1200 2907;" xml:space="preserve">
<style type="text/css">
	.st0{clip-path:url(#SVGID_2_);}
	.st1{fill:#202020;}
	.st2{clip-path:url(#SVGID_4_);fill:none;stroke:#000000;stroke-width:3;stroke-miterlimit:10;}
	.st3{clip-path:url(#SVGID_6_);fill:#202020;}
	.st4{clip-path:url(#SVGID_6_);fill:none;stroke:#000000;stroke-width:3;stroke-miterlimit:10;}
	.st5{clip-path:url(#SVGID_2_);fill:#618978;}
	.st6{clip-path:url(#SVGID_2_);fill:#FFF6D3;}
	.st7{clip-path:url(#SVGID_2_);fill:#FFAF00;}
	.st8{clip-path:url(#SVGID_2_);fill:#DECCBC;}
	.st9{clip-path:url(#SVGID_2_);fill:#99B0C0;}
	.st10{clip-path:url(#SVGID_2_);fill:#B1897A;}
	.st11{clip-path:url(#SVGID_2_);fill:#F5F5F5;}
</style>
<g>
	<defs>
		<rect id="SVGID_1_" width="1200" height="2907"/>
	</defs>
	<clipPath id="SVGID_2_">
		<use xlink:href="#SVGID_1_"  style="overflow:visible;"/>
	</clipPath>
	<g class="st0">
		<path class="st1" d="M1200,561.4c0,0-12.3-13.4-28.8-4.1c-16.5,9.3-6.2,25.7-13.4,37c-7.2,11.3-37,37-15.4,63.8
			c21.6,26.8,57.6,5.7,57.6,5.7V561.4z"/>
		<g>
			<defs>
				<path id="SVGID_3_" d="M1200,561.4c0,0-12.3-13.4-28.8-4.1c-16.5,9.3-6.2,25.7-13.4,37c-7.2,11.3-37,37-15.4,63.8
					c21.6,26.8,57.6,5.7,57.6,5.7V561.4z"/>
			</defs>
			<clipPath id="SVGID_4_">
				<use xlink:href="#SVGID_3_"  style="overflow:visible;"/>
			</clipPath>
			<path class="st2" d="M1188.8,552.3c4.3,7.2,6.6,15.6,6.4,24c-0.2,6.8-1.9,13.4-2.6,20.1c-0.7,6.5-0.5,13.4,2.5,19.3
				c3.1,6.3,9.1,10.8,15.5,13.5c6.4,2.8,13.4,4,20.3,5.2"/>
			<path class="st2" d="M1150,587.9c5.4,1,11.3,2.3,14.8,6.6c1.8,2.1,2.7,4.7,3.6,7.3c2.4,7.3,4.1,14.9,7,22c1.3,3.2,3,6.4,5.6,8.8
				c3.7,3.3,8.9,4.5,13.8,4.8s10-0.2,14.9,0.5"/>
			<path class="st2" d="M1214,661.1c-14.2-7.8-28.5-15.8-40.8-26.4c-7.1-6.2-13.5-13.2-20.6-19.4c-3.3-2.9-6.7-5.7-9.3-9.3
				c-2.6-3.6-4.2-8-3.3-12.4"/>
			<path class="st2" d="M1132.8,618.5c6,13.5,15.4,26.4,29,32.3c5.2,2.2,10.9,3.4,15.9,6.2c5.6,3.1,9.9,8.2,13.1,13.7
				c3.2,5.5,5.4,11.6,7.6,17.6"/>
			<path class="st2" d="M1127.4,643c10.8,2.5,20.8,8.1,28.6,16c7.8,7.8,13.4,17.9,15.9,28.6"/>
		</g>
	</g>
	<g class="st0">
		<defs>
			<path id="SVGID_5_" d="M-0.2,2118.7c20.1,18.9,30.2,48,50.7,67.2c10.3,9.6,22.8,16.4,34.5,24.2c11.7,7.8,23.1,17,29.3,29.6
				c5.9,12,6.7,25.8,6.7,39.1c0.1,17.9-1.2,37.1-11.8,51.5c-9.4,12.7-24.7,19.7-40.1,22.9c-15.4,3.2-31.3,3-47.1,4.2
				c-7.4,0.5-14.8,1.4-22,3L-0.2,2118.7z"/>
		</defs>
		<clipPath id="SVGID_6_">
			<use xlink:href="#SVGID_5_"  style="overflow:visible;"/>
		</clipPath>
		<path class="st3" d="M-0.2,2118.7c20.1,18.9,30.2,48,50.7,67.2c10.3,9.6,22.8,16.4,34.5,24.2c11.7,7.8,23.1,17,29.3,29.6
			c5.9,12,6.7,25.8,6.7,39.1c0.1,17.9-1.2,37.1-11.8,51.5c-9.4,12.7-24.7,19.7-40.1,22.9c-15.4,3.2-31.3,3-47.1,4.2
			c-7.4,0.5-14.8,1.4-22,3L-0.2,2118.7z"/>
		<path class="st4" d="M54.2,2164.7c-6.7,2.7-13.5,5.4-19.6,9.4s-11.5,9.3-14.4,15.9c-2.9,6.7-2.9,14.8,1,20.9
			c4.5,7.1,13.3,10.3,21.7,10.7c5.5,0.3,11.3-0.5,16-3.5c4.6-2.9,7.7-7.7,9.6-12.7s2.7-10.5,3.6-15.8"/>
		<path class="st4" d="M42.8,2156.4c-6.7,6.2-16.1,8.1-24.8,10.9c-8.7,2.8-17.8,7.6-20.8,16.2c-2.2,6.3-0.4,13.5,3.3,19.1
			s9,9.9,14.4,13.8c5.4,3.9,11.1,7.6,15.8,12.4c3.6,3.7,6.8,8.1,11.6,10c6.9,2.7,14.7-0.7,20.4-5.5c11.4-9.5,17.9-24.6,17.1-39.4"/>
		<path class="st4" d="M27.3,2148.3c-10.6,9-26.8,9.4-36.8,19.1c-7.9,7.7-9.9,20-7.6,30.8c2.4,10.8,8.6,20.4,15.3,29.1
			c3.8,5,8.1,9.9,13.8,12.4c5.2,2.2,11,2.1,16.4,3.5c7.1,1.8,13.5,6.2,20.8,7.2c11.9,1.7,23.6-6,30.1-16
			c6.6-10.1,9.1-22.2,11.4-33.9"/>
		<path class="st4" d="M-13.3,2376.9c2.7-13.6,9.9-26.8,21.3-34.6c12-8.2,27.1-9.7,41.5-11.8s29.6-5.6,39.4-16.3
			c7.8-8.5,11.3-20.8,20.4-27.9c6.7-5.3,15.6-7,24.1-6.5c8.5,0.5,16.7,3,24.8,5.5"/>
		<path class="st4" d="M54.7,2375.7c-0.7-11.5,6.5-22,15-29.8c18.4-16.9,44.4-25.2,69.2-22.2c4.2,0.5,8.6,1.4,12,4.1"/>
		<path class="st4" d="M-36.4,2283.8c32.4,7.2,66.1,1.8,98.8-3.6c8.9-1.5,18.6-3.4,24.4-10.3c5.1-6,6-14.3,8.2-21.8
			c2.7-8.9,7.5-17.2,14-23.8c1.6-1.6,3.5-3.3,5.7-3.4c2.3-0.1,4.7,2.2,3.8,4.3"/>
		<path class="st4" d="M-18.7,2255c7.1,6.5,16.5,10.1,26.1,11.6c9.5,1.5,19.2,1.1,28.9,0.7c9-0.4,18.4-0.8,26.4-5
			c6.3-3.3,11.3-8.7,16.1-14c5.6-6.2,11.4-12.5,14.1-20.4c1.3-3.8,2-7.8,4-11.3c2-3.4,6.2-6.1,10-4.8"/>
		<path class="st4" d="M28.6,2141.4c-10.1,1.8-20.2,3.6-30.3,5.5c-4.4,0.8-8.9,1.6-12.7,3.9c-3.8,2.3-6.9,6.3-6.8,10.8"/>
		<path class="st4" d="M28,2129c-16.2-1.5-32.9,4.1-45,15"/>
	</g>
	<path class="st5" d="M83.8,2324.3c0,0.7,0.1,1.5,0.1,2.2C84.6,2325.8,84.7,2325,83.8,2324.3z"/>
	<path class="st6" d="M103.8,2361.4c-0.2-0.3-0.5-0.7-0.7-1C103,2361.2,103.2,2361.5,103.8,2361.4z"/>
	<path class="st7" d="M25.2,2375c-0.1-0.2-0.1-0.4-0.2-0.6c0,0.7,0,1.3-0.1,2c0.1,0,0.1,0,0.2,0C25.1,2375.9,25.1,2375.5,25.2,2375z
		"/>
	<path class="st5" d="M92.7,2388.4c0.1-0.5,0.1-1.1,0.2-1.6c-1-0.1-1.5,0.6-1.5,2.3C91.9,2388.9,92.3,2388.7,92.7,2388.4z"/>
	<path class="st7" d="M11.4,2409.1c0.1,0.1,0.3,0.2,0.4,0.3c0.1-0.2,0.2-0.3,0.3-0.5C11.8,2409,11.6,2409,11.4,2409.1z"/>
	<path class="st8" d="M68.6,2366.8c0.7-0.6,0.9-1.4,0.5-2.6c-0.5,0.6-1,1.1-1.5,1.7C68,2366.2,68.3,2366.5,68.6,2366.8z"/>
	<path class="st9" d="M22.1,2403.5c-0.6,0.8-1.2,1.6-1.7,2.4c2.3,1,1.5,0.3,3.4-2.9C23.2,2403.2,22.7,2403.3,22.1,2403.5z"/>
	<path class="st9" d="M33.2,2356.1c-0.5,0.7-0.9,1.5-1.3,2.2c2.1,0.7,1.3,0.1,2.8-2.8C34.2,2355.8,33.7,2356,33.2,2356.1z"/>
	<path class="st8" d="M74,2324.7c-1.3-0.2-2.6-0.4-3.9-0.5c0,0.1,0,0.2,0,0.3c-5.4,0,1.1,4.2,4.9,3.6
		C74.6,2326.9,74.3,2325.8,74,2324.7z"/>
	<path class="st6" d="M14.8,2362.5c0.3,0.1,0.6,0.2,0.9,0.3c0.1-0.2,0.2-0.4,0.2-0.5c-0.7-0.1-1.4-0.2-2.1-0.4
		C14.2,2362.1,14.5,2362.3,14.8,2362.5z"/>
	<path class="st9" d="M29.9,2322.5c0.2,0.4,0.4,0.7,0.7,1c0-0.4,0-0.8-0.1-1.2C30.3,2322.2,30.1,2322.3,29.9,2322.5z"/>
	<path class="st10" d="M52.5,2323.8c0.1,0.3,0.1,0.5,0.2,0.8C52.8,2324.3,52.8,2324.1,52.5,2323.8z"/>
	<path class="st10" d="M58.7,2328.4c-1.2,1.5-2.3,3.1-3.2,4.8c2.7,2.6,5.1,1.9,7.1-2.1c-0.9-1.1-1.8-2.2-2.5-3.4
		C59.6,2327.9,59.1,2328.2,58.7,2328.4z"/>
	<path class="st6" d="M74.9,2374.6c0.6,3.1,4.2,2.1,2.3-1.6C76.4,2373.6,75.7,2374.1,74.9,2374.6z"/>
	<path class="st6" d="M98.8,2351.1c0.4,0.3,0.7,0.5,1.1,0.8c0-0.7,0-1.4-0.1-2C99.5,2350.3,99.1,2350.7,98.8,2351.1z"/>
	<path class="st9" d="M-1.3,2395c0.1-0.3,0.2-0.5,0.3-0.8c-0.5-0.2-1-0.4-1.5-0.7c-0.2,0.4-0.4,0.9-0.6,1.3
		C-2.4,2394.9-1.9,2394.9-1.3,2395z"/>
	<path class="st6" d="M20.8,2392.5c-0.3-0.4-0.5-0.7-0.8-1.1c-0.2,0.6-0.4,1.1-0.6,1.7c0.4,0.2,0.8,0.4,1.3,0.5
		C20.7,2393.3,20.7,2392.9,20.8,2392.5z"/>
	<path class="st8" d="M47.5,2393.3c-0.5-0.9-1.2-1.9-1.9-2.7c0.2,1.4,0.3,2.9,0.1,4.1c0.6,0.1,1.2,0.1,1.8,0.2
		C47.5,2394.3,47.5,2393.8,47.5,2393.3z"/>
	<path class="st6" d="M78,2348.4c0.9-3.9-3.8-2.3-5.3-1.2C75,2349.4,76.8,2349.9,78,2348.4z"/>
	<path class="st7" d="M51.5,2346.7c-0.4,0.4-0.9,0.7-1.3,1c0.6,1.2,1.3,2.5,1.9,3.7C53.4,2350,53.2,2348.4,51.5,2346.7z"/>
	<path class="st9" d="M77.3,2397.2c0.2,0,0.4-0.1,0.6-0.1c0,0.2-0.1,0.4-0.2,0.7c0.2,0,0.5,0,0.7,0c-0.5-1.3-0.9-2.5-1.4-3.8
		c-0.3,0.1-0.6,0.1-0.9,0.2C76.6,2395.2,76.9,2396.2,77.3,2397.2z"/>
	<path class="st7" d="M13.6,2383.5c-0.5,0.1-0.9,0.1-1.4,0.2C13,2384.1,13.4,2384.1,13.6,2383.5z"/>
	<path class="st8" d="M53.9,2398.9c-0.5,0.1-0.9,0.3-1.4,0.4c0.5,1.1,1.1,1.3,1.8,0.8C54.2,2399.7,54.1,2399.3,53.9,2398.9z"/>
	<path class="st6" d="M50.6,2369.2c0.3-0.7,0.6-1.4,0.8-2c-1.1,0.2-2.2,0.4-3.3,0.6C48.7,2368.9,49.5,2369.4,50.6,2369.2z"/>
	<path class="st6" d="M101.6,2375.5c0.3,0.1,0.6,0.2,1,0.3c0.3-2,0.5-4,0.7-6c-0.3-0.1-0.6-0.2-0.8-0.2
		C102.2,2371.6,101.9,2373.6,101.6,2375.5z"/>
	<path class="st7" d="M42.2,2384.6c0.4-1.4,0.2-2.5-0.7-3.3C41.7,2382.5,42,2383.6,42.2,2384.6z"/>
	<path class="st7" d="M52.3,2384c0.3,0.4,0.7,0.9,1,1.3C53.4,2384.4,53,2384,52.3,2384z"/>
	<path class="st7" d="M59.2,2417.1c-0.1,0.2-0.2,0.3-0.3,0.5c0.2,0.1,0.3,0.2,0.5,0.3c0.1-0.2,0.2-0.3,0.4-0.5
		C59.6,2417.3,59.4,2417.2,59.2,2417.1z"/>
	<path class="st8" d="M27,2416c0.4-0.2,0.9-0.3,1.3-0.5c-0.1-0.3-0.1-0.6-0.2-0.9C27.7,2415,27.3,2415.5,27,2416z"/>
	<path class="st5" d="M9.4,2342.9c0.1-0.1,0.2-0.2,0.3-0.3c-0.1,0-0.2,0.1-0.3,0.1C9.3,2342.7,9.4,2342.8,9.4,2342.9z"/>
	<path class="st6" d="M43.3,2322.4c-0.4-0.8-0.8-1.5-1.1-2.3C41.7,2320.9,42.1,2321.7,43.3,2322.4z"/>
	<path class="st6" d="M40.3,2330.9c0,0.4,0,0.7,0.1,1.1c1.5-0.2,3-0.3,4.5-0.3C43.5,2330.5,41.9,2330.3,40.3,2330.9z"/>
	<path class="st6" d="M63,2403.4c0,0.3,0.1,0.6,0.1,1c0-0.4,0-0.7,0-1.1C63,2403.3,63,2403.3,63,2403.4z"/>
	<path class="st6" d="M41.8,2430.9c0,0.1,0,0.2,0,0.3c0.1,0,0.1-0.1,0.2-0.1C41.9,2431,41.9,2431,41.8,2430.9z"/>
	<path class="st9" d="M82,2338.9c2.4-0.6,3-1.9,2-3.7C83.4,2336.4,82.7,2337.7,82,2338.9z"/>
	<path class="st7" d="M66.9,2355c0.2-0.1,0.3-0.3,0.4-0.4c-0.2-0.2-0.4-0.4-0.6-0.6C66.8,2354.3,66.8,2354.6,66.9,2355z"/>
	<path class="st7" d="M87.8,2377c0.2-0.1,0.4-0.2,0.7-0.2c-0.1-0.3-0.3-0.6-0.4-0.9C88,2376.2,87.9,2376.6,87.8,2377z"/>
	<path class="st6" d="M33.6,2341.4c-4-1-2.7-1.5-5.3,2.5c1.3,0.6,2.7,1.2,4,1.8C32.9,2344.3,33.3,2342.9,33.6,2341.4z"/>
	<path class="st7" d="M41.6,2369.8c-1.1-3.3-0.1-2.6-4-2.6c0.2,1.2,0.4,2.4,0.5,3.6C39.2,2370.5,40.4,2370.2,41.6,2369.8z"/>
	<path class="st8" d="M47.8,2420.1c-0.7,0.9-1.5,1.7-2.2,2.6c0.8-0.1,1.7-0.1,2.5-0.2C48.1,2421.7,48,2420.9,47.8,2420.1z"/>
	<path class="st8" d="M64.4,2378.4C64.3,2378.4,64.3,2378.4,64.4,2378.4c0.8,1.4,2,1,3.6-1.1c0,0,0-0.1-0.1-0.1
		C66.6,2377.8,65.4,2378.3,64.4,2378.4z"/>
	<path class="st7" d="M79.2,2385.8c-0.1,0-0.2,0.1-0.2,0.1c0,0,0.1,0,0.1,0.1C79.1,2385.9,79.2,2385.9,79.2,2385.8z"/>
	<path class="st6" d="M17.2,2373.3c-1.4,0.7-2.5,0.7-2.9,2c1.1-0.3,2.1-0.6,3.1-0.9C17.3,2373.9,17.3,2373.6,17.2,2373.3z"/>
	<path class="st8" d="M18.3,2337.1c-0.1,0-0.3,0.1-0.4,0.1c0.2,0,0.4,0,0.5-0.1C18.4,2337.2,18.3,2337.1,18.3,2337.1z"/>
	<path class="st9" d="M10.6,2353.4c-0.5-0.5-1-1.1-1.5-1.6c-0.1,0.6-0.1,1.3-0.2,1.9C9.5,2353.5,10,2353.5,10.6,2353.4z"/>
	<path class="st7" d="M20.8,2350.1c0.1,1.5,0.9,1.9,2.3,1.2C23.1,2350.2,22.3,2349.8,20.8,2350.1z"/>
	<path class="st7" d="M5.7,2374.2c-0.1-0.2-0.3-0.4-0.4-0.6C5.4,2373.9,5.5,2374.1,5.7,2374.2C5.7,2374.3,5.7,2374.3,5.7,2374.2z"/>
	<path class="st6" d="M85.9,2347.5c1.2,0.8,2.4,1.6,3.6,2.3c0.2-1.2,0.4-2.4,0.6-3.6c-1.2-0.3-2.5-0.7-3.7-1
		C86.2,2346,86,2346.8,85.9,2347.5z"/>
	<path class="st6" d="M43.6,2401.1c-1.8-2.1-4-3.3-6.4-3.7c0.9,1.7,1.9,3.5,2.8,5.3C41.1,2402.2,42.3,2401.6,43.6,2401.1z"/>
	<path class="st6" d="M33.3,2398.2c-0.9-4.3-0.9-3.4-5.7-2.6C27.9,2398.6,29.8,2399.5,33.3,2398.2z"/>
	<path class="st6" d="M0.6,2399.4c-0.7,0.2-1.4,0.4-2.2,0.5c2.7,5.5,6.8,6.8,12.6,3.8C10.6,2399.8,7.2,2398.4,0.6,2399.4z"/>
	<path class="st7" d="M29.9,2382.1l0.2,2.1c0.7-0.8,1.3-1.5,2-2.3C31.4,2381.9,30.6,2382,29.9,2382.1z"/>
	<path class="st6" d="M3.5,2363.7l0,0.1c0.1,0,0.3-0.1,0.4-0.1C3.8,2363.7,3.7,2363.7,3.5,2363.7z"/>
	<path class="st6" d="M54.8,2380c2.1,0.5,3.1,0,4.9-1c-1.5-3.1-3.2-6.2-2.6-8.3c-1.9,0-3.7,0.1-5.6,0.1
		C50.9,2374.1,52,2377.2,54.8,2380z"/>
	<path class="st6" d="M9.4,2393.8c0.1,0,0.3,0.1,0.4,0.1c-0.1-0.2-0.2-0.3-0.3-0.5C9.5,2393.6,9.4,2393.7,9.4,2393.8z"/>
	<path class="st6" d="M76,2417.1c0.1,0.1,0.1,0.2,0.2,0.3c0-0.1,0.1-0.3,0.1-0.4C76.1,2417,76,2417.1,76,2417.1z"/>
	<path class="st7" d="M46.9,2410.8c2,0,3.6-0.7,4.7-2.1C50,2407.8,48.4,2408.5,46.9,2410.8z"/>
	<path class="st9" d="M31,2333.5c0.3,0.3,0.6,0.7,0.9,1c0.2-0.3,0.5-0.6,0.7-0.9C32.4,2333,31.8,2333,31,2333.5z"/>
	<path class="st9" d="M48,2339.4c0.2,0,0.3,0,0.5,0c0-0.2,0.1-0.4,0.1-0.6C48.3,2339,48.2,2339.2,48,2339.4z"/>
	<path class="st7" d="M70.9,2409.3c0.7-1,1.4-1.9,2.1-2.9c-1.1,0.4-2.2,0.8-3.3,1.3C69.8,2408.5,70.2,2409,70.9,2409.3z"/>
	<path class="st6" d="M68.2,2338c0-0.2-0.1-0.4-0.1-0.6c-0.1,0.2-0.2,0.4-0.3,0.6C68,2338,68.1,2338,68.2,2338z"/>
	<path class="st7" d="M57.9,2345.8c1,0.7,2,1.3,3,2c0.5-0.7,1-1.4,1.5-2.1C60.4,2343.4,58.9,2343.5,57.9,2345.8z"/>
	<path class="st7" d="M15.6,2326.8c0.7,0.8,1.3,1.6,1.9,2.5c1.6-1.2,0.1-3.4-1.5-4C15.9,2325.8,15.7,2326.3,15.6,2326.8z"/>
	<path class="st10" d="M16.3,2415.9c0.7,1.6,1.3,3.2,2,4.8c0.6-1.1,1.4-2.2,2.1-3.2c-0.9-0.9-1.8-1.8-2.7-2.7
		C17.2,2415.1,16.7,2415.5,16.3,2415.9z"/>
	<path class="st9" d="M83.2,2405c-1.4-2.3-3.5-2.3-6.2,0.1C78.3,2407.4,81.1,2406.3,83.2,2405z"/>
	<path class="st7" d="M2.2,2382.6c-1.1-0.3-1.8,0-2.3,0.9c0.6,0.7,1.2,1.4,1.8,2.1C1.9,2384.6,2,2383.6,2.2,2382.6z"/>
	<path class="st5" d="M88.7,2360.2c0.2-1.1-0.2-1.8-1.1-2.2c-0.6,0.7-1.3,1.4-1.9,2.1C86.7,2360.2,87.7,2360.2,88.7,2360.2z"/>
	<path class="st8" d="M39.9,2349c0.2-0.3,0.4-0.7,0.6-1c-0.3,0.1-0.6,0.2-0.8,0.4C39.7,2348.6,39.8,2348.8,39.9,2349z"/>
	<path class="st6" d="M36.9,2411.4c-0.3-0.4-0.6-0.7-0.9-1.1c0,0.5,0,1.1,0,1.6C36.3,2411.8,36.6,2411.6,36.9,2411.4z"/>
	<path class="st7" d="M74.2,2364.3c-0.4,0.4-0.9,0.7-1.4,1.1c3.4-0.1,7.3-0.2,11.2,0C82.6,2360.6,79.3,2360.3,74.2,2364.3z"/>
	<path class="st9" d="M27.8,2364.1c-1.1,0.9-1.3,1.9-0.5,2.9C27.5,2366,27.6,2365,27.8,2364.1z"/>
	<path class="st7" d="M50,2358.2c-1.3-0.7-2.7-1.3-4.1-1.7C46.4,2357,49.4,2361.1,50,2358.2z"/>
	<path class="st6" d="M63.7,2390.4c-0.2,0.2-0.4,0.3-0.6,0.5c0.3,0.1,0.7,0.2,1,0.3C63.9,2390.9,63.8,2390.7,63.7,2390.4z"/>
	<path class="st9" d="M95,2366.1c-0.2-0.2-0.4-0.4-0.6-0.6c-1.2,0.9-2,2-2.4,3.3c0.8,0.3,1.6,0.6,2.4,0.9
		C94.6,2368.4,94.8,2367.3,95,2366.1z"/>
	<path class="st5" d="M59,2362.6c0.1-0.1,0.1-0.2,0.2-0.2c0,0-0.1,0-0.1,0C59.1,2362.4,59.1,2362.5,59,2362.6z"/>
	<path class="st11" d="M0,809.1c0-3.2,24.6-5.2,26.6-5.3c21.3-0.8,43.9,6.2,60.9,19.3c5.7,4.4,10.6,9.9,16.5,14.2
		c16.3,11.7,34.5,17.2,54.4,18.5c45.7,3,116.7,3,112.7,107.6c-6.1,88.3-85.3,94.4-112.7,119.8c-27.4,25.4-97.4,80.2-158.3,28.4
		C0,1111.5,0,809.3,0,809.1z"/>
	<path class="st11" d="M1200,1270.1c0,0-126-89.4-248.9,9.1c-66,55.9-43.7,122.9-41.6,169.6c1.4,31.8-2,63.4-3.8,95.1
		c-1.8,31.3,7,60.2,31.6,80.7c16.6,13.9,37.6,21.1,59,23.2c14.5,1.4,29.1,0.7,43.5-1.4c13.7-2,26.5-6.9,40.1-9.7
		c23.1-4.7,47.1-5.2,70.4-1.3c10.6,1.8,21.4,4.1,31.8,7.2c5.2,1.6,14.7,3.5,18,8.4V1270.1z"/>
</g>
</svg>
