<?xml version="1.0" encoding="utf-8"?>
<!-- Generator: Adobe Illustrator 21.1.0, SVG Export Plug-In . SVG Version: 6.00 Build 0)  -->
<svg version="1.1" id="圖層_1" xmlns="http://www.w3.org/2000/svg" xmlns:xlink="http://www.w3.org/1999/xlink" x="0px" y="0px"
	 viewBox="0 0 399 494" style="enable-background:new 0 0 399 494;" xml:space="preserve">
<style type="text/css">
	.st0{fill:#F4F2F2;}
	.st1{fill:#FEBC2A;}
	.st2{fill:#2F4859;}
	.st3{fill:#3A556A;}
	.st4{fill:#EBF0F3;}
	.st5{fill:#1EBEA2;}
	.st6{fill:#059382;stroke:#059382;stroke-width:0.25;stroke-miterlimit:10;}
	.st7{fill:#585858;}
	.st8{fill:#8F2C4D;}
</style>
<g>
	<path class="st0" d="M217.5,59.6c-1.7,9.5-9.5,16.3-15.8,21.8c-5,4.4-10.3,9.4-12,15.4c2.9,0.6,5.8,1.5,8.6,2.7
		c5,2.2,9.5,5.6,13.3,9.8c1-4.4,1.1-8.8,0.3-13.2l-0.2-1.1c-0.9-4.6-2.2-11,2.9-15.4c2.9-2.5,17.2-6.8,20.3-7.1
		c14.1-1.6,29.4,2.2,39.4,7c2.1-10.4,6.7-20.6,13.3-29.7c-0.2-1.4,0-3.1,1.2-5.3c5-9-51-56-77.5-41.5c0,0-2.9,2-7.7,5.1
		c3.9,10.8,7.7,21.7,11.3,32.6C216.5,45.8,218.8,52.7,217.5,59.6z"/>
	<path class="st0" d="M161,95.8c1.7,0,3.5-0.1,5.2-0.1c5.5-0.2,11-0.3,16.5,0.1c1.9-8.2,8.3-14.4,14.4-19.6
		c5.7-5,12.2-10.6,13.5-17.7c0.9-4.8-0.6-9.8-2.4-15.5c-3.4-10.3-6.9-20.6-10.6-30.8c-17.7,11.4-48.3,29.9-65.3,34
		c-4.2,1-8.7,2.5-13.3,4.4c6.3,12,10.7,25,13,38.3C140.1,95.3,152.4,95.9,161,95.8z"/>
	<path class="st0" d="M73.3,161.6c12.3-0.4,27.3-0.8,40.5,4.6c-0.6-10.5-5.2-21.4-13.1-30.6c-7.9-9.2-18.7-16.8-34.1-24.1
		c-10.3-4.9-21-8.9-31.9-11.9C19.3,118.7,5.5,150.2,0.3,163c0,0,10.5,9.5,19.5,8.5c0.3,0,0.5-0.1,0.8-0.1c2.3-1.2,4.6-2.3,7.1-3.3
		C42.5,162.6,58.8,162.1,73.3,161.6z"/>
	<path class="st0" d="M106,131.1c4.3,5,7.8,10.5,10.3,16.2c2.6-1.8,4.8-4.5,6.4-7.9c2.2-4.7,3-9.9,3.5-14.4
		c2.8-24.5-2.2-50.1-13.8-71.9C90.6,62.9,66.1,78.5,50.3,86c-3.5,1.6-6.9,4.4-10.4,7.9c10.1,3,20.1,6.8,29.7,11.4
		C85.9,113,97.4,121.2,106,131.1z"/>
	<path class="st0" d="M242.4,221.1c-3.1,1.4-6.1,3-9.2,4.8c-3.6,2-7.3,4.1-11.3,5.7c-3.5,1.4-9.3,3.4-15.8,3.4
		c-1.8,0-3.6-0.2-5.4-0.5c-0.5,1.6-0.8,3.1-1,4.4c10.8,10.6,17.9,25,18.7,40.3c0.1,1.1,0.1,2.2,0.1,3.3c16.4,8.8,36.3,4.1,49.7-3.3
		c10.5-5.8,19.4-13.9,27.7-22.6c-1.5-3.1-2-5.6-1.2-5.9c3-1-4-9-8-10c0,0,7-7,9-8c0.8-0.4-5.9-7.1-12.8-15.4
		C269.2,215.6,252.5,216.6,242.4,221.1z"/>
	<path class="st1" d="M256.8,148c-5.4,2-11.5,4.2-18,4.4c-0.4,0-0.7,0-1.1,0c-4.3,0-8.4-1-11.8-2.8c0.1,1.9,0.2,3.9,0.2,6
		c0,7.2-0.6,15.5-5.2,22.3c-2.7,4.1-6.7,7.3-11.9,9.8c1,9.3,1.9,20.5-2.1,30.5c-0.3,0.7-0.6,1.5-1,2.4c-0.7,1.8-1.8,4.4-2.9,7.2
		c4.8,0.6,10.5-0.3,16.2-2.6c3.6-1.5,7-3.4,10.6-5.4c3.1-1.7,6.3-3.5,9.7-5.1c9.6-4.3,24.2-5.8,37.5-5.1
		c-8.6-11.7-14.1-23.6,0.7-24.1l-3-4l-11-5c0,0-6-6,9-8c0,0,3-2,1-4c-1.5-1.5-1.9-16.8,0.3-24.2c-0.3,0.1-0.6,0.3-1,0.4
		C265.8,144.1,259,147.2,256.8,148z"/>
	<path class="st0" d="M280.1,98c1.1,11.4,5.6,22.8,13.7,34c9-2.8,19.1-6.7,24.5-11c10-8,24.5-12.5,22.5-20.5s0-48-46-45
		c0,0-1-0.2-2.2-0.7C283.3,68,278.8,83.5,280.1,98z"/>
	<path class="st0" d="M138.7,213c-5.8-15.3-12.3-32.6-24.3-38.8c-12.4-6.4-27.5-6-40.9-5.6c-11.2,0.3-22.7,0.7-33.6,3.2
		c3.8,0.9,6.7,2.7,7.9,5.7c3,8,1,24,1,24s17,14,27,13s16-3,16-3s-1,15,10,16s20-8,25-3c0.3,0.3,0.5,0.5,0.7,0.8
		c4.9-1.4,9.8-2.4,14.8-3.1C141.1,219.3,139.9,216.2,138.7,213z"/>
	<path class="st1" d="M129.8,159.5c11.7,0.9,23,5.6,31.9,13.2c1.5,1.3,2.9,2.6,4.2,3.9c3.5,3.3,6.8,6.5,10.9,8.1
		c4.8,1.9,10.5,1.3,15.4,0.6c11.5-1.8,19-5.5,22.9-11.2c3.5-5.3,4-12.2,4-18.4c0-11.7-1.6-21.2-4.9-29.1c-4-9.5-10.8-17-18.8-20.5
		c-8.7-3.9-19-3.6-28.9-3.3c-1.8,0.1-3.6,0.1-5.3,0.1c-8,0.2-18.8-0.3-27.9-4.9c1,9.3,1,18.7-0.1,28c-0.5,4.8-1.5,11-4.2,16.6
		c-2.4,5.1-6,9.1-10.3,11.6c0.7,2.3,1.2,4.5,1.6,6.8C123.2,159.6,126.6,159.3,129.8,159.5z"/>
	<path class="st0" d="M202.2,190.1c-2.7,0.8-5.7,1.4-8.9,1.9c-2.8,0.4-5.8,0.8-8.8,0.8c-3.4,0-6.9-0.4-10.2-1.7
		c-5.3-2.1-9.3-5.8-13.2-9.5c-1.4-1.3-2.6-2.5-4-3.6c-7.8-6.7-17.7-10.8-27.9-11.5c-3.6-0.3-7.7,0.5-8.4,2.8c0,0.1,0,0.1-0.1,0.1
		c0,0.2,0,0.3,0,0.5c12.2,8.4,18.7,25.4,24.4,40.6c1.5,3.9,2.9,7.6,4.3,11c8.7-0.5,16.8,0.2,24.1,2.1c7.3,2,14.1,5.5,20.1,10
		c1.2-4.7,3.5-10.3,5.7-15.8c0.4-0.9,0.7-1.7,1-2.4C203.6,207.6,203.1,198.6,202.2,190.1z"/>
	<path class="st0" d="M383.8,387.5c-15-7-38-54-25-62s20-16,9-21s-3-14-3-14s-24-47-48-25c-6.2,6.2-12.6,2.3-17-3
		c-8.3,8.6-17.5,16.8-28.1,22.7c-9.1,5.1-21,9-33.2,9c-6.8,0-13.8-1.2-20.3-4.2c-0.7,6.4-2.3,12.6-4.4,18.6
		c13.8,9.3,43.1,26,40,35.9c-4,13,4,20,1,30s-11,33,6,19s22,21,22,21s11,35,20,36s-2,15-5,15s11,31,26,28s31-18,40-37s10-42,16-42
		s19-1,19-1S398.8,394.5,383.8,387.5z"/>
	<path class="st0" d="M211.5,279.5c-0.7-13.2-6.8-25.7-16-35.1c-1.2-0.3-2.2-1.2-2.6-2.4c-6-5.4-13.2-9.4-21.1-11.6
		c-7.7-2.1-16.5-2.6-26.3-1.5c-5,0.6-10,1.5-14.9,2.8c2,6,2.4,13.4,1.1,16.8c-2,5,18,37,39,43s33,1,33,1s4,6,3,10
		c-0.1,0.4,0.3,1,1.1,1.7C210.4,296.2,211.9,287.9,211.5,279.5z"/>
	<path class="st1" d="M220.7,123.7c2.1,4.9,3.5,10.3,4.4,16.2c0.2,0.2,0.5,0.4,0.7,0.6c2.6,3.3,7.4,5.1,12.8,4.9
		c5.3-0.2,10.7-2.1,15.8-4c1.9-0.7,9.3-4,15.8-7c5-2.3,9.8-4.4,13-5.8c-5.8-9.9-9.2-19.9-10.1-30c-0.4-3.9-0.3-7.9,0-11.9
		c-7.7-4.1-23-9-37.5-7.3c-2.7,0.3-14.8,4.2-16.6,5.5c-1.8,1.5-1.4,4.3-0.5,8.6c0.1,0.4,0.2,0.8,0.2,1.2c1.4,7.1,0.7,14.5-2,21.4
		C218.2,118.5,219.5,121,220.7,123.7z"/>
	<g>
		<g>
			<path class="st2" d="M170.8,120.7h8.5v4h-8.5V120.7z"/>
			<path class="st3" d="M181.3,119.2c0,0,1,0.1,1,0.5c-0.1,1.7-0.5,3.3-1.2,4.9h-1.3L181.3,119.2z"/>
			<path class="st3" d="M175.1,122c-1.8,0-3.2,1.4-3.2,3.2s1.4,3.2,3.2,3.2c1.8,0,3.2-1.4,3.2-3.2c0,0,0,0,0,0
				C178.3,123.4,176.9,122,175.1,122C175.1,122,175.1,122,175.1,122L175.1,122z"/>
			<path class="st4" d="M175.1,123.3c-1,0-1.9,0.8-1.9,1.9c0,1,0.8,1.9,1.9,1.9c1,0,1.9-0.8,1.9-1.9c0,0,0,0,0,0
				C177,124.1,176.2,123.3,175.1,123.3z"/>
			<path class="st3" d="M175.1,124.5c-0.4,0-0.6,0.3-0.6,0.6c0,0.4,0.3,0.6,0.6,0.6s0.6-0.3,0.6-0.6
				C175.8,124.8,175.5,124.5,175.1,124.5z"/>
			<path class="st5" d="M180.6,124.6l-1.1,0.2c-0.2,0-0.5-0.1-0.6-0.3l-0.7-1.7c-0.2-0.6-0.8-0.9-1.4-0.9h-3.1c-0.6,0-1.2,0.4-1.4,1
				l-0.7,2.4c-0.2,0.6-0.8,1-1.4,1l-11.2-0.2c-0.7,0-1.3-0.5-1.4-1.1l-0.2-0.7c-0.2-0.7-0.8-1.1-1.4-1.1h-3c-0.5,0-1,0.3-1.3,0.7
				l-0.6,1c-0.3,0.4-0.7,0.7-1.3,0.7h-2.4c0,0,0-1.2,0.2-4.1c0.2-2.8,4.4-3.3,4.4-3.3v-0.1c0,0,0-0.1,0-0.1v-0.1
				c0.1-0.5,0.6-1.6,2-3c1.9-1.9,10-2,12.2-1.5c0.5,0.1,0.9,0.3,1.3,0.6c0.3,0.6,0.6,1.2,1,1.8c0.5,0.7,1.3,1.1,1.6,1.5
				c0.1,0.1,0.3,0.3,0.3,0.3c0,0.1,0.1,0.1,0.2,0.1c3.6,0.2,7.3,0.7,10.8,1.5C182.4,120.8,180.6,124.6,180.6,124.6L180.6,124.6z"/>
			<path class="st3" d="M147.3,124.7l0-0.6c-0.2,0-0.4,0.1-0.4,0.3v0.8c0,0.2,0.2,0.4,0.4,0.4h0h1.2v-1
				C148.1,124.7,147.7,124.7,147.3,124.7L147.3,124.7z"/>
			<path class="st3" d="M179.7,124.1h1.2c0.2,0,0.4,0.2,0.4,0.4v0.3c0,0.2-0.2,0.4-0.4,0.4h-1.2c-0.2,0-0.4-0.2-0.4-0.4v-0.3
				C179.3,124.3,179.5,124.1,179.7,124.1L179.7,124.1z"/>
			<path class="st6" d="M169.1,117.9l-2.6-3.5c-0.3-0.3-0.7-0.6-1.1-0.6l-4.2-0.2c-3.5,0.1-5.2,0.8-6,1.5c-0.9,0.7-1,1.4-1,1.4v4.8
				c0,0.5,0.4,0.9,0.9,0.9h1.8c0.7,0,1.3,0.4,1.5,1.1l0.5,1.5h9.4c0.4,0,0.8-0.4,0.8-0.8v-5.7C169.3,118.2,169.3,118.1,169.1,117.9z
				 M158.6,123.4c-0.2-0.7-0.9-1.1-1.6-1.2h-1.8c-0.4,0-0.8-0.3-0.8-0.8c0,0,0,0,0,0v-4.7c0,0,0.1-0.7,1-1.4
				c0.9-0.7,2.5-1.4,5.9-1.5l0.5,11h-2.6L158.6,123.4z M169.2,124.1c0,0.4-0.3,0.7-0.7,0.7h-6.7l-0.5-11l4.1,0.2
				c0.4,0,0.8,0.2,1,0.5l2.5,3.5c0.1,0.1,0.1,0.3,0.1,0.4L169.2,124.1z"/>
			<g>
				<path class="st3" d="M162,115l0.1,2.4c0,0.2,0.2,0.3,0.4,0.3h4.8c0.2,0,0.4-0.2,0.4-0.4c0-0.1,0-0.1-0.1-0.2l-1.5-2.3
					c-0.1-0.1-0.2-0.2-0.3-0.2l-3.4,0C162.1,114.6,162,114.7,162,115C161.9,114.9,161.9,114.9,162,115L162,115z"/>
				<path class="st3" d="M160.5,117.3l-0.1-2.4c0-0.2-0.2-0.3-0.3-0.3c-1-0.1-4.2,0-5.1,2.6c0,0.1,0,0.2,0,0.3l0.1,0.2
					c0.1,0.1,0.2,0.2,0.3,0.2l4.7-0.2C160.4,117.7,160.5,117.5,160.5,117.3L160.5,117.3z"/>
				<path class="st3" d="M170.3,117.6c-0.6-0.9-2.1-3-2.8-3.7c0,0-0.6,0-0.4,0.3c0.1,0.3,1.1,1.4,1.7,2.2
					C169.1,117,169.6,117.4,170.3,117.6L170.3,117.6z"/>
				<path class="st3" d="M154.3,122c-1.8,0-3.2,1.4-3.2,3.2s1.4,3.2,3.2,3.2s3.2-1.4,3.2-3.2c0,0,0,0,0,0
					C157.5,123.4,156.1,122,154.3,122C154.3,122,154.3,122,154.3,122L154.3,122z"/>
			</g>
			<path class="st4" d="M154.3,123.3c-1,0-1.9,0.8-1.9,1.9c0,1,0.8,1.9,1.9,1.9s1.9-0.8,1.9-1.9c0,0,0,0,0,0
				C156.2,124.1,155.3,123.3,154.3,123.3C154.3,123.3,154.3,123.3,154.3,123.3z"/>
			<path class="st3" d="M154.3,124.5c-0.4,0-0.6,0.3-0.6,0.6c0,0.4,0.3,0.6,0.6,0.6s0.6-0.3,0.6-0.6
				C154.9,124.8,154.7,124.5,154.3,124.5z"/>
		</g>
	</g>
	<g>
		<g>
			<path class="st2" d="M250.8,95.7h8.5v4h-8.5V95.7z"/>
			<path class="st3" d="M261.3,94.2c0,0,1,0.1,1,0.5c-0.1,1.7-0.5,3.3-1.2,4.9h-1.3L261.3,94.2z"/>
			<path class="st3" d="M255.1,97c-1.8,0-3.2,1.4-3.2,3.2s1.4,3.2,3.2,3.2c1.8,0,3.2-1.4,3.2-3.2c0,0,0,0,0,0
				C258.3,98.4,256.9,97,255.1,97C255.1,97,255.1,97,255.1,97L255.1,97z"/>
			<path class="st4" d="M255.1,98.3c-1,0-1.9,0.8-1.9,1.9c0,1,0.8,1.9,1.9,1.9c1,0,1.9-0.8,1.9-1.9c0,0,0,0,0,0
				C257,99.1,256.2,98.3,255.1,98.3z"/>
			<path class="st3" d="M255.1,99.5c-0.4,0-0.6,0.3-0.6,0.6c0,0.4,0.3,0.6,0.6,0.6s0.6-0.3,0.6-0.6
				C255.8,99.8,255.5,99.5,255.1,99.5z"/>
			<path class="st5" d="M260.6,99.6l-1.1,0.2c-0.2,0-0.5-0.1-0.6-0.3l-0.7-1.7c-0.2-0.6-0.8-0.9-1.4-0.9h-3.1c-0.6,0-1.2,0.4-1.4,1
				l-0.7,2.4c-0.2,0.6-0.8,1-1.4,1l-11.2-0.2c-0.7,0-1.3-0.5-1.4-1.1l-0.2-0.7c-0.2-0.7-0.8-1.1-1.4-1.1h-3c-0.5,0-1,0.3-1.3,0.7
				l-0.6,1c-0.3,0.4-0.7,0.7-1.3,0.7h-2.4c0,0,0-1.2,0.2-4.1c0.2-2.8,4.4-3.3,4.4-3.3v-0.1c0,0,0-0.1,0-0.1v-0.1
				c0.1-0.5,0.6-1.6,2-3c1.9-1.9,10-2,12.2-1.5c0.5,0.1,0.9,0.3,1.3,0.6c0.3,0.6,0.6,1.2,1,1.8c0.5,0.7,1.3,1.1,1.6,1.5
				c0.1,0.1,0.3,0.3,0.3,0.3c0,0.1,0.1,0.1,0.2,0.1c3.6,0.2,7.3,0.7,10.8,1.5C262.4,95.8,260.6,99.6,260.6,99.6L260.6,99.6z"/>
			<path class="st3" d="M227.3,99.7l0-0.6c-0.2,0-0.4,0.1-0.4,0.3v0.8c0,0.2,0.2,0.4,0.4,0.4h0h1.2v-1
				C228.1,99.7,227.7,99.7,227.3,99.7L227.3,99.7z"/>
			<path class="st3" d="M259.7,99.1h1.2c0.2,0,0.4,0.2,0.4,0.4v0.3c0,0.2-0.2,0.4-0.4,0.4h-1.2c-0.2,0-0.4-0.2-0.4-0.4v-0.3
				C259.3,99.3,259.5,99.1,259.7,99.1L259.7,99.1z"/>
			<path class="st6" d="M249.1,92.9l-2.6-3.5c-0.3-0.3-0.7-0.6-1.1-0.6l-4.2-0.2c-3.5,0.1-5.2,0.8-6,1.5c-0.9,0.7-1,1.4-1,1.4v4.8
				c0,0.5,0.4,0.9,0.9,0.9h1.8c0.7,0,1.3,0.4,1.5,1.1l0.5,1.5h9.4c0.4,0,0.8-0.4,0.8-0.8v-5.7C249.3,93.2,249.3,93.1,249.1,92.9z
				 M238.6,98.4c-0.2-0.7-0.9-1.1-1.6-1.2h-1.8c-0.4,0-0.8-0.3-0.8-0.8c0,0,0,0,0,0v-4.7c0,0,0.1-0.7,1-1.4c0.9-0.7,2.5-1.4,5.9-1.5
				l0.5,11h-2.6L238.6,98.4z M249.2,99.1c0,0.4-0.3,0.7-0.7,0.7h-6.7l-0.5-11l4.1,0.2c0.4,0,0.8,0.2,1,0.5l2.5,3.5
				c0.1,0.1,0.1,0.3,0.1,0.4L249.2,99.1z"/>
			<g>
				<path class="st3" d="M242,90l0.1,2.4c0,0.2,0.2,0.3,0.4,0.3h4.8c0.2,0,0.4-0.2,0.4-0.4c0-0.1,0-0.1-0.1-0.2l-1.5-2.3
					c-0.1-0.1-0.2-0.2-0.3-0.2l-3.4,0C242.1,89.6,242,89.7,242,90C241.9,89.9,241.9,89.9,242,90L242,90z"/>
				<path class="st3" d="M240.5,92.3l-0.1-2.4c0-0.2-0.2-0.3-0.3-0.3c-1-0.1-4.2,0-5.1,2.6c0,0.1,0,0.2,0,0.3l0.1,0.2
					c0.1,0.1,0.2,0.2,0.3,0.2l4.7-0.2C240.4,92.7,240.5,92.5,240.5,92.3L240.5,92.3z"/>
				<path class="st3" d="M250.3,92.6c-0.6-0.9-2.1-3-2.8-3.7c0,0-0.6,0-0.4,0.3c0.1,0.3,1.1,1.4,1.7,2.2
					C249.1,92,249.6,92.4,250.3,92.6L250.3,92.6z"/>
				<path class="st3" d="M234.3,97c-1.8,0-3.2,1.4-3.2,3.2s1.4,3.2,3.2,3.2s3.2-1.4,3.2-3.2c0,0,0,0,0,0
					C237.5,98.4,236.1,97,234.3,97C234.3,97,234.3,97,234.3,97L234.3,97z"/>
			</g>
			<path class="st4" d="M234.3,98.3c-1,0-1.9,0.8-1.9,1.9c0,1,0.8,1.9,1.9,1.9s1.9-0.8,1.9-1.9c0,0,0,0,0,0
				C236.2,99.1,235.3,98.3,234.3,98.3C234.3,98.3,234.3,98.3,234.3,98.3z"/>
			<path class="st3" d="M234.3,99.5c-0.4,0-0.6,0.3-0.6,0.6c0,0.4,0.3,0.6,0.6,0.6s0.6-0.3,0.6-0.6
				C234.9,99.8,234.7,99.5,234.3,99.5z"/>
		</g>
	</g>
	<g>
		<g>
			<path class="st2" d="M249.8,171.7h8.5v4h-8.5V171.7z"/>
			<path class="st3" d="M260.3,170.2c0,0,1,0.1,1,0.5c-0.1,1.7-0.5,3.3-1.2,4.9h-1.3L260.3,170.2z"/>
			<path class="st3" d="M254.1,173c-1.8,0-3.2,1.4-3.2,3.2s1.4,3.2,3.2,3.2c1.8,0,3.2-1.4,3.2-3.2c0,0,0,0,0,0
				C257.3,174.4,255.9,173,254.1,173C254.1,173,254.1,173,254.1,173L254.1,173z"/>
			<path class="st4" d="M254.1,174.3c-1,0-1.9,0.8-1.9,1.9c0,1,0.8,1.9,1.9,1.9c1,0,1.9-0.8,1.9-1.9c0,0,0,0,0,0
				C256,175.1,255.2,174.3,254.1,174.3z"/>
			<path class="st3" d="M254.1,175.5c-0.4,0-0.6,0.3-0.6,0.6s0.3,0.6,0.6,0.6s0.6-0.3,0.6-0.6C254.8,175.8,254.5,175.5,254.1,175.5z
				"/>
			<path class="st5" d="M259.6,175.6l-1.1,0.2c-0.2,0-0.5-0.1-0.6-0.3l-0.7-1.7c-0.2-0.6-0.8-0.9-1.4-0.9h-3.1c-0.6,0-1.2,0.4-1.4,1
				l-0.7,2.4c-0.2,0.6-0.8,1-1.4,1l-11.2-0.2c-0.7,0-1.3-0.5-1.4-1.1l-0.2-0.7c-0.2-0.7-0.8-1.1-1.4-1.1h-3c-0.5,0-1,0.3-1.3,0.7
				l-0.6,1c-0.3,0.4-0.7,0.7-1.3,0.7h-2.4c0,0,0-1.2,0.2-4.1s4.4-3.3,4.4-3.3v-0.1c0,0,0-0.1,0-0.1v-0.1c0.1-0.5,0.6-1.6,2-3
				c1.9-1.9,10-2,12.2-1.5c0.5,0.1,0.9,0.3,1.3,0.6c0.3,0.6,0.6,1.2,1,1.8c0.5,0.7,1.3,1.1,1.6,1.5c0.1,0.1,0.3,0.3,0.3,0.3
				c0,0.1,0.1,0.1,0.2,0.1c3.6,0.2,7.3,0.7,10.8,1.5C261.4,171.8,259.6,175.6,259.6,175.6L259.6,175.6z"/>
			<path class="st3" d="M226.3,175.7l0-0.6c-0.2,0-0.4,0.1-0.4,0.3v0.8c0,0.2,0.2,0.4,0.4,0.4h0h1.2v-1
				C227.1,175.7,226.7,175.7,226.3,175.7L226.3,175.7z"/>
			<path class="st3" d="M258.7,175.1h1.2c0.2,0,0.4,0.2,0.4,0.4v0.3c0,0.2-0.2,0.4-0.4,0.4h-1.2c-0.2,0-0.4-0.2-0.4-0.4v-0.3
				C258.3,175.3,258.5,175.1,258.7,175.1L258.7,175.1z"/>
			<path class="st6" d="M248.1,168.9l-2.6-3.5c-0.3-0.3-0.7-0.6-1.1-0.6l-4.2-0.2c-3.5,0.1-5.2,0.8-6,1.5c-0.9,0.7-1,1.4-1,1.4v4.8
				c0,0.5,0.4,0.9,0.9,0.9h1.8c0.7,0,1.3,0.4,1.5,1.1l0.5,1.5h9.4c0.4,0,0.8-0.4,0.8-0.8v-5.7C248.3,169.2,248.3,169.1,248.1,168.9z
				 M237.6,174.4c-0.2-0.7-0.9-1.1-1.6-1.2h-1.8c-0.4,0-0.8-0.3-0.8-0.8c0,0,0,0,0,0v-4.7c0,0,0.1-0.7,1-1.4
				c0.9-0.7,2.5-1.4,5.9-1.5l0.5,11h-2.6L237.6,174.4z M248.2,175.1c0,0.4-0.3,0.7-0.7,0.7h-6.7l-0.5-11l4.1,0.2
				c0.4,0,0.8,0.2,1,0.5l2.5,3.5c0.1,0.1,0.1,0.3,0.1,0.4L248.2,175.1z"/>
			<g>
				<path class="st3" d="M241,166l0.1,2.4c0,0.2,0.2,0.3,0.4,0.3h4.8c0.2,0,0.4-0.2,0.4-0.4c0-0.1,0-0.1-0.1-0.2l-1.5-2.3
					c-0.1-0.1-0.2-0.2-0.3-0.2l-3.4,0C241.1,165.6,241,165.7,241,166C240.9,165.9,240.9,165.9,241,166L241,166z"/>
				<path class="st3" d="M239.5,168.3l-0.1-2.4c0-0.2-0.2-0.3-0.3-0.3c-1-0.1-4.2,0-5.1,2.6c0,0.1,0,0.2,0,0.3l0.1,0.2
					c0.1,0.1,0.2,0.2,0.3,0.2l4.7-0.2C239.4,168.7,239.5,168.5,239.5,168.3L239.5,168.3z"/>
				<path class="st3" d="M249.3,168.6c-0.6-0.9-2.1-3-2.8-3.7c0,0-0.6,0-0.4,0.3c0.1,0.3,1.1,1.4,1.7,2.2
					C248.1,168,248.6,168.4,249.3,168.6L249.3,168.6z"/>
				<path class="st3" d="M233.3,173c-1.8,0-3.2,1.4-3.2,3.2s1.4,3.2,3.2,3.2s3.2-1.4,3.2-3.2c0,0,0,0,0,0
					C236.5,174.4,235.1,173,233.3,173C233.3,173,233.3,173,233.3,173L233.3,173z"/>
			</g>
			<path class="st4" d="M233.3,174.3c-1,0-1.9,0.8-1.9,1.9c0,1,0.8,1.9,1.9,1.9s1.9-0.8,1.9-1.9c0,0,0,0,0,0
				C235.2,175.1,234.3,174.3,233.3,174.3C233.3,174.3,233.3,174.3,233.3,174.3z"/>
			<path class="st3" d="M233.3,175.5c-0.4,0-0.6,0.3-0.6,0.6s0.3,0.6,0.6,0.6s0.6-0.3,0.6-0.6C233.9,175.8,233.7,175.5,233.3,175.5z
				"/>
		</g>
	</g>
	<g>
		<path class="st7" d="M28.1,145.3l-0.9,1.1c-0.1,0.1-0.2,0.3-0.2,0.5c0.1,0.2,0.2,0.4,0.5,0.4c0.1,0,0.2,0,0.5-0.3
			c0.2-0.2,0.4-0.4,0.6-0.6c0.2-0.3,0.3-0.4,0.3-0.5c0.1-0.2,0-0.4-0.2-0.5C28.4,145.1,28.2,145.2,28.1,145.3z"/>
		<path class="st7" d="M33,145.7c-0.2-0.2-0.4-0.3-0.6-0.4c-0.1-0.1-0.2-0.1-0.3-0.1c-0.3,0-0.5,0.2-0.5,0.5c0,0.1,0.1,0.3,0.2,0.4
			c0.3,0.2,0.7,0.5,1,0.7c0.1,0.1,0.2,0.1,0.3,0.1h0c0.3,0,0.5-0.2,0.5-0.5c0-0.1-0.1-0.3-0.2-0.3C33.3,146,33.2,145.9,33,145.7z"/>
		<path class="st7" d="M40.1,142.5l-3.1-0.1c0-0.3-0.1-0.7-0.1-1c0.9-0.4,1.6-0.7,2.1-1.2c0.2-0.1,0.2-0.3,0.2-0.4
			c0-0.3-0.2-0.5-0.5-0.5c-0.1,0-0.2,0.1-0.3,0.1c-0.6,0.5-1.4,0.9-2.3,1.2c-0.2,0.1-0.3,0.2-0.4,0.4c0,0.1,0,0.2,0.1,0.4
			c0.1,0.5,0.2,0.9,0.2,1.3c0,0.5-0.1,1-0.2,1.4c-0.1,0.3-0.2,0.6-0.4,1c-0.1,0.1-0.1,0.2-0.1,0.3c0,0.3,0.2,0.4,0.5,0.5
			c0.2,0,0.3-0.1,0.4-0.2c0.3-0.4,0.5-0.9,0.6-1.5c0.1-0.2,0.1-0.5,0.1-0.8l1.3,0l0.1,4.4c0,0.3,0.2,0.4,0.5,0.4
			c0.3,0,0.5-0.2,0.5-0.5l-0.1-4.3l0.8,0c0.3,0,0.5-0.2,0.5-0.5C40.5,142.7,40.3,142.5,40.1,142.5z"/>
		<path class="st7" d="M32.2,144.1c0.3-0.1,0.4-0.2,0.4-0.5c0-0.2,0-0.3-0.1-0.4c-0.1-0.1-0.2-0.1-0.4-0.1c-0.4,0-1,0.1-1.5,0.1
			c0-0.2,0-0.5-0.1-0.8c0-0.3-0.2-0.4-0.5-0.4c0,0,0,0,0,0c-0.2,0-0.3,0.1-0.4,0.2s-0.1,0.2-0.1,0.4c0,0.2,0,0.4,0.1,0.6
			c-0.9,0-1.6-0.1-2.1-0.1c-0.2,0-0.3,0-0.4,0.1c-0.1,0.1-0.2,0.2-0.2,0.3c0,0.2,0.1,0.4,0.3,0.5c0.5,0.1,1.3,0.1,2.4,0.1
			c0.2,1.7,0.3,2.6,0.3,2.9v0c-0.1,0-0.2,0-0.3,0c-0.2,0.1-0.3,0.3-0.2,0.5c0,0.2,0.2,0.4,0.7,0.5c0,0,0.1,0,0.1,0
			c0.3,0,0.5-0.1,0.6-0.3c0.1-0.2,0.2-0.4,0.2-0.9c0-0.3-0.1-1.2-0.2-2.8C31.2,144.1,31.7,144.1,32.2,144.1z"/>
		<path class="st7" d="M27.1,137.3c0.1,0,0.2,0,0.3,0.1c1.3,0.2,2.7,0.3,4.1,0.3c0.2,0,0.4,0,0.6,0c0.3,0,0.5-0.2,0.5-0.5
			c0-0.3-0.2-0.5-0.5-0.5c0,0,0,0,0,0c-0.4,0-0.9,0-1.6,0l-0.2-1.5c-0.1-0.3-0.2-0.4-0.5-0.4c-0.2,0-0.3,0.1-0.4,0.2
			c-0.1,0.1-0.1,0.2-0.1,0.4l0.2,1.3c-0.9-0.1-1.6-0.1-2.1-0.2l0,0c-0.3,0-0.5,0.1-0.5,0.4C26.8,137.1,26.9,137.3,27.1,137.3z"/>
		<path class="st7" d="M27.2,141.2c0,0.2,0.1,0.4,0.4,0.5l4.3,0.1c0.3,0,0.5-0.2,0.5-0.5c0-0.1,0-0.3-0.1-0.3
			c-0.1-0.1-0.2-0.1-0.3-0.1l-0.9,0c0.1-0.4,0.3-0.8,0.4-1.2c0-0.1,0-0.2,0.1-0.2c0-0.2,0-0.3-0.1-0.4c-0.1-0.1-0.2-0.2-0.3-0.2
			c-0.2,0-0.4,0.1-0.5,0.3c-0.2,0.6-0.4,1.2-0.5,1.6l-1,0c0,0,0,0,0-0.1c-0.1-0.4-0.3-1-0.3-1.7c0-0.1-0.1-0.4-0.5-0.4
			c-0.3,0-0.5,0.2-0.5,0.5c0.1,0.7,0.2,1.2,0.3,1.6l-0.5,0C27.4,140.7,27.2,140.9,27.2,141.2z"/>
		<path class="st7" d="M54.6,147.9L54.6,147.9c-0.2,0-0.5,0-0.8,0l0-0.7c0.1,0,0.2,0,0.3,0c0.1,0,0.2,0,0.3,0c0.4,0,0.5-0.3,0.5-0.5
			c0-0.3-0.2-0.5-0.5-0.5c-0.2,0-0.4,0-0.7,0l0-0.8c0-0.3-0.2-0.5-0.5-0.5c0,0,0,0,0,0c-0.2,0-0.3,0.1-0.4,0.1
			c-0.1,0.1-0.1,0.2-0.1,0.4l0,0.7c-0.5,0-0.9-0.1-1.1-0.1l0,0c-0.3,0-0.5,0.1-0.5,0.4c0,0.3,0.1,0.4,0.3,0.5c0,0,0.1,0,0.2,0
			c0.4,0.1,0.8,0.1,1.2,0.1l0,0.7c-0.5,0-0.9-0.1-1.2-0.1c-0.3,0-0.5,0.1-0.5,0.4c0,0.3,0.1,0.4,0.3,0.5c0,0,0.1,0,0.2,0
			c0.8,0.1,1.7,0.1,2.6,0.1l0.4,0c0.4-0.1,0.5-0.3,0.5-0.5C55.1,148.1,54.9,147.9,54.6,147.9z"/>
		<path class="st7" d="M53.5,138.5c0.3-0.1,0.4-0.2,0.5-0.5c0.1-0.8,0.1-1.5,0.1-2.2c0-0.2-0.1-0.5-0.6-0.5c-1.3-0.1-3-0.2-5.1-0.4
			c-0.3,0-0.5,0.1-0.5,0.4c0,0.3,0.1,0.4,0.4,0.5c1.8,0.1,3.4,0.3,4.9,0.4c0,0.4,0,0.9-0.1,1.4c-0.4,0-1,0-1.8,0c-0.6,0-1,0-1.3-0.1
			c0-0.1,0.1-0.2,0.1-0.4c0-0.1,0-0.3-0.1-0.4c-0.1-0.1-0.2-0.2-0.4-0.2c-0.3,0-0.4,0.1-0.5,0.4c-0.2,1.1-0.5,2.1-0.9,2.9
			c-0.5,1-1.2,1.6-2,1.8c-0.2,0.1-0.3,0.2-0.3,0.4c0,0.2,0.1,0.4,0.3,0.5c0.1,0,0.1,0,0.2,0c0.1,0,0.1,0,0.2,0
			c0.1,0,0.2-0.1,0.3-0.1c0.9-0.4,1.6-1.1,2.2-2.2c0.3-0.5,0.5-1.2,0.7-1.8c0.3,0,0.9,0,1.8,0.1C52.6,138.5,53.3,138.5,53.5,138.5z"
			/>
		<path class="st7" d="M54.2,142.7c-0.1-0.2-0.2-0.3-0.4-0.3c-0.3,0-0.5,0.2-0.5,0.5c0,0,0,0.1,0,0.1c0,0.1,0.1,0.3,0.2,0.4
			c-0.3,0-0.6,0-0.9,0c-0.1,0-0.1,0-0.2,0c0.7-0.8,1.1-1.4,1.4-2c0.2,0,0.4,0,0.6,0c0.1,0,0.3,0,0.5,0c0.4,0,0.5-0.3,0.5-0.5
			c0-0.3-0.2-0.5-0.5-0.5c0,0,0,0,0,0c-0.4,0-0.9,0-1.5,0c-1.1,0-1.9-0.1-2.3-0.2l0,0c-0.3,0-0.5,0.1-0.5,0.4c0,0.3,0.1,0.4,0.3,0.5
			c0.1,0,0.1,0,0.3,0c0.5,0.1,1.1,0.1,1.7,0.1c-0.4,0.6-0.9,1.2-1.4,1.8c-0.1,0.1-0.2,0.2-0.3,0.2c-0.1,0.1-0.2,0.3-0.2,0.5
			c0,0.2,0.1,0.3,0.5,0.4c0.3,0,0.8,0.1,1.4,0.1c0.4,0,0.9,0,1.5-0.1c0.2,0.2,0.3,0.4,0.5,0.5c0.1,0.1,0.2,0.1,0.3,0.1
			c0.2,0,0.3-0.1,0.4-0.2l0,0c0.1-0.2,0-0.5-0.2-0.6C54.8,143.8,54.4,143.3,54.2,142.7z"/>
		<path class="st7" d="M72.9,147.8c0.3,0,0.5-0.2,0.5-0.5c0-0.3-0.2-0.5-0.5-0.5c-4.1,0-6.9-0.1-8.2-0.2c0.2-2.1,0.3-5.5,0.3-10.2
			c0.5,0,1.2,0.1,2,0.1c1.6,0,3.4,0,5.4,0c0.3,0,0.4-0.2,0.5-0.5c0-0.3-0.2-0.5-0.5-0.5c-3,0.1-5.9,0-8.6-0.2c-0.2,0-0.3,0-0.4,0.1
			c-0.1,0.1-0.1,0.2-0.2,0.4c0,0.3,0.2,0.5,0.5,0.5c0.1,0,0.1,0,0.2,0c0,5.2-0.1,8.8-0.4,10.5l0,0c0,0.3,0.1,0.6,0.5,0.6
			C65.3,147.7,68.2,147.8,72.9,147.8z"/>
		<path class="st7" d="M67.6,145.3c0.3,0,0.7,0.1,1.3,0.1c0.2,0,0.4,0,0.6,0c0.2,0,0.4,0,0.5,0c0.3,0,0.5-0.2,0.5-0.5
			c0-0.5,0-1.1,0-1.6c0-0.5-0.3-0.7-0.8-0.8c-0.6,0-1.1-0.1-1.7-0.1c-0.1-0.1-0.2-0.1-0.4-0.2c-0.3,0-0.5,0.2-0.5,0.5
			c0,0.5,0,1.2,0,2C67.1,145.1,67.3,145.3,67.6,145.3z M68.1,144.4c0-0.3,0-0.7,0-1c0.5,0,1,0,1.4,0c0,0.5,0,0.8,0,1
			C69,144.5,68.5,144.5,68.1,144.4z"/>
		<path class="st7" d="M71.6,139.8c0-0.7,0-1.3-0.1-1.9l0,0c-0.1-0.3-0.2-0.6-0.8-0.6c-0.5,0-1.2,0-1.9,0c-0.1-0.2-0.2-0.3-0.4-0.3
			c0,0,0,0,0,0c-0.2,0-0.3,0.1-0.4,0.2c-0.1,0.1-0.1,0.3-0.1,0.4c0.1,0.4,0.1,1.2,0.1,2.2c0,0.2,0,0.3,0.1,0.4
			c0.1,0.1,0.2,0.1,0.3,0.1c0.3,0,0.6,0.1,1.1,0.1c0.4,0,0.9,0,1.5,0C71.4,140.3,71.6,140,71.6,139.8z M68.8,138.3
			c0.6,0,1.1,0,1.7,0c0,0,0,0,0,0c0.1,0.3,0.1,0.7,0.1,1.1c0,0,0,0,0,0c-0.6,0-1.2,0-1.7,0c0,0,0,0,0,0
			C68.9,139.1,68.9,138.7,68.8,138.3z"/>
		<path class="st7" d="M72.2,145.6c0.3,0,0.6,0.1,1.2,0.1c0.2,0,0.4,0,0.5,0c0.2,0,0.4,0,0.5,0c0.3,0,0.5-0.2,0.5-0.5
			c0-0.6,0-1.2,0-1.7c0-0.5-0.3-0.7-0.7-0.8c-0.5,0-1-0.1-1.5-0.1c-0.1-0.1-0.2-0.1-0.4-0.2c-0.3,0-0.5,0.2-0.5,0.5
			c0,0.5,0,1.3,0,2.2C71.7,145.3,71.9,145.5,72.2,145.6z M73.9,144.7c-0.4,0-0.8,0-1.2,0c0-0.4,0-0.8,0-1.2c0.4,0,0.8,0,1.2,0l0,0
			C74,144.1,73.9,144.5,73.9,144.7z M74.1,143.5L74.1,143.5c-0.1,0-0.1,0-0.1,0L74.1,143.5C74.1,143.5,74.1,143.5,74.1,143.5z"/>
		<path class="st7" d="M79,94.4c-0.3,0-0.5,0.1-0.5,0.4l0,0c-0.1,0.6-0.4,1.2-1,1.7c-0.1,0.1-0.2,0.2-0.2,0.4c0,0.2,0.1,0.3,0.2,0.4
			c0.1,0,0.2,0.1,0.3,0.1c0.1,0,0.2,0,0.2,0c0.2-0.1,0.4-0.3,0.6-0.5c0.4-0.5,0.7-1.1,0.8-1.8C79.4,94.7,79.3,94.5,79,94.4z"/>
		<path class="st7" d="M82.7,97c0-0.4-0.2-0.5-0.4-0.5c-0.2,0-0.4,0.1-0.5,0.3c-0.1,0.2-0.2,0.3-0.4,0.3c-0.6,0-0.6-0.3-0.6-0.3
			c0-0.1,0.1-0.5,0.2-0.9c0.1-0.3-0.1-0.5-0.3-0.6l0,0c-0.3,0-0.5,0.1-0.6,0.4c-0.1,0.6-0.2,0.9-0.2,1.2c0,0.4,0.1,0.7,0.3,0.9
			c0.3,0.3,0.7,0.4,1.3,0.4c0,0,0,0,0,0C82.4,98,82.7,97.4,82.7,97z"/>
		<path class="st7" d="M69.5,87.8c-0.1-0.1-0.2-0.1-0.3-0.1c-0.3,0-0.5,0.2-0.5,0.5c0,0.5,0,1.1,0,1.9c0,0.3,0.1,0.5,0.4,0.6
			c0.2,0,0.6,0,1.1,0.1c0.2,0,0.3,0,0.4,0c0.3,0,0.4,0,0.5,0c0.3,0,0.4-0.2,0.5-0.5c0.1-0.5,0.1-1,0-1.5c0-0.4-0.3-0.7-0.8-0.8
			C70.5,87.8,70,87.8,69.5,87.8z M70.9,88.7L70.9,88.7c-0.1,0-0.1,0-0.1,0L70.9,88.7C70.9,88.7,70.9,88.7,70.9,88.7z M70.8,89.7
			c-0.4,0-0.8,0-1.1,0c0-0.3,0-0.6,0-0.9c0.4,0,0.8,0,1.1,0l0,0C70.8,89.2,70.8,89.6,70.8,89.7z"/>
		<path class="st7" d="M73,90.5c0.3,0,0.7,0,1.2,0.1c0.2,0,0.3,0,0.5,0c0.3,0,0.5,0,0.6,0c0.3,0,0.4-0.2,0.5-0.5
			c0.1-0.5,0.1-1,0-1.5c0-0.4-0.3-0.7-0.8-0.8c-0.5,0-1.1,0-1.6,0c-0.1-0.1-0.2-0.1-0.3-0.1c-0.3,0-0.5,0.2-0.5,0.5
			c0,0.5,0,1.1,0,1.8C72.5,90.2,72.6,90.4,73,90.5z M73.5,89.6c0-0.3,0-0.6,0-0.9c0.4,0,0.9,0,1.3,0c0,0.4,0,0.7,0,0.9
			C74.3,89.6,73.9,89.6,73.5,89.6z"/>
		<path class="st7" d="M71.6,92.8c0,0.2,0.1,0.4,0.4,0.5l1.4,0c-0.1,0-0.2,0.1-0.2,0.1c-0.1,0.1-0.1,0.2-0.1,0.3l-0.7,0
			c-0.3,0-0.5,0.2-0.5,0.5c0,0.2,0.1,0.4,0.4,0.5l0.8,0l0,0.4l-0.8,0c-0.3,0-0.5,0.2-0.5,0.5c0,0.2,0.1,0.4,0.4,0.5l0.9,0l0,0.8
			c-0.3,0-0.5,0-0.9,0c-0.3,0-0.5,0.2-0.5,0.5c0,0.3,0.2,0.5,0.5,0.5c1.1,0,2-0.1,2.8-0.2c0.3-0.1,0.4-0.3,0.4-0.5
			c0-0.1-0.1-0.2-0.2-0.3c-0.1-0.1-0.2-0.1-0.4-0.1c-0.2,0-0.5,0.1-0.8,0.1l0-0.7l0.8,0c0.3,0,0.5-0.2,0.5-0.5
			c0-0.3-0.1-0.5-0.4-0.5l-0.8,0l0-0.4l0.9,0c0.3,0,0.5-0.2,0.5-0.5c0-0.3-0.1-0.5-0.4-0.5l-1,0c0-0.2-0.1-0.4-0.3-0.4l1.7,0
			c0.3,0,0.5-0.2,0.5-0.5c0-0.1,0-0.3-0.1-0.3c-0.1-0.1-0.2-0.1-0.3-0.1l-1.4,0l-0.1-0.7c-0.1-0.3-0.2-0.4-0.5-0.4
			c-0.2,0-0.3,0.1-0.4,0.2c-0.1,0.1-0.1,0.2-0.1,0.4l0.1,0.5l-0.9,0h0C71.7,92.4,71.6,92.5,71.6,92.8z"/>
		<path class="st7" d="M73.1,86.9c0.3,0,0.5-0.2,0.5-0.5l-0.1-0.9c0.1,0,0.3,0,0.4,0c0.4,0,0.8,0,1.4,0c0.3,0,0.4-0.2,0.5-0.5
			c0-0.3-0.2-0.5-0.5-0.5c-0.6,0-1.3,0-1.9,0l0-0.2c0-0.3-0.2-0.4-0.5-0.4c0,0,0,0,0,0c-0.2,0-0.3,0.1-0.4,0.1
			c-0.1,0.1-0.1,0.2-0.1,0.4l0.2,2.1C72.7,86.7,72.9,86.9,73.1,86.9z"/>
		<path class="st7" d="M77.9,93.4c0.8,0.1,1.7,0.1,2.7,0.1c0.2,0,0.5,0,0.7,0c0.3,0,0.6-0.2,0.5-0.8c0-2.3-0.1-4.3-0.2-6
			c0-0.2-0.2-0.5-0.6-0.5c-0.5,0-1.4-0.1-2.6-0.1c-0.1-0.1-0.2-0.1-0.4-0.1c-0.3,0-0.5,0.2-0.5,0.5c0,1.9-0.1,4-0.2,6
			c-0.1,0.2,0,0.4,0.1,0.6C77.5,93.3,77.7,93.4,77.9,93.4z M78.5,90.2c0-0.3,0-0.6,0-0.9l2.3,0.1c0,0.3,0,0.6,0,0.9L78.5,90.2z
			 M78.6,88.3c0-0.4,0-0.8,0-1.2c0.8,0,1.6,0,2.1,0.1c0,0.4,0,0.8,0.1,1.2L78.6,88.3z M78.4,92.4c0-0.4,0.1-0.9,0.1-1.3l2.4,0.1
			c0,0.4,0,0.8,0,1.2C80,92.5,79.2,92.5,78.4,92.4z"/>
		<path class="st7" d="M71.2,91.8c-0.3-0.1-0.5,0-0.6,0.3c-0.4,0.7-1,1.2-1.7,1.6c-0.2,0.1-0.3,0.3-0.3,0.5c0,0.2,0.1,0.4,0.5,0.4
			c0.2,0,0.5-0.1,0.8-0.3L70,97c0,0.3,0.2,0.4,0.5,0.4c0,0,0,0,0,0c0.4,0,0.5-0.3,0.5-0.5v-0.1c-0.1-1.1-0.1-2.3-0.2-3.5
			c0.4-0.4,0.6-0.8,0.8-1.1C71.6,92.1,71.5,91.9,71.2,91.8z"/>
		<path class="st7" d="M68.6,85.8c0.6,0,1.2,0,1.7-0.1l0,0.6c0,0.3,0.2,0.4,0.5,0.4c0.3,0,0.5-0.2,0.5-0.5L71.2,84
			c0-0.3-0.2-0.5-0.5-0.5c0,0,0,0,0,0c-0.2,0-0.3,0.1-0.4,0.1c-0.1,0.1-0.1,0.2-0.1,0.4l0.1,0.6c-0.4,0.1-1,0.1-1.6,0.1
			c-0.3,0-0.5,0.2-0.5,0.5C68.2,85.6,68.3,85.7,68.6,85.8z"/>
		<path class="st7" d="M91.4,84.3c0.2,0.2,0.5,0.5,0.9,0.9c0.5,0.4,0.9,0.6,1.2,0.6c0,0,0,0,0,0c0.3,0,0.4-0.1,0.5-0.4
			c0-0.1,0-0.3-0.3-0.5l-0.1,0c-0.6-0.3-1-0.6-1.4-1c-0.1-0.2-0.3-0.2-0.5-0.2c-0.2,0-0.4,0.2-0.4,0.6L91.4,84.3z"/>
		<path class="st7" d="M90.1,86.8c0.1,0,0.2,0,0.3,0.1c1.4,0.1,2.9,0.2,4.5,0.2c0.2,0,0.4,0,0.6,0c0.4,0,0.5-0.3,0.5-0.5
			c0-0.3-0.2-0.5-0.5-0.5h0c-0.5,0-1.2,0-2.1,0C92,86.1,91,86,90.3,85.9l0,0c-0.3,0-0.5,0.1-0.5,0.4C89.8,86.6,89.9,86.8,90.1,86.8z
			"/>
		<path class="st7" d="M91.8,97.3c0.1,0.1,0.3,0.2,0.6,0.3c0.5,0,1,0.1,1.5,0.1c0.6,0,1.2,0,1.6-0.1c0.3-0.1,0.5-0.2,0.5-0.4
			c0-0.2,0-0.6,0-1.4c0-0.7-0.1-1.3-0.1-1.7l0,0c-0.1-0.3-0.3-0.5-0.7-0.5c-0.8,0-1.7-0.1-2.6-0.1c-0.1-0.1-0.2-0.1-0.3-0.1
			c-0.2,0-0.3,0-0.4,0.1c-0.1,0.1-0.1,0.2-0.1,0.4c0.1,0.7,0.1,1.7-0.1,3.1C91.7,97,91.7,97.2,91.8,97.3z M92.7,96.7
			c0-0.3,0-0.5,0-0.8l2.3,0.1c0,0.2,0,0.5,0,0.7C94.7,96.7,93.9,96.7,92.7,96.7z M92.8,95c0-0.3,0-0.5,0-0.7c0.8,0,1.5,0,2.2,0.1
			c0,0.2,0,0.4,0.1,0.7L92.8,95z"/>
		<path class="st7" d="M96.7,89.9c-0.6,0-1.3,0-2.1,0c0.1-0.3,0.2-0.7,0.3-1.1c0-0.1,0-0.2,0.1-0.2c0-0.2,0-0.3-0.1-0.4
			c-0.1-0.1-0.2-0.2-0.3-0.2c-0.2,0-0.4,0.1-0.5,0.4c-0.2,0.6-0.3,1.1-0.5,1.5c-0.3,0-0.7,0-1,0l-0.4-1.7c-0.1-0.2-0.2-0.4-0.5-0.4
			c0,0,0,0,0,0c-0.2,0-0.3,0.1-0.4,0.2c-0.1,0.1-0.1,0.2-0.1,0.4l0.3,1.5c-1,0-1.8-0.1-2.4-0.1c-0.3,0-0.5,0.1-0.5,0.4
			c0,0.3,0.1,0.4,0.3,0.5c0.1,0,0.3,0,0.4,0c2.1,0.1,4.2,0.2,6.4,0.2c0.3,0,0.6,0,0.9,0c0.4,0,0.5-0.3,0.5-0.5
			C97.2,90.1,97,89.9,96.7,89.9z"/>
		<path class="st7" d="M113.6,88.8c0-0.7,0-1.3-0.1-1.9l0,0c-0.1-0.3-0.2-0.6-0.8-0.6c-0.5,0-1.2,0-1.9,0c-0.1-0.2-0.2-0.3-0.4-0.3
			c0,0,0,0,0,0c-0.2,0-0.3,0.1-0.4,0.2c-0.1,0.1-0.1,0.3-0.1,0.4c0.1,0.4,0.1,1.2,0.1,2.2c0,0.2,0,0.3,0.1,0.4
			c0.1,0.1,0.2,0.1,0.3,0.1c0.3,0,0.6,0.1,1.1,0.1c0.4,0,0.9,0,1.5,0C113.4,89.3,113.6,89,113.6,88.8z M110.8,87.3
			c0.6,0,1.1,0,1.7,0c0,0,0,0,0,0c0.1,0.3,0.1,0.7,0.1,1.1c0,0,0,0,0,0c-0.6,0-1.2,0-1.7,0c0,0,0,0,0,0
			C110.9,88.1,110.9,87.7,110.8,87.3z"/>
		<path class="st7" d="M114.9,95.8c-4.1,0-6.9-0.1-8.2-0.2c0.2-2.1,0.3-5.5,0.3-10.2c0.5,0,1.2,0.1,2,0.1c1.6,0,3.4,0,5.4,0
			c0.3,0,0.4-0.2,0.5-0.5c0-0.3-0.2-0.5-0.5-0.5c-3,0.1-5.9,0-8.6-0.2c-0.2,0-0.3,0-0.4,0.1c-0.1,0.1-0.1,0.2-0.2,0.4
			c0,0.3,0.2,0.5,0.5,0.5c0.1,0,0.1,0,0.2,0c0,5.2-0.1,8.8-0.4,10.5l0,0c0,0.3,0.1,0.6,0.5,0.6c1.1,0.1,4.1,0.2,8.7,0.2
			c0.3,0,0.5-0.2,0.5-0.5C115.4,96,115.2,95.8,114.9,95.8z"/>
		<path class="st7" d="M109.6,94.3c0.3,0,0.7,0.1,1.3,0.1c0.2,0,0.4,0,0.6,0c0.2,0,0.4,0,0.5,0c0.3,0,0.5-0.2,0.5-0.5
			c0-0.5,0-1.1,0-1.6c0-0.5-0.3-0.7-0.8-0.8c-0.6,0-1.1-0.1-1.7-0.1c-0.1-0.1-0.2-0.1-0.4-0.2c-0.3,0-0.5,0.2-0.5,0.5
			c0,0.5,0,1.2,0,2C109.1,94.1,109.3,94.3,109.6,94.3z M110.1,93.4c0-0.3,0-0.7,0-1c0.5,0,1,0,1.4,0c0,0.5,0,0.8,0,1
			C111,93.5,110.5,93.5,110.1,93.4z"/>
		<path class="st7" d="M116.1,91.6c-0.5,0-1-0.1-1.5-0.1c-0.1-0.1-0.2-0.1-0.4-0.2c-0.3,0-0.5,0.2-0.5,0.5c0,0.5,0,1.3,0,2.2
			c0,0.3,0.1,0.5,0.4,0.6c0.3,0,0.6,0.1,1.2,0.1c0.2,0,0.4,0,0.5,0c0.2,0,0.4,0,0.5,0c0.3,0,0.5-0.2,0.5-0.5c0-0.6,0-1.2,0-1.7
			C116.9,91.9,116.6,91.6,116.1,91.6z M116.1,92.5L116.1,92.5c-0.1,0-0.1,0-0.1,0L116.1,92.5C116.1,92.5,116.1,92.5,116.1,92.5z
			 M115.9,93.7c-0.4,0-0.8,0-1.2,0c0-0.4,0-0.8,0-1.2c0.4,0,0.8,0,1.2,0l0,0C116,93.1,115.9,93.5,115.9,93.7z"/>
		<path class="st7" d="M149.2,65.4L149.2,65.4c-0.1,0-0.1-0.1-0.2-0.1c-0.1-0.1-0.2-0.1-0.3-0.1c-0.3,0-0.5,0.2-0.5,0.5
			c0,0.1,0,0.2,0.1,0.3c0.5,0.6,1.3,1.2,2.3,1.9c1,0.7,1.9,1.1,2.6,1.3l0,0c0,0,0.1,0,0.1,0c0.1,0,0.1,0,0.2,0
			c0.2,0,0.3-0.2,0.3-0.4c0-0.3-0.1-0.4-0.4-0.5c-0.6-0.2-1.4-0.6-2.4-1.2C150.3,66.4,149.6,65.9,149.2,65.4z"/>
		<path class="st7" d="M151.9,62c0.2,0,0.3,0,0.4-0.1c0.1-0.1,0.1-0.2,0.1-0.4c0-0.3-0.2-0.5-0.5-0.5c-0.9,0-1.9,0-3.2,0
			c0.2-0.7,0.3-1.5,0.5-2.3v0c0-0.2,0-0.3-0.1-0.4c-0.1-0.1-0.2-0.2-0.4-0.2c-0.3,0-0.4,0.1-0.5,0.4c-0.1,0.8-0.3,1.7-0.5,2.4
			c-1.7-0.1-2.8-0.2-3.4-0.2c-0.1,0-0.2,0-0.3,0c-0.2,0-0.4,0.1-0.4,0.4c0,0.3,0.1,0.5,0.4,0.6c0.5,0.1,1.7,0.2,3.5,0.3
			c-0.7,2.3-1.8,4.1-3.3,5.6c-0.1,0.1-0.1,0.2-0.1,0.4c0,0.3,0.2,0.4,0.4,0.4c0.1,0,0.2,0,0.3-0.1c0.1-0.1,0.1-0.1,0.2-0.2
			c1.5-1.5,2.7-3.5,3.5-6.1C149.7,62,150.9,62,151.9,62z"/>
		<path class="st7" d="M168.7,66.3c0.1-0.2,0-0.4-0.2-0.6c-0.2-0.1-0.4-0.1-0.5,0.1l-0.6,0.6c0,0-0.1,0-0.1-0.1
			c-0.1-0.1-0.2-0.1-0.3-0.1c0,0,0,0,0,0c-0.3,0-0.5,0.2-0.5,0.5c0,0.1,0.1,0.3,0.2,0.4c0.4,0.4,0.9,0.8,1.5,1
			c0.1,0,0.2,0.1,0.3,0.1c0,0,0.1,0,0.1,0c0.3,0,0.4-0.2,0.5-0.4c0.1-0.3-0.1-0.5-0.4-0.6c-0.2-0.1-0.4-0.1-0.5-0.2
			c0.1-0.1,0.2-0.2,0.3-0.3C168.7,66.4,168.7,66.3,168.7,66.3z"/>
		<path class="st7" d="M164.3,61.1c-0.3,0-0.5,0.1-0.5,0.4c0,0.3,0.1,0.4,0.3,0.5c0.1,0,0.1,0,0.2,0c1.2,0.1,2.4,0.2,3.7,0.2
			c0.2,0,0.3,0,0.5,0c0.4,0,0.5-0.3,0.5-0.5c0-0.3-0.2-0.5-0.5-0.5c-0.4,0-1,0-1.6,0c0-0.2,0-0.4,0-0.5l1.1,0c0.3,0,0.5-0.2,0.5-0.5
			c0-0.1,0-0.3-0.1-0.3c-0.1-0.1-0.2-0.1-0.4-0.1l-1.2,0c0-0.1,0-0.1,0-0.2c0-0.3-0.2-0.5-0.5-0.5c-0.3,0-0.5,0.2-0.5,0.5l0,0.2
			l-1.1,0c-0.3,0-0.5,0.2-0.5,0.5c0,0.3,0.1,0.4,0.4,0.5l1.2,0l0,0.5C165.2,61.2,164.7,61.1,164.3,61.1L164.3,61.1z"/>
		<path class="st7" d="M172.6,68.9c0-0.2-0.1-1.8-0.2-4.8c-0.1-3.1-0.2-4.7-0.2-5c-0.1-0.8-0.6-1.2-1.5-1.2c-1.2,0-4-0.1-8.3-0.2
			c-0.2,0-0.3,0-0.4,0.1c-0.1,0.1-0.1,0.2-0.1,0.4c0,0.3,0.2,0.4,0.4,0.5c4.3,0.1,7.1,0.2,8.4,0.2c0.3,0,0.5,0.2,0.6,0.4
			c0,0.2,0.1,1.8,0.2,4.8c0.1,2.7,0.1,4.2,0.2,4.6c0,0,0,0,0,0c-0.2,0-0.3,0-0.3,0.1c-0.1,0.1-0.1,0.2-0.1,0.4
			c0,0.2,0.1,0.5,0.6,0.5c0,0,0,0,0,0c0.3,0,0.5-0.1,0.6-0.2C172.6,69.3,172.6,69.1,172.6,68.9z M171.6,68.6
			C171.6,68.6,171.6,68.6,171.6,68.6l0.1,0L171.6,68.6C171.6,68.6,171.6,68.6,171.6,68.6z"/>
		<path class="st7" d="M164.1,67.4L164.1,67.4c0.1,0,0.3,0,0.4-0.1c0.2-0.1,0.4-0.2,0.7-0.4c0,0.5-0.1,0.9-0.1,1.1
			c-0.1,0.5,0.2,0.6,0.4,0.6c0,0,0,0,0.1,0c0.2,0,0.5-0.1,0.9-0.2c0.1,0,0.2-0.1,0.3-0.1c0.2-0.1,0.2-0.2,0.3-0.4
			c0-0.3-0.2-0.4-0.4-0.5c-0.1,0-0.2,0-0.2,0c-0.1,0-0.1,0-0.2,0.1c0-0.4,0-0.9,0.1-1.4c0,0,0-0.1,0-0.1c0.2-0.2,0.4-0.4,0.5-0.6
			c0.1-0.1,0.1-0.1,0.1-0.2c0,0,0-0.1,0-0.1c0.2,0,0.5,0,0.8,0c0.4,0,0.6-0.2,0.6-0.6c0-0.6-0.1-1.1-0.2-1.3
			c-0.1-0.2-0.4-0.4-0.8-0.4h-1.8c-0.1,0-0.2-0.1-0.3-0.1c-0.3,0-0.4,0.2-0.4,0.5c0,0.3,0,0.7,0.1,1.2c0,0.4,0.1,0.6,0.5,0.7
			c0.2,0,0.3,0,0.5,0.1c-0.1,0.2-0.4,0.4-0.7,0.7c-0.3,0.3-0.7,0.5-1,0.6c-0.3,0.1-0.4,0.3-0.4,0.5
			C163.7,67.2,163.9,67.4,164.1,67.4z M165.6,63.8h1.4c0,0,0,0,0,0c0.1,0.2,0.1,0.4,0.1,0.5c-0.7,0-1.2,0-1.5-0.1
			C165.6,64.1,165.6,63.9,165.6,63.8z"/>
		<path class="st7" d="M161,59.6c-0.3,0-0.5,0.2-0.5,0.5c0,4-0.1,6.5-0.2,7.4c0,0.3,0.1,0.5,0.5,0.5c0.3,0,0.5-0.2,0.5-0.4
			c0.2-1,0.2-3.5,0.2-7.5C161.5,59.8,161.3,59.6,161,59.6z"/>
		<path class="st7" d="M168.6,69.7c0.3,0,0.7,0,1,0c0.1,0,0.3,0,0.3-0.1c0.1-0.1,0.1-0.2,0.1-0.4c0-0.3-0.2-0.5-0.5-0.5
			c-0.9,0-2.1,0-3.6-0.1c-1.7-0.1-2.9-0.1-3.5-0.2c-0.1,0-0.2,0-0.3,0c0,0,0,0,0,0c-0.2,0-0.4,0.1-0.4,0.4c0,0.3,0.1,0.5,0.4,0.6
			c0.5,0.1,1.8,0.2,3.8,0.2C166.8,69.7,167.8,69.7,168.6,69.7z"/>
		<path class="st7" d="M187.2,64.4c-0.3,0-0.5,0.2-0.5,0.5c0,0.5,0,1.3,0,2.2c0,0.3,0.1,0.5,0.4,0.6c0.3,0,0.6,0.1,1.2,0.1
			c0.2,0,0.4,0,0.5,0c0.2,0,0.4,0,0.5,0c0.3,0,0.5-0.2,0.5-0.5c0-0.6,0-1.2,0-1.7c0-0.5-0.3-0.7-0.7-0.8c-0.5,0-1-0.1-1.5-0.1
			C187.5,64.4,187.4,64.4,187.2,64.4z M188.9,66.7c-0.4,0-0.8,0-1.2,0c0-0.4,0-0.8,0-1.2c0.4,0,0.8,0,1.2,0l0,0
			C189,66.1,188.9,66.5,188.9,66.7z M189.1,65.5L189.1,65.5c-0.1,0-0.1,0-0.1,0L189.1,65.5C189.1,65.5,189.1,65.5,189.1,65.5z"/>
		<path class="st7" d="M182.6,67.3c0.3,0,0.7,0.1,1.3,0.1c0.2,0,0.4,0,0.6,0c0.2,0,0.4,0,0.5,0c0.3,0,0.5-0.2,0.5-0.5
			c0-0.5,0-1.1,0-1.6c0-0.5-0.3-0.7-0.8-0.8c-0.6,0-1.1-0.1-1.7-0.1c-0.1-0.1-0.2-0.1-0.4-0.2c-0.3,0-0.5,0.2-0.5,0.5
			c0,0.5,0,1.2,0,2C182.1,67.1,182.3,67.3,182.6,67.3z M183.1,66.4c0-0.3,0-0.7,0-1c0.5,0,1,0,1.4,0c0,0.5,0,0.8,0,1
			C184,66.5,183.5,66.5,183.1,66.4z"/>
		<path class="st7" d="M188.4,69.3c0-0.3-0.2-0.5-0.5-0.5c-4.1,0-6.9-0.1-8.2-0.2c0.2-2.1,0.3-5.5,0.3-10.2c0.5,0,1.2,0.1,2,0.1
			c1.6,0,3.4,0,5.4,0c0.3,0,0.4-0.2,0.5-0.5c0-0.3-0.2-0.5-0.5-0.5c-3,0.1-5.9,0-8.6-0.2c-0.2,0-0.3,0-0.4,0.1
			c-0.1,0.1-0.1,0.2-0.2,0.4c0,0.3,0.2,0.5,0.5,0.5c0.1,0,0.1,0,0.2,0c0,5.2-0.1,8.8-0.4,10.5l0,0c0,0.3,0.1,0.6,0.5,0.6
			c1.1,0.1,4.1,0.2,8.7,0.2C188.2,69.8,188.4,69.6,188.4,69.3z"/>
		<path class="st7" d="M186.6,61.8c0-0.7,0-1.3-0.1-1.9l0,0c-0.1-0.3-0.2-0.6-0.8-0.6c-0.5,0-1.2,0-1.9,0c-0.1-0.2-0.2-0.3-0.4-0.3
			c0,0,0,0,0,0c-0.2,0-0.3,0.1-0.4,0.2c-0.1,0.1-0.1,0.3-0.1,0.4c0.1,0.4,0.1,1.2,0.1,2.2c0,0.2,0,0.3,0.1,0.4
			c0.1,0.1,0.2,0.1,0.3,0.1c0.3,0,0.6,0.1,1.1,0.1c0.4,0,0.9,0,1.5,0C186.4,62.3,186.6,62,186.6,61.8z M183.8,60.3
			c0.6,0,1.1,0,1.7,0c0,0,0,0,0,0c0.1,0.3,0.1,0.7,0.1,1.1c0,0,0,0,0,0c-0.6,0-1.2,0-1.7,0c0,0,0,0,0,0
			C183.9,61.1,183.9,60.7,183.8,60.3z"/>
		<path class="st7" d="M232.8,41.7c-1.1-0.1-2.3-0.1-3.6-0.1c-0.2,0-0.4,0-0.5,0.1c-0.1,0.1-0.1,0.2-0.1,0.4c0,0.3,0,0.7,0,1
			c-0.3,0-0.6-0.1-0.8-0.1c-0.1,0-0.2,0-0.3,0c-0.2,0-0.4,0.1-0.4,0.4c0,0.4,0.2,0.5,0.4,0.6c0.5,0.1,1.6,0.2,3.3,0.2
			c0.8,0,1.6,0.1,2.4,0.1c0.3,0,0.6,0,0.9,0c0.1,0,0.3,0,0.4-0.1c0.1-0.1,0.1-0.2,0.1-0.4c0-0.3-0.2-0.5-0.5-0.5h-0.5
			c0-0.3,0-0.5,0-0.6C233.6,42,233.2,41.7,232.8,41.7z M232.6,42.7l0,0.5h-0.4c0-0.2,0-0.4,0.1-0.6
			C232.3,42.6,232.4,42.6,232.6,42.7C232.5,42.6,232.6,42.6,232.6,42.7C232.6,42.7,232.6,42.7,232.6,42.7z M231.3,42.6l-0.1,0.6
			c-0.1,0-0.3,0-0.4,0h-0.1l-0.1-0.7C230.9,42.6,231.1,42.6,231.3,42.6z M229.8,43.2l-0.3,0c0-0.2,0-0.4,0-0.6c0,0,0,0,0,0
			c0,0,0.1,0,0.2,0L229.8,43.2z"/>
		<path class="st7" d="M232.5,35.1c0,0.3,0.1,0.5,0.5,0.6c0.3,0,0.5-0.1,0.5-0.4c0.1-0.5,0.1-1,0.1-1.4c0-0.3-0.2-0.5-0.5-0.5
			c-0.4,0-1.5-0.1-3.4-0.1l0-0.5l1.8,0c0.3,0,0.5-0.2,0.5-0.5c0-0.1,0-0.3-0.1-0.3c-0.1-0.1-0.2-0.1-0.3-0.1l-1.8,0l0-0.3
			c0-0.3-0.2-0.5-0.5-0.5c-0.2,0-0.3,0.1-0.4,0.1c-0.1,0.1-0.1,0.2-0.1,0.4l0,1.7c-0.9,0-1.9-0.1-3.1-0.1c-0.3,0-0.5,0.2-0.5,0.5
			c0.1,2.9-0.2,4.9-0.9,6.1c0,0.1-0.1,0.2-0.1,0.2c0,0.1,0,0.4,0.5,0.5c0.2,0,0.3-0.1,0.4-0.2c0.7-1,1.1-3,1-6
			c3.1,0.1,5.3,0.1,6.5,0.2C232.5,34.6,232.5,34.8,232.5,35.1z"/>
		<path class="st7" d="M225.6,30.4c0.1,0,0.2,0,0.4,0.1c0.5,0,1.1,0.1,1.6,0.1l0,0.5c0,0.3,0.2,0.4,0.5,0.4c0.3,0,0.5-0.2,0.5-0.5
			l0-0.4c0.6,0,1.2,0,1.8,0.1l0,0.6c0,0.3,0.2,0.4,0.5,0.4c0.3,0,0.5-0.2,0.5-0.5l0-0.5h0.5c0.3,0,0.6,0,0.8,0
			c0.4,0,0.5-0.3,0.5-0.5c0-0.3-0.2-0.5-0.5-0.5c-0.4,0-0.8,0-1.4,0l0-0.1c0-0.3-0.2-0.5-0.5-0.5c-0.2,0-0.3,0.1-0.4,0.1
			c-0.1,0.1-0.1,0.2-0.1,0.4l0,0.1c-0.1,0-0.3,0-0.4,0c-0.5,0-1,0-1.5,0l0-0.2c0-0.3-0.2-0.4-0.5-0.4c-0.2,0-0.3,0.1-0.4,0.1
			c-0.1,0.1-0.1,0.2-0.1,0.4l0,0.1c-0.7,0-1.3-0.1-1.7-0.1c-0.3,0-0.5,0.1-0.5,0.4C225.2,30.2,225.4,30.3,225.6,30.4z"/>
		<path class="st7" d="M227.8,40.9c0.1,0.2,0.3,0.2,0.6,0.3c0.7,0,1.3,0,1.8,0c0.8,0,1.4,0,2-0.1c0.4-0.1,0.5-0.3,0.5-0.4
			c0-0.1,0-0.3,0-1c0-0.5-0.1-1-0.1-1.3l0,0c-0.1-0.3-0.3-0.5-0.7-0.5c-1,0-2.1-0.1-3.2-0.1c-0.1-0.2-0.2-0.3-0.4-0.3
			c-0.2,0-0.3,0-0.4,0.1c-0.1,0.1-0.1,0.2-0.1,0.4c0.1,0.5,0.1,1.3-0.1,2.4C227.7,40.6,227.7,40.8,227.8,40.9z M228.9,39
			c0-0.1,0-0.2,0-0.3l1.1,0l0,0.3L228.9,39z M228.8,40.2c0-0.1,0-0.2,0-0.3l1.1,0l0,0.3C229.5,40.3,229.2,40.2,228.8,40.2z
			 M230.9,40.3c0-0.1,0-0.2,0-0.3l0.9,0c0,0.1,0,0.2,0,0.2C231.6,40.3,231.3,40.3,230.9,40.3z M230.9,39.1c0-0.1,0-0.2,0-0.3
			c0.3,0,0.5,0,0.8,0c0,0.1,0,0.2,0,0.3L230.9,39.1z"/>
		<path class="st7" d="M229.5,34.9c0-0.2,0-0.3-0.1-0.4c-0.1-0.1-0.2-0.2-0.4-0.2c-0.2,0-0.4,0.1-0.5,0.4c0,0.1,0,0.2-0.1,0.4
			c-0.5,0-0.9-0.1-1.2-0.1c-0.2,0-0.3,0-0.4,0.1c-0.1,0.1-0.1,0.2-0.1,0.4c0,0.2,0.1,0.4,0.4,0.5c0.3,0.1,0.8,0.1,1.4,0.1
			c0,0.1,0,0.3,0,0.4c0.1,0.4,0.3,0.6,0.5,0.8c0.3,0.1,0.8,0.2,1.4,0.2c0.1,0,0.1,0,0.2,0c0.4,0,0.5-0.3,0.5-0.5
			c0-0.2-0.1-0.4-0.5-0.5c-0.8,0-1-0.1-1.1-0.1c-0.1,0-0.1-0.1-0.1-0.1c0,0,0-0.1,0-0.2c0.7,0,1.2,0,1.6-0.1
			c0.4-0.1,0.4-0.3,0.4-0.5c0-0.2,0-0.3-0.1-0.4c-0.1-0.1-0.2-0.1-0.4-0.1c-0.4,0-0.9,0.1-1.4,0.1C229.5,35,229.5,34.9,229.5,34.9
			L229.5,34.9z"/>
		<path class="st7" d="M246.1,34.1c-0.4,0-0.9,0-1.5,0c-0.8,0-1.5-0.1-2-0.1c0.1-0.4,0.1-0.9,0.1-1.5c0-0.3-0.2-0.5-0.5-0.5
			c-0.3,0-0.5,0.2-0.5,0.5c0,1.6-0.4,2.8-1.1,3.3c-0.1,0.1-0.2,0.2-0.2,0.4c0,0.1,0.1,0.2,0.2,0.3c0.1,0.1,0.3,0.1,0.5,0.1l0,0
			c0.5-0.2,0.9-0.8,1.2-1.6c0.4,0,0.8,0.1,1.2,0.1l0.1,4.7c0,0.3,0.2,0.5,0.5,0.5c0.3,0,0.5-0.2,0.5-0.5l-0.1-4.6l1.1,0
			c0.2,0,0.3,0,0.5,0c0.4,0,0.5-0.3,0.5-0.5C246.6,34.2,246.4,34.1,246.1,34.1z"/>
		<path class="st7" d="M249.3,35.9c0.1-0.1,0.2-0.3,0.3-0.4c0.1-0.2,0.2-0.5,0.3-0.7c0.4,0,0.9,0.1,1.3,0.1c0.2,1.9,0.3,3.8,0.3,5.6
			c-0.2,0.1-0.3,0.2-0.3,0.5c0,0.2,0.1,0.4,0.6,0.4c0,0,0,0,0,0c0.2,0,0.4-0.1,0.5-0.2c0.1-0.1,0.2-0.3,0.2-0.5
			c0-1.5-0.1-3.5-0.3-5.7c0.2,0,0.5,0,0.7,0l0.4,0c0.4-0.1,0.5-0.3,0.5-0.5c0-0.3-0.2-0.5-0.5-0.5c-0.4,0-0.8,0-1.4,0
			c-0.8,0-1.4-0.1-1.8-0.1c0.1-0.3,0.1-0.7,0.1-1c0-0.3-0.2-0.5-0.5-0.5c-0.3,0-0.5,0.2-0.5,0.5c0,1.1-0.2,2-0.7,2.5
			c-0.1,0.1-0.1,0.2-0.1,0.3c0,0.3,0.2,0.5,0.5,0.5c0.1,0,0.2-0.1,0.3-0.1C249.2,36,249.2,36,249.3,35.9z"/>
		<path class="st7" d="M267.6,34.8c0-0.7,0-1.3-0.1-1.9l0,0c-0.1-0.3-0.2-0.6-0.8-0.6c-0.5,0-1.2,0-1.9,0c-0.1-0.2-0.2-0.3-0.4-0.3
			c0,0,0,0,0,0c-0.2,0-0.3,0.1-0.4,0.2c-0.1,0.1-0.1,0.3-0.1,0.4c0.1,0.4,0.1,1.2,0.1,2.2c0,0.2,0,0.3,0.1,0.4
			c0.1,0.1,0.2,0.1,0.3,0.1c0.3,0,0.6,0.1,1.1,0.1c0.4,0,0.9,0,1.5,0C267.4,35.3,267.6,35,267.6,34.8z M264.8,33.3
			c0.6,0,1.1,0,1.7,0c0,0,0,0,0,0c0.1,0.3,0.1,0.7,0.1,1.1c0,0,0,0,0,0c-0.6,0-1.2,0-1.7,0c0,0,0,0,0,0
			C264.9,34.1,264.9,33.7,264.8,33.3z"/>
		<path class="st7" d="M268.2,37.4c-0.3,0-0.5,0.2-0.5,0.5c0,0.5,0,1.3,0,2.2c0,0.3,0.1,0.5,0.4,0.6c0.3,0,0.6,0.1,1.2,0.1
			c0.2,0,0.4,0,0.5,0c0.2,0,0.4,0,0.5,0c0.3,0,0.5-0.2,0.5-0.5c0-0.6,0-1.2,0-1.7c0-0.5-0.3-0.7-0.7-0.8c-0.5,0-1-0.1-1.5-0.1
			C268.5,37.4,268.4,37.4,268.2,37.4z M269.9,39.7c-0.4,0-0.8,0-1.2,0c0-0.4,0-0.8,0-1.2c0.4,0,0.8,0,1.2,0l0,0
			C270,39.1,269.9,39.5,269.9,39.7z M270.1,38.5L270.1,38.5c-0.1,0-0.1,0-0.1,0L270.1,38.5C270.1,38.5,270.1,38.5,270.1,38.5z"/>
		<path class="st7" d="M263.6,40.3c0.3,0,0.7,0.1,1.3,0.1c0.2,0,0.4,0,0.6,0c0.2,0,0.4,0,0.5,0c0.3,0,0.5-0.2,0.5-0.5
			c0-0.5,0-1.1,0-1.6c0-0.5-0.3-0.7-0.8-0.8c-0.6,0-1.1-0.1-1.7-0.1c-0.1-0.1-0.2-0.1-0.4-0.2c-0.3,0-0.5,0.2-0.5,0.5
			c0,0.5,0,1.2,0,2C263.1,40.1,263.3,40.3,263.6,40.3z M264.1,39.4c0-0.3,0-0.7,0-1c0.5,0,1,0,1.4,0c0,0.5,0,0.8,0,1
			C265,39.5,264.5,39.5,264.1,39.4z"/>
		<path class="st7" d="M269.4,42.3c0-0.3-0.2-0.5-0.5-0.5c-4.1,0-6.9-0.1-8.2-0.2c0.2-2.1,0.3-5.5,0.3-10.2c0.5,0,1.2,0.1,2,0.1
			c1.6,0,3.4,0,5.4,0c0.3,0,0.4-0.2,0.5-0.5c0-0.3-0.2-0.5-0.5-0.5c0,0,0,0,0,0c-3,0.1-5.9,0-8.6-0.2c-0.2,0-0.3,0-0.4,0.1
			c-0.1,0.1-0.1,0.2-0.2,0.4c0,0.3,0.2,0.5,0.5,0.5c0.1,0,0.1,0,0.2,0c0,5.2-0.1,8.8-0.4,10.5l0,0c0,0.3,0.1,0.6,0.5,0.6
			c1.1,0.1,4.1,0.2,8.7,0.2C269.2,42.8,269.4,42.6,269.4,42.3z"/>
		<path class="st7" d="M296.5,96.4c-0.1,0-0.1,0-0.2,0c0.1-0.3,0.2-0.5,0.3-0.7c0-0.2,0-0.3-0.1-0.4c-0.1-0.1-0.2-0.2-0.4-0.2
			c-0.1,0-0.3,0.1-0.4,0.3c-0.1,0.2-0.1,0.4-0.2,0.6c-0.1-0.1-0.3-0.2-0.4-0.3l0,0c-0.2-0.1-0.4-0.1-0.5,0c-0.2,0.1-0.2,0.3-0.2,0.5
			c0.1,0.2,0.2,0.4,0.5,0.5c-0.1,0.1-0.1,0.1-0.2,0.2c-0.1,0.1-0.2,0.2-0.2,0.4c0,0.3,0.2,0.4,0.5,0.5c0,0,0,0,0,0
			c0.2,0,0.5-0.2,0.7-0.5l0,0c0.3,0.1,0.5,0.2,0.7,0.2c0.3,0,0.4-0.1,0.5-0.4C297,96.7,296.8,96.5,296.5,96.4z"/>
		<path class="st7" d="M294.9,101.4c0.5,0,0.9-0.1,1.3-0.3c0.3-0.2,0.5-0.4,0.7-0.8c0-0.1,0-0.2,0-0.3c0-0.3-0.2-0.5-0.5-0.5
			c-0.1,0-0.3,0.1-0.5,0.4c0,0.2-0.1,0.3-0.3,0.4c-0.1,0.1-0.4,0.2-0.8,0.2c-0.9,0-1.6-0.1-2.2-0.2c-0.5-0.2-0.9-0.5-1-1.2
			c0,0,0,0,0-0.1h0.6c3,0,4.7-0.1,5.2-0.1c0.3-0.1,0.5-0.3,0.5-0.6c0-2-0.1-3.4-0.2-4.2c-0.1-0.3-0.2-0.4-0.5-0.4c-0.3,0-1.3,0-3,0
			V92c1.4,0.1,2.4,0.1,3,0.1c0.3,0,0.4-0.2,0.5-0.4c0-0.2,0-0.6,0-1.3c0-0.7,0-1.1-0.1-1.3c0-0.1-0.2-0.3-0.5-0.3l-3.6-0.1
			c0,0,0.1-0.1,0.1-0.2c0.3-0.4,0.6-0.7,0.7-1c0.1-0.2,0.1-0.3,0-0.5c-0.1-0.1-0.2-0.2-0.3-0.2l-1.8-0.4c0.1-0.3,0-0.5-0.3-0.6
			c-0.3-0.1-0.5,0-0.6,0.3c-0.3,0.6-0.8,1.1-1.4,1.5c-0.2,0.1-0.3,0.3-0.3,0.5c0,0.2,0.1,0.4,0.5,0.4c0.3,0,0.7-0.2,1.2-0.7
			c0.2-0.2,0.3-0.3,0.4-0.5c0.5,0.1,1,0.2,1.6,0.3c-0.2,0.3-0.5,0.6-0.8,0.9c-0.1,0.1-0.1,0.1-0.2,0.2c-2.3-0.1-3.7-0.1-3.9-0.1
			c-0.3,0-0.5,0.2-0.5,0.5c0,1-0.1,1.8-0.2,2.3c0,0.2,0,0.3,0.1,0.4c0.1,0.1,0.2,0.1,0.3,0.2c0.5,0.1,1.3,0.1,2.5,0.1
			c0,0.3,0,0.6,0,0.9c0,0.3,0,0.6,0,0.9h-1c0-0.3,0-0.5-0.1-0.8c0-0.2-0.1-0.4-0.5-0.4c-0.9,0-1.7,0-2.4-0.1c-0.2,0-0.3,0-0.4,0.1
			c-0.1,0.1-0.1,0.2-0.2,0.4c0,0.2,0.2,0.4,0.4,0.5l0.2,0c0.6,0,1.3,0.1,1.9,0.1c0,0.1,0,0.2,0,0.3c-1.1,0-1.9,0-2.4,0.1
			c-0.3,0-0.5,0.2-0.5,0.5c0,0.3,0.2,0.4,0.5,0.5c0.4,0,1.2,0,2.4-0.1c0,0.2,0,0.3,0,0.5c-0.3,0-0.9,0-1.8,0c-0.3,0-0.5,0.2-0.5,0.4
			c0,0.3,0.2,0.5,0.5,0.5c1.2,0,1.9,0,2.3-0.1c0.3,0,0.4-0.2,0.5-0.5c0-0.3,0-0.6,0-0.9c0.3,0,0.6,0,0.9,0c0,0.8,0,1.4,0,1.7
			c0,0.6,0,1.2,0.1,1.7h-0.9c0-0.3,0-0.6-0.1-1c0-0.2-0.1-0.4-0.5-0.4c-0.9,0-1.7,0-2.4-0.1c-0.2,0-0.3,0-0.4,0.1
			c-0.1,0.1-0.1,0.2-0.2,0.4c0,0.3,0.2,0.4,0.4,0.5c0.1,0,0.1,0,0.2,0h0c0.6,0,1.3,0.1,1.9,0.1c0,0.2,0,0.3,0,0.5
			c-0.9,0-1.7,0-2.2,0c-0.3,0-0.5,0.2-0.5,0.5c0,0.2,0.2,0.4,0.4,0.5c0.5,0,1.3,0,2.2,0c0,0.1,0,0.3,0,0.4c-0.3,0-0.9,0-1.8,0
			c-0.3,0-0.5,0.2-0.5,0.5c0,0.3,0.2,0.5,0.5,0.5c1.2,0,1.9,0,2.3-0.1c0.3,0,0.4-0.2,0.5-0.5c0-0.2,0-0.5,0-0.8h0.9
			c0,0.1,0,0.3,0.1,0.4c0.2,0.8,0.7,1.4,1.5,1.7c0.6,0.2,1.4,0.3,2.3,0.3C294.6,101.4,294.7,101.4,294.9,101.4z M291.8,98.1h-0.3
			c0-0.4,0-1,0-1.7c0-0.3,0-0.8,0-1.7c0.6,0,1.2,0,1.8,0l0,3.4C292.8,98.1,292.3,98.1,291.8,98.1z M293.3,93.7c-0.4,0-0.9,0-1.4,0
			h-0.3c0-0.3,0-0.6,0-0.9c0-1.6,0.1-2.7,0.1-3.4l1.6,0V93.7z M294.2,98v-3.4c1.2,0,2.1,0,2.6,0c0.1,0.8,0.1,1.9,0.1,3.3
			C296.5,98,295.5,98,294.2,98z M296.8,91.2c-0.8,0-1.6,0-2.5-0.1v-1.6l2.5,0.1C296.8,90.1,296.8,90.6,296.8,91.2z M288.8,90.9
			c0-0.5,0.1-1,0.1-1.5l1.9,0.1c0,0.3-0.1,0.8-0.1,1.5C290.1,91,289.4,91,288.8,90.9z"/>
		<path class="st7" d="M315.3,96.6c0-1-0.1-2.3-0.2-3.7c0-0.3-0.2-0.4-0.5-0.4c0,0,0,0,0,0c-0.3,0-0.5,0.2-0.5,0.6
			c0.1,1,0.1,2,0.2,3.2c-1.2,0-2.3,0-3.4,0.1c0.1-1,0.1-3.1,0.1-6.5c0-0.3-0.2-0.5-0.5-0.5c-0.3,0-0.5,0.2-0.5,0.5
			c0,3.3,0,5.5-0.1,6.5c-1.2,0-2.3,0-3.4,0c0.1-1.5,0.1-2.8,0.1-3.8c0-0.3-0.2-0.5-0.5-0.5c-0.3,0-0.5,0.2-0.5,0.5
			c0,1.6,0,2.9-0.1,4c0,0.3,0.1,0.5,0.4,0.6c0.4,0,1.4,0.1,3.1,0.1c0.4,0,0.9,0,1.4,0c2.1,0,3.6,0,4.3-0.1
			C315,97.1,315.2,97,315.3,96.6z"/>
		<path class="st7" d="M330.6,91.8c0-0.7,0-1.3-0.1-1.9l0,0c-0.1-0.3-0.2-0.6-0.8-0.6c-0.5,0-1.2,0-1.9,0c-0.1-0.2-0.2-0.3-0.4-0.3
			c0,0,0,0,0,0c-0.2,0-0.3,0.1-0.4,0.2c-0.1,0.1-0.1,0.3-0.1,0.4c0.1,0.4,0.1,1.2,0.1,2.2c0,0.2,0,0.3,0.1,0.4
			c0.1,0.1,0.2,0.1,0.3,0.1c0.3,0,0.6,0.1,1.1,0.1c0.4,0,0.9,0,1.5,0C330.4,92.3,330.6,92,330.6,91.8z M327.8,90.3
			c0.6,0,1.1,0,1.7,0c0,0,0,0,0,0c0.1,0.3,0.1,0.7,0.1,1.1c0,0,0,0,0,0c-0.6,0-1.2,0-1.7,0c0,0,0,0,0,0
			C327.9,91.1,327.9,90.7,327.8,90.3z"/>
		<path class="st7" d="M333.1,94.6c-0.5,0-1-0.1-1.5-0.1c-0.1-0.1-0.2-0.1-0.4-0.2c-0.3,0-0.5,0.2-0.5,0.5c0,0.5,0,1.3,0,2.2
			c0,0.3,0.1,0.5,0.4,0.6c0.3,0,0.6,0.1,1.2,0.1c0.2,0,0.4,0,0.5,0c0.2,0,0.4,0,0.5,0c0.3,0,0.5-0.2,0.5-0.5c0-0.6,0-1.2,0-1.7
			C333.9,94.9,333.6,94.6,333.1,94.6z M333.1,95.5L333.1,95.5c-0.1,0-0.1,0-0.1,0L333.1,95.5C333.1,95.5,333.1,95.5,333.1,95.5z
			 M332.9,96.7c-0.4,0-0.8,0-1.2,0c0-0.4,0-0.8,0-1.2c0.4,0,0.8,0,1.2,0l0,0C333,96.1,332.9,96.5,332.9,96.7z"/>
		<path class="st7" d="M331.9,98.8c-4.1,0-6.9-0.1-8.2-0.2c0.2-2.1,0.3-5.5,0.3-10.2c0.5,0,1.2,0.1,2,0.1c1.6,0,3.4,0,5.4,0
			c0.3,0,0.4-0.2,0.5-0.5c0-0.3-0.2-0.5-0.5-0.5c-3,0.1-5.9,0-8.6-0.2c-0.2,0-0.3,0-0.4,0.1c-0.1,0.1-0.1,0.2-0.2,0.4
			c0,0.3,0.2,0.5,0.5,0.5c0.1,0,0.1,0,0.2,0c0,5.2-0.1,8.8-0.4,10.5l0,0c0,0.3,0.1,0.6,0.5,0.6c1.1,0.1,4.1,0.2,8.7,0.2
			c0.3,0,0.5-0.2,0.5-0.5C332.4,99,332.2,98.8,331.9,98.8z"/>
		<path class="st7" d="M326.6,97.3c0.3,0,0.7,0.1,1.3,0.1c0.2,0,0.4,0,0.6,0c0.2,0,0.4,0,0.5,0c0.3,0,0.5-0.2,0.5-0.5
			c0-0.5,0-1.1,0-1.6c0-0.5-0.3-0.7-0.8-0.8c-0.6,0-1.1-0.1-1.7-0.1c-0.1-0.1-0.2-0.1-0.4-0.2c-0.3,0-0.5,0.2-0.5,0.5
			c0,0.5,0,1.2,0,2C326.1,97.1,326.3,97.3,326.6,97.3z M327.1,96.4c0-0.3,0-0.7,0-1c0.5,0,1,0,1.4,0c0,0.5,0,0.8,0,1
			C328,96.5,327.5,96.5,327.1,96.4z"/>
		<path class="st7" d="M284.2,324.2c0-0.1,0.1-0.2,0.1-0.3l3.3,0.2c0.3,0,0.5-0.2,0.5-0.5c0-0.1,0-0.3-0.1-0.3
			c-0.1-0.1-0.2-0.1-0.3-0.1l-3.2-0.2c0-0.1,0-0.3,0-0.4c0-0.3-0.2-0.4-0.5-0.5c-0.3,0-0.5,0.2-0.5,0.5c0,0.8-0.3,1.5-0.9,2.1
			c-0.1,0.1-0.1,0.2-0.1,0.3c0,0.2,0,0.3,0.1,0.4c0.1,0.1,0.2,0.1,0.3,0.1c0,0,0.1,0,0.1,0c0.1,0,0.2-0.1,0.3-0.1
			C283.6,325.2,283.9,324.8,284.2,324.2z"/>
		<path class="st7" d="M287.9,335.6c-0.3,0-0.6-0.2-1-0.4c0,0,0-0.1,0-0.1c0.4-0.6,0.6-1.3,0.7-2c0-0.2,0-0.3-0.1-0.4
			c-0.1-0.1-0.2-0.1-0.4-0.1c-0.6,0-1.2,0-1.8,0c0-0.2,0-0.3,0-0.5c0-0.3-0.2-0.4-0.5-0.5c-0.3,0-0.5,0.2-0.5,0.5
			c0,0.4-0.1,0.7-0.2,1.1c0,0,0,0,0,0c-0.1-0.1-0.2-0.1-0.3-0.1c-0.3,0-0.5,0.2-0.5,0.5c0,0.1,0.1,0.3,0.2,0.3
			c0,0.1,0.1,0.1,0.1,0.2c0,0-0.1,0.1-0.1,0.1c-0.1,0.1-0.1,0.2-0.1,0.3c0,0.2,0,0.3,0.1,0.4c0.1,0.1,0.2,0.1,0.4,0.1l0,0
			c0.1,0,0.2-0.1,0.3-0.1c0,0,0.1-0.1,0.1-0.1c0.3,0.2,0.7,0.5,1.1,0.8c-0.2,0.3-0.5,0.6-0.7,0.8c-0.1,0.1-0.2,0.2-0.2,0.4
			c0,0.3,0.2,0.5,0.5,0.5c0.1,0,0.3,0,0.3-0.1c0.3-0.2,0.6-0.5,0.9-1c0.4,0.2,0.8,0.4,1.2,0.4c0.1,0,0.2,0,0.3,0
			c0.3,0,0.5-0.2,0.5-0.4c0-0.1,0-0.3-0.1-0.4C288.1,335.7,288,335.7,287.9,335.6z M286.5,333.6c-0.1,0.3-0.3,0.7-0.5,1.1
			c0,0,0,0,0,0c-0.4-0.3-0.8-0.6-1.1-0.8c0-0.1,0.1-0.2,0.1-0.3c0,0,0,0,0,0C285.5,333.6,286,333.6,286.5,333.6z"/>
		<path class="st7" d="M275.7,327.5C275.8,327.5,275.8,327.5,275.7,327.5c0.4,0,0.9-0.2,1.6-0.7c0.5-0.4,0.8-0.6,0.9-0.9
			c0.1-0.1,0.1-0.2,0.1-0.3c0-0.3-0.1-0.5-0.4-0.5c-0.2,0-0.3,0.1-0.5,0.2c0,0-0.1,0.1-0.1,0.1c-0.2,0.2-0.4,0.4-0.7,0.6
			c-0.3,0.2-0.6,0.4-0.9,0.5c-0.3,0-0.4,0.2-0.4,0.5C275.3,327.4,275.4,327.5,275.7,327.5z"/>
		<path class="st7" d="M278.3,327.9c-0.2,0-0.4,0-0.5,0.2c-0.2,0.2-0.5,0.5-1.1,0.8c-0.4,0.3-0.8,0.5-1.2,0.6
			c-0.3,0.1-0.4,0.3-0.4,0.5c0,0.3,0.2,0.4,0.5,0.4c0.1,0,0.3,0,0.4-0.1c0.2-0.1,0.4-0.2,0.7-0.3l0.3,2.3c0,0.3,0.2,0.4,0.5,0.4
			c0,0,0,0,0,0c0.4,0,0.5-0.3,0.5-0.4l0-0.1c-0.1-0.9-0.2-1.9-0.3-2.8c0.5-0.4,0.8-0.7,1-0.9c0-0.1,0.1-0.1,0.1-0.1l0,0
			C278.7,328.2,278.6,328,278.3,327.9z"/>
		<path class="st7" d="M284.8,330.3c0.3,0,0.9,0,1.6,0.1c0.2,0,0.4,0,0.6,0c0.4,0,0.6,0,0.8,0c0.3,0,0.4-0.2,0.5-0.5
			c0.1-1,0.1-2,0-3c0-0.3-0.1-0.7-0.8-0.8c-0.8,0-1.5-0.1-2.2-0.1c-0.1-0.2-0.2-0.3-0.5-0.3c-0.3,0-0.5,0.2-0.5,0.5
			c0,0.9,0,2.1,0,3.5C284.3,330,284.5,330.2,284.8,330.3z M287.3,327.9l-2-0.2c0-0.2,0-0.5,0-0.7c0.7,0,1.4,0,2,0.1l0,0
			C287.3,327.3,287.3,327.6,287.3,327.9z M287.4,327L287.4,327c-0.1,0-0.1,0-0.1,0L287.4,327C287.4,327,287.4,327,287.4,327z
			 M287.3,328.8c0,0.2,0,0.4,0,0.6c-0.7,0-1.4,0-2,0c0-0.3,0-0.5,0-0.7L287.3,328.8z"/>
		<path class="st7" d="M301.2,328c0.5,0,0.5-0.3,0.6-0.5c0-0.1,0-0.2-0.1-0.3c-0.1-0.1-0.2-0.1-0.4-0.2h0c-0.5,0-0.9,0-1.1,0
			c-0.2,0-0.4-0.1-0.5-0.1h0c-0.3,0-0.4,0.2-0.5,0.5c0,0.1,0.1,0.2,0.2,0.3c0.3,0.2,0.8,0.2,1.6,0.2H301.2z"/>
		<path class="st7" d="M300.3,334.4c-0.2,0-0.4,0.1-0.5,0.3c-0.3,0.5-0.6,0.8-1,1.1c-0.1,0.1-0.2,0.2-0.2,0.4c0,0.3,0.2,0.5,0.5,0.5
			c0.3,0,0.6-0.2,1-0.7c0.2-0.3,0.4-0.6,0.6-0.8c0,0,0-0.1,0-0.1l0,0C300.7,334.7,300.6,334.5,300.3,334.4z"/>
		<path class="st7" d="M303.5,332.5l-6.6-0.2h0c-0.3,0-0.5,0.2-0.5,0.5c0,0.3,0.2,0.4,0.5,0.5l6.6,0.2c0.3,0,0.4-0.2,0.5-0.5
			c0-0.1,0-0.3-0.1-0.3C303.8,332.5,303.6,332.5,303.5,332.5z"/>
		<path class="st7" d="M306.3,326.3c-0.4,0-1.1,0-2,0c-0.3,0-0.5,0.2-0.5,0.5c0,0.3,0.2,0.4,0.5,0.4h1.5l0,0.7l-1.5-0.1
			c-0.1,0-0.3,0-0.4,0.1c-0.1,0.1-0.1,0.2-0.1,0.4c0,0.3,0.2,0.4,0.4,0.5l1.5,0.1c0,0.1,0,0.3,0,0.4l-1.3,0c-0.3,0-0.5,0.2-0.5,0.5
			c0,0.3,0.1,0.4,0.4,0.5l1.2,0c0,0.2,0,0.4-0.1,0.6c0,0.3,0.1,0.5,0.5,0.6c0.2,0,0.4-0.1,0.5-0.4c0-0.1,0-0.2,0.1-0.3
			c0.1-1.1,0.2-2.2,0.2-3.4v-0.5C306.7,326.5,306.6,326.3,306.3,326.3z"/>
		<path class="st7" d="M299.7,330.7c0.3,0.1,0.7,0.1,1.2,0.1c0.2,0,0.3,0,0.5,0l0,0c0.3-0.1,0.4-0.3,0.5-0.4
			c0.1-0.5,0.1-0.9,0.1-1.3c0-0.3-0.2-0.5-0.5-0.5c-0.5,0-1-0.1-1.5-0.1c-0.1,0-0.4,0.1-0.4,0.5c0,0.4,0,0.8-0.1,1.2
			C299.3,330.4,299.4,330.6,299.7,330.7z M300.9,329.4c0,0.2,0,0.3,0,0.5c-0.2,0-0.4,0-0.6,0c0-0.2,0-0.4,0-0.5
			C300.5,329.4,300.7,329.4,300.9,329.4z"/>
		<path class="st7" d="M297.9,330.1c0,0.3,0.2,0.4,0.5,0.5c0.3,0,0.4-0.1,0.5-0.4c0-1.4,0.1-2.6,0.1-3.8c1.1,0,2.2,0,3.1,0.1
			c0.1,0.4,0.1,1,0.2,1.8c0.1,1,0.1,1.7,0.1,2.1c0,0.3,0.2,0.5,0.5,0.5c0.3,0,0.4-0.2,0.5-0.5c0-0.5,0-1.3-0.1-2.3
			c-0.1-1-0.2-1.7-0.2-2.1c-0.1-0.3-0.2-0.4-0.5-0.4c-0.7-0.1-2-0.1-4-0.1h0c-0.3,0-0.5,0.2-0.5,0.6
			C298,327.3,298,328.7,297.9,330.1z"/>
		<path class="st7" d="M294.4,325.1c0.6-0.1,1.2-0.3,1.7-0.7c0.5-0.4,0.9-0.8,1.2-1.4c0,0,0-0.1,0-0.2c0-0.3-0.2-0.5-0.5-0.5
			c-0.1,0-0.3,0-0.4,0.3c-0.2,0.4-0.5,0.7-0.9,1c-0.4,0.2-0.8,0.4-1.3,0.5c-0.3,0.1-0.4,0.2-0.4,0.5
			C293.9,325,294.1,325.1,294.4,325.1C294.4,325.1,294.4,325.1,294.4,325.1L294.4,325.1z"/>
		<path class="st7" d="M297.5,329.2c0-0.3-0.2-0.5-0.5-0.5l-1.5,0c0-0.2,0-0.4,0-0.6l1.6,0c0.3,0,0.5-0.2,0.5-0.5
			c0-0.3-0.2-0.5-0.5-0.5l-1.7,0c0-0.3-0.1-0.5-0.2-0.7c-0.1-0.2-0.2-0.3-0.4-0.4c-0.3-0.1-0.4,0-0.5,0.1c-0.1,0.1-0.1,0.3-0.1,0.4
			l0,0c0.1,0.3,0.2,0.7,0.2,1.2c0,1.1,0,1.9-0.1,2.4c0,0.1,0,0.1,0,0.2c0,0.1,0,0.4,0.4,0.5c0,0,0.1,0,0.1,0c0.2,0,0.3-0.1,0.4-0.3
			l0,0c0.1-0.3,0.1-0.6,0.1-1l1.5,0C297.3,329.6,297.5,329.4,297.5,329.2z"/>
		<path class="st7" d="M303.6,335.7c-0.3-0.2-0.6-0.4-0.9-0.8c-0.1-0.3-0.4-0.3-0.5-0.3c-0.2,0-0.4,0.1-0.4,0.6
			c0.1,0.2,0.3,0.5,0.6,0.9c0.4,0.4,0.7,0.6,1,0.6c0.3,0,0.4-0.2,0.5-0.4C303.9,335.9,303.8,335.8,303.6,335.7z"/>
		<path class="st7" d="M320.6,327.8c0-0.7,0-1.3-0.1-1.9l0,0c-0.1-0.3-0.2-0.6-0.8-0.6c-0.5,0-1.2,0-1.9,0c-0.1-0.2-0.2-0.3-0.4-0.3
			c0,0,0,0,0,0c-0.2,0-0.3,0.1-0.4,0.2c-0.1,0.1-0.1,0.3-0.1,0.4c0.1,0.4,0.1,1.2,0.1,2.2c0,0.2,0,0.3,0.1,0.4
			c0.1,0.1,0.2,0.1,0.3,0.1c0.3,0,0.6,0.1,1.1,0.1c0.4,0,0.9,0,1.5,0C320.4,328.3,320.6,328,320.6,327.8z M317.8,326.3
			c0.5,0,1.1,0,1.7,0c0,0,0,0,0,0c0.1,0.3,0.1,0.7,0.1,1.1c0,0,0,0,0,0c-0.6,0-1.2,0-1.7,0c0,0,0,0,0,0
			C317.9,327.1,317.9,326.7,317.8,326.3z"/>
		<path class="st7" d="M321.9,334.8c-4.1,0-6.9-0.1-8.2-0.2c0.2-2.1,0.3-5.5,0.3-10.2c0.5,0,1.2,0.1,2,0.1c1.6,0,3.4,0,5.4,0
			c0.3,0,0.4-0.2,0.5-0.5c0-0.3-0.2-0.5-0.5-0.5c0,0,0,0,0,0c-3,0.1-5.9,0-8.6-0.2c-0.2,0-0.3,0-0.4,0.1c-0.1,0.1-0.1,0.2-0.2,0.4
			c0,0.3,0.2,0.5,0.5,0.5c0.1,0,0.1,0,0.2,0c0,5.2-0.1,8.8-0.4,10.5l0,0c0,0.3,0.1,0.6,0.5,0.6c1.1,0.1,4.1,0.2,8.7,0.2
			c0.3,0,0.5-0.2,0.5-0.5C322.4,335,322.2,334.8,321.9,334.8z"/>
		<path class="st7" d="M316.6,333.3c0.3,0,0.7,0.1,1.3,0.1c0.2,0,0.4,0,0.6,0c0.2,0,0.4,0,0.5,0c0.3,0,0.5-0.2,0.5-0.5
			c0-0.5,0-1.1,0-1.6c0-0.5-0.3-0.7-0.8-0.8c-0.6,0-1.1-0.1-1.7-0.1c-0.1-0.1-0.2-0.1-0.4-0.2c-0.3,0-0.5,0.2-0.5,0.5
			c0,0.5,0,1.2,0,2C316.1,333.1,316.3,333.3,316.6,333.3z M317.1,332.4c0-0.3,0-0.7,0-1c0.5,0,1,0,1.4,0c0,0.5,0,0.8,0,1
			C318,332.5,317.5,332.5,317.1,332.4z"/>
		<path class="st7" d="M323.1,330.6c-0.5,0-1-0.1-1.5-0.1c-0.1-0.1-0.2-0.1-0.4-0.2c-0.3,0-0.5,0.2-0.5,0.5c0,0.5,0,1.3,0,2.2
			c0,0.3,0.1,0.5,0.4,0.6c0.3,0,0.6,0.1,1.2,0.1c0.2,0,0.4,0,0.5,0c0.2,0,0.4,0,0.5,0c0.3,0,0.5-0.2,0.5-0.5c0-0.6,0-1.2,0-1.7
			C323.9,330.9,323.6,330.6,323.1,330.6z M323.1,331.5L323.1,331.5c-0.1,0-0.1,0-0.1,0L323.1,331.5
			C323.1,331.5,323.1,331.5,323.1,331.5z M322.9,332.7c-0.4,0-0.8,0-1.2,0c0-0.4,0-0.8,0-1.2c0.4,0,0.8,0,1.2,0l0,0
			C323,332.1,322.9,332.5,322.9,332.7z"/>
		<path class="st7" d="M160.5,267.2L160.5,267.2c-0.3,0-0.4,0.2-0.4,0.4c0,0.1-0.1,0.1-0.1,0.1c-0.2,0-0.4,0.1-0.8,0.1
			c-1,0-1.7-0.1-2.1-0.3c-0.2-0.1-0.2-0.2-0.2-0.4c0-0.1,0-0.2,0-0.3l0.1-0.6l2.2,0.2c0.3,0,0.5-0.2,0.5-0.5c0-0.1,0-0.3-0.1-0.3
			c-0.1-0.1-0.2-0.1-0.3-0.1l-2.1-0.2l0.1-0.6l2.2,0.2c0.3,0,0.5-0.2,0.5-0.5c0-0.1,0-0.3-0.1-0.3c-0.1-0.1-0.2-0.1-0.3-0.1
			l-2.2-0.2c0-0.2,0-0.4,0.1-0.6l2.3,0.2c0.3,0,0.5-0.2,0.5-0.5c0-0.1,0-0.3-0.1-0.3c-0.1-0.1-0.2-0.1-0.3-0.1l-2.2-0.2
			c0-0.3,0-0.6,0.1-0.9c0.9,0,1.8,0.1,2.5,0.1c0.3,0,0.4-0.2,0.5-0.4c0.1-0.5,0.1-1.2,0.1-2c0-0.2-0.1-0.4-0.5-0.5
			c-0.7,0-1.5-0.1-2.4-0.1c0-0.4,0-0.7,0-1.1l2.2,0.1c0.3,0,0.5-0.2,0.5-0.5c0-0.2,0-0.3-0.1-0.4c-0.1-0.1-0.2-0.1-0.3-0.1l-2.3-0.1
			c0-0.3-0.1-0.6-0.1-0.8l0,0c-0.1-0.2-0.2-0.3-0.4-0.3c-0.3,0-0.5,0.2-0.5,0.5c0,0.1,0,0.2,0,0.2c0.1,0.2,0.1,0.6,0.1,1
			c0,0.5,0,1.1,0,1.8c0,0.1,0,0.4,0.5,0.5c0.9,0,1.8,0.1,2.5,0.1c0,0.4,0,0.8-0.1,1.1c-1.1,0-2-0.1-2.5-0.1c-0.2,0-0.3,0-0.4,0.1
			c-0.1,0.1-0.1,0.2-0.1,0.4c0,0.7-0.1,2-0.3,3.8l-0.3,2.7c0,0.6,0.3,1.1,0.8,1.3c0.5,0.2,1.3,0.3,2.5,0.3c0.6,0,1,0,1.2-0.2
			c0.4-0.2,0.6-0.5,0.6-0.9C161,267.4,160.8,267.2,160.5,267.2z"/>
		<path class="st7" d="M153,255.9c-0.4,0-1,0-1.7,0c-0.1,0-0.2,0-0.2,0c0-0.3,0-0.7,0.1-1.1c0-0.3-0.2-0.5-0.5-0.5
			c-0.3,0-0.5,0.2-0.5,0.4l-0.1,1.1c-0.6,0-1-0.1-1.4-0.2l0,0c-0.3,0-0.5,0.1-0.5,0.4c0,0.3,0.1,0.4,0.3,0.5c0.1,0,0.2,0,0.3,0.1
			c1.2,0.2,2.5,0.2,3.8,0.2l0.5,0c0.3,0,0.5-0.2,0.5-0.5C153.5,256.1,153.4,255.9,153,255.9z"/>
		<path class="st7" d="M152,263.5c-0.1-0.2-0.2-0.5-0.7-0.5l-1.8,0c-0.1-0.1-0.2-0.2-0.4-0.2c-0.3,0-0.5,0.2-0.5,0.5
			c0,2-0.3,3.5-0.8,4.3c-0.1,0.3-0.1,0.5,0.1,0.7l0,0c0.2,0.1,0.5,0,0.7-0.2c0.2-0.3,0.4-0.7,0.5-1.1l2,0v0.5c-0.1,0-0.3,0-0.3,0.1
			c-0.1,0.1-0.1,0.2-0.1,0.4c0,0.2,0.2,0.5,0.7,0.5c0,0,0,0,0,0c0.5,0,0.7-0.3,0.7-0.6C152.1,267.1,152.1,265.6,152,263.5L152,263.5
			z M151.1,264.6l-1.5,0c0-0.2,0-0.4,0-0.6l1.5,0l0,0C151.1,264.2,151.1,264.4,151.1,264.6z M151.1,266.1l-1.8,0
			c0-0.2,0.1-0.4,0.1-0.6l1.6,0C151.1,265.8,151.1,266,151.1,266.1z"/>
		<path class="st7" d="M153,260c-0.3,0-0.6,0-1,0l0.3-0.9c0-0.1,0-0.1,0-0.2c0-0.1,0-0.3-0.1-0.4c-0.1-0.1-0.2-0.2-0.4-0.2
			c-0.2,0-0.4,0.1-0.5,0.3l-0.4,1.3c-0.4,0-0.7,0-1-0.1c0,0,0,0,0,0c-0.1-0.3-0.2-0.8-0.3-1.4c0-0.2-0.2-0.4-0.5-0.4
			c-0.3,0-0.5,0.2-0.5,0.5c0,0.5,0.1,0.9,0.2,1.2c-0.3,0-0.6-0.1-0.9-0.1l0,0c-0.3,0-0.5,0.1-0.5,0.4c0,0.3,0.2,0.5,0.3,0.5
			c0.1,0,0.2,0,0.3,0c1.4,0.2,2.8,0.3,4.3,0.3c0.2,0,0.4,0,0.6,0c0.3,0,0.5-0.2,0.5-0.5C153.5,260.1,153.3,260,153,260z"/>
		<path class="st7" d="M177.9,265.9l-1.2,0c0-0.2,0-0.4-0.1-0.7c0.2,0,0.4,0,0.6,0c0.4,0,0.6-0.3,0.6-0.7c0-1,0-1.9-0.1-2.7l0,0
			c-0.1-0.3-0.2-0.6-0.8-0.6c-0.5,0-1.1,0-1.8,0c-0.1-0.2-0.2-0.2-0.4-0.2c0,0,0,0,0,0c-0.2,0-0.3,0.1-0.4,0.2
			c-0.1,0.1-0.1,0.3-0.1,0.4c0.1,0.6,0.1,1.6,0.1,3c0,0.2,0,0.3,0.1,0.4c0.1,0.1,0.2,0.1,0.3,0.1c0.2,0,0.6,0.1,1,0.1
			c0,0.2,0,0.4,0,0.6l-1.5,0c-0.3,0-0.5,0.2-0.5,0.5c0,0.3,0.2,0.4,0.5,0.5l1.6,0c0.1,0.6,0.1,1.1,0.2,1.4c0.1,0.2,0.2,0.4,0.5,0.4
			c0,0,0,0,0,0c0.3-0.1,0.5-0.3,0.4-0.6c0-0.1,0-0.1,0-0.2c-0.1-0.3-0.1-0.6-0.1-1l1,0c0.3,0,0.5-0.2,0.5-0.5c0-0.2,0-0.3-0.1-0.4
			C178.2,266,178.1,265.9,177.9,265.9z M175.3,263.6l1.6,0c0,0.2,0,0.4,0,0.7v0c-0.6,0-1.1,0-1.6,0c0,0,0,0,0,0
			C175.3,264,175.3,263.8,175.3,263.6z M175.3,262.2c0.5,0,1,0,1.6,0c0,0,0,0,0,0c0,0.1,0,0.2,0,0.4l-1.6,0
			C175.3,262.5,175.3,262.4,175.3,262.2z"/>
		<path class="st7" d="M178.8,257.6c-0.1-0.3-0.2-0.6-0.8-0.6c-0.4,0-0.8,0-1.2,0l-0.1-1.3c0.2,0,0.3,0,0.5,0c0.4,0,0.5-0.3,0.5-0.5
			c0-0.3-0.2-0.5-0.5-0.5c-0.5,0-1.1,0-1.8,0c-1.3-0.1-2.2-0.1-2.8-0.2c-0.3,0-0.5,0.1-0.5,0.4c0,0.3,0.1,0.5,0.3,0.5
			c0.1,0,0.2,0,0.3,0.1c0.4,0.1,0.9,0.1,1.3,0.1l0.1,1.4c-0.3,0-0.5,0-0.8,0c-0.1-0.2-0.2-0.2-0.4-0.2c0,0,0,0,0,0
			c-0.2,0-0.3,0.1-0.4,0.2c-0.1,0.1-0.1,0.3-0.1,0.4c0.1,0.5,0.1,1.2,0.1,2.2c0,0.2,0,0.3,0.1,0.4c0.1,0.1,0.2,0.1,0.3,0.1
			c0.5,0,1.3,0.1,2.3,0.1c0.9,0,1.9,0,3.1,0c0.5-0.1,0.6-0.4,0.6-0.7C178.9,258.8,178.9,258.2,178.8,257.6L178.8,257.6z
			 M175.8,257.1H175l-0.1-1.3c0.3,0,0.5,0,0.8,0L175.8,257.1z M175.9,259.3h-0.8l0-1.3h0.8L175.9,259.3z M176.8,258c0.3,0,0.7,0,1,0
			c0,0,0,0,0,0c0.1,0.4,0.1,0.8,0.1,1.2c-0.4,0-0.7,0-1.1,0L176.8,258z M173.3,258.1c0.2,0,0.5,0,0.8,0l0,1.3c-0.3,0-0.5,0-0.7,0
			c0,0,0,0,0,0C173.4,258.9,173.4,258.5,173.3,258.1z"/>
		<path class="st7" d="M167.2,262.1c0.4-0.1,0.5-0.3,0.5-0.5c0-0.1,0-0.2-0.1-0.3c-0.1-0.1-0.2-0.1-0.4-0.2h0c-0.5,0-0.8,0-1-0.1
			c-0.2-0.1-0.4-0.1-0.5-0.1c0,0,0,0,0,0c-0.3,0-0.4,0.2-0.5,0.5c0,0.1,0.1,0.2,0.2,0.3c0.2,0.2,0.7,0.3,1.5,0.3L167.2,262.1z"/>
		<path class="st7" d="M167.1,258.1c0.4,0.2,0.8,0.2,1,0.2c0.3,0,0.4-0.1,0.5-0.4c0-0.2,0-0.5-0.5-0.5c-0.2,0-0.4-0.1-0.6-0.1
			c-0.2-0.1-0.4-0.2-0.5-0.3l0,0c-0.2-0.1-0.4-0.1-0.5,0c-0.1,0.1-0.3,0.3-0.2,0.6C166.4,257.7,166.6,257.9,167.1,258.1z"/>
		<path class="st7" d="M168.3,265.3c-0.2-0.1-0.4,0-0.5,0.1c-0.1,0.1-0.3,0.1-0.5,0.2c-0.2,0.1-0.4,0.1-0.7,0.1
			c-0.3,0-0.5,0.2-0.5,0.6c0.1,0.2,0.2,0.4,0.5,0.4h0c0,0,0,0,0.1,0c0.2,0,0.5-0.1,1-0.2c0.4-0.1,0.7-0.3,0.9-0.5l0,0
			C168.7,265.5,168.5,265.3,168.3,265.3z"/>
		<path class="st7" d="M195.1,262.6c-0.5,0-1-0.1-1.5-0.1c-0.1-0.1-0.2-0.1-0.4-0.2c-0.3,0-0.5,0.2-0.5,0.5c0,0.5,0,1.3,0,2.2
			c0,0.3,0.1,0.5,0.4,0.6c0.3,0,0.6,0.1,1.2,0.1c0.2,0,0.4,0,0.5,0c0.2,0,0.4,0,0.5,0c0.3,0,0.5-0.2,0.5-0.5c0-0.6,0-1.2,0-1.7
			C195.9,262.9,195.6,262.6,195.1,262.6z M195.1,263.5L195.1,263.5c-0.1,0-0.1,0-0.1,0L195.1,263.5
			C195.1,263.5,195.1,263.5,195.1,263.5z M194.9,264.7c-0.4,0-0.8,0-1.2,0c0-0.4,0-0.8,0-1.2c0.4,0,0.8,0,1.2,0l0,0
			C195,264.1,194.9,264.5,194.9,264.7z"/>
		<path class="st7" d="M188.6,265.3c0.3,0,0.7,0.1,1.3,0.1c0.2,0,0.4,0,0.6,0c0.2,0,0.4,0,0.5,0c0.3,0,0.5-0.2,0.5-0.5
			c0-0.5,0-1.1,0-1.6c0-0.5-0.3-0.7-0.8-0.8c-0.6,0-1.1-0.1-1.7-0.1c-0.1-0.1-0.2-0.1-0.4-0.2c-0.3,0-0.5,0.2-0.5,0.5
			c0,0.5,0,1.2,0,2C188.1,265.1,188.3,265.3,188.6,265.3z M189.1,264.4c0-0.3,0-0.7,0-1c0.5,0,1,0,1.4,0c0,0.5,0,0.8,0,1
			C190,264.5,189.5,264.5,189.1,264.4z"/>
		<path class="st7" d="M192.6,259.8c0-0.7,0-1.3-0.1-1.9l0,0c-0.1-0.3-0.2-0.6-0.8-0.6c-0.5,0-1.2,0-1.9,0c-0.1-0.2-0.2-0.3-0.4-0.3
			c0,0,0,0,0,0c-0.2,0-0.3,0.1-0.4,0.2c-0.1,0.1-0.1,0.3-0.1,0.4c0.1,0.4,0.1,1.2,0.1,2.2c0,0.2,0,0.3,0.1,0.4
			c0.1,0.1,0.2,0.1,0.3,0.1c0.3,0,0.6,0.1,1.1,0.1c0.4,0,0.9,0,1.5,0C192.4,260.3,192.6,260,192.6,259.8z M189.8,258.3
			c0.5,0,1.1,0,1.7,0c0,0,0,0,0,0c0.1,0.3,0.1,0.7,0.1,1.1c0,0,0,0,0,0c-0.6,0-1.2,0-1.7,0c0,0,0,0,0,0
			C189.9,259.1,189.9,258.7,189.8,258.3z"/>
		<path class="st7" d="M193.9,266.8c-4.1,0-6.9-0.1-8.2-0.2c0.2-2.1,0.3-5.5,0.3-10.2c0.5,0,1.2,0.1,2,0.1c1.6,0,3.4,0,5.4,0
			c0.3,0,0.4-0.2,0.5-0.5c0-0.3-0.2-0.5-0.5-0.5c0,0,0,0,0,0c-3,0.1-5.9,0-8.6-0.2c-0.2,0-0.3,0-0.4,0.1c-0.1,0.1-0.1,0.2-0.2,0.4
			c0,0.3,0.2,0.5,0.5,0.5c0.1,0,0.1,0,0.2,0c0,5.2-0.1,8.8-0.4,10.5l0,0c0,0.3,0.1,0.6,0.5,0.6c1.1,0.1,4.1,0.2,8.7,0.2
			c0.3,0,0.5-0.2,0.5-0.5C194.4,267,194.2,266.8,193.9,266.8z"/>
		<path class="st7" d="M75.7,187.7c-0.7-0.1-1.6-0.1-2.8-0.1c-0.1-0.1-0.2-0.1-0.3-0.1c-0.2,0-0.3,0-0.4,0.1
			c-0.1,0.1-0.1,0.2-0.1,0.4c0.1,1.3,0.1,2.5-0.1,3.7c-0.1,0.2-0.1,0.4,0,0.5c0.1,0.1,0.2,0.2,0.3,0.3c0.2,0.1,0.6,0.1,1.3,0.2
			c0.4,0,0.9,0,1.3,0c0.2,0,0.5,0,0.7,0c0.4,0,0.6-0.3,0.6-0.5c0.1-0.5,0.1-1.1,0.1-1.8c0-0.7,0-1.4,0-2.2l0,0
			C76.2,187.9,76,187.8,75.7,187.7L75.7,187.7z M75.3,189.7l-2.2-0.1c0-0.3,0-0.7,0-1.1c0.8,0,1.6,0,2.2,0.1
			C75.3,189,75.3,189.3,75.3,189.7z M75.3,190.6c0,0.4,0,0.7-0.1,1.1c-0.7,0-1.4,0-2.3-0.1c0.1-0.4,0.1-0.7,0.1-1.1L75.3,190.6z"/>
		<path class="st7" d="M67.8,193.5c0.1,0,0.3,0,0.4,0c0.3,0,0.5-0.2,0.5-0.5c0-0.3-0.2-0.5-0.5-0.5c0,0,0,0,0,0c-0.4,0-0.8,0-1.4,0
			c0-0.3,0-0.7-0.1-1.1c0-0.3-0.2-0.4-0.5-0.4c-0.2,0-0.3,0.1-0.4,0.2s-0.1,0.2-0.1,0.4c0,0.3,0,0.6,0.1,0.9c-0.5,0-1-0.1-1.3-0.2
			l0,0c-0.3,0-0.5,0.1-0.5,0.4c0,0.3,0.1,0.4,0.3,0.5c0.1,0,0.1,0,0.2,0.1c0.4,0.1,0.9,0.1,1.3,0.2c0,0.4,0.1,0.8,0.1,1.2
			c0,0,0,0,0,0.1c-0.4,0.7-0.9,1.2-1.6,1.5c-0.3,0.1-0.4,0.3-0.4,0.5c0,0.3,0.2,0.5,0.6,0.5c0.4-0.1,0.9-0.3,1.4-0.9
			c0,0,0.1-0.1,0.1-0.1c0,0.7,0.1,1.1,0.1,1.3v0c-0.1,0-0.2,0-0.3,0c-0.2,0.1-0.3,0.3-0.3,0.5c0,0.2,0.2,0.5,0.7,0.5
			c0,0,0.1,0,0.1,0c0.3,0,0.5-0.1,0.6-0.3c0.1-0.2,0.2-0.5,0.2-0.9c0-0.2,0-0.6-0.1-1.2c0.4,0.2,0.8,0.3,1,0.3
			c0.3,0,0.4-0.1,0.5-0.4c0-0.2,0-0.5-0.5-0.5c-0.2,0-0.4-0.1-0.6-0.3c-0.2-0.2-0.4-0.3-0.5-0.4c0-0.4-0.1-0.8-0.1-1.3
			C67.2,193.5,67.5,193.5,67.8,193.5C67.8,193.5,67.8,193.5,67.8,193.5z"/>
		<path class="st7" d="M73.4,199.1L73.4,199.1c-0.2,0-0.4,0-0.5,0.3c-0.2,0.5-0.6,0.8-1,1c-0.2,0.1-0.4,0.2-0.4,0.5
			c0,0.3,0.2,0.5,0.5,0.5c0,0,0,0,0,0c0.3,0,0.7-0.3,1.1-0.7c0.4-0.4,0.6-0.7,0.6-1C73.8,199.3,73.7,199.1,73.4,199.1z"/>
		<path class="st7" d="M76.9,197.3c-0.9-0.1-2.2-0.3-4-0.5c0.3-0.5,0.5-1,0.6-1.5c0.8,0,1.6,0.1,2.5,0.1c0.2,0,0.4,0,0.6,0
			c0.3,0,0.5-0.2,0.5-0.5c0-0.3-0.2-0.5-0.5-0.5h0c-0.5,0-1.2,0-2.1,0c-1.5,0-2.5-0.1-3.2-0.2l0,0c-0.3,0-0.5,0.1-0.5,0.4
			c0,0.3,0.1,0.4,0.3,0.5c0.1,0,0.2,0,0.3,0.1c0.4,0,0.7,0.1,1.1,0.1c-0.1,0.4-0.3,0.8-0.5,1.3c-0.4,0.6-0.8,1-1.3,1.2
			c-0.3,0.1-0.3,0.3-0.3,0.4c0,0.3,0.2,0.5,0.5,0.5c0.1,0,0.1,0,0.2,0l0.1,0c0.4-0.2,0.8-0.5,1.2-0.9c0,0,0,0,0,0
			c1.9,0.2,3.4,0.3,4.4,0.5c0.2,0,0.2,0.1,0.2,0.1c0.1,0.2,0.2,0.8,0.2,2.4c0,0.1,0,0.1,0,0.1c0,0,0,0,0,0c0,0,0,0-0.1,0
			c-0.1,0-0.1-0.1-0.2-0.1c0,0,0,0,0,0c-0.1,0-0.3,0-0.3,0.1c-0.1,0.1-0.1,0.2-0.1,0.4c0,0.2,0.1,0.3,0.3,0.4
			c0.1,0.1,0.3,0.1,0.4,0.1h0c0,0,0,0,0.1,0c0.3,0,0.5-0.1,0.7-0.2c0.2-0.2,0.3-0.5,0.3-0.8c0-1.2-0.1-2.1-0.3-2.7
			C77.7,197.6,77.4,197.4,76.9,197.3z"/>
		<path class="st7" d="M74.8,200c-0.2,0-0.4,0.1-0.4,0.3c-0.1,0.3-0.4,0.6-0.8,1c-0.1,0.1-0.1,0.2-0.1,0.3c0,0.3,0.2,0.5,0.5,0.5
			c0,0,0,0,0,0c0.1,0,0.2-0.1,0.3-0.1c0.4-0.3,0.7-0.7,0.9-1.1c0-0.1,0.1-0.2,0.1-0.2c0-0.2,0-0.3-0.1-0.4C75.1,200,75,200,74.8,200
			z"/>
		<path class="st7" d="M96.2,195.6c-0.3,0-0.7,0-1.2,0c0-0.8,0-1.5-0.1-2c0-0.2-0.2-0.5-0.6-0.5l0,0c-0.5-0.1-1.6-0.1-3.2-0.1
			c0,0,0,0,0,0c-0.5,0-0.6,0.3-0.6,0.5c0,0.6,0,1.2-0.1,1.8c-0.6,0-1.1-0.1-1.4-0.1c-0.3,0-0.5,0.1-0.5,0.4c0,0.3,0.1,0.4,0.3,0.5
			c0.1,0,0.3,0.1,0.4,0.1c0.3,0,0.7,0.1,1.1,0.1c-0.2,0.7-0.3,1.2-0.5,1.5c0,0.1-0.1,0.2-0.1,0.2c-0.1,0.4,0,0.6,0.4,0.8
			c0.4,0.1,1.2,0.2,2.4,0.3c0.6,0,1.2,0.1,1.8,0.1v0.3c0,0.5,0,0.8,0,1c0,0,0,0,0,0c-0.2-0.1-0.4-0.1-0.5-0.1
			c-0.2,0-0.4,0.1-0.4,0.4c0,0.2,0.1,0.4,0.2,0.5c0.2,0.1,0.5,0.2,0.8,0.2c0,0,0.1,0,0.1,0c0.5,0,0.7-0.3,0.8-0.8
			c0-0.4,0.1-0.8,0.1-1.2v-0.3h0.3c0.3,0,0.4-0.2,0.5-0.4c0-0.3-0.2-0.5-0.5-0.5H95c0-0.7,0-1.3,0-1.9h0.3c0.3,0,0.6,0,0.9,0
			c0.4,0,0.5-0.3,0.5-0.5C96.7,195.8,96.5,195.6,96.2,195.6z M94.1,198.4c-1.4,0-2.5-0.1-3.5-0.3c0.2-0.5,0.3-1.1,0.5-1.7
			c0.9,0.1,2,0.1,3,0.1C94.1,197.1,94.1,197.8,94.1,198.4z M93.3,195.6c-0.7,0-1.5-0.1-2.1-0.1c0.1-0.5,0.1-1,0.2-1.6
			c0.8,0,1.7,0,2.6,0.1c0,0.4,0.1,1,0.1,1.6C93.8,195.6,93.5,195.6,93.3,195.6z"/>
		<path class="st7" d="M90.6,187.5c-0.3,0-0.5,0.2-0.5,0.5c0,1.1-0.3,1.9-1,2.4c-0.2,0.1-0.3,0.3-0.3,0.5c0,0.2,0.1,0.4,0.5,0.4
			c0.1,0,0.1,0,0.2,0c0.3-0.1,0.6-0.4,1-0.9c0.1-0.1,0.2-0.3,0.3-0.4c1.1,0.1,2.3,0.2,3.5,0.2c0.2,0,0.3,0,0.5,0
			c0.4,0,0.5-0.3,0.5-0.5c0-0.3-0.2-0.5-0.5-0.5h0c-0.4,0-1,0-1.6,0c-0.9,0-1.6-0.1-2.2-0.2c0-0.3,0.1-0.6,0.1-1
			C91,187.7,90.9,187.5,90.6,187.5z"/>
		<path class="st7" d="M92.4,197.9c0.3,0.2,0.5,0.3,0.7,0.3c0.3,0,0.5-0.2,0.5-0.5c0-0.2-0.1-0.4-0.3-0.4c-0.2-0.1-0.4-0.2-0.5-0.3
			c-0.1-0.1-0.2-0.2-0.4-0.2c-0.1,0-0.3,0.1-0.3,0.2c-0.1,0.1-0.1,0.3-0.1,0.5l0,0C91.9,197.6,92.1,197.7,92.4,197.9z"/>
		<path class="st7" d="M93.2,194.6c-0.3-0.1-0.4-0.2-0.5-0.4c-0.1-0.1-0.2-0.2-0.4-0.2c-0.2,0-0.3,0.1-0.3,0.2
			c-0.1,0.1-0.1,0.3-0.1,0.5l0,0c0.1,0.2,0.2,0.3,0.6,0.6c0.3,0.2,0.5,0.3,0.7,0.3c0.3,0,0.5-0.2,0.5-0.5
			C93.5,194.8,93.4,194.7,93.2,194.6z"/>
		<path class="st7" d="M86.4,195.5c-0.3,0-0.5-0.2-0.7-0.3c-0.2-0.2-0.4-0.4-0.6-0.5c0-0.4-0.1-0.9-0.1-1.5c0.3,0,0.6,0,0.9,0
			c0.1,0,0.3,0,0.5,0c0.4,0,0.5-0.3,0.5-0.5c0-0.3-0.2-0.5-0.5-0.5h0c-0.4,0-0.8,0-1.4,0c0-0.4,0-0.8-0.1-1.3c0-0.3-0.2-0.4-0.5-0.4
			c0,0,0,0,0,0c-0.2,0-0.3,0.1-0.4,0.2s-0.1,0.2-0.1,0.4c0,0.4,0.1,0.8,0.1,1.1c-0.7-0.1-1.2-0.1-1.5-0.2l0,0
			c-0.3,0-0.5,0.1-0.5,0.4c0,0.3,0.1,0.4,0.3,0.5c0.1,0,0.1,0,0.2,0.1c0.5,0.1,1,0.1,1.5,0.1c0,0.5,0.1,1,0.1,1.4
			c-0.4,0.8-1,1.3-1.7,1.7c-0.3,0.1-0.4,0.3-0.4,0.5c0,0.3,0.2,0.4,0.5,0.4c0,0,0,0,0,0c0.4-0.1,0.9-0.4,1.5-1c0,0,0.1-0.1,0.1-0.1
			c0.1,0.8,0.1,1.3,0.1,1.5v0c-0.1,0-0.2,0-0.3,0c-0.2,0.1-0.3,0.3-0.2,0.5c0,0.2,0.2,0.4,0.7,0.5c0,0,0.1,0,0.1,0
			c0.3,0,0.5-0.1,0.6-0.3c0.1-0.2,0.2-0.4,0.2-0.9c0-0.2,0-0.7-0.1-1.4c0.5,0.3,0.8,0.4,1.1,0.4c0.2,0,0.4-0.1,0.5-0.4
			C86.8,195.7,86.7,195.5,86.4,195.5z"/>
		<path class="st7" d="M112.1,195.6c-0.5,0-1-0.1-1.5-0.1c-0.1-0.1-0.2-0.1-0.4-0.2c-0.3,0-0.5,0.2-0.5,0.5c0,0.5,0,1.3,0,2.2
			c0,0.3,0.1,0.5,0.4,0.6c0.3,0,0.6,0.1,1.2,0.1c0.2,0,0.4,0,0.5,0c0.2,0,0.4,0,0.5,0c0.3,0,0.5-0.2,0.5-0.5c0-0.6,0-1.2,0-1.7
			C112.9,195.9,112.6,195.6,112.1,195.6z M112.1,196.5L112.1,196.5c-0.1,0-0.1,0-0.1,0L112.1,196.5
			C112.1,196.5,112.1,196.5,112.1,196.5z M111.9,197.7c-0.4,0-0.8,0-1.2,0c0-0.4,0-0.8,0-1.2c0.4,0,0.8,0,1.2,0l0,0
			C112,197.1,111.9,197.5,111.9,197.7z"/>
		<path class="st7" d="M109.6,192.8c0-0.7,0-1.3-0.1-1.9l0,0c-0.1-0.3-0.2-0.6-0.8-0.6c-0.5,0-1.2,0-1.9,0c-0.1-0.2-0.2-0.3-0.4-0.3
			c0,0,0,0,0,0c-0.2,0-0.3,0.1-0.4,0.2c-0.1,0.1-0.1,0.3-0.1,0.4c0.1,0.4,0.1,1.2,0.1,2.2c0,0.2,0,0.3,0.1,0.4
			c0.1,0.1,0.2,0.1,0.3,0.1c0.3,0,0.6,0.1,1.1,0.1c0.4,0,0.9,0,1.5,0C109.4,193.3,109.6,193,109.6,192.8z M106.8,191.3
			c0.5,0,1.1,0,1.7,0c0,0,0,0,0,0c0.1,0.3,0.1,0.7,0.1,1.1c0,0,0,0,0,0c-0.6,0-1.2,0-1.7,0c0,0,0,0,0,0
			C106.9,192.1,106.9,191.7,106.8,191.3z"/>
		<path class="st7" d="M110.9,199.8c-4.1,0-6.9-0.1-8.2-0.2c0.2-2.1,0.3-5.5,0.3-10.2c0.5,0,1.2,0.1,2,0.1c1.6,0,3.4,0,5.4,0
			c0.3,0,0.4-0.2,0.5-0.5c0-0.3-0.2-0.5-0.5-0.5c-3,0.1-5.9,0-8.6-0.2c-0.2,0-0.3,0-0.4,0.1c-0.1,0.1-0.1,0.2-0.2,0.4
			c0,0.3,0.2,0.5,0.5,0.5c0.1,0,0.1,0,0.2,0c0,5.2-0.1,8.8-0.4,10.5l0,0c0,0.3,0.1,0.6,0.5,0.6c1.1,0.1,4.1,0.2,8.7,0.2
			c0.3,0,0.5-0.2,0.5-0.5C111.4,200,111.2,199.8,110.9,199.8z"/>
		<path class="st7" d="M105.6,198.3c0.3,0,0.7,0.1,1.3,0.1c0.2,0,0.4,0,0.6,0c0.2,0,0.4,0,0.5,0c0.3,0,0.5-0.2,0.5-0.5
			c0-0.5,0-1.1,0-1.6c0-0.5-0.3-0.7-0.8-0.8c-0.6,0-1.1-0.1-1.7-0.1c-0.1-0.1-0.2-0.1-0.4-0.2c-0.3,0-0.5,0.2-0.5,0.5
			c0,0.5,0,1.2,0,2C105.1,198.1,105.3,198.3,105.6,198.3z M106.1,197.4c0-0.3,0-0.7,0-1c0.5,0,1,0,1.4,0c0,0.5,0,0.8,0,1
			C107,197.5,106.5,197.5,106.1,197.4z"/>
		<path class="st7" d="M158.6,207.3c0.3,0,0.5-0.2,0.5-0.5c0-0.3-0.2-0.5-0.5-0.5c-1.1,0-2.1,0-3.1,0l-0.1-3.7
			c0-0.3-0.2-0.5-0.5-0.5c-0.3,0-0.5,0.2-0.5,0.5l0.1,3.7c-1.5,0-3.1-0.1-4.5-0.3l0,0c-0.2,0-0.3,0-0.4,0.1
			c-0.1,0.1-0.1,0.2-0.2,0.4c0,0.2,0.1,0.4,0.5,0.5c0.6,0.1,1.7,0.2,3.3,0.3c0.4,0,0.9,0,1.3,0l0.1,3.7c0,0.3,0.2,0.5,0.5,0.5
			c0.3,0,0.5-0.2,0.5-0.5l-0.1-3.6C156.4,207.3,157.4,207.3,158.6,207.3z"/>
		<path class="st7" d="M152.1,203c0-0.2-0.2-0.4-0.5-0.4c-0.3,0-0.5,0.2-0.5,0.5c0.1,0.9,0.2,1.5,0.4,1.9c0.1,0.2,0.2,0.4,0.5,0.4
			c0,0,0,0,0,0l0,0c0.3-0.1,0.5-0.3,0.4-0.6c0,0,0-0.1,0-0.1C152.3,204.3,152.2,203.7,152.1,203z"/>
		<path class="st7" d="M151.1,199.8c-0.2,0-0.4,0.1-0.4,0.4c0,0.3,0.1,0.5,0.4,0.6c0.5,0.1,1.6,0.2,3.4,0.3c0.9,0,1.7,0.1,2.4,0.1
			c0.3,0,0.6,0,0.9,0c0.1,0,0.3,0,0.3-0.1c0.1-0.1,0.1-0.2,0.1-0.4c0-0.3-0.2-0.5-0.5-0.5c-0.8,0-1.9,0-3.2-0.1
			c-1.6-0.1-2.6-0.2-3.2-0.2C151.2,199.8,151.2,199.8,151.1,199.8z"/>
		<path class="st7" d="M157.2,203.5c-0.2,0.4-0.4,0.8-0.5,1.1c-0.1,0.1-0.1,0.2-0.1,0.3c0,0.3,0.2,0.4,0.4,0.5l0,0
			c0.1,0,0.3,0,0.3-0.1c0.1-0.1,0.1-0.1,0.1-0.1c0.2-0.4,0.4-0.8,0.5-1.1c0-0.1,0-0.1,0.1-0.2c0-0.2,0-0.3-0.1-0.4
			c-0.1-0.1-0.2-0.2-0.3-0.2C157.5,203.2,157.3,203.3,157.2,203.5z"/>
		<path class="st7" d="M177.9,209.9c0.2,0,0.4-0.1,0.5-0.5c0-0.7,0-1.7-0.1-3.1c-0.1-1.3-0.1-2.3-0.2-2.8c-0.1-0.3-0.2-0.4-0.5-0.5
			c-0.5-0.1-1.4-0.1-2.7-0.1c-0.3,0-0.5,0.2-0.5,0.6c0,1.7,0,3.6-0.1,5.6c0,0.3,0.2,0.5,0.5,0.5c0.3,0,0.4-0.2,0.5-0.5
			c0-0.2,0-0.4,0-0.6l2.1,0.2c0,0.3,0,0.5,0,0.7C177.4,209.7,177.6,209.8,177.9,209.9z M175.3,204.5c0-0.2,0-0.4,0-0.6
			c0.7,0,1.3,0,1.9,0c0,0.2,0,0.4,0.1,0.7L175.3,204.5z M175.3,206v-0.6l2,0.1c0,0.2,0,0.4,0,0.6L175.3,206z M177.4,207.7l-2.1-0.2
			c0-0.2,0-0.4,0-0.6l2.1,0.2L177.4,207.7z"/>
		<path class="st7" d="M170,207.8c-0.2,0-0.4,0.1-0.5,0.3c-0.1,0.3-0.2,0.5-0.3,0.7c-0.1,0.1-0.1,0.2-0.1,0.3c0,0.3,0.2,0.4,0.4,0.5
			l0,0c0.1,0,0.3,0,0.3-0.1c0,0,0.1-0.1,0.1-0.1c0.1-0.3,0.3-0.5,0.4-0.8l0-0.1c0-0.2,0-0.3-0.1-0.4
			C170.2,207.9,170.1,207.9,170,207.8z"/>
		<path class="st7" d="M170.6,200.9c-0.3-0.1-0.6-0.3-1-0.6c-0.4-0.3-0.7-0.6-0.9-0.8c-0.1-0.1-0.3-0.2-0.4-0.2
			c-0.1,0-0.3,0-0.4,0.2c-0.2,0.3-0.5,0.7-1,1.2c-0.5,0.5-1,1-1.5,1.3c-0.2,0.1-0.3,0.3-0.3,0.4c0,0.3,0.2,0.5,0.5,0.5
			c0,0,0,0,0.1,0c0.1,0,0.4-0.1,1-0.6c0.5-0.4,1-1,1.7-1.9c0.8,0.8,1.5,1.3,2.1,1.4c0.3,0,0.6-0.1,0.6-0.4
			C171,201.2,170.9,201,170.6,200.9z"/>
		<path class="st7" d="M169.6,210.1c-0.2,0-0.5,0.1-0.7,0.1l-0.1-3.2c0.4,0,0.7,0,1.1,0c0.3-0.1,0.4-0.3,0.4-0.5
			c0-0.1-0.1-0.2-0.2-0.3c-0.1-0.1-0.3-0.1-0.4-0.1c-0.3,0-0.6,0-0.9,0l0-0.8v0c0-0.3-0.2-0.5-0.5-0.5c0,0,0,0,0,0
			c-0.2,0-0.3,0.1-0.4,0.1c-0.1,0.1-0.1,0.2-0.1,0.4l0,0.8h-1.3c-0.3,0-0.5,0.2-0.5,0.5c0,0.3,0.2,0.5,0.5,0.5c0.5,0,0.9,0,1.3,0
			l0.1,3.2c-0.3,0-0.7,0-1.1,0c-0.3,0-0.5,0.2-0.5,0.5c0,0.3,0.2,0.5,0.5,0.5c1.2,0,2.2-0.1,3-0.2c0.3-0.1,0.4-0.3,0.4-0.5
			c0-0.1-0.1-0.2-0.2-0.3C169.9,210.1,169.8,210,169.6,210.1z"/>
		<path class="st7" d="M166.9,209.7L166.9,209.7c0.3,0,0.5-0.2,0.5-0.5c0-0.1-0.1-0.2-0.2-0.3c-0.1-0.1-0.2-0.2-0.3-0.4
			c-0.1-0.2-0.2-0.3-0.4-0.4l0,0c-0.1-0.1-0.2-0.1-0.3-0.1c-0.3,0-0.5,0.2-0.5,0.5c0,0.1,0.1,0.3,0.2,0.3c0.2,0.2,0.4,0.5,0.6,0.8
			C166.7,209.6,166.8,209.7,166.9,209.7z"/>
		<path class="st7" d="M178.6,209.9c-0.5,0-1.2,0-1.9,0c-1.4,0-2.4-0.1-3-0.1c-0.3,0-0.5,0.1-0.5,0.4c0,0.3,0.1,0.4,0.3,0.5
			c0.1,0,0.2,0,0.3,0c0.8,0.1,1.6,0.1,2.4,0.1c-0.1,0.3-0.3,0.5-0.5,0.7c-0.2,0.3-0.4,0.5-0.6,0.6c-0.1,0.1-0.2,0.2-0.2,0.4
			c0,0.3,0.2,0.5,0.5,0.5c0.3,0,0.5-0.2,0.8-0.5c0.2-0.3,0.4-0.5,0.6-0.8c0.5,0.7,1,1,1.4,1c0.3,0,0.4-0.2,0.5-0.5
			c0-0.2-0.1-0.4-0.3-0.4c-0.4-0.2-0.8-0.5-1.1-0.9c0.2,0,0.4,0,0.7,0c0.2,0,0.4,0,0.6,0c0.4,0,0.5-0.3,0.5-0.5
			C179.1,210,178.9,209.9,178.6,209.9z"/>
		<path class="st7" d="M169.5,204.8c0.3,0,0.5-0.2,0.5-0.5c0-0.3-0.2-0.5-0.5-0.5l-2.8-0.1c-0.2,0-0.3,0-0.4,0.1
			c-0.1,0.1-0.1,0.2-0.1,0.4c0,0.3,0.2,0.5,0.4,0.5L169.5,204.8z"/>
		<path class="st7" d="M173.1,200.7c0.1,0,0.2,0,0.3,0c0,0,0,0,0,0c0.8,0.1,1.7,0.1,2.5,0.2c-0.1,0.4-0.3,0.8-0.5,1
			c-0.1,0.3-0.1,0.5,0.1,0.7l0,0c0.1,0,0.2,0.1,0.2,0.1c0.2,0,0.3-0.1,0.4-0.2c0.3-0.4,0.5-0.9,0.7-1.6c0.3,0,0.6,0,0.9,0
			c0.2,0,0.4,0,0.6,0c0.4,0,0.5-0.3,0.5-0.5c0-0.3-0.2-0.5-0.5-0.5h0c-0.4,0-0.9,0-1.4,0c0-0.3,0-0.7,0-1c0-0.3-0.2-0.5-0.5-0.5
			c-0.3,0-0.5,0.2-0.5,0.5c0,0.4,0,0.7,0,1c-1.2,0-2.2-0.1-2.8-0.2l0,0c-0.3,0-0.5,0.1-0.5,0.4C172.7,200.4,172.8,200.6,173.1,200.7
			z"/>
		<path class="st7" d="M184.5,199.5c-0.1,0.1-0.1,0.2-0.2,0.4c0,0.3,0.2,0.5,0.5,0.5c0.1,0,0.1,0,0.2,0c0,5.2-0.1,8.8-0.4,10.5l0,0
			c0,0.3,0.1,0.6,0.5,0.6c1.1,0.1,4.1,0.2,8.7,0.2c0.3,0,0.5-0.2,0.5-0.5c0-0.3-0.2-0.5-0.5-0.5c-4.1,0-6.9-0.1-8.2-0.2
			c0.2-2.1,0.3-5.5,0.3-10.2c0.5,0,1.2,0.1,2,0.1c1.6,0,3.4,0,5.4,0c0.3,0,0.4-0.2,0.5-0.5c0-0.3-0.2-0.5-0.5-0.5
			c-3,0.1-5.9,0-8.6-0.2C184.7,199.4,184.6,199.5,184.5,199.5z"/>
		<path class="st7" d="M195.1,206.6c-0.5,0-1-0.1-1.5-0.1c-0.1-0.1-0.2-0.1-0.4-0.2c-0.3,0-0.5,0.2-0.5,0.5c0,0.5,0,1.3,0,2.2
			c0,0.3,0.1,0.5,0.4,0.6c0.3,0,0.6,0.1,1.2,0.1c0.2,0,0.4,0,0.5,0c0.2,0,0.4,0,0.5,0c0.3,0,0.5-0.2,0.5-0.5c0-0.6,0-1.2,0-1.7
			C195.9,206.9,195.6,206.6,195.1,206.6z M195.1,207.5L195.1,207.5c-0.1,0-0.1,0-0.1,0L195.1,207.5
			C195.1,207.5,195.1,207.5,195.1,207.5z M194.9,208.7c-0.4,0-0.8,0-1.2,0c0-0.4,0-0.8,0-1.2c0.4,0,0.8,0,1.2,0l0,0
			C195,208.1,194.9,208.5,194.9,208.7z"/>
		<path class="st7" d="M192.6,203.8c0-0.7,0-1.3-0.1-1.9l0,0c-0.1-0.3-0.2-0.6-0.8-0.6c-0.5,0-1.2,0-1.9,0c-0.1-0.2-0.2-0.3-0.4-0.3
			c0,0,0,0,0,0c-0.2,0-0.3,0.1-0.4,0.2c-0.1,0.1-0.1,0.3-0.1,0.4c0.1,0.4,0.1,1.2,0.1,2.2c0,0.2,0,0.3,0.1,0.4
			c0.1,0.1,0.2,0.1,0.3,0.1c0.3,0,0.6,0.1,1.1,0.1c0.4,0,0.9,0,1.5,0C192.4,204.3,192.6,204,192.6,203.8z M189.8,202.3
			c0.5,0,1.1,0,1.7,0c0,0,0,0,0,0c0.1,0.3,0.1,0.7,0.1,1.1c0,0,0,0,0,0c-0.6,0-1.2,0-1.7,0c0,0,0,0,0,0
			C189.9,203.1,189.9,202.7,189.8,202.3z"/>
		<path class="st7" d="M188.6,209.3c0.3,0,0.7,0.1,1.3,0.1c0.2,0,0.4,0,0.6,0c0.2,0,0.4,0,0.5,0c0.3,0,0.5-0.2,0.5-0.5
			c0-0.5,0-1.1,0-1.6c0-0.5-0.3-0.7-0.8-0.8c-0.6,0-1.1-0.1-1.7-0.1c-0.1-0.1-0.2-0.1-0.4-0.2c-0.3,0-0.5,0.2-0.5,0.5
			c0,0.5,0,1.2,0,2C188.1,209.1,188.3,209.3,188.6,209.3z M189.1,208.4c0-0.3,0-0.7,0-1c0.5,0,1,0,1.4,0c0,0.5,0,0.8,0,1
			C190,208.5,189.5,208.5,189.1,208.4z"/>
		<path class="st7" d="M234.9,252c0.1,0,0.3,0,0.4-0.1c0.1-0.1,0.1-0.2,0.1-0.4c0-0.3-0.2-0.5-0.5-0.5c-0.9,0-1.9,0-3.2,0
			c0.2-0.7,0.3-1.5,0.5-2.3v0c0-0.2,0-0.3-0.1-0.4c-0.1-0.1-0.2-0.2-0.4-0.2c-0.3,0-0.4,0.1-0.5,0.4c-0.1,0.8-0.3,1.7-0.5,2.4
			c-1.7-0.1-2.8-0.2-3.4-0.2c-0.1,0-0.2,0-0.3,0c0,0,0,0,0,0c-0.2,0-0.4,0.1-0.4,0.4c0,0.3,0.1,0.5,0.4,0.6c0.5,0.1,1.7,0.2,3.5,0.3
			c-0.7,2.3-1.8,4.1-3.3,5.6c-0.1,0.1-0.1,0.2-0.1,0.4c0,0.3,0.2,0.4,0.4,0.4c0.1,0,0.2,0,0.3-0.1c0.1-0.1,0.1-0.1,0.2-0.2
			c1.5-1.5,2.7-3.5,3.5-6.1C232.7,252,233.9,252,234.9,252z"/>
		<path class="st7" d="M236.6,258.2c-0.6-0.2-1.4-0.6-2.4-1.2c-0.9-0.6-1.5-1.1-2-1.6l0,0c0,0-0.1,0-0.1-0.1
			c-0.1-0.1-0.2-0.1-0.3-0.1c-0.3,0-0.5,0.2-0.5,0.5c0,0.1,0,0.2,0.1,0.3c0.5,0.6,1.3,1.2,2.3,1.9c1,0.7,1.9,1.1,2.6,1.3l0,0
			c0,0,0.1,0,0.1,0c0.1,0,0.1,0,0.2,0c0.2,0,0.3-0.2,0.3-0.4C236.9,258.5,236.8,258.3,236.6,258.2z"/>
		<path class="st7" d="M244.2,253.9c0.5,0,0.5-0.3,0.6-0.5c0-0.1,0-0.2-0.1-0.3c-0.1-0.1-0.2-0.1-0.4-0.2h0c-0.5,0-0.8,0-1-0.1
			c-0.2-0.1-0.4-0.1-0.5-0.1c0,0,0,0,0,0c-0.3,0-0.4,0.2-0.5,0.5c0,0.1,0.1,0.2,0.2,0.3c0.2,0.2,0.7,0.3,1.5,0.3H244.2z"/>
		<path class="st7" d="M251.6,249.1c-0.2,0.1-0.3,0.3-0.3,0.6c0.1,0.3,0.3,0.6,0.5,0.9l0,0c0.1,0.1,0.2,0.2,0.4,0.2
			c0.1,0,0.1,0,0.2,0c0.2-0.1,0.3-0.3,0.2-0.6c-0.1-0.3-0.3-0.6-0.5-0.8C252,249,251.8,249,251.6,249.1z"/>
		<path class="st7" d="M250.3,253.9c0.5,0.2,1,0.3,1.5,0.5c-0.3,0.5-0.7,0.9-1.1,1.3l-0.2,0.2c-0.1,0.1-0.1,0.2-0.1,0.4
			c0,0.2,0.1,0.4,0.3,0.4c0.1,0.1,0.3,0.1,0.5,0.1c0.4,0,0.8,0,1.1,0c0.5,0,1.1,0,1.8-0.1c0,0,0.1,0.1,0.1,0.1
			c0.1,0.1,0.1,0.1,0.2,0.1c0,0,0.1,0,0.1,0c0.1,0,0.2,0,0.3-0.1c0.1-0.1,0.1-0.2,0.2-0.3c0-0.1,0-0.3-0.1-0.4
			c-0.3-0.3-0.5-0.7-0.7-1.1c0,0,0-0.1-0.1-0.1c-0.1-0.3-0.3-0.4-0.6-0.3c-0.3,0.1-0.4,0.3-0.3,0.6c0,0.1,0,0.1,0.1,0.2
			c0.1,0.2,0.1,0.3,0.2,0.5c-0.5,0-1.1,0.1-1.7,0c0.6-0.7,1.1-1.4,1.5-2.2c0-0.1,0.1-0.1,0.1-0.2c0.1-0.3,0-0.5-0.3-0.6
			c-0.3-0.1-0.5,0-0.6,0.3c-0.1,0.1-0.2,0.3-0.2,0.4c-0.4-0.1-0.7-0.2-1-0.3c0.3-0.3,0.6-0.6,0.8-1c0,0,0.1-0.1,0.1-0.2l0,0
			c0.1-0.3,0-0.5-0.3-0.6c-0.2-0.1-0.5,0-0.6,0.2c-0.3,0.5-0.6,0.9-0.9,1.1c-0.1,0.1-0.2,0.1-0.2,0.2c-0.2,0.1-0.3,0.2-0.3,0.4
			C249.9,253.5,250,253.7,250.3,253.9z"/>
		<path class="st7" d="M250.2,251.3c0.1,0,0.3-0.1,0.4-0.2c0.1-0.1,0.1-0.3,0-0.5c0,0,0-0.1,0-0.1l0,0c-0.3-0.4-0.5-0.7-0.8-1
			c0,0,0-0.1-0.1-0.1l0,0c-0.2-0.1-0.3-0.1-0.5,0c-0.2,0.1-0.3,0.3-0.2,0.6c0,0,0,0.1,0.1,0.2c0.6,0.9,0.8,1.1,0.8,1.1
			C249.9,251.2,250,251.2,250.2,251.3C250.1,251.3,250.2,251.3,250.2,251.3z"/>
		<path class="st7" d="M255,259.8c-0.6-0.1-1.2-0.4-1.8-0.8c0,0,0,0,0,0c0-0.1,0-0.1,0.1-0.2c0-0.1,0-0.1,0-0.2c0.5,0,0.9,0,1.2-0.1
			c0.3-0.1,0.4-0.2,0.4-0.5c0-0.2,0-0.3-0.1-0.4c-0.1-0.1-0.2-0.1-0.4-0.1c-0.3,0-0.6,0.1-1,0.1c0-0.1,0-0.2,0-0.3
			c0-0.3-0.2-0.5-0.5-0.5c-0.3,0-0.5,0.2-0.5,0.5c0,0.1,0,0.2,0,0.3c-0.8,0-1.4-0.1-1.8-0.1c-0.2,0-0.3,0-0.4,0.1
			c-0.1,0.1-0.1,0.2-0.1,0.4c0,0.2,0.1,0.4,0.3,0.5c0.4,0.1,1,0.1,1.9,0.1c-0.1,0.6-0.4,1.1-0.8,1.4c-0.1,0.1-0.2,0.2-0.2,0.4
			c0,0.1,0.1,0.3,0.2,0.3c0.1,0.1,0.2,0.1,0.3,0.1c0,0,0.1,0,0.1,0c0.4-0.1,0.7-0.4,0.9-0.9c0.4,0.3,1,0.6,1.7,0.8
			c0.1,0,0.2,0.1,0.4,0.1c0.4,0.1,0.5-0.2,0.6-0.3C255.4,260.1,255.3,259.9,255,259.8z"/>
		<path class="st7" d="M253.4,250.4c0,0.3,0.2,0.5,0.5,0.5c0,0,0,0,0,0c0.1,0,0.2-0.1,0.3-0.2l0,0c0.3-0.3,0.5-0.7,0.6-1.1
			c0-0.1,0-0.1,0.1-0.2c0-0.3-0.1-0.5-0.5-0.6c-0.2,0-0.4,0.1-0.5,0.3c-0.1,0.3-0.3,0.6-0.5,1C253.5,250.2,253.4,250.3,253.4,250.4z
			"/>
		<path class="st7" d="M252.8,246.6L252.8,246.6c-0.2-0.2-0.4-0.3-0.6-0.2l0,0c-0.4,0.2-0.9,0.4-1.3,0.6c-0.3,0.1-0.7,0.3-1.2,0.3
			c-0.2,0-0.3,0.1-0.4,0.2c-0.1,0.1-0.1,0.2-0.1,0.4c0.1,0.3,0.2,0.4,0.5,0.4c0.1,0,0.2,0,0.3,0c0.4-0.1,0.7-0.2,1.1-0.3
			c0.6-0.2,1-0.4,1.4-0.7c0.1-0.1,0.2-0.1,0.2-0.2C252.8,246.9,252.9,246.8,252.8,246.6z"/>
		<path class="st7" d="M244.1,249.9c0.4,0.2,0.8,0.3,1,0.3c0.3,0,0.4-0.1,0.5-0.4c0-0.2,0-0.5-0.5-0.5c-0.2,0-0.4-0.1-0.6-0.1
			c-0.2-0.1-0.4-0.2-0.5-0.3l0,0c-0.2-0.1-0.4-0.1-0.5,0c-0.2,0.1-0.2,0.3-0.2,0.6C243.3,249.5,243.6,249.7,244.1,249.9z"/>
		<path class="st7" d="M245.3,257.2c-0.2-0.1-0.4,0-0.5,0.1c-0.1,0.1-0.3,0.1-0.5,0.2c-0.2,0.1-0.4,0.1-0.7,0.1
			c-0.3,0-0.5,0.2-0.5,0.6c0.1,0.2,0.2,0.4,0.5,0.4h0c0,0,0,0,0.1,0c0.2,0,0.5-0.1,1-0.2c0.4-0.1,0.7-0.3,0.9-0.5l0,0
			C245.7,257.4,245.5,257.3,245.3,257.2z"/>
		<path class="st7" d="M269.6,251.8c0-0.7,0-1.3-0.1-1.9l0,0c-0.1-0.3-0.2-0.6-0.8-0.6c-0.5,0-1.2,0-1.9,0c-0.1-0.2-0.2-0.3-0.4-0.3
			c0,0,0,0,0,0c-0.2,0-0.3,0.1-0.4,0.2c-0.1,0.1-0.1,0.3-0.1,0.4c0.1,0.4,0.1,1.2,0.1,2.2c0,0.2,0,0.3,0.1,0.4
			c0.1,0.1,0.2,0.1,0.3,0.1c0.3,0,0.6,0.1,1.1,0.1c0.4,0,0.9,0,1.5,0C269.4,252.3,269.6,252,269.6,251.8z M266.8,250.3
			c0.6,0,1.1,0,1.7,0c0,0,0,0,0,0c0.1,0.3,0.1,0.7,0.1,1.1c0,0,0,0,0,0c-0.6,0-1.2,0-1.7,0c0,0,0,0,0,0
			C266.9,251.1,266.9,250.7,266.8,250.3z"/>
		<path class="st7" d="M272.1,254.6c-0.5,0-1-0.1-1.5-0.1c-0.1-0.1-0.2-0.1-0.4-0.2c-0.3,0-0.5,0.2-0.5,0.5c0,0.5,0,1.3,0,2.2
			c0,0.3,0.1,0.5,0.4,0.6c0.3,0,0.6,0.1,1.2,0.1c0.2,0,0.4,0,0.5,0c0.2,0,0.4,0,0.5,0c0.3,0,0.5-0.2,0.5-0.5c0-0.6,0-1.2,0-1.7
			C272.9,254.9,272.6,254.6,272.1,254.6z M272.1,255.5L272.1,255.5c-0.1,0-0.1,0-0.1,0L272.1,255.5
			C272.1,255.5,272.1,255.5,272.1,255.5z M271.9,256.7c-0.4,0-0.8,0-1.2,0c0-0.4,0-0.8,0-1.2c0.4,0,0.8,0,1.2,0l0,0
			C272,256.1,271.9,256.5,271.9,256.7z"/>
		<path class="st7" d="M270.9,258.8c-4.1,0-6.9-0.1-8.2-0.2c0.2-2.1,0.3-5.5,0.3-10.2c0.5,0,1.2,0.1,2,0.1c1.6,0,3.4,0,5.4,0
			c0.3,0,0.4-0.2,0.5-0.5c0-0.2-0.1-0.3-0.1-0.4c-0.1-0.1-0.2-0.1-0.4-0.1c-3,0.1-5.9,0-8.6-0.2c-0.2,0-0.3,0-0.4,0.1
			s-0.1,0.2-0.2,0.4c0,0.3,0.2,0.5,0.5,0.5c0.1,0,0.1,0,0.2,0c0,5.2-0.1,8.8-0.4,10.5l0,0c0,0.3,0.1,0.6,0.5,0.6
			c1.1,0.1,4.1,0.2,8.7,0.2c0.3,0,0.5-0.2,0.5-0.5C271.4,259,271.2,258.8,270.9,258.8z"/>
		<path class="st7" d="M265.6,257.3c0.3,0,0.7,0.1,1.3,0.1c0.2,0,0.4,0,0.6,0c0.2,0,0.4,0,0.5,0c0.3,0,0.5-0.2,0.5-0.5
			c0-0.5,0-1.1,0-1.6c0-0.5-0.3-0.7-0.8-0.8c-0.6,0-1.1-0.1-1.7-0.1c-0.1-0.1-0.2-0.1-0.4-0.2c-0.3,0-0.5,0.2-0.5,0.5
			c0,0.5,0,1.2,0,2C265.1,257.1,265.3,257.3,265.6,257.3z M266.1,256.4c0-0.3,0-0.7,0-1c0.5,0,1,0,1.4,0c0,0.5,0,0.8,0,1
			C267,256.5,266.5,256.5,266.1,256.4z"/>
	</g>
	<g>
		<path class="st8" d="M151.5,143.7c-0.5,0-1.7-0.1-3.5-0.2v-3c0-0.5-0.3-0.8-0.9-0.8c-0.5,0-0.8,0.3-0.8,0.8v2.9
			c-0.9,0-1.8-0.1-2.9-0.1c-0.1-0.1-0.3-0.3-0.6-0.3c-0.5,0-0.8,0.3-0.8,0.8c0,1.1-0.1,2.5-0.3,4.2c-0.1,0.3-0.1,0.6,0.1,0.8
			c0.1,0.2,0.4,0.4,0.7,0.4c0.8,0.1,2.1,0.2,3.9,0.2v5.5c0,0.5,0.3,0.8,0.8,0.9c0.5,0,0.8-0.3,0.9-0.8c0-1,0-2.9,0-5.6
			c1.1,0,2.3,0,3.7,0c0.6,0,1-0.4,1-1c0-1.4,0-2.7-0.1-3.9C152.5,144.1,152.1,143.8,151.5,143.7z M151,147.9c-1,0-2,0-3,0v-2.7
			c0.9,0,1.8,0.1,2.9,0.1C151,146.1,151,147,151,147.9z M146.4,145.1v2.8c-1.1,0-2.1-0.1-2.9-0.1c0.1-1.1,0.2-2,0.2-2.8
			C144.4,145,145.3,145,146.4,145.1z"/>
		<path class="st8" d="M171.4,140.7c2.7,0.2,5.3,0.3,7.8,0.4c0.5,0,0.8-0.3,0.8-0.8c0-0.5-0.3-0.8-0.8-0.8l0,0
			c-2.9-0.1-5.7-0.2-8.5-0.4c-0.3,0-0.5,0-0.7,0.2c-0.2,0.2-0.3,0.4-0.3,0.7c-0.1,1.9-0.3,3.4-0.6,4.5c-0.2,0.7-0.4,1.3-0.7,1.6
			c-0.2,0.2-0.2,0.3-0.3,0.6c0,0.5,0.3,0.8,0.8,0.9c0.2,0,0.4-0.1,0.6-0.3c0.4-0.5,0.8-1.2,1.1-2.3
			C171.1,143.8,171.3,142.4,171.4,140.7z"/>
		<path class="st8" d="M172.5,149.5l0,0.6c0.1,0.5,0.4,0.8,0.8,0.8c0.5,0,0.9-0.3,0.9-0.9l0-0.7c0.1,0,0.2,0.1,0.4,0.1
			c0.1,0,0.2,0.1,0.3,0.1c0.5,0.1,0.9-0.1,1-0.6c0.1-0.5-0.2-0.9-0.7-1.1c-0.4-0.1-0.7-0.2-1.1-0.4l0-0.6l0.8,0
			c0.5,0,0.8-0.3,0.9-0.8c0-0.5-0.3-0.8-0.8-0.9l-1-0.1l0-1.2c0-0.1,0-0.3-0.1-0.4c0.2-0.2,0.4-0.5,0.4-0.8c0.1-0.5-0.2-0.8-0.7-0.9
			c-0.2,0-0.6,0-0.9,0.5c-0.3,0.3-0.6,0.6-1.1,0.8c-0.4,0.1-0.6,0.4-0.6,0.9c0,0.5,0.4,0.9,1,0.8c0.1,0,0.2,0,0.3-0.1l0,0.4l-0.9,0
			h0c-0.3,0-0.5,0.1-0.6,0.2c-0.2,0.2-0.2,0.4-0.2,0.7c0,0.5,0.3,0.8,0.8,0.8l1.1,0.1l0,0.6c-0.1,0.1-0.3,0.2-0.4,0.3
			c-0.2,0.1-0.3,0.2-0.5,0.2c-0.5,0.1-0.8,0.4-0.8,1c0.1,0.4,0.4,0.6,0.8,0.7C171.8,149.7,172.1,149.6,172.5,149.5z"/>
		<path class="st8" d="M166.5,147.2c0.5,0,0.8-0.3,0.8-0.8c0-0.5-0.3-0.8-0.8-0.9l-1.2-0.1l0-1c0-0.5-0.3-0.9-0.8-0.9
			c-0.5,0-0.8,0.3-0.9,0.8l0,1l-1.4-0.1l0,0c-0.5,0-0.8,0.3-0.8,0.8c0,0.4,0.3,0.7,0.8,0.8l1.4,0.1l-0.1,2.2c-0.4,0-0.8,0-1.2,0
			c-0.5,0-0.8,0.3-0.8,0.8c0,0.5,0.3,0.8,0.9,0.8c1.6,0,3-0.1,4.2-0.4c0.5-0.1,0.7-0.5,0.7-1c0-0.3-0.2-0.5-0.3-0.6
			c-0.2-0.1-0.4-0.2-0.7-0.1c-0.3,0.1-0.6,0.1-0.9,0.2c0-0.6,0-1.3,0.1-2L166.5,147.2z"/>
		<path class="st8" d="M180.8,147.8c-0.3-0.1-0.7-0.2-1-0.4l0-0.6l0.7,0c0.5,0,0.8-0.3,0.9-0.8c0-0.5-0.3-0.8-0.8-0.9l-0.9,0l0-0.2
			c0-0.5-0.4-0.8-0.9-0.8c0,0,0,0,0,0c0,0,0,0,0,0c0.3-0.2,0.6-0.4,0.9-0.7c0.2-0.2,0.3-0.4,0.3-0.7c0-0.5-0.3-0.8-0.9-0.8
			c-0.2,0-0.4,0.1-0.6,0.2c-0.6,0.6-1,0.8-1.2,0.8c-0.5,0.1-0.8,0.4-0.8,0.9c0.1,0.4,0.4,0.7,0.8,0.8c0.3,0,0.5,0,0.8-0.2
			c-0.1,0.1-0.1,0.3-0.1,0.5l0,0.1l-0.7,0c-0.3,0-0.5,0.1-0.6,0.2c-0.2,0.2-0.2,0.4-0.2,0.7c0,0.5,0.3,0.8,0.8,0.8l0.8,0l0,0.5
			c0,0,0,0-0.1,0.1c-0.1,0.1-0.3,0.3-0.5,0.4c-0.2,0.1-0.3,0.2-0.5,0.2c-0.5,0.1-0.8,0.4-0.8,1c0.1,0.4,0.4,0.6,0.8,0.7
			c0.3,0.1,0.7,0,1.2-0.3l0,0.6c0.1,0.5,0.4,0.8,0.8,0.8c0.5,0,0.9-0.3,0.9-0.9l0-0.5c0.1,0,0.2,0.1,0.3,0.1c0.1,0,0.2,0.1,0.4,0.1
			c0.5,0.1,0.9-0.1,1-0.6C181.5,148.4,181.3,148,180.8,147.8z"/>
		<path class="st8" d="M179.4,155.6c-0.7,0-1.5,0-2.5,0l0-0.8l2.2,0c0.5,0,0.8-0.3,0.8-0.8c0-0.5-0.3-0.9-0.8-0.9l-2.3,0l-0.1-1
			c0-0.5-0.4-0.8-0.9-0.8c0,0,0,0,0,0c-0.3,0-0.5,0.1-0.6,0.3c-0.1,0.2-0.2,0.4-0.2,0.6l0.2,3.4c-0.3,0-0.5,0-0.8,0l-0.2-1.7
			c0-0.5-0.4-0.8-0.9-0.8c-0.3,0-0.5,0.1-0.6,0.2s-0.2,0.4-0.2,0.7l0.2,1.5c-0.1,0-0.3,0-0.4,0c-0.1,0-0.2,0-0.3,0
			c-0.4,0-0.7,0.3-0.8,0.7c0,0.5,0.2,0.8,0.6,1c0.6,0.1,1.8,0.2,3.8,0.4c1,0.1,1.9,0.1,2.7,0.1c0.3,0,0.7,0,1,0
			c0.3,0,0.5-0.1,0.6-0.2c0.2-0.1,0.3-0.4,0.3-0.6C180.2,155.9,179.9,155.6,179.4,155.6z"/>
		<path class="st8" d="M203,150.2c0-0.7-0.4-1.2-1.2-1.3c-0.7,0-1.3-0.1-2-0.1c-0.1-0.1-0.3-0.2-0.6-0.2c-0.5,0-0.8,0.3-0.8,0.8
			c0,0.7,0,1.7,0,2.8c-0.1,0.5,0.2,0.9,0.7,1c0.3,0,0.9,0.1,1.6,0.1c0.3,0,0.6,0,0.8,0c0.4,0,0.6,0,0.7,0c0.5-0.1,0.8-0.4,0.9-0.9
			C203,151.7,203,150.9,203,150.2z M201.3,151.7c-0.4,0-0.8,0-1.2,0c0-0.4,0-0.8,0-1.1c0.4,0,0.8,0,1.2,0
			C201.3,151.1,201.3,151.5,201.3,151.7z"/>
		<path class="st8" d="M198.5,145.3c0-1,0-1.8-0.2-2.5l0,0c-0.1-0.3-0.3-0.9-1.3-0.9c0,0,0,0,0,0c-0.7,0-1.5,0-2.4,0
			c-0.2-0.2-0.4-0.3-0.7-0.3c0,0,0,0,0,0c-0.3,0-0.5,0.2-0.6,0.3c-0.2,0.2-0.2,0.4-0.2,0.8c0.1,0.6,0.1,1.6,0.1,2.8
			c0,0.3,0,0.5,0.1,0.7c0.1,0.1,0.3,0.2,0.5,0.3c0.3,0.1,0.9,0.1,1.5,0.1c0.6,0,1.2,0,2-0.1C198.2,146.3,198.5,145.9,198.5,145.3z
			 M195,144.8c0-0.4,0-0.8,0-1.2c0.6,0,1.2,0,1.8,0c0.1,0.4,0.1,0.7,0.1,1.2C196.2,144.8,195.5,144.8,195,144.8z"/>
		<path class="st8" d="M193,153c0.4,0,0.9,0.1,1.7,0.1c0.3,0,0.6,0,0.8,0c0.4,0,0.6,0,0.7,0c0.5-0.1,0.8-0.4,0.9-0.9
			c0-0.7,0.1-1.4,0-2.1c0-0.7-0.4-1.2-1.2-1.3c-0.7,0-1.5-0.1-2.2-0.1c-0.1-0.1-0.3-0.2-0.6-0.2c-0.5,0-0.8,0.3-0.8,0.8
			c0,0.7,0,1.6,0,2.6C192.2,152.5,192.4,152.9,193,153z M193.9,151.4c0-0.3,0-0.6,0-0.9c0.5,0,1,0,1.5,0.1c0,0.5,0,0.7,0,0.9
			C194.9,151.4,194.4,151.4,193.9,151.4z"/>
		<path class="st8" d="M200.1,154.6c-5.3,0-8.9-0.1-10.7-0.2c0.3-2.8,0.4-7.2,0.4-13.2c0.7,0,1.5,0.1,2.5,0.1c2.1,0.1,4.5,0.1,7.3,0
			c0.5-0.1,0.8-0.4,0.8-0.9c0-0.5-0.4-0.8-0.9-0.8c-4,0.1-7.9,0-11.4-0.2c-0.3,0-0.5,0-0.7,0.2c-0.2,0.1-0.3,0.4-0.3,0.7
			c0,0.5,0.3,0.8,0.8,0.8c0,0,0.1,0,0.1,0c0,6.9-0.2,11.5-0.5,13.8l0,0c0,0.6,0.3,0.9,0.8,1c1.5,0.2,5.5,0.3,11.7,0.3
			c0.5,0,0.9-0.3,0.9-0.9C201,154.9,200.6,154.6,200.1,154.6z"/>
	</g>
	<g>
		<path class="st8" d="M232.8,118.3c0,0,0.1,0,0.1,0c0.1,0,0.2-0.1,0.2-0.1c0.4-0.2,0.9-0.6,1.4-1.4c0,0,0-0.1,0.1-0.2
			c0.2-0.4,0-0.8-0.3-1l-0.1,0c-0.5-0.2-0.9-0.1-1.2,0.3c-0.3,0.4-0.6,0.7-0.8,0.9c-0.3,0.2-0.4,0.4-0.4,0.7c0,0.3,0.1,0.5,0.2,0.6
			C232.3,118.3,232.5,118.3,232.8,118.3z"/>
		<path class="st8" d="M234.5,119.6c-0.4-0.1-0.8-0.3-1.2-0.6c-0.2-0.1-0.3-0.2-0.6-0.2c0,0,0,0,0,0c-0.5,0-0.8,0.3-0.8,0.9
			c0,0.2,0.1,0.4,0.3,0.6c0.4,0.4,0.9,0.7,1.6,0.9c0.1,0,0.2,0.1,0.3,0.1c0.1,0,0.1,0,0.2,0c0.4,0,0.7-0.2,0.8-0.6
			C235.2,120.2,235,119.8,234.5,119.6z"/>
		<path class="st8" d="M228.3,112.2c-0.5,0-0.8,0.3-0.8,0.8c0,4.3-0.6,7.3-1.7,9l0,0c-0.3,0.4-0.2,0.9,0.2,1.2l0.1,0.1
			c0.1,0.1,0.3,0.1,0.4,0.1c0.3,0,0.5-0.1,0.7-0.4c1.3-2,2-5.4,2-10C229.2,112.5,228.8,112.2,228.3,112.2z"/>
		<path class="st8" d="M234,123c-0.5,0-0.8,0.3-0.8,0.7c0,0-0.2,0-0.4,0c-0.7,0-1.1-0.1-1.2-0.2c0,0-0.2-0.2-0.2-1.1
			c0-0.8,0.1-3.1,0.3-6.9v0c0-0.5-0.3-0.8-0.9-0.8c-0.5,0-0.8,0.3-0.8,0.8c-0.2,3.9-0.3,6.2-0.3,7c0,1.2,0.3,2.1,1.1,2.5
			c0.4,0.3,1.1,0.4,2.1,0.4c0,0,0,0,0.1,0c1.7,0,2-1,2-1.5C234.9,123.3,234.6,123,234,123z"/>
		<path class="st8" d="M221.8,119.3c-0.3-0.1-0.6-0.2-0.9-0.4c-0.3-0.2-0.5-0.3-0.7-0.5c0-0.6-0.1-1.2-0.1-1.9c0.2,0,0.4,0,0.7,0
			c0.2,0,0.4,0,0.6,0c0.5-0.1,0.8-0.4,0.8-0.8c0-0.5-0.3-0.8-0.9-0.8h0c-0.4,0-0.8,0-1.3,0c0-0.5-0.1-1.1-0.1-1.8
			c-0.1-0.5-0.4-0.7-0.9-0.7c0,0,0,0,0,0c-0.3,0-0.5,0.1-0.7,0.3s-0.2,0.4-0.2,0.7c0,0.5,0.1,1,0.1,1.5c-0.7,0-1.3-0.1-1.7-0.1l0,0
			c-0.5-0.1-0.9,0.2-0.9,0.7c0,0.4,0.2,0.8,0.6,0.9l0.3,0.1c0.6,0,1.2,0.1,1.9,0.1c0,0.6,0.1,1.2,0.1,1.7c-0.5,0.9-1.2,1.6-1.9,2
			c-0.4,0.1-0.6,0.4-0.6,0.8c0.1,0.5,0.4,0.8,1,0.8c0.5-0.1,1.1-0.4,1.7-1c0,0.5,0,0.9,0,1.2c0,0,0,0,0,0c-0.1,0-0.2,0-0.3,0.1
			c-0.3,0.2-0.5,0.5-0.4,0.9c0,0.3,0.2,0.7,1.1,0.8c0.1,0,0.1,0,0.2,0c0.5,0,0.8-0.2,1-0.4c0.2-0.3,0.3-0.7,0.3-1.3
			c0-0.3,0-0.8-0.1-1.6c1.2,0.6,2.1,0.5,2.3-0.4C222.7,119.7,222.3,119.3,221.8,119.3z"/>
		<path class="st8" d="M225,116.5c0.1,0,0.2,0.1,0.3,0.1c0.1,0,0.2,0,0.2,0c0.4,0,0.7-0.2,0.8-0.6c0.1-0.5-0.1-0.9-0.7-1.1
			c-0.4-0.1-0.7-0.2-1.1-0.5c-0.2-0.1-0.3-0.2-0.5-0.2c-0.5,0-0.8,0.3-0.8,0.9c0,0.2,0.1,0.4,0.3,0.6
			C224,116.1,224.5,116.3,225,116.5z"/>
		<path class="st8" d="M226.4,119L226.4,119c0.3-0.8-0.2-1.1-0.4-1.2c-0.3-0.1-0.6-0.1-0.9,0.1c-0.1,0.1-0.3,0.2-0.4,0.3
			c-0.2,0.1-0.4,0.1-0.6,0.2c-0.5,0.1-0.8,0.4-0.8,1.1c0.1,0.4,0.4,0.6,0.8,0.7c0,0,0,0,0.1,0c0.3,0,0.6-0.1,1.1-0.3
			C225.9,119.5,226.2,119.3,226.4,119z"/>
		<path class="st8" d="M242.3,113.2c-0.5,0-0.8,0.3-0.8,0.8c0,5.3-0.1,8.6-0.3,9.9c0,0.5,0.3,0.9,0.8,0.9c0.5,0,0.8-0.3,0.9-0.7
			c0.2-1.3,0.3-4.6,0.3-10.1C243.2,113.6,242.8,113.2,242.3,113.2z"/>
		<path class="st8" d="M246.7,115.2c-0.5-0.1-0.9,0.2-0.9,0.7c0,0.4,0.2,0.8,0.6,0.9l0.3,0.1c1.6,0.1,3.3,0.2,5,0.2
			c0.2,0,0.4,0,0.7,0c0.5-0.1,0.8-0.4,0.8-0.8c0-0.5-0.3-0.8-0.9-0.8c-0.5,0-1.2,0-2,0c0-0.1,0-0.2,0-0.3l1.2,0.1
			c0.5,0,0.8-0.3,0.8-0.8c0-0.2-0.1-0.5-0.2-0.6c-0.1-0.2-0.3-0.2-0.6-0.3l-1.4-0.1c0,0,0,0,0,0c0-0.5-0.3-0.9-0.8-0.9
			c-0.5,0-0.8,0.3-0.9,0.8l0,0l-1.3-0.1c-0.5,0-0.8,0.3-0.8,0.8c0,0.4,0.3,0.8,0.8,0.8l1.4,0.1l0,0.3
			C247.8,115.3,247.1,115.3,246.7,115.2L246.7,115.2z"/>
		<path class="st8" d="M257.5,112.8c-0.1-0.8-0.6-1.7-2.2-1.8c-1.6,0-5.3-0.2-11-0.3c-0.3,0-0.5,0-0.7,0.2c-0.1,0.1-0.2,0.3-0.2,0.7
			c0,0.5,0.3,0.8,0.8,0.8c5.7,0.2,9.4,0.3,11.1,0.3c0.4,0,0.5,0.2,0.5,0.4c0,0.3,0.1,2.4,0.2,6.3c0.1,3.2,0.2,5.2,0.2,5.9
			c-0.2,0-0.3,0.1-0.4,0.2c-0.1,0.2-0.2,0.4-0.2,0.6c0,0.3,0.2,0.8,1.1,0.9c0,0,0,0,0.1,0c0.4,0,0.7-0.1,0.9-0.3
			c0.2-0.2,0.3-0.5,0.3-0.9c0-0.3-0.1-2.4-0.2-6.4C257.6,115.3,257.5,113.1,257.5,112.8z"/>
		<path class="st8" d="M253.7,125.4c-1,0-2.3,0-3.8,0c0.1,0,0.2-0.1,0.2-0.1c0.3-0.2,0.4-0.4,0.4-0.7c0-0.1,0-0.1,0-0.2
			c0.4,0.2,0.8,0.5,1.2,0.6c0.1,0.1,0.3,0.1,0.5,0.1c0.5,0.1,0.9-0.2,1-0.6c0.1-0.5-0.2-0.9-0.7-1c-0.1,0-0.3-0.1-0.4-0.2
			c0.1-0.1,0.1-0.1,0.2-0.2c0.3-0.3,0.4-0.5,0.4-0.6c0.1-0.4,0-0.7-0.4-1c-0.4-0.2-0.7,0-0.9,0.1l-0.7,0.7c-0.2-0.1-0.3-0.2-0.5-0.2
			c0,0,0,0,0,0c-0.4,0-0.7,0.2-0.8,0.6c0-0.2,0-0.3,0-0.5c0,0,0,0,0,0c0.3-0.3,0.5-0.5,0.6-0.7c0.1-0.1,0.1-0.2,0.1-0.3
			c0.3,0,0.6,0,0.9,0c0.6,0,1-0.4,1-1c0-0.9-0.1-1.5-0.2-1.9c-0.2-0.4-0.6-0.6-1.3-0.7h-2.3c-0.1-0.1-0.3-0.1-0.5-0.1
			c-0.5,0-0.8,0.3-0.8,0.9c0,0.4,0.1,0.9,0.1,1.5c-0.1,0.6,0.2,1,0.9,1.1c0.1,0,0.2,0,0.3,0c-0.2,0.2-0.4,0.3-0.6,0.6
			c-0.4,0.4-0.9,0.6-1.2,0.8c-0.4,0.1-0.6,0.4-0.6,0.8c0.1,0.4,0.3,0.7,0.8,0.8l0,0c0.2,0,0.4-0.1,0.6-0.1c0.2-0.1,0.4-0.2,0.7-0.4
			c0,0.4-0.1,0.8-0.1,1c0,0.3,0,0.5,0.1,0.7c-1.7-0.1-2.9-0.1-3.5-0.2c-0.1,0-0.3,0-0.4,0c-0.4,0-0.7,0.3-0.8,0.7
			c0,0.5,0.2,0.8,0.7,1c0.7,0.1,2.4,0.2,5,0.3c1.3,0.1,2.5,0.1,3.6,0.1c0.4,0,0.9,0,1.3,0c0.3,0,0.5-0.1,0.6-0.2
			c0.2-0.1,0.3-0.4,0.3-0.6C254.5,125.7,254.2,125.4,253.7,125.4z M248.6,119.3h1.6c0,0.1,0,0.2,0.1,0.3c-0.7,0-1.2,0-1.6,0
			C248.6,119.4,248.6,119.3,248.6,119.3z M249.7,123.6c0,0,0.1,0.1,0.1,0.1c-0.2,0-0.4,0-0.4,0.1c0,0,0,0,0,0c0-0.2,0-0.4,0-0.7
			C249.5,123.3,249.5,123.5,249.7,123.6z"/>
		<path class="st8" d="M271,124c0.4,0,0.9,0.1,1.7,0.1c0.3,0,0.6,0,0.8,0c0.4,0,0.6,0,0.7,0c0.5-0.1,0.8-0.4,0.9-0.9
			c0-0.7,0.1-1.4,0-2.1c0-0.7-0.4-1.2-1.2-1.3c-0.7,0-1.5-0.1-2.2-0.1c-0.1-0.1-0.3-0.2-0.6-0.2c-0.5,0-0.8,0.3-0.8,0.8
			c0,0.7,0,1.6,0,2.6C270.2,123.5,270.4,123.9,271,124z M271.9,122.4c0-0.3,0-0.6,0-0.9c0.5,0,1,0,1.5,0.1c0,0.5,0,0.7,0,0.9
			C272.9,122.4,272.4,122.4,271.9,122.4z"/>
		<path class="st8" d="M278.1,125.6c-5.3,0-8.9-0.1-10.7-0.2c0.3-2.8,0.4-7.2,0.4-13.2c0.7,0,1.5,0.1,2.5,0.1c2.1,0.1,4.5,0.1,7.3,0
			c0.5-0.1,0.8-0.4,0.8-0.9c0-0.5-0.4-0.9-0.9-0.8c-4,0.1-7.9,0-11.4-0.2c-0.3,0-0.5,0-0.7,0.2c-0.2,0.1-0.3,0.4-0.3,0.7
			c0,0.5,0.3,0.8,0.8,0.8c0,0,0.1,0,0.1,0c0,6.9-0.2,11.5-0.5,13.8l0,0c0,0.6,0.3,0.9,0.8,1c1.5,0.2,5.5,0.3,11.7,0.3
			c0.5,0,0.9-0.3,0.9-0.9C279,125.9,278.6,125.6,278.1,125.6z"/>
		<path class="st8" d="M276.5,116.3c0-1,0-1.8-0.2-2.5l0,0c-0.1-0.3-0.3-0.9-1.3-0.9c0,0,0,0,0,0c-0.7,0-1.5,0-2.4,0
			c-0.2-0.2-0.4-0.3-0.7-0.3c0,0,0,0,0,0c-0.3,0-0.5,0.2-0.6,0.3c-0.2,0.2-0.2,0.4-0.2,0.8c0.1,0.6,0.1,1.6,0.1,2.8
			c0,0.3,0,0.5,0.1,0.7c0.1,0.1,0.3,0.2,0.5,0.3c0.3,0.1,0.9,0.1,1.5,0.1c0.6,0,1.2,0,2-0.1C276.2,117.3,276.5,116.9,276.5,116.3z
			 M273,115.8c0-0.4,0-0.8,0-1.2c0.6,0,1.2,0,1.8,0c0.1,0.4,0.1,0.7,0.1,1.2C274.2,115.8,273.5,115.8,273,115.8z"/>
		<path class="st8" d="M281,121.2c0-0.7-0.4-1.2-1.2-1.3c-0.7,0-1.3-0.1-2-0.1c-0.1-0.1-0.3-0.2-0.6-0.2c-0.5,0-0.8,0.3-0.8,0.8
			c0,0.7,0,1.7,0,2.8c-0.1,0.5,0.2,0.9,0.7,1c0.3,0,0.9,0.1,1.6,0.1c0.3,0,0.6,0,0.8,0c0.4,0,0.6,0,0.7,0c0.5-0.1,0.8-0.4,0.9-0.9
			C281,122.7,281,121.9,281,121.2z M279.3,122.7c-0.4,0-0.8,0-1.2,0c0-0.4,0-0.8,0-1.1c0.4,0,0.8,0,1.2,0
			C279.3,122.1,279.3,122.5,279.3,122.7z"/>
	</g>
	<g>
		<path class="st8" d="M227.7,199.2c-0.6-0.3-1.5-1.2-2.6-2.5c-1.8-2.3-2.8-3.5-3-3.7c-1.1-1.2-2-1.9-2.9-2.1
			c-0.2,0-0.3-0.1-0.4-0.1c-0.5,0-0.8,0.2-0.9,0.6c0,0.3,0,0.6,0.2,0.8c0.1,0.1,0.2,0.2,0.4,0.3l0.2,0c0.6,0.2,1.4,0.8,2.3,1.8
			l3,3.7c1.2,1.5,2.2,2.4,3,2.8c0.1,0,0.2,0.1,0.4,0.1c0.5,0,0.8-0.3,0.8-0.9C228.2,199.6,228.1,199.4,227.7,199.2z"/>
		<path class="st8" d="M214.8,192.9c-0.4,0-0.8,0.3-0.9,0.7c-0.5,2.1-1.4,3.6-2.6,4.3c-0.3,0.2-0.5,0.4-0.5,0.8
			c0,0.5,0.3,0.8,0.8,0.8c0,0,0,0,0.1,0l0,0c0.2,0,0.3-0.1,0.5-0.1c1.7-1,2.8-2.8,3.4-5.2c0-0.1,0-0.2,0.1-0.4
			c0-0.3-0.1-0.5-0.2-0.6C215.3,193.1,215.1,193,214.8,192.9z"/>
		<path class="st8" d="M234.9,192.6c0,0,0.1,0,0.1,0c0.3,0,0.9-0.2,2.1-1c0.6-0.5,1-0.9,1.3-1.2c0.1-0.2,0.2-0.3,0.2-0.6
			c0-0.5-0.3-0.8-0.7-0.9c-0.2,0-0.5,0-0.9,0.4c0,0-0.1,0.1-0.1,0.2c-0.2,0.2-0.5,0.5-1,0.8c-0.3,0.3-0.7,0.5-1.1,0.6
			c-0.5,0.1-0.7,0.4-0.8,0.9C234.1,192.3,234.4,192.6,234.9,192.6z"/>
		<path class="st8" d="M250,196.8c-1.3,0.2-2.9,0.3-4.8,0.3c-0.5,0-0.9,0.3-0.9,0.9c0,0.5,0.4,0.8,0.9,0.8c2,0,3.8-0.1,5.2-0.4
			c0.5-0.1,0.8-0.5,0.7-1c0-0.3-0.2-0.5-0.3-0.6C250.6,196.8,250.3,196.8,250,196.8z"/>
		<path class="st8" d="M238.6,193.6c-0.4,0-0.7,0.1-0.9,0.4c-0.1,0.2-0.5,0.5-1.4,1.1c-0.6,0.3-1.1,0.6-1.6,0.8
			c-0.4,0.1-0.6,0.4-0.6,0.8c0.1,0.4,0.3,0.7,0.8,0.8c0.2,0,0.4,0,0.6-0.1c0.2-0.1,0.4-0.1,0.6-0.3l0.4,3.9c0.1,0.5,0.4,0.7,0.8,0.7
			c0,0,0,0,0.1,0c0.5-0.1,0.8-0.3,0.8-0.8l0-0.2c-0.1-1.5-0.3-3.1-0.5-4.6c0.6-0.5,1.1-0.9,1.3-1.2c0.1-0.1,0.1-0.2,0.1-0.3
			C239.3,194.1,239.1,193.7,238.6,193.6z"/>
		<path class="st8" d="M244.8,196.2c1,0,2,0,2.8,0c1.2,0,2.3,0,3.1-0.1c0.7-0.2,0.9-0.6,0.9-0.8c0-0.1,0.1-0.4,0-1.3
			c0-0.7-0.1-1.2-0.2-1.7c-0.2-0.5-0.5-0.8-1.1-0.9l-1.9,0c0.2-0.3,0.3-0.7,0.4-1.1c0.5,0,0.9,0,1.5,0.1c0.2,0,0.4,0,0.7,0
			c0.5,0,0.8-0.4,0.8-0.8c0-0.5-0.3-0.9-0.9-0.9h0c-0.5,0-1.2,0-2,0c0-0.3,0-0.5,0-0.9c0-0.5-0.3-0.8-0.9-0.8h0
			c-0.5,0-0.8,0.3-0.8,0.8c0,0.3,0,0.5,0,0.7c-0.8-0.1-1.4-0.1-1.8-0.2l0,0c-0.5-0.1-0.9,0.2-1,0.8c0,0.4,0.2,0.8,0.6,0.9
			c0.1,0,0.2,0.1,0.4,0.1c0.6,0.1,1.1,0.1,1.7,0.2c-0.1,0.5-0.4,0.8-0.7,1.1c0,0,0,0,0,0c-0.3,0-0.6,0-1,0c-0.3-0.4-1-0.4-1.4-0.1
			c-0.2,0.2-0.2,0.4-0.2,0.7c0.1,0.6,0.1,1.6-0.1,2.9c-0.1,0.4,0,0.7,0.1,0.8C244,196.1,244.3,196.2,244.8,196.2z M249.9,194.6
			c-0.1,0-0.3,0-0.4,0c0-0.4,0.1-0.9,0.1-1.4c0.1,0,0.2,0,0.3,0C249.9,193.7,249.9,194.1,249.9,194.6z M247.8,193.2l-0.1,1.4h-0.3
			c0-0.4,0.1-0.9,0.1-1.5C247.7,193.2,247.8,193.2,247.8,193.2z M245.4,194.6c0.1-0.5,0.1-1,0.1-1.4c0.1,0,0.2,0,0.3,0l-0.1,1.4
			C245.6,194.6,245.5,194.6,245.4,194.6z"/>
		<path class="st8" d="M249.8,199.9c-0.2-0.3-0.5-0.5-0.9-0.5c-0.4,0.1-0.7,0.3-0.8,0.8c0,0.2,0,0.3,0.1,0.4
			c0.2,0.4,0.4,0.7,0.6,0.9l0.1,0.1c0.2,0.3,0.5,0.5,0.9,0.5c0,0,0,0,0,0c0.5-0.1,0.8-0.5,0.7-1l-0.1-0.3
			C250.2,200.5,250,200.2,249.8,199.9z"/>
		<path class="st8" d="M251.8,199.4c-0.2-0.2-0.4-0.3-0.6-0.3c-0.5,0-0.9,0.3-0.9,0.8c0,0.2,0,0.3,0.1,0.5l0.8,0.9
			c0.2,0.2,0.4,0.3,0.7,0.3c0.5,0,0.9-0.3,0.9-0.9c0-0.2-0.1-0.3-0.2-0.5L251.8,199.4z"/>
		<path class="st8" d="M249.9,202.9c-0.2-0.1-0.4-0.1-0.7,0c-0.2,0.1-0.5,0.2-0.7,0.2c-0.6,0-1-0.2-1.3-0.4c-0.4-0.4-0.6-1-0.4-1.9
			c0.1-0.7-0.3-0.9-0.5-1c-0.3-0.1-0.6-0.1-1,0.4c-0.9,1-1.6,1.7-2.1,2c-0.3,0.2-0.5,0.4-0.5,0.8c0,0.5,0.4,0.9,0.9,0.9
			c0.3,0,0.6-0.1,1-0.5c0.2-0.2,0.5-0.4,0.7-0.6c0.2,0.5,0.5,0.9,0.8,1.2c0.6,0.5,1.4,0.8,2.4,0.8c0.5,0,1-0.1,1.4-0.3
			c0.3-0.2,0.5-0.6,0.4-1C250.3,203.2,250.1,203,249.9,202.9z"/>
		<path class="st8" d="M275,198.2c0-0.7-0.4-1.2-1.2-1.3c-0.7,0-1.3-0.1-2-0.1c-0.1-0.1-0.3-0.2-0.6-0.2c-0.5,0-0.8,0.3-0.8,0.8
			c0,0.7,0,1.7,0,2.8c-0.1,0.5,0.2,0.9,0.7,1c0.3,0,0.9,0.1,1.6,0.1c0.3,0,0.6,0,0.8,0c0.4,0,0.6,0,0.7,0c0.5-0.1,0.8-0.4,0.9-0.9
			C275,199.7,275,198.9,275,198.2z M273.3,199.7c-0.4,0-0.8,0-1.2,0c0-0.4,0-0.8,0-1.1c0.4,0,0.8,0,1.2,0
			C273.3,199.1,273.3,199.5,273.3,199.7z"/>
		<path class="st8" d="M272.1,202.6c-5.3,0-8.9-0.1-10.7-0.2c0.3-2.8,0.4-7.2,0.4-13.2c0.7,0,1.5,0.1,2.5,0.1c2.1,0.1,4.5,0.1,7.3,0
			c0.5-0.1,0.8-0.4,0.8-0.9c0-0.5-0.4-0.9-0.9-0.8c-4,0.1-7.9,0-11.4-0.2c-0.3,0-0.5,0-0.7,0.2c-0.2,0.1-0.3,0.4-0.3,0.7
			c0,0.5,0.3,0.8,0.8,0.8c0,0,0.1,0,0.1,0c0,6.9-0.2,11.5-0.5,13.8l0,0c0,0.6,0.3,0.9,0.8,1c1.5,0.2,5.5,0.3,11.7,0.3
			c0.5,0,0.9-0.3,0.9-0.9C273,202.9,272.6,202.6,272.1,202.6z"/>
		<path class="st8" d="M270.5,193.3c0-1,0-1.8-0.2-2.5l0,0c-0.1-0.3-0.3-0.9-1.3-0.9c0,0,0,0,0,0c-0.7,0-1.5,0-2.4,0
			c-0.2-0.2-0.4-0.3-0.7-0.3c0,0,0,0,0,0c-0.3,0-0.5,0.2-0.6,0.3c-0.2,0.2-0.2,0.4-0.2,0.8c0.1,0.6,0.1,1.6,0.1,2.8
			c0,0.3,0,0.5,0.1,0.7c0.1,0.1,0.3,0.2,0.5,0.3c0.3,0.1,0.9,0.1,1.5,0.1c0.6,0,1.2,0,2-0.1C270.2,194.3,270.5,193.9,270.5,193.3z
			 M267,192.8c0-0.4,0-0.8,0-1.2c0.6,0,1.2,0,1.8,0c0.1,0.4,0.1,0.7,0.1,1.2C268.2,192.8,267.5,192.8,267,192.8z"/>
		<path class="st8" d="M265,201c0.4,0,0.9,0.1,1.7,0.1c0.3,0,0.6,0,0.8,0c0.4,0,0.6,0,0.7,0c0.5-0.1,0.8-0.4,0.9-0.9
			c0-0.7,0.1-1.4,0-2.1c0-0.7-0.4-1.2-1.2-1.3c-0.7,0-1.5-0.1-2.2-0.1c-0.1-0.1-0.3-0.2-0.6-0.2c-0.5,0-0.8,0.3-0.8,0.8
			c0,0.7,0,1.6,0,2.6C264.2,200.5,264.4,200.9,265,201z M265.9,199.4c0-0.3,0-0.6,0-0.9c0.5,0,1,0,1.5,0.1c0,0.5,0,0.7,0,0.9
			C266.9,199.4,266.4,199.4,265.9,199.4z"/>
	</g>
</g>
</svg>
