<?xml version="1.0" encoding="utf-8"?>
<!-- Generator: Adobe Illustrator 21.1.0, SVG Export Plug-In . SVG Version: 6.00 Build 0)  -->
<svg version="1.1" id="圖層_2" xmlns="http://www.w3.org/2000/svg" xmlns:xlink="http://www.w3.org/1999/xlink" x="0px" y="0px"
	 viewBox="0 0 1200 1994" style="enable-background:new 0 0 1200 1994;" xml:space="preserve">
<style type="text/css">
	.st0{fill:#F5F5F5;}
	.st1{clip-path:url(#SVGID_2_);}
	.st2{clip-path:url(#SVGID_4_);fill:#202020;}
	.st3{clip-path:url(#SVGID_4_);fill:none;stroke:#000000;stroke-width:3;stroke-miterlimit:10;}
	.st4{clip-path:url(#SVGID_2_);fill:#618978;}
	.st5{clip-path:url(#SVGID_2_);fill:#FFF6D3;}
	.st6{clip-path:url(#SVGID_2_);fill:#FFAF00;}
	.st7{clip-path:url(#SVGID_2_);fill:#DECCBC;}
	.st8{clip-path:url(#SVGID_2_);fill:#99B0C0;}
	.st9{clip-path:url(#SVGID_2_);fill:#B1897A;}
	.st10{fill:#202020;}
	.st11{clip-path:url(#SVGID_6_);fill:none;stroke:#000000;stroke-width:3;stroke-miterlimit:10;}
	.st12{clip-path:url(#SVGID_2_);fill:#F5F5F5;}
	.st13{clip-path:url(#SVGID_2_);fill:#000925;}
	.st14{clip-path:url(#SVGID_2_);fill:#EBB568;}
	.st15{clip-path:url(#SVGID_2_);fill:#645C4B;}
	.st16{clip-path:url(#SVGID_2_);fill:#294147;}
</style>
<path class="st0" d="M1200,926.2c-12.5-7.2-25-14.5-37.7-21.3c-28.6-15.3-58.9-28.5-91.1-33.1c-32.2-4.6-66.6,0.2-93.5,18.3
	s-44.8,51.1-40.2,83.2c3.3,23,17.1,43.1,22.8,65.6c5.6,22.4,2.8,45.9-0.9,68.7c-3.8,22.8-8.6,45.6-7.1,68.7
	c1.5,23,10.5,46.7,29.1,60.3c22.5,16.4,54.4,14.4,79.4,2.2s44.7-32.9,63.8-53.1c19.1-20.3,38.6-41,63.5-53.5c3.9-1.9,7.8-3.6,11.9-5
	L1200,926.2z"/>
<g>
	<defs>
		<rect id="SVGID_1_" width="1200" height="1994"/>
	</defs>
	<clipPath id="SVGID_2_">
		<use xlink:href="#SVGID_1_"  style="overflow:visible;"/>
	</clipPath>
	<g class="st1">
		<defs>
			<path id="SVGID_3_" d="M-0.2,1266.7c20.1,18.9,30.2,48,50.7,67.2c10.3,9.6,22.8,16.4,34.5,24.2s23.1,17,29.3,29.6
				c5.9,12,6.7,25.8,6.7,39.1c0.1,17.9-1.2,37.1-11.8,51.5c-9.4,12.7-24.7,19.7-40.1,22.9s-31.3,3-47.1,4.2c-7.4,0.5-14.8,1.4-22,3
				L-0.2,1266.7z"/>
		</defs>
		<clipPath id="SVGID_4_">
			<use xlink:href="#SVGID_3_"  style="overflow:visible;"/>
		</clipPath>
		<path class="st2" d="M-0.2,1266.7c20.1,18.9,30.2,48,50.7,67.2c10.3,9.6,22.8,16.4,34.5,24.2s23.1,17,29.3,29.6
			c5.9,12,6.7,25.8,6.7,39.1c0.1,17.9-1.2,37.1-11.8,51.5c-9.4,12.7-24.7,19.7-40.1,22.9s-31.3,3-47.1,4.2c-7.4,0.5-14.8,1.4-22,3
			L-0.2,1266.7z"/>
		<path class="st3" d="M54.2,1312.7c-6.7,2.7-13.5,5.4-19.6,9.4s-11.5,9.3-14.4,15.9s-2.9,14.8,1,20.9c4.5,7.1,13.3,10.3,21.7,10.7
			c5.5,0.3,11.3-0.5,16-3.5c4.6-2.9,7.7-7.7,9.6-12.7s2.7-10.5,3.6-15.8"/>
		<path class="st3" d="M42.8,1304.4c-6.7,6.2-16.1,8.1-24.8,10.9c-8.7,2.8-17.8,7.6-20.8,16.2c-2.2,6.3-0.4,13.5,3.3,19.1
			s9,9.9,14.4,13.8c5.4,3.9,11.1,7.6,15.8,12.4c3.6,3.7,6.8,8.1,11.6,10c6.9,2.7,14.7-0.7,20.4-5.5c11.4-9.5,17.9-24.6,17.1-39.4"/>
		<path class="st3" d="M27.3,1296.3c-10.6,9-26.8,9.4-36.8,19.1c-7.9,7.7-9.9,20-7.6,30.8s8.6,20.4,15.3,29.1
			c3.8,5,8.1,9.9,13.8,12.4c5.2,2.2,11,2.1,16.4,3.5c7.1,1.8,13.5,6.2,20.8,7.2c11.9,1.7,23.6-6,30.1-16
			c6.6-10.1,9.1-22.2,11.4-33.9"/>
		<path class="st3" d="M-13.3,1524.9c2.7-13.6,9.9-26.8,21.3-34.6c12-8.2,27.1-9.7,41.5-11.8s29.6-5.6,39.4-16.3
			c7.8-8.5,11.3-20.8,20.4-27.9c6.7-5.3,15.6-7,24.1-6.5c8.5,0.5,16.7,3,24.8,5.5"/>
		<path class="st3" d="M54.7,1523.7c-0.7-11.5,6.5-22,15-29.8c18.4-16.9,44.4-25.2,69.2-22.2c4.2,0.5,8.6,1.4,12,4.1"/>
		<path class="st3" d="M-36.4,1431.8c32.4,7.2,66.1,1.8,98.8-3.6c8.9-1.5,18.6-3.4,24.4-10.3c5.1-6,6-14.3,8.2-21.8
			c2.7-8.9,7.5-17.2,14-23.8c1.6-1.6,3.5-3.3,5.7-3.4c2.3-0.1,4.7,2.2,3.8,4.3"/>
		<path class="st3" d="M-18.7,1403c7.1,6.5,16.5,10.1,26.1,11.6s19.2,1.1,28.9,0.7c9-0.4,18.4-0.8,26.4-5c6.3-3.3,11.3-8.7,16.1-14
			c5.6-6.2,11.4-12.5,14.1-20.4c1.3-3.8,2-7.8,4-11.3c2-3.4,6.2-6.1,10-4.8"/>
		<path class="st3" d="M28.6,1289.4c-10.1,1.8-20.2,3.6-30.3,5.5c-4.4,0.8-8.9,1.6-12.7,3.9s-6.9,6.3-6.8,10.8"/>
		<path class="st3" d="M28,1277c-16.2-1.5-32.9,4.1-45,15"/>
	</g>
	<path class="st4" d="M83.8,1472.3c0,0.7,0.1,1.5,0.1,2.2C84.6,1473.8,84.7,1473,83.8,1472.3z"/>
	<path class="st5" d="M103.8,1509.4c-0.2-0.3-0.5-0.7-0.7-1C103,1509.2,103.2,1509.5,103.8,1509.4z"/>
	<path class="st6" d="M25.2,1523c-0.1-0.2-0.1-0.4-0.2-0.6c0,0.7,0,1.3-0.1,2c0.1,0,0.1,0,0.2,0C25.1,1523.9,25.1,1523.5,25.2,1523z
		"/>
	<path class="st4" d="M92.7,1536.4c0.1-0.5,0.1-1.1,0.2-1.6c-1-0.1-1.5,0.6-1.5,2.3C91.9,1536.9,92.3,1536.7,92.7,1536.4z"/>
	<path class="st6" d="M11.4,1557.1c0.1,0.1,0.3,0.2,0.4,0.3c0.1-0.2,0.2-0.3,0.3-0.5C11.8,1557,11.6,1557,11.4,1557.1z"/>
	<path class="st7" d="M68.6,1514.8c0.7-0.6,0.9-1.4,0.5-2.6c-0.5,0.6-1,1.1-1.5,1.7C68,1514.2,68.3,1514.5,68.6,1514.8z"/>
	<path class="st8" d="M22.1,1551.5c-0.6,0.8-1.2,1.6-1.7,2.4c2.3,1,1.5,0.3,3.4-2.9C23.2,1551.2,22.7,1551.3,22.1,1551.5z"/>
	<path class="st8" d="M33.2,1504.1c-0.5,0.7-0.9,1.5-1.3,2.2c2.1,0.7,1.3,0.1,2.8-2.8C34.2,1503.8,33.7,1504,33.2,1504.1z"/>
	<path class="st7" d="M74,1472.7c-1.3-0.2-2.6-0.4-3.9-0.5c0,0.1,0,0.2,0,0.3c-5.4,0,1.1,4.2,4.9,3.6
		C74.6,1474.9,74.3,1473.8,74,1472.7z"/>
	<path class="st5" d="M14.8,1510.5c0.3,0.1,0.6,0.2,0.9,0.3c0.1-0.2,0.2-0.4,0.2-0.5c-0.7-0.1-1.4-0.2-2.1-0.4
		C14.2,1510.1,14.5,1510.3,14.8,1510.5z"/>
	<path class="st8" d="M29.9,1470.5c0.2,0.4,0.4,0.7,0.7,1c0-0.4,0-0.8-0.1-1.2C30.3,1470.2,30.1,1470.3,29.9,1470.5z"/>
	<path class="st9" d="M52.5,1471.8c0.1,0.3,0.1,0.5,0.2,0.8C52.8,1472.3,52.8,1472.1,52.5,1471.8z"/>
	<path class="st9" d="M58.7,1476.4c-1.2,1.5-2.3,3.1-3.2,4.8c2.7,2.6,5.1,1.9,7.1-2.1c-0.9-1.1-1.8-2.2-2.5-3.4
		C59.6,1475.9,59.1,1476.2,58.7,1476.4z"/>
	<path class="st5" d="M74.9,1522.6c0.6,3.1,4.2,2.1,2.3-1.6C76.4,1521.6,75.7,1522.1,74.9,1522.6z"/>
	<path class="st5" d="M98.8,1499.1c0.4,0.3,0.7,0.5,1.1,0.8c0-0.7,0-1.4-0.1-2C99.5,1498.3,99.1,1498.7,98.8,1499.1z"/>
	<path class="st5" d="M20.8,1540.5c-0.3-0.4-0.5-0.7-0.8-1.1c-0.2,0.6-0.4,1.1-0.6,1.7c0.4,0.2,0.8,0.4,1.3,0.5
		C20.7,1541.3,20.7,1540.9,20.8,1540.5z"/>
	<path class="st7" d="M47.5,1541.3c-0.5-0.9-1.2-1.9-1.9-2.7c0.2,1.4,0.3,2.9,0.1,4.1c0.6,0.1,1.2,0.1,1.8,0.2
		C47.5,1542.3,47.5,1541.8,47.5,1541.3z"/>
	<path class="st5" d="M78,1496.4c0.9-3.9-3.8-2.3-5.3-1.2C75,1497.4,76.8,1497.9,78,1496.4z"/>
	<path class="st6" d="M51.5,1494.7c-0.4,0.4-0.9,0.7-1.3,1c0.6,1.2,1.3,2.5,1.9,3.7C53.4,1498,53.2,1496.4,51.5,1494.7z"/>
	<path class="st8" d="M77.3,1545.2c0.2,0,0.4-0.1,0.6-0.1c0,0.2-0.1,0.4-0.2,0.7c0.2,0,0.5,0,0.7,0c-0.5-1.3-0.9-2.5-1.4-3.8
		c-0.3,0.1-0.6,0.1-0.9,0.2C76.6,1543.2,76.9,1544.2,77.3,1545.2z"/>
	<path class="st6" d="M13.6,1531.5c-0.5,0.1-0.9,0.1-1.4,0.2C13,1532.1,13.4,1532.1,13.6,1531.5z"/>
	<path class="st7" d="M53.9,1546.9c-0.5,0.1-0.9,0.3-1.4,0.4c0.5,1.1,1.1,1.3,1.8,0.8C54.2,1547.7,54.1,1547.3,53.9,1546.9z"/>
	<path class="st5" d="M50.6,1517.2c0.3-0.7,0.6-1.4,0.8-2c-1.1,0.2-2.2,0.4-3.3,0.6C48.7,1516.9,49.5,1517.4,50.6,1517.2z"/>
	<path class="st5" d="M101.6,1523.5c0.3,0.1,0.6,0.2,1,0.3c0.3-2,0.5-4,0.7-6c-0.3-0.1-0.6-0.2-0.8-0.2
		C102.2,1519.6,101.9,1521.6,101.6,1523.5z"/>
	<path class="st6" d="M42.2,1532.6c0.4-1.4,0.2-2.5-0.7-3.3C41.7,1530.5,42,1531.6,42.2,1532.6z"/>
	<path class="st6" d="M52.3,1532c0.3,0.4,0.7,0.9,1,1.3C53.4,1532.4,53,1532,52.3,1532z"/>
	<path class="st6" d="M59.2,1565.1c-0.1,0.2-0.2,0.3-0.3,0.5c0.2,0.1,0.3,0.2,0.5,0.3c0.1-0.2,0.2-0.3,0.4-0.5
		C59.6,1565.3,59.4,1565.2,59.2,1565.1z"/>
	<path class="st7" d="M27,1564c0.4-0.2,0.9-0.3,1.3-0.5c-0.1-0.3-0.1-0.6-0.2-0.9C27.7,1563,27.3,1563.5,27,1564z"/>
	<path class="st4" d="M9.4,1490.9c0.1-0.1,0.2-0.2,0.3-0.3c-0.1,0-0.2,0.1-0.3,0.1C9.3,1490.7,9.4,1490.8,9.4,1490.9z"/>
	<path class="st5" d="M43.3,1470.4c-0.4-0.8-0.8-1.5-1.1-2.3C41.7,1468.9,42.1,1469.7,43.3,1470.4z"/>
	<path class="st5" d="M40.3,1478.9c0,0.4,0,0.7,0.1,1.1c1.5-0.2,3-0.3,4.5-0.3C43.5,1478.5,41.9,1478.3,40.3,1478.9z"/>
	<path class="st5" d="M63,1551.4c0,0.3,0.1,0.6,0.1,1c0-0.4,0-0.7,0-1.1C63,1551.3,63,1551.3,63,1551.4z"/>
	<path class="st5" d="M41.8,1578.9c0,0.1,0,0.2,0,0.3c0.1,0,0.1-0.1,0.2-0.1C41.9,1579,41.9,1579,41.8,1578.9z"/>
	<path class="st8" d="M82,1486.9c2.4-0.6,3-1.9,2-3.7C83.4,1484.4,82.7,1485.7,82,1486.9z"/>
	<path class="st6" d="M66.9,1503c0.2-0.1,0.3-0.3,0.4-0.4c-0.2-0.2-0.4-0.4-0.6-0.6C66.8,1502.3,66.8,1502.6,66.9,1503z"/>
	<path class="st6" d="M87.8,1525c0.2-0.1,0.4-0.2,0.7-0.2c-0.1-0.3-0.3-0.6-0.4-0.9C88,1524.2,87.9,1524.6,87.8,1525z"/>
	<path class="st5" d="M33.6,1489.4c-4-1-2.7-1.5-5.3,2.5c1.3,0.6,2.7,1.2,4,1.8C32.9,1492.3,33.3,1490.9,33.6,1489.4z"/>
	<path class="st6" d="M41.6,1517.8c-1.1-3.3-0.1-2.6-4-2.6c0.2,1.2,0.4,2.4,0.5,3.6C39.2,1518.5,40.4,1518.2,41.6,1517.8z"/>
	<path class="st7" d="M47.8,1568.1c-0.7,0.9-1.5,1.7-2.2,2.6c0.8-0.1,1.7-0.1,2.5-0.2C48.1,1569.7,48,1568.9,47.8,1568.1z"/>
	<path class="st7" d="M64.4,1526.4C64.3,1526.4,64.3,1526.4,64.4,1526.4c0.8,1.4,2,1,3.6-1.1c0,0,0-0.1-0.1-0.1
		C66.6,1525.8,65.4,1526.3,64.4,1526.4z"/>
	<path class="st6" d="M79.2,1533.8c-0.1,0-0.2,0.1-0.2,0.1c0,0,0.1,0,0.1,0.1C79.1,1533.9,79.2,1533.9,79.2,1533.8z"/>
	<path class="st5" d="M17.2,1521.3c-1.4,0.7-2.5,0.7-2.9,2c1.1-0.3,2.1-0.6,3.1-0.9C17.3,1521.9,17.3,1521.6,17.2,1521.3z"/>
	<path class="st7" d="M18.3,1485.1c-0.1,0-0.3,0.1-0.4,0.1c0.2,0,0.4,0,0.5-0.1C18.4,1485.2,18.3,1485.1,18.3,1485.1z"/>
	<path class="st8" d="M10.6,1501.4c-0.5-0.5-1-1.1-1.5-1.6c-0.1,0.6-0.1,1.3-0.2,1.9C9.5,1501.5,10,1501.5,10.6,1501.4z"/>
	<path class="st6" d="M20.8,1498.1c0.1,1.5,0.9,1.9,2.3,1.2C23.1,1498.2,22.3,1497.8,20.8,1498.1z"/>
	<path class="st6" d="M5.7,1522.2c-0.1-0.2-0.3-0.4-0.4-0.6C5.4,1521.9,5.5,1522.1,5.7,1522.2C5.7,1522.3,5.7,1522.3,5.7,1522.2z"/>
	<path class="st5" d="M85.9,1495.5c1.2,0.8,2.4,1.6,3.6,2.3c0.2-1.2,0.4-2.4,0.6-3.6c-1.2-0.3-2.5-0.7-3.7-1
		C86.2,1494,86,1494.8,85.9,1495.5z"/>
	<path class="st5" d="M43.6,1549.1c-1.8-2.1-4-3.3-6.4-3.7c0.9,1.7,1.9,3.5,2.8,5.3C41.1,1550.2,42.3,1549.6,43.6,1549.1z"/>
	<path class="st5" d="M33.3,1546.2c-0.9-4.3-0.9-3.4-5.7-2.6C27.9,1546.6,29.8,1547.5,33.3,1546.2z"/>
	<path class="st5" d="M0.6,1547.4c-0.7,0.2-1.4,0.4-2.2,0.5c2.7,5.5,6.8,6.8,12.6,3.8C10.6,1547.8,7.2,1546.4,0.6,1547.4z"/>
	<path class="st6" d="M29.9,1530.1l0.2,2.1c0.7-0.8,1.3-1.5,2-2.3C31.4,1529.9,30.6,1530,29.9,1530.1z"/>
	<path class="st5" d="M3.5,1511.7l0,0.1c0.1,0,0.3-0.1,0.4-0.1C3.8,1511.7,3.7,1511.7,3.5,1511.7z"/>
	<path class="st5" d="M54.8,1528c2.1,0.5,3.1,0,4.9-1c-1.5-3.1-3.2-6.2-2.6-8.3c-1.9,0-3.7,0.1-5.6,0.1
		C50.9,1522.1,52,1525.2,54.8,1528z"/>
	<path class="st5" d="M9.4,1541.8c0.1,0,0.3,0.1,0.4,0.1c-0.1-0.2-0.2-0.3-0.3-0.5C9.5,1541.6,9.4,1541.7,9.4,1541.8z"/>
	<path class="st5" d="M76,1565.1c0.1,0.1,0.1,0.2,0.2,0.3c0-0.1,0.1-0.3,0.1-0.4C76.1,1565,76,1565.1,76,1565.1z"/>
	<path class="st6" d="M46.9,1558.8c2,0,3.6-0.7,4.7-2.1C50,1555.8,48.4,1556.5,46.9,1558.8z"/>
	<path class="st8" d="M31,1481.5c0.3,0.3,0.6,0.7,0.9,1c0.2-0.3,0.5-0.6,0.7-0.9C32.4,1481,31.8,1481,31,1481.5z"/>
	<path class="st8" d="M48,1487.4c0.2,0,0.3,0,0.5,0c0-0.2,0.1-0.4,0.1-0.6C48.3,1487,48.2,1487.2,48,1487.4z"/>
	<path class="st6" d="M70.9,1557.3c0.7-1,1.4-1.9,2.1-2.9c-1.1,0.4-2.2,0.8-3.3,1.3C69.8,1556.5,70.2,1557,70.9,1557.3z"/>
	<path class="st5" d="M68.2,1486c0-0.2-0.1-0.4-0.1-0.6c-0.1,0.2-0.2,0.4-0.3,0.6C68,1486,68.1,1486,68.2,1486z"/>
	<path class="st6" d="M57.9,1493.8c1,0.7,2,1.3,3,2c0.5-0.7,1-1.4,1.5-2.1C60.4,1491.4,58.9,1491.5,57.9,1493.8z"/>
	<path class="st6" d="M15.6,1474.8c0.7,0.8,1.3,1.6,1.9,2.5c1.6-1.2,0.1-3.4-1.5-4C15.9,1473.8,15.7,1474.3,15.6,1474.8z"/>
	<path class="st9" d="M16.3,1563.9c0.7,1.6,1.3,3.2,2,4.8c0.6-1.1,1.4-2.2,2.1-3.2c-0.9-0.9-1.8-1.8-2.7-2.7
		C17.2,1563.1,16.7,1563.5,16.3,1563.9z"/>
	<path class="st8" d="M83.2,1553c-1.4-2.3-3.5-2.3-6.2,0.1C78.3,1555.4,81.1,1554.3,83.2,1553z"/>
	<path class="st6" d="M2.2,1530.6c-1.1-0.3-1.8,0-2.3,0.9c0.6,0.7,1.2,1.4,1.8,2.1C1.9,1532.6,2,1531.6,2.2,1530.6z"/>
	<path class="st4" d="M88.7,1508.2c0.2-1.1-0.2-1.8-1.1-2.2c-0.6,0.7-1.3,1.4-1.9,2.1C86.7,1508.2,87.7,1508.2,88.7,1508.2z"/>
	<path class="st7" d="M39.9,1497c0.2-0.3,0.4-0.7,0.6-1c-0.3,0.1-0.6,0.2-0.8,0.4C39.7,1496.6,39.8,1496.8,39.9,1497z"/>
	<path class="st5" d="M36.9,1559.4c-0.3-0.4-0.6-0.7-0.9-1.1c0,0.5,0,1.1,0,1.6C36.3,1559.8,36.6,1559.6,36.9,1559.4z"/>
	<path class="st6" d="M74.2,1512.3c-0.4,0.4-0.9,0.7-1.4,1.1c3.4-0.1,7.3-0.2,11.2,0C82.6,1508.6,79.3,1508.3,74.2,1512.3z"/>
	<path class="st8" d="M27.8,1512.1c-1.1,0.9-1.3,1.9-0.5,2.9C27.5,1514,27.6,1513,27.8,1512.1z"/>
	<path class="st6" d="M50,1506.2c-1.3-0.7-2.7-1.3-4.1-1.7C46.4,1505,49.4,1509.1,50,1506.2z"/>
	<path class="st5" d="M63.7,1538.4c-0.2,0.2-0.4,0.3-0.6,0.5c0.3,0.1,0.7,0.2,1,0.3C63.9,1538.9,63.8,1538.7,63.7,1538.4z"/>
	<path class="st8" d="M95,1514.1c-0.2-0.2-0.4-0.4-0.6-0.6c-1.2,0.9-2,2-2.4,3.3c0.8,0.3,1.6,0.6,2.4,0.9
		C94.6,1516.4,94.8,1515.3,95,1514.1z"/>
	<path class="st4" d="M59,1510.6c0.1-0.1,0.1-0.2,0.2-0.2c0,0-0.1,0-0.1,0C59.1,1510.4,59.1,1510.5,59,1510.6z"/>
	<g class="st1">
		<path class="st10" d="M1200,424.4c0,0-12.3-13.4-28.8-4.1c-16.5,9.3-6.2,25.7-13.4,37c-7.2,11.3-37,37-15.4,63.8
			c21.6,26.8,57.6,5.7,57.6,5.7V424.4z"/>
		<g>
			<defs>
				<path id="SVGID_5_" d="M1200,424.4c0,0-12.3-13.4-28.8-4.1c-16.5,9.3-6.2,25.7-13.4,37c-7.2,11.3-37,37-15.4,63.8
					c21.6,26.8,57.6,5.7,57.6,5.7V424.4z"/>
			</defs>
			<clipPath id="SVGID_6_">
				<use xlink:href="#SVGID_5_"  style="overflow:visible;"/>
			</clipPath>
			<path class="st11" d="M1188.8,415.3c4.3,7.2,6.6,15.6,6.4,24c-0.2,6.8-1.9,13.4-2.6,20.1c-0.7,6.5-0.5,13.4,2.5,19.3
				c3.1,6.3,9.1,10.8,15.5,13.5c6.4,2.8,13.4,4,20.3,5.2"/>
			<path class="st11" d="M1150,450.9c5.4,1,11.3,2.3,14.8,6.6c1.8,2.1,2.7,4.7,3.6,7.3c2.4,7.3,4.1,14.9,7,22c1.3,3.2,3,6.4,5.6,8.8
				c3.7,3.3,8.9,4.5,13.8,4.8s10-0.2,14.9,0.5"/>
			<path class="st11" d="M1214,524.1c-14.2-7.8-28.5-15.8-40.8-26.4c-7.1-6.2-13.5-13.2-20.6-19.4c-3.3-2.9-6.7-5.7-9.3-9.3
				c-2.6-3.6-4.2-8-3.3-12.4"/>
			<path class="st11" d="M1132.8,481.5c6,13.5,15.4,26.4,29,32.3c5.2,2.2,10.9,3.4,15.9,6.2c5.6,3.1,9.9,8.2,13.1,13.7
				c3.2,5.5,5.4,11.6,7.6,17.6"/>
			<path class="st11" d="M1127.4,506c10.8,2.5,20.8,8.1,28.6,16c7.8,7.8,13.4,17.9,15.9,28.6"/>
		</g>
	</g>
	<path class="st12" d="M0,187.9c13.5-6.6,29.4-8.5,43.8-4.4c33.8,9.5,54.1,45.5,86.9,57.9c29.4,11.1,64.2,1.4,92.3,15.3
		c19.9,9.9,32.7,30.1,41,50.7c11.7,29.1,16.3,61.6,9.9,92.3c-6.5,30.7-24.6,59.4-51.4,75.8c-22.3,13.6-49.2,18.2-71.5,31.7
		c-20.6,12.5-36,31.6-53,48.7c-9.1,9.2-19.2,18.1-31.5,22.1c-15.3,5-32.3,1.7-47-4.8c-6.9-3.1-13.5-6.9-19.6-11.3L0,187.9z"/>
	<path class="st12" d="M881.7,1994c1-2.2,2.1-4.3,3.3-6.4c10.2-18,24.8-33,37.8-49.1c13-16.1,24.8-34.2,27.6-54.7
		c5.6-41.6-26.6-80.6-23.8-122.4c1.4-21.6,12.2-41.6,25.5-58.6c28.7-36.5,70.6-62.5,116-71.8c44.3-9.1,91.7-2.4,131.8,18.5
		l-0.5,344.1L881.7,1994z"/>
	<path class="st4" d="M1119,841.2c0.1,2.9,0.3,5.9,1,8.7c3.8-2.7,6.5-6.2,8.1-10.2C1125.7,841.8,1121.3,842.4,1119,841.2z"/>
	<path class="st4" d="M1110.6,830.1c0.7,0.1,1.3,0.2,2,0.3C1112.1,829.7,1111.4,829.4,1110.6,830.1z"/>
	<path class="st13" d="M1061.4,853.1c0.5-0.1,0.9-0.2,1.4-0.4c-0.6-0.6-1.1-0.7-1.7-0.3C1061.2,852.6,1061.3,852.9,1061.4,853.1z"/>
	<path class="st8" d="M1080.4,872.7c-0.5,0.7-1,1.5-1.4,2.2c1.5-0.4,3.9-0.9,3.1-3C1081.6,872.2,1081,872.4,1080.4,872.7z"/>
	<path class="st7" d="M1070.3,828.3c0-0.6,0-1.1-0.1-1.7c-0.4,0-0.7,0-1.1,0C1069.5,827.1,1069.9,827.7,1070.3,828.3z"/>
	<path class="st14" d="M1118.1,853.1c0.5-1.5,0.3-2.6-0.7-3.3c-1.4,1.3-2.8,2.7-4.1,4C1114.9,855.8,1116.5,855.6,1118.1,853.1z"/>
	<path class="st15" d="M1066.8,903c0.3,0,0.6,0.1,0.9,0.1C1067.4,903,1067.1,902.9,1066.8,903z"/>
	<path class="st13" d="M1093.2,842.5c0.2-0.1,0.5-0.2,0.7-0.3c-0.1-0.1-0.1-0.1-0.2-0.2C1093.6,842.2,1093.4,842.4,1093.2,842.5z"/>
	<path class="st16" d="M1102.6,837.1c0.4,0.6,0.9,1.2,1.6,1.6c0.1-1,0.1-2,0.2-3.1c-0.6,0.1-1.2,0.1-1.8,0.1
		C1102.6,836.1,1102.6,836.6,1102.6,837.1z"/>
	<path class="st9" d="M1134.4,854.3c-1.6,0.8-3.3,1.7-5,2.9c1.1,2.3,2.8,3,5,2.3C1134.4,857.7,1134.4,856,1134.4,854.3z"/>
	<path class="st13" d="M1093.1,878.9c-0.4-0.3-0.8-0.3-1.4-0.1c0,0.2,0,0.4,0.1,0.6C1092.3,879.2,1092.7,879,1093.1,878.9z"/>
	<path class="st15" d="M1075.6,862.7c0.2,0.1,0.4,0.1,0.6,0.2c0.5-1.5,0.9-3,1.3-4.5c-0.6-0.4-1.2-0.7-1.9-0.7
		C1075.5,859.2,1075.5,861,1075.6,862.7z"/>
	<path class="st4" d="M1060,865.4c0.6-0.9,1.3-1.9,1.9-2.8c-3.8,0.2-5.1,1.6-4.2,4.2C1058.5,866.3,1059.2,865.8,1060,865.4z"/>
	<path class="st4" d="M1110.4,887.1c-0.3-0.7-0.5-1.5-0.8-2.2c-1.8,0.9-1.9,2-0.2,3.1C1109.7,887.7,1110,887.4,1110.4,887.1z"/>
	<path class="st4" d="M1082.8,834c-0.4-0.2-0.9-0.3-1.3-0.4c0.4,0.4,0.7,0.8,1.1,1.2C1082.8,834.6,1082.9,834.4,1082.8,834z"/>
	<path class="st9" d="M1102.9,876c0.5-0.4,0.7-0.9,0-1.2C1102.9,875.2,1102.9,875.6,1102.9,876z"/>
	<path class="st4" d="M1065.3,891.2c-1.7-0.4-3.4-1-5-1.5c-0.2,0.5-0.4,1-0.6,1.5C1061.5,891.1,1063.4,891.1,1065.3,891.2z"/>
	<path class="st8" d="M1057.4,881.2c-0.4-0.6-0.8-1.1-1.1-1.7C1056.1,880.3,1056.5,880.9,1057.4,881.2z"/>
	<path class="st15" d="M1058.2,825.1c-0.7-0.1-1.8,0.5-1.7,1.2C1057.1,825.9,1057.7,825.5,1058.2,825.1z"/>
	<path class="st4" d="M1080.3,909C1080.3,909,1080.3,909,1080.3,909c1.5,1.1-2.2-2.1-2.7-1.7C1078.4,907.9,1079.3,908.5,1080.3,909z
		"/>
	<path class="st15" d="M1074.3,849.7c2,0.2,3.9-0.2,5.7-1.3c-1.8-1.6-3.9-1.8-6.5-0.6C1073.7,848.5,1074,849.1,1074.3,849.7z"/>
	<path class="st16" d="M1123.5,905.4c1.8-1.6,1.2-1.7,0.2-4c-1.2,0.7-2.5,1.4-3.7,2.1c0.3,0.9,0.7,1.8,1,2.7
		C1121.9,905.9,1122.7,905.6,1123.5,905.4z"/>
	<path class="st9" d="M1130.4,870.6c1.6,0.3,3.2,0.5,4.8,0.7c-0.3-1-0.6-2-0.7-3C1133.1,869,1131.8,869.8,1130.4,870.6z"/>
	<path class="st16" d="M1106.8,865.4c0.3-0.3,0.5-0.6,0.8-0.9C1107.1,864.4,1106.9,864.7,1106.8,865.4z"/>
	<path class="st14" d="M1076.7,884.8c1.4,0.5,2.8,1,4.2,1.6c0.5-3.6-1.9-5.8-7.1-6.9c-0.3,1.4-0.7,2.9-1.2,4.2
		c1.4,0.6,2.7,1.2,4,1.8C1076.7,885.3,1076.7,885,1076.7,884.8z"/>
	<path class="st9" d="M1117.5,912.6c-1.3-0.1-1.7,0.6-1.3,1.9C1116.6,913.9,1117,913.2,1117.5,912.6z"/>
	<path class="st16" d="M1069,836.9c-1.5-1.3-3-1-4.5,0.7c1.3,5.2,4.2,6.7,8.6,4.5c0-3.6-1.9-5.3-5.8-5.2
		C1067.9,837,1068.4,837,1069,836.9z"/>
	<path class="st8" d="M1066.9,875.9c0,0.6,0,1.2,0,1.8c0.4-0.3,0.8-0.7,1.2-1C1067.7,876.4,1067.3,876.2,1066.9,875.9z"/>
	<path class="st8" d="M1135.2,842.2c-0.1-0.1-0.1-0.1-0.2-0.2c0,0.5,0,1,0,1.5C1135.5,843.5,1135.5,843,1135.2,842.2z"/>
	<path class="st7" d="M1106,849.7c-0.2-0.5-0.4-0.5-0.8-0.1C1105.5,849.7,1105.8,849.7,1106,849.7z"/>
	<path class="st8" d="M1132.1,899.8c-4.4-3.9-4.7-4.7-3.7,1.6c1.2-0.3,2.5-0.6,3.7-0.8C1132.2,900.3,1132.2,900,1132.1,899.8z"/>
	<path class="st16" d="M1086,896.9c-0.1-0.7-0.2-1.4-0.3-2c-1.2,0.3-2.4,0.5-3.6,0.8c0.1,0.5,0.2,1,0.3,1.4
		C1083.6,897,1084.8,897,1086,896.9z"/>
	<path class="st14" d="M1117.3,860.2c1,2.8,2.4,5.4,4.3,7.7c0.5-3.5,0.8-7,1-10.5C1120.8,858.4,1119.1,859.3,1117.3,860.2z"/>
	<path class="st15" d="M1099.6,907.2c-0.1,0-0.3,0-0.4,0.1l0.1,0.7c1,0.4,1.7,0.2,2.2-0.5C1100.9,907.4,1100.2,907.3,1099.6,907.2z"
		/>
	<path class="st4" d="M1097.2,829.9c-0.2-0.4-0.4-0.8-0.5-1.2c-0.7,1-1.3,2-2,3C1096,831.7,1096.8,831,1097.2,829.9z"/>
	<path class="st8" d="M1109.6,902c0.6,0.6,1.2,1.3,1.8,1.9c0.1-0.6,0.2-1.1,0.2-1.7C1111,902.2,1110.3,902.1,1109.6,902z"/>
	<path class="st7" d="M1091.7,907.5c0.4-2,0.4-4.4,0.8-6.5c-2-0.2-3.7,0.7-5.1,2.9c0.7,0.2,1.3,0.5,1.9,0.7c-0.7,0.7-1.4,1.6-2,2.6
		c1.8,0.6,5.5,1.4,6.4-0.5C1093,907,1092.4,907.3,1091.7,907.5z"/>
	<path class="st14" d="M1114.9,890.8c-0.2,1.7,0.2,2.5,1.3,3.8c2.3-1.5,4.6-3.1,6.4-2.8c-0.2-1.5-0.4-3-0.6-4.5
		C1119.2,887.1,1116.9,888.3,1114.9,890.8z"/>
	<path class="st16" d="M1130.1,890.7c0.9-1.4,1.8-2.8,2.7-4.1c-2-1.3-3.3,0.2-3.8,4.4C1129.3,890.9,1129.7,890.8,1130.1,890.7z"/>
	<path class="st4" d="M1127.8,877.8c-0.5,0.2-1,0.4-1.4,0.6c0.3,0.5,0.6,1,0.9,1.5c0.3-0.6,0.7-1.2,1-1.8
		C1128.1,877.9,1127.9,877.9,1127.8,877.8z"/>
	<path class="st15" d="M1086.6,867c2.1,0.3,4.2,0.6,6.2,0.9c3.4-4.3-5.6-3.1-5.8-3.1C1086.9,865.5,1086.8,866.2,1086.6,867z"/>
	<path class="st8" d="M1091.8,889c0-0.2,0-0.3,0-0.5c-0.2,0-0.4,0-0.6,0C1091.4,888.7,1091.6,888.9,1091.8,889z"/>
	<path class="st9" d="M1098.9,858.9c0.1,0.1,0.2,0.2,0.3,0.3c-0.2-1.4-0.2-2.8-0.3-4.3c-0.8,0.3-1.6,0.6-2.5,1
		C1097.2,856.9,1098,857.9,1098.9,858.9z"/>
	<path class="st16" d="M1114.2,875c-1.3,1.9-0.9,3.6,1,5.1c6-2.1,7-5.2,3-9.3C1117,872.3,1115.6,873.7,1114.2,875z"/>
	<path class="st7" d="M1089.5,852.8c-0.8-1.6-1.6-3.2-2.3-4.8c-0.7,0.4-1.4,0.9-2.1,1.3c0.9,1.4,1.7,2.8,2.5,4.3
		C1088.6,853.8,1089.2,853.5,1089.5,852.8z"/>
	<path class="st4" d="M1066.4,867.3c0.1,0,0.2,0.1,0.2,0.1c0.3-0.6,0.5-1.3,0.4-2.1C1066.8,866,1066.6,866.7,1066.4,867.3z"/>
	<path class="st8" d="M1072.8,891.6c0.3,1.5,1.1,2.1,2.4,1.9C1074.4,892.8,1073.6,892.2,1072.8,891.6z"/>
	<path class="st13" d="M1116,838.6c-0.1-0.1-0.2-0.3-0.4-0.4c-4.2,3.1-5.1,1.7-3.4,3.9C1113.7,841.2,1114.9,840,1116,838.6z"/>
	<path class="st16" d="M1101.9,893.6c-0.2-0.1-0.3-0.2-0.5-0.4c-0.1,0.2-0.2,0.3-0.3,0.5c0.2,0.1,0.4,0.2,0.6,0.3
		C1101.8,893.9,1101.9,893.8,1101.9,893.6z"/>
</g>
</svg>
